Track 1: size = 4

@0 Other message: class javax.sound.midi.MetaMessage
@0 Other message: class javax.sound.midi.MetaMessage
@0 Other message: class javax.sound.midi.MetaMessage
@168480 Other message: class javax.sound.midi.Track$ImmutableEndOfTrack

Track 2: size = 207

@0 Other message: class javax.sound.midi.MetaMessage
@0 Other message: class javax.sound.midi.MetaMessage
@0 Other message: class javax.sound.midi.MetaMessage
@0 Other message: class javax.sound.midi.MetaMessage
@10 Channel: 0 Command:176
@15 Channel: 0 Command:176
@20 Channel: 0 Command:192
@25 Channel: 0 Command:176
@30 Channel: 0 Command:176
@35 Channel: 0 Command:176
@40 Channel: 0 Command:176
@45 Channel: 0 Command:176
@45 Channel: 0 Command:176
@45 Channel: 0 Command:176
@50 Channel: 0 Command:176
@50 Channel: 0 Command:176
@50 Channel: 0 Command:176
@55 Channel: 0 Command:176
@55 Channel: 0 Command:176
@55 Channel: 0 Command:176
@60 Channel: 0 Command:176
@60 Channel: 0 Command:176
@60 Channel: 0 Command:176
@65 Channel: 0 Command:176
@65 Channel: 0 Command:176
@65 Channel: 0 Command:176
@70 Channel: 0 Command:176
@70 Channel: 0 Command:176
@70 Channel: 0 Command:176
@75 Channel: 0 Command:176
@75 Channel: 0 Command:176
@75 Channel: 0 Command:176
@80 Channel: 0 Command:176
@80 Channel: 0 Command:176
@80 Channel: 0 Command:176
@85 Channel: 0 Command:176
@85 Channel: 0 Command:176
@85 Channel: 0 Command:176
@7200 Channel: 0 Command:176
@7200 Channel: 0 Command:176
@7200 Channel: 0 Command:176
@7200 Channel: 0 Command:176
@60480 Channel: 0 Command:176
@60480 Channel: 0 Command:176
@60480 Channel: 0 Command:176
@60480 Channel: 0 Command:176
@61163 Channel: 0 Command:176
@61440 Channel: 0 Note on, E4 key=64 velocity: 107
@61440 Channel: 0 Note on, E5 key=76 velocity: 125
@61559 Channel: 0 Command:176
@61594 Channel: 0 Command:176
@61675 Channel: 0 Command:176
@61737 Channel: 0 Command:176
@61799 Channel: 0 Command:176
@61847 Channel: 0 Note off, E5 key=76 velocity: 125
@61862 Channel: 0 Command:176
@61862 Channel: 0 Note off, E4 key=64 velocity: 107
@61906 Channel: 0 Command:176
@61920 Channel: 0 Note on, A5 key=81 velocity: 127
@61920 Channel: 0 Note on, A4 key=69 velocity: 125
@61942 Channel: 0 Command:176
@62022 Channel: 0 Command:176
@62093 Channel: 0 Command:176
@62192 Channel: 0 Command:176
@62272 Channel: 0 Command:176
@62316 Channel: 0 Command:176
@62361 Channel: 0 Command:176
@62396 Channel: 0 Command:176
@62432 Channel: 0 Command:176
@62468 Channel: 0 Command:176
@62494 Channel: 0 Command:176
@62529 Channel: 0 Command:176
@62557 Channel: 0 Command:176
@62592 Channel: 0 Command:176
@62619 Channel: 0 Command:176
@62654 Channel: 0 Command:176
@62690 Channel: 0 Command:176
@62725 Channel: 0 Command:176
@62752 Channel: 0 Command:176
@62770 Channel: 0 Command:176
@62778 Channel: 0 Command:176
@62824 Channel: 0 Command:176
@63269 Channel: 0 Note off, A5 key=81 velocity: 127
@63298 Channel: 0 Note off, A4 key=69 velocity: 125
@63523 Channel: 0 Note on, A4 key=69 velocity: 125
@64776 Channel: 0 Note on, B4 key=71 velocity: 127
@64795 Channel: 0 Note off, A4 key=69 velocity: 125
@65280 Channel: 0 Note on, A4 key=69 velocity: 112
@65305 Channel: 0 Note off, B4 key=71 velocity: 127
@65754 Channel: 0 Note on, G4 key=67 velocity: 111
@65758 Channel: 0 Note off, A4 key=69 velocity: 112
@66238 Channel: 0 Note off, G4 key=67 velocity: 111
@66243 Channel: 0 Note on, A4 key=69 velocity: 125
@67656 Channel: 0 Note on, B4 key=71 velocity: 127
@67675 Channel: 0 Note off, A4 key=69 velocity: 125
@68160 Channel: 0 Note on, A4 key=69 velocity: 112
@68185 Channel: 0 Note off, B4 key=71 velocity: 127
@68634 Channel: 0 Note on, G4 key=67 velocity: 111
@68638 Channel: 0 Note off, A4 key=69 velocity: 112
@69118 Channel: 0 Note off, G4 key=67 velocity: 111
@69123 Channel: 0 Note on, A4 key=69 velocity: 125
@70536 Channel: 0 Note on, B4 key=71 velocity: 127
@70555 Channel: 0 Note off, A4 key=69 velocity: 125
@71040 Channel: 0 Note on, C#5 key=73 velocity: 112
@71065 Channel: 0 Note off, B4 key=71 velocity: 127
@71514 Channel: 0 Note on, D5 key=74 velocity: 111
@71518 Channel: 0 Note off, C#5 key=73 velocity: 112
@71998 Channel: 0 Note off, D5 key=74 velocity: 111
@72000 Channel: 0 Note on, F#4 key=66 velocity: 127
@73440 Channel: 0 Note off, F#4 key=66 velocity: 127
@73446 Channel: 0 Note on, E4 key=64 velocity: 127
@73928 Channel: 0 Note on, F#4 key=66 velocity: 123
@73946 Channel: 0 Note off, E4 key=64 velocity: 127
@74403 Channel: 0 Note on, G4 key=67 velocity: 114
@74406 Channel: 0 Note off, F#4 key=66 velocity: 123
@74877 Channel: 0 Note off, G4 key=67 velocity: 114
@74883 Channel: 0 Note on, A4 key=69 velocity: 124
@76296 Channel: 0 Note on, B4 key=71 velocity: 127
@76308 Channel: 0 Note off, A4 key=69 velocity: 124
@76800 Channel: 0 Note on, A4 key=69 velocity: 112
@76825 Channel: 0 Note off, B4 key=71 velocity: 127
@77274 Channel: 0 Note on, G4 key=67 velocity: 111
@77278 Channel: 0 Note off, A4 key=69 velocity: 112
@77758 Channel: 0 Note off, G4 key=67 velocity: 111
@77763 Channel: 0 Note on, A4 key=69 velocity: 125
@79176 Channel: 0 Note on, B4 key=71 velocity: 127
@79195 Channel: 0 Note off, A4 key=69 velocity: 125
@79680 Channel: 0 Note on, A4 key=69 velocity: 112
@79705 Channel: 0 Note off, B4 key=71 velocity: 127
@80154 Channel: 0 Note on, G4 key=67 velocity: 111
@80158 Channel: 0 Note off, A4 key=69 velocity: 112
@80638 Channel: 0 Note off, G4 key=67 velocity: 111
@80643 Channel: 0 Note on, A4 key=69 velocity: 125
@82056 Channel: 0 Note on, B4 key=71 velocity: 127
@82075 Channel: 0 Note off, A4 key=69 velocity: 125
@82560 Channel: 0 Note on, C#5 key=73 velocity: 112
@82585 Channel: 0 Note off, B4 key=71 velocity: 127
@83034 Channel: 0 Note on, D5 key=74 velocity: 111
@83038 Channel: 0 Note off, C#5 key=73 velocity: 112
@83518 Channel: 0 Note off, D5 key=74 velocity: 111
@83520 Channel: 0 Note on, F#4 key=66 velocity: 127
@84960 Channel: 0 Note off, F#4 key=66 velocity: 127
@84966 Channel: 0 Note on, E4 key=64 velocity: 127
@86166 Channel: 0 Note off, E4 key=64 velocity: 127
@86737 Channel: 0 Note on, D4 key=62 velocity: 92
@88024 Channel: 0 Note off, D4 key=62 velocity: 92
@111043 Channel: 0 Note on, A4 key=69 velocity: 125
@112296 Channel: 0 Note on, B4 key=71 velocity: 127
@112315 Channel: 0 Note off, A4 key=69 velocity: 125
@112800 Channel: 0 Note on, A4 key=69 velocity: 112
@112825 Channel: 0 Note off, B4 key=71 velocity: 127
@113274 Channel: 0 Note on, G4 key=67 velocity: 111
@113278 Channel: 0 Note off, A4 key=69 velocity: 112
@113758 Channel: 0 Note off, G4 key=67 velocity: 111
@113763 Channel: 0 Note on, A4 key=69 velocity: 125
@115176 Channel: 0 Note on, B4 key=71 velocity: 127
@115195 Channel: 0 Note off, A4 key=69 velocity: 125
@115680 Channel: 0 Note on, A4 key=69 velocity: 112
@115705 Channel: 0 Note off, B4 key=71 velocity: 127
@116154 Channel: 0 Note on, G4 key=67 velocity: 111
@116158 Channel: 0 Note off, A4 key=69 velocity: 112
@116638 Channel: 0 Note off, G4 key=67 velocity: 111
@116643 Channel: 0 Note on, A4 key=69 velocity: 125
@118056 Channel: 0 Note on, B4 key=71 velocity: 127
@118075 Channel: 0 Note off, A4 key=69 velocity: 125
@118560 Channel: 0 Note on, C#5 key=73 velocity: 112
@118585 Channel: 0 Note off, B4 key=71 velocity: 127
@119034 Channel: 0 Note on, D5 key=74 velocity: 111
@119038 Channel: 0 Note off, C#5 key=73 velocity: 112
@119518 Channel: 0 Note off, D5 key=74 velocity: 111
@119520 Channel: 0 Note on, F#4 key=66 velocity: 127
@120960 Channel: 0 Note off, F#4 key=66 velocity: 127
@120966 Channel: 0 Note on, E4 key=64 velocity: 127
@121448 Channel: 0 Note on, F#4 key=66 velocity: 123
@121466 Channel: 0 Note off, E4 key=64 velocity: 127
@121923 Channel: 0 Note on, G4 key=67 velocity: 114
@121926 Channel: 0 Note off, F#4 key=66 velocity: 123
@122397 Channel: 0 Note off, G4 key=67 velocity: 114
@122403 Channel: 0 Note on, A4 key=69 velocity: 124
@123816 Channel: 0 Note on, B4 key=71 velocity: 127
@123828 Channel: 0 Note off, A4 key=69 velocity: 124
@124320 Channel: 0 Note on, A4 key=69 velocity: 112
@124345 Channel: 0 Note off, B4 key=71 velocity: 127
@124794 Channel: 0 Note on, G4 key=67 velocity: 111
@124798 Channel: 0 Note off, A4 key=69 velocity: 112
@125278 Channel: 0 Note off, G4 key=67 velocity: 111
@125283 Channel: 0 Note on, A4 key=69 velocity: 125
@126696 Channel: 0 Note on, B4 key=71 velocity: 127
@126715 Channel: 0 Note off, A4 key=69 velocity: 125
@127200 Channel: 0 Note on, A4 key=69 velocity: 112
@127225 Channel: 0 Note off, B4 key=71 velocity: 127
@127674 Channel: 0 Note on, G4 key=67 velocity: 111
@127678 Channel: 0 Note off, A4 key=69 velocity: 112
@128158 Channel: 0 Note off, G4 key=67 velocity: 111
@128163 Channel: 0 Note on, A4 key=69 velocity: 125
@129576 Channel: 0 Note on, B4 key=71 velocity: 127
@129595 Channel: 0 Note off, A4 key=69 velocity: 125
@130080 Channel: 0 Note on, C#5 key=73 velocity: 112
@130105 Channel: 0 Note off, B4 key=71 velocity: 127
@130554 Channel: 0 Note on, D5 key=74 velocity: 111
@130558 Channel: 0 Note off, C#5 key=73 velocity: 112
@131038 Channel: 0 Note off, D5 key=74 velocity: 111
@131040 Channel: 0 Note on, F#4 key=66 velocity: 127
@132480 Channel: 0 Note off, F#4 key=66 velocity: 127
@132486 Channel: 0 Note on, E4 key=64 velocity: 127
@133686 Channel: 0 Note off, E4 key=64 velocity: 127
@168480 Other message: class javax.sound.midi.Track$ImmutableEndOfTrack

Track 3: size = 1138

@0 Other message: class javax.sound.midi.MetaMessage
@0 Other message: class javax.sound.midi.MetaMessage
@0 Other message: class javax.sound.midi.MetaMessage
@0 Other message: class javax.sound.midi.MetaMessage
@90 Channel: 1 Command:176
@95 Channel: 1 Command:176
@100 Channel: 1 Command:192
@105 Channel: 1 Command:176
@110 Channel: 1 Command:176
@115 Channel: 1 Command:176
@120 Channel: 1 Command:176
@125 Channel: 1 Command:176
@125 Channel: 1 Command:176
@125 Channel: 1 Command:176
@130 Channel: 1 Command:176
@130 Channel: 1 Command:176
@130 Channel: 1 Command:176
@135 Channel: 1 Command:176
@135 Channel: 1 Command:176
@135 Channel: 1 Command:176
@140 Channel: 1 Command:176
@140 Channel: 1 Command:176
@140 Channel: 1 Command:176
@145 Channel: 1 Command:176
@145 Channel: 1 Command:176
@145 Channel: 1 Command:176
@150 Channel: 1 Command:176
@150 Channel: 1 Command:176
@150 Channel: 1 Command:176
@155 Channel: 1 Command:176
@155 Channel: 1 Command:176
@155 Channel: 1 Command:176
@160 Channel: 1 Command:176
@160 Channel: 1 Command:176
@160 Channel: 1 Command:176
@165 Channel: 1 Command:176
@165 Channel: 1 Command:176
@165 Channel: 1 Command:176
@12488 Channel: 1 Note on, A3 key=57 velocity: 88
@12488 Channel: 1 Note on, A2 key=45 velocity: 108
@12960 Channel: 1 Note off, A3 key=57 velocity: 88
@12960 Channel: 1 Note off, A2 key=45 velocity: 108
@12972 Channel: 1 Note on, F4 key=65 velocity: 85
@12974 Channel: 1 Note on, F3 key=53 velocity: 98
@13318 Channel: 1 Note off, F3 key=53 velocity: 98
@13328 Channel: 1 Note on, E3 key=52 velocity: 90
@13328 Channel: 1 Note on, E4 key=64 velocity: 85
@13344 Channel: 1 Note off, F4 key=65 velocity: 85
@13445 Channel: 1 Note on, D4 key=62 velocity: 98
@13454 Channel: 1 Note on, D3 key=50 velocity: 68
@13461 Channel: 1 Note off, E4 key=64 velocity: 85
@13465 Channel: 1 Note off, E3 key=52 velocity: 90
@13929 Channel: 1 Note on, C#4 key=61 velocity: 87
@13931 Channel: 1 Note on, C#3 key=49 velocity: 110
@13936 Channel: 1 Note off, D3 key=50 velocity: 68
@13958 Channel: 1 Note off, D4 key=62 velocity: 98
@14281 Channel: 1 Note off, C#3 key=49 velocity: 110
@14283 Channel: 1 Note on, D3 key=50 velocity: 80
@14284 Channel: 1 Note off, C#4 key=61 velocity: 87
@14284 Channel: 1 Note on, D4 key=62 velocity: 87
@14400 Channel: 1 Note off, D4 key=62 velocity: 87
@14400 Channel: 1 Note off, D3 key=50 velocity: 80
@14411 Channel: 1 Note on, E4 key=64 velocity: 90
@14412 Channel: 1 Note on, E3 key=52 velocity: 87
@14774 Channel: 1 Note off, E4 key=64 velocity: 90
@14778 Channel: 1 Note on, C#4 key=61 velocity: 87
@14778 Channel: 1 Note on, C#3 key=49 velocity: 97
@14781 Channel: 1 Note off, E3 key=52 velocity: 87
@14879 Channel: 1 Note off, C#3 key=49 velocity: 97
@14892 Channel: 1 Note off, C#4 key=61 velocity: 87
@14894 Channel: 1 Note on, A2 key=45 velocity: 100
@14900 Channel: 1 Note on, A3 key=57 velocity: 94
@15531 Channel: 1 Note off, A2 key=45 velocity: 100
@15541 Channel: 1 Note off, A3 key=57 velocity: 94
@15606 Channel: 1 Note on, A2 key=45 velocity: 84
@15608 Channel: 1 Note on, A3 key=57 velocity: 87
@15819 Channel: 1 Note off, A2 key=45 velocity: 84
@15827 Channel: 1 Note off, A3 key=57 velocity: 87
@15843 Channel: 1 Note on, F4 key=65 velocity: 68
@15844 Channel: 1 Note on, F3 key=53 velocity: 94
@16206 Channel: 1 Note on, E4 key=64 velocity: 85
@16206 Channel: 1 Note on, E3 key=52 velocity: 80
@16207 Channel: 1 Note off, F3 key=53 velocity: 94
@16213 Channel: 1 Note off, F4 key=65 velocity: 68
@16319 Channel: 1 Note off, E3 key=52 velocity: 80
@16324 Channel: 1 Note on, D4 key=62 velocity: 87
@16326 Channel: 1 Note on, D3 key=50 velocity: 88
@16332 Channel: 1 Note off, E4 key=64 velocity: 85
@16795 Channel: 1 Note off, D3 key=50 velocity: 88
@16801 Channel: 1 Note on, C#3 key=49 velocity: 101
@16807 Channel: 1 Note on, C#4 key=61 velocity: 95
@16814 Channel: 1 Note off, D4 key=62 velocity: 87
@17135 Channel: 1 Note off, C#3 key=49 velocity: 101
@17153 Channel: 1 Note off, C#4 key=61 velocity: 95
@17157 Channel: 1 Note on, D3 key=50 velocity: 76
@17158 Channel: 1 Note on, D4 key=62 velocity: 79
@17277 Channel: 1 Note off, D3 key=50 velocity: 76
@17280 Channel: 1 Note off, D4 key=62 velocity: 79
@17282 Channel: 1 Note on, E3 key=52 velocity: 94
@17283 Channel: 1 Note on, E4 key=64 velocity: 79
@18167 Channel: 1 Note off, E3 key=52 velocity: 94
@18172 Channel: 1 Note off, E4 key=64 velocity: 79
@18227 Channel: 1 Note on, C4 key=60 velocity: 85
@18229 Channel: 1 Note on, C3 key=48 velocity: 90
@18720 Channel: 1 Note off, C4 key=60 velocity: 85
@18720 Channel: 1 Note off, C3 key=48 velocity: 90
@18722 Channel: 1 Note on, A4 key=69 velocity: 92
@18725 Channel: 1 Note on, A3 key=57 velocity: 87
@19076 Channel: 1 Note off, A3 key=57 velocity: 87
@19083 Channel: 1 Note on, G3 key=55 velocity: 88
@19086 Channel: 1 Note on, G4 key=67 velocity: 87
@19111 Channel: 1 Note off, A4 key=69 velocity: 92
@19192 Channel: 1 Note off, G3 key=55 velocity: 88
@19197 Channel: 1 Note on, F3 key=53 velocity: 84
@19203 Channel: 1 Note on, F4 key=65 velocity: 91
@19205 Channel: 1 Note off, G4 key=67 velocity: 87
@19687 Channel: 1 Note on, E4 key=64 velocity: 85
@19688 Channel: 1 Note on, E3 key=52 velocity: 80
@19696 Channel: 1 Note off, F3 key=53 velocity: 84
@19700 Channel: 1 Note off, F4 key=65 velocity: 91
@20039 Channel: 1 Note off, E3 key=52 velocity: 80
@20047 Channel: 1 Note on, F3 key=53 velocity: 75
@20049 Channel: 1 Note on, F4 key=65 velocity: 83
@20070 Channel: 1 Note off, E4 key=64 velocity: 85
@20157 Channel: 1 Note off, F3 key=53 velocity: 75
@20160 Channel: 1 Note off, F4 key=65 velocity: 83
@20167 Channel: 1 Note on, G4 key=67 velocity: 80
@20167 Channel: 1 Note on, G3 key=55 velocity: 102
@20521 Channel: 1 Note off, G3 key=55 velocity: 102
@20529 Channel: 1 Note on, E3 key=52 velocity: 81
@20532 Channel: 1 Note on, E4 key=64 velocity: 88
@20542 Channel: 1 Note off, G4 key=67 velocity: 80
@20641 Channel: 1 Note off, E3 key=52 velocity: 81
@20642 Channel: 1 Note off, E4 key=64 velocity: 88
@20648 Channel: 1 Note on, C4 key=60 velocity: 92
@20649 Channel: 1 Note on, C3 key=48 velocity: 92
@21298 Channel: 1 Note off, C3 key=48 velocity: 92
@21300 Channel: 1 Note off, C4 key=60 velocity: 92
@21369 Channel: 1 Note on, C3 key=48 velocity: 92
@21370 Channel: 1 Note on, C4 key=60 velocity: 91
@21597 Channel: 1 Note off, C3 key=48 velocity: 92
@21600 Channel: 1 Note off, C4 key=60 velocity: 91
@21602 Channel: 1 Note on, A#2 key=46 velocity: 116
@21604 Channel: 1 Note on, A#3 key=58 velocity: 91
@21951 Channel: 1 Note off, A#2 key=46 velocity: 116
@21966 Channel: 1 Note on, C3 key=48 velocity: 90
@21969 Channel: 1 Note on, C4 key=60 velocity: 85
@21978 Channel: 1 Note off, A#3 key=58 velocity: 91
@22084 Channel: 1 Note off, C4 key=60 velocity: 85
@22084 Channel: 1 Note off, C3 key=48 velocity: 90
@22088 Channel: 1 Note on, D3 key=50 velocity: 92
@22090 Channel: 1 Note on, D4 key=62 velocity: 84
@22555 Channel: 1 Note off, D3 key=50 velocity: 92
@22562 Channel: 1 Note on, C3 key=48 velocity: 98
@22563 Channel: 1 Note on, C4 key=60 velocity: 102
@22568 Channel: 1 Note off, D4 key=62 velocity: 84
@22896 Channel: 1 Note off, C3 key=48 velocity: 98
@22911 Channel: 1 Note on, A#2 key=46 velocity: 101
@22913 Channel: 1 Note on, A#3 key=58 velocity: 89
@22922 Channel: 1 Note off, C4 key=60 velocity: 102
@23028 Channel: 1 Note off, A#2 key=46 velocity: 101
@23036 Channel: 1 Note off, A#3 key=58 velocity: 89
@23038 Channel: 1 Note on, A3 key=57 velocity: 95
@23041 Channel: 1 Note on, A2 key=45 velocity: 97
@25426 Channel: 1 Note off, A2 key=45 velocity: 97
@25432 Channel: 1 Note off, A3 key=57 velocity: 95
@25448 Channel: 1 Note on, A2 key=45 velocity: 108
@25448 Channel: 1 Note on, A3 key=57 velocity: 103
@25920 Channel: 1 Note off, A2 key=45 velocity: 108
@25920 Channel: 1 Note off, A3 key=57 velocity: 103
@25932 Channel: 1 Note on, F4 key=65 velocity: 85
@25934 Channel: 1 Note on, F3 key=53 velocity: 98
@26278 Channel: 1 Note off, F3 key=53 velocity: 98
@26288 Channel: 1 Note on, E3 key=52 velocity: 90
@26288 Channel: 1 Note on, E4 key=64 velocity: 85
@26304 Channel: 1 Note off, F4 key=65 velocity: 85
@26405 Channel: 1 Note on, D4 key=62 velocity: 98
@26414 Channel: 1 Note on, D3 key=50 velocity: 68
@26421 Channel: 1 Note off, E4 key=64 velocity: 85
@26425 Channel: 1 Note off, E3 key=52 velocity: 90
@26889 Channel: 1 Note on, C#4 key=61 velocity: 87
@26891 Channel: 1 Note on, C#3 key=49 velocity: 110
@26896 Channel: 1 Note off, D3 key=50 velocity: 68
@26918 Channel: 1 Note off, D4 key=62 velocity: 98
@27241 Channel: 1 Note off, C#3 key=49 velocity: 110
@27243 Channel: 1 Note on, D3 key=50 velocity: 80
@27244 Channel: 1 Note off, C#4 key=61 velocity: 87
@27244 Channel: 1 Note on, D4 key=62 velocity: 87
@27360 Channel: 1 Note off, D4 key=62 velocity: 87
@27360 Channel: 1 Note off, D3 key=50 velocity: 80
@27371 Channel: 1 Note on, E4 key=64 velocity: 90
@27372 Channel: 1 Note on, E3 key=52 velocity: 87
@27734 Channel: 1 Note off, E4 key=64 velocity: 90
@27738 Channel: 1 Note on, C#4 key=61 velocity: 87
@27738 Channel: 1 Note on, C#3 key=49 velocity: 97
@27741 Channel: 1 Note off, E3 key=52 velocity: 87
@27839 Channel: 1 Note off, C#3 key=49 velocity: 97
@27852 Channel: 1 Note off, C#4 key=61 velocity: 87
@27854 Channel: 1 Note on, A2 key=45 velocity: 100
@27860 Channel: 1 Note on, A3 key=57 velocity: 94
@28491 Channel: 1 Note off, A2 key=45 velocity: 100
@28501 Channel: 1 Note off, A3 key=57 velocity: 94
@28566 Channel: 1 Note on, A2 key=45 velocity: 84
@28568 Channel: 1 Note on, A3 key=57 velocity: 87
@28779 Channel: 1 Note off, A2 key=45 velocity: 84
@28787 Channel: 1 Note off, A3 key=57 velocity: 87
@28803 Channel: 1 Note on, F4 key=65 velocity: 68
@28804 Channel: 1 Note on, F3 key=53 velocity: 94
@29166 Channel: 1 Note on, E4 key=64 velocity: 85
@29166 Channel: 1 Note on, E3 key=52 velocity: 80
@29167 Channel: 1 Note off, F3 key=53 velocity: 94
@29173 Channel: 1 Note off, F4 key=65 velocity: 68
@29279 Channel: 1 Note off, E3 key=52 velocity: 80
@29284 Channel: 1 Note on, D4 key=62 velocity: 87
@29286 Channel: 1 Note on, D3 key=50 velocity: 88
@29292 Channel: 1 Note off, E4 key=64 velocity: 85
@29761 Channel: 1 Note on, C#3 key=49 velocity: 101
@29762 Channel: 1 Note off, D4 key=62 velocity: 87
@29763 Channel: 1 Note off, D3 key=50 velocity: 88
@29767 Channel: 1 Note on, C#4 key=61 velocity: 95
@30111 Channel: 1 Note off, C#3 key=49 velocity: 101
@30113 Channel: 1 Note off, C#4 key=61 velocity: 95
@30117 Channel: 1 Note on, D3 key=50 velocity: 76
@30118 Channel: 1 Note on, D4 key=62 velocity: 79
@30237 Channel: 1 Note off, D3 key=50 velocity: 76
@30240 Channel: 1 Note off, D4 key=62 velocity: 79
@30242 Channel: 1 Note on, E3 key=52 velocity: 94
@30243 Channel: 1 Note on, E4 key=64 velocity: 79
@31127 Channel: 1 Note off, E3 key=52 velocity: 94
@31132 Channel: 1 Note off, E4 key=64 velocity: 79
@31187 Channel: 1 Note on, C4 key=60 velocity: 85
@31189 Channel: 1 Note on, C3 key=48 velocity: 90
@31680 Channel: 1 Note off, C4 key=60 velocity: 85
@31680 Channel: 1 Note off, C3 key=48 velocity: 90
@31682 Channel: 1 Note on, A4 key=69 velocity: 92
@31685 Channel: 1 Note on, A3 key=57 velocity: 87
@32036 Channel: 1 Note off, A3 key=57 velocity: 87
@32043 Channel: 1 Note on, G3 key=55 velocity: 88
@32046 Channel: 1 Note on, G4 key=67 velocity: 87
@32071 Channel: 1 Note off, A4 key=69 velocity: 92
@32152 Channel: 1 Note off, G3 key=55 velocity: 88
@32157 Channel: 1 Note on, F3 key=53 velocity: 84
@32163 Channel: 1 Note on, F4 key=65 velocity: 91
@32165 Channel: 1 Note off, G4 key=67 velocity: 87
@32647 Channel: 1 Note on, E4 key=64 velocity: 85
@32648 Channel: 1 Note on, E3 key=52 velocity: 80
@32656 Channel: 1 Note off, F3 key=53 velocity: 84
@32660 Channel: 1 Note off, F4 key=65 velocity: 91
@32999 Channel: 1 Note off, E3 key=52 velocity: 80
@33007 Channel: 1 Note on, F3 key=53 velocity: 75
@33009 Channel: 1 Note on, F4 key=65 velocity: 83
@33030 Channel: 1 Note off, E4 key=64 velocity: 85
@33117 Channel: 1 Note off, F3 key=53 velocity: 75
@33120 Channel: 1 Note off, F4 key=65 velocity: 83
@33127 Channel: 1 Note on, G4 key=67 velocity: 80
@33127 Channel: 1 Note on, G3 key=55 velocity: 102
@33481 Channel: 1 Note off, G3 key=55 velocity: 102
@33489 Channel: 1 Note on, E3 key=52 velocity: 81
@33492 Channel: 1 Note on, E4 key=64 velocity: 88
@33502 Channel: 1 Note off, G4 key=67 velocity: 80
@33601 Channel: 1 Note off, E3 key=52 velocity: 81
@33602 Channel: 1 Note off, E4 key=64 velocity: 88
@33608 Channel: 1 Note on, C4 key=60 velocity: 92
@33609 Channel: 1 Note on, C3 key=48 velocity: 92
@34258 Channel: 1 Note off, C3 key=48 velocity: 92
@34260 Channel: 1 Note off, C4 key=60 velocity: 92
@34329 Channel: 1 Note on, C3 key=48 velocity: 92
@34330 Channel: 1 Note on, C4 key=60 velocity: 91
@34557 Channel: 1 Note off, C3 key=48 velocity: 92
@34560 Channel: 1 Note off, C4 key=60 velocity: 91
@34562 Channel: 1 Note on, A#2 key=46 velocity: 116
@34564 Channel: 1 Note on, A#3 key=58 velocity: 91
@34911 Channel: 1 Note off, A#2 key=46 velocity: 116
@34926 Channel: 1 Note on, C3 key=48 velocity: 90
@34929 Channel: 1 Note on, C4 key=60 velocity: 85
@34938 Channel: 1 Note off, A#3 key=58 velocity: 91
@35044 Channel: 1 Note off, C4 key=60 velocity: 85
@35044 Channel: 1 Note off, C3 key=48 velocity: 90
@35048 Channel: 1 Note on, D3 key=50 velocity: 92
@35050 Channel: 1 Note on, D4 key=62 velocity: 84
@35515 Channel: 1 Note off, D3 key=50 velocity: 92
@35522 Channel: 1 Note on, C3 key=48 velocity: 98
@35523 Channel: 1 Note on, C4 key=60 velocity: 102
@35528 Channel: 1 Note off, D4 key=62 velocity: 84
@35856 Channel: 1 Note off, C3 key=48 velocity: 98
@35871 Channel: 1 Note on, A#2 key=46 velocity: 101
@35873 Channel: 1 Note on, A#3 key=58 velocity: 89
@35882 Channel: 1 Note off, C4 key=60 velocity: 102
@35988 Channel: 1 Note off, A#2 key=46 velocity: 101
@35996 Channel: 1 Note off, A#3 key=58 velocity: 89
@35998 Channel: 1 Note on, A3 key=57 velocity: 97
@36001 Channel: 1 Note on, A2 key=45 velocity: 96
@36840 Channel: 1 Command:192
@36908 Channel: 1 Note off, A3 key=57 velocity: 97
@36920 Channel: 1 Note off, A2 key=45 velocity: 96
@36992 Channel: 1 Note on, A3 key=57 velocity: 110
@36993 Channel: 1 Note on, A2 key=45 velocity: 122
@37440 Channel: 1 Note off, A3 key=57 velocity: 110
@37440 Channel: 1 Note off, A2 key=45 velocity: 122
@37441 Channel: 1 Note on, F4 key=65 velocity: 85
@37441 Channel: 1 Note on, F3 key=53 velocity: 98
@37798 Channel: 1 Note off, F3 key=53 velocity: 98
@37801 Channel: 1 Note off, F4 key=65 velocity: 85
@37801 Channel: 1 Note on, E3 key=52 velocity: 90
@37801 Channel: 1 Note on, E4 key=64 velocity: 85
@37920 Channel: 1 Note off, E4 key=64 velocity: 85
@37921 Channel: 1 Note off, E3 key=52 velocity: 90
@37921 Channel: 1 Note on, D4 key=62 velocity: 98
@37921 Channel: 1 Note on, D3 key=50 velocity: 68
@38400 Channel: 1 Note off, D3 key=50 velocity: 68
@38401 Channel: 1 Note on, C#4 key=61 velocity: 87
@38401 Channel: 1 Note on, C#3 key=49 velocity: 110
@38402 Channel: 1 Note off, D4 key=62 velocity: 98
@38758 Channel: 1 Note off, C#3 key=49 velocity: 110
@38759 Channel: 1 Note off, C#4 key=61 velocity: 87
@38760 Channel: 1 Note on, D4 key=62 velocity: 87
@38760 Channel: 1 Note on, D3 key=50 velocity: 80
@38880 Channel: 1 Note off, D4 key=62 velocity: 87
@38880 Channel: 1 Note off, D3 key=50 velocity: 80
@38881 Channel: 1 Note on, E4 key=64 velocity: 90
@38881 Channel: 1 Note on, E3 key=52 velocity: 87
@39240 Channel: 1 Note off, E4 key=64 velocity: 90
@39240 Channel: 1 Note off, E3 key=52 velocity: 87
@39242 Channel: 1 Note on, C#4 key=61 velocity: 87
@39242 Channel: 1 Note on, C#3 key=49 velocity: 97
@39358 Channel: 1 Note off, C#3 key=49 velocity: 97
@39359 Channel: 1 Note off, C#4 key=61 velocity: 87
@39361 Channel: 1 Note on, A2 key=45 velocity: 100
@39362 Channel: 1 Note on, A3 key=57 velocity: 94
@40072 Channel: 1 Note off, A3 key=57 velocity: 94
@40076 Channel: 1 Note off, A2 key=45 velocity: 100
@40081 Channel: 1 Note on, A3 key=57 velocity: 87
@40081 Channel: 1 Note on, A2 key=45 velocity: 84
@40316 Channel: 1 Note off, A2 key=45 velocity: 84
@40317 Channel: 1 Note off, A3 key=57 velocity: 87
@40320 Channel: 1 Note on, F4 key=65 velocity: 68
@40320 Channel: 1 Note on, F3 key=53 velocity: 94
@40679 Channel: 1 Note off, F3 key=53 velocity: 94
@40680 Channel: 1 Note off, F4 key=65 velocity: 68
@40681 Channel: 1 Note on, E4 key=64 velocity: 85
@40681 Channel: 1 Note on, E3 key=52 velocity: 80
@40798 Channel: 1 Note off, E3 key=52 velocity: 80
@40799 Channel: 1 Note off, E4 key=64 velocity: 85
@40800 Channel: 1 Note on, D4 key=62 velocity: 87
@40801 Channel: 1 Note on, D3 key=50 velocity: 88
@41278 Channel: 1 Note off, D3 key=50 velocity: 88
@41280 Channel: 1 Note off, D4 key=62 velocity: 87
@41280 Channel: 1 Note on, C#3 key=49 velocity: 101
@41281 Channel: 1 Note on, C#4 key=61 velocity: 95
@41636 Channel: 1 Note off, C#3 key=49 velocity: 101
@41637 Channel: 1 Note off, C#4 key=61 velocity: 95
@41640 Channel: 1 Note on, D4 key=62 velocity: 79
@41640 Channel: 1 Note on, D3 key=50 velocity: 76
@41758 Channel: 1 Note off, D4 key=62 velocity: 79
@41758 Channel: 1 Note off, D3 key=50 velocity: 76
@41760 Channel: 1 Note on, E4 key=64 velocity: 79
@41760 Channel: 1 Note on, E3 key=52 velocity: 94
@42701 Channel: 1 Note off, E3 key=52 velocity: 94
@42705 Channel: 1 Note off, E4 key=64 velocity: 79
@42719 Channel: 1 Note on, C4 key=60 velocity: 85
@42719 Channel: 1 Note on, C3 key=48 velocity: 90
@43198 Channel: 1 Note off, C3 key=48 velocity: 90
@43200 Channel: 1 Note off, C4 key=60 velocity: 85
@43200 Channel: 1 Note on, A4 key=69 velocity: 92
@43201 Channel: 1 Note on, A3 key=57 velocity: 87
@43558 Channel: 1 Note off, A3 key=57 velocity: 87
@43560 Channel: 1 Note on, G3 key=55 velocity: 88
@43561 Channel: 1 Note off, A4 key=69 velocity: 92
@43561 Channel: 1 Note on, G4 key=67 velocity: 87
@43677 Channel: 1 Note off, G3 key=55 velocity: 88
@43679 Channel: 1 Note off, G4 key=67 velocity: 87
@43680 Channel: 1 Note on, F4 key=65 velocity: 91
@43680 Channel: 1 Note on, F3 key=53 velocity: 84
@44160 Channel: 1 Note off, F4 key=65 velocity: 91
@44160 Channel: 1 Note off, F3 key=53 velocity: 84
@44161 Channel: 1 Note on, E4 key=64 velocity: 85
@44161 Channel: 1 Note on, E3 key=52 velocity: 80
@44518 Channel: 1 Note off, E3 key=52 velocity: 80
@44521 Channel: 1 Note off, E4 key=64 velocity: 85
@44521 Channel: 1 Note on, F4 key=65 velocity: 83
@44521 Channel: 1 Note on, F3 key=53 velocity: 75
@44638 Channel: 1 Note off, F4 key=65 velocity: 83
@44638 Channel: 1 Note off, F3 key=53 velocity: 75
@44641 Channel: 1 Note on, G4 key=67 velocity: 80
@44641 Channel: 1 Note on, G3 key=55 velocity: 102
@44998 Channel: 1 Note off, G3 key=55 velocity: 102
@45000 Channel: 1 Note off, G4 key=67 velocity: 80
@45001 Channel: 1 Note on, E4 key=64 velocity: 88
@45001 Channel: 1 Note on, E3 key=52 velocity: 81
@45118 Channel: 1 Note off, E4 key=64 velocity: 88
@45118 Channel: 1 Note off, E3 key=52 velocity: 81
@45121 Channel: 1 Note on, C3 key=48 velocity: 88
@45121 Channel: 1 Note on, C4 key=60 velocity: 92
@45832 Channel: 1 Note off, C4 key=60 velocity: 92
@45834 Channel: 1 Note off, C3 key=48 velocity: 88
@45841 Channel: 1 Note on, C4 key=60 velocity: 91
@45841 Channel: 1 Note on, C3 key=48 velocity: 92
@46078 Channel: 1 Note off, C3 key=48 velocity: 92
@46080 Channel: 1 Note off, C4 key=60 velocity: 91
@46080 Channel: 1 Note on, A#3 key=58 velocity: 91
@46080 Channel: 1 Note on, A#2 key=46 velocity: 116
@46437 Channel: 1 Note off, A#2 key=46 velocity: 116
@46440 Channel: 1 Note off, A#3 key=58 velocity: 91
@46441 Channel: 1 Note on, C4 key=60 velocity: 85
@46441 Channel: 1 Note on, C3 key=48 velocity: 90
@46559 Channel: 1 Note off, C4 key=60 velocity: 85
@46559 Channel: 1 Note off, C3 key=48 velocity: 90
@46561 Channel: 1 Note on, D4 key=62 velocity: 84
@46561 Channel: 1 Note on, D3 key=50 velocity: 92
@47038 Channel: 1 Note off, D3 key=50 velocity: 92
@47039 Channel: 1 Note off, D4 key=62 velocity: 84
@47040 Channel: 1 Note on, C4 key=60 velocity: 102
@47040 Channel: 1 Note on, C3 key=48 velocity: 98
@47396 Channel: 1 Note off, C3 key=48 velocity: 98
@47398 Channel: 1 Note off, C4 key=60 velocity: 102
@47399 Channel: 1 Note on, A#3 key=58 velocity: 89
@47399 Channel: 1 Note on, A#2 key=46 velocity: 101
@47517 Channel: 1 Note off, A#2 key=46 velocity: 101
@47518 Channel: 1 Note off, A#3 key=58 velocity: 89
@47520 Channel: 1 Note on, A3 key=57 velocity: 95
@47520 Channel: 1 Note on, A2 key=45 velocity: 97
@49917 Channel: 1 Note off, A3 key=57 velocity: 95
@49917 Channel: 1 Note off, A2 key=45 velocity: 97
@49921 Channel: 1 Note on, A3 key=57 velocity: 88
@49921 Channel: 1 Note on, A2 key=45 velocity: 108
@50399 Channel: 1 Note off, A2 key=45 velocity: 108
@50400 Channel: 1 Note off, A3 key=57 velocity: 88
@50401 Channel: 1 Note on, F4 key=65 velocity: 85
@50401 Channel: 1 Note on, F3 key=53 velocity: 98
@50758 Channel: 1 Note off, F3 key=53 velocity: 98
@50761 Channel: 1 Note off, F4 key=65 velocity: 85
@50761 Channel: 1 Note on, E3 key=52 velocity: 90
@50761 Channel: 1 Note on, E4 key=64 velocity: 85
@50880 Channel: 1 Note off, E4 key=64 velocity: 85
@50881 Channel: 1 Note off, E3 key=52 velocity: 90
@50881 Channel: 1 Note on, D4 key=62 velocity: 98
@50881 Channel: 1 Note on, D3 key=50 velocity: 68
@51360 Channel: 1 Note off, D3 key=50 velocity: 68
@51361 Channel: 1 Note on, C#4 key=61 velocity: 87
@51361 Channel: 1 Note on, C#3 key=49 velocity: 110
@51362 Channel: 1 Note off, D4 key=62 velocity: 98
@51718 Channel: 1 Note off, C#3 key=49 velocity: 110
@51719 Channel: 1 Note off, C#4 key=61 velocity: 87
@51720 Channel: 1 Note on, D4 key=62 velocity: 87
@51720 Channel: 1 Note on, D3 key=50 velocity: 80
@51840 Channel: 1 Note off, D4 key=62 velocity: 87
@51840 Channel: 1 Note off, D3 key=50 velocity: 80
@51841 Channel: 1 Note on, E4 key=64 velocity: 90
@51841 Channel: 1 Note on, E3 key=52 velocity: 87
@52200 Channel: 1 Note off, E4 key=64 velocity: 90
@52200 Channel: 1 Note off, E3 key=52 velocity: 87
@52202 Channel: 1 Note on, C#4 key=61 velocity: 87
@52202 Channel: 1 Note on, C#3 key=49 velocity: 97
@52318 Channel: 1 Note off, C#3 key=49 velocity: 97
@52319 Channel: 1 Note off, C#4 key=61 velocity: 87
@52321 Channel: 1 Note on, A2 key=45 velocity: 100
@52322 Channel: 1 Note on, A3 key=57 velocity: 94
@52923 Channel: 1 Note off, A2 key=45 velocity: 100
@53032 Channel: 1 Note off, A3 key=57 velocity: 94
@53041 Channel: 1 Note on, A3 key=57 velocity: 87
@53041 Channel: 1 Note on, A2 key=45 velocity: 84
@53276 Channel: 1 Note off, A2 key=45 velocity: 84
@53277 Channel: 1 Note off, A3 key=57 velocity: 87
@53280 Channel: 1 Note on, F4 key=65 velocity: 68
@53280 Channel: 1 Note on, F3 key=53 velocity: 94
@53639 Channel: 1 Note off, F3 key=53 velocity: 94
@53640 Channel: 1 Note off, F4 key=65 velocity: 68
@53641 Channel: 1 Note on, E4 key=64 velocity: 85
@53641 Channel: 1 Note on, E3 key=52 velocity: 80
@53758 Channel: 1 Note off, E3 key=52 velocity: 80
@53759 Channel: 1 Note off, E4 key=64 velocity: 85
@53760 Channel: 1 Note on, D4 key=62 velocity: 87
@53761 Channel: 1 Note on, D3 key=50 velocity: 88
@54238 Channel: 1 Note off, D3 key=50 velocity: 88
@54240 Channel: 1 Note off, D4 key=62 velocity: 87
@54240 Channel: 1 Note on, C#3 key=49 velocity: 101
@54241 Channel: 1 Note on, C#4 key=61 velocity: 95
@54596 Channel: 1 Note off, C#3 key=49 velocity: 101
@54597 Channel: 1 Note off, C#4 key=61 velocity: 95
@54600 Channel: 1 Note on, D4 key=62 velocity: 79
@54600 Channel: 1 Note on, D3 key=50 velocity: 76
@54718 Channel: 1 Note off, D4 key=62 velocity: 79
@54718 Channel: 1 Note off, D3 key=50 velocity: 76
@54720 Channel: 1 Note on, E4 key=64 velocity: 79
@54720 Channel: 1 Note on, E3 key=52 velocity: 94
@55563 Channel: 1 Note off, E4 key=64 velocity: 79
@55563 Channel: 1 Note off, E3 key=52 velocity: 94
@55679 Channel: 1 Note on, C4 key=60 velocity: 85
@55679 Channel: 1 Note on, C3 key=48 velocity: 90
@56158 Channel: 1 Note off, C3 key=48 velocity: 90
@56160 Channel: 1 Note off, C4 key=60 velocity: 85
@56160 Channel: 1 Note on, A4 key=69 velocity: 92
@56161 Channel: 1 Note on, A3 key=57 velocity: 87
@56518 Channel: 1 Note off, A3 key=57 velocity: 87
@56520 Channel: 1 Note on, G3 key=55 velocity: 88
@56521 Channel: 1 Note off, A4 key=69 velocity: 92
@56521 Channel: 1 Note on, G4 key=67 velocity: 87
@56637 Channel: 1 Note off, G3 key=55 velocity: 88
@56639 Channel: 1 Note off, G4 key=67 velocity: 87
@56640 Channel: 1 Note on, F4 key=65 velocity: 91
@56640 Channel: 1 Note on, F3 key=53 velocity: 84
@57120 Channel: 1 Note off, F4 key=65 velocity: 91
@57120 Channel: 1 Note off, F3 key=53 velocity: 84
@57121 Channel: 1 Note on, E4 key=64 velocity: 85
@57121 Channel: 1 Note on, E3 key=52 velocity: 80
@57478 Channel: 1 Note off, E3 key=52 velocity: 80
@57481 Channel: 1 Note off, E4 key=64 velocity: 85
@57481 Channel: 1 Note on, F4 key=65 velocity: 83
@57481 Channel: 1 Note on, F3 key=53 velocity: 75
@57598 Channel: 1 Note off, F4 key=65 velocity: 83
@57598 Channel: 1 Note off, F3 key=53 velocity: 75
@57601 Channel: 1 Note on, G4 key=67 velocity: 80
@57601 Channel: 1 Note on, G3 key=55 velocity: 102
@57958 Channel: 1 Note off, G3 key=55 velocity: 102
@57960 Channel: 1 Note off, G4 key=67 velocity: 80
@57961 Channel: 1 Note on, E4 key=64 velocity: 88
@57961 Channel: 1 Note on, E3 key=52 velocity: 81
@58078 Channel: 1 Note off, E4 key=64 velocity: 88
@58078 Channel: 1 Note off, E3 key=52 velocity: 81
@58081 Channel: 1 Note on, C4 key=60 velocity: 92
@58081 Channel: 1 Note on, C3 key=48 velocity: 92
@58684 Channel: 1 Note off, C3 key=48 velocity: 92
@58792 Channel: 1 Note off, C4 key=60 velocity: 92
@58801 Channel: 1 Note on, C4 key=60 velocity: 91
@58801 Channel: 1 Note on, C3 key=48 velocity: 92
@59038 Channel: 1 Note off, C3 key=48 velocity: 92
@59040 Channel: 1 Note off, C4 key=60 velocity: 91
@59040 Channel: 1 Note on, A#3 key=58 velocity: 91
@59040 Channel: 1 Note on, A#2 key=46 velocity: 116
@59397 Channel: 1 Note off, A#2 key=46 velocity: 116
@59400 Channel: 1 Note off, A#3 key=58 velocity: 91
@59401 Channel: 1 Note on, C4 key=60 velocity: 85
@59401 Channel: 1 Note on, C3 key=48 velocity: 90
@59519 Channel: 1 Note off, C4 key=60 velocity: 85
@59519 Channel: 1 Note off, C3 key=48 velocity: 90
@59521 Channel: 1 Note on, D4 key=62 velocity: 84
@59521 Channel: 1 Note on, D3 key=50 velocity: 92
@59998 Channel: 1 Note off, D3 key=50 velocity: 92
@59999 Channel: 1 Note off, D4 key=62 velocity: 84
@60000 Channel: 1 Note on, C4 key=60 velocity: 102
@60000 Channel: 1 Note on, C3 key=48 velocity: 98
@60356 Channel: 1 Note off, C3 key=48 velocity: 98
@60358 Channel: 1 Note off, C4 key=60 velocity: 102
@60359 Channel: 1 Note on, A#3 key=58 velocity: 89
@60359 Channel: 1 Note on, A#2 key=46 velocity: 101
@60477 Channel: 1 Note off, A#2 key=46 velocity: 101
@60478 Channel: 1 Note off, A#3 key=58 velocity: 89
@60480 Channel: 1 Note on, A3 key=57 velocity: 95
@60480 Channel: 1 Note on, A2 key=45 velocity: 97
@62877 Channel: 1 Note off, A3 key=57 velocity: 95
@62877 Channel: 1 Note off, A2 key=45 velocity: 97
@62881 Channel: 1 Note on, A3 key=57 velocity: 88
@62881 Channel: 1 Note on, A2 key=45 velocity: 108
@63359 Channel: 1 Note off, A2 key=45 velocity: 108
@63360 Channel: 1 Note off, A3 key=57 velocity: 88
@63360 Channel: 1 Note on, D4 key=62 velocity: 104
@63360 Channel: 1 Note on, F#4 key=66 velocity: 116
@63360 Channel: 1 Note on, D3 key=50 velocity: 127
@63360 Channel: 1 Note on, A4 key=69 velocity: 104
@64789 Channel: 1 Note on, G4 key=67 velocity: 107
@64794 Channel: 1 Note off, F#4 key=66 velocity: 116
@66219 Channel: 1 Note on, F#4 key=66 velocity: 113
@66231 Channel: 1 Note off, G4 key=67 velocity: 107
@67652 Channel: 1 Note on, G4 key=67 velocity: 114
@67670 Channel: 1 Note off, F#4 key=66 velocity: 113
@69110 Channel: 1 Note on, F#4 key=66 velocity: 125
@69116 Channel: 1 Note off, G4 key=67 velocity: 114
@70523 Channel: 1 Note on, G4 key=67 velocity: 101
@70553 Channel: 1 Note off, F#4 key=66 velocity: 125
@71979 Channel: 1 Note on, F#4 key=66 velocity: 114
@71982 Channel: 1 Note off, G4 key=67 velocity: 101
@73412 Channel: 1 Note on, E4 key=64 velocity: 101
@73425 Channel: 1 Note off, D3 key=50 velocity: 127
@73432 Channel: 1 Note off, D4 key=62 velocity: 104
@73435 Channel: 1 Note off, F#4 key=66 velocity: 114
@73439 Channel: 1 Note on, A2 key=45 velocity: 101
@73448 Channel: 1 Note on, C#4 key=61 velocity: 74
@74843 Channel: 1 Note off, A2 key=45 velocity: 101
@74859 Channel: 1 Note off, A4 key=69 velocity: 104
@74862 Channel: 1 Note off, C#4 key=61 velocity: 74
@74865 Channel: 1 Note off, E4 key=64 velocity: 101
@74880 Channel: 1 Note on, D4 key=62 velocity: 104
@74880 Channel: 1 Note on, F#4 key=66 velocity: 116
@74880 Channel: 1 Note on, D3 key=50 velocity: 127
@74880 Channel: 1 Note on, A4 key=69 velocity: 104
@76309 Channel: 1 Note on, G4 key=67 velocity: 107
@76314 Channel: 1 Note off, F#4 key=66 velocity: 116
@77739 Channel: 1 Note on, F#4 key=66 velocity: 113
@77751 Channel: 1 Note off, G4 key=67 velocity: 107
@79172 Channel: 1 Note on, G4 key=67 velocity: 114
@79190 Channel: 1 Note off, F#4 key=66 velocity: 113
@80630 Channel: 1 Note on, F#4 key=66 velocity: 125
@80636 Channel: 1 Note off, G4 key=67 velocity: 114
@82043 Channel: 1 Note on, G4 key=67 velocity: 101
@82073 Channel: 1 Note off, F#4 key=66 velocity: 125
@83499 Channel: 1 Note on, F#4 key=66 velocity: 114
@83502 Channel: 1 Note off, G4 key=67 velocity: 101
@84932 Channel: 1 Note on, E4 key=64 velocity: 81
@84945 Channel: 1 Note off, D3 key=50 velocity: 127
@84952 Channel: 1 Note off, D4 key=62 velocity: 104
@84955 Channel: 1 Note off, F#4 key=66 velocity: 114
@84959 Channel: 1 Note on, A2 key=45 velocity: 81
@84968 Channel: 1 Note on, C#4 key=61 velocity: 54
@86363 Channel: 1 Note off, A2 key=45 velocity: 81
@86379 Channel: 1 Note off, A4 key=69 velocity: 84
@86382 Channel: 1 Note off, C#4 key=61 velocity: 54
@86385 Channel: 1 Note off, E4 key=64 velocity: 81
@97679 Channel: 1 Note on, A2 key=45 velocity: 108
@97680 Channel: 1 Note on, A3 key=57 velocity: 88
@97920 Channel: 1 Note off, A3 key=57 velocity: 88
@97920 Channel: 1 Note off, A2 key=45 velocity: 108
@97921 Channel: 1 Note on, F4 key=65 velocity: 85
@97921 Channel: 1 Note on, F3 key=53 velocity: 98
@98278 Channel: 1 Note off, F3 key=53 velocity: 98
@98281 Channel: 1 Note off, F4 key=65 velocity: 85
@98281 Channel: 1 Note on, E3 key=52 velocity: 90
@98281 Channel: 1 Note on, E4 key=64 velocity: 85
@98400 Channel: 1 Note off, E4 key=64 velocity: 85
@98401 Channel: 1 Note off, E3 key=52 velocity: 90
@98401 Channel: 1 Note on, D4 key=62 velocity: 98
@98401 Channel: 1 Note on, D3 key=50 velocity: 68
@98880 Channel: 1 Note off, D3 key=50 velocity: 68
@98881 Channel: 1 Note on, C#4 key=61 velocity: 87
@98881 Channel: 1 Note on, C#3 key=49 velocity: 110
@98882 Channel: 1 Note off, D4 key=62 velocity: 98
@99238 Channel: 1 Note off, C#3 key=49 velocity: 110
@99239 Channel: 1 Note off, C#4 key=61 velocity: 87
@99240 Channel: 1 Note on, D4 key=62 velocity: 87
@99240 Channel: 1 Note on, D3 key=50 velocity: 80
@99360 Channel: 1 Note off, D4 key=62 velocity: 87
@99360 Channel: 1 Note off, D3 key=50 velocity: 80
@99361 Channel: 1 Note on, E4 key=64 velocity: 90
@99361 Channel: 1 Note on, E3 key=52 velocity: 87
@99720 Channel: 1 Note off, E4 key=64 velocity: 90
@99720 Channel: 1 Note off, E3 key=52 velocity: 87
@99722 Channel: 1 Note on, C#4 key=61 velocity: 87
@99722 Channel: 1 Note on, C#3 key=49 velocity: 97
@99838 Channel: 1 Note off, C#3 key=49 velocity: 97
@99839 Channel: 1 Note off, C#4 key=61 velocity: 87
@99841 Channel: 1 Note on, A2 key=45 velocity: 100
@99842 Channel: 1 Note on, A3 key=57 velocity: 94
@100443 Channel: 1 Note off, A2 key=45 velocity: 100
@100552 Channel: 1 Note off, A3 key=57 velocity: 94
@100561 Channel: 1 Note on, A3 key=57 velocity: 87
@100561 Channel: 1 Note on, A2 key=45 velocity: 84
@100796 Channel: 1 Note off, A2 key=45 velocity: 84
@100797 Channel: 1 Note off, A3 key=57 velocity: 87
@100800 Channel: 1 Note on, F4 key=65 velocity: 68
@100800 Channel: 1 Note on, F3 key=53 velocity: 94
@101159 Channel: 1 Note off, F3 key=53 velocity: 94
@101160 Channel: 1 Note off, F4 key=65 velocity: 68
@101161 Channel: 1 Note on, E4 key=64 velocity: 85
@101161 Channel: 1 Note on, E3 key=52 velocity: 80
@101278 Channel: 1 Note off, E3 key=52 velocity: 80
@101279 Channel: 1 Note off, E4 key=64 velocity: 85
@101280 Channel: 1 Note on, D4 key=62 velocity: 87
@101281 Channel: 1 Note on, D3 key=50 velocity: 88
@101758 Channel: 1 Note off, D3 key=50 velocity: 88
@101760 Channel: 1 Note off, D4 key=62 velocity: 87
@101760 Channel: 1 Note on, C#3 key=49 velocity: 101
@101761 Channel: 1 Note on, C#4 key=61 velocity: 95
@102116 Channel: 1 Note off, C#3 key=49 velocity: 101
@102117 Channel: 1 Note off, C#4 key=61 velocity: 95
@102120 Channel: 1 Note on, D4 key=62 velocity: 79
@102120 Channel: 1 Note on, D3 key=50 velocity: 76
@102238 Channel: 1 Note off, D4 key=62 velocity: 79
@102238 Channel: 1 Note off, D3 key=50 velocity: 76
@102240 Channel: 1 Note on, E4 key=64 velocity: 79
@102240 Channel: 1 Note on, E3 key=52 velocity: 94
@103083 Channel: 1 Note off, E4 key=64 velocity: 79
@103083 Channel: 1 Note off, E3 key=52 velocity: 94
@103199 Channel: 1 Note on, C4 key=60 velocity: 85
@103199 Channel: 1 Note on, C3 key=48 velocity: 90
@103678 Channel: 1 Note off, C3 key=48 velocity: 90
@103680 Channel: 1 Note off, C4 key=60 velocity: 85
@103680 Channel: 1 Note on, A4 key=69 velocity: 92
@103681 Channel: 1 Note on, A3 key=57 velocity: 87
@104038 Channel: 1 Note off, A3 key=57 velocity: 87
@104040 Channel: 1 Note on, G3 key=55 velocity: 88
@104041 Channel: 1 Note off, A4 key=69 velocity: 92
@104041 Channel: 1 Note on, G4 key=67 velocity: 87
@104157 Channel: 1 Note off, G3 key=55 velocity: 88
@104159 Channel: 1 Note off, G4 key=67 velocity: 87
@104160 Channel: 1 Note on, F4 key=65 velocity: 91
@104160 Channel: 1 Note on, F3 key=53 velocity: 84
@104640 Channel: 1 Note off, F4 key=65 velocity: 91
@104640 Channel: 1 Note off, F3 key=53 velocity: 84
@104641 Channel: 1 Note on, E4 key=64 velocity: 85
@104641 Channel: 1 Note on, E3 key=52 velocity: 80
@104998 Channel: 1 Note off, E3 key=52 velocity: 80
@105001 Channel: 1 Note off, E4 key=64 velocity: 85
@105001 Channel: 1 Note on, F4 key=65 velocity: 83
@105001 Channel: 1 Note on, F3 key=53 velocity: 75
@105118 Channel: 1 Note off, F4 key=65 velocity: 83
@105118 Channel: 1 Note off, F3 key=53 velocity: 75
@105121 Channel: 1 Note on, G4 key=67 velocity: 80
@105121 Channel: 1 Note on, G3 key=55 velocity: 102
@105478 Channel: 1 Note off, G3 key=55 velocity: 102
@105480 Channel: 1 Note off, G4 key=67 velocity: 80
@105481 Channel: 1 Note on, E4 key=64 velocity: 88
@105481 Channel: 1 Note on, E3 key=52 velocity: 81
@105598 Channel: 1 Note off, E4 key=64 velocity: 88
@105598 Channel: 1 Note off, E3 key=52 velocity: 81
@105601 Channel: 1 Note on, C4 key=60 velocity: 92
@105601 Channel: 1 Note on, C3 key=48 velocity: 92
@106204 Channel: 1 Note off, C3 key=48 velocity: 92
@106312 Channel: 1 Note off, C4 key=60 velocity: 92
@106321 Channel: 1 Note on, C4 key=60 velocity: 91
@106321 Channel: 1 Note on, C3 key=48 velocity: 92
@106558 Channel: 1 Note off, C3 key=48 velocity: 92
@106560 Channel: 1 Note off, C4 key=60 velocity: 91
@106560 Channel: 1 Note on, A#3 key=58 velocity: 91
@106560 Channel: 1 Note on, A#2 key=46 velocity: 116
@106917 Channel: 1 Note off, A#2 key=46 velocity: 116
@106920 Channel: 1 Note off, A#3 key=58 velocity: 91
@106921 Channel: 1 Note on, C4 key=60 velocity: 85
@106921 Channel: 1 Note on, C3 key=48 velocity: 90
@107039 Channel: 1 Note off, C4 key=60 velocity: 85
@107039 Channel: 1 Note off, C3 key=48 velocity: 90
@107041 Channel: 1 Note on, D4 key=62 velocity: 84
@107041 Channel: 1 Note on, D3 key=50 velocity: 92
@107518 Channel: 1 Note off, D3 key=50 velocity: 92
@107519 Channel: 1 Note off, D4 key=62 velocity: 84
@107520 Channel: 1 Note on, C4 key=60 velocity: 102
@107520 Channel: 1 Note on, C3 key=48 velocity: 98
@107876 Channel: 1 Note off, C3 key=48 velocity: 98
@107878 Channel: 1 Note off, C4 key=60 velocity: 102
@107879 Channel: 1 Note on, A#3 key=58 velocity: 89
@107879 Channel: 1 Note on, A#2 key=46 velocity: 101
@107997 Channel: 1 Note off, A#2 key=46 velocity: 101
@107998 Channel: 1 Note off, A#3 key=58 velocity: 89
@108001 Channel: 1 Note on, A2 key=45 velocity: 86
@108007 Channel: 1 Note on, A3 key=57 velocity: 81
@110403 Channel: 1 Note off, A2 key=45 velocity: 86
@110406 Channel: 1 Note off, A3 key=57 velocity: 81
@110880 Channel: 1 Note on, D4 key=62 velocity: 104
@110880 Channel: 1 Note on, F#4 key=66 velocity: 116
@110880 Channel: 1 Note on, D3 key=50 velocity: 127
@110880 Channel: 1 Note on, A4 key=69 velocity: 104
@112309 Channel: 1 Note on, G4 key=67 velocity: 107
@112314 Channel: 1 Note off, F#4 key=66 velocity: 116
@113739 Channel: 1 Note on, F#4 key=66 velocity: 113
@113751 Channel: 1 Note off, G4 key=67 velocity: 107
@115172 Channel: 1 Note on, G4 key=67 velocity: 114
@115190 Channel: 1 Note off, F#4 key=66 velocity: 113
@116630 Channel: 1 Note on, F#4 key=66 velocity: 125
@116636 Channel: 1 Note off, G4 key=67 velocity: 114
@118043 Channel: 1 Note on, G4 key=67 velocity: 101
@118073 Channel: 1 Note off, F#4 key=66 velocity: 125
@119499 Channel: 1 Note on, F#4 key=66 velocity: 114
@119502 Channel: 1 Note off, G4 key=67 velocity: 101
@120932 Channel: 1 Note on, E4 key=64 velocity: 101
@120945 Channel: 1 Note off, D3 key=50 velocity: 127
@120952 Channel: 1 Note off, D4 key=62 velocity: 104
@120955 Channel: 1 Note off, F#4 key=66 velocity: 114
@120959 Channel: 1 Note on, A2 key=45 velocity: 101
@120968 Channel: 1 Note on, C#4 key=61 velocity: 74
@122363 Channel: 1 Note off, A2 key=45 velocity: 101
@122379 Channel: 1 Note off, A4 key=69 velocity: 104
@122382 Channel: 1 Note off, C#4 key=61 velocity: 74
@122385 Channel: 1 Note off, E4 key=64 velocity: 101
@122400 Channel: 1 Note on, A4 key=69 velocity: 104
@122400 Channel: 1 Note on, D4 key=62 velocity: 104
@122400 Channel: 1 Note on, F#4 key=66 velocity: 116
@122400 Channel: 1 Note on, D3 key=50 velocity: 127
@123829 Channel: 1 Note on, G4 key=67 velocity: 107
@123834 Channel: 1 Note off, F#4 key=66 velocity: 116
@125259 Channel: 1 Note on, F#4 key=66 velocity: 113
@125271 Channel: 1 Note off, G4 key=67 velocity: 107
@126692 Channel: 1 Note on, G4 key=67 velocity: 114
@126710 Channel: 1 Note off, F#4 key=66 velocity: 113
@128150 Channel: 1 Note on, F#4 key=66 velocity: 125
@128156 Channel: 1 Note off, G4 key=67 velocity: 114
@129563 Channel: 1 Note on, G4 key=67 velocity: 101
@129593 Channel: 1 Note off, F#4 key=66 velocity: 125
@131019 Channel: 1 Note on, F#4 key=66 velocity: 114
@131022 Channel: 1 Note off, G4 key=67 velocity: 101
@132452 Channel: 1 Note on, E4 key=64 velocity: 80
@132465 Channel: 1 Note off, D3 key=50 velocity: 127
@132472 Channel: 1 Note off, D4 key=62 velocity: 104
@132475 Channel: 1 Note off, F#4 key=66 velocity: 114
@132479 Channel: 1 Note on, A2 key=45 velocity: 83
@132488 Channel: 1 Note on, C#4 key=61 velocity: 53
@133421 Channel: 1 Note off, A2 key=45 velocity: 83
@133428 Channel: 1 Note off, E4 key=64 velocity: 80
@133429 Channel: 1 Note off, C#4 key=61 velocity: 53
@133430 Channel: 1 Note off, A4 key=69 velocity: 104
@133679 Channel: 1 Note on, A2 key=45 velocity: 108
@133680 Channel: 1 Note on, A3 key=57 velocity: 88
@133920 Channel: 1 Note off, A3 key=57 velocity: 88
@133920 Channel: 1 Note off, A2 key=45 velocity: 108
@133921 Channel: 1 Note on, F4 key=65 velocity: 85
@133921 Channel: 1 Note on, F3 key=53 velocity: 98
@134278 Channel: 1 Note off, F3 key=53 velocity: 98
@134281 Channel: 1 Note off, F4 key=65 velocity: 85
@134281 Channel: 1 Note on, E3 key=52 velocity: 90
@134281 Channel: 1 Note on, E4 key=64 velocity: 85
@134400 Channel: 1 Note off, E4 key=64 velocity: 85
@134401 Channel: 1 Note off, E3 key=52 velocity: 90
@134401 Channel: 1 Note on, D4 key=62 velocity: 98
@134401 Channel: 1 Note on, D3 key=50 velocity: 68
@134880 Channel: 1 Note off, D3 key=50 velocity: 68
@134881 Channel: 1 Note on, C#4 key=61 velocity: 87
@134881 Channel: 1 Note on, C#3 key=49 velocity: 110
@134882 Channel: 1 Note off, D4 key=62 velocity: 98
@135238 Channel: 1 Note off, C#3 key=49 velocity: 110
@135239 Channel: 1 Note off, C#4 key=61 velocity: 87
@135240 Channel: 1 Note on, D4 key=62 velocity: 87
@135240 Channel: 1 Note on, D3 key=50 velocity: 80
@135360 Channel: 1 Note off, D4 key=62 velocity: 87
@135360 Channel: 1 Note off, D3 key=50 velocity: 80
@135361 Channel: 1 Note on, E4 key=64 velocity: 90
@135361 Channel: 1 Note on, E3 key=52 velocity: 87
@135720 Channel: 1 Note off, E4 key=64 velocity: 90
@135720 Channel: 1 Note off, E3 key=52 velocity: 87
@135722 Channel: 1 Note on, C#4 key=61 velocity: 87
@135722 Channel: 1 Note on, C#3 key=49 velocity: 97
@135838 Channel: 1 Note off, C#3 key=49 velocity: 97
@135839 Channel: 1 Note off, C#4 key=61 velocity: 87
@135841 Channel: 1 Note on, A2 key=45 velocity: 100
@135842 Channel: 1 Note on, A3 key=57 velocity: 94
@136443 Channel: 1 Note off, A2 key=45 velocity: 100
@136552 Channel: 1 Note off, A3 key=57 velocity: 94
@136561 Channel: 1 Note on, A3 key=57 velocity: 87
@136561 Channel: 1 Note on, A2 key=45 velocity: 84
@136796 Channel: 1 Note off, A2 key=45 velocity: 84
@136797 Channel: 1 Note off, A3 key=57 velocity: 87
@136800 Channel: 1 Note on, F4 key=65 velocity: 68
@136800 Channel: 1 Note on, F3 key=53 velocity: 94
@137159 Channel: 1 Note off, F3 key=53 velocity: 94
@137160 Channel: 1 Note off, F4 key=65 velocity: 68
@137161 Channel: 1 Note on, E4 key=64 velocity: 85
@137161 Channel: 1 Note on, E3 key=52 velocity: 80
@137278 Channel: 1 Note off, E3 key=52 velocity: 80
@137279 Channel: 1 Note off, E4 key=64 velocity: 85
@137280 Channel: 1 Note on, D4 key=62 velocity: 87
@137281 Channel: 1 Note on, D3 key=50 velocity: 88
@137758 Channel: 1 Note off, D3 key=50 velocity: 88
@137760 Channel: 1 Note off, D4 key=62 velocity: 87
@137760 Channel: 1 Note on, C#3 key=49 velocity: 101
@137761 Channel: 1 Note on, C#4 key=61 velocity: 95
@138116 Channel: 1 Note off, C#3 key=49 velocity: 101
@138117 Channel: 1 Note off, C#4 key=61 velocity: 95
@138120 Channel: 1 Note on, D4 key=62 velocity: 79
@138120 Channel: 1 Note on, D3 key=50 velocity: 76
@138238 Channel: 1 Note off, D4 key=62 velocity: 79
@138238 Channel: 1 Note off, D3 key=50 velocity: 76
@138240 Channel: 1 Note on, E4 key=64 velocity: 79
@138240 Channel: 1 Note on, E3 key=52 velocity: 94
@139083 Channel: 1 Note off, E4 key=64 velocity: 79
@139083 Channel: 1 Note off, E3 key=52 velocity: 94
@139199 Channel: 1 Note on, C4 key=60 velocity: 85
@139199 Channel: 1 Note on, C3 key=48 velocity: 90
@139678 Channel: 1 Note off, C3 key=48 velocity: 90
@139680 Channel: 1 Note off, C4 key=60 velocity: 85
@139680 Channel: 1 Note on, A4 key=69 velocity: 92
@139681 Channel: 1 Note on, A3 key=57 velocity: 87
@140038 Channel: 1 Note off, A3 key=57 velocity: 87
@140040 Channel: 1 Note on, G3 key=55 velocity: 88
@140041 Channel: 1 Note off, A4 key=69 velocity: 92
@140041 Channel: 1 Note on, G4 key=67 velocity: 87
@140157 Channel: 1 Note off, G3 key=55 velocity: 88
@140159 Channel: 1 Note off, G4 key=67 velocity: 87
@140160 Channel: 1 Note on, F4 key=65 velocity: 91
@140160 Channel: 1 Note on, F3 key=53 velocity: 84
@140640 Channel: 1 Note off, F4 key=65 velocity: 91
@140640 Channel: 1 Note off, F3 key=53 velocity: 84
@140641 Channel: 1 Note on, E4 key=64 velocity: 85
@140641 Channel: 1 Note on, E3 key=52 velocity: 80
@140998 Channel: 1 Note off, E3 key=52 velocity: 80
@141001 Channel: 1 Note off, E4 key=64 velocity: 85
@141001 Channel: 1 Note on, F4 key=65 velocity: 83
@141001 Channel: 1 Note on, F3 key=53 velocity: 75
@141118 Channel: 1 Note off, F4 key=65 velocity: 83
@141118 Channel: 1 Note off, F3 key=53 velocity: 75
@141121 Channel: 1 Note on, G4 key=67 velocity: 80
@141121 Channel: 1 Note on, G3 key=55 velocity: 102
@141478 Channel: 1 Note off, G3 key=55 velocity: 102
@141480 Channel: 1 Note off, G4 key=67 velocity: 80
@141481 Channel: 1 Note on, E4 key=64 velocity: 88
@141481 Channel: 1 Note on, E3 key=52 velocity: 81
@141598 Channel: 1 Note off, E4 key=64 velocity: 88
@141598 Channel: 1 Note off, E3 key=52 velocity: 81
@141601 Channel: 1 Note on, C4 key=60 velocity: 92
@141601 Channel: 1 Note on, C3 key=48 velocity: 92
@142204 Channel: 1 Note off, C3 key=48 velocity: 92
@142312 Channel: 1 Note off, C4 key=60 velocity: 92
@142321 Channel: 1 Note on, C4 key=60 velocity: 91
@142321 Channel: 1 Note on, C3 key=48 velocity: 92
@142558 Channel: 1 Note off, C3 key=48 velocity: 92
@142560 Channel: 1 Note off, C4 key=60 velocity: 91
@142560 Channel: 1 Note on, A#3 key=58 velocity: 91
@142560 Channel: 1 Note on, A#2 key=46 velocity: 116
@142917 Channel: 1 Note off, A#2 key=46 velocity: 116
@142920 Channel: 1 Note off, A#3 key=58 velocity: 91
@142921 Channel: 1 Note on, C4 key=60 velocity: 85
@142921 Channel: 1 Note on, C3 key=48 velocity: 90
@143039 Channel: 1 Note off, C4 key=60 velocity: 85
@143039 Channel: 1 Note off, C3 key=48 velocity: 90
@143041 Channel: 1 Note on, D4 key=62 velocity: 84
@143041 Channel: 1 Note on, D3 key=50 velocity: 92
@143518 Channel: 1 Note off, D3 key=50 velocity: 92
@143519 Channel: 1 Note off, D4 key=62 velocity: 84
@143520 Channel: 1 Note on, C4 key=60 velocity: 102
@143520 Channel: 1 Note on, C3 key=48 velocity: 98
@143876 Channel: 1 Note off, C3 key=48 velocity: 98
@143878 Channel: 1 Note off, C4 key=60 velocity: 102
@143879 Channel: 1 Note on, A#3 key=58 velocity: 89
@143879 Channel: 1 Note on, A#2 key=46 velocity: 101
@143997 Channel: 1 Note off, A#2 key=46 velocity: 101
@143998 Channel: 1 Note off, A#3 key=58 velocity: 89
@144001 Channel: 1 Note on, A2 key=45 velocity: 86
@144007 Channel: 1 Note on, A3 key=57 velocity: 81
@144960 Channel: 1 Command:192
@145199 Channel: 1 Note on, A2 key=45 velocity: 108
@145200 Channel: 1 Note on, A3 key=57 velocity: 88
@145440 Channel: 1 Note off, A2 key=45 velocity: 86
@145440 Channel: 1 Note off, A3 key=57 velocity: 81
@145440 Channel: 1 Note off, A3 key=57 velocity: 88
@145440 Channel: 1 Note off, A2 key=45 velocity: 108
@145441 Channel: 1 Note on, F4 key=65 velocity: 85
@145441 Channel: 1 Note on, F3 key=53 velocity: 98
@145798 Channel: 1 Note off, F3 key=53 velocity: 98
@145801 Channel: 1 Note off, F4 key=65 velocity: 85
@145801 Channel: 1 Note on, E3 key=52 velocity: 90
@145801 Channel: 1 Note on, E4 key=64 velocity: 85
@145920 Channel: 1 Note off, E4 key=64 velocity: 85
@145921 Channel: 1 Note off, E3 key=52 velocity: 90
@145921 Channel: 1 Note on, D4 key=62 velocity: 98
@145921 Channel: 1 Note on, D3 key=50 velocity: 68
@146400 Channel: 1 Note off, D3 key=50 velocity: 68
@146401 Channel: 1 Note on, C#4 key=61 velocity: 87
@146401 Channel: 1 Note on, C#3 key=49 velocity: 110
@146402 Channel: 1 Note off, D4 key=62 velocity: 98
@146758 Channel: 1 Note off, C#3 key=49 velocity: 110
@146759 Channel: 1 Note off, C#4 key=61 velocity: 87
@146760 Channel: 1 Note on, D4 key=62 velocity: 87
@146760 Channel: 1 Note on, D3 key=50 velocity: 80
@146880 Channel: 1 Note off, D4 key=62 velocity: 87
@146880 Channel: 1 Note off, D3 key=50 velocity: 80
@146881 Channel: 1 Note on, E4 key=64 velocity: 90
@146881 Channel: 1 Note on, E3 key=52 velocity: 87
@147240 Channel: 1 Note off, E4 key=64 velocity: 90
@147240 Channel: 1 Note off, E3 key=52 velocity: 87
@147242 Channel: 1 Note on, C#4 key=61 velocity: 87
@147242 Channel: 1 Note on, C#3 key=49 velocity: 97
@147358 Channel: 1 Note off, C#3 key=49 velocity: 97
@147359 Channel: 1 Note off, C#4 key=61 velocity: 87
@147361 Channel: 1 Note on, A2 key=45 velocity: 100
@147362 Channel: 1 Note on, A3 key=57 velocity: 94
@147963 Channel: 1 Note off, A2 key=45 velocity: 100
@148072 Channel: 1 Note off, A3 key=57 velocity: 94
@148081 Channel: 1 Note on, A3 key=57 velocity: 87
@148081 Channel: 1 Note on, A2 key=45 velocity: 84
@148316 Channel: 1 Note off, A2 key=45 velocity: 84
@148317 Channel: 1 Note off, A3 key=57 velocity: 87
@148320 Channel: 1 Note on, F4 key=65 velocity: 68
@148320 Channel: 1 Note on, F3 key=53 velocity: 94
@148679 Channel: 1 Note off, F3 key=53 velocity: 94
@148680 Channel: 1 Note off, F4 key=65 velocity: 68
@148681 Channel: 1 Note on, E4 key=64 velocity: 85
@148681 Channel: 1 Note on, E3 key=52 velocity: 80
@148798 Channel: 1 Note off, E3 key=52 velocity: 80
@148799 Channel: 1 Note off, E4 key=64 velocity: 85
@148800 Channel: 1 Note on, D4 key=62 velocity: 87
@148801 Channel: 1 Note on, D3 key=50 velocity: 88
@149278 Channel: 1 Note off, D3 key=50 velocity: 88
@149280 Channel: 1 Note off, D4 key=62 velocity: 87
@149280 Channel: 1 Note on, C#3 key=49 velocity: 101
@149281 Channel: 1 Note on, C#4 key=61 velocity: 95
@149636 Channel: 1 Note off, C#3 key=49 velocity: 101
@149637 Channel: 1 Note off, C#4 key=61 velocity: 95
@149640 Channel: 1 Note on, D4 key=62 velocity: 79
@149640 Channel: 1 Note on, D3 key=50 velocity: 76
@149758 Channel: 1 Note off, D4 key=62 velocity: 79
@149758 Channel: 1 Note off, D3 key=50 velocity: 76
@149760 Channel: 1 Note on, E4 key=64 velocity: 79
@149760 Channel: 1 Note on, E3 key=52 velocity: 94
@150603 Channel: 1 Note off, E4 key=64 velocity: 79
@150603 Channel: 1 Note off, E3 key=52 velocity: 94
@150719 Channel: 1 Note on, C4 key=60 velocity: 85
@150719 Channel: 1 Note on, C3 key=48 velocity: 90
@151198 Channel: 1 Note off, C3 key=48 velocity: 90
@151200 Channel: 1 Note off, C4 key=60 velocity: 85
@151200 Channel: 1 Note on, A4 key=69 velocity: 92
@151201 Channel: 1 Note on, A3 key=57 velocity: 87
@151558 Channel: 1 Note off, A3 key=57 velocity: 87
@151560 Channel: 1 Note on, G3 key=55 velocity: 88
@151561 Channel: 1 Note off, A4 key=69 velocity: 92
@151561 Channel: 1 Note on, G4 key=67 velocity: 87
@151677 Channel: 1 Note off, G3 key=55 velocity: 88
@151679 Channel: 1 Note off, G4 key=67 velocity: 87
@151680 Channel: 1 Note on, F4 key=65 velocity: 91
@151680 Channel: 1 Note on, F3 key=53 velocity: 84
@152160 Channel: 1 Note off, F4 key=65 velocity: 91
@152160 Channel: 1 Note off, F3 key=53 velocity: 84
@152161 Channel: 1 Note on, E4 key=64 velocity: 85
@152161 Channel: 1 Note on, E3 key=52 velocity: 80
@152518 Channel: 1 Note off, E3 key=52 velocity: 80
@152521 Channel: 1 Note off, E4 key=64 velocity: 85
@152521 Channel: 1 Note on, F4 key=65 velocity: 83
@152521 Channel: 1 Note on, F3 key=53 velocity: 75
@152638 Channel: 1 Note off, F4 key=65 velocity: 83
@152638 Channel: 1 Note off, F3 key=53 velocity: 75
@152641 Channel: 1 Note on, G4 key=67 velocity: 80
@152641 Channel: 1 Note on, G3 key=55 velocity: 102
@152998 Channel: 1 Note off, G3 key=55 velocity: 102
@153000 Channel: 1 Note off, G4 key=67 velocity: 80
@153001 Channel: 1 Note on, E4 key=64 velocity: 88
@153001 Channel: 1 Note on, E3 key=52 velocity: 81
@153118 Channel: 1 Note off, E4 key=64 velocity: 88
@153118 Channel: 1 Note off, E3 key=52 velocity: 81
@153121 Channel: 1 Note on, C4 key=60 velocity: 92
@153121 Channel: 1 Note on, C3 key=48 velocity: 92
@153724 Channel: 1 Note off, C3 key=48 velocity: 92
@153832 Channel: 1 Note off, C4 key=60 velocity: 92
@153841 Channel: 1 Note on, C4 key=60 velocity: 91
@153841 Channel: 1 Note on, C3 key=48 velocity: 92
@154078 Channel: 1 Note off, C3 key=48 velocity: 92
@154080 Channel: 1 Note off, C4 key=60 velocity: 91
@154080 Channel: 1 Note on, A#3 key=58 velocity: 91
@154080 Channel: 1 Note on, A#2 key=46 velocity: 116
@154437 Channel: 1 Note off, A#2 key=46 velocity: 116
@154440 Channel: 1 Note off, A#3 key=58 velocity: 91
@154441 Channel: 1 Note on, C4 key=60 velocity: 85
@154441 Channel: 1 Note on, C3 key=48 velocity: 90
@154559 Channel: 1 Note off, C4 key=60 velocity: 85
@154559 Channel: 1 Note off, C3 key=48 velocity: 90
@154561 Channel: 1 Note on, D4 key=62 velocity: 84
@154561 Channel: 1 Note on, D3 key=50 velocity: 92
@155038 Channel: 1 Note off, D3 key=50 velocity: 92
@155039 Channel: 1 Note off, D4 key=62 velocity: 84
@155040 Channel: 1 Note on, C4 key=60 velocity: 102
@155040 Channel: 1 Note on, C3 key=48 velocity: 98
@155396 Channel: 1 Note off, C3 key=48 velocity: 98
@155398 Channel: 1 Note off, C4 key=60 velocity: 102
@155399 Channel: 1 Note on, A#3 key=58 velocity: 89
@155399 Channel: 1 Note on, A#2 key=46 velocity: 101
@155517 Channel: 1 Note off, A#2 key=46 velocity: 101
@155518 Channel: 1 Note off, A#3 key=58 velocity: 89
@155518 Channel: 1 Note on, A3 key=57 velocity: 100
@155521 Channel: 1 Note on, A2 key=45 velocity: 98
@156702 Channel: 1 Note off, A2 key=45 velocity: 98
@156705 Channel: 1 Note off, A3 key=57 velocity: 100
@156725 Channel: 1 Note on, A3 key=57 velocity: 106
@156728 Channel: 1 Note on, A2 key=45 velocity: 111
@156943 Channel: 1 Note off, A3 key=57 velocity: 106
@156951 Channel: 1 Note off, A2 key=45 velocity: 111
@156960 Channel: 1 Note on, A#3 key=58 velocity: 91
@156960 Channel: 1 Note on, A#2 key=46 velocity: 116
@157317 Channel: 1 Note off, A#2 key=46 velocity: 116
@157320 Channel: 1 Note off, A#3 key=58 velocity: 91
@157321 Channel: 1 Note on, C4 key=60 velocity: 85
@157321 Channel: 1 Note on, C3 key=48 velocity: 90
@157439 Channel: 1 Note off, C4 key=60 velocity: 85
@157439 Channel: 1 Note off, C3 key=48 velocity: 90
@157441 Channel: 1 Note on, D4 key=62 velocity: 84
@157441 Channel: 1 Note on, D3 key=50 velocity: 92
@157918 Channel: 1 Note off, D3 key=50 velocity: 92
@157919 Channel: 1 Note off, D4 key=62 velocity: 84
@157920 Channel: 1 Note on, C4 key=60 velocity: 102
@157920 Channel: 1 Note on, C3 key=48 velocity: 98
@158276 Channel: 1 Note off, C3 key=48 velocity: 98
@158278 Channel: 1 Note off, C4 key=60 velocity: 102
@158279 Channel: 1 Note on, A#3 key=58 velocity: 89
@158279 Channel: 1 Note on, A#2 key=46 velocity: 101
@158397 Channel: 1 Note off, A#2 key=46 velocity: 101
@158398 Channel: 1 Note off, A#3 key=58 velocity: 89
@158398 Channel: 1 Note on, A3 key=57 velocity: 100
@158401 Channel: 1 Note on, A2 key=45 velocity: 98
@159582 Channel: 1 Note off, A2 key=45 velocity: 98
@159585 Channel: 1 Note off, A3 key=57 velocity: 100
@159605 Channel: 1 Note on, A3 key=57 velocity: 106
@159608 Channel: 1 Note on, A2 key=45 velocity: 111
@159823 Channel: 1 Note off, A3 key=57 velocity: 106
@159831 Channel: 1 Note off, A2 key=45 velocity: 111
@159840 Channel: 1 Note on, A#3 key=58 velocity: 91
@159840 Channel: 1 Note on, A#2 key=46 velocity: 116
@160197 Channel: 1 Note off, A#2 key=46 velocity: 116
@160200 Channel: 1 Note off, A#3 key=58 velocity: 91
@160201 Channel: 1 Note on, C4 key=60 velocity: 85
@160201 Channel: 1 Note on, C3 key=48 velocity: 90
@160319 Channel: 1 Note off, C4 key=60 velocity: 85
@160319 Channel: 1 Note off, C3 key=48 velocity: 90
@160321 Channel: 1 Note on, D4 key=62 velocity: 84
@160321 Channel: 1 Note on, D3 key=50 velocity: 92
@160798 Channel: 1 Note off, D3 key=50 velocity: 92
@160799 Channel: 1 Note off, D4 key=62 velocity: 84
@160800 Channel: 1 Note on, C4 key=60 velocity: 102
@160800 Channel: 1 Note on, C3 key=48 velocity: 98
@161156 Channel: 1 Note off, C3 key=48 velocity: 98
@161158 Channel: 1 Note off, C4 key=60 velocity: 102
@161159 Channel: 1 Note on, A#3 key=58 velocity: 89
@161159 Channel: 1 Note on, A#2 key=46 velocity: 101
@161277 Channel: 1 Note off, A#2 key=46 velocity: 101
@161278 Channel: 1 Note off, A#3 key=58 velocity: 89
@161278 Channel: 1 Note on, A3 key=57 velocity: 96
@161281 Channel: 1 Note on, A2 key=45 velocity: 88
@164368 Channel: 1 Command:176
@164396 Channel: 1 Command:176
@164459 Channel: 1 Command:176
@164514 Channel: 1 Command:176
@164552 Channel: 1 Command:176
@164579 Channel: 1 Command:176
@164607 Channel: 1 Command:176
@164643 Channel: 1 Command:176
@164680 Channel: 1 Command:176
@164708 Channel: 1 Command:176
@164716 Channel: 1 Command:176
@164725 Channel: 1 Command:176
@164735 Channel: 1 Command:176
@164744 Channel: 1 Command:176
@164753 Channel: 1 Command:176
@164772 Channel: 1 Command:176
@164790 Channel: 1 Command:176
@164817 Channel: 1 Command:176
@164844 Channel: 1 Command:176
@164872 Channel: 1 Command:176
@164908 Channel: 1 Command:176
@164964 Channel: 1 Command:176
@165009 Channel: 1 Command:176
@165046 Channel: 1 Command:176
@165083 Channel: 1 Command:176
@165110 Channel: 1 Command:176
@165138 Channel: 1 Command:176
@165165 Channel: 1 Command:176
@165193 Channel: 1 Command:176
@165202 Channel: 1 Command:176
@165229 Channel: 1 Command:176
@165257 Channel: 1 Command:176
@165284 Channel: 1 Command:176
@165321 Channel: 1 Command:176
@165366 Channel: 1 Command:176
@165422 Channel: 1 Command:176
@165477 Channel: 1 Command:176
@165588 Channel: 1 Note off, A3 key=57 velocity: 96
@165597 Channel: 1 Note off, A2 key=45 velocity: 88
@168480 Other message: class javax.sound.midi.Track$ImmutableEndOfTrack

Track 4: size = 585

@0 Other message: class javax.sound.midi.MetaMessage
@0 Other message: class javax.sound.midi.MetaMessage
@0 Other message: class javax.sound.midi.MetaMessage
@0 Other message: class javax.sound.midi.MetaMessage
@170 Channel: 2 Command:176
@175 Channel: 2 Command:176
@180 Channel: 2 Command:192
@185 Channel: 2 Command:176
@190 Channel: 2 Command:176
@195 Channel: 2 Command:176
@200 Channel: 2 Command:176
@205 Channel: 2 Command:176
@205 Channel: 2 Command:176
@205 Channel: 2 Command:176
@210 Channel: 2 Command:176
@210 Channel: 2 Command:176
@210 Channel: 2 Command:176
@215 Channel: 2 Command:176
@215 Channel: 2 Command:176
@215 Channel: 2 Command:176
@220 Channel: 2 Command:176
@220 Channel: 2 Command:176
@220 Channel: 2 Command:176
@225 Channel: 2 Command:176
@225 Channel: 2 Command:176
@225 Channel: 2 Command:176
@230 Channel: 2 Command:176
@230 Channel: 2 Command:176
@230 Channel: 2 Command:176
@235 Channel: 2 Command:176
@235 Channel: 2 Command:176
@235 Channel: 2 Command:176
@240 Channel: 2 Command:176
@240 Channel: 2 Command:176
@240 Channel: 2 Command:176
@245 Channel: 2 Command:176
@245 Channel: 2 Command:176
@245 Channel: 2 Command:176
@12960 Channel: 2 Note on, A4 key=69 velocity: 65
@12960 Channel: 2 Note on, F4 key=65 velocity: 47
@12960 Channel: 2 Note on, D4 key=62 velocity: 58
@14379 Channel: 2 Note off, D4 key=62 velocity: 58
@14384 Channel: 2 Note on, G4 key=67 velocity: 65
@14384 Channel: 2 Note on, E4 key=64 velocity: 66
@14396 Channel: 2 Note off, F4 key=65 velocity: 47
@15807 Channel: 2 Note on, D4 key=62 velocity: 54
@15818 Channel: 2 Note off, E4 key=64 velocity: 66
@15818 Channel: 2 Note on, F4 key=65 velocity: 50
@15829 Channel: 2 Note off, G4 key=67 velocity: 65
@17247 Channel: 2 Note on, C4 key=60 velocity: 60
@17247 Channel: 2 Note on, E4 key=64 velocity: 65
@17249 Channel: 2 Note on, G4 key=67 velocity: 61
@17250 Channel: 2 Note off, D4 key=62 velocity: 54
@17279 Channel: 2 Note off, A4 key=69 velocity: 65
@17280 Channel: 2 Note off, F4 key=65 velocity: 50
@18678 Channel: 2 Note on, F4 key=65 velocity: 58
@18692 Channel: 2 Note off, G4 key=67 velocity: 61
@18692 Channel: 2 Note on, A4 key=69 velocity: 58
@18700 Channel: 2 Note off, E4 key=64 velocity: 65
@20111 Channel: 2 Note on, E4 key=64 velocity: 59
@20112 Channel: 2 Note on, G4 key=67 velocity: 64
@20132 Channel: 2 Note off, A4 key=69 velocity: 58
@20134 Channel: 2 Note off, F4 key=65 velocity: 58
@21584 Channel: 2 Note off, C4 key=60 velocity: 60
@21584 Channel: 2 Note on, D4 key=62 velocity: 70
@21585 Channel: 2 Note on, F4 key=65 velocity: 54
@21587 Channel: 2 Note off, E4 key=64 velocity: 59
@21588 Channel: 2 Note on, A#4 key=70 velocity: 35
@21598 Channel: 2 Note off, G4 key=67 velocity: 64
@23016 Channel: 2 Note off, D4 key=62 velocity: 70
@23022 Channel: 2 Note on, E4 key=64 velocity: 71
@23024 Channel: 2 Note on, A4 key=69 velocity: 59
@23031 Channel: 2 Note on, C#4 key=61 velocity: 70
@23039 Channel: 2 Note off, F4 key=65 velocity: 54
@23040 Channel: 2 Note off, A#4 key=70 velocity: 35
@25897 Channel: 2 Note off, E4 key=64 velocity: 71
@25900 Channel: 2 Note off, C#4 key=61 velocity: 70
@25912 Channel: 2 Note off, A4 key=69 velocity: 59
@25920 Channel: 2 Note on, A4 key=69 velocity: 65
@25920 Channel: 2 Note on, F4 key=65 velocity: 47
@25920 Channel: 2 Note on, D4 key=62 velocity: 58
@27339 Channel: 2 Note off, D4 key=62 velocity: 58
@27344 Channel: 2 Note on, G4 key=67 velocity: 65
@27344 Channel: 2 Note on, E4 key=64 velocity: 66
@27356 Channel: 2 Note off, F4 key=65 velocity: 47
@28767 Channel: 2 Note on, D4 key=62 velocity: 54
@28778 Channel: 2 Note off, E4 key=64 velocity: 66
@28778 Channel: 2 Note on, F4 key=65 velocity: 50
@28789 Channel: 2 Note off, G4 key=67 velocity: 65
@30207 Channel: 2 Note on, C4 key=60 velocity: 60
@30207 Channel: 2 Note on, E4 key=64 velocity: 65
@30209 Channel: 2 Note on, G4 key=67 velocity: 61
@30210 Channel: 2 Note off, D4 key=62 velocity: 54
@30239 Channel: 2 Note off, A4 key=69 velocity: 65
@30240 Channel: 2 Note off, F4 key=65 velocity: 50
@31638 Channel: 2 Note on, F4 key=65 velocity: 58
@31652 Channel: 2 Note off, G4 key=67 velocity: 61
@31652 Channel: 2 Note on, A4 key=69 velocity: 58
@31660 Channel: 2 Note off, E4 key=64 velocity: 65
@33071 Channel: 2 Note on, E4 key=64 velocity: 59
@33072 Channel: 2 Note on, G4 key=67 velocity: 64
@33092 Channel: 2 Note off, A4 key=69 velocity: 58
@33094 Channel: 2 Note off, F4 key=65 velocity: 58
@34544 Channel: 2 Note off, C4 key=60 velocity: 60
@34544 Channel: 2 Note on, D4 key=62 velocity: 70
@34545 Channel: 2 Note on, F4 key=65 velocity: 54
@34547 Channel: 2 Note off, E4 key=64 velocity: 59
@34548 Channel: 2 Note on, A#4 key=70 velocity: 35
@34558 Channel: 2 Note off, G4 key=67 velocity: 64
@35976 Channel: 2 Note off, D4 key=62 velocity: 70
@35982 Channel: 2 Note on, E4 key=64 velocity: 71
@35984 Channel: 2 Note on, A4 key=69 velocity: 59
@35991 Channel: 2 Note on, C#4 key=61 velocity: 70
@35999 Channel: 2 Note off, F4 key=65 velocity: 54
@36000 Channel: 2 Note off, A#4 key=70 velocity: 35
@37440 Channel: 2 Note off, C#4 key=61 velocity: 70
@37440 Channel: 2 Note off, E4 key=64 velocity: 71
@37440 Channel: 2 Note off, A4 key=69 velocity: 59
@37440 Channel: 2 Note on, A4 key=69 velocity: 90
@37440 Channel: 2 Note on, F4 key=65 velocity: 72
@37440 Channel: 2 Note on, D4 key=62 velocity: 83
@38859 Channel: 2 Note off, D4 key=62 velocity: 83
@38864 Channel: 2 Note on, G4 key=67 velocity: 90
@38864 Channel: 2 Note on, E4 key=64 velocity: 91
@38876 Channel: 2 Note off, F4 key=65 velocity: 72
@40287 Channel: 2 Note on, D4 key=62 velocity: 79
@40298 Channel: 2 Note off, E4 key=64 velocity: 91
@40298 Channel: 2 Note on, F4 key=65 velocity: 75
@40309 Channel: 2 Note off, G4 key=67 velocity: 90
@41727 Channel: 2 Note on, C4 key=60 velocity: 85
@41727 Channel: 2 Note on, E4 key=64 velocity: 90
@41729 Channel: 2 Note on, G4 key=67 velocity: 86
@41730 Channel: 2 Note off, D4 key=62 velocity: 79
@41759 Channel: 2 Note off, A4 key=69 velocity: 90
@41760 Channel: 2 Note off, F4 key=65 velocity: 75
@43158 Channel: 2 Note on, F4 key=65 velocity: 83
@43172 Channel: 2 Note off, G4 key=67 velocity: 86
@43172 Channel: 2 Note on, A4 key=69 velocity: 83
@43180 Channel: 2 Note off, E4 key=64 velocity: 90
@44591 Channel: 2 Note on, E4 key=64 velocity: 84
@44592 Channel: 2 Note on, G4 key=67 velocity: 89
@44612 Channel: 2 Note off, A4 key=69 velocity: 83
@44614 Channel: 2 Note off, F4 key=65 velocity: 83
@46064 Channel: 2 Note off, C4 key=60 velocity: 85
@46064 Channel: 2 Note on, D4 key=62 velocity: 95
@46065 Channel: 2 Note on, F4 key=65 velocity: 79
@46067 Channel: 2 Note off, E4 key=64 velocity: 84
@46068 Channel: 2 Note on, A#4 key=70 velocity: 60
@46078 Channel: 2 Note off, G4 key=67 velocity: 89
@47496 Channel: 2 Note off, D4 key=62 velocity: 95
@47502 Channel: 2 Note on, E4 key=64 velocity: 96
@47504 Channel: 2 Note on, A4 key=69 velocity: 84
@47511 Channel: 2 Note on, C#4 key=61 velocity: 95
@47519 Channel: 2 Note off, F4 key=65 velocity: 79
@47520 Channel: 2 Note off, A#4 key=70 velocity: 60
@50377 Channel: 2 Note off, E4 key=64 velocity: 96
@50380 Channel: 2 Note off, C#4 key=61 velocity: 95
@50392 Channel: 2 Note off, A4 key=69 velocity: 84
@50400 Channel: 2 Note on, A4 key=69 velocity: 115
@50400 Channel: 2 Note on, F4 key=65 velocity: 97
@50400 Channel: 2 Note on, D4 key=62 velocity: 108
@51819 Channel: 2 Note off, D4 key=62 velocity: 108
@51824 Channel: 2 Note on, G4 key=67 velocity: 115
@51824 Channel: 2 Note on, E4 key=64 velocity: 116
@51836 Channel: 2 Note off, F4 key=65 velocity: 97
@53247 Channel: 2 Note on, D4 key=62 velocity: 104
@53258 Channel: 2 Note off, E4 key=64 velocity: 116
@53258 Channel: 2 Note on, F4 key=65 velocity: 100
@53269 Channel: 2 Note off, G4 key=67 velocity: 115
@54687 Channel: 2 Note on, C4 key=60 velocity: 110
@54687 Channel: 2 Note on, E4 key=64 velocity: 115
@54689 Channel: 2 Note on, G4 key=67 velocity: 111
@54690 Channel: 2 Note off, D4 key=62 velocity: 104
@54719 Channel: 2 Note off, A4 key=69 velocity: 115
@54720 Channel: 2 Note off, F4 key=65 velocity: 100
@56118 Channel: 2 Note on, F4 key=65 velocity: 108
@56132 Channel: 2 Note off, G4 key=67 velocity: 111
@56132 Channel: 2 Note on, A4 key=69 velocity: 108
@56140 Channel: 2 Note off, E4 key=64 velocity: 115
@57551 Channel: 2 Note on, E4 key=64 velocity: 109
@57552 Channel: 2 Note on, G4 key=67 velocity: 114
@57572 Channel: 2 Note off, A4 key=69 velocity: 108
@57574 Channel: 2 Note off, F4 key=65 velocity: 108
@59024 Channel: 2 Note off, C4 key=60 velocity: 110
@59024 Channel: 2 Note on, D4 key=62 velocity: 120
@59025 Channel: 2 Note on, F4 key=65 velocity: 104
@59027 Channel: 2 Note off, E4 key=64 velocity: 109
@59028 Channel: 2 Note on, A#4 key=70 velocity: 85
@59038 Channel: 2 Note off, G4 key=67 velocity: 114
@60456 Channel: 2 Note off, D4 key=62 velocity: 120
@60462 Channel: 2 Note on, E4 key=64 velocity: 121
@60464 Channel: 2 Note on, A4 key=69 velocity: 109
@60471 Channel: 2 Note on, C#4 key=61 velocity: 120
@60479 Channel: 2 Note off, F4 key=65 velocity: 104
@60480 Channel: 2 Note off, A#4 key=70 velocity: 85
@61344 Channel: 2 Command:176
@61406 Channel: 2 Command:176
@61495 Channel: 2 Command:176
@61620 Channel: 2 Command:176
@61673 Channel: 2 Command:176
@61852 Channel: 2 Command:176
@61913 Channel: 2 Command:176
@61976 Channel: 2 Command:176
@62074 Channel: 2 Command:176
@62110 Channel: 2 Command:176
@62154 Channel: 2 Command:176
@62198 Channel: 2 Command:176
@62252 Channel: 2 Command:176
@62296 Channel: 2 Command:176
@62359 Channel: 2 Command:176
@62413 Channel: 2 Command:176
@62448 Channel: 2 Command:176
@62502 Channel: 2 Command:176
@62555 Channel: 2 Command:176
@62599 Channel: 2 Command:176
@62769 Channel: 2 Command:176
@63337 Channel: 2 Note off, E4 key=64 velocity: 121
@63340 Channel: 2 Note off, C#4 key=61 velocity: 120
@63352 Channel: 2 Note off, A4 key=69 velocity: 109
@73446 Channel: 2 Note on, E6 key=88 velocity: 120
@73907 Channel: 2 Note on, F#6 key=90 velocity: 113
@73909 Channel: 2 Note off, E6 key=88 velocity: 120
@74380 Channel: 2 Note off, F#6 key=90 velocity: 113
@74389 Channel: 2 Note on, G6 key=91 velocity: 120
@74865 Channel: 2 Note off, G6 key=91 velocity: 120
@74881 Channel: 2 Note on, A6 key=93 velocity: 117
@76319 Channel: 2 Note off, A6 key=93 velocity: 117
@76333 Channel: 2 Note on, B6 key=95 velocity: 81
@76785 Channel: 2 Note on, A6 key=93 velocity: 78
@76789 Channel: 2 Note off, B6 key=95 velocity: 81
@77267 Channel: 2 Note on, G6 key=91 velocity: 78
@77270 Channel: 2 Note off, A6 key=93 velocity: 78
@77757 Channel: 2 Note off, G6 key=91 velocity: 78
@77768 Channel: 2 Note on, A6 key=93 velocity: 90
@79170 Channel: 2 Note off, A6 key=93 velocity: 90
@79177 Channel: 2 Note on, B6 key=95 velocity: 71
@79654 Channel: 2 Note off, B6 key=95 velocity: 71
@79672 Channel: 2 Note on, A6 key=93 velocity: 83
@80145 Channel: 2 Note off, A6 key=93 velocity: 83
@80155 Channel: 2 Note on, G6 key=91 velocity: 79
@80638 Channel: 2 Note off, G6 key=91 velocity: 79
@80645 Channel: 2 Note on, D7 key=98 velocity: 110
@80992 Channel: 2 Note off, D7 key=98 velocity: 110
@81005 Channel: 2 Note on, A6 key=93 velocity: 117
@82039 Channel: 2 Note off, A6 key=93 velocity: 117
@82057 Channel: 2 Note on, B6 key=95 velocity: 64
@82534 Channel: 2 Note off, B6 key=95 velocity: 64
@82546 Channel: 2 Note on, C#7 key=97 velocity: 60
@83031 Channel: 2 Note off, C#7 key=97 velocity: 60
@83037 Channel: 2 Note on, D7 key=98 velocity: 80
@83520 Channel: 2 Note off, D7 key=98 velocity: 80
@83523 Channel: 2 Note on, F#6 key=90 velocity: 89
@84858 Channel: 2 Note off, F#6 key=90 velocity: 89
@86400 Channel: 2 Command:176
@86400 Channel: 2 Note on, A4 key=69 velocity: 95
@86400 Channel: 2 Note on, F4 key=65 velocity: 77
@86400 Channel: 2 Note on, D4 key=62 velocity: 88
@87819 Channel: 2 Note off, D4 key=62 velocity: 88
@87824 Channel: 2 Note on, G4 key=67 velocity: 95
@87824 Channel: 2 Note on, E4 key=64 velocity: 96
@87836 Channel: 2 Note off, F4 key=65 velocity: 77
@88299 Channel: 2 Note on, A5 key=81 velocity: 108
@88784 Channel: 2 Note off, A5 key=81 velocity: 108
@88793 Channel: 2 Note on, C#6 key=85 velocity: 97
@89247 Channel: 2 Note on, D4 key=62 velocity: 84
@89258 Channel: 2 Note off, E4 key=64 velocity: 96
@89258 Channel: 2 Note on, F4 key=65 velocity: 80
@89269 Channel: 2 Note off, G4 key=67 velocity: 95
@89278 Channel: 2 Note off, C#6 key=85 velocity: 97
@89293 Channel: 2 Note on, A5 key=81 velocity: 91
@90687 Channel: 2 Note on, C4 key=60 velocity: 90
@90687 Channel: 2 Note on, E4 key=64 velocity: 95
@90689 Channel: 2 Note on, G4 key=67 velocity: 91
@90690 Channel: 2 Note off, D4 key=62 velocity: 84
@90719 Channel: 2 Note off, A4 key=69 velocity: 95
@90720 Channel: 2 Note off, A5 key=81 velocity: 91
@90720 Channel: 2 Note off, F4 key=65 velocity: 80
@91680 Channel: 2 Note on, G6 key=91 velocity: 97
@92118 Channel: 2 Note on, F4 key=65 velocity: 88
@92132 Channel: 2 Note off, G4 key=67 velocity: 91
@92132 Channel: 2 Note on, A4 key=69 velocity: 88
@92140 Channel: 2 Note off, E4 key=64 velocity: 95
@92160 Channel: 2 Note off, G6 key=91 velocity: 97
@92164 Channel: 2 Note on, A6 key=93 velocity: 84
@92636 Channel: 2 Note off, A6 key=93 velocity: 84
@92642 Channel: 2 Note on, G6 key=91 velocity: 87
@93142 Channel: 2 Note on, F6 key=89 velocity: 92
@93146 Channel: 2 Note off, G6 key=91 velocity: 87
@93551 Channel: 2 Note on, E4 key=64 velocity: 89
@93552 Channel: 2 Note on, G4 key=67 velocity: 94
@93572 Channel: 2 Note off, A4 key=69 velocity: 88
@93574 Channel: 2 Note off, F4 key=65 velocity: 88
@93579 Channel: 2 Note off, F6 key=89 velocity: 92
@93584 Channel: 2 Note on, E6 key=88 velocity: 94
@94080 Channel: 2 Note on, G6 key=91 velocity: 100
@94105 Channel: 2 Note off, E6 key=88 velocity: 94
@94547 Channel: 2 Note off, G6 key=91 velocity: 100
@94552 Channel: 2 Note on, C7 key=96 velocity: 92
@95024 Channel: 2 Note off, C4 key=60 velocity: 90
@95024 Channel: 2 Note on, D4 key=62 velocity: 100
@95025 Channel: 2 Note on, F4 key=65 velocity: 84
@95027 Channel: 2 Note off, E4 key=64 velocity: 89
@95028 Channel: 2 Note on, A#6 key=94 velocity: 110
@95028 Channel: 2 Note on, A#4 key=70 velocity: 65
@95034 Channel: 2 Note off, C7 key=96 velocity: 92
@95038 Channel: 2 Note off, G4 key=67 velocity: 94
@95040 Channel: 2 Note on, D6 key=86 velocity: 75
@96431 Channel: 2 Note on, C#7 key=97 velocity: 78
@96441 Channel: 2 Note off, A#6 key=94 velocity: 110
@96456 Channel: 2 Note off, D4 key=62 velocity: 100
@96479 Channel: 2 Note off, F4 key=65 velocity: 84
@96480 Channel: 2 Note off, D6 key=86 velocity: 75
@96480 Channel: 2 Note off, A#4 key=70 velocity: 65
@96480 Channel: 2 Note on, C#4 key=61 velocity: 95
@96480 Channel: 2 Note on, E4 key=64 velocity: 96
@96480 Channel: 2 Note on, A4 key=69 velocity: 84
@97889 Channel: 2 Note off, C#7 key=97 velocity: 78
@97897 Channel: 2 Note off, E4 key=64 velocity: 96
@97900 Channel: 2 Note off, C#4 key=61 velocity: 95
@97912 Channel: 2 Note off, A4 key=69 velocity: 84
@97920 Channel: 2 Note on, A4 key=69 velocity: 115
@97920 Channel: 2 Note on, F4 key=65 velocity: 97
@97920 Channel: 2 Note on, D4 key=62 velocity: 108
@99339 Channel: 2 Note off, D4 key=62 velocity: 108
@99344 Channel: 2 Note on, G4 key=67 velocity: 115
@99344 Channel: 2 Note on, E4 key=64 velocity: 116
@99356 Channel: 2 Note off, F4 key=65 velocity: 97
@100767 Channel: 2 Note on, D4 key=62 velocity: 104
@100778 Channel: 2 Note off, E4 key=64 velocity: 116
@100778 Channel: 2 Note on, F4 key=65 velocity: 100
@100789 Channel: 2 Note off, G4 key=67 velocity: 115
@102207 Channel: 2 Note on, C4 key=60 velocity: 110
@102207 Channel: 2 Note on, E4 key=64 velocity: 115
@102209 Channel: 2 Note on, G4 key=67 velocity: 111
@102210 Channel: 2 Note off, D4 key=62 velocity: 104
@102239 Channel: 2 Note off, A4 key=69 velocity: 115
@102240 Channel: 2 Note off, F4 key=65 velocity: 100
@102243 Channel: 2 Note on, C7 key=96 velocity: 98
@102733 Channel: 2 Note on, G6 key=91 velocity: 106
@102738 Channel: 2 Note off, C7 key=96 velocity: 98
@103187 Channel: 2 Note off, G6 key=91 velocity: 106
@103196 Channel: 2 Note on, C6 key=84 velocity: 112
@103638 Channel: 2 Note on, F4 key=65 velocity: 108
@103652 Channel: 2 Note off, G4 key=67 velocity: 111
@103652 Channel: 2 Note on, A4 key=69 velocity: 108
@103660 Channel: 2 Note off, E4 key=64 velocity: 115
@104393 Channel: 2 Note off, C6 key=84 velocity: 112
@104661 Channel: 2 Note on, A6 key=93 velocity: 114
@105071 Channel: 2 Note on, E4 key=64 velocity: 109
@105072 Channel: 2 Note on, G4 key=67 velocity: 114
@105092 Channel: 2 Note off, A4 key=69 velocity: 108
@105094 Channel: 2 Note off, F4 key=65 velocity: 108
@105095 Channel: 2 Note off, A6 key=93 velocity: 114
@105099 Channel: 2 Note on, C7 key=96 velocity: 108
@106544 Channel: 2 Note off, C4 key=60 velocity: 110
@106544 Channel: 2 Note on, D4 key=62 velocity: 120
@106545 Channel: 2 Note on, F4 key=65 velocity: 104
@106547 Channel: 2 Note off, E4 key=64 velocity: 109
@106548 Channel: 2 Note on, A#4 key=70 velocity: 85
@106558 Channel: 2 Note off, G4 key=67 velocity: 114
@106560 Channel: 2 Note off, C7 key=96 velocity: 108
@106571 Channel: 2 Note on, D6 key=86 velocity: 108
@107976 Channel: 2 Note off, D4 key=62 velocity: 120
@107982 Channel: 2 Note on, E4 key=64 velocity: 101
@107984 Channel: 2 Note on, A4 key=69 velocity: 89
@107991 Channel: 2 Note on, C#4 key=61 velocity: 100
@107999 Channel: 2 Note off, F4 key=65 velocity: 104
@108000 Channel: 2 Note off, D6 key=86 velocity: 108
@108000 Channel: 2 Note off, A#4 key=70 velocity: 85
@108010 Channel: 2 Note on, C#6 key=85 velocity: 82
@108864 Channel: 2 Command:176
@108926 Channel: 2 Command:176
@109015 Channel: 2 Command:176
@109140 Channel: 2 Command:176
@109193 Channel: 2 Command:176
@109372 Channel: 2 Command:176
@109433 Channel: 2 Command:176
@109496 Channel: 2 Command:176
@109594 Channel: 2 Command:176
@109630 Channel: 2 Command:176
@109674 Channel: 2 Command:176
@109718 Channel: 2 Command:176
@109772 Channel: 2 Command:176
@109816 Channel: 2 Command:176
@109879 Channel: 2 Command:176
@109933 Channel: 2 Command:176
@109968 Channel: 2 Command:176
@110022 Channel: 2 Command:176
@110024 Channel: 2 Note off, C#6 key=85 velocity: 82
@110075 Channel: 2 Command:176
@110119 Channel: 2 Command:176
@110289 Channel: 2 Command:176
@110857 Channel: 2 Note off, E4 key=64 velocity: 101
@110860 Channel: 2 Note off, C#4 key=61 velocity: 100
@110872 Channel: 2 Note off, A4 key=69 velocity: 89
@120966 Channel: 2 Note on, E6 key=88 velocity: 120
@121427 Channel: 2 Note on, F#6 key=90 velocity: 113
@121429 Channel: 2 Note off, E6 key=88 velocity: 120
@121900 Channel: 2 Note off, F#6 key=90 velocity: 113
@121909 Channel: 2 Note on, G6 key=91 velocity: 120
@122385 Channel: 2 Note off, G6 key=91 velocity: 120
@122401 Channel: 2 Note on, A6 key=93 velocity: 117
@123839 Channel: 2 Note off, A6 key=93 velocity: 117
@123853 Channel: 2 Note on, B6 key=95 velocity: 81
@124305 Channel: 2 Note on, A6 key=93 velocity: 78
@124309 Channel: 2 Note off, B6 key=95 velocity: 81
@124787 Channel: 2 Note on, G6 key=91 velocity: 78
@124790 Channel: 2 Note off, A6 key=93 velocity: 78
@125277 Channel: 2 Note off, G6 key=91 velocity: 78
@125288 Channel: 2 Note on, A6 key=93 velocity: 90
@126690 Channel: 2 Note off, A6 key=93 velocity: 90
@126697 Channel: 2 Note on, B6 key=95 velocity: 71
@127174 Channel: 2 Note off, B6 key=95 velocity: 71
@127192 Channel: 2 Note on, A6 key=93 velocity: 83
@127665 Channel: 2 Note off, A6 key=93 velocity: 83
@127675 Channel: 2 Note on, G6 key=91 velocity: 79
@128158 Channel: 2 Note off, G6 key=91 velocity: 79
@128165 Channel: 2 Note on, D7 key=98 velocity: 110
@128512 Channel: 2 Note off, D7 key=98 velocity: 110
@128525 Channel: 2 Note on, A6 key=93 velocity: 117
@129559 Channel: 2 Note off, A6 key=93 velocity: 117
@129577 Channel: 2 Note on, B6 key=95 velocity: 64
@130054 Channel: 2 Note off, B6 key=95 velocity: 64
@130066 Channel: 2 Note on, C#7 key=97 velocity: 60
@130551 Channel: 2 Note off, C#7 key=97 velocity: 60
@130557 Channel: 2 Note on, D7 key=98 velocity: 80
@131040 Channel: 2 Note off, D7 key=98 velocity: 80
@131043 Channel: 2 Note on, F#6 key=90 velocity: 89
@132378 Channel: 2 Note off, F#6 key=90 velocity: 89
@133920 Channel: 2 Command:176
@133920 Channel: 2 Note on, A4 key=69 velocity: 95
@133920 Channel: 2 Note on, F4 key=65 velocity: 77
@133920 Channel: 2 Note on, D4 key=62 velocity: 88
@135339 Channel: 2 Note off, D4 key=62 velocity: 88
@135344 Channel: 2 Note on, G4 key=67 velocity: 95
@135344 Channel: 2 Note on, E4 key=64 velocity: 96
@135356 Channel: 2 Note off, F4 key=65 velocity: 77
@136312 Channel: 2 Note on, C#6 key=85 velocity: 108
@136767 Channel: 2 Note on, D4 key=62 velocity: 84
@136778 Channel: 2 Note off, E4 key=64 velocity: 96
@136778 Channel: 2 Note on, F4 key=65 velocity: 80
@136789 Channel: 2 Note off, G4 key=67 velocity: 95
@136793 Channel: 2 Note off, C#6 key=85 velocity: 108
@136798 Channel: 2 Note on, D6 key=86 velocity: 98
@138207 Channel: 2 Note on, C4 key=60 velocity: 90
@138207 Channel: 2 Note on, E4 key=64 velocity: 95
@138209 Channel: 2 Note on, G4 key=67 velocity: 91
@138210 Channel: 2 Note off, D4 key=62 velocity: 84
@138234 Channel: 2 Note off, D6 key=86 velocity: 98
@138239 Channel: 2 Note off, A4 key=69 velocity: 95
@138240 Channel: 2 Note off, F4 key=65 velocity: 80
@139200 Channel: 2 Note on, G6 key=91 velocity: 97
@139638 Channel: 2 Note on, F4 key=65 velocity: 88
@139652 Channel: 2 Note off, G4 key=67 velocity: 91
@139652 Channel: 2 Note on, A4 key=69 velocity: 88
@139660 Channel: 2 Note off, E4 key=64 velocity: 95
@139680 Channel: 2 Note off, G6 key=91 velocity: 97
@139684 Channel: 2 Note on, F6 key=89 velocity: 87
@141071 Channel: 2 Note on, E4 key=64 velocity: 89
@141072 Channel: 2 Note on, G4 key=67 velocity: 94
@141092 Channel: 2 Note off, A4 key=69 velocity: 88
@141094 Channel: 2 Note off, F4 key=65 velocity: 88
@141104 Channel: 2 Note on, E6 key=88 velocity: 80
@141111 Channel: 2 Note off, F6 key=89 velocity: 87
@142544 Channel: 2 Note off, C4 key=60 velocity: 90
@142544 Channel: 2 Note on, D4 key=62 velocity: 100
@142545 Channel: 2 Note on, F4 key=65 velocity: 84
@142547 Channel: 2 Note off, E4 key=64 velocity: 89
@142548 Channel: 2 Note off, E6 key=88 velocity: 80
@142548 Channel: 2 Note on, A#4 key=70 velocity: 65
@142558 Channel: 2 Note off, G4 key=67 velocity: 94
@142560 Channel: 2 Note on, D6 key=86 velocity: 75
@143976 Channel: 2 Note off, D4 key=62 velocity: 100
@143999 Channel: 2 Note off, F4 key=65 velocity: 84
@144000 Channel: 2 Note off, D6 key=86 velocity: 75
@144000 Channel: 2 Note off, A#4 key=70 velocity: 65
@144000 Channel: 2 Note on, C#4 key=61 velocity: 95
@144000 Channel: 2 Note on, E4 key=64 velocity: 96
@144000 Channel: 2 Note on, A4 key=69 velocity: 84
@144005 Channel: 2 Note on, C#6 key=85 velocity: 70
@145016 Channel: 2 Note off, C#6 key=85 velocity: 70
@145417 Channel: 2 Note off, E4 key=64 velocity: 96
@145420 Channel: 2 Note off, C#4 key=61 velocity: 95
@145432 Channel: 2 Note off, A4 key=69 velocity: 84
@145440 Channel: 2 Command:176
@145440 Channel: 2 Note on, A4 key=69 velocity: 115
@145440 Channel: 2 Note on, F4 key=65 velocity: 97
@145440 Channel: 2 Note on, D4 key=62 velocity: 108
@146859 Channel: 2 Note off, D4 key=62 velocity: 108
@146864 Channel: 2 Note on, G4 key=67 velocity: 115
@146864 Channel: 2 Note on, E4 key=64 velocity: 116
@146876 Channel: 2 Note off, F4 key=65 velocity: 97
@148287 Channel: 2 Note on, D4 key=62 velocity: 104
@148298 Channel: 2 Note off, E4 key=64 velocity: 116
@148298 Channel: 2 Note on, F4 key=65 velocity: 100
@148309 Channel: 2 Note off, G4 key=67 velocity: 115
@149727 Channel: 2 Note on, C4 key=60 velocity: 110
@149727 Channel: 2 Note on, E4 key=64 velocity: 115
@149729 Channel: 2 Note on, G4 key=67 velocity: 111
@149730 Channel: 2 Note off, D4 key=62 velocity: 104
@149759 Channel: 2 Note off, A4 key=69 velocity: 115
@149760 Channel: 2 Note off, F4 key=65 velocity: 100
@151158 Channel: 2 Note on, F4 key=65 velocity: 108
@151172 Channel: 2 Note off, G4 key=67 velocity: 111
@151172 Channel: 2 Note on, A4 key=69 velocity: 108
@151180 Channel: 2 Note off, E4 key=64 velocity: 115
@152591 Channel: 2 Note on, E4 key=64 velocity: 109
@152592 Channel: 2 Note on, G4 key=67 velocity: 114
@152612 Channel: 2 Note off, A4 key=69 velocity: 108
@152614 Channel: 2 Note off, F4 key=65 velocity: 108
@154064 Channel: 2 Note off, C4 key=60 velocity: 110
@154064 Channel: 2 Note on, D4 key=62 velocity: 120
@154065 Channel: 2 Note on, F4 key=65 velocity: 104
@154067 Channel: 2 Note off, E4 key=64 velocity: 109
@154068 Channel: 2 Note on, A#4 key=70 velocity: 85
@154078 Channel: 2 Note off, G4 key=67 velocity: 114
@155496 Channel: 2 Note off, D4 key=62 velocity: 120
@155502 Channel: 2 Note on, E4 key=64 velocity: 71
@155504 Channel: 2 Note on, A4 key=69 velocity: 59
@155511 Channel: 2 Note on, C#4 key=61 velocity: 70
@155519 Channel: 2 Note off, F4 key=65 velocity: 104
@155520 Channel: 2 Note off, A#4 key=70 velocity: 85
@156944 Channel: 2 Note on, D4 key=62 velocity: 120
@156945 Channel: 2 Note on, F4 key=65 velocity: 104
@156948 Channel: 2 Note on, A#4 key=70 velocity: 85
@156960 Channel: 2 Note off, C#4 key=61 velocity: 70
@156960 Channel: 2 Note off, E4 key=64 velocity: 71
@156960 Channel: 2 Note off, A4 key=69 velocity: 59
@158376 Channel: 2 Note off, D4 key=62 velocity: 120
@158382 Channel: 2 Note on, E4 key=64 velocity: 71
@158384 Channel: 2 Note on, A4 key=69 velocity: 59
@158391 Channel: 2 Note on, C#4 key=61 velocity: 70
@158399 Channel: 2 Note off, F4 key=65 velocity: 104
@158400 Channel: 2 Note off, A#4 key=70 velocity: 85
@159824 Channel: 2 Note on, D4 key=62 velocity: 120
@159825 Channel: 2 Note on, F4 key=65 velocity: 104
@159828 Channel: 2 Note on, A#4 key=70 velocity: 85
@159840 Channel: 2 Note off, C#4 key=61 velocity: 70
@159840 Channel: 2 Note off, E4 key=64 velocity: 71
@159840 Channel: 2 Note off, A4 key=69 velocity: 59
@161256 Channel: 2 Note off, D4 key=62 velocity: 120
@161262 Channel: 2 Note on, E4 key=64 velocity: 71
@161264 Channel: 2 Note on, A4 key=69 velocity: 59
@161271 Channel: 2 Note on, C#4 key=61 velocity: 70
@161279 Channel: 2 Note off, F4 key=65 velocity: 104
@161280 Channel: 2 Note off, A#4 key=70 velocity: 85
@162720 Channel: 2 Note off, C#4 key=61 velocity: 70
@162720 Channel: 2 Note off, E4 key=64 velocity: 71
@162720 Channel: 2 Note off, A4 key=69 velocity: 59
@162723 Channel: 2 Note on, F#4 key=66 velocity: 76
@162725 Channel: 2 Note on, D4 key=62 velocity: 83
@162731 Channel: 2 Note on, A4 key=69 velocity: 72
@165562 Channel: 2 Command:176
@165709 Channel: 2 Command:176
@165809 Channel: 2 Command:176
@165928 Channel: 2 Command:176
@166047 Channel: 2 Command:176
@166102 Channel: 2 Command:176
@166185 Channel: 2 Command:176
@166267 Channel: 2 Command:176
@166385 Channel: 2 Command:176
@166459 Channel: 2 Command:176
@166541 Channel: 2 Command:176
@166614 Channel: 2 Command:176
@166715 Channel: 2 Command:176
@166917 Channel: 2 Command:176
@166981 Channel: 2 Command:176
@167128 Channel: 2 Command:176
@167274 Channel: 2 Command:176
@167393 Channel: 2 Command:176
@167494 Channel: 2 Command:176
@167577 Channel: 2 Command:176
@167631 Channel: 2 Command:176
@167750 Channel: 2 Command:176
@167796 Channel: 2 Command:176
@167869 Channel: 2 Command:176
@167924 Channel: 2 Command:176
@167970 Channel: 2 Command:176
@167970 Channel: 2 Note off, F#4 key=66 velocity: 76
@167973 Channel: 2 Note off, A4 key=69 velocity: 72
@167988 Channel: 2 Note off, D4 key=62 velocity: 83
@168006 Channel: 2 Command:176
@168061 Channel: 2 Command:176
@168181 Channel: 2 Command:176
@168480 Other message: class javax.sound.midi.Track$ImmutableEndOfTrack

Track 5: size = 382

@0 Other message: class javax.sound.midi.MetaMessage
@0 Other message: class javax.sound.midi.MetaMessage
@0 Other message: class javax.sound.midi.MetaMessage
@0 Other message: class javax.sound.midi.MetaMessage
@250 Channel: 3 Command:176
@255 Channel: 3 Command:176
@260 Channel: 3 Command:192
@265 Channel: 3 Command:176
@270 Channel: 3 Command:176
@275 Channel: 3 Command:176
@280 Channel: 3 Command:176
@285 Channel: 3 Command:176
@285 Channel: 3 Command:176
@285 Channel: 3 Command:176
@290 Channel: 3 Command:176
@290 Channel: 3 Command:176
@290 Channel: 3 Command:176
@295 Channel: 3 Command:176
@295 Channel: 3 Command:176
@295 Channel: 3 Command:176
@300 Channel: 3 Command:176
@300 Channel: 3 Command:176
@300 Channel: 3 Command:176
@305 Channel: 3 Command:176
@305 Channel: 3 Command:176
@305 Channel: 3 Command:176
@310 Channel: 3 Command:176
@310 Channel: 3 Command:176
@310 Channel: 3 Command:176
@315 Channel: 3 Command:176
@315 Channel: 3 Command:176
@315 Channel: 3 Command:176
@320 Channel: 3 Command:176
@320 Channel: 3 Command:176
@320 Channel: 3 Command:176
@325 Channel: 3 Command:176
@325 Channel: 3 Command:176
@325 Channel: 3 Command:176
@49932 Channel: 3 Note on, A4 key=69 velocity: 124
@50398 Channel: 3 Note off, A4 key=69 velocity: 124
@50407 Channel: 3 Note on, F6 key=89 velocity: 127
@50755 Channel: 3 Note off, F6 key=89 velocity: 127
@50759 Channel: 3 Note on, E6 key=88 velocity: 105
@50874 Channel: 3 Note off, E6 key=88 velocity: 105
@50877 Channel: 3 Note on, D6 key=86 velocity: 111
@51367 Channel: 3 Note off, D6 key=86 velocity: 111
@51367 Channel: 3 Note on, C#6 key=85 velocity: 114
@51698 Channel: 3 Note off, C#6 key=85 velocity: 114
@51708 Channel: 3 Note on, D6 key=86 velocity: 108
@51838 Channel: 3 Note off, D6 key=86 velocity: 108
@51846 Channel: 3 Note on, E6 key=88 velocity: 97
@52208 Channel: 3 Note on, C#6 key=85 velocity: 109
@52229 Channel: 3 Note off, E6 key=88 velocity: 97
@52322 Channel: 3 Note off, C#6 key=85 velocity: 109
@52339 Channel: 3 Note on, A5 key=81 velocity: 112
@52916 Channel: 3 Note off, A5 key=81 velocity: 112
@53067 Channel: 3 Note on, A5 key=81 velocity: 114
@53280 Channel: 3 Note off, A5 key=81 velocity: 114
@53313 Channel: 3 Note on, F6 key=89 velocity: 124
@53660 Channel: 3 Note off, F6 key=89 velocity: 124
@53662 Channel: 3 Note on, E6 key=88 velocity: 114
@53771 Channel: 3 Note on, D6 key=86 velocity: 122
@53789 Channel: 3 Note off, E6 key=88 velocity: 114
@54258 Channel: 3 Note on, C#6 key=85 velocity: 117
@54277 Channel: 3 Note off, D6 key=86 velocity: 122
@54587 Channel: 3 Note off, C#6 key=85 velocity: 117
@54593 Channel: 3 Note on, D6 key=86 velocity: 112
@54720 Channel: 3 Note off, D6 key=86 velocity: 112
@54730 Channel: 3 Note on, E6 key=88 velocity: 116
@55563 Channel: 3 Note off, E6 key=88 velocity: 116
@55704 Channel: 3 Note on, C6 key=84 velocity: 120
@56148 Channel: 3 Note off, C6 key=84 velocity: 120
@56171 Channel: 3 Note on, A6 key=93 velocity: 127
@56520 Channel: 3 Note off, A6 key=93 velocity: 127
@56521 Channel: 3 Note on, G6 key=91 velocity: 114
@56641 Channel: 3 Note on, F6 key=89 velocity: 122
@56650 Channel: 3 Note off, G6 key=91 velocity: 114
@57117 Channel: 3 Note on, E6 key=88 velocity: 112
@57123 Channel: 3 Note off, F6 key=89 velocity: 122
@57482 Channel: 3 Note on, F6 key=89 velocity: 112
@57483 Channel: 3 Note off, E6 key=88 velocity: 112
@57600 Channel: 3 Note off, F6 key=89 velocity: 112
@57603 Channel: 3 Note on, G6 key=91 velocity: 116
@57957 Channel: 3 Note off, G6 key=91 velocity: 116
@57969 Channel: 3 Note on, E6 key=88 velocity: 114
@58080 Channel: 3 Note on, C6 key=84 velocity: 107
@58085 Channel: 3 Note off, E6 key=88 velocity: 114
@58697 Channel: 3 Note off, C6 key=84 velocity: 107
@58924 Channel: 3 Note on, C6 key=84 velocity: 116
@59040 Channel: 3 Note off, C6 key=84 velocity: 116
@59047 Channel: 3 Note on, A#5 key=82 velocity: 114
@59399 Channel: 3 Note off, A#5 key=82 velocity: 114
@59407 Channel: 3 Note on, C6 key=84 velocity: 108
@59515 Channel: 3 Note off, C6 key=84 velocity: 108
@59528 Channel: 3 Note on, D6 key=86 velocity: 115
@59902 Channel: 3 Note on, E6 key=88 velocity: 98
@59908 Channel: 3 Note off, D6 key=86 velocity: 115
@59942 Channel: 3 Note on, D6 key=86 velocity: 101
@59952 Channel: 3 Note off, E6 key=88 velocity: 98
@60009 Channel: 3 Note on, C6 key=84 velocity: 108
@60024 Channel: 3 Note off, D6 key=86 velocity: 101
@60351 Channel: 3 Note off, C6 key=84 velocity: 108
@60362 Channel: 3 Note on, A#5 key=82 velocity: 101
@60480 Channel: 3 Note off, A#5 key=82 velocity: 101
@60482 Channel: 3 Note on, A5 key=81 velocity: 126
@62283 Channel: 3 Note off, A5 key=81 velocity: 126
@85932 Channel: 3 Note on, A4 key=69 velocity: 127
@86398 Channel: 3 Note off, A4 key=69 velocity: 127
@86407 Channel: 3 Note on, F6 key=89 velocity: 127
@86755 Channel: 3 Note off, F6 key=89 velocity: 127
@86759 Channel: 3 Note on, E6 key=88 velocity: 105
@86874 Channel: 3 Note off, E6 key=88 velocity: 105
@86877 Channel: 3 Note on, D6 key=86 velocity: 111
@87367 Channel: 3 Note off, D6 key=86 velocity: 111
@87367 Channel: 3 Note on, C#6 key=85 velocity: 114
@87698 Channel: 3 Note off, C#6 key=85 velocity: 114
@87708 Channel: 3 Note on, D6 key=86 velocity: 108
@87838 Channel: 3 Note off, D6 key=86 velocity: 108
@87846 Channel: 3 Note on, E6 key=88 velocity: 97
@88208 Channel: 3 Note on, C#6 key=85 velocity: 109
@88229 Channel: 3 Note off, E6 key=88 velocity: 97
@88322 Channel: 3 Note off, C#6 key=85 velocity: 109
@88339 Channel: 3 Note on, A5 key=81 velocity: 112
@88916 Channel: 3 Note off, A5 key=81 velocity: 112
@89067 Channel: 3 Note on, A5 key=81 velocity: 114
@89280 Channel: 3 Note off, A5 key=81 velocity: 114
@89313 Channel: 3 Note on, F6 key=89 velocity: 124
@89660 Channel: 3 Note off, F6 key=89 velocity: 124
@89662 Channel: 3 Note on, E6 key=88 velocity: 114
@89771 Channel: 3 Note on, D6 key=86 velocity: 122
@89789 Channel: 3 Note off, E6 key=88 velocity: 114
@90258 Channel: 3 Note on, C#6 key=85 velocity: 117
@90277 Channel: 3 Note off, D6 key=86 velocity: 122
@90587 Channel: 3 Note off, C#6 key=85 velocity: 117
@90593 Channel: 3 Note on, D6 key=86 velocity: 112
@90720 Channel: 3 Note off, D6 key=86 velocity: 112
@90730 Channel: 3 Note on, E6 key=88 velocity: 116
@91563 Channel: 3 Note off, E6 key=88 velocity: 116
@91704 Channel: 3 Note on, C6 key=84 velocity: 120
@92148 Channel: 3 Note off, C6 key=84 velocity: 120
@92171 Channel: 3 Note on, A6 key=93 velocity: 127
@92520 Channel: 3 Note off, A6 key=93 velocity: 127
@92521 Channel: 3 Note on, G6 key=91 velocity: 114
@92641 Channel: 3 Note on, F6 key=89 velocity: 122
@92650 Channel: 3 Note off, G6 key=91 velocity: 114
@93117 Channel: 3 Note on, E6 key=88 velocity: 112
@93123 Channel: 3 Note off, F6 key=89 velocity: 122
@93482 Channel: 3 Note on, F6 key=89 velocity: 112
@93483 Channel: 3 Note off, E6 key=88 velocity: 112
@93600 Channel: 3 Note off, F6 key=89 velocity: 112
@93603 Channel: 3 Note on, G6 key=91 velocity: 116
@93957 Channel: 3 Note off, G6 key=91 velocity: 116
@93969 Channel: 3 Note on, E6 key=88 velocity: 114
@94080 Channel: 3 Note on, C6 key=84 velocity: 107
@94085 Channel: 3 Note off, E6 key=88 velocity: 114
@94697 Channel: 3 Note off, C6 key=84 velocity: 107
@94924 Channel: 3 Note on, C6 key=84 velocity: 116
@95040 Channel: 3 Note off, C6 key=84 velocity: 116
@95047 Channel: 3 Note on, A#5 key=82 velocity: 114
@95399 Channel: 3 Note off, A#5 key=82 velocity: 114
@95407 Channel: 3 Note on, C6 key=84 velocity: 108
@95515 Channel: 3 Note off, C6 key=84 velocity: 108
@95528 Channel: 3 Note on, D6 key=86 velocity: 115
@95902 Channel: 3 Note on, E6 key=88 velocity: 98
@95908 Channel: 3 Note off, D6 key=86 velocity: 115
@95942 Channel: 3 Note on, D6 key=86 velocity: 101
@95952 Channel: 3 Note off, E6 key=88 velocity: 98
@96009 Channel: 3 Note on, C6 key=84 velocity: 108
@96024 Channel: 3 Note off, D6 key=86 velocity: 101
@96351 Channel: 3 Note off, C6 key=84 velocity: 108
@96362 Channel: 3 Note on, A#5 key=82 velocity: 101
@96480 Channel: 3 Note off, A#5 key=82 velocity: 101
@96480 Channel: 3 Note on, A5 key=81 velocity: 126
@97430 Channel: 3 Note off, A5 key=81 velocity: 126
@97452 Channel: 3 Note on, A4 key=69 velocity: 127
@97918 Channel: 3 Note off, A4 key=69 velocity: 127
@97927 Channel: 3 Note on, F6 key=89 velocity: 127
@98275 Channel: 3 Note off, F6 key=89 velocity: 127
@98279 Channel: 3 Note on, E6 key=88 velocity: 105
@98394 Channel: 3 Note off, E6 key=88 velocity: 105
@98397 Channel: 3 Note on, D6 key=86 velocity: 111
@98887 Channel: 3 Note off, D6 key=86 velocity: 111
@98887 Channel: 3 Note on, C#6 key=85 velocity: 114
@99218 Channel: 3 Note off, C#6 key=85 velocity: 114
@99228 Channel: 3 Note on, D6 key=86 velocity: 108
@99358 Channel: 3 Note off, D6 key=86 velocity: 108
@99366 Channel: 3 Note on, E6 key=88 velocity: 97
@99728 Channel: 3 Note on, C#6 key=85 velocity: 109
@99749 Channel: 3 Note off, E6 key=88 velocity: 97
@99842 Channel: 3 Note off, C#6 key=85 velocity: 109
@99859 Channel: 3 Note on, A5 key=81 velocity: 112
@100436 Channel: 3 Note off, A5 key=81 velocity: 112
@100587 Channel: 3 Note on, A5 key=81 velocity: 114
@100800 Channel: 3 Note off, A5 key=81 velocity: 114
@100833 Channel: 3 Note on, F6 key=89 velocity: 124
@101180 Channel: 3 Note off, F6 key=89 velocity: 124
@101182 Channel: 3 Note on, E6 key=88 velocity: 114
@101291 Channel: 3 Note on, D6 key=86 velocity: 122
@101309 Channel: 3 Note off, E6 key=88 velocity: 114
@101778 Channel: 3 Note on, C#6 key=85 velocity: 117
@101797 Channel: 3 Note off, D6 key=86 velocity: 122
@102107 Channel: 3 Note off, C#6 key=85 velocity: 117
@102113 Channel: 3 Note on, D6 key=86 velocity: 112
@102240 Channel: 3 Note off, D6 key=86 velocity: 112
@102250 Channel: 3 Note on, E6 key=88 velocity: 116
@103083 Channel: 3 Note off, E6 key=88 velocity: 116
@103224 Channel: 3 Note on, C6 key=84 velocity: 120
@103668 Channel: 3 Note off, C6 key=84 velocity: 120
@103691 Channel: 3 Note on, A6 key=93 velocity: 127
@104040 Channel: 3 Note off, A6 key=93 velocity: 127
@104041 Channel: 3 Note on, G6 key=91 velocity: 114
@104161 Channel: 3 Note on, F6 key=89 velocity: 122
@104170 Channel: 3 Note off, G6 key=91 velocity: 114
@104637 Channel: 3 Note on, E6 key=88 velocity: 112
@104643 Channel: 3 Note off, F6 key=89 velocity: 122
@105002 Channel: 3 Note on, F6 key=89 velocity: 112
@105003 Channel: 3 Note off, E6 key=88 velocity: 112
@105120 Channel: 3 Note off, F6 key=89 velocity: 112
@105123 Channel: 3 Note on, G6 key=91 velocity: 116
@105477 Channel: 3 Note off, G6 key=91 velocity: 116
@105489 Channel: 3 Note on, E6 key=88 velocity: 114
@105600 Channel: 3 Note on, C6 key=84 velocity: 107
@105605 Channel: 3 Note off, E6 key=88 velocity: 114
@106217 Channel: 3 Note off, C6 key=84 velocity: 107
@106444 Channel: 3 Note on, C6 key=84 velocity: 116
@106560 Channel: 3 Note off, C6 key=84 velocity: 116
@106567 Channel: 3 Note on, A#5 key=82 velocity: 114
@106919 Channel: 3 Note off, A#5 key=82 velocity: 114
@106927 Channel: 3 Note on, C6 key=84 velocity: 108
@107035 Channel: 3 Note off, C6 key=84 velocity: 108
@107048 Channel: 3 Note on, D6 key=86 velocity: 115
@107422 Channel: 3 Note on, E6 key=88 velocity: 98
@107428 Channel: 3 Note off, D6 key=86 velocity: 115
@107462 Channel: 3 Note on, D6 key=86 velocity: 101
@107472 Channel: 3 Note off, E6 key=88 velocity: 98
@107529 Channel: 3 Note on, C6 key=84 velocity: 108
@107544 Channel: 3 Note off, D6 key=86 velocity: 101
@107871 Channel: 3 Note off, C6 key=84 velocity: 108
@107882 Channel: 3 Note on, A#5 key=82 velocity: 101
@108000 Channel: 3 Note off, A#5 key=82 velocity: 101
@108002 Channel: 3 Note on, A5 key=81 velocity: 126
@109803 Channel: 3 Note off, A5 key=81 velocity: 126
@144000 Channel: 3 Command:176
@144000 Channel: 3 Note on, A5 key=81 velocity: 126
@144950 Channel: 3 Note off, A5 key=81 velocity: 126
@144972 Channel: 3 Note on, A4 key=69 velocity: 127
@145438 Channel: 3 Note off, A4 key=69 velocity: 127
@145447 Channel: 3 Note on, F6 key=89 velocity: 127
@145795 Channel: 3 Note off, F6 key=89 velocity: 127
@145799 Channel: 3 Note on, E6 key=88 velocity: 105
@145914 Channel: 3 Note off, E6 key=88 velocity: 105
@145917 Channel: 3 Note on, D6 key=86 velocity: 111
@146407 Channel: 3 Note off, D6 key=86 velocity: 111
@146407 Channel: 3 Note on, C#6 key=85 velocity: 114
@146738 Channel: 3 Note off, C#6 key=85 velocity: 114
@146748 Channel: 3 Note on, D6 key=86 velocity: 108
@146878 Channel: 3 Note off, D6 key=86 velocity: 108
@146886 Channel: 3 Note on, E6 key=88 velocity: 97
@147248 Channel: 3 Note on, C#6 key=85 velocity: 109
@147269 Channel: 3 Note off, E6 key=88 velocity: 97
@147362 Channel: 3 Note off, C#6 key=85 velocity: 109
@147379 Channel: 3 Note on, A5 key=81 velocity: 112
@147956 Channel: 3 Note off, A5 key=81 velocity: 112
@148107 Channel: 3 Note on, A5 key=81 velocity: 114
@148320 Channel: 3 Note off, A5 key=81 velocity: 114
@148353 Channel: 3 Note on, F6 key=89 velocity: 124
@148700 Channel: 3 Note off, F6 key=89 velocity: 124
@148702 Channel: 3 Note on, E6 key=88 velocity: 114
@148811 Channel: 3 Note on, D6 key=86 velocity: 122
@148829 Channel: 3 Note off, E6 key=88 velocity: 114
@149298 Channel: 3 Note on, C#6 key=85 velocity: 117
@149317 Channel: 3 Note off, D6 key=86 velocity: 122
@149627 Channel: 3 Note off, C#6 key=85 velocity: 117
@149633 Channel: 3 Note on, D6 key=86 velocity: 112
@149760 Channel: 3 Note off, D6 key=86 velocity: 112
@149770 Channel: 3 Note on, E6 key=88 velocity: 116
@150603 Channel: 3 Note off, E6 key=88 velocity: 116
@150744 Channel: 3 Note on, C6 key=84 velocity: 120
@151188 Channel: 3 Note off, C6 key=84 velocity: 120
@151211 Channel: 3 Note on, A6 key=93 velocity: 127
@151560 Channel: 3 Note off, A6 key=93 velocity: 127
@151561 Channel: 3 Note on, G6 key=91 velocity: 114
@151681 Channel: 3 Note on, F6 key=89 velocity: 122
@151690 Channel: 3 Note off, G6 key=91 velocity: 114
@152157 Channel: 3 Note on, E6 key=88 velocity: 112
@152163 Channel: 3 Note off, F6 key=89 velocity: 122
@152522 Channel: 3 Note on, F6 key=89 velocity: 112
@152523 Channel: 3 Note off, E6 key=88 velocity: 112
@152640 Channel: 3 Note off, F6 key=89 velocity: 112
@152643 Channel: 3 Note on, G6 key=91 velocity: 116
@152997 Channel: 3 Note off, G6 key=91 velocity: 116
@153009 Channel: 3 Note on, E6 key=88 velocity: 114
@153120 Channel: 3 Note on, C6 key=84 velocity: 107
@153125 Channel: 3 Note off, E6 key=88 velocity: 114
@153737 Channel: 3 Note off, C6 key=84 velocity: 107
@153964 Channel: 3 Note on, C6 key=84 velocity: 116
@154080 Channel: 3 Note off, C6 key=84 velocity: 116
@154087 Channel: 3 Note on, A#5 key=82 velocity: 114
@154439 Channel: 3 Note off, A#5 key=82 velocity: 114
@154447 Channel: 3 Note on, C6 key=84 velocity: 108
@154555 Channel: 3 Note off, C6 key=84 velocity: 108
@154568 Channel: 3 Note on, D6 key=86 velocity: 115
@154942 Channel: 3 Note on, E6 key=88 velocity: 98
@154948 Channel: 3 Note off, D6 key=86 velocity: 115
@154982 Channel: 3 Note on, D6 key=86 velocity: 101
@154992 Channel: 3 Note off, E6 key=88 velocity: 98
@155049 Channel: 3 Note on, C6 key=84 velocity: 108
@155064 Channel: 3 Note off, D6 key=86 velocity: 101
@155391 Channel: 3 Note off, C6 key=84 velocity: 108
@155402 Channel: 3 Note on, A#5 key=82 velocity: 101
@155520 Channel: 3 Note off, A#5 key=82 velocity: 101
@155547 Channel: 3 Note on, A5 key=81 velocity: 112
@156419 Channel: 3 Note off, A5 key=81 velocity: 112
@156746 Channel: 3 Note on, A4 key=69 velocity: 91
@156954 Channel: 3 Note off, A4 key=69 velocity: 91
@156967 Channel: 3 Note on, A#4 key=70 velocity: 114
@157319 Channel: 3 Note off, A#4 key=70 velocity: 114
@157327 Channel: 3 Note on, C5 key=72 velocity: 108
@157435 Channel: 3 Note off, C5 key=72 velocity: 108
@157448 Channel: 3 Note on, D5 key=74 velocity: 115
@157822 Channel: 3 Note on, E5 key=76 velocity: 98
@157828 Channel: 3 Note off, D5 key=74 velocity: 115
@157862 Channel: 3 Note on, D5 key=74 velocity: 101
@157872 Channel: 3 Note off, E5 key=76 velocity: 98
@157929 Channel: 3 Note on, C5 key=72 velocity: 108
@157944 Channel: 3 Note off, D5 key=74 velocity: 101
@158271 Channel: 3 Note off, C5 key=72 velocity: 108
@158282 Channel: 3 Note on, A#4 key=70 velocity: 101
@158400 Channel: 3 Note off, A#4 key=70 velocity: 101
@158427 Channel: 3 Note on, A4 key=69 velocity: 112
@159299 Channel: 3 Note off, A4 key=69 velocity: 112
@159602 Channel: 3 Note on, A4 key=69 velocity: 92
@159802 Channel: 3 Note off, A4 key=69 velocity: 92
@159847 Channel: 3 Note on, A#4 key=70 velocity: 114
@160199 Channel: 3 Note off, A#4 key=70 velocity: 114
@160207 Channel: 3 Note on, C5 key=72 velocity: 108
@160315 Channel: 3 Note off, C5 key=72 velocity: 108
@160328 Channel: 3 Note on, D5 key=74 velocity: 115
@160702 Channel: 3 Note on, E5 key=76 velocity: 98
@160708 Channel: 3 Note off, D5 key=74 velocity: 115
@160742 Channel: 3 Note on, D5 key=74 velocity: 101
@160752 Channel: 3 Note off, E5 key=76 velocity: 98
@160809 Channel: 3 Note on, C5 key=72 velocity: 108
@160824 Channel: 3 Note off, D5 key=74 velocity: 101
@161151 Channel: 3 Note off, C5 key=72 velocity: 108
@161162 Channel: 3 Note on, A#4 key=70 velocity: 101
@161280 Channel: 3 Note off, A#4 key=70 velocity: 101
@161291 Channel: 3 Note on, A4 key=69 velocity: 111
@162194 Channel: 3 Note off, A4 key=69 velocity: 111
@162243 Channel: 3 Note on, A4 key=69 velocity: 88
@162599 Channel: 3 Note off, A4 key=69 velocity: 88
@162704 Channel: 3 Note on, D4 key=62 velocity: 80
@162722 Channel: 3 Note on, F#4 key=66 velocity: 99
@162735 Channel: 3 Note on, A4 key=69 velocity: 69
@165045 Channel: 3 Command:176
@165375 Channel: 3 Command:176
@165815 Channel: 3 Command:176
@165971 Channel: 3 Command:176
@166135 Channel: 3 Command:176
@166291 Channel: 3 Command:176
@166355 Channel: 3 Command:176
@166391 Channel: 3 Command:176
@166437 Channel: 3 Command:176
@166474 Channel: 3 Command:176
@166538 Channel: 3 Command:176
@166630 Channel: 3 Command:176
@166730 Channel: 3 Command:176
@166822 Channel: 3 Command:176
@166959 Channel: 3 Command:176
@167061 Channel: 3 Command:176
@167225 Channel: 3 Command:176
@167381 Channel: 3 Command:176
@167464 Channel: 3 Command:176
@167582 Channel: 3 Command:176
@167674 Channel: 3 Command:176
@167756 Channel: 3 Command:176
@167811 Channel: 3 Command:176
@167967 Channel: 3 Command:176
@168300 Channel: 3 Note off, F#4 key=66 velocity: 99
@168313 Channel: 3 Note off, A4 key=69 velocity: 69
@168314 Channel: 3 Note off, D4 key=62 velocity: 80
@168480 Other message: class javax.sound.midi.Track$ImmutableEndOfTrack

Track 6: size = 5392

@0 Other message: class javax.sound.midi.MetaMessage
@0 Other message: class javax.sound.midi.MetaMessage
@0 Other message: class javax.sound.midi.MetaMessage
@0 Other message: class javax.sound.midi.MetaMessage
@330 Channel: 4 Command:176
@335 Channel: 4 Command:176
@340 Channel: 4 Command:192
@345 Channel: 4 Command:176
@350 Channel: 4 Command:176
@355 Channel: 4 Command:176
@360 Channel: 4 Command:176
@365 Channel: 4 Command:176
@365 Channel: 4 Command:176
@365 Channel: 4 Command:176
@370 Channel: 4 Command:176
@370 Channel: 4 Command:176
@370 Channel: 4 Command:176
@375 Channel: 4 Command:176
@375 Channel: 4 Command:176
@375 Channel: 4 Command:176
@380 Channel: 4 Command:176
@380 Channel: 4 Command:176
@380 Channel: 4 Command:176
@385 Channel: 4 Command:176
@385 Channel: 4 Command:176
@385 Channel: 4 Command:176
@390 Channel: 4 Command:176
@390 Channel: 4 Command:176
@390 Channel: 4 Command:176
@395 Channel: 4 Command:176
@395 Channel: 4 Command:176
@395 Channel: 4 Command:176
@400 Channel: 4 Command:176
@400 Channel: 4 Command:176
@400 Channel: 4 Command:176
@405 Channel: 4 Command:176
@405 Channel: 4 Command:176
@405 Channel: 4 Command:176
@1440 Channel: 4 Note on, D3 key=50 velocity: 92
@1444 Channel: 4 Note on, A4 key=69 velocity: 84
@1444 Channel: 4 Note on, D2 key=38 velocity: 100
@1445 Channel: 4 Note on, D4 key=62 velocity: 80
@1521 Channel: 4 Note off, D2 key=38 velocity: 100
@1523 Channel: 4 Note off, D3 key=50 velocity: 92
@1528 Channel: 4 Note off, A4 key=69 velocity: 84
@1533 Channel: 4 Note off, D4 key=62 velocity: 80
@1684 Channel: 4 Note on, D4 key=62 velocity: 70
@1684 Channel: 4 Note on, A4 key=69 velocity: 74
@1736 Channel: 4 Note off, A4 key=69 velocity: 74
@1744 Channel: 4 Note off, D4 key=62 velocity: 70
@1803 Channel: 4 Note on, D4 key=62 velocity: 64
@1803 Channel: 4 Note on, A4 key=69 velocity: 69
@1846 Channel: 4 Note off, A4 key=69 velocity: 69
@1855 Channel: 4 Note off, D4 key=62 velocity: 64
@1922 Channel: 4 Note on, A4 key=69 velocity: 81
@1923 Channel: 4 Note on, D4 key=62 velocity: 75
@1947 Channel: 4 Note on, D2 key=38 velocity: 92
@1949 Channel: 4 Note on, D3 key=50 velocity: 91
@1977 Channel: 4 Note off, A4 key=69 velocity: 81
@1979 Channel: 4 Note off, D4 key=62 velocity: 75
@2004 Channel: 4 Note off, D3 key=50 velocity: 91
@2009 Channel: 4 Note off, D2 key=38 velocity: 92
@2162 Channel: 4 Note on, D4 key=62 velocity: 69
@2162 Channel: 4 Note on, A4 key=69 velocity: 73
@2210 Channel: 4 Note off, A4 key=69 velocity: 73
@2220 Channel: 4 Note off, D4 key=62 velocity: 69
@2282 Channel: 4 Note on, D4 key=62 velocity: 59
@2284 Channel: 4 Note on, A4 key=69 velocity: 66
@2323 Channel: 4 Note off, A4 key=69 velocity: 66
@2333 Channel: 4 Note off, D4 key=62 velocity: 59
@2402 Channel: 4 Note on, A4 key=69 velocity: 62
@2405 Channel: 4 Note on, D4 key=62 velocity: 69
@2415 Channel: 4 Note on, D2 key=38 velocity: 98
@2416 Channel: 4 Note on, D3 key=50 velocity: 84
@2450 Channel: 4 Note off, D4 key=62 velocity: 69
@2457 Channel: 4 Note off, A4 key=69 velocity: 62
@2464 Channel: 4 Note off, D3 key=50 velocity: 84
@2469 Channel: 4 Note off, D2 key=38 velocity: 98
@2642 Channel: 4 Note on, A4 key=69 velocity: 74
@2644 Channel: 4 Note on, D4 key=62 velocity: 70
@2703 Channel: 4 Note off, A4 key=69 velocity: 74
@2708 Channel: 4 Note off, D4 key=62 velocity: 70
@2879 Channel: 4 Note on, D2 key=38 velocity: 83
@2880 Channel: 4 Note on, A4 key=69 velocity: 83
@2882 Channel: 4 Note on, D4 key=62 velocity: 78
@2889 Channel: 4 Note on, D3 key=50 velocity: 88
@2947 Channel: 4 Note off, D4 key=62 velocity: 78
@2949 Channel: 4 Note off, A4 key=69 velocity: 83
@2950 Channel: 4 Note off, D2 key=38 velocity: 83
@2953 Channel: 4 Note off, D3 key=50 velocity: 88
@3121 Channel: 4 Note on, D4 key=62 velocity: 68
@3121 Channel: 4 Note on, A4 key=69 velocity: 71
@3167 Channel: 4 Note off, A4 key=69 velocity: 71
@3172 Channel: 4 Note off, D4 key=62 velocity: 68
@3239 Channel: 4 Note on, A4 key=69 velocity: 70
@3240 Channel: 4 Note on, D4 key=62 velocity: 64
@3288 Channel: 4 Note off, A4 key=69 velocity: 70
@3290 Channel: 4 Note off, D4 key=62 velocity: 64
@3360 Channel: 4 Note on, A4 key=69 velocity: 74
@3361 Channel: 4 Note on, D4 key=62 velocity: 72
@3366 Channel: 4 Note on, D3 key=50 velocity: 83
@3367 Channel: 4 Note on, D2 key=38 velocity: 97
@3413 Channel: 4 Note off, D4 key=62 velocity: 72
@3416 Channel: 4 Note off, A4 key=69 velocity: 74
@3417 Channel: 4 Note off, D3 key=50 velocity: 83
@3418 Channel: 4 Note off, D2 key=38 velocity: 97
@3601 Channel: 4 Note on, A4 key=69 velocity: 66
@3602 Channel: 4 Note on, D4 key=62 velocity: 62
@3652 Channel: 4 Note off, A4 key=69 velocity: 66
@3654 Channel: 4 Note off, D4 key=62 velocity: 62
@3721 Channel: 4 Note on, A4 key=69 velocity: 62
@3722 Channel: 4 Note on, D4 key=62 velocity: 59
@3761 Channel: 4 Note off, D4 key=62 velocity: 59
@3763 Channel: 4 Note off, A4 key=69 velocity: 62
@3841 Channel: 4 Note on, A4 key=69 velocity: 72
@3842 Channel: 4 Note on, D4 key=62 velocity: 66
@3854 Channel: 4 Note on, D2 key=38 velocity: 87
@3857 Channel: 4 Note on, D3 key=50 velocity: 85
@3897 Channel: 4 Note off, D4 key=62 velocity: 66
@3897 Channel: 4 Note off, A4 key=69 velocity: 72
@3905 Channel: 4 Note off, D3 key=50 velocity: 85
@3907 Channel: 4 Note off, D2 key=38 velocity: 87
@4082 Channel: 4 Note on, A4 key=69 velocity: 75
@4084 Channel: 4 Note on, D4 key=62 velocity: 68
@4141 Channel: 4 Note off, A4 key=69 velocity: 75
@4143 Channel: 4 Note off, D4 key=62 velocity: 68
@4323 Channel: 4 Note on, A4 key=69 velocity: 81
@4323 Channel: 4 Note on, D2 key=38 velocity: 91
@4323 Channel: 4 Note on, D3 key=50 velocity: 80
@4326 Channel: 4 Note on, D4 key=62 velocity: 73
@4368 Channel: 4 Note off, D3 key=50 velocity: 80
@4375 Channel: 4 Note off, D2 key=38 velocity: 91
@4391 Channel: 4 Note off, A4 key=69 velocity: 81
@4394 Channel: 4 Note off, D4 key=62 velocity: 73
@4556 Channel: 4 Note on, A4 key=69 velocity: 68
@4558 Channel: 4 Note on, D4 key=62 velocity: 66
@4610 Channel: 4 Note off, A4 key=69 velocity: 68
@4611 Channel: 4 Note off, D4 key=62 velocity: 66
@4677 Channel: 4 Note on, D4 key=62 velocity: 65
@4677 Channel: 4 Note on, A4 key=69 velocity: 70
@4732 Channel: 4 Note off, A4 key=69 velocity: 70
@4736 Channel: 4 Note off, D4 key=62 velocity: 65
@4795 Channel: 4 Note on, D2 key=38 velocity: 86
@4795 Channel: 4 Note on, A4 key=69 velocity: 72
@4796 Channel: 4 Note on, D4 key=62 velocity: 68
@4797 Channel: 4 Note on, D3 key=50 velocity: 81
@4842 Channel: 4 Note off, D2 key=38 velocity: 86
@4844 Channel: 4 Note off, D3 key=50 velocity: 81
@4854 Channel: 4 Note off, D4 key=62 velocity: 68
@4857 Channel: 4 Note off, A4 key=69 velocity: 72
@5039 Channel: 4 Note on, A4 key=69 velocity: 66
@5042 Channel: 4 Note on, D4 key=62 velocity: 60
@5095 Channel: 4 Note off, D4 key=62 velocity: 60
@5095 Channel: 4 Note off, A4 key=69 velocity: 66
@5162 Channel: 4 Note on, A4 key=69 velocity: 68
@5163 Channel: 4 Note on, D4 key=62 velocity: 60
@5217 Channel: 4 Note off, D4 key=62 velocity: 60
@5221 Channel: 4 Note off, A4 key=69 velocity: 68
@5265 Channel: 4 Note on, D2 key=38 velocity: 97
@5268 Channel: 4 Note on, D3 key=50 velocity: 85
@5280 Channel: 4 Note on, A4 key=69 velocity: 73
@5281 Channel: 4 Note on, D4 key=62 velocity: 67
@5313 Channel: 4 Note off, D3 key=50 velocity: 85
@5319 Channel: 4 Note off, D2 key=38 velocity: 97
@5339 Channel: 4 Note off, D4 key=62 velocity: 67
@5343 Channel: 4 Note off, A4 key=69 velocity: 73
@5523 Channel: 4 Note on, A4 key=69 velocity: 73
@5525 Channel: 4 Note on, D4 key=62 velocity: 68
@5583 Channel: 4 Note off, D4 key=62 velocity: 68
@5586 Channel: 4 Note off, A4 key=69 velocity: 73
@5759 Channel: 4 Note on, A4 key=69 velocity: 86
@5760 Channel: 4 Note on, D4 key=62 velocity: 79
@5762 Channel: 4 Note on, D3 key=50 velocity: 86
@5763 Channel: 4 Note on, D2 key=38 velocity: 102
@5811 Channel: 4 Note off, D2 key=38 velocity: 102
@5814 Channel: 4 Note off, D3 key=50 velocity: 86
@5824 Channel: 4 Note off, A4 key=69 velocity: 86
@5827 Channel: 4 Note off, D4 key=62 velocity: 79
@5996 Channel: 4 Note on, D4 key=62 velocity: 68
@5996 Channel: 4 Note on, A4 key=69 velocity: 70
@6040 Channel: 4 Note off, A4 key=69 velocity: 70
@6054 Channel: 4 Note off, D4 key=62 velocity: 68
@6115 Channel: 4 Note on, D4 key=62 velocity: 63
@6115 Channel: 4 Note on, A4 key=69 velocity: 68
@6165 Channel: 4 Note off, A4 key=69 velocity: 68
@6171 Channel: 4 Note off, D4 key=62 velocity: 63
@6235 Channel: 4 Note on, A4 key=69 velocity: 80
@6236 Channel: 4 Note on, D4 key=62 velocity: 68
@6237 Channel: 4 Note on, D3 key=50 velocity: 80
@6238 Channel: 4 Note on, D2 key=38 velocity: 91
@6286 Channel: 4 Note off, D4 key=62 velocity: 68
@6289 Channel: 4 Note off, D2 key=38 velocity: 91
@6289 Channel: 4 Note off, D3 key=50 velocity: 80
@6291 Channel: 4 Note off, A4 key=69 velocity: 80
@6477 Channel: 4 Note on, D4 key=62 velocity: 64
@6477 Channel: 4 Note on, A4 key=69 velocity: 70
@6523 Channel: 4 Note off, A4 key=69 velocity: 70
@6529 Channel: 4 Note off, D4 key=62 velocity: 64
@6598 Channel: 4 Note on, D4 key=62 velocity: 60
@6598 Channel: 4 Note on, A4 key=69 velocity: 66
@6644 Channel: 4 Note off, A4 key=69 velocity: 66
@6648 Channel: 4 Note off, D4 key=62 velocity: 60
@6717 Channel: 4 Note on, A4 key=69 velocity: 73
@6718 Channel: 4 Note on, D3 key=50 velocity: 77
@6718 Channel: 4 Note on, D4 key=62 velocity: 62
@6719 Channel: 4 Note on, D2 key=38 velocity: 85
@6768 Channel: 4 Note off, D3 key=50 velocity: 77
@6769 Channel: 4 Note off, D4 key=62 velocity: 62
@6772 Channel: 4 Note off, D2 key=38 velocity: 85
@6773 Channel: 4 Note off, A4 key=69 velocity: 73
@6956 Channel: 4 Note on, A4 key=69 velocity: 66
@6957 Channel: 4 Note on, D4 key=62 velocity: 59
@7013 Channel: 4 Note off, A4 key=69 velocity: 66
@7017 Channel: 4 Note off, D4 key=62 velocity: 59
@7200 Channel: 4 Note on, D3 key=50 velocity: 92
@7204 Channel: 4 Note on, A4 key=69 velocity: 84
@7204 Channel: 4 Note on, D2 key=38 velocity: 100
@7205 Channel: 4 Note on, D4 key=62 velocity: 80
@7281 Channel: 4 Note off, D2 key=38 velocity: 100
@7283 Channel: 4 Note off, D3 key=50 velocity: 92
@7288 Channel: 4 Note off, A4 key=69 velocity: 84
@7293 Channel: 4 Note off, D4 key=62 velocity: 80
@7444 Channel: 4 Note on, D4 key=62 velocity: 70
@7444 Channel: 4 Note on, A4 key=69 velocity: 74
@7496 Channel: 4 Note off, A4 key=69 velocity: 74
@7504 Channel: 4 Note off, D4 key=62 velocity: 70
@7563 Channel: 4 Note on, D4 key=62 velocity: 64
@7563 Channel: 4 Note on, A4 key=69 velocity: 69
@7606 Channel: 4 Note off, A4 key=69 velocity: 69
@7615 Channel: 4 Note off, D4 key=62 velocity: 64
@7673 Channel: 4 Note on, D2 key=38 velocity: 85
@7673 Channel: 4 Note on, D3 key=50 velocity: 90
@7682 Channel: 4 Note on, A4 key=69 velocity: 81
@7683 Channel: 4 Note on, D4 key=62 velocity: 75
@7726 Channel: 4 Note off, D3 key=50 velocity: 90
@7734 Channel: 4 Note off, D2 key=38 velocity: 85
@7737 Channel: 4 Note off, A4 key=69 velocity: 81
@7739 Channel: 4 Note off, D4 key=62 velocity: 75
@7922 Channel: 4 Note on, D4 key=62 velocity: 69
@7922 Channel: 4 Note on, A4 key=69 velocity: 73
@7970 Channel: 4 Note off, A4 key=69 velocity: 73
@7980 Channel: 4 Note off, D4 key=62 velocity: 69
@8042 Channel: 4 Note on, D4 key=62 velocity: 59
@8044 Channel: 4 Note on, A4 key=69 velocity: 66
@8083 Channel: 4 Note off, A4 key=69 velocity: 66
@8093 Channel: 4 Note off, D4 key=62 velocity: 59
@8155 Channel: 4 Note on, D2 key=38 velocity: 90
@8156 Channel: 4 Note on, D3 key=50 velocity: 77
@8162 Channel: 4 Note on, A4 key=69 velocity: 62
@8165 Channel: 4 Note on, D4 key=62 velocity: 69
@8210 Channel: 4 Note off, D4 key=62 velocity: 69
@8211 Channel: 4 Note off, D3 key=50 velocity: 77
@8211 Channel: 4 Note off, D2 key=38 velocity: 90
@8217 Channel: 4 Note off, A4 key=69 velocity: 62
@8402 Channel: 4 Note on, A4 key=69 velocity: 74
@8404 Channel: 4 Note on, D4 key=62 velocity: 70
@8463 Channel: 4 Note off, A4 key=69 velocity: 74
@8468 Channel: 4 Note off, D4 key=62 velocity: 70
@8639 Channel: 4 Note on, D2 key=38 velocity: 83
@8640 Channel: 4 Note on, A4 key=69 velocity: 83
@8642 Channel: 4 Note on, D4 key=62 velocity: 78
@8649 Channel: 4 Note on, D3 key=50 velocity: 88
@8707 Channel: 4 Note off, D4 key=62 velocity: 78
@8709 Channel: 4 Note off, A4 key=69 velocity: 83
@8710 Channel: 4 Note off, D2 key=38 velocity: 83
@8713 Channel: 4 Note off, D3 key=50 velocity: 88
@8881 Channel: 4 Note on, D4 key=62 velocity: 68
@8881 Channel: 4 Note on, A4 key=69 velocity: 71
@8927 Channel: 4 Note off, A4 key=69 velocity: 71
@8932 Channel: 4 Note off, D4 key=62 velocity: 68
@8999 Channel: 4 Note on, A4 key=69 velocity: 70
@9000 Channel: 4 Note on, D4 key=62 velocity: 64
@9048 Channel: 4 Note off, A4 key=69 velocity: 70
@9050 Channel: 4 Note off, D4 key=62 velocity: 64
@9103 Channel: 4 Note on, D2 key=38 velocity: 87
@9108 Channel: 4 Note on, D3 key=50 velocity: 78
@9120 Channel: 4 Note on, A4 key=69 velocity: 74
@9121 Channel: 4 Note on, D4 key=62 velocity: 72
@9159 Channel: 4 Note off, D3 key=50 velocity: 78
@9166 Channel: 4 Note off, D2 key=38 velocity: 87
@9173 Channel: 4 Note off, D4 key=62 velocity: 72
@9176 Channel: 4 Note off, A4 key=69 velocity: 74
@9361 Channel: 4 Note on, A4 key=69 velocity: 66
@9362 Channel: 4 Note on, D4 key=62 velocity: 62
@9412 Channel: 4 Note off, A4 key=69 velocity: 66
@9414 Channel: 4 Note off, D4 key=62 velocity: 62
@9481 Channel: 4 Note on, A4 key=69 velocity: 62
@9482 Channel: 4 Note on, D4 key=62 velocity: 59
@9521 Channel: 4 Note off, D4 key=62 velocity: 59
@9523 Channel: 4 Note off, A4 key=69 velocity: 62
@9592 Channel: 4 Note on, D2 key=38 velocity: 90
@9594 Channel: 4 Note on, D3 key=50 velocity: 80
@9601 Channel: 4 Note on, A4 key=69 velocity: 72
@9602 Channel: 4 Note on, D4 key=62 velocity: 66
@9650 Channel: 4 Note off, D3 key=50 velocity: 80
@9654 Channel: 4 Note off, D2 key=38 velocity: 90
@9657 Channel: 4 Note off, D4 key=62 velocity: 66
@9657 Channel: 4 Note off, A4 key=69 velocity: 72
@9842 Channel: 4 Note on, A4 key=69 velocity: 75
@9844 Channel: 4 Note on, D4 key=62 velocity: 68
@9901 Channel: 4 Note off, A4 key=69 velocity: 75
@9903 Channel: 4 Note off, D4 key=62 velocity: 68
@10083 Channel: 4 Note on, A4 key=69 velocity: 81
@10083 Channel: 4 Note on, D2 key=38 velocity: 91
@10083 Channel: 4 Note on, D3 key=50 velocity: 80
@10086 Channel: 4 Note on, D4 key=62 velocity: 73
@10128 Channel: 4 Note off, D3 key=50 velocity: 80
@10135 Channel: 4 Note off, D2 key=38 velocity: 91
@10151 Channel: 4 Note off, A4 key=69 velocity: 81
@10154 Channel: 4 Note off, D4 key=62 velocity: 73
@10316 Channel: 4 Note on, A4 key=69 velocity: 68
@10318 Channel: 4 Note on, D4 key=62 velocity: 66
@10370 Channel: 4 Note off, A4 key=69 velocity: 68
@10371 Channel: 4 Note off, D4 key=62 velocity: 66
@10437 Channel: 4 Note on, D4 key=62 velocity: 65
@10437 Channel: 4 Note on, A4 key=69 velocity: 70
@10492 Channel: 4 Note off, A4 key=69 velocity: 70
@10496 Channel: 4 Note off, D4 key=62 velocity: 65
@10554 Channel: 4 Note on, D2 key=38 velocity: 91
@10555 Channel: 4 Note on, D3 key=50 velocity: 74
@10555 Channel: 4 Note on, A4 key=69 velocity: 72
@10556 Channel: 4 Note on, D4 key=62 velocity: 68
@10607 Channel: 4 Note off, D3 key=50 velocity: 74
@10609 Channel: 4 Note off, D2 key=38 velocity: 91
@10614 Channel: 4 Note off, D4 key=62 velocity: 68
@10617 Channel: 4 Note off, A4 key=69 velocity: 72
@10799 Channel: 4 Note on, A4 key=69 velocity: 66
@10802 Channel: 4 Note on, D4 key=62 velocity: 60
@10855 Channel: 4 Note off, D4 key=62 velocity: 60
@10855 Channel: 4 Note off, A4 key=69 velocity: 66
@10922 Channel: 4 Note on, A4 key=69 velocity: 68
@10923 Channel: 4 Note on, D4 key=62 velocity: 60
@10977 Channel: 4 Note off, D4 key=62 velocity: 60
@10981 Channel: 4 Note off, A4 key=69 velocity: 68
@11033 Channel: 4 Note on, D2 key=38 velocity: 86
@11040 Channel: 4 Note on, A4 key=69 velocity: 73
@11041 Channel: 4 Note on, D3 key=50 velocity: 76
@11041 Channel: 4 Note on, D4 key=62 velocity: 67
@11091 Channel: 4 Note off, D3 key=50 velocity: 76
@11093 Channel: 4 Note off, D2 key=38 velocity: 86
@11099 Channel: 4 Note off, D4 key=62 velocity: 67
@11103 Channel: 4 Note off, A4 key=69 velocity: 73
@11283 Channel: 4 Note on, A4 key=69 velocity: 73
@11285 Channel: 4 Note on, D4 key=62 velocity: 68
@11343 Channel: 4 Note off, D4 key=62 velocity: 68
@11346 Channel: 4 Note off, A4 key=69 velocity: 73
@11519 Channel: 4 Note on, A4 key=69 velocity: 86
@11520 Channel: 4 Note on, D4 key=62 velocity: 79
@11522 Channel: 4 Note on, D3 key=50 velocity: 86
@11523 Channel: 4 Note on, D2 key=38 velocity: 102
@11571 Channel: 4 Note off, D2 key=38 velocity: 102
@11574 Channel: 4 Note off, D3 key=50 velocity: 86
@11584 Channel: 4 Note off, A4 key=69 velocity: 86
@11587 Channel: 4 Note off, D4 key=62 velocity: 79
@11756 Channel: 4 Note on, D4 key=62 velocity: 68
@11756 Channel: 4 Note on, A4 key=69 velocity: 70
@11800 Channel: 4 Note off, A4 key=69 velocity: 70
@11814 Channel: 4 Note off, D4 key=62 velocity: 68
@11875 Channel: 4 Note on, D4 key=62 velocity: 63
@11875 Channel: 4 Note on, A4 key=69 velocity: 68
@11925 Channel: 4 Note off, A4 key=69 velocity: 68
@11931 Channel: 4 Note off, D4 key=62 velocity: 63
@11994 Channel: 4 Note on, D2 key=38 velocity: 87
@11995 Channel: 4 Note on, A4 key=69 velocity: 80
@11996 Channel: 4 Note on, D4 key=62 velocity: 68
@11997 Channel: 4 Note on, D3 key=50 velocity: 80
@12045 Channel: 4 Note off, D3 key=50 velocity: 80
@12046 Channel: 4 Note off, D4 key=62 velocity: 68
@12048 Channel: 4 Note off, D2 key=38 velocity: 87
@12051 Channel: 4 Note off, A4 key=69 velocity: 80
@12237 Channel: 4 Note on, D4 key=62 velocity: 64
@12237 Channel: 4 Note on, A4 key=69 velocity: 70
@12283 Channel: 4 Note off, A4 key=69 velocity: 70
@12289 Channel: 4 Note off, D4 key=62 velocity: 64
@12358 Channel: 4 Note on, D4 key=62 velocity: 60
@12358 Channel: 4 Note on, A4 key=69 velocity: 66
@12404 Channel: 4 Note off, A4 key=69 velocity: 66
@12408 Channel: 4 Note off, D4 key=62 velocity: 60
@12477 Channel: 4 Note on, A4 key=69 velocity: 73
@12478 Channel: 4 Note on, D4 key=62 velocity: 62
@12492 Channel: 4 Note on, D2 key=38 velocity: 87
@12496 Channel: 4 Note on, D3 key=50 velocity: 80
@12529 Channel: 4 Note off, D4 key=62 velocity: 62
@12533 Channel: 4 Note off, A4 key=69 velocity: 73
@12541 Channel: 4 Note off, D3 key=50 velocity: 80
@12543 Channel: 4 Note off, D2 key=38 velocity: 87
@12716 Channel: 4 Note on, A4 key=69 velocity: 66
@12717 Channel: 4 Note on, D4 key=62 velocity: 59
@12773 Channel: 4 Note off, A4 key=69 velocity: 66
@12777 Channel: 4 Note off, D4 key=62 velocity: 59
@12960 Channel: 4 Note on, D3 key=50 velocity: 92
@12964 Channel: 4 Note on, A4 key=69 velocity: 84
@12964 Channel: 4 Note on, D2 key=38 velocity: 100
@12965 Channel: 4 Note on, D4 key=62 velocity: 80
@13041 Channel: 4 Note off, D2 key=38 velocity: 100
@13043 Channel: 4 Note off, D3 key=50 velocity: 92
@13048 Channel: 4 Note off, A4 key=69 velocity: 84
@13053 Channel: 4 Note off, D4 key=62 velocity: 80
@13204 Channel: 4 Note on, D4 key=62 velocity: 70
@13204 Channel: 4 Note on, A4 key=69 velocity: 74
@13256 Channel: 4 Note off, A4 key=69 velocity: 74
@13264 Channel: 4 Note off, D4 key=62 velocity: 70
@13323 Channel: 4 Note on, D4 key=62 velocity: 64
@13323 Channel: 4 Note on, A4 key=69 velocity: 69
@13366 Channel: 4 Note off, A4 key=69 velocity: 69
@13375 Channel: 4 Note off, D4 key=62 velocity: 64
@13429 Channel: 4 Note on, D2 key=38 velocity: 83
@13433 Channel: 4 Note on, D3 key=50 velocity: 70
@13442 Channel: 4 Note on, A4 key=69 velocity: 81
@13443 Channel: 4 Note on, D4 key=62 velocity: 75
@13479 Channel: 4 Note off, D3 key=50 velocity: 70
@13484 Channel: 4 Note off, D2 key=38 velocity: 83
@13497 Channel: 4 Note off, A4 key=69 velocity: 81
@13499 Channel: 4 Note off, D4 key=62 velocity: 75
@13682 Channel: 4 Note on, D4 key=62 velocity: 69
@13682 Channel: 4 Note on, A4 key=69 velocity: 73
@13730 Channel: 4 Note off, A4 key=69 velocity: 73
@13740 Channel: 4 Note off, D4 key=62 velocity: 69
@13802 Channel: 4 Note on, D4 key=62 velocity: 59
@13804 Channel: 4 Note on, A4 key=69 velocity: 66
@13843 Channel: 4 Note off, A4 key=69 velocity: 66
@13853 Channel: 4 Note off, D4 key=62 velocity: 59
@13903 Channel: 4 Note on, D2 key=38 velocity: 84
@13906 Channel: 4 Note on, D3 key=50 velocity: 78
@13922 Channel: 4 Note on, A4 key=69 velocity: 62
@13925 Channel: 4 Note on, D4 key=62 velocity: 69
@13960 Channel: 4 Note off, D3 key=50 velocity: 78
@13962 Channel: 4 Note off, D2 key=38 velocity: 84
@13970 Channel: 4 Note off, D4 key=62 velocity: 69
@13977 Channel: 4 Note off, A4 key=69 velocity: 62
@14162 Channel: 4 Note on, A4 key=69 velocity: 74
@14164 Channel: 4 Note on, D4 key=62 velocity: 70
@14223 Channel: 4 Note off, A4 key=69 velocity: 74
@14228 Channel: 4 Note off, D4 key=62 velocity: 70
@14399 Channel: 4 Note on, D2 key=38 velocity: 83
@14400 Channel: 4 Note on, A4 key=69 velocity: 83
@14402 Channel: 4 Note on, D4 key=62 velocity: 78
@14409 Channel: 4 Note on, D3 key=50 velocity: 88
@14467 Channel: 4 Note off, D4 key=62 velocity: 78
@14469 Channel: 4 Note off, A4 key=69 velocity: 83
@14470 Channel: 4 Note off, D2 key=38 velocity: 83
@14473 Channel: 4 Note off, D3 key=50 velocity: 88
@14641 Channel: 4 Note on, D4 key=62 velocity: 68
@14641 Channel: 4 Note on, A4 key=69 velocity: 71
@14687 Channel: 4 Note off, A4 key=69 velocity: 71
@14692 Channel: 4 Note off, D4 key=62 velocity: 68
@14759 Channel: 4 Note on, A4 key=69 velocity: 70
@14760 Channel: 4 Note on, D4 key=62 velocity: 64
@14808 Channel: 4 Note off, A4 key=69 velocity: 70
@14810 Channel: 4 Note off, D4 key=62 velocity: 64
@14873 Channel: 4 Note on, D3 key=50 velocity: 91
@14875 Channel: 4 Note on, D2 key=38 velocity: 100
@14880 Channel: 4 Note on, A4 key=69 velocity: 74
@14881 Channel: 4 Note on, D4 key=62 velocity: 72
@14923 Channel: 4 Note off, D3 key=50 velocity: 91
@14925 Channel: 4 Note off, D2 key=38 velocity: 100
@14933 Channel: 4 Note off, D4 key=62 velocity: 72
@14936 Channel: 4 Note off, A4 key=69 velocity: 74
@15121 Channel: 4 Note on, A4 key=69 velocity: 66
@15122 Channel: 4 Note on, D4 key=62 velocity: 62
@15172 Channel: 4 Note off, A4 key=69 velocity: 66
@15174 Channel: 4 Note off, D4 key=62 velocity: 62
@15241 Channel: 4 Note on, A4 key=69 velocity: 62
@15242 Channel: 4 Note on, D4 key=62 velocity: 59
@15281 Channel: 4 Note off, D4 key=62 velocity: 59
@15283 Channel: 4 Note off, A4 key=69 velocity: 62
@15353 Channel: 4 Note on, D2 key=38 velocity: 90
@15358 Channel: 4 Note on, D3 key=50 velocity: 85
@15361 Channel: 4 Note on, A4 key=69 velocity: 72
@15362 Channel: 4 Note on, D4 key=62 velocity: 66
@15404 Channel: 4 Note off, D2 key=38 velocity: 90
@15405 Channel: 4 Note off, D3 key=50 velocity: 85
@15417 Channel: 4 Note off, D4 key=62 velocity: 66
@15417 Channel: 4 Note off, A4 key=69 velocity: 72
@15602 Channel: 4 Note on, A4 key=69 velocity: 75
@15604 Channel: 4 Note on, D4 key=62 velocity: 68
@15661 Channel: 4 Note off, A4 key=69 velocity: 75
@15663 Channel: 4 Note off, D4 key=62 velocity: 68
@15843 Channel: 4 Note on, A4 key=69 velocity: 81
@15843 Channel: 4 Note on, D2 key=38 velocity: 91
@15843 Channel: 4 Note on, D3 key=50 velocity: 80
@15846 Channel: 4 Note on, D4 key=62 velocity: 73
@15888 Channel: 4 Note off, D3 key=50 velocity: 80
@15895 Channel: 4 Note off, D2 key=38 velocity: 91
@15911 Channel: 4 Note off, A4 key=69 velocity: 81
@15914 Channel: 4 Note off, D4 key=62 velocity: 73
@16076 Channel: 4 Note on, A4 key=69 velocity: 68
@16078 Channel: 4 Note on, D4 key=62 velocity: 66
@16130 Channel: 4 Note off, A4 key=69 velocity: 68
@16131 Channel: 4 Note off, D4 key=62 velocity: 66
@16197 Channel: 4 Note on, D4 key=62 velocity: 65
@16197 Channel: 4 Note on, A4 key=69 velocity: 70
@16252 Channel: 4 Note off, A4 key=69 velocity: 70
@16256 Channel: 4 Note off, D4 key=62 velocity: 65
@16307 Channel: 4 Note on, D2 key=38 velocity: 90
@16310 Channel: 4 Note on, D3 key=50 velocity: 83
@16315 Channel: 4 Note on, A4 key=69 velocity: 72
@16316 Channel: 4 Note on, D4 key=62 velocity: 68
@16361 Channel: 4 Note off, D3 key=50 velocity: 83
@16367 Channel: 4 Note off, D2 key=38 velocity: 90
@16374 Channel: 4 Note off, D4 key=62 velocity: 68
@16377 Channel: 4 Note off, A4 key=69 velocity: 72
@16559 Channel: 4 Note on, A4 key=69 velocity: 66
@16562 Channel: 4 Note on, D4 key=62 velocity: 60
@16615 Channel: 4 Note off, D4 key=62 velocity: 60
@16615 Channel: 4 Note off, A4 key=69 velocity: 66
@16682 Channel: 4 Note on, A4 key=69 velocity: 68
@16683 Channel: 4 Note on, D4 key=62 velocity: 60
@16737 Channel: 4 Note off, D4 key=62 velocity: 60
@16741 Channel: 4 Note off, A4 key=69 velocity: 68
@16781 Channel: 4 Note on, D2 key=38 velocity: 88
@16783 Channel: 4 Note on, D3 key=50 velocity: 85
@16800 Channel: 4 Note on, A4 key=69 velocity: 73
@16801 Channel: 4 Note on, D4 key=62 velocity: 67
@16835 Channel: 4 Note off, D3 key=50 velocity: 85
@16841 Channel: 4 Note off, D2 key=38 velocity: 88
@16859 Channel: 4 Note off, D4 key=62 velocity: 67
@16863 Channel: 4 Note off, A4 key=69 velocity: 73
@17043 Channel: 4 Note on, A4 key=69 velocity: 73
@17045 Channel: 4 Note on, D4 key=62 velocity: 68
@17103 Channel: 4 Note off, D4 key=62 velocity: 68
@17106 Channel: 4 Note off, A4 key=69 velocity: 73
@17279 Channel: 4 Note on, G4 key=67 velocity: 86
@17280 Other message: class javax.sound.midi.MetaMessage
@17280 Channel: 4 Note on, C4 key=60 velocity: 79
@17282 Channel: 4 Note on, C3 key=48 velocity: 86
@17283 Channel: 4 Note on, C2 key=36 velocity: 102
@17331 Channel: 4 Note off, C2 key=36 velocity: 102
@17334 Channel: 4 Note off, C3 key=48 velocity: 86
@17344 Channel: 4 Note off, G4 key=67 velocity: 86
@17347 Channel: 4 Note off, C4 key=60 velocity: 79
@17516 Channel: 4 Note on, C4 key=60 velocity: 68
@17516 Channel: 4 Note on, G4 key=67 velocity: 70
@17560 Channel: 4 Note off, G4 key=67 velocity: 70
@17574 Channel: 4 Note off, C4 key=60 velocity: 68
@17635 Channel: 4 Note on, C4 key=60 velocity: 63
@17635 Channel: 4 Note on, G4 key=67 velocity: 68
@17685 Channel: 4 Note off, G4 key=67 velocity: 68
@17691 Channel: 4 Note off, C4 key=60 velocity: 63
@17755 Channel: 4 Note on, G4 key=67 velocity: 80
@17756 Channel: 4 Note on, C4 key=60 velocity: 68
@17760 Channel: 4 Note on, C2 key=36 velocity: 95
@17767 Channel: 4 Note on, C3 key=48 velocity: 79
@17806 Channel: 4 Note off, C4 key=60 velocity: 68
@17811 Channel: 4 Note off, G4 key=67 velocity: 80
@17815 Channel: 4 Note off, C3 key=48 velocity: 79
@17819 Channel: 4 Note off, C2 key=36 velocity: 95
@17997 Channel: 4 Note on, C4 key=60 velocity: 64
@17997 Channel: 4 Note on, G4 key=67 velocity: 70
@18043 Channel: 4 Note off, G4 key=67 velocity: 70
@18049 Channel: 4 Note off, C4 key=60 velocity: 64
@18118 Channel: 4 Note on, C4 key=60 velocity: 60
@18118 Channel: 4 Note on, G4 key=67 velocity: 66
@18164 Channel: 4 Note off, G4 key=67 velocity: 66
@18168 Channel: 4 Note off, C4 key=60 velocity: 60
@18237 Channel: 4 Note on, G4 key=67 velocity: 73
@18238 Channel: 4 Note on, C4 key=60 velocity: 62
@18249 Channel: 4 Note on, C2 key=36 velocity: 84
@18254 Channel: 4 Note on, C3 key=48 velocity: 80
@18289 Channel: 4 Note off, C4 key=60 velocity: 62
@18293 Channel: 4 Note off, G4 key=67 velocity: 73
@18347 Channel: 4 Note off, C3 key=48 velocity: 80
@18387 Channel: 4 Note off, C2 key=36 velocity: 84
@18476 Channel: 4 Note on, G4 key=67 velocity: 66
@18477 Channel: 4 Note on, C4 key=60 velocity: 59
@18533 Channel: 4 Note off, G4 key=67 velocity: 66
@18537 Channel: 4 Note off, C4 key=60 velocity: 59
@18720 Other message: class javax.sound.midi.MetaMessage
@18720 Channel: 4 Note on, F3 key=53 velocity: 92
@18724 Channel: 4 Note on, C5 key=72 velocity: 84
@18724 Channel: 4 Note on, F2 key=41 velocity: 100
@18725 Channel: 4 Note on, F4 key=65 velocity: 80
@18801 Channel: 4 Note off, F2 key=41 velocity: 100
@18803 Channel: 4 Note off, F3 key=53 velocity: 92
@18808 Channel: 4 Note off, C5 key=72 velocity: 84
@18813 Channel: 4 Note off, F4 key=65 velocity: 80
@18964 Channel: 4 Note on, F4 key=65 velocity: 70
@18964 Channel: 4 Note on, C5 key=72 velocity: 74
@19016 Channel: 4 Note off, C5 key=72 velocity: 74
@19024 Channel: 4 Note off, F4 key=65 velocity: 70
@19083 Channel: 4 Note on, F4 key=65 velocity: 64
@19083 Channel: 4 Note on, C5 key=72 velocity: 69
@19126 Channel: 4 Note off, C5 key=72 velocity: 69
@19135 Channel: 4 Note off, F4 key=65 velocity: 64
@19202 Channel: 4 Note on, C5 key=72 velocity: 81
@19203 Channel: 4 Note on, F4 key=65 velocity: 75
@19217 Channel: 4 Note on, F2 key=41 velocity: 81
@19218 Channel: 4 Note on, F3 key=53 velocity: 73
@19257 Channel: 4 Note off, C5 key=72 velocity: 81
@19259 Channel: 4 Note off, F4 key=65 velocity: 75
@19296 Channel: 4 Note off, F3 key=53 velocity: 73
@19307 Channel: 4 Note off, F2 key=41 velocity: 81
@19442 Channel: 4 Note on, F4 key=65 velocity: 69
@19442 Channel: 4 Note on, C5 key=72 velocity: 73
@19490 Channel: 4 Note off, C5 key=72 velocity: 73
@19500 Channel: 4 Note off, F4 key=65 velocity: 69
@19562 Channel: 4 Note on, F4 key=65 velocity: 59
@19564 Channel: 4 Note on, C5 key=72 velocity: 66
@19603 Channel: 4 Note off, C5 key=72 velocity: 66
@19613 Channel: 4 Note off, F4 key=65 velocity: 59
@19682 Channel: 4 Note on, C5 key=72 velocity: 62
@19685 Channel: 4 Note on, F4 key=65 velocity: 69
@19707 Channel: 4 Note on, F2 key=41 velocity: 95
@19707 Channel: 4 Note on, F3 key=53 velocity: 90
@19730 Channel: 4 Note off, F4 key=65 velocity: 69
@19737 Channel: 4 Note off, C5 key=72 velocity: 62
@19772 Channel: 4 Note off, F3 key=53 velocity: 90
@19791 Channel: 4 Note off, F2 key=41 velocity: 95
@19922 Channel: 4 Note on, C5 key=72 velocity: 74
@19924 Channel: 4 Note on, F4 key=65 velocity: 70
@19983 Channel: 4 Note off, C5 key=72 velocity: 74
@19988 Channel: 4 Note off, F4 key=65 velocity: 70
@20159 Channel: 4 Note on, G4 key=67 velocity: 86
@20160 Other message: class javax.sound.midi.MetaMessage
@20160 Channel: 4 Note on, C4 key=60 velocity: 79
@20162 Channel: 4 Note on, C3 key=48 velocity: 86
@20163 Channel: 4 Note on, C2 key=36 velocity: 102
@20211 Channel: 4 Note off, C2 key=36 velocity: 102
@20214 Channel: 4 Note off, C3 key=48 velocity: 86
@20224 Channel: 4 Note off, G4 key=67 velocity: 86
@20227 Channel: 4 Note off, C4 key=60 velocity: 79
@20396 Channel: 4 Note on, C4 key=60 velocity: 68
@20396 Channel: 4 Note on, G4 key=67 velocity: 70
@20440 Channel: 4 Note off, G4 key=67 velocity: 70
@20454 Channel: 4 Note off, C4 key=60 velocity: 68
@20515 Channel: 4 Note on, C4 key=60 velocity: 63
@20515 Channel: 4 Note on, G4 key=67 velocity: 68
@20565 Channel: 4 Note off, G4 key=67 velocity: 68
@20571 Channel: 4 Note off, C4 key=60 velocity: 63
@20635 Channel: 4 Note on, G4 key=67 velocity: 80
@20636 Channel: 4 Note on, C4 key=60 velocity: 68
@20648 Channel: 4 Note on, C3 key=48 velocity: 73
@20650 Channel: 4 Note on, C2 key=36 velocity: 75
@20686 Channel: 4 Note off, C4 key=60 velocity: 68
@20691 Channel: 4 Note off, G4 key=67 velocity: 80
@20724 Channel: 4 Note off, C3 key=48 velocity: 73
@20754 Channel: 4 Note off, C2 key=36 velocity: 75
@20877 Channel: 4 Note on, C4 key=60 velocity: 64
@20877 Channel: 4 Note on, G4 key=67 velocity: 70
@20923 Channel: 4 Note off, G4 key=67 velocity: 70
@20929 Channel: 4 Note off, C4 key=60 velocity: 64
@20998 Channel: 4 Note on, C4 key=60 velocity: 60
@20998 Channel: 4 Note on, G4 key=67 velocity: 66
@21044 Channel: 4 Note off, G4 key=67 velocity: 66
@21048 Channel: 4 Note off, C4 key=60 velocity: 60
@21117 Channel: 4 Note on, G4 key=67 velocity: 73
@21118 Channel: 4 Note on, C4 key=60 velocity: 62
@21127 Channel: 4 Note on, C2 key=36 velocity: 81
@21129 Channel: 4 Note on, C3 key=48 velocity: 73
@21169 Channel: 4 Note off, C4 key=60 velocity: 62
@21173 Channel: 4 Note off, G4 key=67 velocity: 73
@21215 Channel: 4 Note off, C3 key=48 velocity: 73
@21228 Channel: 4 Note off, C2 key=36 velocity: 81
@21356 Channel: 4 Note on, G4 key=67 velocity: 66
@21357 Channel: 4 Note on, C4 key=60 velocity: 59
@21413 Channel: 4 Note off, G4 key=67 velocity: 66
@21417 Channel: 4 Note off, C4 key=60 velocity: 59
@21600 Other message: class javax.sound.midi.MetaMessage
@21603 Channel: 4 Note on, F4 key=65 velocity: 81
@21603 Channel: 4 Note on, A#1 key=34 velocity: 91
@21603 Channel: 4 Note on, A#2 key=46 velocity: 80
@21606 Channel: 4 Note on, A#3 key=58 velocity: 73
@21648 Channel: 4 Note off, A#2 key=46 velocity: 80
@21655 Channel: 4 Note off, A#1 key=34 velocity: 91
@21671 Channel: 4 Note off, F4 key=65 velocity: 81
@21674 Channel: 4 Note off, A#3 key=58 velocity: 73
@21836 Channel: 4 Note on, F4 key=65 velocity: 68
@21838 Channel: 4 Note on, A#3 key=58 velocity: 66
@21890 Channel: 4 Note off, F4 key=65 velocity: 68
@21891 Channel: 4 Note off, A#3 key=58 velocity: 66
@21957 Channel: 4 Note on, A#3 key=58 velocity: 65
@21957 Channel: 4 Note on, F4 key=65 velocity: 70
@22012 Channel: 4 Note off, F4 key=65 velocity: 70
@22016 Channel: 4 Note off, A#3 key=58 velocity: 65
@22075 Channel: 4 Note on, F4 key=65 velocity: 72
@22076 Channel: 4 Note on, A#3 key=58 velocity: 68
@22081 Channel: 4 Note on, A#2 key=46 velocity: 82
@22084 Channel: 4 Note on, A#1 key=34 velocity: 84
@22134 Channel: 4 Note off, A#3 key=58 velocity: 68
@22137 Channel: 4 Note off, F4 key=65 velocity: 72
@22148 Channel: 4 Note off, A#2 key=46 velocity: 82
@22153 Channel: 4 Note off, A#1 key=34 velocity: 84
@22319 Channel: 4 Note on, F4 key=65 velocity: 66
@22322 Channel: 4 Note on, A#3 key=58 velocity: 60
@22375 Channel: 4 Note off, A#3 key=58 velocity: 60
@22375 Channel: 4 Note off, F4 key=65 velocity: 66
@22442 Channel: 4 Note on, F4 key=65 velocity: 68
@22443 Channel: 4 Note on, A#3 key=58 velocity: 60
@22497 Channel: 4 Note off, A#3 key=58 velocity: 60
@22501 Channel: 4 Note off, F4 key=65 velocity: 68
@22557 Channel: 4 Note on, A#2 key=46 velocity: 89
@22560 Channel: 4 Note on, F4 key=65 velocity: 73
@22561 Channel: 4 Note on, A#1 key=34 velocity: 87
@22561 Channel: 4 Note on, A#3 key=58 velocity: 67
@22619 Channel: 4 Note off, A#3 key=58 velocity: 67
@22623 Channel: 4 Note off, A#2 key=46 velocity: 89
@22623 Channel: 4 Note off, F4 key=65 velocity: 73
@22634 Channel: 4 Note off, A#1 key=34 velocity: 87
@22803 Channel: 4 Note on, F4 key=65 velocity: 73
@22805 Channel: 4 Note on, A#3 key=58 velocity: 68
@22863 Channel: 4 Note off, A#3 key=58 velocity: 68
@22866 Channel: 4 Note off, F4 key=65 velocity: 73
@23039 Channel: 4 Note on, E4 key=64 velocity: 86
@23040 Other message: class javax.sound.midi.MetaMessage
@23040 Channel: 4 Note on, A3 key=57 velocity: 79
@23042 Channel: 4 Note on, A2 key=45 velocity: 86
@23043 Channel: 4 Note on, A1 key=33 velocity: 102
@23091 Channel: 4 Note off, A1 key=33 velocity: 102
@23094 Channel: 4 Note off, A2 key=45 velocity: 86
@23104 Channel: 4 Note off, E4 key=64 velocity: 86
@23107 Channel: 4 Note off, A3 key=57 velocity: 79
@23276 Channel: 4 Note on, A3 key=57 velocity: 68
@23276 Channel: 4 Note on, E4 key=64 velocity: 70
@23320 Channel: 4 Note off, E4 key=64 velocity: 70
@23334 Channel: 4 Note off, A3 key=57 velocity: 68
@23395 Channel: 4 Note on, A3 key=57 velocity: 63
@23395 Channel: 4 Note on, E4 key=64 velocity: 68
@23445 Channel: 4 Note off, E4 key=64 velocity: 68
@23451 Channel: 4 Note off, A3 key=57 velocity: 63
@23515 Channel: 4 Note on, E4 key=64 velocity: 80
@23516 Channel: 4 Note on, A3 key=57 velocity: 68
@23523 Channel: 4 Note on, A2 key=45 velocity: 80
@23527 Channel: 4 Note on, A1 key=33 velocity: 86
@23566 Channel: 4 Note off, A3 key=57 velocity: 68
@23571 Channel: 4 Note off, E4 key=64 velocity: 80
@23588 Channel: 4 Note off, A2 key=45 velocity: 80
@23605 Channel: 4 Note off, A1 key=33 velocity: 86
@23757 Channel: 4 Note on, A3 key=57 velocity: 64
@23757 Channel: 4 Note on, E4 key=64 velocity: 70
@23803 Channel: 4 Note off, E4 key=64 velocity: 70
@23809 Channel: 4 Note off, A3 key=57 velocity: 64
@23878 Channel: 4 Note on, A3 key=57 velocity: 60
@23878 Channel: 4 Note on, E4 key=64 velocity: 66
@23924 Channel: 4 Note off, E4 key=64 velocity: 66
@23928 Channel: 4 Note off, A3 key=57 velocity: 60
@23986 Channel: 4 Note on, A2 key=45 velocity: 80
@23989 Channel: 4 Note on, A1 key=33 velocity: 98
@23997 Channel: 4 Note on, E4 key=64 velocity: 73
@23998 Channel: 4 Note on, A3 key=57 velocity: 62
@24049 Channel: 4 Note off, A2 key=45 velocity: 80
@24049 Channel: 4 Note off, A3 key=57 velocity: 62
@24050 Channel: 4 Note off, A1 key=33 velocity: 98
@24053 Channel: 4 Note off, E4 key=64 velocity: 73
@24236 Channel: 4 Note on, E4 key=64 velocity: 66
@24237 Channel: 4 Note on, A3 key=57 velocity: 59
@24293 Channel: 4 Note off, E4 key=64 velocity: 66
@24297 Channel: 4 Note off, A3 key=57 velocity: 59
@24479 Channel: 4 Note on, E4 key=64 velocity: 86
@24480 Channel: 4 Note on, A3 key=57 velocity: 79
@24482 Channel: 4 Note on, A2 key=45 velocity: 86
@24483 Channel: 4 Note on, A1 key=33 velocity: 102
@24531 Channel: 4 Note off, A1 key=33 velocity: 102
@24534 Channel: 4 Note off, A2 key=45 velocity: 86
@24544 Channel: 4 Note off, E4 key=64 velocity: 86
@24547 Channel: 4 Note off, A3 key=57 velocity: 79
@24716 Channel: 4 Note on, A3 key=57 velocity: 68
@24716 Channel: 4 Note on, E4 key=64 velocity: 70
@24760 Channel: 4 Note off, E4 key=64 velocity: 70
@24774 Channel: 4 Note off, A3 key=57 velocity: 68
@24835 Channel: 4 Note on, A3 key=57 velocity: 63
@24835 Channel: 4 Note on, E4 key=64 velocity: 68
@24885 Channel: 4 Note off, E4 key=64 velocity: 68
@24891 Channel: 4 Note off, A3 key=57 velocity: 63
@24946 Channel: 4 Note on, A1 key=33 velocity: 79
@24948 Channel: 4 Note on, A2 key=45 velocity: 72
@24955 Channel: 4 Note on, E4 key=64 velocity: 80
@24956 Channel: 4 Note on, A3 key=57 velocity: 68
@25006 Channel: 4 Note off, A3 key=57 velocity: 68
@25011 Channel: 4 Note off, E4 key=64 velocity: 80
@25025 Channel: 4 Note off, A2 key=45 velocity: 72
@25039 Channel: 4 Note off, A1 key=33 velocity: 79
@25197 Channel: 4 Note on, A3 key=57 velocity: 64
@25197 Channel: 4 Note on, E4 key=64 velocity: 70
@25243 Channel: 4 Note off, E4 key=64 velocity: 70
@25249 Channel: 4 Note off, A3 key=57 velocity: 64
@25318 Channel: 4 Note on, A3 key=57 velocity: 60
@25318 Channel: 4 Note on, E4 key=64 velocity: 66
@25364 Channel: 4 Note off, E4 key=64 velocity: 66
@25368 Channel: 4 Note off, A3 key=57 velocity: 60
@25435 Channel: 4 Note on, A1 key=33 velocity: 92
@25437 Channel: 4 Note on, E4 key=64 velocity: 73
@25438 Channel: 4 Note on, A3 key=57 velocity: 62
@25441 Channel: 4 Note on, A2 key=45 velocity: 92
@25489 Channel: 4 Note off, A3 key=57 velocity: 62
@25493 Channel: 4 Note off, E4 key=64 velocity: 73
@25499 Channel: 4 Note off, A2 key=45 velocity: 92
@25502 Channel: 4 Note off, A1 key=33 velocity: 92
@25676 Channel: 4 Note on, E4 key=64 velocity: 66
@25677 Channel: 4 Note on, A3 key=57 velocity: 59
@25733 Channel: 4 Note off, E4 key=64 velocity: 66
@25737 Channel: 4 Note off, A3 key=57 velocity: 59
@25920 Other message: class javax.sound.midi.MetaMessage
@25920 Channel: 4 Note on, D3 key=50 velocity: 92
@25924 Channel: 4 Note on, A4 key=69 velocity: 84
@25924 Channel: 4 Note on, D2 key=38 velocity: 100
@25925 Channel: 4 Note on, D4 key=62 velocity: 80
@26001 Channel: 4 Note off, D2 key=38 velocity: 100
@26003 Channel: 4 Note off, D3 key=50 velocity: 92
@26008 Channel: 4 Note off, A4 key=69 velocity: 84
@26013 Channel: 4 Note off, D4 key=62 velocity: 80
@26164 Channel: 4 Note on, D4 key=62 velocity: 70
@26164 Channel: 4 Note on, A4 key=69 velocity: 74
@26216 Channel: 4 Note off, A4 key=69 velocity: 74
@26224 Channel: 4 Note off, D4 key=62 velocity: 70
@26283 Channel: 4 Note on, D4 key=62 velocity: 64
@26283 Channel: 4 Note on, A4 key=69 velocity: 69
@26326 Channel: 4 Note off, A4 key=69 velocity: 69
@26335 Channel: 4 Note off, D4 key=62 velocity: 64
@26389 Channel: 4 Note on, D2 key=38 velocity: 83
@26393 Channel: 4 Note on, D3 key=50 velocity: 70
@26402 Channel: 4 Note on, A4 key=69 velocity: 81
@26403 Channel: 4 Note on, D4 key=62 velocity: 75
@26439 Channel: 4 Note off, D3 key=50 velocity: 70
@26444 Channel: 4 Note off, D2 key=38 velocity: 83
@26457 Channel: 4 Note off, A4 key=69 velocity: 81
@26459 Channel: 4 Note off, D4 key=62 velocity: 75
@26642 Channel: 4 Note on, D4 key=62 velocity: 69
@26642 Channel: 4 Note on, A4 key=69 velocity: 73
@26690 Channel: 4 Note off, A4 key=69 velocity: 73
@26700 Channel: 4 Note off, D4 key=62 velocity: 69
@26762 Channel: 4 Note on, D4 key=62 velocity: 59
@26764 Channel: 4 Note on, A4 key=69 velocity: 66
@26803 Channel: 4 Note off, A4 key=69 velocity: 66
@26813 Channel: 4 Note off, D4 key=62 velocity: 59
@26863 Channel: 4 Note on, D2 key=38 velocity: 84
@26866 Channel: 4 Note on, D3 key=50 velocity: 78
@26882 Channel: 4 Note on, A4 key=69 velocity: 62
@26885 Channel: 4 Note on, D4 key=62 velocity: 69
@26920 Channel: 4 Note off, D3 key=50 velocity: 78
@26922 Channel: 4 Note off, D2 key=38 velocity: 84
@26930 Channel: 4 Note off, D4 key=62 velocity: 69
@26937 Channel: 4 Note off, A4 key=69 velocity: 62
@27122 Channel: 4 Note on, A4 key=69 velocity: 74
@27124 Channel: 4 Note on, D4 key=62 velocity: 70
@27183 Channel: 4 Note off, A4 key=69 velocity: 74
@27188 Channel: 4 Note off, D4 key=62 velocity: 70
@27359 Channel: 4 Note on, D2 key=38 velocity: 83
@27360 Channel: 4 Note on, A4 key=69 velocity: 83
@27362 Channel: 4 Note on, D4 key=62 velocity: 78
@27369 Channel: 4 Note on, D3 key=50 velocity: 88
@27427 Channel: 4 Note off, D4 key=62 velocity: 78
@27429 Channel: 4 Note off, A4 key=69 velocity: 83
@27430 Channel: 4 Note off, D2 key=38 velocity: 83
@27433 Channel: 4 Note off, D3 key=50 velocity: 88
@27601 Channel: 4 Note on, D4 key=62 velocity: 68
@27601 Channel: 4 Note on, A4 key=69 velocity: 71
@27647 Channel: 4 Note off, A4 key=69 velocity: 71
@27652 Channel: 4 Note off, D4 key=62 velocity: 68
@27719 Channel: 4 Note on, A4 key=69 velocity: 70
@27720 Channel: 4 Note on, D4 key=62 velocity: 64
@27768 Channel: 4 Note off, A4 key=69 velocity: 70
@27770 Channel: 4 Note off, D4 key=62 velocity: 64
@27833 Channel: 4 Note on, D3 key=50 velocity: 91
@27835 Channel: 4 Note on, D2 key=38 velocity: 100
@27840 Channel: 4 Note on, A4 key=69 velocity: 74
@27841 Channel: 4 Note on, D4 key=62 velocity: 72
@27883 Channel: 4 Note off, D3 key=50 velocity: 91
@27885 Channel: 4 Note off, D2 key=38 velocity: 100
@27893 Channel: 4 Note off, D4 key=62 velocity: 72
@27896 Channel: 4 Note off, A4 key=69 velocity: 74
@28081 Channel: 4 Note on, A4 key=69 velocity: 66
@28082 Channel: 4 Note on, D4 key=62 velocity: 62
@28132 Channel: 4 Note off, A4 key=69 velocity: 66
@28134 Channel: 4 Note off, D4 key=62 velocity: 62
@28201 Channel: 4 Note on, A4 key=69 velocity: 62
@28202 Channel: 4 Note on, D4 key=62 velocity: 59
@28241 Channel: 4 Note off, D4 key=62 velocity: 59
@28243 Channel: 4 Note off, A4 key=69 velocity: 62
@28313 Channel: 4 Note on, D2 key=38 velocity: 90
@28318 Channel: 4 Note on, D3 key=50 velocity: 85
@28321 Channel: 4 Note on, A4 key=69 velocity: 72
@28322 Channel: 4 Note on, D4 key=62 velocity: 66
@28364 Channel: 4 Note off, D2 key=38 velocity: 90
@28365 Channel: 4 Note off, D3 key=50 velocity: 85
@28377 Channel: 4 Note off, D4 key=62 velocity: 66
@28377 Channel: 4 Note off, A4 key=69 velocity: 72
@28562 Channel: 4 Note on, A4 key=69 velocity: 75
@28564 Channel: 4 Note on, D4 key=62 velocity: 68
@28621 Channel: 4 Note off, A4 key=69 velocity: 75
@28623 Channel: 4 Note off, D4 key=62 velocity: 68
@28803 Channel: 4 Note on, A4 key=69 velocity: 81
@28803 Channel: 4 Note on, D2 key=38 velocity: 91
@28803 Channel: 4 Note on, D3 key=50 velocity: 80
@28806 Channel: 4 Note on, D4 key=62 velocity: 73
@28848 Channel: 4 Note off, D3 key=50 velocity: 80
@28855 Channel: 4 Note off, D2 key=38 velocity: 91
@28871 Channel: 4 Note off, A4 key=69 velocity: 81
@28874 Channel: 4 Note off, D4 key=62 velocity: 73
@29036 Channel: 4 Note on, A4 key=69 velocity: 68
@29038 Channel: 4 Note on, D4 key=62 velocity: 66
@29090 Channel: 4 Note off, A4 key=69 velocity: 68
@29091 Channel: 4 Note off, D4 key=62 velocity: 66
@29157 Channel: 4 Note on, D4 key=62 velocity: 65
@29157 Channel: 4 Note on, A4 key=69 velocity: 70
@29212 Channel: 4 Note off, A4 key=69 velocity: 70
@29216 Channel: 4 Note off, D4 key=62 velocity: 65
@29267 Channel: 4 Note on, D2 key=38 velocity: 90
@29270 Channel: 4 Note on, D3 key=50 velocity: 83
@29275 Channel: 4 Note on, A4 key=69 velocity: 72
@29276 Channel: 4 Note on, D4 key=62 velocity: 68
@29321 Channel: 4 Note off, D3 key=50 velocity: 83
@29327 Channel: 4 Note off, D2 key=38 velocity: 90
@29334 Channel: 4 Note off, D4 key=62 velocity: 68
@29337 Channel: 4 Note off, A4 key=69 velocity: 72
@29519 Channel: 4 Note on, A4 key=69 velocity: 66
@29522 Channel: 4 Note on, D4 key=62 velocity: 60
@29575 Channel: 4 Note off, D4 key=62 velocity: 60
@29575 Channel: 4 Note off, A4 key=69 velocity: 66
@29642 Channel: 4 Note on, A4 key=69 velocity: 68
@29643 Channel: 4 Note on, D4 key=62 velocity: 60
@29697 Channel: 4 Note off, D4 key=62 velocity: 60
@29701 Channel: 4 Note off, A4 key=69 velocity: 68
@29741 Channel: 4 Note on, D2 key=38 velocity: 88
@29743 Channel: 4 Note on, D3 key=50 velocity: 85
@29760 Channel: 4 Note on, A4 key=69 velocity: 73
@29761 Channel: 4 Note on, D4 key=62 velocity: 67
@29795 Channel: 4 Note off, D3 key=50 velocity: 85
@29801 Channel: 4 Note off, D2 key=38 velocity: 88
@29819 Channel: 4 Note off, D4 key=62 velocity: 67
@29823 Channel: 4 Note off, A4 key=69 velocity: 73
@30003 Channel: 4 Note on, A4 key=69 velocity: 73
@30005 Channel: 4 Note on, D4 key=62 velocity: 68
@30063 Channel: 4 Note off, D4 key=62 velocity: 68
@30066 Channel: 4 Note off, A4 key=69 velocity: 73
@30239 Channel: 4 Note on, G4 key=67 velocity: 86
@30240 Channel: 4 Note on, C4 key=60 velocity: 79
@30242 Channel: 4 Note on, C3 key=48 velocity: 86
@30243 Channel: 4 Note on, C2 key=36 velocity: 102
@30291 Channel: 4 Note off, C2 key=36 velocity: 102
@30294 Channel: 4 Note off, C3 key=48 velocity: 86
@30304 Channel: 4 Note off, G4 key=67 velocity: 86
@30307 Channel: 4 Note off, C4 key=60 velocity: 79
@30476 Channel: 4 Note on, C4 key=60 velocity: 68
@30476 Channel: 4 Note on, G4 key=67 velocity: 70
@30520 Channel: 4 Note off, G4 key=67 velocity: 70
@30534 Channel: 4 Note off, C4 key=60 velocity: 68
@30595 Channel: 4 Note on, C4 key=60 velocity: 63
@30595 Channel: 4 Note on, G4 key=67 velocity: 68
@30645 Channel: 4 Note off, G4 key=67 velocity: 68
@30651 Channel: 4 Note off, C4 key=60 velocity: 63
@30715 Channel: 4 Note on, G4 key=67 velocity: 80
@30716 Channel: 4 Note on, C4 key=60 velocity: 68
@30720 Channel: 4 Note on, C2 key=36 velocity: 95
@30727 Channel: 4 Note on, C3 key=48 velocity: 79
@30766 Channel: 4 Note off, C4 key=60 velocity: 68
@30771 Channel: 4 Note off, G4 key=67 velocity: 80
@30775 Channel: 4 Note off, C3 key=48 velocity: 79
@30779 Channel: 4 Note off, C2 key=36 velocity: 95
@30957 Channel: 4 Note on, C4 key=60 velocity: 64
@30957 Channel: 4 Note on, G4 key=67 velocity: 70
@31003 Channel: 4 Note off, G4 key=67 velocity: 70
@31009 Channel: 4 Note off, C4 key=60 velocity: 64
@31078 Channel: 4 Note on, C4 key=60 velocity: 60
@31078 Channel: 4 Note on, G4 key=67 velocity: 66
@31124 Channel: 4 Note off, G4 key=67 velocity: 66
@31128 Channel: 4 Note off, C4 key=60 velocity: 60
@31197 Channel: 4 Note on, G4 key=67 velocity: 73
@31198 Channel: 4 Note on, C4 key=60 velocity: 62
@31209 Channel: 4 Note on, C2 key=36 velocity: 84
@31214 Channel: 4 Note on, C3 key=48 velocity: 80
@31249 Channel: 4 Note off, C4 key=60 velocity: 62
@31253 Channel: 4 Note off, G4 key=67 velocity: 73
@31307 Channel: 4 Note off, C3 key=48 velocity: 80
@31347 Channel: 4 Note off, C2 key=36 velocity: 84
@31436 Channel: 4 Note on, G4 key=67 velocity: 66
@31437 Channel: 4 Note on, C4 key=60 velocity: 59
@31493 Channel: 4 Note off, G4 key=67 velocity: 66
@31497 Channel: 4 Note off, C4 key=60 velocity: 59
@31680 Channel: 4 Note on, F3 key=53 velocity: 92
@31684 Channel: 4 Note on, C5 key=72 velocity: 84
@31684 Channel: 4 Note on, F2 key=41 velocity: 100
@31685 Channel: 4 Note on, F4 key=65 velocity: 80
@31761 Channel: 4 Note off, F2 key=41 velocity: 100
@31763 Channel: 4 Note off, F3 key=53 velocity: 92
@31768 Channel: 4 Note off, C5 key=72 velocity: 84
@31773 Channel: 4 Note off, F4 key=65 velocity: 80
@31924 Channel: 4 Note on, F4 key=65 velocity: 70
@31924 Channel: 4 Note on, C5 key=72 velocity: 74
@31976 Channel: 4 Note off, C5 key=72 velocity: 74
@31984 Channel: 4 Note off, F4 key=65 velocity: 70
@32043 Channel: 4 Note on, F4 key=65 velocity: 64
@32043 Channel: 4 Note on, C5 key=72 velocity: 69
@32086 Channel: 4 Note off, C5 key=72 velocity: 69
@32095 Channel: 4 Note off, F4 key=65 velocity: 64
@32162 Channel: 4 Note on, C5 key=72 velocity: 81
@32163 Channel: 4 Note on, F4 key=65 velocity: 75
@32177 Channel: 4 Note on, F2 key=41 velocity: 81
@32178 Channel: 4 Note on, F3 key=53 velocity: 73
@32217 Channel: 4 Note off, C5 key=72 velocity: 81
@32219 Channel: 4 Note off, F4 key=65 velocity: 75
@32256 Channel: 4 Note off, F3 key=53 velocity: 73
@32267 Channel: 4 Note off, F2 key=41 velocity: 81
@32402 Channel: 4 Note on, F4 key=65 velocity: 69
@32402 Channel: 4 Note on, C5 key=72 velocity: 73
@32450 Channel: 4 Note off, C5 key=72 velocity: 73
@32460 Channel: 4 Note off, F4 key=65 velocity: 69
@32522 Channel: 4 Note on, F4 key=65 velocity: 59
@32524 Channel: 4 Note on, C5 key=72 velocity: 66
@32563 Channel: 4 Note off, C5 key=72 velocity: 66
@32573 Channel: 4 Note off, F4 key=65 velocity: 59
@32642 Channel: 4 Note on, C5 key=72 velocity: 62
@32645 Channel: 4 Note on, F4 key=65 velocity: 69
@32667 Channel: 4 Note on, F2 key=41 velocity: 95
@32667 Channel: 4 Note on, F3 key=53 velocity: 90
@32690 Channel: 4 Note off, F4 key=65 velocity: 69
@32697 Channel: 4 Note off, C5 key=72 velocity: 62
@32732 Channel: 4 Note off, F3 key=53 velocity: 90
@32751 Channel: 4 Note off, F2 key=41 velocity: 95
@32882 Channel: 4 Note on, C5 key=72 velocity: 74
@32884 Channel: 4 Note on, F4 key=65 velocity: 70
@32943 Channel: 4 Note off, C5 key=72 velocity: 74
@32948 Channel: 4 Note off, F4 key=65 velocity: 70
@33119 Channel: 4 Note on, G4 key=67 velocity: 86
@33120 Channel: 4 Note on, C4 key=60 velocity: 79
@33122 Channel: 4 Note on, C3 key=48 velocity: 86
@33123 Channel: 4 Note on, C2 key=36 velocity: 102
@33171 Channel: 4 Note off, C2 key=36 velocity: 102
@33174 Channel: 4 Note off, C3 key=48 velocity: 86
@33184 Channel: 4 Note off, G4 key=67 velocity: 86
@33187 Channel: 4 Note off, C4 key=60 velocity: 79
@33356 Channel: 4 Note on, C4 key=60 velocity: 68
@33356 Channel: 4 Note on, G4 key=67 velocity: 70
@33400 Channel: 4 Note off, G4 key=67 velocity: 70
@33414 Channel: 4 Note off, C4 key=60 velocity: 68
@33475 Channel: 4 Note on, C4 key=60 velocity: 63
@33475 Channel: 4 Note on, G4 key=67 velocity: 68
@33525 Channel: 4 Note off, G4 key=67 velocity: 68
@33531 Channel: 4 Note off, C4 key=60 velocity: 63
@33595 Channel: 4 Note on, G4 key=67 velocity: 80
@33596 Channel: 4 Note on, C4 key=60 velocity: 68
@33608 Channel: 4 Note on, C3 key=48 velocity: 73
@33610 Channel: 4 Note on, C2 key=36 velocity: 75
@33646 Channel: 4 Note off, C4 key=60 velocity: 68
@33651 Channel: 4 Note off, G4 key=67 velocity: 80
@33684 Channel: 4 Note off, C3 key=48 velocity: 73
@33714 Channel: 4 Note off, C2 key=36 velocity: 75
@33837 Channel: 4 Note on, C4 key=60 velocity: 64
@33837 Channel: 4 Note on, G4 key=67 velocity: 70
@33883 Channel: 4 Note off, G4 key=67 velocity: 70
@33889 Channel: 4 Note off, C4 key=60 velocity: 64
@33958 Channel: 4 Note on, C4 key=60 velocity: 60
@33958 Channel: 4 Note on, G4 key=67 velocity: 66
@34004 Channel: 4 Note off, G4 key=67 velocity: 66
@34008 Channel: 4 Note off, C4 key=60 velocity: 60
@34077 Channel: 4 Note on, G4 key=67 velocity: 73
@34078 Channel: 4 Note on, C4 key=60 velocity: 62
@34087 Channel: 4 Note on, C2 key=36 velocity: 81
@34089 Channel: 4 Note on, C3 key=48 velocity: 73
@34129 Channel: 4 Note off, C4 key=60 velocity: 62
@34133 Channel: 4 Note off, G4 key=67 velocity: 73
@34175 Channel: 4 Note off, C3 key=48 velocity: 73
@34188 Channel: 4 Note off, C2 key=36 velocity: 81
@34316 Channel: 4 Note on, G4 key=67 velocity: 66
@34317 Channel: 4 Note on, C4 key=60 velocity: 59
@34373 Channel: 4 Note off, G4 key=67 velocity: 66
@34377 Channel: 4 Note off, C4 key=60 velocity: 59
@34563 Channel: 4 Note on, F4 key=65 velocity: 81
@34563 Channel: 4 Note on, A#1 key=34 velocity: 91
@34563 Channel: 4 Note on, A#2 key=46 velocity: 80
@34566 Channel: 4 Note on, A#3 key=58 velocity: 73
@34608 Channel: 4 Note off, A#2 key=46 velocity: 80
@34615 Channel: 4 Note off, A#1 key=34 velocity: 91
@34631 Channel: 4 Note off, F4 key=65 velocity: 81
@34634 Channel: 4 Note off, A#3 key=58 velocity: 73
@34796 Channel: 4 Note on, F4 key=65 velocity: 68
@34798 Channel: 4 Note on, A#3 key=58 velocity: 66
@34850 Channel: 4 Note off, F4 key=65 velocity: 68
@34851 Channel: 4 Note off, A#3 key=58 velocity: 66
@34917 Channel: 4 Note on, A#3 key=58 velocity: 65
@34917 Channel: 4 Note on, F4 key=65 velocity: 70
@34972 Channel: 4 Note off, F4 key=65 velocity: 70
@34976 Channel: 4 Note off, A#3 key=58 velocity: 65
@35035 Channel: 4 Note on, F4 key=65 velocity: 72
@35036 Channel: 4 Note on, A#3 key=58 velocity: 68
@35041 Channel: 4 Note on, A#2 key=46 velocity: 82
@35044 Channel: 4 Note on, A#1 key=34 velocity: 84
@35094 Channel: 4 Note off, A#3 key=58 velocity: 68
@35097 Channel: 4 Note off, F4 key=65 velocity: 72
@35108 Channel: 4 Note off, A#2 key=46 velocity: 82
@35113 Channel: 4 Note off, A#1 key=34 velocity: 84
@35279 Channel: 4 Note on, F4 key=65 velocity: 66
@35282 Channel: 4 Note on, A#3 key=58 velocity: 60
@35335 Channel: 4 Note off, A#3 key=58 velocity: 60
@35335 Channel: 4 Note off, F4 key=65 velocity: 66
@35402 Channel: 4 Note on, F4 key=65 velocity: 68
@35403 Channel: 4 Note on, A#3 key=58 velocity: 60
@35457 Channel: 4 Note off, A#3 key=58 velocity: 60
@35461 Channel: 4 Note off, F4 key=65 velocity: 68
@35517 Channel: 4 Note on, A#2 key=46 velocity: 89
@35520 Channel: 4 Note on, F4 key=65 velocity: 73
@35521 Channel: 4 Note on, A#1 key=34 velocity: 87
@35521 Channel: 4 Note on, A#3 key=58 velocity: 67
@35579 Channel: 4 Note off, A#3 key=58 velocity: 67
@35583 Channel: 4 Note off, A#2 key=46 velocity: 89
@35583 Channel: 4 Note off, F4 key=65 velocity: 73
@35594 Channel: 4 Note off, A#1 key=34 velocity: 87
@35763 Channel: 4 Note on, F4 key=65 velocity: 73
@35765 Channel: 4 Note on, A#3 key=58 velocity: 68
@35823 Channel: 4 Note off, A#3 key=58 velocity: 68
@35826 Channel: 4 Note off, F4 key=65 velocity: 73
@35999 Channel: 4 Note on, E4 key=64 velocity: 86
@36000 Channel: 4 Note on, A3 key=57 velocity: 79
@36002 Channel: 4 Note on, A2 key=45 velocity: 86
@36003 Channel: 4 Note on, A1 key=33 velocity: 102
@36051 Channel: 4 Note off, A1 key=33 velocity: 102
@36054 Channel: 4 Note off, A2 key=45 velocity: 86
@36064 Channel: 4 Note off, E4 key=64 velocity: 86
@36067 Channel: 4 Note off, A3 key=57 velocity: 79
@36236 Channel: 4 Note on, A3 key=57 velocity: 68
@36236 Channel: 4 Note on, E4 key=64 velocity: 70
@36280 Channel: 4 Note off, E4 key=64 velocity: 70
@36294 Channel: 4 Note off, A3 key=57 velocity: 68
@36355 Channel: 4 Note on, A3 key=57 velocity: 63
@36355 Channel: 4 Note on, E4 key=64 velocity: 68
@36405 Channel: 4 Note off, E4 key=64 velocity: 68
@36411 Channel: 4 Note off, A3 key=57 velocity: 63
@36475 Channel: 4 Note on, E4 key=64 velocity: 80
@36476 Channel: 4 Note on, A3 key=57 velocity: 68
@36483 Channel: 4 Note on, A2 key=45 velocity: 80
@36487 Channel: 4 Note on, A1 key=33 velocity: 86
@36526 Channel: 4 Note off, A3 key=57 velocity: 68
@36531 Channel: 4 Note off, E4 key=64 velocity: 80
@36548 Channel: 4 Note off, A2 key=45 velocity: 80
@36565 Channel: 4 Note off, A1 key=33 velocity: 86
@36717 Channel: 4 Note on, A3 key=57 velocity: 64
@36717 Channel: 4 Note on, E4 key=64 velocity: 70
@36763 Channel: 4 Note off, E4 key=64 velocity: 70
@36769 Channel: 4 Note off, A3 key=57 velocity: 64
@36838 Channel: 4 Note on, A3 key=57 velocity: 60
@36838 Channel: 4 Note on, E4 key=64 velocity: 66
@36884 Channel: 4 Note off, E4 key=64 velocity: 66
@36888 Channel: 4 Note off, A3 key=57 velocity: 60
@36946 Channel: 4 Note on, A2 key=45 velocity: 80
@36949 Channel: 4 Note on, A1 key=33 velocity: 98
@36957 Channel: 4 Note on, E4 key=64 velocity: 73
@36958 Channel: 4 Note on, A3 key=57 velocity: 62
@37009 Channel: 4 Note off, A2 key=45 velocity: 80
@37009 Channel: 4 Note off, A3 key=57 velocity: 62
@37010 Channel: 4 Note off, A1 key=33 velocity: 98
@37013 Channel: 4 Note off, E4 key=64 velocity: 73
@37196 Channel: 4 Note on, E4 key=64 velocity: 66
@37197 Channel: 4 Note on, A3 key=57 velocity: 59
@37253 Channel: 4 Note off, E4 key=64 velocity: 66
@37257 Channel: 4 Note off, A3 key=57 velocity: 59
@37440 Channel: 4 Note on, D3 key=50 velocity: 92
@37444 Channel: 4 Note on, A4 key=69 velocity: 84
@37444 Channel: 4 Note on, D2 key=38 velocity: 100
@37445 Channel: 4 Note on, D4 key=62 velocity: 80
@37521 Channel: 4 Note off, D2 key=38 velocity: 100
@37523 Channel: 4 Note off, D3 key=50 velocity: 92
@37528 Channel: 4 Note off, A4 key=69 velocity: 84
@37533 Channel: 4 Note off, D4 key=62 velocity: 80
@37684 Channel: 4 Note on, D4 key=62 velocity: 70
@37684 Channel: 4 Note on, A4 key=69 velocity: 74
@37736 Channel: 4 Note off, A4 key=69 velocity: 74
@37744 Channel: 4 Note off, D4 key=62 velocity: 70
@37803 Channel: 4 Note on, D4 key=62 velocity: 64
@37803 Channel: 4 Note on, A4 key=69 velocity: 69
@37846 Channel: 4 Note off, A4 key=69 velocity: 69
@37855 Channel: 4 Note off, D4 key=62 velocity: 64
@37909 Channel: 4 Note on, D2 key=38 velocity: 83
@37913 Channel: 4 Note on, D3 key=50 velocity: 70
@37922 Channel: 4 Note on, A4 key=69 velocity: 81
@37923 Channel: 4 Note on, D4 key=62 velocity: 75
@37959 Channel: 4 Note off, D3 key=50 velocity: 70
@37964 Channel: 4 Note off, D2 key=38 velocity: 83
@37977 Channel: 4 Note off, A4 key=69 velocity: 81
@37979 Channel: 4 Note off, D4 key=62 velocity: 75
@38162 Channel: 4 Note on, D4 key=62 velocity: 69
@38162 Channel: 4 Note on, A4 key=69 velocity: 73
@38210 Channel: 4 Note off, A4 key=69 velocity: 73
@38220 Channel: 4 Note off, D4 key=62 velocity: 69
@38282 Channel: 4 Note on, D4 key=62 velocity: 59
@38284 Channel: 4 Note on, A4 key=69 velocity: 66
@38323 Channel: 4 Note off, A4 key=69 velocity: 66
@38333 Channel: 4 Note off, D4 key=62 velocity: 59
@38383 Channel: 4 Note on, D2 key=38 velocity: 84
@38386 Channel: 4 Note on, D3 key=50 velocity: 78
@38402 Channel: 4 Note on, A4 key=69 velocity: 62
@38405 Channel: 4 Note on, D4 key=62 velocity: 69
@38440 Channel: 4 Note off, D3 key=50 velocity: 78
@38442 Channel: 4 Note off, D2 key=38 velocity: 84
@38450 Channel: 4 Note off, D4 key=62 velocity: 69
@38457 Channel: 4 Note off, A4 key=69 velocity: 62
@38642 Channel: 4 Note on, A4 key=69 velocity: 74
@38644 Channel: 4 Note on, D4 key=62 velocity: 70
@38703 Channel: 4 Note off, A4 key=69 velocity: 74
@38708 Channel: 4 Note off, D4 key=62 velocity: 70
@38879 Channel: 4 Note on, D2 key=38 velocity: 83
@38880 Channel: 4 Note on, A4 key=69 velocity: 83
@38882 Channel: 4 Note on, D4 key=62 velocity: 78
@38889 Channel: 4 Note on, D3 key=50 velocity: 88
@38947 Channel: 4 Note off, D4 key=62 velocity: 78
@38949 Channel: 4 Note off, A4 key=69 velocity: 83
@38950 Channel: 4 Note off, D2 key=38 velocity: 83
@38953 Channel: 4 Note off, D3 key=50 velocity: 88
@39121 Channel: 4 Note on, D4 key=62 velocity: 68
@39121 Channel: 4 Note on, A4 key=69 velocity: 71
@39167 Channel: 4 Note off, A4 key=69 velocity: 71
@39172 Channel: 4 Note off, D4 key=62 velocity: 68
@39239 Channel: 4 Note on, A4 key=69 velocity: 70
@39240 Channel: 4 Note on, D4 key=62 velocity: 64
@39288 Channel: 4 Note off, A4 key=69 velocity: 70
@39290 Channel: 4 Note off, D4 key=62 velocity: 64
@39353 Channel: 4 Note on, D3 key=50 velocity: 91
@39355 Channel: 4 Note on, D2 key=38 velocity: 100
@39360 Channel: 4 Note on, A4 key=69 velocity: 74
@39361 Channel: 4 Note on, D4 key=62 velocity: 72
@39403 Channel: 4 Note off, D3 key=50 velocity: 91
@39405 Channel: 4 Note off, D2 key=38 velocity: 100
@39413 Channel: 4 Note off, D4 key=62 velocity: 72
@39416 Channel: 4 Note off, A4 key=69 velocity: 74
@39601 Channel: 4 Note on, A4 key=69 velocity: 66
@39602 Channel: 4 Note on, D4 key=62 velocity: 62
@39652 Channel: 4 Note off, A4 key=69 velocity: 66
@39654 Channel: 4 Note off, D4 key=62 velocity: 62
@39721 Channel: 4 Note on, A4 key=69 velocity: 62
@39722 Channel: 4 Note on, D4 key=62 velocity: 59
@39761 Channel: 4 Note off, D4 key=62 velocity: 59
@39763 Channel: 4 Note off, A4 key=69 velocity: 62
@39833 Channel: 4 Note on, D2 key=38 velocity: 90
@39838 Channel: 4 Note on, D3 key=50 velocity: 85
@39841 Channel: 4 Note on, A4 key=69 velocity: 72
@39842 Channel: 4 Note on, D4 key=62 velocity: 66
@39884 Channel: 4 Note off, D2 key=38 velocity: 90
@39885 Channel: 4 Note off, D3 key=50 velocity: 85
@39897 Channel: 4 Note off, D4 key=62 velocity: 66
@39897 Channel: 4 Note off, A4 key=69 velocity: 72
@40082 Channel: 4 Note on, A4 key=69 velocity: 75
@40084 Channel: 4 Note on, D4 key=62 velocity: 68
@40141 Channel: 4 Note off, A4 key=69 velocity: 75
@40143 Channel: 4 Note off, D4 key=62 velocity: 68
@40323 Channel: 4 Note on, A4 key=69 velocity: 81
@40323 Channel: 4 Note on, D2 key=38 velocity: 91
@40323 Channel: 4 Note on, D3 key=50 velocity: 80
@40326 Channel: 4 Note on, D4 key=62 velocity: 73
@40368 Channel: 4 Note off, D3 key=50 velocity: 80
@40375 Channel: 4 Note off, D2 key=38 velocity: 91
@40391 Channel: 4 Note off, A4 key=69 velocity: 81
@40394 Channel: 4 Note off, D4 key=62 velocity: 73
@40556 Channel: 4 Note on, A4 key=69 velocity: 68
@40558 Channel: 4 Note on, D4 key=62 velocity: 66
@40610 Channel: 4 Note off, A4 key=69 velocity: 68
@40611 Channel: 4 Note off, D4 key=62 velocity: 66
@40677 Channel: 4 Note on, D4 key=62 velocity: 65
@40677 Channel: 4 Note on, A4 key=69 velocity: 70
@40732 Channel: 4 Note off, A4 key=69 velocity: 70
@40736 Channel: 4 Note off, D4 key=62 velocity: 65
@40787 Channel: 4 Note on, D2 key=38 velocity: 90
@40790 Channel: 4 Note on, D3 key=50 velocity: 83
@40795 Channel: 4 Note on, A4 key=69 velocity: 72
@40796 Channel: 4 Note on, D4 key=62 velocity: 68
@40841 Channel: 4 Note off, D3 key=50 velocity: 83
@40847 Channel: 4 Note off, D2 key=38 velocity: 90
@40854 Channel: 4 Note off, D4 key=62 velocity: 68
@40857 Channel: 4 Note off, A4 key=69 velocity: 72
@41039 Channel: 4 Note on, A4 key=69 velocity: 66
@41042 Channel: 4 Note on, D4 key=62 velocity: 60
@41095 Channel: 4 Note off, D4 key=62 velocity: 60
@41095 Channel: 4 Note off, A4 key=69 velocity: 66
@41162 Channel: 4 Note on, A4 key=69 velocity: 68
@41163 Channel: 4 Note on, D4 key=62 velocity: 60
@41217 Channel: 4 Note off, D4 key=62 velocity: 60
@41221 Channel: 4 Note off, A4 key=69 velocity: 68
@41261 Channel: 4 Note on, D2 key=38 velocity: 88
@41263 Channel: 4 Note on, D3 key=50 velocity: 85
@41280 Channel: 4 Note on, A4 key=69 velocity: 73
@41281 Channel: 4 Note on, D4 key=62 velocity: 67
@41315 Channel: 4 Note off, D3 key=50 velocity: 85
@41321 Channel: 4 Note off, D2 key=38 velocity: 88
@41339 Channel: 4 Note off, D4 key=62 velocity: 67
@41343 Channel: 4 Note off, A4 key=69 velocity: 73
@41523 Channel: 4 Note on, A4 key=69 velocity: 73
@41525 Channel: 4 Note on, D4 key=62 velocity: 68
@41583 Channel: 4 Note off, D4 key=62 velocity: 68
@41586 Channel: 4 Note off, A4 key=69 velocity: 73
@41759 Channel: 4 Note on, G4 key=67 velocity: 86
@41760 Channel: 4 Note on, C4 key=60 velocity: 79
@41762 Channel: 4 Note on, C3 key=48 velocity: 86
@41763 Channel: 4 Note on, C2 key=36 velocity: 102
@41811 Channel: 4 Note off, C2 key=36 velocity: 102
@41814 Channel: 4 Note off, C3 key=48 velocity: 86
@41824 Channel: 4 Note off, G4 key=67 velocity: 86
@41827 Channel: 4 Note off, C4 key=60 velocity: 79
@41996 Channel: 4 Note on, C4 key=60 velocity: 68
@41996 Channel: 4 Note on, G4 key=67 velocity: 70
@42040 Channel: 4 Note off, G4 key=67 velocity: 70
@42054 Channel: 4 Note off, C4 key=60 velocity: 68
@42115 Channel: 4 Note on, C4 key=60 velocity: 63
@42115 Channel: 4 Note on, G4 key=67 velocity: 68
@42165 Channel: 4 Note off, G4 key=67 velocity: 68
@42171 Channel: 4 Note off, C4 key=60 velocity: 63
@42235 Channel: 4 Note on, G4 key=67 velocity: 80
@42236 Channel: 4 Note on, C4 key=60 velocity: 68
@42240 Channel: 4 Note on, C2 key=36 velocity: 95
@42247 Channel: 4 Note on, C3 key=48 velocity: 79
@42286 Channel: 4 Note off, C4 key=60 velocity: 68
@42291 Channel: 4 Note off, G4 key=67 velocity: 80
@42295 Channel: 4 Note off, C3 key=48 velocity: 79
@42299 Channel: 4 Note off, C2 key=36 velocity: 95
@42477 Channel: 4 Note on, C4 key=60 velocity: 64
@42477 Channel: 4 Note on, G4 key=67 velocity: 70
@42523 Channel: 4 Note off, G4 key=67 velocity: 70
@42529 Channel: 4 Note off, C4 key=60 velocity: 64
@42598 Channel: 4 Note on, C4 key=60 velocity: 60
@42598 Channel: 4 Note on, G4 key=67 velocity: 66
@42644 Channel: 4 Note off, G4 key=67 velocity: 66
@42648 Channel: 4 Note off, C4 key=60 velocity: 60
@42717 Channel: 4 Note on, G4 key=67 velocity: 73
@42718 Channel: 4 Note on, C4 key=60 velocity: 62
@42729 Channel: 4 Note on, C2 key=36 velocity: 84
@42734 Channel: 4 Note on, C3 key=48 velocity: 80
@42769 Channel: 4 Note off, C4 key=60 velocity: 62
@42773 Channel: 4 Note off, G4 key=67 velocity: 73
@42827 Channel: 4 Note off, C3 key=48 velocity: 80
@42867 Channel: 4 Note off, C2 key=36 velocity: 84
@42956 Channel: 4 Note on, G4 key=67 velocity: 66
@42957 Channel: 4 Note on, C4 key=60 velocity: 59
@43013 Channel: 4 Note off, G4 key=67 velocity: 66
@43017 Channel: 4 Note off, C4 key=60 velocity: 59
@43200 Channel: 4 Note on, F3 key=53 velocity: 92
@43204 Channel: 4 Note on, C5 key=72 velocity: 84
@43204 Channel: 4 Note on, F2 key=41 velocity: 100
@43205 Channel: 4 Note on, F4 key=65 velocity: 80
@43281 Channel: 4 Note off, F2 key=41 velocity: 100
@43283 Channel: 4 Note off, F3 key=53 velocity: 92
@43288 Channel: 4 Note off, C5 key=72 velocity: 84
@43293 Channel: 4 Note off, F4 key=65 velocity: 80
@43444 Channel: 4 Note on, F4 key=65 velocity: 70
@43444 Channel: 4 Note on, C5 key=72 velocity: 74
@43496 Channel: 4 Note off, C5 key=72 velocity: 74
@43504 Channel: 4 Note off, F4 key=65 velocity: 70
@43563 Channel: 4 Note on, F4 key=65 velocity: 64
@43563 Channel: 4 Note on, C5 key=72 velocity: 69
@43606 Channel: 4 Note off, C5 key=72 velocity: 69
@43615 Channel: 4 Note off, F4 key=65 velocity: 64
@43682 Channel: 4 Note on, C5 key=72 velocity: 81
@43683 Channel: 4 Note on, F4 key=65 velocity: 75
@43697 Channel: 4 Note on, F2 key=41 velocity: 81
@43698 Channel: 4 Note on, F3 key=53 velocity: 73
@43737 Channel: 4 Note off, C5 key=72 velocity: 81
@43739 Channel: 4 Note off, F4 key=65 velocity: 75
@43776 Channel: 4 Note off, F3 key=53 velocity: 73
@43787 Channel: 4 Note off, F2 key=41 velocity: 81
@43922 Channel: 4 Note on, F4 key=65 velocity: 69
@43922 Channel: 4 Note on, C5 key=72 velocity: 73
@43970 Channel: 4 Note off, C5 key=72 velocity: 73
@43980 Channel: 4 Note off, F4 key=65 velocity: 69
@44042 Channel: 4 Note on, F4 key=65 velocity: 59
@44044 Channel: 4 Note on, C5 key=72 velocity: 66
@44083 Channel: 4 Note off, C5 key=72 velocity: 66
@44093 Channel: 4 Note off, F4 key=65 velocity: 59
@44162 Channel: 4 Note on, C5 key=72 velocity: 62
@44165 Channel: 4 Note on, F4 key=65 velocity: 69
@44187 Channel: 4 Note on, F2 key=41 velocity: 95
@44187 Channel: 4 Note on, F3 key=53 velocity: 90
@44210 Channel: 4 Note off, F4 key=65 velocity: 69
@44217 Channel: 4 Note off, C5 key=72 velocity: 62
@44252 Channel: 4 Note off, F3 key=53 velocity: 90
@44271 Channel: 4 Note off, F2 key=41 velocity: 95
@44402 Channel: 4 Note on, C5 key=72 velocity: 74
@44404 Channel: 4 Note on, F4 key=65 velocity: 70
@44463 Channel: 4 Note off, C5 key=72 velocity: 74
@44468 Channel: 4 Note off, F4 key=65 velocity: 70
@44639 Channel: 4 Note on, G4 key=67 velocity: 86
@44640 Channel: 4 Note on, C4 key=60 velocity: 79
@44642 Channel: 4 Note on, C3 key=48 velocity: 86
@44643 Channel: 4 Note on, C2 key=36 velocity: 102
@44691 Channel: 4 Note off, C2 key=36 velocity: 102
@44694 Channel: 4 Note off, C3 key=48 velocity: 86
@44704 Channel: 4 Note off, G4 key=67 velocity: 86
@44707 Channel: 4 Note off, C4 key=60 velocity: 79
@44876 Channel: 4 Note on, C4 key=60 velocity: 68
@44876 Channel: 4 Note on, G4 key=67 velocity: 70
@44920 Channel: 4 Note off, G4 key=67 velocity: 70
@44934 Channel: 4 Note off, C4 key=60 velocity: 68
@44995 Channel: 4 Note on, C4 key=60 velocity: 63
@44995 Channel: 4 Note on, G4 key=67 velocity: 68
@45045 Channel: 4 Note off, G4 key=67 velocity: 68
@45051 Channel: 4 Note off, C4 key=60 velocity: 63
@45115 Channel: 4 Note on, G4 key=67 velocity: 80
@45116 Channel: 4 Note on, C4 key=60 velocity: 68
@45128 Channel: 4 Note on, C3 key=48 velocity: 73
@45130 Channel: 4 Note on, C2 key=36 velocity: 75
@45166 Channel: 4 Note off, C4 key=60 velocity: 68
@45171 Channel: 4 Note off, G4 key=67 velocity: 80
@45204 Channel: 4 Note off, C3 key=48 velocity: 73
@45234 Channel: 4 Note off, C2 key=36 velocity: 75
@45357 Channel: 4 Note on, C4 key=60 velocity: 64
@45357 Channel: 4 Note on, G4 key=67 velocity: 70
@45403 Channel: 4 Note off, G4 key=67 velocity: 70
@45409 Channel: 4 Note off, C4 key=60 velocity: 64
@45478 Channel: 4 Note on, C4 key=60 velocity: 60
@45478 Channel: 4 Note on, G4 key=67 velocity: 66
@45524 Channel: 4 Note off, G4 key=67 velocity: 66
@45528 Channel: 4 Note off, C4 key=60 velocity: 60
@45597 Channel: 4 Note on, G4 key=67 velocity: 73
@45598 Channel: 4 Note on, C4 key=60 velocity: 62
@45607 Channel: 4 Note on, C2 key=36 velocity: 81
@45609 Channel: 4 Note on, C3 key=48 velocity: 73
@45649 Channel: 4 Note off, C4 key=60 velocity: 62
@45653 Channel: 4 Note off, G4 key=67 velocity: 73
@45695 Channel: 4 Note off, C3 key=48 velocity: 73
@45708 Channel: 4 Note off, C2 key=36 velocity: 81
@45836 Channel: 4 Note on, G4 key=67 velocity: 66
@45837 Channel: 4 Note on, C4 key=60 velocity: 59
@45893 Channel: 4 Note off, G4 key=67 velocity: 66
@45897 Channel: 4 Note off, C4 key=60 velocity: 59
@46083 Channel: 4 Note on, F4 key=65 velocity: 81
@46083 Channel: 4 Note on, A#1 key=34 velocity: 91
@46083 Channel: 4 Note on, A#2 key=46 velocity: 80
@46086 Channel: 4 Note on, A#3 key=58 velocity: 73
@46128 Channel: 4 Note off, A#2 key=46 velocity: 80
@46135 Channel: 4 Note off, A#1 key=34 velocity: 91
@46151 Channel: 4 Note off, F4 key=65 velocity: 81
@46154 Channel: 4 Note off, A#3 key=58 velocity: 73
@46316 Channel: 4 Note on, F4 key=65 velocity: 68
@46318 Channel: 4 Note on, A#3 key=58 velocity: 66
@46370 Channel: 4 Note off, F4 key=65 velocity: 68
@46371 Channel: 4 Note off, A#3 key=58 velocity: 66
@46437 Channel: 4 Note on, A#3 key=58 velocity: 65
@46437 Channel: 4 Note on, F4 key=65 velocity: 70
@46492 Channel: 4 Note off, F4 key=65 velocity: 70
@46496 Channel: 4 Note off, A#3 key=58 velocity: 65
@46555 Channel: 4 Note on, F4 key=65 velocity: 72
@46556 Channel: 4 Note on, A#3 key=58 velocity: 68
@46561 Channel: 4 Note on, A#2 key=46 velocity: 82
@46564 Channel: 4 Note on, A#1 key=34 velocity: 84
@46614 Channel: 4 Note off, A#3 key=58 velocity: 68
@46617 Channel: 4 Note off, F4 key=65 velocity: 72
@46628 Channel: 4 Note off, A#2 key=46 velocity: 82
@46633 Channel: 4 Note off, A#1 key=34 velocity: 84
@46799 Channel: 4 Note on, F4 key=65 velocity: 66
@46802 Channel: 4 Note on, A#3 key=58 velocity: 60
@46855 Channel: 4 Note off, A#3 key=58 velocity: 60
@46855 Channel: 4 Note off, F4 key=65 velocity: 66
@46922 Channel: 4 Note on, F4 key=65 velocity: 68
@46923 Channel: 4 Note on, A#3 key=58 velocity: 60
@46977 Channel: 4 Note off, A#3 key=58 velocity: 60
@46981 Channel: 4 Note off, F4 key=65 velocity: 68
@47037 Channel: 4 Note on, A#2 key=46 velocity: 89
@47040 Channel: 4 Note on, F4 key=65 velocity: 73
@47041 Channel: 4 Note on, A#1 key=34 velocity: 87
@47041 Channel: 4 Note on, A#3 key=58 velocity: 67
@47099 Channel: 4 Note off, A#3 key=58 velocity: 67
@47103 Channel: 4 Note off, A#2 key=46 velocity: 89
@47103 Channel: 4 Note off, F4 key=65 velocity: 73
@47114 Channel: 4 Note off, A#1 key=34 velocity: 87
@47283 Channel: 4 Note on, F4 key=65 velocity: 73
@47285 Channel: 4 Note on, A#3 key=58 velocity: 68
@47343 Channel: 4 Note off, A#3 key=58 velocity: 68
@47346 Channel: 4 Note off, F4 key=65 velocity: 73
@47519 Channel: 4 Note on, E4 key=64 velocity: 86
@47520 Channel: 4 Note on, A3 key=57 velocity: 79
@47522 Channel: 4 Note on, A2 key=45 velocity: 86
@47523 Channel: 4 Note on, A1 key=33 velocity: 102
@47571 Channel: 4 Note off, A1 key=33 velocity: 102
@47574 Channel: 4 Note off, A2 key=45 velocity: 86
@47584 Channel: 4 Note off, E4 key=64 velocity: 86
@47587 Channel: 4 Note off, A3 key=57 velocity: 79
@47756 Channel: 4 Note on, A3 key=57 velocity: 68
@47756 Channel: 4 Note on, E4 key=64 velocity: 70
@47800 Channel: 4 Note off, E4 key=64 velocity: 70
@47814 Channel: 4 Note off, A3 key=57 velocity: 68
@47875 Channel: 4 Note on, A3 key=57 velocity: 63
@47875 Channel: 4 Note on, E4 key=64 velocity: 68
@47925 Channel: 4 Note off, E4 key=64 velocity: 68
@47931 Channel: 4 Note off, A3 key=57 velocity: 63
@47995 Channel: 4 Note on, E4 key=64 velocity: 80
@47996 Channel: 4 Note on, A3 key=57 velocity: 68
@48003 Channel: 4 Note on, A2 key=45 velocity: 80
@48007 Channel: 4 Note on, A1 key=33 velocity: 86
@48046 Channel: 4 Note off, A3 key=57 velocity: 68
@48051 Channel: 4 Note off, E4 key=64 velocity: 80
@48068 Channel: 4 Note off, A2 key=45 velocity: 80
@48085 Channel: 4 Note off, A1 key=33 velocity: 86
@48237 Channel: 4 Note on, A3 key=57 velocity: 64
@48237 Channel: 4 Note on, E4 key=64 velocity: 70
@48283 Channel: 4 Note off, E4 key=64 velocity: 70
@48289 Channel: 4 Note off, A3 key=57 velocity: 64
@48358 Channel: 4 Note on, A3 key=57 velocity: 60
@48358 Channel: 4 Note on, E4 key=64 velocity: 66
@48404 Channel: 4 Note off, E4 key=64 velocity: 66
@48408 Channel: 4 Note off, A3 key=57 velocity: 60
@48466 Channel: 4 Note on, A2 key=45 velocity: 80
@48469 Channel: 4 Note on, A1 key=33 velocity: 98
@48477 Channel: 4 Note on, E4 key=64 velocity: 73
@48478 Channel: 4 Note on, A3 key=57 velocity: 62
@48529 Channel: 4 Note off, A2 key=45 velocity: 80
@48529 Channel: 4 Note off, A3 key=57 velocity: 62
@48530 Channel: 4 Note off, A1 key=33 velocity: 98
@48533 Channel: 4 Note off, E4 key=64 velocity: 73
@48716 Channel: 4 Note on, E4 key=64 velocity: 66
@48717 Channel: 4 Note on, A3 key=57 velocity: 59
@48773 Channel: 4 Note off, E4 key=64 velocity: 66
@48777 Channel: 4 Note off, A3 key=57 velocity: 59
@48959 Channel: 4 Note on, E4 key=64 velocity: 86
@48960 Channel: 4 Note on, A3 key=57 velocity: 79
@48962 Channel: 4 Note on, A2 key=45 velocity: 86
@48963 Channel: 4 Note on, A1 key=33 velocity: 102
@49011 Channel: 4 Note off, A1 key=33 velocity: 102
@49014 Channel: 4 Note off, A2 key=45 velocity: 86
@49024 Channel: 4 Note off, E4 key=64 velocity: 86
@49027 Channel: 4 Note off, A3 key=57 velocity: 79
@49196 Channel: 4 Note on, A3 key=57 velocity: 68
@49196 Channel: 4 Note on, E4 key=64 velocity: 70
@49240 Channel: 4 Note off, E4 key=64 velocity: 70
@49254 Channel: 4 Note off, A3 key=57 velocity: 68
@49315 Channel: 4 Note on, A3 key=57 velocity: 63
@49315 Channel: 4 Note on, E4 key=64 velocity: 68
@49365 Channel: 4 Note off, E4 key=64 velocity: 68
@49371 Channel: 4 Note off, A3 key=57 velocity: 63
@49426 Channel: 4 Note on, A1 key=33 velocity: 79
@49428 Channel: 4 Note on, A2 key=45 velocity: 72
@49435 Channel: 4 Note on, E4 key=64 velocity: 80
@49436 Channel: 4 Note on, A3 key=57 velocity: 68
@49486 Channel: 4 Note off, A3 key=57 velocity: 68
@49491 Channel: 4 Note off, E4 key=64 velocity: 80
@49505 Channel: 4 Note off, A2 key=45 velocity: 72
@49519 Channel: 4 Note off, A1 key=33 velocity: 79
@49677 Channel: 4 Note on, A3 key=57 velocity: 64
@49677 Channel: 4 Note on, E4 key=64 velocity: 70
@49723 Channel: 4 Note off, E4 key=64 velocity: 70
@49729 Channel: 4 Note off, A3 key=57 velocity: 64
@49798 Channel: 4 Note on, A3 key=57 velocity: 60
@49798 Channel: 4 Note on, E4 key=64 velocity: 66
@49844 Channel: 4 Note off, E4 key=64 velocity: 66
@49848 Channel: 4 Note off, A3 key=57 velocity: 60
@49915 Channel: 4 Note on, A1 key=33 velocity: 92
@49917 Channel: 4 Note on, E4 key=64 velocity: 73
@49918 Channel: 4 Note on, A3 key=57 velocity: 62
@49921 Channel: 4 Note on, A2 key=45 velocity: 92
@49969 Channel: 4 Note off, A3 key=57 velocity: 62
@49973 Channel: 4 Note off, E4 key=64 velocity: 73
@49979 Channel: 4 Note off, A2 key=45 velocity: 92
@49982 Channel: 4 Note off, A1 key=33 velocity: 92
@50156 Channel: 4 Note on, E4 key=64 velocity: 66
@50157 Channel: 4 Note on, A3 key=57 velocity: 59
@50213 Channel: 4 Note off, E4 key=64 velocity: 66
@50217 Channel: 4 Note off, A3 key=57 velocity: 59
@50400 Channel: 4 Note on, D3 key=50 velocity: 92
@50404 Channel: 4 Note on, A4 key=69 velocity: 84
@50404 Channel: 4 Note on, D2 key=38 velocity: 100
@50405 Channel: 4 Note on, D4 key=62 velocity: 80
@50481 Channel: 4 Note off, D2 key=38 velocity: 100
@50483 Channel: 4 Note off, D3 key=50 velocity: 92
@50488 Channel: 4 Note off, A4 key=69 velocity: 84
@50493 Channel: 4 Note off, D4 key=62 velocity: 80
@50644 Channel: 4 Note on, D4 key=62 velocity: 70
@50644 Channel: 4 Note on, A4 key=69 velocity: 74
@50696 Channel: 4 Note off, A4 key=69 velocity: 74
@50704 Channel: 4 Note off, D4 key=62 velocity: 70
@50763 Channel: 4 Note on, D4 key=62 velocity: 64
@50763 Channel: 4 Note on, A4 key=69 velocity: 69
@50806 Channel: 4 Note off, A4 key=69 velocity: 69
@50815 Channel: 4 Note off, D4 key=62 velocity: 64
@50869 Channel: 4 Note on, D2 key=38 velocity: 83
@50873 Channel: 4 Note on, D3 key=50 velocity: 70
@50882 Channel: 4 Note on, A4 key=69 velocity: 81
@50883 Channel: 4 Note on, D4 key=62 velocity: 75
@50919 Channel: 4 Note off, D3 key=50 velocity: 70
@50924 Channel: 4 Note off, D2 key=38 velocity: 83
@50937 Channel: 4 Note off, A4 key=69 velocity: 81
@50939 Channel: 4 Note off, D4 key=62 velocity: 75
@51122 Channel: 4 Note on, D4 key=62 velocity: 69
@51122 Channel: 4 Note on, A4 key=69 velocity: 73
@51170 Channel: 4 Note off, A4 key=69 velocity: 73
@51180 Channel: 4 Note off, D4 key=62 velocity: 69
@51242 Channel: 4 Note on, D4 key=62 velocity: 59
@51244 Channel: 4 Note on, A4 key=69 velocity: 66
@51283 Channel: 4 Note off, A4 key=69 velocity: 66
@51293 Channel: 4 Note off, D4 key=62 velocity: 59
@51343 Channel: 4 Note on, D2 key=38 velocity: 84
@51346 Channel: 4 Note on, D3 key=50 velocity: 78
@51362 Channel: 4 Note on, A4 key=69 velocity: 62
@51365 Channel: 4 Note on, D4 key=62 velocity: 69
@51400 Channel: 4 Note off, D3 key=50 velocity: 78
@51402 Channel: 4 Note off, D2 key=38 velocity: 84
@51410 Channel: 4 Note off, D4 key=62 velocity: 69
@51417 Channel: 4 Note off, A4 key=69 velocity: 62
@51602 Channel: 4 Note on, A4 key=69 velocity: 74
@51604 Channel: 4 Note on, D4 key=62 velocity: 70
@51663 Channel: 4 Note off, A4 key=69 velocity: 74
@51668 Channel: 4 Note off, D4 key=62 velocity: 70
@51839 Channel: 4 Note on, D2 key=38 velocity: 83
@51840 Channel: 4 Note on, A4 key=69 velocity: 83
@51842 Channel: 4 Note on, D4 key=62 velocity: 78
@51849 Channel: 4 Note on, D3 key=50 velocity: 88
@51907 Channel: 4 Note off, D4 key=62 velocity: 78
@51909 Channel: 4 Note off, A4 key=69 velocity: 83
@51910 Channel: 4 Note off, D2 key=38 velocity: 83
@51913 Channel: 4 Note off, D3 key=50 velocity: 88
@52081 Channel: 4 Note on, D4 key=62 velocity: 68
@52081 Channel: 4 Note on, A4 key=69 velocity: 71
@52127 Channel: 4 Note off, A4 key=69 velocity: 71
@52132 Channel: 4 Note off, D4 key=62 velocity: 68
@52199 Channel: 4 Note on, A4 key=69 velocity: 70
@52200 Channel: 4 Note on, D4 key=62 velocity: 64
@52248 Channel: 4 Note off, A4 key=69 velocity: 70
@52250 Channel: 4 Note off, D4 key=62 velocity: 64
@52313 Channel: 4 Note on, D3 key=50 velocity: 91
@52315 Channel: 4 Note on, D2 key=38 velocity: 100
@52320 Channel: 4 Note on, A4 key=69 velocity: 74
@52321 Channel: 4 Note on, D4 key=62 velocity: 72
@52363 Channel: 4 Note off, D3 key=50 velocity: 91
@52365 Channel: 4 Note off, D2 key=38 velocity: 100
@52373 Channel: 4 Note off, D4 key=62 velocity: 72
@52376 Channel: 4 Note off, A4 key=69 velocity: 74
@52561 Channel: 4 Note on, A4 key=69 velocity: 66
@52562 Channel: 4 Note on, D4 key=62 velocity: 62
@52612 Channel: 4 Note off, A4 key=69 velocity: 66
@52614 Channel: 4 Note off, D4 key=62 velocity: 62
@52681 Channel: 4 Note on, A4 key=69 velocity: 62
@52682 Channel: 4 Note on, D4 key=62 velocity: 59
@52721 Channel: 4 Note off, D4 key=62 velocity: 59
@52723 Channel: 4 Note off, A4 key=69 velocity: 62
@52793 Channel: 4 Note on, D2 key=38 velocity: 90
@52798 Channel: 4 Note on, D3 key=50 velocity: 85
@52801 Channel: 4 Note on, A4 key=69 velocity: 72
@52802 Channel: 4 Note on, D4 key=62 velocity: 66
@52844 Channel: 4 Note off, D2 key=38 velocity: 90
@52845 Channel: 4 Note off, D3 key=50 velocity: 85
@52857 Channel: 4 Note off, D4 key=62 velocity: 66
@52857 Channel: 4 Note off, A4 key=69 velocity: 72
@53042 Channel: 4 Note on, A4 key=69 velocity: 75
@53044 Channel: 4 Note on, D4 key=62 velocity: 68
@53101 Channel: 4 Note off, A4 key=69 velocity: 75
@53103 Channel: 4 Note off, D4 key=62 velocity: 68
@53283 Channel: 4 Note on, A4 key=69 velocity: 81
@53283 Channel: 4 Note on, D2 key=38 velocity: 91
@53283 Channel: 4 Note on, D3 key=50 velocity: 80
@53286 Channel: 4 Note on, D4 key=62 velocity: 73
@53328 Channel: 4 Note off, D3 key=50 velocity: 80
@53335 Channel: 4 Note off, D2 key=38 velocity: 91
@53351 Channel: 4 Note off, A4 key=69 velocity: 81
@53354 Channel: 4 Note off, D4 key=62 velocity: 73
@53516 Channel: 4 Note on, A4 key=69 velocity: 68
@53518 Channel: 4 Note on, D4 key=62 velocity: 66
@53570 Channel: 4 Note off, A4 key=69 velocity: 68
@53571 Channel: 4 Note off, D4 key=62 velocity: 66
@53637 Channel: 4 Note on, D4 key=62 velocity: 65
@53637 Channel: 4 Note on, A4 key=69 velocity: 70
@53692 Channel: 4 Note off, A4 key=69 velocity: 70
@53696 Channel: 4 Note off, D4 key=62 velocity: 65
@53747 Channel: 4 Note on, D2 key=38 velocity: 90
@53750 Channel: 4 Note on, D3 key=50 velocity: 83
@53755 Channel: 4 Note on, A4 key=69 velocity: 72
@53756 Channel: 4 Note on, D4 key=62 velocity: 68
@53801 Channel: 4 Note off, D3 key=50 velocity: 83
@53807 Channel: 4 Note off, D2 key=38 velocity: 90
@53814 Channel: 4 Note off, D4 key=62 velocity: 68
@53817 Channel: 4 Note off, A4 key=69 velocity: 72
@53999 Channel: 4 Note on, A4 key=69 velocity: 66
@54002 Channel: 4 Note on, D4 key=62 velocity: 60
@54055 Channel: 4 Note off, D4 key=62 velocity: 60
@54055 Channel: 4 Note off, A4 key=69 velocity: 66
@54122 Channel: 4 Note on, A4 key=69 velocity: 68
@54123 Channel: 4 Note on, D4 key=62 velocity: 60
@54177 Channel: 4 Note off, D4 key=62 velocity: 60
@54181 Channel: 4 Note off, A4 key=69 velocity: 68
@54221 Channel: 4 Note on, D2 key=38 velocity: 88
@54223 Channel: 4 Note on, D3 key=50 velocity: 85
@54240 Channel: 4 Note on, A4 key=69 velocity: 73
@54241 Channel: 4 Note on, D4 key=62 velocity: 67
@54275 Channel: 4 Note off, D3 key=50 velocity: 85
@54281 Channel: 4 Note off, D2 key=38 velocity: 88
@54299 Channel: 4 Note off, D4 key=62 velocity: 67
@54303 Channel: 4 Note off, A4 key=69 velocity: 73
@54483 Channel: 4 Note on, A4 key=69 velocity: 73
@54485 Channel: 4 Note on, D4 key=62 velocity: 68
@54543 Channel: 4 Note off, D4 key=62 velocity: 68
@54546 Channel: 4 Note off, A4 key=69 velocity: 73
@54719 Channel: 4 Note on, G4 key=67 velocity: 86
@54720 Channel: 4 Note on, C4 key=60 velocity: 79
@54722 Channel: 4 Note on, C3 key=48 velocity: 86
@54723 Channel: 4 Note on, C2 key=36 velocity: 102
@54771 Channel: 4 Note off, C2 key=36 velocity: 102
@54774 Channel: 4 Note off, C3 key=48 velocity: 86
@54784 Channel: 4 Note off, G4 key=67 velocity: 86
@54787 Channel: 4 Note off, C4 key=60 velocity: 79
@54956 Channel: 4 Note on, C4 key=60 velocity: 68
@54956 Channel: 4 Note on, G4 key=67 velocity: 70
@55000 Channel: 4 Note off, G4 key=67 velocity: 70
@55014 Channel: 4 Note off, C4 key=60 velocity: 68
@55075 Channel: 4 Note on, C4 key=60 velocity: 63
@55075 Channel: 4 Note on, G4 key=67 velocity: 68
@55125 Channel: 4 Note off, G4 key=67 velocity: 68
@55131 Channel: 4 Note off, C4 key=60 velocity: 63
@55195 Channel: 4 Note on, G4 key=67 velocity: 80
@55196 Channel: 4 Note on, C4 key=60 velocity: 68
@55200 Channel: 4 Note on, C2 key=36 velocity: 95
@55207 Channel: 4 Note on, C3 key=48 velocity: 79
@55246 Channel: 4 Note off, C4 key=60 velocity: 68
@55251 Channel: 4 Note off, G4 key=67 velocity: 80
@55255 Channel: 4 Note off, C3 key=48 velocity: 79
@55259 Channel: 4 Note off, C2 key=36 velocity: 95
@55437 Channel: 4 Note on, C4 key=60 velocity: 64
@55437 Channel: 4 Note on, G4 key=67 velocity: 70
@55483 Channel: 4 Note off, G4 key=67 velocity: 70
@55489 Channel: 4 Note off, C4 key=60 velocity: 64
@55558 Channel: 4 Note on, C4 key=60 velocity: 60
@55558 Channel: 4 Note on, G4 key=67 velocity: 66
@55604 Channel: 4 Note off, G4 key=67 velocity: 66
@55608 Channel: 4 Note off, C4 key=60 velocity: 60
@55677 Channel: 4 Note on, G4 key=67 velocity: 73
@55678 Channel: 4 Note on, C4 key=60 velocity: 62
@55689 Channel: 4 Note on, C2 key=36 velocity: 84
@55694 Channel: 4 Note on, C3 key=48 velocity: 80
@55729 Channel: 4 Note off, C4 key=60 velocity: 62
@55733 Channel: 4 Note off, G4 key=67 velocity: 73
@55787 Channel: 4 Note off, C3 key=48 velocity: 80
@55827 Channel: 4 Note off, C2 key=36 velocity: 84
@55916 Channel: 4 Note on, G4 key=67 velocity: 66
@55917 Channel: 4 Note on, C4 key=60 velocity: 59
@55973 Channel: 4 Note off, G4 key=67 velocity: 66
@55977 Channel: 4 Note off, C4 key=60 velocity: 59
@56160 Channel: 4 Note on, F3 key=53 velocity: 92
@56164 Channel: 4 Note on, C5 key=72 velocity: 84
@56164 Channel: 4 Note on, F2 key=41 velocity: 100
@56165 Channel: 4 Note on, F4 key=65 velocity: 80
@56241 Channel: 4 Note off, F2 key=41 velocity: 100
@56243 Channel: 4 Note off, F3 key=53 velocity: 92
@56248 Channel: 4 Note off, C5 key=72 velocity: 84
@56253 Channel: 4 Note off, F4 key=65 velocity: 80
@56404 Channel: 4 Note on, F4 key=65 velocity: 70
@56404 Channel: 4 Note on, C5 key=72 velocity: 74
@56456 Channel: 4 Note off, C5 key=72 velocity: 74
@56464 Channel: 4 Note off, F4 key=65 velocity: 70
@56523 Channel: 4 Note on, F4 key=65 velocity: 64
@56523 Channel: 4 Note on, C5 key=72 velocity: 69
@56566 Channel: 4 Note off, C5 key=72 velocity: 69
@56575 Channel: 4 Note off, F4 key=65 velocity: 64
@56642 Channel: 4 Note on, C5 key=72 velocity: 81
@56643 Channel: 4 Note on, F4 key=65 velocity: 75
@56657 Channel: 4 Note on, F2 key=41 velocity: 81
@56658 Channel: 4 Note on, F3 key=53 velocity: 73
@56697 Channel: 4 Note off, C5 key=72 velocity: 81
@56699 Channel: 4 Note off, F4 key=65 velocity: 75
@56736 Channel: 4 Note off, F3 key=53 velocity: 73
@56747 Channel: 4 Note off, F2 key=41 velocity: 81
@56882 Channel: 4 Note on, F4 key=65 velocity: 69
@56882 Channel: 4 Note on, C5 key=72 velocity: 73
@56930 Channel: 4 Note off, C5 key=72 velocity: 73
@56940 Channel: 4 Note off, F4 key=65 velocity: 69
@57002 Channel: 4 Note on, F4 key=65 velocity: 59
@57004 Channel: 4 Note on, C5 key=72 velocity: 66
@57043 Channel: 4 Note off, C5 key=72 velocity: 66
@57053 Channel: 4 Note off, F4 key=65 velocity: 59
@57122 Channel: 4 Note on, C5 key=72 velocity: 62
@57125 Channel: 4 Note on, F4 key=65 velocity: 69
@57147 Channel: 4 Note on, F2 key=41 velocity: 95
@57147 Channel: 4 Note on, F3 key=53 velocity: 90
@57170 Channel: 4 Note off, F4 key=65 velocity: 69
@57177 Channel: 4 Note off, C5 key=72 velocity: 62
@57212 Channel: 4 Note off, F3 key=53 velocity: 90
@57231 Channel: 4 Note off, F2 key=41 velocity: 95
@57362 Channel: 4 Note on, C5 key=72 velocity: 74
@57364 Channel: 4 Note on, F4 key=65 velocity: 70
@57423 Channel: 4 Note off, C5 key=72 velocity: 74
@57428 Channel: 4 Note off, F4 key=65 velocity: 70
@57599 Channel: 4 Note on, G4 key=67 velocity: 86
@57600 Channel: 4 Note on, C4 key=60 velocity: 79
@57602 Channel: 4 Note on, C3 key=48 velocity: 86
@57603 Channel: 4 Note on, C2 key=36 velocity: 102
@57651 Channel: 4 Note off, C2 key=36 velocity: 102
@57654 Channel: 4 Note off, C3 key=48 velocity: 86
@57664 Channel: 4 Note off, G4 key=67 velocity: 86
@57667 Channel: 4 Note off, C4 key=60 velocity: 79
@57836 Channel: 4 Note on, C4 key=60 velocity: 68
@57836 Channel: 4 Note on, G4 key=67 velocity: 70
@57880 Channel: 4 Note off, G4 key=67 velocity: 70
@57894 Channel: 4 Note off, C4 key=60 velocity: 68
@57955 Channel: 4 Note on, C4 key=60 velocity: 63
@57955 Channel: 4 Note on, G4 key=67 velocity: 68
@58005 Channel: 4 Note off, G4 key=67 velocity: 68
@58011 Channel: 4 Note off, C4 key=60 velocity: 63
@58075 Channel: 4 Note on, G4 key=67 velocity: 80
@58076 Channel: 4 Note on, C4 key=60 velocity: 68
@58088 Channel: 4 Note on, C3 key=48 velocity: 73
@58090 Channel: 4 Note on, C2 key=36 velocity: 75
@58126 Channel: 4 Note off, C4 key=60 velocity: 68
@58131 Channel: 4 Note off, G4 key=67 velocity: 80
@58164 Channel: 4 Note off, C3 key=48 velocity: 73
@58194 Channel: 4 Note off, C2 key=36 velocity: 75
@58317 Channel: 4 Note on, C4 key=60 velocity: 64
@58317 Channel: 4 Note on, G4 key=67 velocity: 70
@58363 Channel: 4 Note off, G4 key=67 velocity: 70
@58369 Channel: 4 Note off, C4 key=60 velocity: 64
@58438 Channel: 4 Note on, C4 key=60 velocity: 60
@58438 Channel: 4 Note on, G4 key=67 velocity: 66
@58484 Channel: 4 Note off, G4 key=67 velocity: 66
@58488 Channel: 4 Note off, C4 key=60 velocity: 60
@58557 Channel: 4 Note on, G4 key=67 velocity: 73
@58558 Channel: 4 Note on, C4 key=60 velocity: 62
@58567 Channel: 4 Note on, C2 key=36 velocity: 81
@58569 Channel: 4 Note on, C3 key=48 velocity: 73
@58609 Channel: 4 Note off, C4 key=60 velocity: 62
@58613 Channel: 4 Note off, G4 key=67 velocity: 73
@58655 Channel: 4 Note off, C3 key=48 velocity: 73
@58668 Channel: 4 Note off, C2 key=36 velocity: 81
@58796 Channel: 4 Note on, G4 key=67 velocity: 66
@58797 Channel: 4 Note on, C4 key=60 velocity: 59
@58853 Channel: 4 Note off, G4 key=67 velocity: 66
@58857 Channel: 4 Note off, C4 key=60 velocity: 59
@59043 Channel: 4 Note on, F4 key=65 velocity: 81
@59043 Channel: 4 Note on, A#1 key=34 velocity: 91
@59043 Channel: 4 Note on, A#2 key=46 velocity: 80
@59046 Channel: 4 Note on, A#3 key=58 velocity: 73
@59088 Channel: 4 Note off, A#2 key=46 velocity: 80
@59095 Channel: 4 Note off, A#1 key=34 velocity: 91
@59111 Channel: 4 Note off, F4 key=65 velocity: 81
@59114 Channel: 4 Note off, A#3 key=58 velocity: 73
@59276 Channel: 4 Note on, F4 key=65 velocity: 68
@59278 Channel: 4 Note on, A#3 key=58 velocity: 66
@59330 Channel: 4 Note off, F4 key=65 velocity: 68
@59331 Channel: 4 Note off, A#3 key=58 velocity: 66
@59397 Channel: 4 Note on, A#3 key=58 velocity: 65
@59397 Channel: 4 Note on, F4 key=65 velocity: 70
@59452 Channel: 4 Note off, F4 key=65 velocity: 70
@59456 Channel: 4 Note off, A#3 key=58 velocity: 65
@59515 Channel: 4 Note on, F4 key=65 velocity: 72
@59516 Channel: 4 Note on, A#3 key=58 velocity: 68
@59521 Channel: 4 Note on, A#2 key=46 velocity: 82
@59524 Channel: 4 Note on, A#1 key=34 velocity: 84
@59574 Channel: 4 Note off, A#3 key=58 velocity: 68
@59577 Channel: 4 Note off, F4 key=65 velocity: 72
@59588 Channel: 4 Note off, A#2 key=46 velocity: 82
@59593 Channel: 4 Note off, A#1 key=34 velocity: 84
@59759 Channel: 4 Note on, F4 key=65 velocity: 66
@59762 Channel: 4 Note on, A#3 key=58 velocity: 60
@59815 Channel: 4 Note off, A#3 key=58 velocity: 60
@59815 Channel: 4 Note off, F4 key=65 velocity: 66
@59882 Channel: 4 Note on, F4 key=65 velocity: 68
@59883 Channel: 4 Note on, A#3 key=58 velocity: 60
@59937 Channel: 4 Note off, A#3 key=58 velocity: 60
@59941 Channel: 4 Note off, F4 key=65 velocity: 68
@59997 Channel: 4 Note on, A#2 key=46 velocity: 89
@60000 Channel: 4 Note on, F4 key=65 velocity: 73
@60001 Channel: 4 Note on, A#1 key=34 velocity: 87
@60001 Channel: 4 Note on, A#3 key=58 velocity: 67
@60059 Channel: 4 Note off, A#3 key=58 velocity: 67
@60063 Channel: 4 Note off, A#2 key=46 velocity: 89
@60063 Channel: 4 Note off, F4 key=65 velocity: 73
@60074 Channel: 4 Note off, A#1 key=34 velocity: 87
@60243 Channel: 4 Note on, F4 key=65 velocity: 73
@60245 Channel: 4 Note on, A#3 key=58 velocity: 68
@60303 Channel: 4 Note off, A#3 key=58 velocity: 68
@60306 Channel: 4 Note off, F4 key=65 velocity: 73
@60479 Channel: 4 Note on, E4 key=64 velocity: 86
@60480 Channel: 4 Note on, A3 key=57 velocity: 79
@60482 Channel: 4 Note on, A2 key=45 velocity: 86
@60483 Channel: 4 Note on, A1 key=33 velocity: 102
@60531 Channel: 4 Note off, A1 key=33 velocity: 102
@60534 Channel: 4 Note off, A2 key=45 velocity: 86
@60544 Channel: 4 Note off, E4 key=64 velocity: 86
@60547 Channel: 4 Note off, A3 key=57 velocity: 79
@60716 Channel: 4 Note on, A3 key=57 velocity: 68
@60716 Channel: 4 Note on, E4 key=64 velocity: 70
@60760 Channel: 4 Note off, E4 key=64 velocity: 70
@60774 Channel: 4 Note off, A3 key=57 velocity: 68
@60835 Channel: 4 Note on, A3 key=57 velocity: 63
@60835 Channel: 4 Note on, E4 key=64 velocity: 68
@60885 Channel: 4 Note off, E4 key=64 velocity: 68
@60891 Channel: 4 Note off, A3 key=57 velocity: 63
@60955 Channel: 4 Note on, E4 key=64 velocity: 80
@60956 Channel: 4 Note on, A3 key=57 velocity: 68
@60963 Channel: 4 Note on, A2 key=45 velocity: 80
@60967 Channel: 4 Note on, A1 key=33 velocity: 86
@61006 Channel: 4 Note off, A3 key=57 velocity: 68
@61011 Channel: 4 Note off, E4 key=64 velocity: 80
@61028 Channel: 4 Note off, A2 key=45 velocity: 80
@61045 Channel: 4 Note off, A1 key=33 velocity: 86
@61197 Channel: 4 Note on, A3 key=57 velocity: 64
@61197 Channel: 4 Note on, E4 key=64 velocity: 70
@61243 Channel: 4 Note off, E4 key=64 velocity: 70
@61249 Channel: 4 Note off, A3 key=57 velocity: 64
@61318 Channel: 4 Note on, A3 key=57 velocity: 60
@61318 Channel: 4 Note on, E4 key=64 velocity: 66
@61364 Channel: 4 Note off, E4 key=64 velocity: 66
@61368 Channel: 4 Note off, A3 key=57 velocity: 60
@61426 Channel: 4 Note on, A2 key=45 velocity: 80
@61429 Channel: 4 Note on, A1 key=33 velocity: 98
@61437 Channel: 4 Note on, E4 key=64 velocity: 73
@61438 Channel: 4 Note on, A3 key=57 velocity: 62
@61489 Channel: 4 Note off, A2 key=45 velocity: 80
@61489 Channel: 4 Note off, A3 key=57 velocity: 62
@61490 Channel: 4 Note off, A1 key=33 velocity: 98
@61493 Channel: 4 Note off, E4 key=64 velocity: 73
@61676 Channel: 4 Note on, E4 key=64 velocity: 66
@61677 Channel: 4 Note on, A3 key=57 velocity: 59
@61733 Channel: 4 Note off, E4 key=64 velocity: 66
@61737 Channel: 4 Note off, A3 key=57 velocity: 59
@61919 Channel: 4 Note on, E4 key=64 velocity: 86
@61920 Channel: 4 Note on, A3 key=57 velocity: 79
@61922 Channel: 4 Note on, A2 key=45 velocity: 86
@61923 Channel: 4 Note on, A1 key=33 velocity: 102
@61971 Channel: 4 Note off, A1 key=33 velocity: 102
@61974 Channel: 4 Note off, A2 key=45 velocity: 86
@61984 Channel: 4 Note off, E4 key=64 velocity: 86
@61987 Channel: 4 Note off, A3 key=57 velocity: 79
@62156 Channel: 4 Note on, A3 key=57 velocity: 68
@62156 Channel: 4 Note on, E4 key=64 velocity: 70
@62200 Channel: 4 Note off, E4 key=64 velocity: 70
@62214 Channel: 4 Note off, A3 key=57 velocity: 68
@62275 Channel: 4 Note on, A3 key=57 velocity: 63
@62275 Channel: 4 Note on, E4 key=64 velocity: 68
@62325 Channel: 4 Note off, E4 key=64 velocity: 68
@62331 Channel: 4 Note off, A3 key=57 velocity: 63
@62386 Channel: 4 Note on, A1 key=33 velocity: 79
@62388 Channel: 4 Note on, A2 key=45 velocity: 72
@62395 Channel: 4 Note on, E4 key=64 velocity: 80
@62396 Channel: 4 Note on, A3 key=57 velocity: 68
@62446 Channel: 4 Note off, A3 key=57 velocity: 68
@62451 Channel: 4 Note off, E4 key=64 velocity: 80
@62465 Channel: 4 Note off, A2 key=45 velocity: 72
@62479 Channel: 4 Note off, A1 key=33 velocity: 79
@62637 Channel: 4 Note on, A3 key=57 velocity: 64
@62637 Channel: 4 Note on, E4 key=64 velocity: 70
@62683 Channel: 4 Note off, E4 key=64 velocity: 70
@62689 Channel: 4 Note off, A3 key=57 velocity: 64
@62758 Channel: 4 Note on, A3 key=57 velocity: 60
@62758 Channel: 4 Note on, E4 key=64 velocity: 66
@62804 Channel: 4 Note off, E4 key=64 velocity: 66
@62808 Channel: 4 Note off, A3 key=57 velocity: 60
@62875 Channel: 4 Note on, A1 key=33 velocity: 92
@62877 Channel: 4 Note on, E4 key=64 velocity: 73
@62878 Channel: 4 Note on, A3 key=57 velocity: 62
@62881 Channel: 4 Note on, A2 key=45 velocity: 92
@62929 Channel: 4 Note off, A3 key=57 velocity: 62
@62933 Channel: 4 Note off, E4 key=64 velocity: 73
@62939 Channel: 4 Note off, A2 key=45 velocity: 92
@62942 Channel: 4 Note off, A1 key=33 velocity: 92
@63116 Channel: 4 Note on, E4 key=64 velocity: 66
@63117 Channel: 4 Note on, A3 key=57 velocity: 59
@63173 Channel: 4 Note off, E4 key=64 velocity: 66
@63177 Channel: 4 Note off, A3 key=57 velocity: 59
@63360 Channel: 4 Note on, D4 key=62 velocity: 104
@63360 Channel: 4 Note on, A4 key=69 velocity: 77
@63360 Channel: 4 Note on, D3 key=50 velocity: 114
@63360 Channel: 4 Note on, D2 key=38 velocity: 122
@63410 Channel: 4 Note off, A4 key=69 velocity: 77
@63414 Channel: 4 Note off, D4 key=62 velocity: 104
@63447 Channel: 4 Note off, D2 key=38 velocity: 122
@63462 Channel: 4 Note off, D3 key=50 velocity: 114
@63482 Channel: 4 Note on, A4 key=69 velocity: 73
@63483 Channel: 4 Note on, D4 key=62 velocity: 97
@63531 Channel: 4 Note off, A4 key=69 velocity: 73
@63532 Channel: 4 Note off, D4 key=62 velocity: 97
@63602 Channel: 4 Note on, A4 key=69 velocity: 77
@63603 Channel: 4 Note on, D4 key=62 velocity: 94
@63651 Channel: 4 Note off, A4 key=69 velocity: 77
@63654 Channel: 4 Note off, D4 key=62 velocity: 94
@63723 Channel: 4 Note on, A4 key=69 velocity: 83
@63724 Channel: 4 Note on, D4 key=62 velocity: 100
@63764 Channel: 4 Note off, A4 key=69 velocity: 83
@63773 Channel: 4 Note off, D4 key=62 velocity: 100
@63840 Channel: 4 Note on, D3 key=50 velocity: 108
@63840 Channel: 4 Note on, D2 key=38 velocity: 122
@63842 Channel: 4 Note on, A4 key=69 velocity: 94
@63843 Channel: 4 Note on, D4 key=62 velocity: 102
@63886 Channel: 4 Note off, A4 key=69 velocity: 94
@63890 Channel: 4 Note off, D4 key=62 velocity: 102
@63909 Channel: 4 Note off, D2 key=38 velocity: 122
@63923 Channel: 4 Note off, D3 key=50 velocity: 108
@63962 Channel: 4 Note on, D4 key=62 velocity: 95
@63962 Channel: 4 Note on, A4 key=69 velocity: 86
@64000 Channel: 4 Note off, A4 key=69 velocity: 86
@64006 Channel: 4 Note off, D4 key=62 velocity: 95
@64081 Channel: 4 Note on, A4 key=69 velocity: 91
@64082 Channel: 4 Note on, D4 key=62 velocity: 91
@64119 Channel: 4 Note off, A4 key=69 velocity: 91
@64128 Channel: 4 Note off, D4 key=62 velocity: 91
@64200 Channel: 4 Note on, A4 key=69 velocity: 81
@64201 Channel: 4 Note on, D4 key=62 velocity: 97
@64237 Channel: 4 Note off, A4 key=69 velocity: 81
@64248 Channel: 4 Note off, D4 key=62 velocity: 97
@64319 Channel: 4 Note on, A4 key=69 velocity: 98
@64320 Channel: 4 Note on, D3 key=50 velocity: 98
@64320 Channel: 4 Note on, D2 key=38 velocity: 110
@64321 Channel: 4 Note on, D4 key=62 velocity: 98
@64359 Channel: 4 Note off, A4 key=69 velocity: 98
@64369 Channel: 4 Note off, D4 key=62 velocity: 98
@64393 Channel: 4 Note off, D2 key=38 velocity: 110
@64416 Channel: 4 Note off, D3 key=50 velocity: 98
@64439 Channel: 4 Note on, A4 key=69 velocity: 97
@64441 Channel: 4 Note on, D4 key=62 velocity: 100
@64483 Channel: 4 Note off, A4 key=69 velocity: 97
@64486 Channel: 4 Note off, D4 key=62 velocity: 100
@64559 Channel: 4 Note on, A4 key=69 velocity: 94
@64562 Channel: 4 Note on, D4 key=62 velocity: 97
@64600 Channel: 4 Note off, A4 key=69 velocity: 94
@64609 Channel: 4 Note off, D4 key=62 velocity: 97
@64680 Channel: 4 Note on, A4 key=69 velocity: 98
@64682 Channel: 4 Note on, D4 key=62 velocity: 100
@64719 Channel: 4 Note off, A4 key=69 velocity: 98
@64729 Channel: 4 Note off, D4 key=62 velocity: 100
@64800 Channel: 4 Note on, G2 key=43 velocity: 110
@64800 Channel: 4 Note on, G1 key=31 velocity: 112
@64801 Channel: 4 Note on, A4 key=69 velocity: 102
@64803 Channel: 4 Note on, G4 key=67 velocity: 112
@64840 Channel: 4 Note off, A4 key=69 velocity: 102
@64853 Channel: 4 Note off, G4 key=67 velocity: 112
@64879 Channel: 4 Note off, G1 key=31 velocity: 112
@64899 Channel: 4 Note off, G2 key=43 velocity: 110
@64920 Channel: 4 Note on, A4 key=69 velocity: 97
@64922 Channel: 4 Note on, G4 key=67 velocity: 98
@64960 Channel: 4 Note off, A4 key=69 velocity: 97
@64966 Channel: 4 Note off, G4 key=67 velocity: 98
@65039 Channel: 4 Note on, A4 key=69 velocity: 106
@65041 Channel: 4 Note on, G4 key=67 velocity: 100
@65080 Channel: 4 Note off, A4 key=69 velocity: 106
@65089 Channel: 4 Note off, G4 key=67 velocity: 100
@65159 Channel: 4 Note on, A4 key=69 velocity: 95
@65162 Channel: 4 Note on, G4 key=67 velocity: 104
@65198 Channel: 4 Note off, A4 key=69 velocity: 95
@65209 Channel: 4 Note off, G4 key=67 velocity: 104
@65278 Channel: 4 Note on, A4 key=69 velocity: 100
@65280 Channel: 4 Note on, G2 key=43 velocity: 108
@65280 Channel: 4 Note on, G1 key=31 velocity: 114
@65281 Channel: 4 Note on, G4 key=67 velocity: 102
@65318 Channel: 4 Note off, A4 key=69 velocity: 100
@65329 Channel: 4 Note off, G4 key=67 velocity: 102
@65355 Channel: 4 Note off, G1 key=31 velocity: 114
@65361 Channel: 4 Note off, G2 key=43 velocity: 108
@65398 Channel: 4 Note on, A4 key=69 velocity: 98
@65401 Channel: 4 Note on, G4 key=67 velocity: 104
@65438 Channel: 4 Note off, A4 key=69 velocity: 98
@65447 Channel: 4 Note off, G4 key=67 velocity: 104
@65519 Channel: 4 Note on, A4 key=69 velocity: 97
@65522 Channel: 4 Note on, G4 key=67 velocity: 102
@65557 Channel: 4 Note off, A4 key=69 velocity: 97
@65569 Channel: 4 Note off, G4 key=67 velocity: 102
@65639 Channel: 4 Note on, A4 key=69 velocity: 100
@65642 Channel: 4 Note on, G4 key=67 velocity: 102
@65679 Channel: 4 Note off, A4 key=69 velocity: 100
@65690 Channel: 4 Note off, G4 key=67 velocity: 102
@65759 Channel: 4 Note on, A4 key=69 velocity: 95
@65760 Channel: 4 Note on, G2 key=43 velocity: 106
@65760 Channel: 4 Note on, G1 key=31 velocity: 114
@65762 Channel: 4 Note on, G4 key=67 velocity: 100
@65799 Channel: 4 Note off, A4 key=69 velocity: 95
@65807 Channel: 4 Note off, G4 key=67 velocity: 100
@65832 Channel: 4 Note off, G1 key=31 velocity: 114
@65845 Channel: 4 Note off, G2 key=43 velocity: 106
@65880 Channel: 4 Note on, A4 key=69 velocity: 97
@65882 Channel: 4 Note on, G4 key=67 velocity: 106
@65919 Channel: 4 Note off, A4 key=69 velocity: 97
@65925 Channel: 4 Note off, G4 key=67 velocity: 106
@66000 Channel: 4 Note on, A4 key=69 velocity: 98
@66002 Channel: 4 Note on, G4 key=67 velocity: 90
@66040 Channel: 4 Note off, A4 key=69 velocity: 98
@66048 Channel: 4 Note off, G4 key=67 velocity: 90
@66121 Channel: 4 Note on, A4 key=69 velocity: 91
@66122 Channel: 4 Note on, G4 key=67 velocity: 106
@66157 Channel: 4 Note off, A4 key=69 velocity: 91
@66173 Channel: 4 Note off, G4 key=67 velocity: 106
@66240 Channel: 4 Note on, D3 key=50 velocity: 106
@66240 Channel: 4 Note on, D2 key=38 velocity: 106
@66241 Channel: 4 Note on, A4 key=69 velocity: 100
@66242 Channel: 4 Note on, D4 key=62 velocity: 106
@66277 Channel: 4 Note off, A4 key=69 velocity: 100
@66291 Channel: 4 Note off, D4 key=62 velocity: 106
@66305 Channel: 4 Note off, D2 key=38 velocity: 106
@66338 Channel: 4 Note off, D3 key=50 velocity: 106
@66361 Channel: 4 Note on, A4 key=69 velocity: 91
@66362 Channel: 4 Note on, D4 key=62 velocity: 100
@66399 Channel: 4 Note off, A4 key=69 velocity: 91
@66408 Channel: 4 Note off, D4 key=62 velocity: 100
@66481 Channel: 4 Note on, A4 key=69 velocity: 97
@66482 Channel: 4 Note on, D4 key=62 velocity: 95
@66521 Channel: 4 Note off, A4 key=69 velocity: 97
@66532 Channel: 4 Note off, D4 key=62 velocity: 95
@66601 Channel: 4 Note on, A4 key=69 velocity: 90
@66603 Channel: 4 Note on, D4 key=62 velocity: 102
@66638 Channel: 4 Note off, A4 key=69 velocity: 90
@66649 Channel: 4 Note off, D4 key=62 velocity: 102
@66720 Channel: 4 Note on, D3 key=50 velocity: 104
@66720 Channel: 4 Note on, D2 key=38 velocity: 117
@66721 Channel: 4 Note on, A4 key=69 velocity: 94
@66723 Channel: 4 Note on, D4 key=62 velocity: 95
@66760 Channel: 4 Note off, A4 key=69 velocity: 94
@66766 Channel: 4 Note off, D4 key=62 velocity: 95
@66789 Channel: 4 Note off, D2 key=38 velocity: 117
@66815 Channel: 4 Note off, D3 key=50 velocity: 104
@66840 Channel: 4 Note on, A4 key=69 velocity: 91
@66842 Channel: 4 Note on, D4 key=62 velocity: 94
@66878 Channel: 4 Note off, A4 key=69 velocity: 91
@66890 Channel: 4 Note off, D4 key=62 velocity: 94
@66959 Channel: 4 Note on, A4 key=69 velocity: 92
@66962 Channel: 4 Note on, D4 key=62 velocity: 98
@66999 Channel: 4 Note off, A4 key=69 velocity: 92
@67005 Channel: 4 Note off, D4 key=62 velocity: 98
@67079 Channel: 4 Note on, A4 key=69 velocity: 92
@67082 Channel: 4 Note on, D4 key=62 velocity: 104
@67118 Channel: 4 Note off, A4 key=69 velocity: 92
@67130 Channel: 4 Note off, D4 key=62 velocity: 104
@67198 Channel: 4 Note on, A4 key=69 velocity: 94
@67200 Channel: 4 Note on, D3 key=50 velocity: 95
@67200 Channel: 4 Note on, D2 key=38 velocity: 108
@67202 Channel: 4 Note on, D4 key=62 velocity: 95
@67237 Channel: 4 Note off, A4 key=69 velocity: 94
@67246 Channel: 4 Note off, D4 key=62 velocity: 95
@67259 Channel: 4 Note off, D2 key=38 velocity: 108
@67307 Channel: 4 Note off, D3 key=50 velocity: 95
@67317 Channel: 4 Note on, A4 key=69 velocity: 90
@67321 Channel: 4 Note on, D4 key=62 velocity: 95
@67362 Channel: 4 Note off, A4 key=69 velocity: 90
@67363 Channel: 4 Note off, D4 key=62 velocity: 95
@67437 Channel: 4 Note on, A4 key=69 velocity: 94
@67441 Channel: 4 Note on, D4 key=62 velocity: 98
@67477 Channel: 4 Note off, A4 key=69 velocity: 94
@67487 Channel: 4 Note off, D4 key=62 velocity: 98
@67558 Channel: 4 Note on, A4 key=69 velocity: 95
@67561 Channel: 4 Note on, D4 key=62 velocity: 97
@67602 Channel: 4 Note off, A4 key=69 velocity: 95
@67609 Channel: 4 Note off, D4 key=62 velocity: 97
@67679 Channel: 4 Note on, A4 key=69 velocity: 94
@67680 Channel: 4 Note on, G2 key=43 velocity: 104
@67680 Channel: 4 Note on, G1 key=31 velocity: 112
@67681 Channel: 4 Note on, G4 key=67 velocity: 106
@67723 Channel: 4 Note off, A4 key=69 velocity: 94
@67731 Channel: 4 Note off, G4 key=67 velocity: 106
@67763 Channel: 4 Note off, G1 key=31 velocity: 112
@67783 Channel: 4 Note off, G2 key=43 velocity: 104
@67799 Channel: 4 Note on, A4 key=69 velocity: 92
@67800 Channel: 4 Note on, G4 key=67 velocity: 104
@67839 Channel: 4 Note off, A4 key=69 velocity: 92
@67851 Channel: 4 Note off, G4 key=67 velocity: 104
@67919 Channel: 4 Note on, A4 key=69 velocity: 94
@67920 Channel: 4 Note on, G4 key=67 velocity: 97
@67961 Channel: 4 Note off, A4 key=69 velocity: 94
@67972 Channel: 4 Note off, G4 key=67 velocity: 97
@68039 Channel: 4 Note on, G4 key=67 velocity: 92
@68039 Channel: 4 Note on, A4 key=69 velocity: 94
@68079 Channel: 4 Note off, A4 key=69 velocity: 94
@68086 Channel: 4 Note off, G4 key=67 velocity: 92
@68159 Channel: 4 Note on, G4 key=67 velocity: 91
@68159 Channel: 4 Note on, A4 key=69 velocity: 98
@68160 Channel: 4 Note on, G2 key=43 velocity: 106
@68160 Channel: 4 Note on, G1 key=31 velocity: 120
@68197 Channel: 4 Note off, A4 key=69 velocity: 98
@68207 Channel: 4 Note off, G4 key=67 velocity: 91
@68227 Channel: 4 Note off, G1 key=31 velocity: 120
@68253 Channel: 4 Note off, G2 key=43 velocity: 106
@68278 Channel: 4 Note on, A4 key=69 velocity: 94
@68279 Channel: 4 Note on, G4 key=67 velocity: 92
@68322 Channel: 4 Note off, A4 key=69 velocity: 94
@68331 Channel: 4 Note off, G4 key=67 velocity: 92
@68399 Channel: 4 Note on, A4 key=69 velocity: 94
@68400 Channel: 4 Note on, G4 key=67 velocity: 95
@68441 Channel: 4 Note off, A4 key=69 velocity: 94
@68452 Channel: 4 Note off, G4 key=67 velocity: 95
@68519 Channel: 4 Note on, A4 key=69 velocity: 94
@68520 Channel: 4 Note on, G4 key=67 velocity: 94
@68562 Channel: 4 Note off, A4 key=69 velocity: 94
@68567 Channel: 4 Note off, G4 key=67 velocity: 94
@68639 Channel: 4 Note on, A4 key=69 velocity: 94
@68640 Channel: 4 Note on, G4 key=67 velocity: 104
@68640 Channel: 4 Note on, G2 key=43 velocity: 108
@68640 Channel: 4 Note on, G1 key=31 velocity: 120
@68686 Channel: 4 Note off, A4 key=69 velocity: 94
@68689 Channel: 4 Note off, G4 key=67 velocity: 104
@68715 Channel: 4 Note off, G1 key=31 velocity: 120
@68725 Channel: 4 Note off, G2 key=43 velocity: 108
@68760 Channel: 4 Note on, G4 key=67 velocity: 94
@68760 Channel: 4 Note on, A4 key=69 velocity: 94
@68800 Channel: 4 Note off, A4 key=69 velocity: 94
@68809 Channel: 4 Note off, G4 key=67 velocity: 94
@68880 Channel: 4 Note on, G4 key=67 velocity: 100
@68880 Channel: 4 Note on, A4 key=69 velocity: 98
@68924 Channel: 4 Note off, A4 key=69 velocity: 98
@68926 Channel: 4 Note off, G4 key=67 velocity: 100
@69000 Channel: 4 Note on, G4 key=67 velocity: 106
@69000 Channel: 4 Note on, A4 key=69 velocity: 95
@69039 Channel: 4 Note off, A4 key=69 velocity: 95
@69051 Channel: 4 Note off, G4 key=67 velocity: 106
@69120 Channel: 4 Note on, D4 key=62 velocity: 98
@69120 Channel: 4 Note on, A4 key=69 velocity: 100
@69120 Channel: 4 Note on, D3 key=50 velocity: 108
@69120 Channel: 4 Note on, D2 key=38 velocity: 98
@69159 Channel: 4 Note off, A4 key=69 velocity: 100
@69167 Channel: 4 Note off, D4 key=62 velocity: 98
@69183 Channel: 4 Note off, D2 key=38 velocity: 98
@69209 Channel: 4 Note off, D3 key=50 velocity: 108
@69240 Channel: 4 Note on, D4 key=62 velocity: 92
@69240 Channel: 4 Note on, A4 key=69 velocity: 97
@69280 Channel: 4 Note off, A4 key=69 velocity: 97
@69288 Channel: 4 Note off, D4 key=62 velocity: 92
@69360 Channel: 4 Note on, D4 key=62 velocity: 92
@69360 Channel: 4 Note on, A4 key=69 velocity: 102
@69397 Channel: 4 Note off, A4 key=69 velocity: 102
@69413 Channel: 4 Note off, D4 key=62 velocity: 92
@69480 Channel: 4 Note on, A4 key=69 velocity: 106
@69481 Channel: 4 Note on, D4 key=62 velocity: 90
@69523 Channel: 4 Note off, A4 key=69 velocity: 106
@69532 Channel: 4 Note off, D4 key=62 velocity: 90
@69600 Channel: 4 Note on, A4 key=69 velocity: 95
@69600 Channel: 4 Note on, D3 key=50 velocity: 102
@69600 Channel: 4 Note on, D2 key=38 velocity: 108
@69601 Channel: 4 Note on, D4 key=62 velocity: 94
@69642 Channel: 4 Note off, A4 key=69 velocity: 95
@69653 Channel: 4 Note off, D4 key=62 velocity: 94
@69666 Channel: 4 Note off, D2 key=38 velocity: 108
@69686 Channel: 4 Note off, D3 key=50 velocity: 102
@69719 Channel: 4 Note on, A4 key=69 velocity: 97
@69720 Channel: 4 Note on, D4 key=62 velocity: 88
@69758 Channel: 4 Note off, A4 key=69 velocity: 97
@69774 Channel: 4 Note off, D4 key=62 velocity: 88
@69839 Channel: 4 Note on, A4 key=69 velocity: 106
@69840 Channel: 4 Note on, D4 key=62 velocity: 91
@69878 Channel: 4 Note off, A4 key=69 velocity: 106
@69894 Channel: 4 Note off, D4 key=62 velocity: 91
@69958 Channel: 4 Note on, A4 key=69 velocity: 98
@69960 Channel: 4 Note on, D4 key=62 velocity: 91
@70002 Channel: 4 Note off, A4 key=69 velocity: 98
@70009 Channel: 4 Note off, D4 key=62 velocity: 91
@70078 Channel: 4 Note on, A4 key=69 velocity: 97
@70080 Channel: 4 Note on, D3 key=50 velocity: 106
@70080 Channel: 4 Note on, D2 key=38 velocity: 112
@70081 Channel: 4 Note on, D4 key=62 velocity: 95
@70118 Channel: 4 Note off, A4 key=69 velocity: 97
@70136 Channel: 4 Note off, D4 key=62 velocity: 95
@70148 Channel: 4 Note off, D2 key=38 velocity: 112
@70176 Channel: 4 Note off, D3 key=50 velocity: 106
@70198 Channel: 4 Note on, A4 key=69 velocity: 95
@70201 Channel: 4 Note on, D4 key=62 velocity: 94
@70241 Channel: 4 Note off, A4 key=69 velocity: 95
@70249 Channel: 4 Note off, D4 key=62 velocity: 94
@70319 Channel: 4 Note on, A4 key=69 velocity: 97
@70321 Channel: 4 Note on, D4 key=62 velocity: 95
@70359 Channel: 4 Note off, A4 key=69 velocity: 97
@70369 Channel: 4 Note off, D4 key=62 velocity: 95
@70439 Channel: 4 Note on, A4 key=69 velocity: 102
@70442 Channel: 4 Note on, D4 key=62 velocity: 98
@70477 Channel: 4 Note off, A4 key=69 velocity: 102
@70491 Channel: 4 Note off, D4 key=62 velocity: 98
@70559 Channel: 4 Note on, A4 key=69 velocity: 104
@70560 Channel: 4 Note on, G2 key=43 velocity: 108
@70560 Channel: 4 Note on, G1 key=31 velocity: 120
@70562 Channel: 4 Note on, G4 key=67 velocity: 106
@70600 Channel: 4 Note off, A4 key=69 velocity: 104
@70610 Channel: 4 Note off, G4 key=67 velocity: 106
@70634 Channel: 4 Note off, G1 key=31 velocity: 120
@70656 Channel: 4 Note off, G2 key=43 velocity: 108
@70680 Channel: 4 Note on, A4 key=69 velocity: 98
@70682 Channel: 4 Note on, G4 key=67 velocity: 97
@70717 Channel: 4 Note off, A4 key=69 velocity: 98
@70731 Channel: 4 Note off, G4 key=67 velocity: 97
@70799 Channel: 4 Note on, A4 key=69 velocity: 100
@70801 Channel: 4 Note on, G4 key=67 velocity: 98
@70839 Channel: 4 Note off, A4 key=69 velocity: 100
@70855 Channel: 4 Note off, G4 key=67 velocity: 98
@70919 Channel: 4 Note on, A4 key=69 velocity: 98
@70921 Channel: 4 Note on, G4 key=67 velocity: 91
@70957 Channel: 4 Note off, A4 key=69 velocity: 98
@70972 Channel: 4 Note off, G4 key=67 velocity: 91
@71039 Channel: 4 Note on, A4 key=69 velocity: 100
@71040 Channel: 4 Note on, G2 key=43 velocity: 108
@71040 Channel: 4 Note on, G1 key=31 velocity: 122
@71041 Channel: 4 Note on, G4 key=67 velocity: 94
@71080 Channel: 4 Note off, A4 key=69 velocity: 100
@71093 Channel: 4 Note off, G4 key=67 velocity: 94
@71119 Channel: 4 Note off, G1 key=31 velocity: 122
@71137 Channel: 4 Note off, G2 key=43 velocity: 108
@71158 Channel: 4 Note on, A4 key=69 velocity: 86
@71161 Channel: 4 Note on, G4 key=67 velocity: 91
@71199 Channel: 4 Note off, A4 key=69 velocity: 86
@71212 Channel: 4 Note off, G4 key=67 velocity: 91
@71278 Channel: 4 Note on, A4 key=69 velocity: 95
@71282 Channel: 4 Note on, G4 key=67 velocity: 92
@71319 Channel: 4 Note off, A4 key=69 velocity: 95
@71332 Channel: 4 Note off, G4 key=67 velocity: 92
@71398 Channel: 4 Note on, A4 key=69 velocity: 94
@71401 Channel: 4 Note on, G4 key=67 velocity: 98
@71440 Channel: 4 Note off, A4 key=69 velocity: 94
@71444 Channel: 4 Note off, G4 key=67 velocity: 98
@71518 Channel: 4 Note on, A4 key=69 velocity: 100
@71520 Channel: 4 Note on, G2 key=43 velocity: 108
@71520 Channel: 4 Note on, G1 key=31 velocity: 110
@71521 Channel: 4 Note on, G4 key=67 velocity: 100
@71557 Channel: 4 Note off, A4 key=69 velocity: 100
@71566 Channel: 4 Note off, G4 key=67 velocity: 100
@71596 Channel: 4 Note off, G1 key=31 velocity: 110
@71619 Channel: 4 Note off, G2 key=43 velocity: 108
@71638 Channel: 4 Note on, A4 key=69 velocity: 97
@71641 Channel: 4 Note on, G4 key=67 velocity: 102
@71677 Channel: 4 Note off, A4 key=69 velocity: 97
@71687 Channel: 4 Note off, G4 key=67 velocity: 102
@71759 Channel: 4 Note on, A4 key=69 velocity: 95
@71762 Channel: 4 Note on, G4 key=67 velocity: 94
@71802 Channel: 4 Note off, A4 key=69 velocity: 95
@71807 Channel: 4 Note off, G4 key=67 velocity: 94
@71880 Channel: 4 Note on, A4 key=69 velocity: 97
@71881 Channel: 4 Note on, G4 key=67 velocity: 102
@71920 Channel: 4 Note off, A4 key=69 velocity: 97
@71935 Channel: 4 Note off, G4 key=67 velocity: 102
@72000 Channel: 4 Note on, D4 key=62 velocity: 98
@72000 Channel: 4 Note on, D3 key=50 velocity: 106
@72000 Channel: 4 Note on, D2 key=38 velocity: 104
@72001 Channel: 4 Note on, A4 key=69 velocity: 98
@72046 Channel: 4 Note off, A4 key=69 velocity: 98
@72050 Channel: 4 Note off, D4 key=62 velocity: 98
@72070 Channel: 4 Note off, D2 key=38 velocity: 104
@72112 Channel: 4 Note off, D3 key=50 velocity: 106
@72120 Channel: 4 Note on, D4 key=62 velocity: 87
@72122 Channel: 4 Note on, A4 key=69 velocity: 94
@72147 Channel: 4 Note off, A4 key=69 velocity: 94
@72171 Channel: 4 Note off, D4 key=62 velocity: 87
@72241 Channel: 4 Note on, D4 key=62 velocity: 91
@72242 Channel: 4 Note on, A4 key=69 velocity: 100
@72284 Channel: 4 Note off, A4 key=69 velocity: 100
@72296 Channel: 4 Note off, D4 key=62 velocity: 91
@72362 Channel: 4 Note on, D4 key=62 velocity: 91
@72362 Channel: 4 Note on, A4 key=69 velocity: 95
@72403 Channel: 4 Note off, A4 key=69 velocity: 95
@72412 Channel: 4 Note off, D4 key=62 velocity: 91
@72480 Channel: 4 Note on, D3 key=50 velocity: 95
@72480 Channel: 4 Note on, D2 key=38 velocity: 108
@72481 Channel: 4 Note on, D4 key=62 velocity: 91
@72482 Channel: 4 Note on, A4 key=69 velocity: 97
@72520 Channel: 4 Note off, A4 key=69 velocity: 97
@72536 Channel: 4 Note off, D4 key=62 velocity: 91
@72557 Channel: 4 Note off, D2 key=38 velocity: 108
@72602 Channel: 4 Note on, A4 key=69 velocity: 97
@72603 Channel: 4 Note on, D4 key=62 velocity: 90
@72606 Channel: 4 Note off, D3 key=50 velocity: 95
@72637 Channel: 4 Note off, A4 key=69 velocity: 97
@72655 Channel: 4 Note off, D4 key=62 velocity: 90
@72721 Channel: 4 Note on, A4 key=69 velocity: 98
@72722 Channel: 4 Note on, D4 key=62 velocity: 85
@72761 Channel: 4 Note off, A4 key=69 velocity: 98
@72774 Channel: 4 Note off, D4 key=62 velocity: 85
@72841 Channel: 4 Note on, A4 key=69 velocity: 86
@72843 Channel: 4 Note on, D4 key=62 velocity: 84
@72880 Channel: 4 Note off, A4 key=69 velocity: 86
@72890 Channel: 4 Note off, D4 key=62 velocity: 84
@72960 Channel: 4 Note on, A4 key=69 velocity: 91
@72960 Channel: 4 Note on, D3 key=50 velocity: 104
@72960 Channel: 4 Note on, D2 key=38 velocity: 110
@72962 Channel: 4 Note on, D4 key=62 velocity: 86
@73001 Channel: 4 Note off, A4 key=69 velocity: 91
@73016 Channel: 4 Note off, D4 key=62 velocity: 86
@73031 Channel: 4 Note off, D2 key=38 velocity: 110
@73052 Channel: 4 Note off, D3 key=50 velocity: 104
@73080 Channel: 4 Note on, A4 key=69 velocity: 91
@73082 Channel: 4 Note on, D4 key=62 velocity: 81
@73126 Channel: 4 Note off, A4 key=69 velocity: 91
@73132 Channel: 4 Note off, D4 key=62 velocity: 81
@73200 Channel: 4 Note on, A4 key=69 velocity: 92
@73203 Channel: 4 Note on, D4 key=62 velocity: 85
@73242 Channel: 4 Note off, A4 key=69 velocity: 92
@73258 Channel: 4 Note off, D4 key=62 velocity: 85
@73319 Channel: 4 Note on, A4 key=69 velocity: 84
@73322 Channel: 4 Note on, D4 key=62 velocity: 83
@73362 Channel: 4 Note off, A4 key=69 velocity: 84
@73376 Channel: 4 Note off, D4 key=62 velocity: 83
@73440 Channel: 4 Note on, A4 key=69 velocity: 97
@73440 Channel: 4 Note on, A2 key=45 velocity: 100
@73440 Channel: 4 Note on, A1 key=33 velocity: 117
@73482 Channel: 4 Note off, A4 key=69 velocity: 97
@73523 Channel: 4 Note off, A1 key=33 velocity: 117
@73537 Channel: 4 Note off, A2 key=45 velocity: 100
@73560 Channel: 4 Note on, A4 key=69 velocity: 92
@73602 Channel: 4 Note off, A4 key=69 velocity: 92
@73679 Channel: 4 Note on, A4 key=69 velocity: 92
@73722 Channel: 4 Note off, A4 key=69 velocity: 92
@73799 Channel: 4 Note on, A4 key=69 velocity: 84
@73840 Channel: 4 Note off, A4 key=69 velocity: 84
@73919 Channel: 4 Note on, A4 key=69 velocity: 95
@73920 Channel: 4 Note on, A2 key=45 velocity: 108
@73920 Channel: 4 Note on, A1 key=33 velocity: 122
@73961 Channel: 4 Note off, A4 key=69 velocity: 95
@74013 Channel: 4 Note off, A2 key=45 velocity: 108
@74015 Channel: 4 Note off, A1 key=33 velocity: 122
@74039 Channel: 4 Note on, A4 key=69 velocity: 97
@74081 Channel: 4 Note off, A4 key=69 velocity: 97
@74159 Channel: 4 Note on, A4 key=69 velocity: 100
@74196 Channel: 4 Note off, A4 key=69 velocity: 100
@74278 Channel: 4 Note on, A4 key=69 velocity: 92
@74318 Channel: 4 Note off, A4 key=69 velocity: 92
@74398 Channel: 4 Note on, A4 key=69 velocity: 95
@74400 Channel: 4 Note on, A2 key=45 velocity: 114
@74400 Channel: 4 Note on, A1 key=33 velocity: 127
@74441 Channel: 4 Note off, A4 key=69 velocity: 95
@74476 Channel: 4 Note off, A1 key=33 velocity: 127
@74482 Channel: 4 Note off, A2 key=45 velocity: 114
@74517 Channel: 4 Note on, A4 key=69 velocity: 92
@74556 Channel: 4 Note off, A4 key=69 velocity: 92
@74637 Channel: 4 Note on, A4 key=69 velocity: 97
@74678 Channel: 4 Note off, A4 key=69 velocity: 97
@74758 Channel: 4 Note on, A4 key=69 velocity: 98
@74798 Channel: 4 Note off, A4 key=69 velocity: 98
@74880 Channel: 4 Note on, D4 key=62 velocity: 104
@74880 Channel: 4 Note on, A4 key=69 velocity: 77
@74880 Channel: 4 Note on, D3 key=50 velocity: 114
@74880 Channel: 4 Note on, D2 key=38 velocity: 122
@74930 Channel: 4 Note off, A4 key=69 velocity: 77
@74934 Channel: 4 Note off, D4 key=62 velocity: 104
@74967 Channel: 4 Note off, D2 key=38 velocity: 122
@74982 Channel: 4 Note off, D3 key=50 velocity: 114
@75002 Channel: 4 Note on, A4 key=69 velocity: 73
@75003 Channel: 4 Note on, D4 key=62 velocity: 97
@75051 Channel: 4 Note off, A4 key=69 velocity: 73
@75052 Channel: 4 Note off, D4 key=62 velocity: 97
@75122 Channel: 4 Note on, A4 key=69 velocity: 77
@75123 Channel: 4 Note on, D4 key=62 velocity: 94
@75171 Channel: 4 Note off, A4 key=69 velocity: 77
@75174 Channel: 4 Note off, D4 key=62 velocity: 94
@75243 Channel: 4 Note on, A4 key=69 velocity: 83
@75244 Channel: 4 Note on, D4 key=62 velocity: 100
@75284 Channel: 4 Note off, A4 key=69 velocity: 83
@75293 Channel: 4 Note off, D4 key=62 velocity: 100
@75360 Channel: 4 Note on, D3 key=50 velocity: 108
@75360 Channel: 4 Note on, D2 key=38 velocity: 122
@75362 Channel: 4 Note on, A4 key=69 velocity: 94
@75363 Channel: 4 Note on, D4 key=62 velocity: 102
@75406 Channel: 4 Note off, A4 key=69 velocity: 94
@75410 Channel: 4 Note off, D4 key=62 velocity: 102
@75429 Channel: 4 Note off, D2 key=38 velocity: 122
@75443 Channel: 4 Note off, D3 key=50 velocity: 108
@75482 Channel: 4 Note on, D4 key=62 velocity: 95
@75482 Channel: 4 Note on, A4 key=69 velocity: 86
@75520 Channel: 4 Note off, A4 key=69 velocity: 86
@75526 Channel: 4 Note off, D4 key=62 velocity: 95
@75601 Channel: 4 Note on, A4 key=69 velocity: 91
@75602 Channel: 4 Note on, D4 key=62 velocity: 91
@75639 Channel: 4 Note off, A4 key=69 velocity: 91
@75648 Channel: 4 Note off, D4 key=62 velocity: 91
@75720 Channel: 4 Note on, A4 key=69 velocity: 81
@75721 Channel: 4 Note on, D4 key=62 velocity: 97
@75757 Channel: 4 Note off, A4 key=69 velocity: 81
@75768 Channel: 4 Note off, D4 key=62 velocity: 97
@75839 Channel: 4 Note on, A4 key=69 velocity: 98
@75840 Channel: 4 Note on, D3 key=50 velocity: 98
@75840 Channel: 4 Note on, D2 key=38 velocity: 110
@75841 Channel: 4 Note on, D4 key=62 velocity: 98
@75879 Channel: 4 Note off, A4 key=69 velocity: 98
@75889 Channel: 4 Note off, D4 key=62 velocity: 98
@75913 Channel: 4 Note off, D2 key=38 velocity: 110
@75936 Channel: 4 Note off, D3 key=50 velocity: 98
@75959 Channel: 4 Note on, A4 key=69 velocity: 97
@75961 Channel: 4 Note on, D4 key=62 velocity: 100
@76003 Channel: 4 Note off, A4 key=69 velocity: 97
@76006 Channel: 4 Note off, D4 key=62 velocity: 100
@76079 Channel: 4 Note on, A4 key=69 velocity: 94
@76082 Channel: 4 Note on, D4 key=62 velocity: 97
@76120 Channel: 4 Note off, A4 key=69 velocity: 94
@76129 Channel: 4 Note off, D4 key=62 velocity: 97
@76200 Channel: 4 Note on, A4 key=69 velocity: 98
@76202 Channel: 4 Note on, D4 key=62 velocity: 100
@76239 Channel: 4 Note off, A4 key=69 velocity: 98
@76249 Channel: 4 Note off, D4 key=62 velocity: 100
@76320 Channel: 4 Note on, G2 key=43 velocity: 110
@76320 Channel: 4 Note on, G1 key=31 velocity: 112
@76321 Channel: 4 Note on, A4 key=69 velocity: 102
@76323 Channel: 4 Note on, G4 key=67 velocity: 112
@76360 Channel: 4 Note off, A4 key=69 velocity: 102
@76373 Channel: 4 Note off, G4 key=67 velocity: 112
@76399 Channel: 4 Note off, G1 key=31 velocity: 112
@76419 Channel: 4 Note off, G2 key=43 velocity: 110
@76440 Channel: 4 Note on, A4 key=69 velocity: 97
@76442 Channel: 4 Note on, G4 key=67 velocity: 98
@76480 Channel: 4 Note off, A4 key=69 velocity: 97
@76486 Channel: 4 Note off, G4 key=67 velocity: 98
@76559 Channel: 4 Note on, A4 key=69 velocity: 106
@76561 Channel: 4 Note on, G4 key=67 velocity: 100
@76600 Channel: 4 Note off, A4 key=69 velocity: 106
@76609 Channel: 4 Note off, G4 key=67 velocity: 100
@76679 Channel: 4 Note on, A4 key=69 velocity: 95
@76682 Channel: 4 Note on, G4 key=67 velocity: 104
@76718 Channel: 4 Note off, A4 key=69 velocity: 95
@76729 Channel: 4 Note off, G4 key=67 velocity: 104
@76798 Channel: 4 Note on, A4 key=69 velocity: 100
@76800 Channel: 4 Note on, G2 key=43 velocity: 108
@76800 Channel: 4 Note on, G1 key=31 velocity: 114
@76801 Channel: 4 Note on, G4 key=67 velocity: 102
@76838 Channel: 4 Note off, A4 key=69 velocity: 100
@76849 Channel: 4 Note off, G4 key=67 velocity: 102
@76875 Channel: 4 Note off, G1 key=31 velocity: 114
@76881 Channel: 4 Note off, G2 key=43 velocity: 108
@76918 Channel: 4 Note on, A4 key=69 velocity: 98
@76921 Channel: 4 Note on, G4 key=67 velocity: 104
@76958 Channel: 4 Note off, A4 key=69 velocity: 98
@76967 Channel: 4 Note off, G4 key=67 velocity: 104
@77039 Channel: 4 Note on, A4 key=69 velocity: 97
@77042 Channel: 4 Note on, G4 key=67 velocity: 102
@77077 Channel: 4 Note off, A4 key=69 velocity: 97
@77089 Channel: 4 Note off, G4 key=67 velocity: 102
@77159 Channel: 4 Note on, A4 key=69 velocity: 100
@77162 Channel: 4 Note on, G4 key=67 velocity: 102
@77199 Channel: 4 Note off, A4 key=69 velocity: 100
@77210 Channel: 4 Note off, G4 key=67 velocity: 102
@77279 Channel: 4 Note on, A4 key=69 velocity: 95
@77280 Channel: 4 Note on, G2 key=43 velocity: 106
@77280 Channel: 4 Note on, G1 key=31 velocity: 114
@77282 Channel: 4 Note on, G4 key=67 velocity: 100
@77319 Channel: 4 Note off, A4 key=69 velocity: 95
@77327 Channel: 4 Note off, G4 key=67 velocity: 100
@77352 Channel: 4 Note off, G1 key=31 velocity: 114
@77365 Channel: 4 Note off, G2 key=43 velocity: 106
@77400 Channel: 4 Note on, A4 key=69 velocity: 97
@77402 Channel: 4 Note on, G4 key=67 velocity: 106
@77439 Channel: 4 Note off, A4 key=69 velocity: 97
@77445 Channel: 4 Note off, G4 key=67 velocity: 106
@77520 Channel: 4 Note on, A4 key=69 velocity: 98
@77522 Channel: 4 Note on, G4 key=67 velocity: 90
@77560 Channel: 4 Note off, A4 key=69 velocity: 98
@77568 Channel: 4 Note off, G4 key=67 velocity: 90
@77641 Channel: 4 Note on, A4 key=69 velocity: 91
@77642 Channel: 4 Note on, G4 key=67 velocity: 106
@77677 Channel: 4 Note off, A4 key=69 velocity: 91
@77693 Channel: 4 Note off, G4 key=67 velocity: 106
@77760 Channel: 4 Note on, D3 key=50 velocity: 106
@77760 Channel: 4 Note on, D2 key=38 velocity: 106
@77761 Channel: 4 Note on, A4 key=69 velocity: 100
@77762 Channel: 4 Note on, D4 key=62 velocity: 106
@77797 Channel: 4 Note off, A4 key=69 velocity: 100
@77811 Channel: 4 Note off, D4 key=62 velocity: 106
@77825 Channel: 4 Note off, D2 key=38 velocity: 106
@77858 Channel: 4 Note off, D3 key=50 velocity: 106
@77881 Channel: 4 Note on, A4 key=69 velocity: 91
@77882 Channel: 4 Note on, D4 key=62 velocity: 100
@77919 Channel: 4 Note off, A4 key=69 velocity: 91
@77928 Channel: 4 Note off, D4 key=62 velocity: 100
@78001 Channel: 4 Note on, A4 key=69 velocity: 97
@78002 Channel: 4 Note on, D4 key=62 velocity: 95
@78041 Channel: 4 Note off, A4 key=69 velocity: 97
@78052 Channel: 4 Note off, D4 key=62 velocity: 95
@78121 Channel: 4 Note on, A4 key=69 velocity: 90
@78123 Channel: 4 Note on, D4 key=62 velocity: 102
@78158 Channel: 4 Note off, A4 key=69 velocity: 90
@78169 Channel: 4 Note off, D4 key=62 velocity: 102
@78240 Channel: 4 Note on, D3 key=50 velocity: 104
@78240 Channel: 4 Note on, D2 key=38 velocity: 117
@78241 Channel: 4 Note on, A4 key=69 velocity: 94
@78243 Channel: 4 Note on, D4 key=62 velocity: 95
@78280 Channel: 4 Note off, A4 key=69 velocity: 94
@78286 Channel: 4 Note off, D4 key=62 velocity: 95
@78309 Channel: 4 Note off, D2 key=38 velocity: 117
@78335 Channel: 4 Note off, D3 key=50 velocity: 104
@78360 Channel: 4 Note on, A4 key=69 velocity: 91
@78362 Channel: 4 Note on, D4 key=62 velocity: 94
@78398 Channel: 4 Note off, A4 key=69 velocity: 91
@78410 Channel: 4 Note off, D4 key=62 velocity: 94
@78479 Channel: 4 Note on, A4 key=69 velocity: 92
@78482 Channel: 4 Note on, D4 key=62 velocity: 98
@78519 Channel: 4 Note off, A4 key=69 velocity: 92
@78525 Channel: 4 Note off, D4 key=62 velocity: 98
@78599 Channel: 4 Note on, A4 key=69 velocity: 92
@78602 Channel: 4 Note on, D4 key=62 velocity: 104
@78638 Channel: 4 Note off, A4 key=69 velocity: 92
@78650 Channel: 4 Note off, D4 key=62 velocity: 104
@78718 Channel: 4 Note on, A4 key=69 velocity: 94
@78720 Channel: 4 Note on, D3 key=50 velocity: 95
@78720 Channel: 4 Note on, D2 key=38 velocity: 108
@78722 Channel: 4 Note on, D4 key=62 velocity: 95
@78757 Channel: 4 Note off, A4 key=69 velocity: 94
@78766 Channel: 4 Note off, D4 key=62 velocity: 95
@78779 Channel: 4 Note off, D2 key=38 velocity: 108
@78827 Channel: 4 Note off, D3 key=50 velocity: 95
@78837 Channel: 4 Note on, A4 key=69 velocity: 90
@78841 Channel: 4 Note on, D4 key=62 velocity: 95
@78882 Channel: 4 Note off, A4 key=69 velocity: 90
@78883 Channel: 4 Note off, D4 key=62 velocity: 95
@78957 Channel: 4 Note on, A4 key=69 velocity: 94
@78961 Channel: 4 Note on, D4 key=62 velocity: 98
@78997 Channel: 4 Note off, A4 key=69 velocity: 94
@79007 Channel: 4 Note off, D4 key=62 velocity: 98
@79078 Channel: 4 Note on, A4 key=69 velocity: 95
@79081 Channel: 4 Note on, D4 key=62 velocity: 97
@79122 Channel: 4 Note off, A4 key=69 velocity: 95
@79129 Channel: 4 Note off, D4 key=62 velocity: 97
@79199 Channel: 4 Note on, A4 key=69 velocity: 94
@79200 Channel: 4 Note on, G2 key=43 velocity: 104
@79200 Channel: 4 Note on, G1 key=31 velocity: 112
@79201 Channel: 4 Note on, G4 key=67 velocity: 106
@79243 Channel: 4 Note off, A4 key=69 velocity: 94
@79251 Channel: 4 Note off, G4 key=67 velocity: 106
@79283 Channel: 4 Note off, G1 key=31 velocity: 112
@79303 Channel: 4 Note off, G2 key=43 velocity: 104
@79319 Channel: 4 Note on, A4 key=69 velocity: 92
@79320 Channel: 4 Note on, G4 key=67 velocity: 104
@79359 Channel: 4 Note off, A4 key=69 velocity: 92
@79371 Channel: 4 Note off, G4 key=67 velocity: 104
@79439 Channel: 4 Note on, A4 key=69 velocity: 94
@79440 Channel: 4 Note on, G4 key=67 velocity: 97
@79481 Channel: 4 Note off, A4 key=69 velocity: 94
@79492 Channel: 4 Note off, G4 key=67 velocity: 97
@79559 Channel: 4 Note on, G4 key=67 velocity: 92
@79559 Channel: 4 Note on, A4 key=69 velocity: 94
@79599 Channel: 4 Note off, A4 key=69 velocity: 94
@79606 Channel: 4 Note off, G4 key=67 velocity: 92
@79679 Channel: 4 Note on, G4 key=67 velocity: 91
@79679 Channel: 4 Note on, A4 key=69 velocity: 98
@79680 Channel: 4 Note on, G2 key=43 velocity: 106
@79680 Channel: 4 Note on, G1 key=31 velocity: 120
@79717 Channel: 4 Note off, A4 key=69 velocity: 98
@79727 Channel: 4 Note off, G4 key=67 velocity: 91
@79747 Channel: 4 Note off, G1 key=31 velocity: 120
@79773 Channel: 4 Note off, G2 key=43 velocity: 106
@79798 Channel: 4 Note on, A4 key=69 velocity: 94
@79799 Channel: 4 Note on, G4 key=67 velocity: 92
@79842 Channel: 4 Note off, A4 key=69 velocity: 94
@79851 Channel: 4 Note off, G4 key=67 velocity: 92
@79919 Channel: 4 Note on, A4 key=69 velocity: 94
@79920 Channel: 4 Note on, G4 key=67 velocity: 95
@79961 Channel: 4 Note off, A4 key=69 velocity: 94
@79972 Channel: 4 Note off, G4 key=67 velocity: 95
@80039 Channel: 4 Note on, A4 key=69 velocity: 94
@80040 Channel: 4 Note on, G4 key=67 velocity: 94
@80082 Channel: 4 Note off, A4 key=69 velocity: 94
@80087 Channel: 4 Note off, G4 key=67 velocity: 94
@80159 Channel: 4 Note on, A4 key=69 velocity: 94
@80160 Channel: 4 Note on, G4 key=67 velocity: 104
@80160 Channel: 4 Note on, G2 key=43 velocity: 108
@80160 Channel: 4 Note on, G1 key=31 velocity: 120
@80206 Channel: 4 Note off, A4 key=69 velocity: 94
@80209 Channel: 4 Note off, G4 key=67 velocity: 104
@80235 Channel: 4 Note off, G1 key=31 velocity: 120
@80245 Channel: 4 Note off, G2 key=43 velocity: 108
@80280 Channel: 4 Note on, G4 key=67 velocity: 94
@80280 Channel: 4 Note on, A4 key=69 velocity: 94
@80320 Channel: 4 Note off, A4 key=69 velocity: 94
@80329 Channel: 4 Note off, G4 key=67 velocity: 94
@80400 Channel: 4 Note on, G4 key=67 velocity: 100
@80400 Channel: 4 Note on, A4 key=69 velocity: 98
@80444 Channel: 4 Note off, A4 key=69 velocity: 98
@80446 Channel: 4 Note off, G4 key=67 velocity: 100
@80520 Channel: 4 Note on, G4 key=67 velocity: 106
@80520 Channel: 4 Note on, A4 key=69 velocity: 95
@80559 Channel: 4 Note off, A4 key=69 velocity: 95
@80571 Channel: 4 Note off, G4 key=67 velocity: 106
@80640 Channel: 4 Note on, D4 key=62 velocity: 98
@80640 Channel: 4 Note on, A4 key=69 velocity: 100
@80640 Channel: 4 Note on, D3 key=50 velocity: 108
@80640 Channel: 4 Note on, D2 key=38 velocity: 98
@80679 Channel: 4 Note off, A4 key=69 velocity: 100
@80687 Channel: 4 Note off, D4 key=62 velocity: 98
@80703 Channel: 4 Note off, D2 key=38 velocity: 98
@80729 Channel: 4 Note off, D3 key=50 velocity: 108
@80760 Channel: 4 Note on, D4 key=62 velocity: 92
@80760 Channel: 4 Note on, A4 key=69 velocity: 97
@80800 Channel: 4 Note off, A4 key=69 velocity: 97
@80808 Channel: 4 Note off, D4 key=62 velocity: 92
@80880 Channel: 4 Note on, D4 key=62 velocity: 92
@80880 Channel: 4 Note on, A4 key=69 velocity: 102
@80917 Channel: 4 Note off, A4 key=69 velocity: 102
@80933 Channel: 4 Note off, D4 key=62 velocity: 92
@81000 Channel: 4 Note on, A4 key=69 velocity: 106
@81001 Channel: 4 Note on, D4 key=62 velocity: 90
@81043 Channel: 4 Note off, A4 key=69 velocity: 106
@81052 Channel: 4 Note off, D4 key=62 velocity: 90
@81120 Channel: 4 Note on, A4 key=69 velocity: 95
@81120 Channel: 4 Note on, D3 key=50 velocity: 102
@81120 Channel: 4 Note on, D2 key=38 velocity: 108
@81121 Channel: 4 Note on, D4 key=62 velocity: 94
@81162 Channel: 4 Note off, A4 key=69 velocity: 95
@81173 Channel: 4 Note off, D4 key=62 velocity: 94
@81186 Channel: 4 Note off, D2 key=38 velocity: 108
@81206 Channel: 4 Note off, D3 key=50 velocity: 102
@81239 Channel: 4 Note on, A4 key=69 velocity: 97
@81240 Channel: 4 Note on, D4 key=62 velocity: 88
@81278 Channel: 4 Note off, A4 key=69 velocity: 97
@81294 Channel: 4 Note off, D4 key=62 velocity: 88
@81359 Channel: 4 Note on, A4 key=69 velocity: 106
@81360 Channel: 4 Note on, D4 key=62 velocity: 91
@81398 Channel: 4 Note off, A4 key=69 velocity: 106
@81414 Channel: 4 Note off, D4 key=62 velocity: 91
@81478 Channel: 4 Note on, A4 key=69 velocity: 98
@81480 Channel: 4 Note on, D4 key=62 velocity: 91
@81522 Channel: 4 Note off, A4 key=69 velocity: 98
@81529 Channel: 4 Note off, D4 key=62 velocity: 91
@81598 Channel: 4 Note on, A4 key=69 velocity: 97
@81600 Channel: 4 Note on, D3 key=50 velocity: 106
@81600 Channel: 4 Note on, D2 key=38 velocity: 112
@81601 Channel: 4 Note on, D4 key=62 velocity: 95
@81638 Channel: 4 Note off, A4 key=69 velocity: 97
@81656 Channel: 4 Note off, D4 key=62 velocity: 95
@81668 Channel: 4 Note off, D2 key=38 velocity: 112
@81696 Channel: 4 Note off, D3 key=50 velocity: 106
@81718 Channel: 4 Note on, A4 key=69 velocity: 95
@81721 Channel: 4 Note on, D4 key=62 velocity: 94
@81761 Channel: 4 Note off, A4 key=69 velocity: 95
@81769 Channel: 4 Note off, D4 key=62 velocity: 94
@81839 Channel: 4 Note on, A4 key=69 velocity: 97
@81841 Channel: 4 Note on, D4 key=62 velocity: 95
@81879 Channel: 4 Note off, A4 key=69 velocity: 97
@81889 Channel: 4 Note off, D4 key=62 velocity: 95
@81959 Channel: 4 Note on, A4 key=69 velocity: 102
@81962 Channel: 4 Note on, D4 key=62 velocity: 98
@81997 Channel: 4 Note off, A4 key=69 velocity: 102
@82011 Channel: 4 Note off, D4 key=62 velocity: 98
@82079 Channel: 4 Note on, A4 key=69 velocity: 104
@82080 Channel: 4 Note on, G2 key=43 velocity: 108
@82080 Channel: 4 Note on, G1 key=31 velocity: 120
@82082 Channel: 4 Note on, G4 key=67 velocity: 106
@82120 Channel: 4 Note off, A4 key=69 velocity: 104
@82130 Channel: 4 Note off, G4 key=67 velocity: 106
@82154 Channel: 4 Note off, G1 key=31 velocity: 120
@82176 Channel: 4 Note off, G2 key=43 velocity: 108
@82200 Channel: 4 Note on, A4 key=69 velocity: 98
@82202 Channel: 4 Note on, G4 key=67 velocity: 97
@82237 Channel: 4 Note off, A4 key=69 velocity: 98
@82251 Channel: 4 Note off, G4 key=67 velocity: 97
@82319 Channel: 4 Note on, A4 key=69 velocity: 100
@82321 Channel: 4 Note on, G4 key=67 velocity: 98
@82359 Channel: 4 Note off, A4 key=69 velocity: 100
@82375 Channel: 4 Note off, G4 key=67 velocity: 98
@82439 Channel: 4 Note on, A4 key=69 velocity: 98
@82441 Channel: 4 Note on, G4 key=67 velocity: 91
@82477 Channel: 4 Note off, A4 key=69 velocity: 98
@82492 Channel: 4 Note off, G4 key=67 velocity: 91
@82559 Channel: 4 Note on, A4 key=69 velocity: 100
@82560 Channel: 4 Note on, G2 key=43 velocity: 108
@82560 Channel: 4 Note on, G1 key=31 velocity: 122
@82561 Channel: 4 Note on, G4 key=67 velocity: 94
@82600 Channel: 4 Note off, A4 key=69 velocity: 100
@82613 Channel: 4 Note off, G4 key=67 velocity: 94
@82639 Channel: 4 Note off, G1 key=31 velocity: 122
@82657 Channel: 4 Note off, G2 key=43 velocity: 108
@82678 Channel: 4 Note on, A4 key=69 velocity: 86
@82681 Channel: 4 Note on, G4 key=67 velocity: 91
@82719 Channel: 4 Note off, A4 key=69 velocity: 86
@82732 Channel: 4 Note off, G4 key=67 velocity: 91
@82798 Channel: 4 Note on, A4 key=69 velocity: 95
@82802 Channel: 4 Note on, G4 key=67 velocity: 92
@82839 Channel: 4 Note off, A4 key=69 velocity: 95
@82852 Channel: 4 Note off, G4 key=67 velocity: 92
@82918 Channel: 4 Note on, A4 key=69 velocity: 94
@82921 Channel: 4 Note on, G4 key=67 velocity: 98
@82960 Channel: 4 Note off, A4 key=69 velocity: 94
@82964 Channel: 4 Note off, G4 key=67 velocity: 98
@83038 Channel: 4 Note on, A4 key=69 velocity: 100
@83040 Channel: 4 Note on, G2 key=43 velocity: 108
@83040 Channel: 4 Note on, G1 key=31 velocity: 110
@83041 Channel: 4 Note on, G4 key=67 velocity: 100
@83077 Channel: 4 Note off, A4 key=69 velocity: 100
@83086 Channel: 4 Note off, G4 key=67 velocity: 100
@83116 Channel: 4 Note off, G1 key=31 velocity: 110
@83139 Channel: 4 Note off, G2 key=43 velocity: 108
@83158 Channel: 4 Note on, A4 key=69 velocity: 97
@83161 Channel: 4 Note on, G4 key=67 velocity: 102
@83197 Channel: 4 Note off, A4 key=69 velocity: 97
@83207 Channel: 4 Note off, G4 key=67 velocity: 102
@83279 Channel: 4 Note on, A4 key=69 velocity: 95
@83282 Channel: 4 Note on, G4 key=67 velocity: 94
@83322 Channel: 4 Note off, A4 key=69 velocity: 95
@83327 Channel: 4 Note off, G4 key=67 velocity: 94
@83400 Channel: 4 Note on, A4 key=69 velocity: 97
@83401 Channel: 4 Note on, G4 key=67 velocity: 102
@83440 Channel: 4 Note off, A4 key=69 velocity: 97
@83455 Channel: 4 Note off, G4 key=67 velocity: 102
@83520 Channel: 4 Note on, D4 key=62 velocity: 98
@83520 Channel: 4 Note on, D3 key=50 velocity: 106
@83520 Channel: 4 Note on, D2 key=38 velocity: 104
@83521 Channel: 4 Note on, A4 key=69 velocity: 98
@83566 Channel: 4 Note off, A4 key=69 velocity: 98
@83570 Channel: 4 Note off, D4 key=62 velocity: 98
@83590 Channel: 4 Note off, D2 key=38 velocity: 104
@83632 Channel: 4 Note off, D3 key=50 velocity: 106
@83640 Channel: 4 Note on, D4 key=62 velocity: 87
@83642 Channel: 4 Note on, A4 key=69 velocity: 94
@83667 Channel: 4 Note off, A4 key=69 velocity: 94
@83691 Channel: 4 Note off, D4 key=62 velocity: 87
@83761 Channel: 4 Note on, D4 key=62 velocity: 91
@83762 Channel: 4 Note on, A4 key=69 velocity: 100
@83804 Channel: 4 Note off, A4 key=69 velocity: 100
@83816 Channel: 4 Note off, D4 key=62 velocity: 91
@83882 Channel: 4 Note on, D4 key=62 velocity: 91
@83882 Channel: 4 Note on, A4 key=69 velocity: 95
@83923 Channel: 4 Note off, A4 key=69 velocity: 95
@83932 Channel: 4 Note off, D4 key=62 velocity: 91
@84000 Channel: 4 Note on, D3 key=50 velocity: 95
@84000 Channel: 4 Note on, D2 key=38 velocity: 108
@84001 Channel: 4 Note on, D4 key=62 velocity: 91
@84002 Channel: 4 Note on, A4 key=69 velocity: 97
@84040 Channel: 4 Note off, A4 key=69 velocity: 97
@84056 Channel: 4 Note off, D4 key=62 velocity: 91
@84077 Channel: 4 Note off, D2 key=38 velocity: 108
@84122 Channel: 4 Note on, A4 key=69 velocity: 97
@84123 Channel: 4 Note on, D4 key=62 velocity: 90
@84126 Channel: 4 Note off, D3 key=50 velocity: 95
@84157 Channel: 4 Note off, A4 key=69 velocity: 97
@84175 Channel: 4 Note off, D4 key=62 velocity: 90
@84241 Channel: 4 Note on, A4 key=69 velocity: 98
@84242 Channel: 4 Note on, D4 key=62 velocity: 85
@84281 Channel: 4 Note off, A4 key=69 velocity: 98
@84294 Channel: 4 Note off, D4 key=62 velocity: 85
@84361 Channel: 4 Note on, A4 key=69 velocity: 86
@84363 Channel: 4 Note on, D4 key=62 velocity: 84
@84400 Channel: 4 Note off, A4 key=69 velocity: 86
@84410 Channel: 4 Note off, D4 key=62 velocity: 84
@84480 Channel: 4 Note on, A4 key=69 velocity: 91
@84480 Channel: 4 Note on, D3 key=50 velocity: 104
@84480 Channel: 4 Note on, D2 key=38 velocity: 110
@84482 Channel: 4 Note on, D4 key=62 velocity: 86
@84521 Channel: 4 Note off, A4 key=69 velocity: 91
@84536 Channel: 4 Note off, D4 key=62 velocity: 86
@84551 Channel: 4 Note off, D2 key=38 velocity: 110
@84572 Channel: 4 Note off, D3 key=50 velocity: 104
@84600 Channel: 4 Note on, A4 key=69 velocity: 91
@84602 Channel: 4 Note on, D4 key=62 velocity: 81
@84646 Channel: 4 Note off, A4 key=69 velocity: 91
@84652 Channel: 4 Note off, D4 key=62 velocity: 81
@84720 Channel: 4 Note on, A4 key=69 velocity: 92
@84723 Channel: 4 Note on, D4 key=62 velocity: 85
@84762 Channel: 4 Note off, A4 key=69 velocity: 92
@84778 Channel: 4 Note off, D4 key=62 velocity: 85
@84839 Channel: 4 Note on, A4 key=69 velocity: 84
@84842 Channel: 4 Note on, D4 key=62 velocity: 83
@84882 Channel: 4 Note off, A4 key=69 velocity: 84
@84896 Channel: 4 Note off, D4 key=62 velocity: 83
@84960 Channel: 4 Note on, A4 key=69 velocity: 97
@84960 Channel: 4 Note on, A2 key=45 velocity: 100
@84960 Channel: 4 Note on, A1 key=33 velocity: 117
@85002 Channel: 4 Note off, A4 key=69 velocity: 97
@85043 Channel: 4 Note off, A1 key=33 velocity: 117
@85057 Channel: 4 Note off, A2 key=45 velocity: 100
@85080 Channel: 4 Note on, A4 key=69 velocity: 92
@85122 Channel: 4 Note off, A4 key=69 velocity: 92
@85199 Channel: 4 Note on, A4 key=69 velocity: 92
@85242 Channel: 4 Note off, A4 key=69 velocity: 92
@85319 Channel: 4 Note on, A4 key=69 velocity: 84
@85360 Channel: 4 Note off, A4 key=69 velocity: 84
@85439 Channel: 4 Note on, A4 key=69 velocity: 95
@85440 Channel: 4 Note on, A2 key=45 velocity: 108
@85440 Channel: 4 Note on, A1 key=33 velocity: 122
@85481 Channel: 4 Note off, A4 key=69 velocity: 95
@85533 Channel: 4 Note off, A2 key=45 velocity: 108
@85535 Channel: 4 Note off, A1 key=33 velocity: 122
@85559 Channel: 4 Note on, A4 key=69 velocity: 97
@85601 Channel: 4 Note off, A4 key=69 velocity: 97
@85679 Channel: 4 Note on, A4 key=69 velocity: 88
@85716 Channel: 4 Note off, A4 key=69 velocity: 88
@85798 Channel: 4 Note on, A4 key=69 velocity: 80
@85842 Channel: 4 Note off, A4 key=69 velocity: 80
@85918 Channel: 4 Note on, A4 key=69 velocity: 74
@85920 Channel: 4 Note on, A2 key=45 velocity: 114
@85920 Channel: 4 Note on, A1 key=33 velocity: 127
@85961 Channel: 4 Note off, A4 key=69 velocity: 74
@85996 Channel: 4 Note off, A1 key=33 velocity: 127
@86002 Channel: 4 Note off, A2 key=45 velocity: 114
@86037 Channel: 4 Note on, A4 key=69 velocity: 74
@86076 Channel: 4 Note off, A4 key=69 velocity: 74
@86157 Channel: 4 Note on, A4 key=69 velocity: 76
@86198 Channel: 4 Note off, A4 key=69 velocity: 76
@86278 Channel: 4 Note on, A4 key=69 velocity: 74
@86318 Channel: 4 Note off, A4 key=69 velocity: 74
@86400 Channel: 4 Command:176
@86400 Channel: 4 Note on, D3 key=50 velocity: 92
@86404 Channel: 4 Note on, A4 key=69 velocity: 84
@86404 Channel: 4 Note on, D2 key=38 velocity: 100
@86405 Channel: 4 Note on, D4 key=62 velocity: 80
@86481 Channel: 4 Note off, D2 key=38 velocity: 100
@86483 Channel: 4 Note off, D3 key=50 velocity: 92
@86488 Channel: 4 Note off, A4 key=69 velocity: 84
@86493 Channel: 4 Note off, D4 key=62 velocity: 80
@86644 Channel: 4 Note on, D4 key=62 velocity: 70
@86644 Channel: 4 Note on, A4 key=69 velocity: 74
@86696 Channel: 4 Note off, A4 key=69 velocity: 74
@86704 Channel: 4 Note off, D4 key=62 velocity: 70
@86763 Channel: 4 Note on, D4 key=62 velocity: 64
@86763 Channel: 4 Note on, A4 key=69 velocity: 69
@86806 Channel: 4 Note off, A4 key=69 velocity: 69
@86815 Channel: 4 Note off, D4 key=62 velocity: 64
@86869 Channel: 4 Note on, D2 key=38 velocity: 83
@86873 Channel: 4 Note on, D3 key=50 velocity: 70
@86882 Channel: 4 Note on, A4 key=69 velocity: 81
@86883 Channel: 4 Note on, D4 key=62 velocity: 75
@86919 Channel: 4 Note off, D3 key=50 velocity: 70
@86924 Channel: 4 Note off, D2 key=38 velocity: 83
@86937 Channel: 4 Note off, A4 key=69 velocity: 81
@86939 Channel: 4 Note off, D4 key=62 velocity: 75
@87122 Channel: 4 Note on, D4 key=62 velocity: 69
@87122 Channel: 4 Note on, A4 key=69 velocity: 73
@87170 Channel: 4 Note off, A4 key=69 velocity: 73
@87180 Channel: 4 Note off, D4 key=62 velocity: 69
@87242 Channel: 4 Note on, D4 key=62 velocity: 59
@87244 Channel: 4 Note on, A4 key=69 velocity: 66
@87283 Channel: 4 Note off, A4 key=69 velocity: 66
@87293 Channel: 4 Note off, D4 key=62 velocity: 59
@87343 Channel: 4 Note on, D2 key=38 velocity: 84
@87346 Channel: 4 Note on, D3 key=50 velocity: 78
@87362 Channel: 4 Note on, A4 key=69 velocity: 62
@87365 Channel: 4 Note on, D4 key=62 velocity: 69
@87400 Channel: 4 Note off, D3 key=50 velocity: 78
@87402 Channel: 4 Note off, D2 key=38 velocity: 84
@87410 Channel: 4 Note off, D4 key=62 velocity: 69
@87417 Channel: 4 Note off, A4 key=69 velocity: 62
@87602 Channel: 4 Note on, A4 key=69 velocity: 74
@87604 Channel: 4 Note on, D4 key=62 velocity: 70
@87663 Channel: 4 Note off, A4 key=69 velocity: 74
@87668 Channel: 4 Note off, D4 key=62 velocity: 70
@87839 Channel: 4 Note on, D2 key=38 velocity: 83
@87840 Channel: 4 Note on, A4 key=69 velocity: 83
@87842 Channel: 4 Note on, D4 key=62 velocity: 78
@87849 Channel: 4 Note on, D3 key=50 velocity: 88
@87907 Channel: 4 Note off, D4 key=62 velocity: 78
@87909 Channel: 4 Note off, A4 key=69 velocity: 83
@87910 Channel: 4 Note off, D2 key=38 velocity: 83
@87913 Channel: 4 Note off, D3 key=50 velocity: 88
@88081 Channel: 4 Note on, D4 key=62 velocity: 68
@88081 Channel: 4 Note on, A4 key=69 velocity: 71
@88127 Channel: 4 Note off, A4 key=69 velocity: 71
@88132 Channel: 4 Note off, D4 key=62 velocity: 68
@88199 Channel: 4 Note on, A4 key=69 velocity: 70
@88200 Channel: 4 Note on, D4 key=62 velocity: 64
@88248 Channel: 4 Note off, A4 key=69 velocity: 70
@88250 Channel: 4 Note off, D4 key=62 velocity: 64
@88313 Channel: 4 Note on, D3 key=50 velocity: 91
@88315 Channel: 4 Note on, D2 key=38 velocity: 100
@88320 Channel: 4 Note on, A4 key=69 velocity: 74
@88321 Channel: 4 Note on, D4 key=62 velocity: 72
@88363 Channel: 4 Note off, D3 key=50 velocity: 91
@88365 Channel: 4 Note off, D2 key=38 velocity: 100
@88373 Channel: 4 Note off, D4 key=62 velocity: 72
@88376 Channel: 4 Note off, A4 key=69 velocity: 74
@88561 Channel: 4 Note on, A4 key=69 velocity: 66
@88562 Channel: 4 Note on, D4 key=62 velocity: 62
@88612 Channel: 4 Note off, A4 key=69 velocity: 66
@88614 Channel: 4 Note off, D4 key=62 velocity: 62
@88681 Channel: 4 Note on, A4 key=69 velocity: 62
@88682 Channel: 4 Note on, D4 key=62 velocity: 59
@88721 Channel: 4 Note off, D4 key=62 velocity: 59
@88723 Channel: 4 Note off, A4 key=69 velocity: 62
@88793 Channel: 4 Note on, D2 key=38 velocity: 90
@88798 Channel: 4 Note on, D3 key=50 velocity: 85
@88801 Channel: 4 Note on, A4 key=69 velocity: 72
@88802 Channel: 4 Note on, D4 key=62 velocity: 66
@88844 Channel: 4 Note off, D2 key=38 velocity: 90
@88845 Channel: 4 Note off, D3 key=50 velocity: 85
@88857 Channel: 4 Note off, D4 key=62 velocity: 66
@88857 Channel: 4 Note off, A4 key=69 velocity: 72
@89042 Channel: 4 Note on, A4 key=69 velocity: 75
@89044 Channel: 4 Note on, D4 key=62 velocity: 68
@89101 Channel: 4 Note off, A4 key=69 velocity: 75
@89103 Channel: 4 Note off, D4 key=62 velocity: 68
@89283 Channel: 4 Note on, A4 key=69 velocity: 81
@89283 Channel: 4 Note on, D2 key=38 velocity: 91
@89283 Channel: 4 Note on, D3 key=50 velocity: 80
@89286 Channel: 4 Note on, D4 key=62 velocity: 73
@89328 Channel: 4 Note off, D3 key=50 velocity: 80
@89335 Channel: 4 Note off, D2 key=38 velocity: 91
@89351 Channel: 4 Note off, A4 key=69 velocity: 81
@89354 Channel: 4 Note off, D4 key=62 velocity: 73
@89516 Channel: 4 Note on, A4 key=69 velocity: 68
@89518 Channel: 4 Note on, D4 key=62 velocity: 66
@89570 Channel: 4 Note off, A4 key=69 velocity: 68
@89571 Channel: 4 Note off, D4 key=62 velocity: 66
@89637 Channel: 4 Note on, D4 key=62 velocity: 65
@89637 Channel: 4 Note on, A4 key=69 velocity: 70
@89692 Channel: 4 Note off, A4 key=69 velocity: 70
@89696 Channel: 4 Note off, D4 key=62 velocity: 65
@89747 Channel: 4 Note on, D2 key=38 velocity: 90
@89750 Channel: 4 Note on, D3 key=50 velocity: 83
@89755 Channel: 4 Note on, A4 key=69 velocity: 72
@89756 Channel: 4 Note on, D4 key=62 velocity: 68
@89801 Channel: 4 Note off, D3 key=50 velocity: 83
@89807 Channel: 4 Note off, D2 key=38 velocity: 90
@89814 Channel: 4 Note off, D4 key=62 velocity: 68
@89817 Channel: 4 Note off, A4 key=69 velocity: 72
@89999 Channel: 4 Note on, A4 key=69 velocity: 66
@90002 Channel: 4 Note on, D4 key=62 velocity: 60
@90055 Channel: 4 Note off, D4 key=62 velocity: 60
@90055 Channel: 4 Note off, A4 key=69 velocity: 66
@90122 Channel: 4 Note on, A4 key=69 velocity: 68
@90123 Channel: 4 Note on, D4 key=62 velocity: 60
@90177 Channel: 4 Note off, D4 key=62 velocity: 60
@90181 Channel: 4 Note off, A4 key=69 velocity: 68
@90221 Channel: 4 Note on, D2 key=38 velocity: 88
@90223 Channel: 4 Note on, D3 key=50 velocity: 85
@90240 Channel: 4 Note on, A4 key=69 velocity: 73
@90241 Channel: 4 Note on, D4 key=62 velocity: 67
@90275 Channel: 4 Note off, D3 key=50 velocity: 85
@90281 Channel: 4 Note off, D2 key=38 velocity: 88
@90299 Channel: 4 Note off, D4 key=62 velocity: 67
@90303 Channel: 4 Note off, A4 key=69 velocity: 73
@90483 Channel: 4 Note on, A4 key=69 velocity: 73
@90485 Channel: 4 Note on, D4 key=62 velocity: 68
@90543 Channel: 4 Note off, D4 key=62 velocity: 68
@90546 Channel: 4 Note off, A4 key=69 velocity: 73
@90719 Channel: 4 Note on, G4 key=67 velocity: 86
@90720 Channel: 4 Note on, C4 key=60 velocity: 79
@90722 Channel: 4 Note on, C3 key=48 velocity: 86
@90723 Channel: 4 Note on, C2 key=36 velocity: 102
@90771 Channel: 4 Note off, C2 key=36 velocity: 102
@90774 Channel: 4 Note off, C3 key=48 velocity: 86
@90784 Channel: 4 Note off, G4 key=67 velocity: 86
@90787 Channel: 4 Note off, C4 key=60 velocity: 79
@90956 Channel: 4 Note on, C4 key=60 velocity: 68
@90956 Channel: 4 Note on, G4 key=67 velocity: 70
@91000 Channel: 4 Note off, G4 key=67 velocity: 70
@91014 Channel: 4 Note off, C4 key=60 velocity: 68
@91075 Channel: 4 Note on, C4 key=60 velocity: 63
@91075 Channel: 4 Note on, G4 key=67 velocity: 68
@91125 Channel: 4 Note off, G4 key=67 velocity: 68
@91131 Channel: 4 Note off, C4 key=60 velocity: 63
@91195 Channel: 4 Note on, G4 key=67 velocity: 80
@91196 Channel: 4 Note on, C4 key=60 velocity: 68
@91200 Channel: 4 Note on, C2 key=36 velocity: 95
@91207 Channel: 4 Note on, C3 key=48 velocity: 79
@91246 Channel: 4 Note off, C4 key=60 velocity: 68
@91251 Channel: 4 Note off, G4 key=67 velocity: 80
@91255 Channel: 4 Note off, C3 key=48 velocity: 79
@91259 Channel: 4 Note off, C2 key=36 velocity: 95
@91437 Channel: 4 Note on, C4 key=60 velocity: 64
@91437 Channel: 4 Note on, G4 key=67 velocity: 70
@91483 Channel: 4 Note off, G4 key=67 velocity: 70
@91489 Channel: 4 Note off, C4 key=60 velocity: 64
@91558 Channel: 4 Note on, C4 key=60 velocity: 60
@91558 Channel: 4 Note on, G4 key=67 velocity: 66
@91604 Channel: 4 Note off, G4 key=67 velocity: 66
@91608 Channel: 4 Note off, C4 key=60 velocity: 60
@91677 Channel: 4 Note on, G4 key=67 velocity: 73
@91678 Channel: 4 Note on, C4 key=60 velocity: 62
@91689 Channel: 4 Note on, C2 key=36 velocity: 84
@91694 Channel: 4 Note on, C3 key=48 velocity: 80
@91729 Channel: 4 Note off, C4 key=60 velocity: 62
@91733 Channel: 4 Note off, G4 key=67 velocity: 73
@91787 Channel: 4 Note off, C3 key=48 velocity: 80
@91827 Channel: 4 Note off, C2 key=36 velocity: 84
@91916 Channel: 4 Note on, G4 key=67 velocity: 66
@91917 Channel: 4 Note on, C4 key=60 velocity: 59
@91973 Channel: 4 Note off, G4 key=67 velocity: 66
@91977 Channel: 4 Note off, C4 key=60 velocity: 59
@92160 Channel: 4 Note on, F3 key=53 velocity: 92
@92164 Channel: 4 Note on, C5 key=72 velocity: 84
@92164 Channel: 4 Note on, F2 key=41 velocity: 100
@92165 Channel: 4 Note on, F4 key=65 velocity: 80
@92241 Channel: 4 Note off, F2 key=41 velocity: 100
@92243 Channel: 4 Note off, F3 key=53 velocity: 92
@92248 Channel: 4 Note off, C5 key=72 velocity: 84
@92253 Channel: 4 Note off, F4 key=65 velocity: 80
@92404 Channel: 4 Note on, F4 key=65 velocity: 70
@92404 Channel: 4 Note on, C5 key=72 velocity: 74
@92456 Channel: 4 Note off, C5 key=72 velocity: 74
@92464 Channel: 4 Note off, F4 key=65 velocity: 70
@92523 Channel: 4 Note on, F4 key=65 velocity: 64
@92523 Channel: 4 Note on, C5 key=72 velocity: 69
@92566 Channel: 4 Note off, C5 key=72 velocity: 69
@92575 Channel: 4 Note off, F4 key=65 velocity: 64
@92642 Channel: 4 Note on, C5 key=72 velocity: 81
@92643 Channel: 4 Note on, F4 key=65 velocity: 75
@92657 Channel: 4 Note on, F2 key=41 velocity: 81
@92658 Channel: 4 Note on, F3 key=53 velocity: 73
@92697 Channel: 4 Note off, C5 key=72 velocity: 81
@92699 Channel: 4 Note off, F4 key=65 velocity: 75
@92736 Channel: 4 Note off, F3 key=53 velocity: 73
@92747 Channel: 4 Note off, F2 key=41 velocity: 81
@92882 Channel: 4 Note on, F4 key=65 velocity: 69
@92882 Channel: 4 Note on, C5 key=72 velocity: 73
@92930 Channel: 4 Note off, C5 key=72 velocity: 73
@92940 Channel: 4 Note off, F4 key=65 velocity: 69
@93002 Channel: 4 Note on, F4 key=65 velocity: 59
@93004 Channel: 4 Note on, C5 key=72 velocity: 66
@93043 Channel: 4 Note off, C5 key=72 velocity: 66
@93053 Channel: 4 Note off, F4 key=65 velocity: 59
@93122 Channel: 4 Note on, C5 key=72 velocity: 62
@93125 Channel: 4 Note on, F4 key=65 velocity: 69
@93147 Channel: 4 Note on, F2 key=41 velocity: 95
@93147 Channel: 4 Note on, F3 key=53 velocity: 90
@93170 Channel: 4 Note off, F4 key=65 velocity: 69
@93177 Channel: 4 Note off, C5 key=72 velocity: 62
@93212 Channel: 4 Note off, F3 key=53 velocity: 90
@93231 Channel: 4 Note off, F2 key=41 velocity: 95
@93362 Channel: 4 Note on, C5 key=72 velocity: 74
@93364 Channel: 4 Note on, F4 key=65 velocity: 70
@93423 Channel: 4 Note off, C5 key=72 velocity: 74
@93428 Channel: 4 Note off, F4 key=65 velocity: 70
@93599 Channel: 4 Note on, G4 key=67 velocity: 86
@93600 Channel: 4 Note on, C4 key=60 velocity: 79
@93602 Channel: 4 Note on, C3 key=48 velocity: 86
@93603 Channel: 4 Note on, C2 key=36 velocity: 102
@93651 Channel: 4 Note off, C2 key=36 velocity: 102
@93654 Channel: 4 Note off, C3 key=48 velocity: 86
@93664 Channel: 4 Note off, G4 key=67 velocity: 86
@93667 Channel: 4 Note off, C4 key=60 velocity: 79
@93836 Channel: 4 Note on, C4 key=60 velocity: 68
@93836 Channel: 4 Note on, G4 key=67 velocity: 70
@93880 Channel: 4 Note off, G4 key=67 velocity: 70
@93894 Channel: 4 Note off, C4 key=60 velocity: 68
@93955 Channel: 4 Note on, C4 key=60 velocity: 63
@93955 Channel: 4 Note on, G4 key=67 velocity: 68
@94005 Channel: 4 Note off, G4 key=67 velocity: 68
@94011 Channel: 4 Note off, C4 key=60 velocity: 63
@94075 Channel: 4 Note on, G4 key=67 velocity: 80
@94076 Channel: 4 Note on, C4 key=60 velocity: 68
@94088 Channel: 4 Note on, C3 key=48 velocity: 73
@94090 Channel: 4 Note on, C2 key=36 velocity: 75
@94126 Channel: 4 Note off, C4 key=60 velocity: 68
@94131 Channel: 4 Note off, G4 key=67 velocity: 80
@94164 Channel: 4 Note off, C3 key=48 velocity: 73
@94194 Channel: 4 Note off, C2 key=36 velocity: 75
@94317 Channel: 4 Note on, C4 key=60 velocity: 64
@94317 Channel: 4 Note on, G4 key=67 velocity: 70
@94363 Channel: 4 Note off, G4 key=67 velocity: 70
@94369 Channel: 4 Note off, C4 key=60 velocity: 64
@94438 Channel: 4 Note on, C4 key=60 velocity: 60
@94438 Channel: 4 Note on, G4 key=67 velocity: 66
@94484 Channel: 4 Note off, G4 key=67 velocity: 66
@94488 Channel: 4 Note off, C4 key=60 velocity: 60
@94557 Channel: 4 Note on, G4 key=67 velocity: 73
@94558 Channel: 4 Note on, C4 key=60 velocity: 62
@94567 Channel: 4 Note on, C2 key=36 velocity: 81
@94569 Channel: 4 Note on, C3 key=48 velocity: 73
@94609 Channel: 4 Note off, C4 key=60 velocity: 62
@94613 Channel: 4 Note off, G4 key=67 velocity: 73
@94655 Channel: 4 Note off, C3 key=48 velocity: 73
@94668 Channel: 4 Note off, C2 key=36 velocity: 81
@94796 Channel: 4 Note on, G4 key=67 velocity: 66
@94797 Channel: 4 Note on, C4 key=60 velocity: 59
@94853 Channel: 4 Note off, G4 key=67 velocity: 66
@94857 Channel: 4 Note off, C4 key=60 velocity: 59
@95043 Channel: 4 Note on, F4 key=65 velocity: 81
@95043 Channel: 4 Note on, A#1 key=34 velocity: 91
@95043 Channel: 4 Note on, A#2 key=46 velocity: 80
@95046 Channel: 4 Note on, A#3 key=58 velocity: 73
@95088 Channel: 4 Note off, A#2 key=46 velocity: 80
@95095 Channel: 4 Note off, A#1 key=34 velocity: 91
@95111 Channel: 4 Note off, F4 key=65 velocity: 81
@95114 Channel: 4 Note off, A#3 key=58 velocity: 73
@95276 Channel: 4 Note on, F4 key=65 velocity: 68
@95278 Channel: 4 Note on, A#3 key=58 velocity: 66
@95330 Channel: 4 Note off, F4 key=65 velocity: 68
@95331 Channel: 4 Note off, A#3 key=58 velocity: 66
@95397 Channel: 4 Note on, A#3 key=58 velocity: 65
@95397 Channel: 4 Note on, F4 key=65 velocity: 70
@95452 Channel: 4 Note off, F4 key=65 velocity: 70
@95456 Channel: 4 Note off, A#3 key=58 velocity: 65
@95515 Channel: 4 Note on, F4 key=65 velocity: 72
@95516 Channel: 4 Note on, A#3 key=58 velocity: 68
@95521 Channel: 4 Note on, A#2 key=46 velocity: 82
@95524 Channel: 4 Note on, A#1 key=34 velocity: 84
@95574 Channel: 4 Note off, A#3 key=58 velocity: 68
@95577 Channel: 4 Note off, F4 key=65 velocity: 72
@95588 Channel: 4 Note off, A#2 key=46 velocity: 82
@95593 Channel: 4 Note off, A#1 key=34 velocity: 84
@95759 Channel: 4 Note on, F4 key=65 velocity: 66
@95762 Channel: 4 Note on, A#3 key=58 velocity: 60
@95815 Channel: 4 Note off, A#3 key=58 velocity: 60
@95815 Channel: 4 Note off, F4 key=65 velocity: 66
@95882 Channel: 4 Note on, F4 key=65 velocity: 68
@95883 Channel: 4 Note on, A#3 key=58 velocity: 60
@95937 Channel: 4 Note off, A#3 key=58 velocity: 60
@95941 Channel: 4 Note off, F4 key=65 velocity: 68
@95997 Channel: 4 Note on, A#2 key=46 velocity: 89
@96000 Channel: 4 Note on, F4 key=65 velocity: 73
@96001 Channel: 4 Note on, A#1 key=34 velocity: 87
@96001 Channel: 4 Note on, A#3 key=58 velocity: 67
@96059 Channel: 4 Note off, A#3 key=58 velocity: 67
@96063 Channel: 4 Note off, A#2 key=46 velocity: 89
@96063 Channel: 4 Note off, F4 key=65 velocity: 73
@96074 Channel: 4 Note off, A#1 key=34 velocity: 87
@96243 Channel: 4 Note on, F4 key=65 velocity: 73
@96245 Channel: 4 Note on, A#3 key=58 velocity: 68
@96303 Channel: 4 Note off, A#3 key=58 velocity: 68
@96306 Channel: 4 Note off, F4 key=65 velocity: 73
@96479 Channel: 4 Note on, E4 key=64 velocity: 86
@96480 Channel: 4 Note on, A3 key=57 velocity: 79
@96482 Channel: 4 Note on, A2 key=45 velocity: 86
@96483 Channel: 4 Note on, A1 key=33 velocity: 102
@96531 Channel: 4 Note off, A1 key=33 velocity: 102
@96534 Channel: 4 Note off, A2 key=45 velocity: 86
@96544 Channel: 4 Note off, E4 key=64 velocity: 86
@96547 Channel: 4 Note off, A3 key=57 velocity: 79
@96716 Channel: 4 Note on, A3 key=57 velocity: 68
@96716 Channel: 4 Note on, E4 key=64 velocity: 70
@96760 Channel: 4 Note off, E4 key=64 velocity: 70
@96774 Channel: 4 Note off, A3 key=57 velocity: 68
@96835 Channel: 4 Note on, A3 key=57 velocity: 63
@96835 Channel: 4 Note on, E4 key=64 velocity: 68
@96885 Channel: 4 Note off, E4 key=64 velocity: 68
@96891 Channel: 4 Note off, A3 key=57 velocity: 63
@96946 Channel: 4 Note on, A1 key=33 velocity: 79
@96948 Channel: 4 Note on, A2 key=45 velocity: 72
@96955 Channel: 4 Note on, E4 key=64 velocity: 80
@96956 Channel: 4 Note on, A3 key=57 velocity: 68
@97006 Channel: 4 Note off, A3 key=57 velocity: 68
@97011 Channel: 4 Note off, E4 key=64 velocity: 80
@97025 Channel: 4 Note off, A2 key=45 velocity: 72
@97039 Channel: 4 Note off, A1 key=33 velocity: 79
@97197 Channel: 4 Note on, A3 key=57 velocity: 64
@97197 Channel: 4 Note on, E4 key=64 velocity: 70
@97243 Channel: 4 Note off, E4 key=64 velocity: 70
@97249 Channel: 4 Note off, A3 key=57 velocity: 64
@97318 Channel: 4 Note on, A3 key=57 velocity: 60
@97318 Channel: 4 Note on, E4 key=64 velocity: 66
@97364 Channel: 4 Note off, E4 key=64 velocity: 66
@97368 Channel: 4 Note off, A3 key=57 velocity: 60
@97435 Channel: 4 Note on, A1 key=33 velocity: 92
@97437 Channel: 4 Note on, E4 key=64 velocity: 73
@97438 Channel: 4 Note on, A3 key=57 velocity: 62
@97441 Channel: 4 Note on, A2 key=45 velocity: 92
@97489 Channel: 4 Note off, A3 key=57 velocity: 62
@97493 Channel: 4 Note off, E4 key=64 velocity: 73
@97499 Channel: 4 Note off, A2 key=45 velocity: 92
@97502 Channel: 4 Note off, A1 key=33 velocity: 92
@97676 Channel: 4 Note on, E4 key=64 velocity: 66
@97677 Channel: 4 Note on, A3 key=57 velocity: 59
@97733 Channel: 4 Note off, E4 key=64 velocity: 66
@97737 Channel: 4 Note off, A3 key=57 velocity: 59
@97920 Channel: 4 Note on, D3 key=50 velocity: 92
@97924 Channel: 4 Note on, A4 key=69 velocity: 84
@97924 Channel: 4 Note on, D2 key=38 velocity: 100
@97925 Channel: 4 Note on, D4 key=62 velocity: 80
@98001 Channel: 4 Note off, D2 key=38 velocity: 100
@98003 Channel: 4 Note off, D3 key=50 velocity: 92
@98008 Channel: 4 Note off, A4 key=69 velocity: 84
@98013 Channel: 4 Note off, D4 key=62 velocity: 80
@98164 Channel: 4 Note on, D4 key=62 velocity: 70
@98164 Channel: 4 Note on, A4 key=69 velocity: 74
@98216 Channel: 4 Note off, A4 key=69 velocity: 74
@98224 Channel: 4 Note off, D4 key=62 velocity: 70
@98283 Channel: 4 Note on, D4 key=62 velocity: 64
@98283 Channel: 4 Note on, A4 key=69 velocity: 69
@98326 Channel: 4 Note off, A4 key=69 velocity: 69
@98335 Channel: 4 Note off, D4 key=62 velocity: 64
@98389 Channel: 4 Note on, D2 key=38 velocity: 83
@98393 Channel: 4 Note on, D3 key=50 velocity: 70
@98402 Channel: 4 Note on, A4 key=69 velocity: 81
@98403 Channel: 4 Note on, D4 key=62 velocity: 75
@98439 Channel: 4 Note off, D3 key=50 velocity: 70
@98444 Channel: 4 Note off, D2 key=38 velocity: 83
@98457 Channel: 4 Note off, A4 key=69 velocity: 81
@98459 Channel: 4 Note off, D4 key=62 velocity: 75
@98642 Channel: 4 Note on, D4 key=62 velocity: 69
@98642 Channel: 4 Note on, A4 key=69 velocity: 73
@98690 Channel: 4 Note off, A4 key=69 velocity: 73
@98700 Channel: 4 Note off, D4 key=62 velocity: 69
@98762 Channel: 4 Note on, D4 key=62 velocity: 59
@98764 Channel: 4 Note on, A4 key=69 velocity: 66
@98803 Channel: 4 Note off, A4 key=69 velocity: 66
@98813 Channel: 4 Note off, D4 key=62 velocity: 59
@98863 Channel: 4 Note on, D2 key=38 velocity: 84
@98866 Channel: 4 Note on, D3 key=50 velocity: 78
@98882 Channel: 4 Note on, A4 key=69 velocity: 62
@98885 Channel: 4 Note on, D4 key=62 velocity: 69
@98920 Channel: 4 Note off, D3 key=50 velocity: 78
@98922 Channel: 4 Note off, D2 key=38 velocity: 84
@98930 Channel: 4 Note off, D4 key=62 velocity: 69
@98937 Channel: 4 Note off, A4 key=69 velocity: 62
@99122 Channel: 4 Note on, A4 key=69 velocity: 74
@99124 Channel: 4 Note on, D4 key=62 velocity: 70
@99183 Channel: 4 Note off, A4 key=69 velocity: 74
@99188 Channel: 4 Note off, D4 key=62 velocity: 70
@99359 Channel: 4 Note on, D2 key=38 velocity: 83
@99360 Channel: 4 Note on, A4 key=69 velocity: 83
@99362 Channel: 4 Note on, D4 key=62 velocity: 78
@99369 Channel: 4 Note on, D3 key=50 velocity: 88
@99427 Channel: 4 Note off, D4 key=62 velocity: 78
@99429 Channel: 4 Note off, A4 key=69 velocity: 83
@99430 Channel: 4 Note off, D2 key=38 velocity: 83
@99433 Channel: 4 Note off, D3 key=50 velocity: 88
@99601 Channel: 4 Note on, D4 key=62 velocity: 68
@99601 Channel: 4 Note on, A4 key=69 velocity: 71
@99647 Channel: 4 Note off, A4 key=69 velocity: 71
@99652 Channel: 4 Note off, D4 key=62 velocity: 68
@99719 Channel: 4 Note on, A4 key=69 velocity: 70
@99720 Channel: 4 Note on, D4 key=62 velocity: 64
@99768 Channel: 4 Note off, A4 key=69 velocity: 70
@99770 Channel: 4 Note off, D4 key=62 velocity: 64
@99833 Channel: 4 Note on, D3 key=50 velocity: 91
@99835 Channel: 4 Note on, D2 key=38 velocity: 100
@99840 Channel: 4 Note on, A4 key=69 velocity: 74
@99841 Channel: 4 Note on, D4 key=62 velocity: 72
@99883 Channel: 4 Note off, D3 key=50 velocity: 91
@99885 Channel: 4 Note off, D2 key=38 velocity: 100
@99893 Channel: 4 Note off, D4 key=62 velocity: 72
@99896 Channel: 4 Note off, A4 key=69 velocity: 74
@100081 Channel: 4 Note on, A4 key=69 velocity: 66
@100082 Channel: 4 Note on, D4 key=62 velocity: 62
@100132 Channel: 4 Note off, A4 key=69 velocity: 66
@100134 Channel: 4 Note off, D4 key=62 velocity: 62
@100201 Channel: 4 Note on, A4 key=69 velocity: 62
@100202 Channel: 4 Note on, D4 key=62 velocity: 59
@100241 Channel: 4 Note off, D4 key=62 velocity: 59
@100243 Channel: 4 Note off, A4 key=69 velocity: 62
@100313 Channel: 4 Note on, D2 key=38 velocity: 90
@100318 Channel: 4 Note on, D3 key=50 velocity: 85
@100321 Channel: 4 Note on, A4 key=69 velocity: 72
@100322 Channel: 4 Note on, D4 key=62 velocity: 66
@100364 Channel: 4 Note off, D2 key=38 velocity: 90
@100365 Channel: 4 Note off, D3 key=50 velocity: 85
@100377 Channel: 4 Note off, D4 key=62 velocity: 66
@100377 Channel: 4 Note off, A4 key=69 velocity: 72
@100562 Channel: 4 Note on, A4 key=69 velocity: 75
@100564 Channel: 4 Note on, D4 key=62 velocity: 68
@100621 Channel: 4 Note off, A4 key=69 velocity: 75
@100623 Channel: 4 Note off, D4 key=62 velocity: 68
@100803 Channel: 4 Note on, A4 key=69 velocity: 81
@100803 Channel: 4 Note on, D2 key=38 velocity: 91
@100803 Channel: 4 Note on, D3 key=50 velocity: 80
@100806 Channel: 4 Note on, D4 key=62 velocity: 73
@100848 Channel: 4 Note off, D3 key=50 velocity: 80
@100855 Channel: 4 Note off, D2 key=38 velocity: 91
@100871 Channel: 4 Note off, A4 key=69 velocity: 81
@100874 Channel: 4 Note off, D4 key=62 velocity: 73
@101036 Channel: 4 Note on, A4 key=69 velocity: 68
@101038 Channel: 4 Note on, D4 key=62 velocity: 66
@101090 Channel: 4 Note off, A4 key=69 velocity: 68
@101091 Channel: 4 Note off, D4 key=62 velocity: 66
@101157 Channel: 4 Note on, D4 key=62 velocity: 65
@101157 Channel: 4 Note on, A4 key=69 velocity: 70
@101212 Channel: 4 Note off, A4 key=69 velocity: 70
@101216 Channel: 4 Note off, D4 key=62 velocity: 65
@101267 Channel: 4 Note on, D2 key=38 velocity: 90
@101270 Channel: 4 Note on, D3 key=50 velocity: 83
@101275 Channel: 4 Note on, A4 key=69 velocity: 72
@101276 Channel: 4 Note on, D4 key=62 velocity: 68
@101321 Channel: 4 Note off, D3 key=50 velocity: 83
@101327 Channel: 4 Note off, D2 key=38 velocity: 90
@101334 Channel: 4 Note off, D4 key=62 velocity: 68
@101337 Channel: 4 Note off, A4 key=69 velocity: 72
@101519 Channel: 4 Note on, A4 key=69 velocity: 66
@101522 Channel: 4 Note on, D4 key=62 velocity: 60
@101575 Channel: 4 Note off, D4 key=62 velocity: 60
@101575 Channel: 4 Note off, A4 key=69 velocity: 66
@101642 Channel: 4 Note on, A4 key=69 velocity: 68
@101643 Channel: 4 Note on, D4 key=62 velocity: 60
@101697 Channel: 4 Note off, D4 key=62 velocity: 60
@101701 Channel: 4 Note off, A4 key=69 velocity: 68
@101741 Channel: 4 Note on, D2 key=38 velocity: 88
@101743 Channel: 4 Note on, D3 key=50 velocity: 85
@101760 Channel: 4 Note on, A4 key=69 velocity: 73
@101761 Channel: 4 Note on, D4 key=62 velocity: 67
@101795 Channel: 4 Note off, D3 key=50 velocity: 85
@101801 Channel: 4 Note off, D2 key=38 velocity: 88
@101819 Channel: 4 Note off, D4 key=62 velocity: 67
@101823 Channel: 4 Note off, A4 key=69 velocity: 73
@102003 Channel: 4 Note on, A4 key=69 velocity: 73
@102005 Channel: 4 Note on, D4 key=62 velocity: 68
@102063 Channel: 4 Note off, D4 key=62 velocity: 68
@102066 Channel: 4 Note off, A4 key=69 velocity: 73
@102239 Channel: 4 Note on, G4 key=67 velocity: 86
@102240 Channel: 4 Note on, C4 key=60 velocity: 79
@102242 Channel: 4 Note on, C3 key=48 velocity: 86
@102243 Channel: 4 Note on, C2 key=36 velocity: 102
@102291 Channel: 4 Note off, C2 key=36 velocity: 102
@102294 Channel: 4 Note off, C3 key=48 velocity: 86
@102304 Channel: 4 Note off, G4 key=67 velocity: 86
@102307 Channel: 4 Note off, C4 key=60 velocity: 79
@102476 Channel: 4 Note on, C4 key=60 velocity: 68
@102476 Channel: 4 Note on, G4 key=67 velocity: 70
@102520 Channel: 4 Note off, G4 key=67 velocity: 70
@102534 Channel: 4 Note off, C4 key=60 velocity: 68
@102595 Channel: 4 Note on, C4 key=60 velocity: 63
@102595 Channel: 4 Note on, G4 key=67 velocity: 68
@102645 Channel: 4 Note off, G4 key=67 velocity: 68
@102651 Channel: 4 Note off, C4 key=60 velocity: 63
@102715 Channel: 4 Note on, G4 key=67 velocity: 80
@102716 Channel: 4 Note on, C4 key=60 velocity: 68
@102720 Channel: 4 Note on, C2 key=36 velocity: 95
@102727 Channel: 4 Note on, C3 key=48 velocity: 79
@102766 Channel: 4 Note off, C4 key=60 velocity: 68
@102771 Channel: 4 Note off, G4 key=67 velocity: 80
@102775 Channel: 4 Note off, C3 key=48 velocity: 79
@102779 Channel: 4 Note off, C2 key=36 velocity: 95
@102957 Channel: 4 Note on, C4 key=60 velocity: 64
@102957 Channel: 4 Note on, G4 key=67 velocity: 70
@103003 Channel: 4 Note off, G4 key=67 velocity: 70
@103009 Channel: 4 Note off, C4 key=60 velocity: 64
@103078 Channel: 4 Note on, C4 key=60 velocity: 60
@103078 Channel: 4 Note on, G4 key=67 velocity: 66
@103124 Channel: 4 Note off, G4 key=67 velocity: 66
@103128 Channel: 4 Note off, C4 key=60 velocity: 60
@103197 Channel: 4 Note on, G4 key=67 velocity: 73
@103198 Channel: 4 Note on, C4 key=60 velocity: 62
@103209 Channel: 4 Note on, C2 key=36 velocity: 84
@103214 Channel: 4 Note on, C3 key=48 velocity: 80
@103249 Channel: 4 Note off, C4 key=60 velocity: 62
@103253 Channel: 4 Note off, G4 key=67 velocity: 73
@103307 Channel: 4 Note off, C3 key=48 velocity: 80
@103347 Channel: 4 Note off, C2 key=36 velocity: 84
@103436 Channel: 4 Note on, G4 key=67 velocity: 66
@103437 Channel: 4 Note on, C4 key=60 velocity: 59
@103493 Channel: 4 Note off, G4 key=67 velocity: 66
@103497 Channel: 4 Note off, C4 key=60 velocity: 59
@103680 Channel: 4 Note on, F3 key=53 velocity: 92
@103684 Channel: 4 Note on, C5 key=72 velocity: 84
@103684 Channel: 4 Note on, F2 key=41 velocity: 100
@103685 Channel: 4 Note on, F4 key=65 velocity: 80
@103761 Channel: 4 Note off, F2 key=41 velocity: 100
@103763 Channel: 4 Note off, F3 key=53 velocity: 92
@103768 Channel: 4 Note off, C5 key=72 velocity: 84
@103773 Channel: 4 Note off, F4 key=65 velocity: 80
@103924 Channel: 4 Note on, F4 key=65 velocity: 70
@103924 Channel: 4 Note on, C5 key=72 velocity: 74
@103976 Channel: 4 Note off, C5 key=72 velocity: 74
@103984 Channel: 4 Note off, F4 key=65 velocity: 70
@104043 Channel: 4 Note on, F4 key=65 velocity: 64
@104043 Channel: 4 Note on, C5 key=72 velocity: 69
@104086 Channel: 4 Note off, C5 key=72 velocity: 69
@104095 Channel: 4 Note off, F4 key=65 velocity: 64
@104162 Channel: 4 Note on, C5 key=72 velocity: 81
@104163 Channel: 4 Note on, F4 key=65 velocity: 75
@104177 Channel: 4 Note on, F2 key=41 velocity: 81
@104178 Channel: 4 Note on, F3 key=53 velocity: 73
@104217 Channel: 4 Note off, C5 key=72 velocity: 81
@104219 Channel: 4 Note off, F4 key=65 velocity: 75
@104256 Channel: 4 Note off, F3 key=53 velocity: 73
@104267 Channel: 4 Note off, F2 key=41 velocity: 81
@104402 Channel: 4 Note on, F4 key=65 velocity: 69
@104402 Channel: 4 Note on, C5 key=72 velocity: 73
@104450 Channel: 4 Note off, C5 key=72 velocity: 73
@104460 Channel: 4 Note off, F4 key=65 velocity: 69
@104522 Channel: 4 Note on, F4 key=65 velocity: 59
@104524 Channel: 4 Note on, C5 key=72 velocity: 66
@104563 Channel: 4 Note off, C5 key=72 velocity: 66
@104573 Channel: 4 Note off, F4 key=65 velocity: 59
@104642 Channel: 4 Note on, C5 key=72 velocity: 62
@104645 Channel: 4 Note on, F4 key=65 velocity: 69
@104667 Channel: 4 Note on, F2 key=41 velocity: 95
@104667 Channel: 4 Note on, F3 key=53 velocity: 90
@104690 Channel: 4 Note off, F4 key=65 velocity: 69
@104697 Channel: 4 Note off, C5 key=72 velocity: 62
@104732 Channel: 4 Note off, F3 key=53 velocity: 90
@104751 Channel: 4 Note off, F2 key=41 velocity: 95
@104882 Channel: 4 Note on, C5 key=72 velocity: 74
@104884 Channel: 4 Note on, F4 key=65 velocity: 70
@104943 Channel: 4 Note off, C5 key=72 velocity: 74
@104948 Channel: 4 Note off, F4 key=65 velocity: 70
@105119 Channel: 4 Note on, G4 key=67 velocity: 86
@105120 Channel: 4 Note on, C4 key=60 velocity: 79
@105122 Channel: 4 Note on, C3 key=48 velocity: 86
@105123 Channel: 4 Note on, C2 key=36 velocity: 102
@105171 Channel: 4 Note off, C2 key=36 velocity: 102
@105174 Channel: 4 Note off, C3 key=48 velocity: 86
@105184 Channel: 4 Note off, G4 key=67 velocity: 86
@105187 Channel: 4 Note off, C4 key=60 velocity: 79
@105356 Channel: 4 Note on, C4 key=60 velocity: 68
@105356 Channel: 4 Note on, G4 key=67 velocity: 70
@105400 Channel: 4 Note off, G4 key=67 velocity: 70
@105414 Channel: 4 Note off, C4 key=60 velocity: 68
@105475 Channel: 4 Note on, C4 key=60 velocity: 63
@105475 Channel: 4 Note on, G4 key=67 velocity: 68
@105525 Channel: 4 Note off, G4 key=67 velocity: 68
@105531 Channel: 4 Note off, C4 key=60 velocity: 63
@105595 Channel: 4 Note on, G4 key=67 velocity: 80
@105596 Channel: 4 Note on, C4 key=60 velocity: 68
@105608 Channel: 4 Note on, C3 key=48 velocity: 73
@105610 Channel: 4 Note on, C2 key=36 velocity: 75
@105646 Channel: 4 Note off, C4 key=60 velocity: 68
@105651 Channel: 4 Note off, G4 key=67 velocity: 80
@105684 Channel: 4 Note off, C3 key=48 velocity: 73
@105714 Channel: 4 Note off, C2 key=36 velocity: 75
@105837 Channel: 4 Note on, C4 key=60 velocity: 64
@105837 Channel: 4 Note on, G4 key=67 velocity: 70
@105883 Channel: 4 Note off, G4 key=67 velocity: 70
@105889 Channel: 4 Note off, C4 key=60 velocity: 64
@105958 Channel: 4 Note on, C4 key=60 velocity: 60
@105958 Channel: 4 Note on, G4 key=67 velocity: 66
@106004 Channel: 4 Note off, G4 key=67 velocity: 66
@106008 Channel: 4 Note off, C4 key=60 velocity: 60
@106077 Channel: 4 Note on, G4 key=67 velocity: 73
@106078 Channel: 4 Note on, C4 key=60 velocity: 62
@106087 Channel: 4 Note on, C2 key=36 velocity: 81
@106089 Channel: 4 Note on, C3 key=48 velocity: 73
@106129 Channel: 4 Note off, C4 key=60 velocity: 62
@106133 Channel: 4 Note off, G4 key=67 velocity: 73
@106175 Channel: 4 Note off, C3 key=48 velocity: 73
@106188 Channel: 4 Note off, C2 key=36 velocity: 81
@106316 Channel: 4 Note on, G4 key=67 velocity: 66
@106317 Channel: 4 Note on, C4 key=60 velocity: 59
@106373 Channel: 4 Note off, G4 key=67 velocity: 66
@106377 Channel: 4 Note off, C4 key=60 velocity: 59
@106563 Channel: 4 Note on, F4 key=65 velocity: 81
@106563 Channel: 4 Note on, A#1 key=34 velocity: 91
@106563 Channel: 4 Note on, A#2 key=46 velocity: 80
@106566 Channel: 4 Note on, A#3 key=58 velocity: 73
@106608 Channel: 4 Note off, A#2 key=46 velocity: 80
@106615 Channel: 4 Note off, A#1 key=34 velocity: 91
@106631 Channel: 4 Note off, F4 key=65 velocity: 81
@106634 Channel: 4 Note off, A#3 key=58 velocity: 73
@106796 Channel: 4 Note on, F4 key=65 velocity: 68
@106798 Channel: 4 Note on, A#3 key=58 velocity: 66
@106850 Channel: 4 Note off, F4 key=65 velocity: 68
@106851 Channel: 4 Note off, A#3 key=58 velocity: 66
@106917 Channel: 4 Note on, A#3 key=58 velocity: 65
@106917 Channel: 4 Note on, F4 key=65 velocity: 70
@106972 Channel: 4 Note off, F4 key=65 velocity: 70
@106976 Channel: 4 Note off, A#3 key=58 velocity: 65
@107035 Channel: 4 Note on, F4 key=65 velocity: 72
@107036 Channel: 4 Note on, A#3 key=58 velocity: 68
@107041 Channel: 4 Note on, A#2 key=46 velocity: 82
@107044 Channel: 4 Note on, A#1 key=34 velocity: 84
@107094 Channel: 4 Note off, A#3 key=58 velocity: 68
@107097 Channel: 4 Note off, F4 key=65 velocity: 72
@107108 Channel: 4 Note off, A#2 key=46 velocity: 82
@107113 Channel: 4 Note off, A#1 key=34 velocity: 84
@107279 Channel: 4 Note on, F4 key=65 velocity: 66
@107282 Channel: 4 Note on, A#3 key=58 velocity: 60
@107335 Channel: 4 Note off, A#3 key=58 velocity: 60
@107335 Channel: 4 Note off, F4 key=65 velocity: 66
@107402 Channel: 4 Note on, F4 key=65 velocity: 68
@107403 Channel: 4 Note on, A#3 key=58 velocity: 60
@107457 Channel: 4 Note off, A#3 key=58 velocity: 60
@107461 Channel: 4 Note off, F4 key=65 velocity: 68
@107517 Channel: 4 Note on, A#2 key=46 velocity: 89
@107520 Channel: 4 Note on, F4 key=65 velocity: 73
@107521 Channel: 4 Note on, A#1 key=34 velocity: 87
@107521 Channel: 4 Note on, A#3 key=58 velocity: 67
@107579 Channel: 4 Note off, A#3 key=58 velocity: 67
@107583 Channel: 4 Note off, A#2 key=46 velocity: 89
@107583 Channel: 4 Note off, F4 key=65 velocity: 73
@107594 Channel: 4 Note off, A#1 key=34 velocity: 87
@107763 Channel: 4 Note on, F4 key=65 velocity: 73
@107765 Channel: 4 Note on, A#3 key=58 velocity: 68
@107823 Channel: 4 Note off, A#3 key=58 velocity: 68
@107826 Channel: 4 Note off, F4 key=65 velocity: 73
@107999 Channel: 4 Note on, E4 key=64 velocity: 86
@108000 Channel: 4 Note on, A3 key=57 velocity: 79
@108002 Channel: 4 Note on, A2 key=45 velocity: 86
@108003 Channel: 4 Note on, A1 key=33 velocity: 102
@108051 Channel: 4 Note off, A1 key=33 velocity: 102
@108054 Channel: 4 Note off, A2 key=45 velocity: 86
@108064 Channel: 4 Note off, E4 key=64 velocity: 86
@108067 Channel: 4 Note off, A3 key=57 velocity: 79
@108236 Channel: 4 Note on, A3 key=57 velocity: 68
@108236 Channel: 4 Note on, E4 key=64 velocity: 70
@108280 Channel: 4 Note off, E4 key=64 velocity: 70
@108294 Channel: 4 Note off, A3 key=57 velocity: 68
@108355 Channel: 4 Note on, A3 key=57 velocity: 63
@108355 Channel: 4 Note on, E4 key=64 velocity: 68
@108405 Channel: 4 Note off, E4 key=64 velocity: 68
@108411 Channel: 4 Note off, A3 key=57 velocity: 63
@108475 Channel: 4 Note on, E4 key=64 velocity: 80
@108476 Channel: 4 Note on, A3 key=57 velocity: 68
@108483 Channel: 4 Note on, A2 key=45 velocity: 80
@108487 Channel: 4 Note on, A1 key=33 velocity: 86
@108526 Channel: 4 Note off, A3 key=57 velocity: 68
@108531 Channel: 4 Note off, E4 key=64 velocity: 80
@108548 Channel: 4 Note off, A2 key=45 velocity: 80
@108565 Channel: 4 Note off, A1 key=33 velocity: 86
@108717 Channel: 4 Note on, A3 key=57 velocity: 64
@108717 Channel: 4 Note on, E4 key=64 velocity: 70
@108763 Channel: 4 Note off, E4 key=64 velocity: 70
@108769 Channel: 4 Note off, A3 key=57 velocity: 64
@108838 Channel: 4 Note on, A3 key=57 velocity: 60
@108838 Channel: 4 Note on, E4 key=64 velocity: 66
@108884 Channel: 4 Note off, E4 key=64 velocity: 66
@108888 Channel: 4 Note off, A3 key=57 velocity: 60
@108946 Channel: 4 Note on, A2 key=45 velocity: 80
@108949 Channel: 4 Note on, A1 key=33 velocity: 98
@108957 Channel: 4 Note on, E4 key=64 velocity: 73
@108958 Channel: 4 Note on, A3 key=57 velocity: 62
@109009 Channel: 4 Note off, A2 key=45 velocity: 80
@109009 Channel: 4 Note off, A3 key=57 velocity: 62
@109010 Channel: 4 Note off, A1 key=33 velocity: 98
@109013 Channel: 4 Note off, E4 key=64 velocity: 73
@109196 Channel: 4 Note on, E4 key=64 velocity: 66
@109197 Channel: 4 Note on, A3 key=57 velocity: 59
@109253 Channel: 4 Note off, E4 key=64 velocity: 66
@109257 Channel: 4 Note off, A3 key=57 velocity: 59
@109439 Channel: 4 Note on, E4 key=64 velocity: 86
@109440 Channel: 4 Note on, A3 key=57 velocity: 79
@109442 Channel: 4 Note on, A2 key=45 velocity: 86
@109443 Channel: 4 Note on, A1 key=33 velocity: 102
@109491 Channel: 4 Note off, A1 key=33 velocity: 102
@109494 Channel: 4 Note off, A2 key=45 velocity: 86
@109504 Channel: 4 Note off, E4 key=64 velocity: 86
@109507 Channel: 4 Note off, A3 key=57 velocity: 79
@109676 Channel: 4 Note on, A3 key=57 velocity: 68
@109676 Channel: 4 Note on, E4 key=64 velocity: 70
@109720 Channel: 4 Note off, E4 key=64 velocity: 70
@109734 Channel: 4 Note off, A3 key=57 velocity: 68
@109795 Channel: 4 Note on, A3 key=57 velocity: 63
@109795 Channel: 4 Note on, E4 key=64 velocity: 68
@109845 Channel: 4 Note off, E4 key=64 velocity: 68
@109851 Channel: 4 Note off, A3 key=57 velocity: 63
@109906 Channel: 4 Note on, A1 key=33 velocity: 79
@109908 Channel: 4 Note on, A2 key=45 velocity: 72
@109915 Channel: 4 Note on, E4 key=64 velocity: 80
@109916 Channel: 4 Note on, A3 key=57 velocity: 68
@109966 Channel: 4 Note off, A3 key=57 velocity: 68
@109971 Channel: 4 Note off, E4 key=64 velocity: 80
@109985 Channel: 4 Note off, A2 key=45 velocity: 72
@109999 Channel: 4 Note off, A1 key=33 velocity: 79
@110157 Channel: 4 Note on, A3 key=57 velocity: 64
@110157 Channel: 4 Note on, E4 key=64 velocity: 70
@110203 Channel: 4 Note off, E4 key=64 velocity: 70
@110209 Channel: 4 Note off, A3 key=57 velocity: 64
@110278 Channel: 4 Note on, A3 key=57 velocity: 60
@110278 Channel: 4 Note on, E4 key=64 velocity: 66
@110324 Channel: 4 Note off, E4 key=64 velocity: 66
@110328 Channel: 4 Note off, A3 key=57 velocity: 60
@110395 Channel: 4 Note on, A1 key=33 velocity: 92
@110397 Channel: 4 Note on, E4 key=64 velocity: 73
@110398 Channel: 4 Note on, A3 key=57 velocity: 62
@110401 Channel: 4 Note on, A2 key=45 velocity: 92
@110449 Channel: 4 Note off, A3 key=57 velocity: 62
@110453 Channel: 4 Note off, E4 key=64 velocity: 73
@110459 Channel: 4 Note off, A2 key=45 velocity: 92
@110462 Channel: 4 Note off, A1 key=33 velocity: 92
@110636 Channel: 4 Note on, E4 key=64 velocity: 66
@110637 Channel: 4 Note on, A3 key=57 velocity: 59
@110693 Channel: 4 Note off, E4 key=64 velocity: 66
@110697 Channel: 4 Note off, A3 key=57 velocity: 59
@110880 Channel: 4 Note on, D4 key=62 velocity: 104
@110880 Channel: 4 Note on, A4 key=69 velocity: 77
@110880 Channel: 4 Note on, D3 key=50 velocity: 114
@110880 Channel: 4 Note on, D2 key=38 velocity: 122
@110930 Channel: 4 Note off, A4 key=69 velocity: 77
@110934 Channel: 4 Note off, D4 key=62 velocity: 104
@110967 Channel: 4 Note off, D2 key=38 velocity: 122
@110982 Channel: 4 Note off, D3 key=50 velocity: 114
@111002 Channel: 4 Note on, A4 key=69 velocity: 73
@111003 Channel: 4 Note on, D4 key=62 velocity: 97
@111051 Channel: 4 Note off, A4 key=69 velocity: 73
@111052 Channel: 4 Note off, D4 key=62 velocity: 97
@111122 Channel: 4 Note on, A4 key=69 velocity: 77
@111123 Channel: 4 Note on, D4 key=62 velocity: 94
@111171 Channel: 4 Note off, A4 key=69 velocity: 77
@111174 Channel: 4 Note off, D4 key=62 velocity: 94
@111243 Channel: 4 Note on, A4 key=69 velocity: 83
@111244 Channel: 4 Note on, D4 key=62 velocity: 100
@111284 Channel: 4 Note off, A4 key=69 velocity: 83
@111293 Channel: 4 Note off, D4 key=62 velocity: 100
@111360 Channel: 4 Note on, D3 key=50 velocity: 108
@111360 Channel: 4 Note on, D2 key=38 velocity: 122
@111362 Channel: 4 Note on, A4 key=69 velocity: 94
@111363 Channel: 4 Note on, D4 key=62 velocity: 102
@111406 Channel: 4 Note off, A4 key=69 velocity: 94
@111410 Channel: 4 Note off, D4 key=62 velocity: 102
@111429 Channel: 4 Note off, D2 key=38 velocity: 122
@111443 Channel: 4 Note off, D3 key=50 velocity: 108
@111482 Channel: 4 Note on, D4 key=62 velocity: 95
@111482 Channel: 4 Note on, A4 key=69 velocity: 86
@111520 Channel: 4 Note off, A4 key=69 velocity: 86
@111526 Channel: 4 Note off, D4 key=62 velocity: 95
@111601 Channel: 4 Note on, A4 key=69 velocity: 91
@111602 Channel: 4 Note on, D4 key=62 velocity: 91
@111639 Channel: 4 Note off, A4 key=69 velocity: 91
@111648 Channel: 4 Note off, D4 key=62 velocity: 91
@111720 Channel: 4 Note on, A4 key=69 velocity: 81
@111721 Channel: 4 Note on, D4 key=62 velocity: 97
@111757 Channel: 4 Note off, A4 key=69 velocity: 81
@111768 Channel: 4 Note off, D4 key=62 velocity: 97
@111839 Channel: 4 Note on, A4 key=69 velocity: 98
@111840 Channel: 4 Note on, D3 key=50 velocity: 98
@111840 Channel: 4 Note on, D2 key=38 velocity: 110
@111841 Channel: 4 Note on, D4 key=62 velocity: 98
@111879 Channel: 4 Note off, A4 key=69 velocity: 98
@111889 Channel: 4 Note off, D4 key=62 velocity: 98
@111913 Channel: 4 Note off, D2 key=38 velocity: 110
@111936 Channel: 4 Note off, D3 key=50 velocity: 98
@111959 Channel: 4 Note on, A4 key=69 velocity: 97
@111961 Channel: 4 Note on, D4 key=62 velocity: 100
@112003 Channel: 4 Note off, A4 key=69 velocity: 97
@112006 Channel: 4 Note off, D4 key=62 velocity: 100
@112079 Channel: 4 Note on, A4 key=69 velocity: 94
@112082 Channel: 4 Note on, D4 key=62 velocity: 97
@112120 Channel: 4 Note off, A4 key=69 velocity: 94
@112129 Channel: 4 Note off, D4 key=62 velocity: 97
@112200 Channel: 4 Note on, A4 key=69 velocity: 98
@112202 Channel: 4 Note on, D4 key=62 velocity: 100
@112239 Channel: 4 Note off, A4 key=69 velocity: 98
@112249 Channel: 4 Note off, D4 key=62 velocity: 100
@112320 Channel: 4 Note on, G2 key=43 velocity: 110
@112320 Channel: 4 Note on, G1 key=31 velocity: 112
@112321 Channel: 4 Note on, A4 key=69 velocity: 102
@112323 Channel: 4 Note on, G4 key=67 velocity: 112
@112360 Channel: 4 Note off, A4 key=69 velocity: 102
@112373 Channel: 4 Note off, G4 key=67 velocity: 112
@112399 Channel: 4 Note off, G1 key=31 velocity: 112
@112419 Channel: 4 Note off, G2 key=43 velocity: 110
@112440 Channel: 4 Note on, A4 key=69 velocity: 97
@112442 Channel: 4 Note on, G4 key=67 velocity: 98
@112480 Channel: 4 Note off, A4 key=69 velocity: 97
@112486 Channel: 4 Note off, G4 key=67 velocity: 98
@112559 Channel: 4 Note on, A4 key=69 velocity: 106
@112561 Channel: 4 Note on, G4 key=67 velocity: 100
@112600 Channel: 4 Note off, A4 key=69 velocity: 106
@112609 Channel: 4 Note off, G4 key=67 velocity: 100
@112679 Channel: 4 Note on, A4 key=69 velocity: 95
@112682 Channel: 4 Note on, G4 key=67 velocity: 104
@112718 Channel: 4 Note off, A4 key=69 velocity: 95
@112729 Channel: 4 Note off, G4 key=67 velocity: 104
@112798 Channel: 4 Note on, A4 key=69 velocity: 100
@112800 Channel: 4 Note on, G2 key=43 velocity: 108
@112800 Channel: 4 Note on, G1 key=31 velocity: 114
@112801 Channel: 4 Note on, G4 key=67 velocity: 102
@112838 Channel: 4 Note off, A4 key=69 velocity: 100
@112849 Channel: 4 Note off, G4 key=67 velocity: 102
@112875 Channel: 4 Note off, G1 key=31 velocity: 114
@112881 Channel: 4 Note off, G2 key=43 velocity: 108
@112918 Channel: 4 Note on, A4 key=69 velocity: 98
@112921 Channel: 4 Note on, G4 key=67 velocity: 104
@112958 Channel: 4 Note off, A4 key=69 velocity: 98
@112967 Channel: 4 Note off, G4 key=67 velocity: 104
@113039 Channel: 4 Note on, A4 key=69 velocity: 97
@113042 Channel: 4 Note on, G4 key=67 velocity: 102
@113077 Channel: 4 Note off, A4 key=69 velocity: 97
@113089 Channel: 4 Note off, G4 key=67 velocity: 102
@113159 Channel: 4 Note on, A4 key=69 velocity: 100
@113162 Channel: 4 Note on, G4 key=67 velocity: 102
@113199 Channel: 4 Note off, A4 key=69 velocity: 100
@113210 Channel: 4 Note off, G4 key=67 velocity: 102
@113279 Channel: 4 Note on, A4 key=69 velocity: 95
@113280 Channel: 4 Note on, G2 key=43 velocity: 106
@113280 Channel: 4 Note on, G1 key=31 velocity: 114
@113282 Channel: 4 Note on, G4 key=67 velocity: 100
@113319 Channel: 4 Note off, A4 key=69 velocity: 95
@113327 Channel: 4 Note off, G4 key=67 velocity: 100
@113352 Channel: 4 Note off, G1 key=31 velocity: 114
@113365 Channel: 4 Note off, G2 key=43 velocity: 106
@113400 Channel: 4 Note on, A4 key=69 velocity: 97
@113402 Channel: 4 Note on, G4 key=67 velocity: 106
@113439 Channel: 4 Note off, A4 key=69 velocity: 97
@113445 Channel: 4 Note off, G4 key=67 velocity: 106
@113520 Channel: 4 Note on, A4 key=69 velocity: 98
@113522 Channel: 4 Note on, G4 key=67 velocity: 90
@113560 Channel: 4 Note off, A4 key=69 velocity: 98
@113568 Channel: 4 Note off, G4 key=67 velocity: 90
@113641 Channel: 4 Note on, A4 key=69 velocity: 91
@113642 Channel: 4 Note on, G4 key=67 velocity: 106
@113677 Channel: 4 Note off, A4 key=69 velocity: 91
@113693 Channel: 4 Note off, G4 key=67 velocity: 106
@113760 Channel: 4 Note on, D3 key=50 velocity: 106
@113760 Channel: 4 Note on, D2 key=38 velocity: 106
@113761 Channel: 4 Note on, A4 key=69 velocity: 100
@113762 Channel: 4 Note on, D4 key=62 velocity: 106
@113797 Channel: 4 Note off, A4 key=69 velocity: 100
@113811 Channel: 4 Note off, D4 key=62 velocity: 106
@113825 Channel: 4 Note off, D2 key=38 velocity: 106
@113858 Channel: 4 Note off, D3 key=50 velocity: 106
@113881 Channel: 4 Note on, A4 key=69 velocity: 91
@113882 Channel: 4 Note on, D4 key=62 velocity: 100
@113919 Channel: 4 Note off, A4 key=69 velocity: 91
@113928 Channel: 4 Note off, D4 key=62 velocity: 100
@114001 Channel: 4 Note on, A4 key=69 velocity: 97
@114002 Channel: 4 Note on, D4 key=62 velocity: 95
@114041 Channel: 4 Note off, A4 key=69 velocity: 97
@114052 Channel: 4 Note off, D4 key=62 velocity: 95
@114121 Channel: 4 Note on, A4 key=69 velocity: 90
@114123 Channel: 4 Note on, D4 key=62 velocity: 102
@114158 Channel: 4 Note off, A4 key=69 velocity: 90
@114169 Channel: 4 Note off, D4 key=62 velocity: 102
@114240 Channel: 4 Note on, D3 key=50 velocity: 104
@114240 Channel: 4 Note on, D2 key=38 velocity: 117
@114241 Channel: 4 Note on, A4 key=69 velocity: 94
@114243 Channel: 4 Note on, D4 key=62 velocity: 95
@114280 Channel: 4 Note off, A4 key=69 velocity: 94
@114286 Channel: 4 Note off, D4 key=62 velocity: 95
@114309 Channel: 4 Note off, D2 key=38 velocity: 117
@114335 Channel: 4 Note off, D3 key=50 velocity: 104
@114360 Channel: 4 Note on, A4 key=69 velocity: 91
@114362 Channel: 4 Note on, D4 key=62 velocity: 94
@114398 Channel: 4 Note off, A4 key=69 velocity: 91
@114410 Channel: 4 Note off, D4 key=62 velocity: 94
@114479 Channel: 4 Note on, A4 key=69 velocity: 92
@114482 Channel: 4 Note on, D4 key=62 velocity: 98
@114519 Channel: 4 Note off, A4 key=69 velocity: 92
@114525 Channel: 4 Note off, D4 key=62 velocity: 98
@114599 Channel: 4 Note on, A4 key=69 velocity: 92
@114602 Channel: 4 Note on, D4 key=62 velocity: 104
@114638 Channel: 4 Note off, A4 key=69 velocity: 92
@114650 Channel: 4 Note off, D4 key=62 velocity: 104
@114718 Channel: 4 Note on, A4 key=69 velocity: 94
@114720 Channel: 4 Note on, D3 key=50 velocity: 95
@114720 Channel: 4 Note on, D2 key=38 velocity: 108
@114722 Channel: 4 Note on, D4 key=62 velocity: 95
@114757 Channel: 4 Note off, A4 key=69 velocity: 94
@114766 Channel: 4 Note off, D4 key=62 velocity: 95
@114779 Channel: 4 Note off, D2 key=38 velocity: 108
@114827 Channel: 4 Note off, D3 key=50 velocity: 95
@114837 Channel: 4 Note on, A4 key=69 velocity: 90
@114841 Channel: 4 Note on, D4 key=62 velocity: 95
@114882 Channel: 4 Note off, A4 key=69 velocity: 90
@114883 Channel: 4 Note off, D4 key=62 velocity: 95
@114957 Channel: 4 Note on, A4 key=69 velocity: 94
@114961 Channel: 4 Note on, D4 key=62 velocity: 98
@114997 Channel: 4 Note off, A4 key=69 velocity: 94
@115007 Channel: 4 Note off, D4 key=62 velocity: 98
@115078 Channel: 4 Note on, A4 key=69 velocity: 95
@115081 Channel: 4 Note on, D4 key=62 velocity: 97
@115122 Channel: 4 Note off, A4 key=69 velocity: 95
@115129 Channel: 4 Note off, D4 key=62 velocity: 97
@115199 Channel: 4 Note on, A4 key=69 velocity: 94
@115200 Channel: 4 Note on, G2 key=43 velocity: 104
@115200 Channel: 4 Note on, G1 key=31 velocity: 112
@115201 Channel: 4 Note on, G4 key=67 velocity: 106
@115243 Channel: 4 Note off, A4 key=69 velocity: 94
@115251 Channel: 4 Note off, G4 key=67 velocity: 106
@115283 Channel: 4 Note off, G1 key=31 velocity: 112
@115303 Channel: 4 Note off, G2 key=43 velocity: 104
@115319 Channel: 4 Note on, A4 key=69 velocity: 92
@115320 Channel: 4 Note on, G4 key=67 velocity: 104
@115359 Channel: 4 Note off, A4 key=69 velocity: 92
@115371 Channel: 4 Note off, G4 key=67 velocity: 104
@115439 Channel: 4 Note on, A4 key=69 velocity: 94
@115440 Channel: 4 Note on, G4 key=67 velocity: 97
@115481 Channel: 4 Note off, A4 key=69 velocity: 94
@115492 Channel: 4 Note off, G4 key=67 velocity: 97
@115559 Channel: 4 Note on, G4 key=67 velocity: 92
@115559 Channel: 4 Note on, A4 key=69 velocity: 94
@115599 Channel: 4 Note off, A4 key=69 velocity: 94
@115606 Channel: 4 Note off, G4 key=67 velocity: 92
@115679 Channel: 4 Note on, G4 key=67 velocity: 91
@115679 Channel: 4 Note on, A4 key=69 velocity: 98
@115680 Channel: 4 Note on, G2 key=43 velocity: 106
@115680 Channel: 4 Note on, G1 key=31 velocity: 120
@115717 Channel: 4 Note off, A4 key=69 velocity: 98
@115727 Channel: 4 Note off, G4 key=67 velocity: 91
@115747 Channel: 4 Note off, G1 key=31 velocity: 120
@115773 Channel: 4 Note off, G2 key=43 velocity: 106
@115798 Channel: 4 Note on, A4 key=69 velocity: 94
@115799 Channel: 4 Note on, G4 key=67 velocity: 92
@115842 Channel: 4 Note off, A4 key=69 velocity: 94
@115851 Channel: 4 Note off, G4 key=67 velocity: 92
@115919 Channel: 4 Note on, A4 key=69 velocity: 94
@115920 Channel: 4 Note on, G4 key=67 velocity: 95
@115961 Channel: 4 Note off, A4 key=69 velocity: 94
@115972 Channel: 4 Note off, G4 key=67 velocity: 95
@116039 Channel: 4 Note on, A4 key=69 velocity: 94
@116040 Channel: 4 Note on, G4 key=67 velocity: 94
@116082 Channel: 4 Note off, A4 key=69 velocity: 94
@116087 Channel: 4 Note off, G4 key=67 velocity: 94
@116159 Channel: 4 Note on, A4 key=69 velocity: 94
@116160 Channel: 4 Note on, G4 key=67 velocity: 104
@116160 Channel: 4 Note on, G2 key=43 velocity: 108
@116160 Channel: 4 Note on, G1 key=31 velocity: 120
@116206 Channel: 4 Note off, A4 key=69 velocity: 94
@116209 Channel: 4 Note off, G4 key=67 velocity: 104
@116235 Channel: 4 Note off, G1 key=31 velocity: 120
@116245 Channel: 4 Note off, G2 key=43 velocity: 108
@116280 Channel: 4 Note on, G4 key=67 velocity: 94
@116280 Channel: 4 Note on, A4 key=69 velocity: 94
@116320 Channel: 4 Note off, A4 key=69 velocity: 94
@116329 Channel: 4 Note off, G4 key=67 velocity: 94
@116400 Channel: 4 Note on, G4 key=67 velocity: 100
@116400 Channel: 4 Note on, A4 key=69 velocity: 98
@116444 Channel: 4 Note off, A4 key=69 velocity: 98
@116446 Channel: 4 Note off, G4 key=67 velocity: 100
@116520 Channel: 4 Note on, G4 key=67 velocity: 106
@116520 Channel: 4 Note on, A4 key=69 velocity: 95
@116559 Channel: 4 Note off, A4 key=69 velocity: 95
@116571 Channel: 4 Note off, G4 key=67 velocity: 106
@116640 Channel: 4 Note on, D4 key=62 velocity: 98
@116640 Channel: 4 Note on, A4 key=69 velocity: 100
@116640 Channel: 4 Note on, D3 key=50 velocity: 108
@116640 Channel: 4 Note on, D2 key=38 velocity: 98
@116679 Channel: 4 Note off, A4 key=69 velocity: 100
@116687 Channel: 4 Note off, D4 key=62 velocity: 98
@116703 Channel: 4 Note off, D2 key=38 velocity: 98
@116729 Channel: 4 Note off, D3 key=50 velocity: 108
@116760 Channel: 4 Note on, D4 key=62 velocity: 92
@116760 Channel: 4 Note on, A4 key=69 velocity: 97
@116800 Channel: 4 Note off, A4 key=69 velocity: 97
@116808 Channel: 4 Note off, D4 key=62 velocity: 92
@116880 Channel: 4 Note on, D4 key=62 velocity: 92
@116880 Channel: 4 Note on, A4 key=69 velocity: 102
@116917 Channel: 4 Note off, A4 key=69 velocity: 102
@116933 Channel: 4 Note off, D4 key=62 velocity: 92
@117000 Channel: 4 Note on, A4 key=69 velocity: 106
@117001 Channel: 4 Note on, D4 key=62 velocity: 90
@117043 Channel: 4 Note off, A4 key=69 velocity: 106
@117052 Channel: 4 Note off, D4 key=62 velocity: 90
@117120 Channel: 4 Note on, A4 key=69 velocity: 95
@117120 Channel: 4 Note on, D3 key=50 velocity: 102
@117120 Channel: 4 Note on, D2 key=38 velocity: 108
@117121 Channel: 4 Note on, D4 key=62 velocity: 94
@117162 Channel: 4 Note off, A4 key=69 velocity: 95
@117173 Channel: 4 Note off, D4 key=62 velocity: 94
@117186 Channel: 4 Note off, D2 key=38 velocity: 108
@117206 Channel: 4 Note off, D3 key=50 velocity: 102
@117239 Channel: 4 Note on, A4 key=69 velocity: 97
@117240 Channel: 4 Note on, D4 key=62 velocity: 88
@117278 Channel: 4 Note off, A4 key=69 velocity: 97
@117294 Channel: 4 Note off, D4 key=62 velocity: 88
@117359 Channel: 4 Note on, A4 key=69 velocity: 106
@117360 Channel: 4 Note on, D4 key=62 velocity: 91
@117398 Channel: 4 Note off, A4 key=69 velocity: 106
@117414 Channel: 4 Note off, D4 key=62 velocity: 91
@117478 Channel: 4 Note on, A4 key=69 velocity: 98
@117480 Channel: 4 Note on, D4 key=62 velocity: 91
@117522 Channel: 4 Note off, A4 key=69 velocity: 98
@117529 Channel: 4 Note off, D4 key=62 velocity: 91
@117598 Channel: 4 Note on, A4 key=69 velocity: 97
@117600 Channel: 4 Note on, D3 key=50 velocity: 106
@117600 Channel: 4 Note on, D2 key=38 velocity: 112
@117601 Channel: 4 Note on, D4 key=62 velocity: 95
@117638 Channel: 4 Note off, A4 key=69 velocity: 97
@117656 Channel: 4 Note off, D4 key=62 velocity: 95
@117668 Channel: 4 Note off, D2 key=38 velocity: 112
@117696 Channel: 4 Note off, D3 key=50 velocity: 106
@117718 Channel: 4 Note on, A4 key=69 velocity: 95
@117721 Channel: 4 Note on, D4 key=62 velocity: 94
@117761 Channel: 4 Note off, A4 key=69 velocity: 95
@117769 Channel: 4 Note off, D4 key=62 velocity: 94
@117839 Channel: 4 Note on, A4 key=69 velocity: 97
@117841 Channel: 4 Note on, D4 key=62 velocity: 95
@117879 Channel: 4 Note off, A4 key=69 velocity: 97
@117889 Channel: 4 Note off, D4 key=62 velocity: 95
@117959 Channel: 4 Note on, A4 key=69 velocity: 102
@117962 Channel: 4 Note on, D4 key=62 velocity: 98
@117997 Channel: 4 Note off, A4 key=69 velocity: 102
@118011 Channel: 4 Note off, D4 key=62 velocity: 98
@118079 Channel: 4 Note on, A4 key=69 velocity: 104
@118080 Channel: 4 Note on, G2 key=43 velocity: 108
@118080 Channel: 4 Note on, G1 key=31 velocity: 120
@118082 Channel: 4 Note on, G4 key=67 velocity: 106
@118120 Channel: 4 Note off, A4 key=69 velocity: 104
@118130 Channel: 4 Note off, G4 key=67 velocity: 106
@118154 Channel: 4 Note off, G1 key=31 velocity: 120
@118176 Channel: 4 Note off, G2 key=43 velocity: 108
@118200 Channel: 4 Note on, A4 key=69 velocity: 98
@118202 Channel: 4 Note on, G4 key=67 velocity: 97
@118237 Channel: 4 Note off, A4 key=69 velocity: 98
@118251 Channel: 4 Note off, G4 key=67 velocity: 97
@118319 Channel: 4 Note on, A4 key=69 velocity: 100
@118321 Channel: 4 Note on, G4 key=67 velocity: 98
@118359 Channel: 4 Note off, A4 key=69 velocity: 100
@118375 Channel: 4 Note off, G4 key=67 velocity: 98
@118439 Channel: 4 Note on, A4 key=69 velocity: 98
@118441 Channel: 4 Note on, G4 key=67 velocity: 91
@118477 Channel: 4 Note off, A4 key=69 velocity: 98
@118492 Channel: 4 Note off, G4 key=67 velocity: 91
@118559 Channel: 4 Note on, A4 key=69 velocity: 100
@118560 Channel: 4 Note on, G2 key=43 velocity: 108
@118560 Channel: 4 Note on, G1 key=31 velocity: 122
@118561 Channel: 4 Note on, G4 key=67 velocity: 94
@118600 Channel: 4 Note off, A4 key=69 velocity: 100
@118613 Channel: 4 Note off, G4 key=67 velocity: 94
@118639 Channel: 4 Note off, G1 key=31 velocity: 122
@118657 Channel: 4 Note off, G2 key=43 velocity: 108
@118678 Channel: 4 Note on, A4 key=69 velocity: 86
@118681 Channel: 4 Note on, G4 key=67 velocity: 91
@118719 Channel: 4 Note off, A4 key=69 velocity: 86
@118732 Channel: 4 Note off, G4 key=67 velocity: 91
@118798 Channel: 4 Note on, A4 key=69 velocity: 95
@118802 Channel: 4 Note on, G4 key=67 velocity: 92
@118839 Channel: 4 Note off, A4 key=69 velocity: 95
@118852 Channel: 4 Note off, G4 key=67 velocity: 92
@118918 Channel: 4 Note on, A4 key=69 velocity: 94
@118921 Channel: 4 Note on, G4 key=67 velocity: 98
@118960 Channel: 4 Note off, A4 key=69 velocity: 94
@118964 Channel: 4 Note off, G4 key=67 velocity: 98
@119038 Channel: 4 Note on, A4 key=69 velocity: 100
@119040 Channel: 4 Note on, G2 key=43 velocity: 108
@119040 Channel: 4 Note on, G1 key=31 velocity: 110
@119041 Channel: 4 Note on, G4 key=67 velocity: 100
@119077 Channel: 4 Note off, A4 key=69 velocity: 100
@119086 Channel: 4 Note off, G4 key=67 velocity: 100
@119116 Channel: 4 Note off, G1 key=31 velocity: 110
@119139 Channel: 4 Note off, G2 key=43 velocity: 108
@119158 Channel: 4 Note on, A4 key=69 velocity: 97
@119161 Channel: 4 Note on, G4 key=67 velocity: 102
@119197 Channel: 4 Note off, A4 key=69 velocity: 97
@119207 Channel: 4 Note off, G4 key=67 velocity: 102
@119279 Channel: 4 Note on, A4 key=69 velocity: 95
@119282 Channel: 4 Note on, G4 key=67 velocity: 94
@119322 Channel: 4 Note off, A4 key=69 velocity: 95
@119327 Channel: 4 Note off, G4 key=67 velocity: 94
@119400 Channel: 4 Note on, A4 key=69 velocity: 97
@119401 Channel: 4 Note on, G4 key=67 velocity: 102
@119440 Channel: 4 Note off, A4 key=69 velocity: 97
@119455 Channel: 4 Note off, G4 key=67 velocity: 102
@119520 Channel: 4 Note on, D4 key=62 velocity: 98
@119520 Channel: 4 Note on, D3 key=50 velocity: 106
@119520 Channel: 4 Note on, D2 key=38 velocity: 104
@119521 Channel: 4 Note on, A4 key=69 velocity: 98
@119566 Channel: 4 Note off, A4 key=69 velocity: 98
@119570 Channel: 4 Note off, D4 key=62 velocity: 98
@119590 Channel: 4 Note off, D2 key=38 velocity: 104
@119632 Channel: 4 Note off, D3 key=50 velocity: 106
@119640 Channel: 4 Note on, D4 key=62 velocity: 87
@119642 Channel: 4 Note on, A4 key=69 velocity: 94
@119667 Channel: 4 Note off, A4 key=69 velocity: 94
@119691 Channel: 4 Note off, D4 key=62 velocity: 87
@119761 Channel: 4 Note on, D4 key=62 velocity: 91
@119762 Channel: 4 Note on, A4 key=69 velocity: 100
@119804 Channel: 4 Note off, A4 key=69 velocity: 100
@119816 Channel: 4 Note off, D4 key=62 velocity: 91
@119882 Channel: 4 Note on, D4 key=62 velocity: 91
@119882 Channel: 4 Note on, A4 key=69 velocity: 95
@119923 Channel: 4 Note off, A4 key=69 velocity: 95
@119932 Channel: 4 Note off, D4 key=62 velocity: 91
@120000 Channel: 4 Note on, D3 key=50 velocity: 95
@120000 Channel: 4 Note on, D2 key=38 velocity: 108
@120001 Channel: 4 Note on, D4 key=62 velocity: 91
@120002 Channel: 4 Note on, A4 key=69 velocity: 97
@120040 Channel: 4 Note off, A4 key=69 velocity: 97
@120056 Channel: 4 Note off, D4 key=62 velocity: 91
@120077 Channel: 4 Note off, D2 key=38 velocity: 108
@120122 Channel: 4 Note on, A4 key=69 velocity: 97
@120123 Channel: 4 Note on, D4 key=62 velocity: 90
@120126 Channel: 4 Note off, D3 key=50 velocity: 95
@120157 Channel: 4 Note off, A4 key=69 velocity: 97
@120175 Channel: 4 Note off, D4 key=62 velocity: 90
@120241 Channel: 4 Note on, A4 key=69 velocity: 98
@120242 Channel: 4 Note on, D4 key=62 velocity: 85
@120281 Channel: 4 Note off, A4 key=69 velocity: 98
@120294 Channel: 4 Note off, D4 key=62 velocity: 85
@120361 Channel: 4 Note on, A4 key=69 velocity: 86
@120363 Channel: 4 Note on, D4 key=62 velocity: 84
@120400 Channel: 4 Note off, A4 key=69 velocity: 86
@120410 Channel: 4 Note off, D4 key=62 velocity: 84
@120480 Channel: 4 Note on, A4 key=69 velocity: 91
@120480 Channel: 4 Note on, D3 key=50 velocity: 104
@120480 Channel: 4 Note on, D2 key=38 velocity: 110
@120482 Channel: 4 Note on, D4 key=62 velocity: 86
@120521 Channel: 4 Note off, A4 key=69 velocity: 91
@120536 Channel: 4 Note off, D4 key=62 velocity: 86
@120551 Channel: 4 Note off, D2 key=38 velocity: 110
@120572 Channel: 4 Note off, D3 key=50 velocity: 104
@120600 Channel: 4 Note on, A4 key=69 velocity: 91
@120602 Channel: 4 Note on, D4 key=62 velocity: 81
@120646 Channel: 4 Note off, A4 key=69 velocity: 91
@120652 Channel: 4 Note off, D4 key=62 velocity: 81
@120720 Channel: 4 Note on, A4 key=69 velocity: 92
@120723 Channel: 4 Note on, D4 key=62 velocity: 85
@120762 Channel: 4 Note off, A4 key=69 velocity: 92
@120778 Channel: 4 Note off, D4 key=62 velocity: 85
@120839 Channel: 4 Note on, A4 key=69 velocity: 84
@120842 Channel: 4 Note on, D4 key=62 velocity: 83
@120882 Channel: 4 Note off, A4 key=69 velocity: 84
@120896 Channel: 4 Note off, D4 key=62 velocity: 83
@120960 Channel: 4 Note on, A4 key=69 velocity: 97
@120960 Channel: 4 Note on, A2 key=45 velocity: 100
@120960 Channel: 4 Note on, A1 key=33 velocity: 117
@121002 Channel: 4 Note off, A4 key=69 velocity: 97
@121043 Channel: 4 Note off, A1 key=33 velocity: 117
@121057 Channel: 4 Note off, A2 key=45 velocity: 100
@121080 Channel: 4 Note on, A4 key=69 velocity: 92
@121122 Channel: 4 Note off, A4 key=69 velocity: 92
@121199 Channel: 4 Note on, A4 key=69 velocity: 92
@121242 Channel: 4 Note off, A4 key=69 velocity: 92
@121319 Channel: 4 Note on, A4 key=69 velocity: 84
@121360 Channel: 4 Note off, A4 key=69 velocity: 84
@121439 Channel: 4 Note on, A4 key=69 velocity: 95
@121440 Channel: 4 Note on, A2 key=45 velocity: 108
@121440 Channel: 4 Note on, A1 key=33 velocity: 122
@121481 Channel: 4 Note off, A4 key=69 velocity: 95
@121533 Channel: 4 Note off, A2 key=45 velocity: 108
@121535 Channel: 4 Note off, A1 key=33 velocity: 122
@121559 Channel: 4 Note on, A4 key=69 velocity: 97
@121601 Channel: 4 Note off, A4 key=69 velocity: 97
@121679 Channel: 4 Note on, A4 key=69 velocity: 100
@121716 Channel: 4 Note off, A4 key=69 velocity: 100
@121798 Channel: 4 Note on, A4 key=69 velocity: 92
@121838 Channel: 4 Note off, A4 key=69 velocity: 92
@121918 Channel: 4 Note on, A4 key=69 velocity: 95
@121920 Channel: 4 Note on, A2 key=45 velocity: 114
@121920 Channel: 4 Note on, A1 key=33 velocity: 127
@121961 Channel: 4 Note off, A4 key=69 velocity: 95
@121996 Channel: 4 Note off, A1 key=33 velocity: 127
@122002 Channel: 4 Note off, A2 key=45 velocity: 114
@122037 Channel: 4 Note on, A4 key=69 velocity: 92
@122076 Channel: 4 Note off, A4 key=69 velocity: 92
@122157 Channel: 4 Note on, A4 key=69 velocity: 97
@122198 Channel: 4 Note off, A4 key=69 velocity: 97
@122278 Channel: 4 Note on, A4 key=69 velocity: 98
@122318 Channel: 4 Note off, A4 key=69 velocity: 98
@122400 Channel: 4 Note on, D4 key=62 velocity: 104
@122400 Channel: 4 Note on, A4 key=69 velocity: 77
@122400 Channel: 4 Note on, D3 key=50 velocity: 114
@122400 Channel: 4 Note on, D2 key=38 velocity: 122
@122450 Channel: 4 Note off, A4 key=69 velocity: 77
@122454 Channel: 4 Note off, D4 key=62 velocity: 104
@122487 Channel: 4 Note off, D2 key=38 velocity: 122
@122502 Channel: 4 Note off, D3 key=50 velocity: 114
@122522 Channel: 4 Note on, A4 key=69 velocity: 73
@122523 Channel: 4 Note on, D4 key=62 velocity: 97
@122571 Channel: 4 Note off, A4 key=69 velocity: 73
@122572 Channel: 4 Note off, D4 key=62 velocity: 97
@122642 Channel: 4 Note on, A4 key=69 velocity: 77
@122643 Channel: 4 Note on, D4 key=62 velocity: 94
@122691 Channel: 4 Note off, A4 key=69 velocity: 77
@122694 Channel: 4 Note off, D4 key=62 velocity: 94
@122763 Channel: 4 Note on, A4 key=69 velocity: 83
@122764 Channel: 4 Note on, D4 key=62 velocity: 100
@122804 Channel: 4 Note off, A4 key=69 velocity: 83
@122813 Channel: 4 Note off, D4 key=62 velocity: 100
@122880 Channel: 4 Note on, D3 key=50 velocity: 108
@122880 Channel: 4 Note on, D2 key=38 velocity: 122
@122882 Channel: 4 Note on, A4 key=69 velocity: 94
@122883 Channel: 4 Note on, D4 key=62 velocity: 102
@122926 Channel: 4 Note off, A4 key=69 velocity: 94
@122930 Channel: 4 Note off, D4 key=62 velocity: 102
@122949 Channel: 4 Note off, D2 key=38 velocity: 122
@122963 Channel: 4 Note off, D3 key=50 velocity: 108
@123002 Channel: 4 Note on, D4 key=62 velocity: 95
@123002 Channel: 4 Note on, A4 key=69 velocity: 86
@123040 Channel: 4 Note off, A4 key=69 velocity: 86
@123046 Channel: 4 Note off, D4 key=62 velocity: 95
@123121 Channel: 4 Note on, A4 key=69 velocity: 91
@123122 Channel: 4 Note on, D4 key=62 velocity: 91
@123159 Channel: 4 Note off, A4 key=69 velocity: 91
@123168 Channel: 4 Note off, D4 key=62 velocity: 91
@123240 Channel: 4 Note on, A4 key=69 velocity: 81
@123241 Channel: 4 Note on, D4 key=62 velocity: 97
@123277 Channel: 4 Note off, A4 key=69 velocity: 81
@123288 Channel: 4 Note off, D4 key=62 velocity: 97
@123359 Channel: 4 Note on, A4 key=69 velocity: 98
@123360 Channel: 4 Note on, D3 key=50 velocity: 98
@123360 Channel: 4 Note on, D2 key=38 velocity: 110
@123361 Channel: 4 Note on, D4 key=62 velocity: 98
@123399 Channel: 4 Note off, A4 key=69 velocity: 98
@123409 Channel: 4 Note off, D4 key=62 velocity: 98
@123433 Channel: 4 Note off, D2 key=38 velocity: 110
@123456 Channel: 4 Note off, D3 key=50 velocity: 98
@123479 Channel: 4 Note on, A4 key=69 velocity: 97
@123481 Channel: 4 Note on, D4 key=62 velocity: 100
@123523 Channel: 4 Note off, A4 key=69 velocity: 97
@123526 Channel: 4 Note off, D4 key=62 velocity: 100
@123599 Channel: 4 Note on, A4 key=69 velocity: 94
@123602 Channel: 4 Note on, D4 key=62 velocity: 97
@123640 Channel: 4 Note off, A4 key=69 velocity: 94
@123649 Channel: 4 Note off, D4 key=62 velocity: 97
@123720 Channel: 4 Note on, A4 key=69 velocity: 98
@123722 Channel: 4 Note on, D4 key=62 velocity: 100
@123759 Channel: 4 Note off, A4 key=69 velocity: 98
@123769 Channel: 4 Note off, D4 key=62 velocity: 100
@123840 Channel: 4 Note on, G2 key=43 velocity: 110
@123840 Channel: 4 Note on, G1 key=31 velocity: 112
@123841 Channel: 4 Note on, A4 key=69 velocity: 102
@123843 Channel: 4 Note on, G4 key=67 velocity: 112
@123880 Channel: 4 Note off, A4 key=69 velocity: 102
@123893 Channel: 4 Note off, G4 key=67 velocity: 112
@123919 Channel: 4 Note off, G1 key=31 velocity: 112
@123939 Channel: 4 Note off, G2 key=43 velocity: 110
@123960 Channel: 4 Note on, A4 key=69 velocity: 97
@123962 Channel: 4 Note on, G4 key=67 velocity: 98
@124000 Channel: 4 Note off, A4 key=69 velocity: 97
@124006 Channel: 4 Note off, G4 key=67 velocity: 98
@124079 Channel: 4 Note on, A4 key=69 velocity: 106
@124081 Channel: 4 Note on, G4 key=67 velocity: 100
@124120 Channel: 4 Note off, A4 key=69 velocity: 106
@124129 Channel: 4 Note off, G4 key=67 velocity: 100
@124199 Channel: 4 Note on, A4 key=69 velocity: 95
@124202 Channel: 4 Note on, G4 key=67 velocity: 104
@124238 Channel: 4 Note off, A4 key=69 velocity: 95
@124249 Channel: 4 Note off, G4 key=67 velocity: 104
@124318 Channel: 4 Note on, A4 key=69 velocity: 100
@124320 Channel: 4 Note on, G2 key=43 velocity: 108
@124320 Channel: 4 Note on, G1 key=31 velocity: 114
@124321 Channel: 4 Note on, G4 key=67 velocity: 102
@124358 Channel: 4 Note off, A4 key=69 velocity: 100
@124369 Channel: 4 Note off, G4 key=67 velocity: 102
@124395 Channel: 4 Note off, G1 key=31 velocity: 114
@124401 Channel: 4 Note off, G2 key=43 velocity: 108
@124438 Channel: 4 Note on, A4 key=69 velocity: 98
@124441 Channel: 4 Note on, G4 key=67 velocity: 104
@124478 Channel: 4 Note off, A4 key=69 velocity: 98
@124487 Channel: 4 Note off, G4 key=67 velocity: 104
@124559 Channel: 4 Note on, A4 key=69 velocity: 97
@124562 Channel: 4 Note on, G4 key=67 velocity: 102
@124597 Channel: 4 Note off, A4 key=69 velocity: 97
@124609 Channel: 4 Note off, G4 key=67 velocity: 102
@124679 Channel: 4 Note on, A4 key=69 velocity: 100
@124682 Channel: 4 Note on, G4 key=67 velocity: 102
@124719 Channel: 4 Note off, A4 key=69 velocity: 100
@124730 Channel: 4 Note off, G4 key=67 velocity: 102
@124799 Channel: 4 Note on, A4 key=69 velocity: 95
@124800 Channel: 4 Note on, G2 key=43 velocity: 106
@124800 Channel: 4 Note on, G1 key=31 velocity: 114
@124802 Channel: 4 Note on, G4 key=67 velocity: 100
@124839 Channel: 4 Note off, A4 key=69 velocity: 95
@124847 Channel: 4 Note off, G4 key=67 velocity: 100
@124872 Channel: 4 Note off, G1 key=31 velocity: 114
@124885 Channel: 4 Note off, G2 key=43 velocity: 106
@124920 Channel: 4 Note on, A4 key=69 velocity: 97
@124922 Channel: 4 Note on, G4 key=67 velocity: 106
@124959 Channel: 4 Note off, A4 key=69 velocity: 97
@124965 Channel: 4 Note off, G4 key=67 velocity: 106
@125040 Channel: 4 Note on, A4 key=69 velocity: 98
@125042 Channel: 4 Note on, G4 key=67 velocity: 90
@125080 Channel: 4 Note off, A4 key=69 velocity: 98
@125088 Channel: 4 Note off, G4 key=67 velocity: 90
@125161 Channel: 4 Note on, A4 key=69 velocity: 91
@125162 Channel: 4 Note on, G4 key=67 velocity: 106
@125197 Channel: 4 Note off, A4 key=69 velocity: 91
@125213 Channel: 4 Note off, G4 key=67 velocity: 106
@125280 Channel: 4 Note on, D3 key=50 velocity: 106
@125280 Channel: 4 Note on, D2 key=38 velocity: 106
@125281 Channel: 4 Note on, A4 key=69 velocity: 100
@125282 Channel: 4 Note on, D4 key=62 velocity: 106
@125317 Channel: 4 Note off, A4 key=69 velocity: 100
@125331 Channel: 4 Note off, D4 key=62 velocity: 106
@125345 Channel: 4 Note off, D2 key=38 velocity: 106
@125378 Channel: 4 Note off, D3 key=50 velocity: 106
@125401 Channel: 4 Note on, A4 key=69 velocity: 91
@125402 Channel: 4 Note on, D4 key=62 velocity: 100
@125439 Channel: 4 Note off, A4 key=69 velocity: 91
@125448 Channel: 4 Note off, D4 key=62 velocity: 100
@125521 Channel: 4 Note on, A4 key=69 velocity: 97
@125522 Channel: 4 Note on, D4 key=62 velocity: 95
@125561 Channel: 4 Note off, A4 key=69 velocity: 97
@125572 Channel: 4 Note off, D4 key=62 velocity: 95
@125641 Channel: 4 Note on, A4 key=69 velocity: 90
@125643 Channel: 4 Note on, D4 key=62 velocity: 102
@125678 Channel: 4 Note off, A4 key=69 velocity: 90
@125689 Channel: 4 Note off, D4 key=62 velocity: 102
@125760 Channel: 4 Note on, D3 key=50 velocity: 104
@125760 Channel: 4 Note on, D2 key=38 velocity: 117
@125761 Channel: 4 Note on, A4 key=69 velocity: 94
@125763 Channel: 4 Note on, D4 key=62 velocity: 95
@125800 Channel: 4 Note off, A4 key=69 velocity: 94
@125806 Channel: 4 Note off, D4 key=62 velocity: 95
@125829 Channel: 4 Note off, D2 key=38 velocity: 117
@125855 Channel: 4 Note off, D3 key=50 velocity: 104
@125880 Channel: 4 Note on, A4 key=69 velocity: 91
@125882 Channel: 4 Note on, D4 key=62 velocity: 94
@125918 Channel: 4 Note off, A4 key=69 velocity: 91
@125930 Channel: 4 Note off, D4 key=62 velocity: 94
@125999 Channel: 4 Note on, A4 key=69 velocity: 92
@126002 Channel: 4 Note on, D4 key=62 velocity: 98
@126039 Channel: 4 Note off, A4 key=69 velocity: 92
@126045 Channel: 4 Note off, D4 key=62 velocity: 98
@126119 Channel: 4 Note on, A4 key=69 velocity: 92
@126122 Channel: 4 Note on, D4 key=62 velocity: 104
@126158 Channel: 4 Note off, A4 key=69 velocity: 92
@126170 Channel: 4 Note off, D4 key=62 velocity: 104
@126238 Channel: 4 Note on, A4 key=69 velocity: 94
@126240 Channel: 4 Note on, D3 key=50 velocity: 95
@126240 Channel: 4 Note on, D2 key=38 velocity: 108
@126242 Channel: 4 Note on, D4 key=62 velocity: 95
@126277 Channel: 4 Note off, A4 key=69 velocity: 94
@126286 Channel: 4 Note off, D4 key=62 velocity: 95
@126299 Channel: 4 Note off, D2 key=38 velocity: 108
@126347 Channel: 4 Note off, D3 key=50 velocity: 95
@126357 Channel: 4 Note on, A4 key=69 velocity: 90
@126361 Channel: 4 Note on, D4 key=62 velocity: 95
@126402 Channel: 4 Note off, A4 key=69 velocity: 90
@126403 Channel: 4 Note off, D4 key=62 velocity: 95
@126477 Channel: 4 Note on, A4 key=69 velocity: 94
@126481 Channel: 4 Note on, D4 key=62 velocity: 98
@126517 Channel: 4 Note off, A4 key=69 velocity: 94
@126527 Channel: 4 Note off, D4 key=62 velocity: 98
@126598 Channel: 4 Note on, A4 key=69 velocity: 95
@126601 Channel: 4 Note on, D4 key=62 velocity: 97
@126642 Channel: 4 Note off, A4 key=69 velocity: 95
@126649 Channel: 4 Note off, D4 key=62 velocity: 97
@126719 Channel: 4 Note on, A4 key=69 velocity: 94
@126720 Channel: 4 Note on, G2 key=43 velocity: 104
@126720 Channel: 4 Note on, G1 key=31 velocity: 112
@126721 Channel: 4 Note on, G4 key=67 velocity: 106
@126763 Channel: 4 Note off, A4 key=69 velocity: 94
@126771 Channel: 4 Note off, G4 key=67 velocity: 106
@126803 Channel: 4 Note off, G1 key=31 velocity: 112
@126823 Channel: 4 Note off, G2 key=43 velocity: 104
@126839 Channel: 4 Note on, A4 key=69 velocity: 92
@126840 Channel: 4 Note on, G4 key=67 velocity: 104
@126879 Channel: 4 Note off, A4 key=69 velocity: 92
@126891 Channel: 4 Note off, G4 key=67 velocity: 104
@126959 Channel: 4 Note on, A4 key=69 velocity: 94
@126960 Channel: 4 Note on, G4 key=67 velocity: 97
@127001 Channel: 4 Note off, A4 key=69 velocity: 94
@127012 Channel: 4 Note off, G4 key=67 velocity: 97
@127079 Channel: 4 Note on, G4 key=67 velocity: 92
@127079 Channel: 4 Note on, A4 key=69 velocity: 94
@127119 Channel: 4 Note off, A4 key=69 velocity: 94
@127126 Channel: 4 Note off, G4 key=67 velocity: 92
@127199 Channel: 4 Note on, G4 key=67 velocity: 91
@127199 Channel: 4 Note on, A4 key=69 velocity: 98
@127200 Channel: 4 Note on, G2 key=43 velocity: 106
@127200 Channel: 4 Note on, G1 key=31 velocity: 120
@127237 Channel: 4 Note off, A4 key=69 velocity: 98
@127247 Channel: 4 Note off, G4 key=67 velocity: 91
@127267 Channel: 4 Note off, G1 key=31 velocity: 120
@127293 Channel: 4 Note off, G2 key=43 velocity: 106
@127318 Channel: 4 Note on, A4 key=69 velocity: 94
@127319 Channel: 4 Note on, G4 key=67 velocity: 92
@127362 Channel: 4 Note off, A4 key=69 velocity: 94
@127371 Channel: 4 Note off, G4 key=67 velocity: 92
@127439 Channel: 4 Note on, A4 key=69 velocity: 94
@127440 Channel: 4 Note on, G4 key=67 velocity: 95
@127481 Channel: 4 Note off, A4 key=69 velocity: 94
@127492 Channel: 4 Note off, G4 key=67 velocity: 95
@127559 Channel: 4 Note on, A4 key=69 velocity: 94
@127560 Channel: 4 Note on, G4 key=67 velocity: 94
@127602 Channel: 4 Note off, A4 key=69 velocity: 94
@127607 Channel: 4 Note off, G4 key=67 velocity: 94
@127679 Channel: 4 Note on, A4 key=69 velocity: 94
@127680 Channel: 4 Note on, G4 key=67 velocity: 104
@127680 Channel: 4 Note on, G2 key=43 velocity: 108
@127680 Channel: 4 Note on, G1 key=31 velocity: 120
@127726 Channel: 4 Note off, A4 key=69 velocity: 94
@127729 Channel: 4 Note off, G4 key=67 velocity: 104
@127755 Channel: 4 Note off, G1 key=31 velocity: 120
@127765 Channel: 4 Note off, G2 key=43 velocity: 108
@127800 Channel: 4 Note on, G4 key=67 velocity: 94
@127800 Channel: 4 Note on, A4 key=69 velocity: 94
@127840 Channel: 4 Note off, A4 key=69 velocity: 94
@127849 Channel: 4 Note off, G4 key=67 velocity: 94
@127920 Channel: 4 Note on, G4 key=67 velocity: 100
@127920 Channel: 4 Note on, A4 key=69 velocity: 98
@127964 Channel: 4 Note off, A4 key=69 velocity: 98
@127966 Channel: 4 Note off, G4 key=67 velocity: 100
@128040 Channel: 4 Note on, G4 key=67 velocity: 106
@128040 Channel: 4 Note on, A4 key=69 velocity: 95
@128079 Channel: 4 Note off, A4 key=69 velocity: 95
@128091 Channel: 4 Note off, G4 key=67 velocity: 106
@128160 Channel: 4 Note on, D4 key=62 velocity: 98
@128160 Channel: 4 Note on, A4 key=69 velocity: 100
@128160 Channel: 4 Note on, D3 key=50 velocity: 108
@128160 Channel: 4 Note on, D2 key=38 velocity: 98
@128199 Channel: 4 Note off, A4 key=69 velocity: 100
@128207 Channel: 4 Note off, D4 key=62 velocity: 98
@128223 Channel: 4 Note off, D2 key=38 velocity: 98
@128249 Channel: 4 Note off, D3 key=50 velocity: 108
@128280 Channel: 4 Note on, D4 key=62 velocity: 92
@128280 Channel: 4 Note on, A4 key=69 velocity: 97
@128320 Channel: 4 Note off, A4 key=69 velocity: 97
@128328 Channel: 4 Note off, D4 key=62 velocity: 92
@128400 Channel: 4 Note on, D4 key=62 velocity: 92
@128400 Channel: 4 Note on, A4 key=69 velocity: 102
@128437 Channel: 4 Note off, A4 key=69 velocity: 102
@128453 Channel: 4 Note off, D4 key=62 velocity: 92
@128520 Channel: 4 Note on, A4 key=69 velocity: 106
@128521 Channel: 4 Note on, D4 key=62 velocity: 90
@128563 Channel: 4 Note off, A4 key=69 velocity: 106
@128572 Channel: 4 Note off, D4 key=62 velocity: 90
@128640 Channel: 4 Note on, A4 key=69 velocity: 95
@128640 Channel: 4 Note on, D3 key=50 velocity: 102
@128640 Channel: 4 Note on, D2 key=38 velocity: 108
@128641 Channel: 4 Note on, D4 key=62 velocity: 94
@128682 Channel: 4 Note off, A4 key=69 velocity: 95
@128693 Channel: 4 Note off, D4 key=62 velocity: 94
@128706 Channel: 4 Note off, D2 key=38 velocity: 108
@128726 Channel: 4 Note off, D3 key=50 velocity: 102
@128759 Channel: 4 Note on, A4 key=69 velocity: 97
@128760 Channel: 4 Note on, D4 key=62 velocity: 88
@128798 Channel: 4 Note off, A4 key=69 velocity: 97
@128814 Channel: 4 Note off, D4 key=62 velocity: 88
@128879 Channel: 4 Note on, A4 key=69 velocity: 106
@128880 Channel: 4 Note on, D4 key=62 velocity: 91
@128918 Channel: 4 Note off, A4 key=69 velocity: 106
@128934 Channel: 4 Note off, D4 key=62 velocity: 91
@128998 Channel: 4 Note on, A4 key=69 velocity: 98
@129000 Channel: 4 Note on, D4 key=62 velocity: 91
@129042 Channel: 4 Note off, A4 key=69 velocity: 98
@129049 Channel: 4 Note off, D4 key=62 velocity: 91
@129118 Channel: 4 Note on, A4 key=69 velocity: 97
@129120 Channel: 4 Note on, D3 key=50 velocity: 106
@129120 Channel: 4 Note on, D2 key=38 velocity: 112
@129121 Channel: 4 Note on, D4 key=62 velocity: 95
@129158 Channel: 4 Note off, A4 key=69 velocity: 97
@129176 Channel: 4 Note off, D4 key=62 velocity: 95
@129188 Channel: 4 Note off, D2 key=38 velocity: 112
@129216 Channel: 4 Note off, D3 key=50 velocity: 106
@129238 Channel: 4 Note on, A4 key=69 velocity: 95
@129241 Channel: 4 Note on, D4 key=62 velocity: 94
@129281 Channel: 4 Note off, A4 key=69 velocity: 95
@129289 Channel: 4 Note off, D4 key=62 velocity: 94
@129359 Channel: 4 Note on, A4 key=69 velocity: 97
@129361 Channel: 4 Note on, D4 key=62 velocity: 95
@129399 Channel: 4 Note off, A4 key=69 velocity: 97
@129409 Channel: 4 Note off, D4 key=62 velocity: 95
@129479 Channel: 4 Note on, A4 key=69 velocity: 102
@129482 Channel: 4 Note on, D4 key=62 velocity: 98
@129517 Channel: 4 Note off, A4 key=69 velocity: 102
@129531 Channel: 4 Note off, D4 key=62 velocity: 98
@129599 Channel: 4 Note on, A4 key=69 velocity: 104
@129600 Channel: 4 Note on, G2 key=43 velocity: 108
@129600 Channel: 4 Note on, G1 key=31 velocity: 120
@129602 Channel: 4 Note on, G4 key=67 velocity: 106
@129640 Channel: 4 Note off, A4 key=69 velocity: 104
@129650 Channel: 4 Note off, G4 key=67 velocity: 106
@129674 Channel: 4 Note off, G1 key=31 velocity: 120
@129696 Channel: 4 Note off, G2 key=43 velocity: 108
@129720 Channel: 4 Note on, A4 key=69 velocity: 98
@129722 Channel: 4 Note on, G4 key=67 velocity: 97
@129757 Channel: 4 Note off, A4 key=69 velocity: 98
@129771 Channel: 4 Note off, G4 key=67 velocity: 97
@129839 Channel: 4 Note on, A4 key=69 velocity: 100
@129841 Channel: 4 Note on, G4 key=67 velocity: 98
@129879 Channel: 4 Note off, A4 key=69 velocity: 100
@129895 Channel: 4 Note off, G4 key=67 velocity: 98
@129959 Channel: 4 Note on, A4 key=69 velocity: 98
@129961 Channel: 4 Note on, G4 key=67 velocity: 91
@129997 Channel: 4 Note off, A4 key=69 velocity: 98
@130012 Channel: 4 Note off, G4 key=67 velocity: 91
@130079 Channel: 4 Note on, A4 key=69 velocity: 100
@130080 Channel: 4 Note on, G2 key=43 velocity: 108
@130080 Channel: 4 Note on, G1 key=31 velocity: 122
@130081 Channel: 4 Note on, G4 key=67 velocity: 94
@130120 Channel: 4 Note off, A4 key=69 velocity: 100
@130133 Channel: 4 Note off, G4 key=67 velocity: 94
@130159 Channel: 4 Note off, G1 key=31 velocity: 122
@130177 Channel: 4 Note off, G2 key=43 velocity: 108
@130198 Channel: 4 Note on, A4 key=69 velocity: 86
@130201 Channel: 4 Note on, G4 key=67 velocity: 91
@130239 Channel: 4 Note off, A4 key=69 velocity: 86
@130252 Channel: 4 Note off, G4 key=67 velocity: 91
@130318 Channel: 4 Note on, A4 key=69 velocity: 95
@130322 Channel: 4 Note on, G4 key=67 velocity: 92
@130359 Channel: 4 Note off, A4 key=69 velocity: 95
@130372 Channel: 4 Note off, G4 key=67 velocity: 92
@130438 Channel: 4 Note on, A4 key=69 velocity: 94
@130441 Channel: 4 Note on, G4 key=67 velocity: 98
@130480 Channel: 4 Note off, A4 key=69 velocity: 94
@130484 Channel: 4 Note off, G4 key=67 velocity: 98
@130558 Channel: 4 Note on, A4 key=69 velocity: 100
@130560 Channel: 4 Note on, G2 key=43 velocity: 108
@130560 Channel: 4 Note on, G1 key=31 velocity: 110
@130561 Channel: 4 Note on, G4 key=67 velocity: 100
@130597 Channel: 4 Note off, A4 key=69 velocity: 100
@130606 Channel: 4 Note off, G4 key=67 velocity: 100
@130636 Channel: 4 Note off, G1 key=31 velocity: 110
@130659 Channel: 4 Note off, G2 key=43 velocity: 108
@130678 Channel: 4 Note on, A4 key=69 velocity: 97
@130681 Channel: 4 Note on, G4 key=67 velocity: 102
@130717 Channel: 4 Note off, A4 key=69 velocity: 97
@130727 Channel: 4 Note off, G4 key=67 velocity: 102
@130799 Channel: 4 Note on, A4 key=69 velocity: 95
@130802 Channel: 4 Note on, G4 key=67 velocity: 94
@130842 Channel: 4 Note off, A4 key=69 velocity: 95
@130847 Channel: 4 Note off, G4 key=67 velocity: 94
@130920 Channel: 4 Note on, A4 key=69 velocity: 97
@130921 Channel: 4 Note on, G4 key=67 velocity: 102
@130960 Channel: 4 Note off, A4 key=69 velocity: 97
@130975 Channel: 4 Note off, G4 key=67 velocity: 102
@131040 Channel: 4 Note on, D4 key=62 velocity: 98
@131040 Channel: 4 Note on, D3 key=50 velocity: 106
@131040 Channel: 4 Note on, D2 key=38 velocity: 104
@131041 Channel: 4 Note on, A4 key=69 velocity: 98
@131086 Channel: 4 Note off, A4 key=69 velocity: 98
@131090 Channel: 4 Note off, D4 key=62 velocity: 98
@131110 Channel: 4 Note off, D2 key=38 velocity: 104
@131152 Channel: 4 Note off, D3 key=50 velocity: 106
@131160 Channel: 4 Note on, D4 key=62 velocity: 87
@131162 Channel: 4 Note on, A4 key=69 velocity: 94
@131187 Channel: 4 Note off, A4 key=69 velocity: 94
@131211 Channel: 4 Note off, D4 key=62 velocity: 87
@131281 Channel: 4 Note on, D4 key=62 velocity: 91
@131282 Channel: 4 Note on, A4 key=69 velocity: 100
@131324 Channel: 4 Note off, A4 key=69 velocity: 100
@131336 Channel: 4 Note off, D4 key=62 velocity: 91
@131402 Channel: 4 Note on, D4 key=62 velocity: 91
@131402 Channel: 4 Note on, A4 key=69 velocity: 95
@131443 Channel: 4 Note off, A4 key=69 velocity: 95
@131452 Channel: 4 Note off, D4 key=62 velocity: 91
@131520 Channel: 4 Note on, D3 key=50 velocity: 95
@131520 Channel: 4 Note on, D2 key=38 velocity: 108
@131521 Channel: 4 Note on, D4 key=62 velocity: 91
@131522 Channel: 4 Note on, A4 key=69 velocity: 97
@131560 Channel: 4 Note off, A4 key=69 velocity: 97
@131576 Channel: 4 Note off, D4 key=62 velocity: 91
@131597 Channel: 4 Note off, D2 key=38 velocity: 108
@131642 Channel: 4 Note on, A4 key=69 velocity: 97
@131643 Channel: 4 Note on, D4 key=62 velocity: 90
@131646 Channel: 4 Note off, D3 key=50 velocity: 95
@131677 Channel: 4 Note off, A4 key=69 velocity: 97
@131695 Channel: 4 Note off, D4 key=62 velocity: 90
@131761 Channel: 4 Note on, A4 key=69 velocity: 98
@131762 Channel: 4 Note on, D4 key=62 velocity: 85
@131801 Channel: 4 Note off, A4 key=69 velocity: 98
@131814 Channel: 4 Note off, D4 key=62 velocity: 85
@131881 Channel: 4 Note on, A4 key=69 velocity: 86
@131883 Channel: 4 Note on, D4 key=62 velocity: 84
@131920 Channel: 4 Note off, A4 key=69 velocity: 86
@131930 Channel: 4 Note off, D4 key=62 velocity: 84
@132000 Channel: 4 Note on, A4 key=69 velocity: 91
@132000 Channel: 4 Note on, D3 key=50 velocity: 104
@132000 Channel: 4 Note on, D2 key=38 velocity: 110
@132002 Channel: 4 Note on, D4 key=62 velocity: 86
@132041 Channel: 4 Note off, A4 key=69 velocity: 91
@132056 Channel: 4 Note off, D4 key=62 velocity: 86
@132071 Channel: 4 Note off, D2 key=38 velocity: 110
@132092 Channel: 4 Note off, D3 key=50 velocity: 104
@132120 Channel: 4 Note on, A4 key=69 velocity: 91
@132122 Channel: 4 Note on, D4 key=62 velocity: 81
@132166 Channel: 4 Note off, A4 key=69 velocity: 91
@132172 Channel: 4 Note off, D4 key=62 velocity: 81
@132240 Channel: 4 Note on, A4 key=69 velocity: 92
@132243 Channel: 4 Note on, D4 key=62 velocity: 85
@132282 Channel: 4 Note off, A4 key=69 velocity: 92
@132298 Channel: 4 Note off, D4 key=62 velocity: 85
@132359 Channel: 4 Note on, A4 key=69 velocity: 84
@132362 Channel: 4 Note on, D4 key=62 velocity: 83
@132402 Channel: 4 Note off, A4 key=69 velocity: 84
@132416 Channel: 4 Note off, D4 key=62 velocity: 83
@132480 Channel: 4 Note on, A4 key=69 velocity: 97
@132480 Channel: 4 Note on, A2 key=45 velocity: 100
@132480 Channel: 4 Note on, A1 key=33 velocity: 117
@132522 Channel: 4 Note off, A4 key=69 velocity: 97
@132563 Channel: 4 Note off, A1 key=33 velocity: 117
@132577 Channel: 4 Note off, A2 key=45 velocity: 100
@132600 Channel: 4 Note on, A4 key=69 velocity: 92
@132642 Channel: 4 Note off, A4 key=69 velocity: 92
@132719 Channel: 4 Note on, A4 key=69 velocity: 92
@132762 Channel: 4 Note off, A4 key=69 velocity: 92
@132839 Channel: 4 Note on, A4 key=69 velocity: 84
@132880 Channel: 4 Note off, A4 key=69 velocity: 84
@132959 Channel: 4 Note on, A4 key=69 velocity: 95
@132960 Channel: 4 Note on, A2 key=45 velocity: 108
@132960 Channel: 4 Note on, A1 key=33 velocity: 122
@133001 Channel: 4 Note off, A4 key=69 velocity: 95
@133053 Channel: 4 Note off, A2 key=45 velocity: 108
@133055 Channel: 4 Note off, A1 key=33 velocity: 122
@133079 Channel: 4 Note on, A4 key=69 velocity: 97
@133121 Channel: 4 Note off, A4 key=69 velocity: 97
@133199 Channel: 4 Note on, A4 key=69 velocity: 88
@133236 Channel: 4 Note off, A4 key=69 velocity: 88
@133318 Channel: 4 Note on, A4 key=69 velocity: 80
@133362 Channel: 4 Note off, A4 key=69 velocity: 80
@133438 Channel: 4 Note on, A4 key=69 velocity: 74
@133440 Channel: 4 Note on, A2 key=45 velocity: 114
@133440 Channel: 4 Note on, A1 key=33 velocity: 127
@133481 Channel: 4 Note off, A4 key=69 velocity: 74
@133516 Channel: 4 Note off, A1 key=33 velocity: 127
@133522 Channel: 4 Note off, A2 key=45 velocity: 114
@133557 Channel: 4 Note on, A4 key=69 velocity: 74
@133596 Channel: 4 Note off, A4 key=69 velocity: 74
@133677 Channel: 4 Note on, A4 key=69 velocity: 76
@133718 Channel: 4 Note off, A4 key=69 velocity: 76
@133798 Channel: 4 Note on, A4 key=69 velocity: 74
@133838 Channel: 4 Note off, A4 key=69 velocity: 74
@133920 Channel: 4 Command:176
@133920 Channel: 4 Note on, D3 key=50 velocity: 92
@133924 Channel: 4 Note on, A4 key=69 velocity: 84
@133924 Channel: 4 Note on, D2 key=38 velocity: 100
@133925 Channel: 4 Note on, D4 key=62 velocity: 80
@134001 Channel: 4 Note off, D2 key=38 velocity: 100
@134003 Channel: 4 Note off, D3 key=50 velocity: 92
@134008 Channel: 4 Note off, A4 key=69 velocity: 84
@134013 Channel: 4 Note off, D4 key=62 velocity: 80
@134164 Channel: 4 Note on, D4 key=62 velocity: 70
@134164 Channel: 4 Note on, A4 key=69 velocity: 74
@134216 Channel: 4 Note off, A4 key=69 velocity: 74
@134224 Channel: 4 Note off, D4 key=62 velocity: 70
@134283 Channel: 4 Note on, D4 key=62 velocity: 64
@134283 Channel: 4 Note on, A4 key=69 velocity: 69
@134326 Channel: 4 Note off, A4 key=69 velocity: 69
@134335 Channel: 4 Note off, D4 key=62 velocity: 64
@134389 Channel: 4 Note on, D2 key=38 velocity: 83
@134393 Channel: 4 Note on, D3 key=50 velocity: 70
@134402 Channel: 4 Note on, A4 key=69 velocity: 81
@134403 Channel: 4 Note on, D4 key=62 velocity: 75
@134439 Channel: 4 Note off, D3 key=50 velocity: 70
@134444 Channel: 4 Note off, D2 key=38 velocity: 83
@134457 Channel: 4 Note off, A4 key=69 velocity: 81
@134459 Channel: 4 Note off, D4 key=62 velocity: 75
@134642 Channel: 4 Note on, D4 key=62 velocity: 69
@134642 Channel: 4 Note on, A4 key=69 velocity: 73
@134690 Channel: 4 Note off, A4 key=69 velocity: 73
@134700 Channel: 4 Note off, D4 key=62 velocity: 69
@134762 Channel: 4 Note on, D4 key=62 velocity: 59
@134764 Channel: 4 Note on, A4 key=69 velocity: 66
@134803 Channel: 4 Note off, A4 key=69 velocity: 66
@134813 Channel: 4 Note off, D4 key=62 velocity: 59
@134863 Channel: 4 Note on, D2 key=38 velocity: 84
@134866 Channel: 4 Note on, D3 key=50 velocity: 78
@134882 Channel: 4 Note on, A4 key=69 velocity: 62
@134885 Channel: 4 Note on, D4 key=62 velocity: 69
@134920 Channel: 4 Note off, D3 key=50 velocity: 78
@134922 Channel: 4 Note off, D2 key=38 velocity: 84
@134930 Channel: 4 Note off, D4 key=62 velocity: 69
@134937 Channel: 4 Note off, A4 key=69 velocity: 62
@135122 Channel: 4 Note on, A4 key=69 velocity: 74
@135124 Channel: 4 Note on, D4 key=62 velocity: 70
@135183 Channel: 4 Note off, A4 key=69 velocity: 74
@135188 Channel: 4 Note off, D4 key=62 velocity: 70
@135359 Channel: 4 Note on, D2 key=38 velocity: 83
@135360 Channel: 4 Note on, A4 key=69 velocity: 83
@135362 Channel: 4 Note on, D4 key=62 velocity: 78
@135369 Channel: 4 Note on, D3 key=50 velocity: 88
@135427 Channel: 4 Note off, D4 key=62 velocity: 78
@135429 Channel: 4 Note off, A4 key=69 velocity: 83
@135430 Channel: 4 Note off, D2 key=38 velocity: 83
@135433 Channel: 4 Note off, D3 key=50 velocity: 88
@135601 Channel: 4 Note on, D4 key=62 velocity: 68
@135601 Channel: 4 Note on, A4 key=69 velocity: 71
@135647 Channel: 4 Note off, A4 key=69 velocity: 71
@135652 Channel: 4 Note off, D4 key=62 velocity: 68
@135719 Channel: 4 Note on, A4 key=69 velocity: 70
@135720 Channel: 4 Note on, D4 key=62 velocity: 64
@135768 Channel: 4 Note off, A4 key=69 velocity: 70
@135770 Channel: 4 Note off, D4 key=62 velocity: 64
@135833 Channel: 4 Note on, D3 key=50 velocity: 91
@135835 Channel: 4 Note on, D2 key=38 velocity: 100
@135840 Channel: 4 Note on, A4 key=69 velocity: 74
@135841 Channel: 4 Note on, D4 key=62 velocity: 72
@135883 Channel: 4 Note off, D3 key=50 velocity: 91
@135885 Channel: 4 Note off, D2 key=38 velocity: 100
@135893 Channel: 4 Note off, D4 key=62 velocity: 72
@135896 Channel: 4 Note off, A4 key=69 velocity: 74
@136081 Channel: 4 Note on, A4 key=69 velocity: 66
@136082 Channel: 4 Note on, D4 key=62 velocity: 62
@136132 Channel: 4 Note off, A4 key=69 velocity: 66
@136134 Channel: 4 Note off, D4 key=62 velocity: 62
@136201 Channel: 4 Note on, A4 key=69 velocity: 62
@136202 Channel: 4 Note on, D4 key=62 velocity: 59
@136241 Channel: 4 Note off, D4 key=62 velocity: 59
@136243 Channel: 4 Note off, A4 key=69 velocity: 62
@136313 Channel: 4 Note on, D2 key=38 velocity: 90
@136318 Channel: 4 Note on, D3 key=50 velocity: 85
@136321 Channel: 4 Note on, A4 key=69 velocity: 72
@136322 Channel: 4 Note on, D4 key=62 velocity: 66
@136364 Channel: 4 Note off, D2 key=38 velocity: 90
@136365 Channel: 4 Note off, D3 key=50 velocity: 85
@136377 Channel: 4 Note off, D4 key=62 velocity: 66
@136377 Channel: 4 Note off, A4 key=69 velocity: 72
@136562 Channel: 4 Note on, A4 key=69 velocity: 75
@136564 Channel: 4 Note on, D4 key=62 velocity: 68
@136621 Channel: 4 Note off, A4 key=69 velocity: 75
@136623 Channel: 4 Note off, D4 key=62 velocity: 68
@136803 Channel: 4 Note on, A4 key=69 velocity: 81
@136803 Channel: 4 Note on, D2 key=38 velocity: 91
@136803 Channel: 4 Note on, D3 key=50 velocity: 80
@136806 Channel: 4 Note on, D4 key=62 velocity: 73
@136848 Channel: 4 Note off, D3 key=50 velocity: 80
@136855 Channel: 4 Note off, D2 key=38 velocity: 91
@136871 Channel: 4 Note off, A4 key=69 velocity: 81
@136874 Channel: 4 Note off, D4 key=62 velocity: 73
@137036 Channel: 4 Note on, A4 key=69 velocity: 68
@137038 Channel: 4 Note on, D4 key=62 velocity: 66
@137090 Channel: 4 Note off, A4 key=69 velocity: 68
@137091 Channel: 4 Note off, D4 key=62 velocity: 66
@137157 Channel: 4 Note on, D4 key=62 velocity: 65
@137157 Channel: 4 Note on, A4 key=69 velocity: 70
@137212 Channel: 4 Note off, A4 key=69 velocity: 70
@137216 Channel: 4 Note off, D4 key=62 velocity: 65
@137267 Channel: 4 Note on, D2 key=38 velocity: 90
@137270 Channel: 4 Note on, D3 key=50 velocity: 83
@137275 Channel: 4 Note on, A4 key=69 velocity: 72
@137276 Channel: 4 Note on, D4 key=62 velocity: 68
@137321 Channel: 4 Note off, D3 key=50 velocity: 83
@137327 Channel: 4 Note off, D2 key=38 velocity: 90
@137334 Channel: 4 Note off, D4 key=62 velocity: 68
@137337 Channel: 4 Note off, A4 key=69 velocity: 72
@137519 Channel: 4 Note on, A4 key=69 velocity: 66
@137522 Channel: 4 Note on, D4 key=62 velocity: 60
@137575 Channel: 4 Note off, D4 key=62 velocity: 60
@137575 Channel: 4 Note off, A4 key=69 velocity: 66
@137642 Channel: 4 Note on, A4 key=69 velocity: 68
@137643 Channel: 4 Note on, D4 key=62 velocity: 60
@137697 Channel: 4 Note off, D4 key=62 velocity: 60
@137701 Channel: 4 Note off, A4 key=69 velocity: 68
@137741 Channel: 4 Note on, D2 key=38 velocity: 88
@137743 Channel: 4 Note on, D3 key=50 velocity: 85
@137760 Channel: 4 Note on, A4 key=69 velocity: 73
@137761 Channel: 4 Note on, D4 key=62 velocity: 67
@137795 Channel: 4 Note off, D3 key=50 velocity: 85
@137801 Channel: 4 Note off, D2 key=38 velocity: 88
@137819 Channel: 4 Note off, D4 key=62 velocity: 67
@137823 Channel: 4 Note off, A4 key=69 velocity: 73
@138003 Channel: 4 Note on, A4 key=69 velocity: 73
@138005 Channel: 4 Note on, D4 key=62 velocity: 68
@138063 Channel: 4 Note off, D4 key=62 velocity: 68
@138066 Channel: 4 Note off, A4 key=69 velocity: 73
@138239 Channel: 4 Note on, G4 key=67 velocity: 86
@138240 Channel: 4 Note on, C4 key=60 velocity: 79
@138242 Channel: 4 Note on, C3 key=48 velocity: 86
@138243 Channel: 4 Note on, C2 key=36 velocity: 102
@138291 Channel: 4 Note off, C2 key=36 velocity: 102
@138294 Channel: 4 Note off, C3 key=48 velocity: 86
@138304 Channel: 4 Note off, G4 key=67 velocity: 86
@138307 Channel: 4 Note off, C4 key=60 velocity: 79
@138476 Channel: 4 Note on, C4 key=60 velocity: 68
@138476 Channel: 4 Note on, G4 key=67 velocity: 70
@138520 Channel: 4 Note off, G4 key=67 velocity: 70
@138534 Channel: 4 Note off, C4 key=60 velocity: 68
@138595 Channel: 4 Note on, C4 key=60 velocity: 63
@138595 Channel: 4 Note on, G4 key=67 velocity: 68
@138645 Channel: 4 Note off, G4 key=67 velocity: 68
@138651 Channel: 4 Note off, C4 key=60 velocity: 63
@138715 Channel: 4 Note on, G4 key=67 velocity: 80
@138716 Channel: 4 Note on, C4 key=60 velocity: 68
@138720 Channel: 4 Note on, C2 key=36 velocity: 95
@138727 Channel: 4 Note on, C3 key=48 velocity: 79
@138766 Channel: 4 Note off, C4 key=60 velocity: 68
@138771 Channel: 4 Note off, G4 key=67 velocity: 80
@138775 Channel: 4 Note off, C3 key=48 velocity: 79
@138779 Channel: 4 Note off, C2 key=36 velocity: 95
@138957 Channel: 4 Note on, C4 key=60 velocity: 64
@138957 Channel: 4 Note on, G4 key=67 velocity: 70
@139003 Channel: 4 Note off, G4 key=67 velocity: 70
@139009 Channel: 4 Note off, C4 key=60 velocity: 64
@139078 Channel: 4 Note on, C4 key=60 velocity: 60
@139078 Channel: 4 Note on, G4 key=67 velocity: 66
@139124 Channel: 4 Note off, G4 key=67 velocity: 66
@139128 Channel: 4 Note off, C4 key=60 velocity: 60
@139197 Channel: 4 Note on, G4 key=67 velocity: 73
@139198 Channel: 4 Note on, C4 key=60 velocity: 62
@139209 Channel: 4 Note on, C2 key=36 velocity: 84
@139214 Channel: 4 Note on, C3 key=48 velocity: 80
@139249 Channel: 4 Note off, C4 key=60 velocity: 62
@139253 Channel: 4 Note off, G4 key=67 velocity: 73
@139307 Channel: 4 Note off, C3 key=48 velocity: 80
@139347 Channel: 4 Note off, C2 key=36 velocity: 84
@139436 Channel: 4 Note on, G4 key=67 velocity: 66
@139437 Channel: 4 Note on, C4 key=60 velocity: 59
@139493 Channel: 4 Note off, G4 key=67 velocity: 66
@139497 Channel: 4 Note off, C4 key=60 velocity: 59
@139680 Channel: 4 Note on, F3 key=53 velocity: 92
@139684 Channel: 4 Note on, C5 key=72 velocity: 84
@139684 Channel: 4 Note on, F2 key=41 velocity: 100
@139685 Channel: 4 Note on, F4 key=65 velocity: 80
@139761 Channel: 4 Note off, F2 key=41 velocity: 100
@139763 Channel: 4 Note off, F3 key=53 velocity: 92
@139768 Channel: 4 Note off, C5 key=72 velocity: 84
@139773 Channel: 4 Note off, F4 key=65 velocity: 80
@139924 Channel: 4 Note on, F4 key=65 velocity: 70
@139924 Channel: 4 Note on, C5 key=72 velocity: 74
@139976 Channel: 4 Note off, C5 key=72 velocity: 74
@139984 Channel: 4 Note off, F4 key=65 velocity: 70
@140043 Channel: 4 Note on, F4 key=65 velocity: 64
@140043 Channel: 4 Note on, C5 key=72 velocity: 69
@140086 Channel: 4 Note off, C5 key=72 velocity: 69
@140095 Channel: 4 Note off, F4 key=65 velocity: 64
@140162 Channel: 4 Note on, C5 key=72 velocity: 81
@140163 Channel: 4 Note on, F4 key=65 velocity: 75
@140177 Channel: 4 Note on, F2 key=41 velocity: 81
@140178 Channel: 4 Note on, F3 key=53 velocity: 73
@140217 Channel: 4 Note off, C5 key=72 velocity: 81
@140219 Channel: 4 Note off, F4 key=65 velocity: 75
@140256 Channel: 4 Note off, F3 key=53 velocity: 73
@140267 Channel: 4 Note off, F2 key=41 velocity: 81
@140402 Channel: 4 Note on, F4 key=65 velocity: 69
@140402 Channel: 4 Note on, C5 key=72 velocity: 73
@140450 Channel: 4 Note off, C5 key=72 velocity: 73
@140460 Channel: 4 Note off, F4 key=65 velocity: 69
@140522 Channel: 4 Note on, F4 key=65 velocity: 59
@140524 Channel: 4 Note on, C5 key=72 velocity: 66
@140563 Channel: 4 Note off, C5 key=72 velocity: 66
@140573 Channel: 4 Note off, F4 key=65 velocity: 59
@140642 Channel: 4 Note on, C5 key=72 velocity: 62
@140645 Channel: 4 Note on, F4 key=65 velocity: 69
@140667 Channel: 4 Note on, F2 key=41 velocity: 95
@140667 Channel: 4 Note on, F3 key=53 velocity: 90
@140690 Channel: 4 Note off, F4 key=65 velocity: 69
@140697 Channel: 4 Note off, C5 key=72 velocity: 62
@140732 Channel: 4 Note off, F3 key=53 velocity: 90
@140751 Channel: 4 Note off, F2 key=41 velocity: 95
@140882 Channel: 4 Note on, C5 key=72 velocity: 74
@140884 Channel: 4 Note on, F4 key=65 velocity: 70
@140943 Channel: 4 Note off, C5 key=72 velocity: 74
@140948 Channel: 4 Note off, F4 key=65 velocity: 70
@141119 Channel: 4 Note on, G4 key=67 velocity: 86
@141120 Channel: 4 Note on, C4 key=60 velocity: 79
@141122 Channel: 4 Note on, C3 key=48 velocity: 86
@141123 Channel: 4 Note on, C2 key=36 velocity: 102
@141171 Channel: 4 Note off, C2 key=36 velocity: 102
@141174 Channel: 4 Note off, C3 key=48 velocity: 86
@141184 Channel: 4 Note off, G4 key=67 velocity: 86
@141187 Channel: 4 Note off, C4 key=60 velocity: 79
@141356 Channel: 4 Note on, C4 key=60 velocity: 68
@141356 Channel: 4 Note on, G4 key=67 velocity: 70
@141400 Channel: 4 Note off, G4 key=67 velocity: 70
@141414 Channel: 4 Note off, C4 key=60 velocity: 68
@141475 Channel: 4 Note on, C4 key=60 velocity: 63
@141475 Channel: 4 Note on, G4 key=67 velocity: 68
@141525 Channel: 4 Note off, G4 key=67 velocity: 68
@141531 Channel: 4 Note off, C4 key=60 velocity: 63
@141595 Channel: 4 Note on, G4 key=67 velocity: 80
@141596 Channel: 4 Note on, C4 key=60 velocity: 68
@141608 Channel: 4 Note on, C3 key=48 velocity: 73
@141610 Channel: 4 Note on, C2 key=36 velocity: 75
@141646 Channel: 4 Note off, C4 key=60 velocity: 68
@141651 Channel: 4 Note off, G4 key=67 velocity: 80
@141684 Channel: 4 Note off, C3 key=48 velocity: 73
@141714 Channel: 4 Note off, C2 key=36 velocity: 75
@141837 Channel: 4 Note on, C4 key=60 velocity: 64
@141837 Channel: 4 Note on, G4 key=67 velocity: 70
@141883 Channel: 4 Note off, G4 key=67 velocity: 70
@141889 Channel: 4 Note off, C4 key=60 velocity: 64
@141958 Channel: 4 Note on, C4 key=60 velocity: 60
@141958 Channel: 4 Note on, G4 key=67 velocity: 66
@142004 Channel: 4 Note off, G4 key=67 velocity: 66
@142008 Channel: 4 Note off, C4 key=60 velocity: 60
@142077 Channel: 4 Note on, G4 key=67 velocity: 73
@142078 Channel: 4 Note on, C4 key=60 velocity: 62
@142087 Channel: 4 Note on, C2 key=36 velocity: 81
@142089 Channel: 4 Note on, C3 key=48 velocity: 73
@142129 Channel: 4 Note off, C4 key=60 velocity: 62
@142133 Channel: 4 Note off, G4 key=67 velocity: 73
@142175 Channel: 4 Note off, C3 key=48 velocity: 73
@142188 Channel: 4 Note off, C2 key=36 velocity: 81
@142316 Channel: 4 Note on, G4 key=67 velocity: 66
@142317 Channel: 4 Note on, C4 key=60 velocity: 59
@142373 Channel: 4 Note off, G4 key=67 velocity: 66
@142377 Channel: 4 Note off, C4 key=60 velocity: 59
@142563 Channel: 4 Note on, F4 key=65 velocity: 81
@142563 Channel: 4 Note on, A#1 key=34 velocity: 91
@142563 Channel: 4 Note on, A#2 key=46 velocity: 80
@142566 Channel: 4 Note on, A#3 key=58 velocity: 73
@142608 Channel: 4 Note off, A#2 key=46 velocity: 80
@142615 Channel: 4 Note off, A#1 key=34 velocity: 91
@142631 Channel: 4 Note off, F4 key=65 velocity: 81
@142634 Channel: 4 Note off, A#3 key=58 velocity: 73
@142796 Channel: 4 Note on, F4 key=65 velocity: 68
@142798 Channel: 4 Note on, A#3 key=58 velocity: 66
@142850 Channel: 4 Note off, F4 key=65 velocity: 68
@142851 Channel: 4 Note off, A#3 key=58 velocity: 66
@142917 Channel: 4 Note on, A#3 key=58 velocity: 65
@142917 Channel: 4 Note on, F4 key=65 velocity: 70
@142972 Channel: 4 Note off, F4 key=65 velocity: 70
@142976 Channel: 4 Note off, A#3 key=58 velocity: 65
@143035 Channel: 4 Note on, F4 key=65 velocity: 72
@143036 Channel: 4 Note on, A#3 key=58 velocity: 68
@143041 Channel: 4 Note on, A#2 key=46 velocity: 82
@143044 Channel: 4 Note on, A#1 key=34 velocity: 84
@143094 Channel: 4 Note off, A#3 key=58 velocity: 68
@143097 Channel: 4 Note off, F4 key=65 velocity: 72
@143108 Channel: 4 Note off, A#2 key=46 velocity: 82
@143113 Channel: 4 Note off, A#1 key=34 velocity: 84
@143279 Channel: 4 Note on, F4 key=65 velocity: 66
@143282 Channel: 4 Note on, A#3 key=58 velocity: 60
@143335 Channel: 4 Note off, A#3 key=58 velocity: 60
@143335 Channel: 4 Note off, F4 key=65 velocity: 66
@143402 Channel: 4 Note on, F4 key=65 velocity: 68
@143403 Channel: 4 Note on, A#3 key=58 velocity: 60
@143457 Channel: 4 Note off, A#3 key=58 velocity: 60
@143461 Channel: 4 Note off, F4 key=65 velocity: 68
@143517 Channel: 4 Note on, A#2 key=46 velocity: 89
@143520 Channel: 4 Note on, F4 key=65 velocity: 73
@143521 Channel: 4 Note on, A#1 key=34 velocity: 87
@143521 Channel: 4 Note on, A#3 key=58 velocity: 67
@143579 Channel: 4 Note off, A#3 key=58 velocity: 67
@143583 Channel: 4 Note off, A#2 key=46 velocity: 89
@143583 Channel: 4 Note off, F4 key=65 velocity: 73
@143594 Channel: 4 Note off, A#1 key=34 velocity: 87
@143763 Channel: 4 Note on, F4 key=65 velocity: 73
@143765 Channel: 4 Note on, A#3 key=58 velocity: 68
@143823 Channel: 4 Note off, A#3 key=58 velocity: 68
@143826 Channel: 4 Note off, F4 key=65 velocity: 73
@143999 Channel: 4 Note on, E4 key=64 velocity: 86
@144000 Channel: 4 Note on, A3 key=57 velocity: 79
@144002 Channel: 4 Note on, A2 key=45 velocity: 86
@144003 Channel: 4 Note on, A1 key=33 velocity: 102
@144051 Channel: 4 Note off, A1 key=33 velocity: 102
@144054 Channel: 4 Note off, A2 key=45 velocity: 86
@144064 Channel: 4 Note off, E4 key=64 velocity: 86
@144067 Channel: 4 Note off, A3 key=57 velocity: 79
@144236 Channel: 4 Note on, A3 key=57 velocity: 68
@144236 Channel: 4 Note on, E4 key=64 velocity: 70
@144280 Channel: 4 Note off, E4 key=64 velocity: 70
@144294 Channel: 4 Note off, A3 key=57 velocity: 68
@144355 Channel: 4 Note on, A3 key=57 velocity: 63
@144355 Channel: 4 Note on, E4 key=64 velocity: 68
@144405 Channel: 4 Note off, E4 key=64 velocity: 68
@144411 Channel: 4 Note off, A3 key=57 velocity: 63
@144466 Channel: 4 Note on, A1 key=33 velocity: 79
@144468 Channel: 4 Note on, A2 key=45 velocity: 72
@144475 Channel: 4 Note on, E4 key=64 velocity: 80
@144476 Channel: 4 Note on, A3 key=57 velocity: 68
@144526 Channel: 4 Note off, A3 key=57 velocity: 68
@144531 Channel: 4 Note off, E4 key=64 velocity: 80
@144545 Channel: 4 Note off, A2 key=45 velocity: 72
@144559 Channel: 4 Note off, A1 key=33 velocity: 79
@144717 Channel: 4 Note on, A3 key=57 velocity: 64
@144717 Channel: 4 Note on, E4 key=64 velocity: 70
@144763 Channel: 4 Note off, E4 key=64 velocity: 70
@144769 Channel: 4 Note off, A3 key=57 velocity: 64
@144838 Channel: 4 Note on, A3 key=57 velocity: 60
@144838 Channel: 4 Note on, E4 key=64 velocity: 66
@144884 Channel: 4 Note off, E4 key=64 velocity: 66
@144888 Channel: 4 Note off, A3 key=57 velocity: 60
@144955 Channel: 4 Note on, A1 key=33 velocity: 92
@144957 Channel: 4 Note on, E4 key=64 velocity: 73
@144958 Channel: 4 Note on, A3 key=57 velocity: 62
@144961 Channel: 4 Note on, A2 key=45 velocity: 92
@145009 Channel: 4 Note off, A3 key=57 velocity: 62
@145013 Channel: 4 Note off, E4 key=64 velocity: 73
@145019 Channel: 4 Note off, A2 key=45 velocity: 92
@145022 Channel: 4 Note off, A1 key=33 velocity: 92
@145196 Channel: 4 Note on, E4 key=64 velocity: 66
@145197 Channel: 4 Note on, A3 key=57 velocity: 59
@145253 Channel: 4 Note off, E4 key=64 velocity: 66
@145257 Channel: 4 Note off, A3 key=57 velocity: 59
@145440 Channel: 4 Command:176
@145440 Channel: 4 Note on, D3 key=50 velocity: 92
@145444 Channel: 4 Note on, A4 key=69 velocity: 84
@145444 Channel: 4 Note on, D2 key=38 velocity: 100
@145445 Channel: 4 Note on, D4 key=62 velocity: 80
@145521 Channel: 4 Note off, D2 key=38 velocity: 100
@145523 Channel: 4 Note off, D3 key=50 velocity: 92
@145528 Channel: 4 Note off, A4 key=69 velocity: 84
@145533 Channel: 4 Note off, D4 key=62 velocity: 80
@145684 Channel: 4 Note on, D4 key=62 velocity: 70
@145684 Channel: 4 Note on, A4 key=69 velocity: 74
@145736 Channel: 4 Note off, A4 key=69 velocity: 74
@145744 Channel: 4 Note off, D4 key=62 velocity: 70
@145803 Channel: 4 Note on, D4 key=62 velocity: 64
@145803 Channel: 4 Note on, A4 key=69 velocity: 69
@145846 Channel: 4 Note off, A4 key=69 velocity: 69
@145855 Channel: 4 Note off, D4 key=62 velocity: 64
@145909 Channel: 4 Note on, D2 key=38 velocity: 83
@145913 Channel: 4 Note on, D3 key=50 velocity: 70
@145922 Channel: 4 Note on, A4 key=69 velocity: 81
@145923 Channel: 4 Note on, D4 key=62 velocity: 75
@145959 Channel: 4 Note off, D3 key=50 velocity: 70
@145964 Channel: 4 Note off, D2 key=38 velocity: 83
@145977 Channel: 4 Note off, A4 key=69 velocity: 81
@145979 Channel: 4 Note off, D4 key=62 velocity: 75
@146162 Channel: 4 Note on, D4 key=62 velocity: 69
@146162 Channel: 4 Note on, A4 key=69 velocity: 73
@146210 Channel: 4 Note off, A4 key=69 velocity: 73
@146220 Channel: 4 Note off, D4 key=62 velocity: 69
@146282 Channel: 4 Note on, D4 key=62 velocity: 59
@146284 Channel: 4 Note on, A4 key=69 velocity: 66
@146323 Channel: 4 Note off, A4 key=69 velocity: 66
@146333 Channel: 4 Note off, D4 key=62 velocity: 59
@146383 Channel: 4 Note on, D2 key=38 velocity: 84
@146386 Channel: 4 Note on, D3 key=50 velocity: 78
@146402 Channel: 4 Note on, A4 key=69 velocity: 62
@146405 Channel: 4 Note on, D4 key=62 velocity: 69
@146440 Channel: 4 Note off, D3 key=50 velocity: 78
@146442 Channel: 4 Note off, D2 key=38 velocity: 84
@146450 Channel: 4 Note off, D4 key=62 velocity: 69
@146457 Channel: 4 Note off, A4 key=69 velocity: 62
@146642 Channel: 4 Note on, A4 key=69 velocity: 74
@146644 Channel: 4 Note on, D4 key=62 velocity: 70
@146703 Channel: 4 Note off, A4 key=69 velocity: 74
@146708 Channel: 4 Note off, D4 key=62 velocity: 70
@146879 Channel: 4 Note on, D2 key=38 velocity: 83
@146880 Channel: 4 Note on, A4 key=69 velocity: 83
@146882 Channel: 4 Note on, D4 key=62 velocity: 78
@146889 Channel: 4 Note on, D3 key=50 velocity: 88
@146947 Channel: 4 Note off, D4 key=62 velocity: 78
@146949 Channel: 4 Note off, A4 key=69 velocity: 83
@146950 Channel: 4 Note off, D2 key=38 velocity: 83
@146953 Channel: 4 Note off, D3 key=50 velocity: 88
@147121 Channel: 4 Note on, D4 key=62 velocity: 68
@147121 Channel: 4 Note on, A4 key=69 velocity: 71
@147167 Channel: 4 Note off, A4 key=69 velocity: 71
@147172 Channel: 4 Note off, D4 key=62 velocity: 68
@147239 Channel: 4 Note on, A4 key=69 velocity: 70
@147240 Channel: 4 Note on, D4 key=62 velocity: 64
@147288 Channel: 4 Note off, A4 key=69 velocity: 70
@147290 Channel: 4 Note off, D4 key=62 velocity: 64
@147353 Channel: 4 Note on, D3 key=50 velocity: 91
@147355 Channel: 4 Note on, D2 key=38 velocity: 100
@147360 Channel: 4 Note on, A4 key=69 velocity: 74
@147361 Channel: 4 Note on, D4 key=62 velocity: 72
@147403 Channel: 4 Note off, D3 key=50 velocity: 91
@147405 Channel: 4 Note off, D2 key=38 velocity: 100
@147413 Channel: 4 Note off, D4 key=62 velocity: 72
@147416 Channel: 4 Note off, A4 key=69 velocity: 74
@147601 Channel: 4 Note on, A4 key=69 velocity: 66
@147602 Channel: 4 Note on, D4 key=62 velocity: 62
@147652 Channel: 4 Note off, A4 key=69 velocity: 66
@147654 Channel: 4 Note off, D4 key=62 velocity: 62
@147721 Channel: 4 Note on, A4 key=69 velocity: 62
@147722 Channel: 4 Note on, D4 key=62 velocity: 59
@147761 Channel: 4 Note off, D4 key=62 velocity: 59
@147763 Channel: 4 Note off, A4 key=69 velocity: 62
@147833 Channel: 4 Note on, D2 key=38 velocity: 90
@147838 Channel: 4 Note on, D3 key=50 velocity: 85
@147841 Channel: 4 Note on, A4 key=69 velocity: 72
@147842 Channel: 4 Note on, D4 key=62 velocity: 66
@147884 Channel: 4 Note off, D2 key=38 velocity: 90
@147885 Channel: 4 Note off, D3 key=50 velocity: 85
@147897 Channel: 4 Note off, D4 key=62 velocity: 66
@147897 Channel: 4 Note off, A4 key=69 velocity: 72
@148082 Channel: 4 Note on, A4 key=69 velocity: 75
@148084 Channel: 4 Note on, D4 key=62 velocity: 68
@148141 Channel: 4 Note off, A4 key=69 velocity: 75
@148143 Channel: 4 Note off, D4 key=62 velocity: 68
@148323 Channel: 4 Note on, A4 key=69 velocity: 81
@148323 Channel: 4 Note on, D2 key=38 velocity: 91
@148323 Channel: 4 Note on, D3 key=50 velocity: 80
@148326 Channel: 4 Note on, D4 key=62 velocity: 73
@148368 Channel: 4 Note off, D3 key=50 velocity: 80
@148375 Channel: 4 Note off, D2 key=38 velocity: 91
@148391 Channel: 4 Note off, A4 key=69 velocity: 81
@148394 Channel: 4 Note off, D4 key=62 velocity: 73
@148556 Channel: 4 Note on, A4 key=69 velocity: 68
@148558 Channel: 4 Note on, D4 key=62 velocity: 66
@148610 Channel: 4 Note off, A4 key=69 velocity: 68
@148611 Channel: 4 Note off, D4 key=62 velocity: 66
@148677 Channel: 4 Note on, D4 key=62 velocity: 65
@148677 Channel: 4 Note on, A4 key=69 velocity: 70
@148732 Channel: 4 Note off, A4 key=69 velocity: 70
@148736 Channel: 4 Note off, D4 key=62 velocity: 65
@148787 Channel: 4 Note on, D2 key=38 velocity: 90
@148790 Channel: 4 Note on, D3 key=50 velocity: 83
@148795 Channel: 4 Note on, A4 key=69 velocity: 72
@148796 Channel: 4 Note on, D4 key=62 velocity: 68
@148841 Channel: 4 Note off, D3 key=50 velocity: 83
@148847 Channel: 4 Note off, D2 key=38 velocity: 90
@148854 Channel: 4 Note off, D4 key=62 velocity: 68
@148857 Channel: 4 Note off, A4 key=69 velocity: 72
@149039 Channel: 4 Note on, A4 key=69 velocity: 66
@149042 Channel: 4 Note on, D4 key=62 velocity: 60
@149095 Channel: 4 Note off, D4 key=62 velocity: 60
@149095 Channel: 4 Note off, A4 key=69 velocity: 66
@149162 Channel: 4 Note on, A4 key=69 velocity: 68
@149163 Channel: 4 Note on, D4 key=62 velocity: 60
@149217 Channel: 4 Note off, D4 key=62 velocity: 60
@149221 Channel: 4 Note off, A4 key=69 velocity: 68
@149261 Channel: 4 Note on, D2 key=38 velocity: 88
@149263 Channel: 4 Note on, D3 key=50 velocity: 85
@149280 Channel: 4 Note on, A4 key=69 velocity: 73
@149281 Channel: 4 Note on, D4 key=62 velocity: 67
@149315 Channel: 4 Note off, D3 key=50 velocity: 85
@149321 Channel: 4 Note off, D2 key=38 velocity: 88
@149339 Channel: 4 Note off, D4 key=62 velocity: 67
@149343 Channel: 4 Note off, A4 key=69 velocity: 73
@149523 Channel: 4 Note on, A4 key=69 velocity: 73
@149525 Channel: 4 Note on, D4 key=62 velocity: 68
@149583 Channel: 4 Note off, D4 key=62 velocity: 68
@149586 Channel: 4 Note off, A4 key=69 velocity: 73
@149759 Channel: 4 Note on, G4 key=67 velocity: 86
@149760 Channel: 4 Note on, C4 key=60 velocity: 79
@149762 Channel: 4 Note on, C3 key=48 velocity: 86
@149763 Channel: 4 Note on, C2 key=36 velocity: 102
@149811 Channel: 4 Note off, C2 key=36 velocity: 102
@149814 Channel: 4 Note off, C3 key=48 velocity: 86
@149824 Channel: 4 Note off, G4 key=67 velocity: 86
@149827 Channel: 4 Note off, C4 key=60 velocity: 79
@149996 Channel: 4 Note on, C4 key=60 velocity: 68
@149996 Channel: 4 Note on, G4 key=67 velocity: 70
@150040 Channel: 4 Note off, G4 key=67 velocity: 70
@150054 Channel: 4 Note off, C4 key=60 velocity: 68
@150115 Channel: 4 Note on, C4 key=60 velocity: 63
@150115 Channel: 4 Note on, G4 key=67 velocity: 68
@150165 Channel: 4 Note off, G4 key=67 velocity: 68
@150171 Channel: 4 Note off, C4 key=60 velocity: 63
@150235 Channel: 4 Note on, G4 key=67 velocity: 80
@150236 Channel: 4 Note on, C4 key=60 velocity: 68
@150240 Channel: 4 Note on, C2 key=36 velocity: 95
@150247 Channel: 4 Note on, C3 key=48 velocity: 79
@150286 Channel: 4 Note off, C4 key=60 velocity: 68
@150291 Channel: 4 Note off, G4 key=67 velocity: 80
@150295 Channel: 4 Note off, C3 key=48 velocity: 79
@150299 Channel: 4 Note off, C2 key=36 velocity: 95
@150477 Channel: 4 Note on, C4 key=60 velocity: 64
@150477 Channel: 4 Note on, G4 key=67 velocity: 70
@150523 Channel: 4 Note off, G4 key=67 velocity: 70
@150529 Channel: 4 Note off, C4 key=60 velocity: 64
@150598 Channel: 4 Note on, C4 key=60 velocity: 60
@150598 Channel: 4 Note on, G4 key=67 velocity: 66
@150644 Channel: 4 Note off, G4 key=67 velocity: 66
@150648 Channel: 4 Note off, C4 key=60 velocity: 60
@150717 Channel: 4 Note on, G4 key=67 velocity: 73
@150718 Channel: 4 Note on, C4 key=60 velocity: 62
@150729 Channel: 4 Note on, C2 key=36 velocity: 84
@150734 Channel: 4 Note on, C3 key=48 velocity: 80
@150769 Channel: 4 Note off, C4 key=60 velocity: 62
@150773 Channel: 4 Note off, G4 key=67 velocity: 73
@150827 Channel: 4 Note off, C3 key=48 velocity: 80
@150867 Channel: 4 Note off, C2 key=36 velocity: 84
@150956 Channel: 4 Note on, G4 key=67 velocity: 66
@150957 Channel: 4 Note on, C4 key=60 velocity: 59
@151013 Channel: 4 Note off, G4 key=67 velocity: 66
@151017 Channel: 4 Note off, C4 key=60 velocity: 59
@151200 Channel: 4 Note on, F3 key=53 velocity: 92
@151204 Channel: 4 Note on, C5 key=72 velocity: 84
@151204 Channel: 4 Note on, F2 key=41 velocity: 100
@151205 Channel: 4 Note on, F4 key=65 velocity: 80
@151281 Channel: 4 Note off, F2 key=41 velocity: 100
@151283 Channel: 4 Note off, F3 key=53 velocity: 92
@151288 Channel: 4 Note off, C5 key=72 velocity: 84
@151293 Channel: 4 Note off, F4 key=65 velocity: 80
@151444 Channel: 4 Note on, F4 key=65 velocity: 70
@151444 Channel: 4 Note on, C5 key=72 velocity: 74
@151496 Channel: 4 Note off, C5 key=72 velocity: 74
@151504 Channel: 4 Note off, F4 key=65 velocity: 70
@151563 Channel: 4 Note on, F4 key=65 velocity: 64
@151563 Channel: 4 Note on, C5 key=72 velocity: 69
@151606 Channel: 4 Note off, C5 key=72 velocity: 69
@151615 Channel: 4 Note off, F4 key=65 velocity: 64
@151682 Channel: 4 Note on, C5 key=72 velocity: 81
@151683 Channel: 4 Note on, F4 key=65 velocity: 75
@151697 Channel: 4 Note on, F2 key=41 velocity: 81
@151698 Channel: 4 Note on, F3 key=53 velocity: 73
@151737 Channel: 4 Note off, C5 key=72 velocity: 81
@151739 Channel: 4 Note off, F4 key=65 velocity: 75
@151776 Channel: 4 Note off, F3 key=53 velocity: 73
@151787 Channel: 4 Note off, F2 key=41 velocity: 81
@151922 Channel: 4 Note on, F4 key=65 velocity: 69
@151922 Channel: 4 Note on, C5 key=72 velocity: 73
@151970 Channel: 4 Note off, C5 key=72 velocity: 73
@151980 Channel: 4 Note off, F4 key=65 velocity: 69
@152042 Channel: 4 Note on, F4 key=65 velocity: 59
@152044 Channel: 4 Note on, C5 key=72 velocity: 66
@152083 Channel: 4 Note off, C5 key=72 velocity: 66
@152093 Channel: 4 Note off, F4 key=65 velocity: 59
@152162 Channel: 4 Note on, C5 key=72 velocity: 62
@152165 Channel: 4 Note on, F4 key=65 velocity: 69
@152187 Channel: 4 Note on, F2 key=41 velocity: 95
@152187 Channel: 4 Note on, F3 key=53 velocity: 90
@152210 Channel: 4 Note off, F4 key=65 velocity: 69
@152217 Channel: 4 Note off, C5 key=72 velocity: 62
@152252 Channel: 4 Note off, F3 key=53 velocity: 90
@152271 Channel: 4 Note off, F2 key=41 velocity: 95
@152402 Channel: 4 Note on, C5 key=72 velocity: 74
@152404 Channel: 4 Note on, F4 key=65 velocity: 70
@152463 Channel: 4 Note off, C5 key=72 velocity: 74
@152468 Channel: 4 Note off, F4 key=65 velocity: 70
@152639 Channel: 4 Note on, G4 key=67 velocity: 86
@152640 Channel: 4 Note on, C4 key=60 velocity: 79
@152642 Channel: 4 Note on, C3 key=48 velocity: 86
@152643 Channel: 4 Note on, C2 key=36 velocity: 102
@152691 Channel: 4 Note off, C2 key=36 velocity: 102
@152694 Channel: 4 Note off, C3 key=48 velocity: 86
@152704 Channel: 4 Note off, G4 key=67 velocity: 86
@152707 Channel: 4 Note off, C4 key=60 velocity: 79
@152876 Channel: 4 Note on, C4 key=60 velocity: 68
@152876 Channel: 4 Note on, G4 key=67 velocity: 70
@152920 Channel: 4 Note off, G4 key=67 velocity: 70
@152934 Channel: 4 Note off, C4 key=60 velocity: 68
@152995 Channel: 4 Note on, C4 key=60 velocity: 63
@152995 Channel: 4 Note on, G4 key=67 velocity: 68
@153045 Channel: 4 Note off, G4 key=67 velocity: 68
@153051 Channel: 4 Note off, C4 key=60 velocity: 63
@153115 Channel: 4 Note on, G4 key=67 velocity: 80
@153116 Channel: 4 Note on, C4 key=60 velocity: 68
@153128 Channel: 4 Note on, C3 key=48 velocity: 73
@153130 Channel: 4 Note on, C2 key=36 velocity: 75
@153166 Channel: 4 Note off, C4 key=60 velocity: 68
@153171 Channel: 4 Note off, G4 key=67 velocity: 80
@153204 Channel: 4 Note off, C3 key=48 velocity: 73
@153234 Channel: 4 Note off, C2 key=36 velocity: 75
@153357 Channel: 4 Note on, C4 key=60 velocity: 64
@153357 Channel: 4 Note on, G4 key=67 velocity: 70
@153403 Channel: 4 Note off, G4 key=67 velocity: 70
@153409 Channel: 4 Note off, C4 key=60 velocity: 64
@153478 Channel: 4 Note on, C4 key=60 velocity: 60
@153478 Channel: 4 Note on, G4 key=67 velocity: 66
@153524 Channel: 4 Note off, G4 key=67 velocity: 66
@153528 Channel: 4 Note off, C4 key=60 velocity: 60
@153597 Channel: 4 Note on, G4 key=67 velocity: 73
@153598 Channel: 4 Note on, C4 key=60 velocity: 62
@153607 Channel: 4 Note on, C2 key=36 velocity: 81
@153609 Channel: 4 Note on, C3 key=48 velocity: 73
@153649 Channel: 4 Note off, C4 key=60 velocity: 62
@153653 Channel: 4 Note off, G4 key=67 velocity: 73
@153695 Channel: 4 Note off, C3 key=48 velocity: 73
@153708 Channel: 4 Note off, C2 key=36 velocity: 81
@153836 Channel: 4 Note on, G4 key=67 velocity: 66
@153837 Channel: 4 Note on, C4 key=60 velocity: 59
@153893 Channel: 4 Note off, G4 key=67 velocity: 66
@153897 Channel: 4 Note off, C4 key=60 velocity: 59
@154083 Channel: 4 Note on, F4 key=65 velocity: 81
@154083 Channel: 4 Note on, A#1 key=34 velocity: 91
@154083 Channel: 4 Note on, A#2 key=46 velocity: 80
@154086 Channel: 4 Note on, A#3 key=58 velocity: 73
@154128 Channel: 4 Note off, A#2 key=46 velocity: 80
@154135 Channel: 4 Note off, A#1 key=34 velocity: 91
@154151 Channel: 4 Note off, F4 key=65 velocity: 81
@154154 Channel: 4 Note off, A#3 key=58 velocity: 73
@154316 Channel: 4 Note on, F4 key=65 velocity: 68
@154318 Channel: 4 Note on, A#3 key=58 velocity: 66
@154370 Channel: 4 Note off, F4 key=65 velocity: 68
@154371 Channel: 4 Note off, A#3 key=58 velocity: 66
@154437 Channel: 4 Note on, A#3 key=58 velocity: 65
@154437 Channel: 4 Note on, F4 key=65 velocity: 70
@154492 Channel: 4 Note off, F4 key=65 velocity: 70
@154496 Channel: 4 Note off, A#3 key=58 velocity: 65
@154555 Channel: 4 Note on, F4 key=65 velocity: 72
@154556 Channel: 4 Note on, A#3 key=58 velocity: 68
@154561 Channel: 4 Note on, A#2 key=46 velocity: 82
@154564 Channel: 4 Note on, A#1 key=34 velocity: 84
@154614 Channel: 4 Note off, A#3 key=58 velocity: 68
@154617 Channel: 4 Note off, F4 key=65 velocity: 72
@154628 Channel: 4 Note off, A#2 key=46 velocity: 82
@154633 Channel: 4 Note off, A#1 key=34 velocity: 84
@154799 Channel: 4 Note on, F4 key=65 velocity: 66
@154802 Channel: 4 Note on, A#3 key=58 velocity: 60
@154855 Channel: 4 Note off, A#3 key=58 velocity: 60
@154855 Channel: 4 Note off, F4 key=65 velocity: 66
@154922 Channel: 4 Note on, F4 key=65 velocity: 68
@154923 Channel: 4 Note on, A#3 key=58 velocity: 60
@154977 Channel: 4 Note off, A#3 key=58 velocity: 60
@154981 Channel: 4 Note off, F4 key=65 velocity: 68
@155037 Channel: 4 Note on, A#2 key=46 velocity: 89
@155040 Channel: 4 Note on, F4 key=65 velocity: 73
@155041 Channel: 4 Note on, A#1 key=34 velocity: 87
@155041 Channel: 4 Note on, A#3 key=58 velocity: 67
@155099 Channel: 4 Note off, A#3 key=58 velocity: 67
@155103 Channel: 4 Note off, A#2 key=46 velocity: 89
@155103 Channel: 4 Note off, F4 key=65 velocity: 73
@155114 Channel: 4 Note off, A#1 key=34 velocity: 87
@155283 Channel: 4 Note on, F4 key=65 velocity: 73
@155285 Channel: 4 Note on, A#3 key=58 velocity: 68
@155343 Channel: 4 Note off, A#3 key=58 velocity: 68
@155346 Channel: 4 Note off, F4 key=65 velocity: 73
@155519 Channel: 4 Note on, E4 key=64 velocity: 86
@155520 Channel: 4 Note on, A3 key=57 velocity: 79
@155522 Channel: 4 Note on, A2 key=45 velocity: 86
@155523 Channel: 4 Note on, A1 key=33 velocity: 102
@155571 Channel: 4 Note off, A1 key=33 velocity: 102
@155574 Channel: 4 Note off, A2 key=45 velocity: 86
@155584 Channel: 4 Note off, E4 key=64 velocity: 86
@155587 Channel: 4 Note off, A3 key=57 velocity: 79
@155756 Channel: 4 Note on, A3 key=57 velocity: 68
@155756 Channel: 4 Note on, E4 key=64 velocity: 70
@155800 Channel: 4 Note off, E4 key=64 velocity: 70
@155814 Channel: 4 Note off, A3 key=57 velocity: 68
@155875 Channel: 4 Note on, A3 key=57 velocity: 63
@155875 Channel: 4 Note on, E4 key=64 velocity: 68
@155925 Channel: 4 Note off, E4 key=64 velocity: 68
@155931 Channel: 4 Note off, A3 key=57 velocity: 63
@155995 Channel: 4 Note on, E4 key=64 velocity: 80
@155996 Channel: 4 Note on, A3 key=57 velocity: 68
@156003 Channel: 4 Note on, A2 key=45 velocity: 80
@156007 Channel: 4 Note on, A1 key=33 velocity: 86
@156046 Channel: 4 Note off, A3 key=57 velocity: 68
@156051 Channel: 4 Note off, E4 key=64 velocity: 80
@156068 Channel: 4 Note off, A2 key=45 velocity: 80
@156085 Channel: 4 Note off, A1 key=33 velocity: 86
@156237 Channel: 4 Note on, A3 key=57 velocity: 64
@156237 Channel: 4 Note on, E4 key=64 velocity: 70
@156283 Channel: 4 Note off, E4 key=64 velocity: 70
@156289 Channel: 4 Note off, A3 key=57 velocity: 64
@156358 Channel: 4 Note on, A3 key=57 velocity: 60
@156358 Channel: 4 Note on, E4 key=64 velocity: 66
@156404 Channel: 4 Note off, E4 key=64 velocity: 66
@156408 Channel: 4 Note off, A3 key=57 velocity: 60
@156466 Channel: 4 Note on, A2 key=45 velocity: 80
@156469 Channel: 4 Note on, A1 key=33 velocity: 98
@156477 Channel: 4 Note on, E4 key=64 velocity: 73
@156478 Channel: 4 Note on, A3 key=57 velocity: 62
@156529 Channel: 4 Note off, A2 key=45 velocity: 80
@156529 Channel: 4 Note off, A3 key=57 velocity: 62
@156530 Channel: 4 Note off, A1 key=33 velocity: 98
@156533 Channel: 4 Note off, E4 key=64 velocity: 73
@156716 Channel: 4 Note on, E4 key=64 velocity: 66
@156717 Channel: 4 Note on, A3 key=57 velocity: 59
@156773 Channel: 4 Note off, E4 key=64 velocity: 66
@156777 Channel: 4 Note off, A3 key=57 velocity: 59
@156963 Channel: 4 Note on, F4 key=65 velocity: 81
@156963 Channel: 4 Note on, A#1 key=34 velocity: 91
@156963 Channel: 4 Note on, A#2 key=46 velocity: 80
@156966 Channel: 4 Note on, A#3 key=58 velocity: 73
@157008 Channel: 4 Note off, A#2 key=46 velocity: 80
@157015 Channel: 4 Note off, A#1 key=34 velocity: 91
@157031 Channel: 4 Note off, F4 key=65 velocity: 81
@157034 Channel: 4 Note off, A#3 key=58 velocity: 73
@157196 Channel: 4 Note on, F4 key=65 velocity: 68
@157198 Channel: 4 Note on, A#3 key=58 velocity: 66
@157250 Channel: 4 Note off, F4 key=65 velocity: 68
@157251 Channel: 4 Note off, A#3 key=58 velocity: 66
@157317 Channel: 4 Note on, A#3 key=58 velocity: 65
@157317 Channel: 4 Note on, F4 key=65 velocity: 70
@157372 Channel: 4 Note off, F4 key=65 velocity: 70
@157376 Channel: 4 Note off, A#3 key=58 velocity: 65
@157435 Channel: 4 Note on, F4 key=65 velocity: 72
@157436 Channel: 4 Note on, A#3 key=58 velocity: 68
@157441 Channel: 4 Note on, A#2 key=46 velocity: 82
@157444 Channel: 4 Note on, A#1 key=34 velocity: 84
@157494 Channel: 4 Note off, A#3 key=58 velocity: 68
@157497 Channel: 4 Note off, F4 key=65 velocity: 72
@157508 Channel: 4 Note off, A#2 key=46 velocity: 82
@157513 Channel: 4 Note off, A#1 key=34 velocity: 84
@157679 Channel: 4 Note on, F4 key=65 velocity: 66
@157682 Channel: 4 Note on, A#3 key=58 velocity: 60
@157735 Channel: 4 Note off, A#3 key=58 velocity: 60
@157735 Channel: 4 Note off, F4 key=65 velocity: 66
@157802 Channel: 4 Note on, F4 key=65 velocity: 68
@157803 Channel: 4 Note on, A#3 key=58 velocity: 60
@157857 Channel: 4 Note off, A#3 key=58 velocity: 60
@157861 Channel: 4 Note off, F4 key=65 velocity: 68
@157917 Channel: 4 Note on, A#2 key=46 velocity: 89
@157920 Channel: 4 Note on, F4 key=65 velocity: 73
@157921 Channel: 4 Note on, A#1 key=34 velocity: 87
@157921 Channel: 4 Note on, A#3 key=58 velocity: 67
@157979 Channel: 4 Note off, A#3 key=58 velocity: 67
@157983 Channel: 4 Note off, A#2 key=46 velocity: 89
@157983 Channel: 4 Note off, F4 key=65 velocity: 73
@157994 Channel: 4 Note off, A#1 key=34 velocity: 87
@158163 Channel: 4 Note on, F4 key=65 velocity: 73
@158165 Channel: 4 Note on, A#3 key=58 velocity: 68
@158223 Channel: 4 Note off, A#3 key=58 velocity: 68
@158226 Channel: 4 Note off, F4 key=65 velocity: 73
@158399 Channel: 4 Note on, E4 key=64 velocity: 86
@158400 Channel: 4 Note on, A3 key=57 velocity: 79
@158402 Channel: 4 Note on, A2 key=45 velocity: 86
@158403 Channel: 4 Note on, A1 key=33 velocity: 102
@158451 Channel: 4 Note off, A1 key=33 velocity: 102
@158454 Channel: 4 Note off, A2 key=45 velocity: 86
@158464 Channel: 4 Note off, E4 key=64 velocity: 86
@158467 Channel: 4 Note off, A3 key=57 velocity: 79
@158636 Channel: 4 Note on, A3 key=57 velocity: 68
@158636 Channel: 4 Note on, E4 key=64 velocity: 70
@158680 Channel: 4 Note off, E4 key=64 velocity: 70
@158694 Channel: 4 Note off, A3 key=57 velocity: 68
@158755 Channel: 4 Note on, A3 key=57 velocity: 63
@158755 Channel: 4 Note on, E4 key=64 velocity: 68
@158805 Channel: 4 Note off, E4 key=64 velocity: 68
@158811 Channel: 4 Note off, A3 key=57 velocity: 63
@158875 Channel: 4 Note on, E4 key=64 velocity: 80
@158876 Channel: 4 Note on, A3 key=57 velocity: 68
@158883 Channel: 4 Note on, A2 key=45 velocity: 80
@158887 Channel: 4 Note on, A1 key=33 velocity: 86
@158926 Channel: 4 Note off, A3 key=57 velocity: 68
@158931 Channel: 4 Note off, E4 key=64 velocity: 80
@158948 Channel: 4 Note off, A2 key=45 velocity: 80
@158965 Channel: 4 Note off, A1 key=33 velocity: 86
@159117 Channel: 4 Note on, A3 key=57 velocity: 64
@159117 Channel: 4 Note on, E4 key=64 velocity: 70
@159163 Channel: 4 Note off, E4 key=64 velocity: 70
@159169 Channel: 4 Note off, A3 key=57 velocity: 64
@159238 Channel: 4 Note on, A3 key=57 velocity: 60
@159238 Channel: 4 Note on, E4 key=64 velocity: 66
@159284 Channel: 4 Note off, E4 key=64 velocity: 66
@159288 Channel: 4 Note off, A3 key=57 velocity: 60
@159346 Channel: 4 Note on, A2 key=45 velocity: 80
@159349 Channel: 4 Note on, A1 key=33 velocity: 98
@159357 Channel: 4 Note on, E4 key=64 velocity: 73
@159358 Channel: 4 Note on, A3 key=57 velocity: 62
@159409 Channel: 4 Note off, A2 key=45 velocity: 80
@159409 Channel: 4 Note off, A3 key=57 velocity: 62
@159410 Channel: 4 Note off, A1 key=33 velocity: 98
@159413 Channel: 4 Note off, E4 key=64 velocity: 73
@159596 Channel: 4 Note on, E4 key=64 velocity: 66
@159597 Channel: 4 Note on, A3 key=57 velocity: 59
@159653 Channel: 4 Note off, E4 key=64 velocity: 66
@159657 Channel: 4 Note off, A3 key=57 velocity: 59
@159843 Channel: 4 Note on, F4 key=65 velocity: 81
@159843 Channel: 4 Note on, A#1 key=34 velocity: 91
@159843 Channel: 4 Note on, A#2 key=46 velocity: 80
@159846 Channel: 4 Note on, A#3 key=58 velocity: 73
@159888 Channel: 4 Note off, A#2 key=46 velocity: 80
@159895 Channel: 4 Note off, A#1 key=34 velocity: 91
@159911 Channel: 4 Note off, F4 key=65 velocity: 81
@159914 Channel: 4 Note off, A#3 key=58 velocity: 73
@160076 Channel: 4 Note on, F4 key=65 velocity: 68
@160078 Channel: 4 Note on, A#3 key=58 velocity: 66
@160130 Channel: 4 Note off, F4 key=65 velocity: 68
@160131 Channel: 4 Note off, A#3 key=58 velocity: 66
@160197 Channel: 4 Note on, A#3 key=58 velocity: 65
@160197 Channel: 4 Note on, F4 key=65 velocity: 70
@160252 Channel: 4 Note off, F4 key=65 velocity: 70
@160256 Channel: 4 Note off, A#3 key=58 velocity: 65
@160315 Channel: 4 Note on, F4 key=65 velocity: 72
@160316 Channel: 4 Note on, A#3 key=58 velocity: 68
@160321 Channel: 4 Note on, A#2 key=46 velocity: 82
@160324 Channel: 4 Note on, A#1 key=34 velocity: 84
@160374 Channel: 4 Note off, A#3 key=58 velocity: 68
@160377 Channel: 4 Note off, F4 key=65 velocity: 72
@160388 Channel: 4 Note off, A#2 key=46 velocity: 82
@160393 Channel: 4 Note off, A#1 key=34 velocity: 84
@160559 Channel: 4 Note on, F4 key=65 velocity: 66
@160562 Channel: 4 Note on, A#3 key=58 velocity: 60
@160615 Channel: 4 Note off, A#3 key=58 velocity: 60
@160615 Channel: 4 Note off, F4 key=65 velocity: 66
@160682 Channel: 4 Note on, F4 key=65 velocity: 68
@160683 Channel: 4 Note on, A#3 key=58 velocity: 60
@160737 Channel: 4 Note off, A#3 key=58 velocity: 60
@160741 Channel: 4 Note off, F4 key=65 velocity: 68
@160797 Channel: 4 Note on, A#2 key=46 velocity: 89
@160800 Channel: 4 Note on, F4 key=65 velocity: 73
@160801 Channel: 4 Note on, A#1 key=34 velocity: 87
@160801 Channel: 4 Note on, A#3 key=58 velocity: 67
@160859 Channel: 4 Note off, A#3 key=58 velocity: 67
@160863 Channel: 4 Note off, A#2 key=46 velocity: 89
@160863 Channel: 4 Note off, F4 key=65 velocity: 73
@160874 Channel: 4 Note off, A#1 key=34 velocity: 87
@161043 Channel: 4 Note on, F4 key=65 velocity: 73
@161045 Channel: 4 Note on, A#3 key=58 velocity: 68
@161103 Channel: 4 Note off, A#3 key=58 velocity: 68
@161106 Channel: 4 Note off, F4 key=65 velocity: 73
@161279 Channel: 4 Note on, E4 key=64 velocity: 86
@161280 Channel: 4 Note on, A3 key=57 velocity: 79
@161282 Channel: 4 Note on, A2 key=45 velocity: 86
@161283 Channel: 4 Note on, A1 key=33 velocity: 102
@161331 Channel: 4 Note off, A1 key=33 velocity: 102
@161334 Channel: 4 Note off, A2 key=45 velocity: 86
@161344 Channel: 4 Note off, E4 key=64 velocity: 86
@161347 Channel: 4 Note off, A3 key=57 velocity: 79
@161516 Channel: 4 Note on, A3 key=57 velocity: 68
@161516 Channel: 4 Note on, E4 key=64 velocity: 70
@161560 Channel: 4 Note off, E4 key=64 velocity: 70
@161574 Channel: 4 Note off, A3 key=57 velocity: 68
@161635 Channel: 4 Note on, A3 key=57 velocity: 63
@161635 Channel: 4 Note on, E4 key=64 velocity: 68
@161685 Channel: 4 Note off, E4 key=64 velocity: 68
@161691 Channel: 4 Note off, A3 key=57 velocity: 63
@161755 Channel: 4 Note on, E4 key=64 velocity: 80
@161756 Channel: 4 Note on, A3 key=57 velocity: 68
@161763 Channel: 4 Note on, A2 key=45 velocity: 80
@161767 Channel: 4 Note on, A1 key=33 velocity: 86
@161806 Channel: 4 Note off, A3 key=57 velocity: 68
@161811 Channel: 4 Note off, E4 key=64 velocity: 80
@161828 Channel: 4 Note off, A2 key=45 velocity: 80
@161845 Channel: 4 Note off, A1 key=33 velocity: 86
@161997 Channel: 4 Note on, A3 key=57 velocity: 64
@161997 Channel: 4 Note on, E4 key=64 velocity: 70
@162043 Channel: 4 Note off, E4 key=64 velocity: 70
@162049 Channel: 4 Note off, A3 key=57 velocity: 64
@162118 Channel: 4 Note on, A3 key=57 velocity: 60
@162118 Channel: 4 Note on, E4 key=64 velocity: 66
@162164 Channel: 4 Note off, E4 key=64 velocity: 66
@162168 Channel: 4 Note off, A3 key=57 velocity: 60
@162226 Channel: 4 Note on, A2 key=45 velocity: 80
@162229 Channel: 4 Note on, A1 key=33 velocity: 98
@162237 Channel: 4 Note on, E4 key=64 velocity: 73
@162238 Channel: 4 Note on, A3 key=57 velocity: 62
@162289 Channel: 4 Note off, A2 key=45 velocity: 80
@162289 Channel: 4 Note off, A3 key=57 velocity: 62
@162290 Channel: 4 Note off, A1 key=33 velocity: 98
@162293 Channel: 4 Note off, E4 key=64 velocity: 73
@162476 Channel: 4 Note on, E4 key=64 velocity: 66
@162477 Channel: 4 Note on, A3 key=57 velocity: 59
@162533 Channel: 4 Note off, E4 key=64 velocity: 66
@162537 Channel: 4 Note off, A3 key=57 velocity: 59
@168480 Other message: class javax.sound.midi.Track$ImmutableEndOfTrack

Track 7: size = 179

@0 Other message: class javax.sound.midi.MetaMessage
@0 Other message: class javax.sound.midi.MetaMessage
@0 Other message: class javax.sound.midi.MetaMessage
@0 Other message: class javax.sound.midi.MetaMessage
@410 Channel: 5 Command:176
@415 Channel: 5 Command:176
@420 Channel: 5 Command:192
@425 Channel: 5 Command:176
@430 Channel: 5 Command:176
@435 Channel: 5 Command:176
@440 Channel: 5 Command:176
@445 Channel: 5 Command:176
@445 Channel: 5 Command:176
@445 Channel: 5 Command:176
@450 Channel: 5 Command:176
@450 Channel: 5 Command:176
@450 Channel: 5 Command:176
@455 Channel: 5 Command:176
@455 Channel: 5 Command:176
@455 Channel: 5 Command:176
@460 Channel: 5 Command:176
@460 Channel: 5 Command:176
@460 Channel: 5 Command:176
@465 Channel: 5 Command:176
@465 Channel: 5 Command:176
@465 Channel: 5 Command:176
@470 Channel: 5 Command:176
@470 Channel: 5 Command:176
@470 Channel: 5 Command:176
@475 Channel: 5 Command:176
@475 Channel: 5 Command:176
@475 Channel: 5 Command:176
@480 Channel: 5 Command:176
@480 Channel: 5 Command:176
@480 Channel: 5 Command:176
@485 Channel: 5 Command:176
@485 Channel: 5 Command:176
@485 Channel: 5 Command:176
@1465 Channel: 5 Note on, D2 key=38 velocity: 120
@2102 Channel: 5 Note off, D2 key=38 velocity: 120
@4326 Channel: 5 Note on, D2 key=38 velocity: 125
@4934 Channel: 5 Note off, D2 key=38 velocity: 125
@7214 Channel: 5 Note on, D2 key=38 velocity: 120
@7323 Channel: 5 Note off, D2 key=38 velocity: 120
@10102 Channel: 5 Note on, D2 key=38 velocity: 110
@11065 Channel: 5 Note off, D2 key=38 velocity: 110
@12965 Channel: 5 Note on, D2 key=38 velocity: 120
@13919 Channel: 5 Note off, D2 key=38 velocity: 120
@15850 Channel: 5 Note on, D2 key=38 velocity: 125
@17037 Channel: 5 Note off, D2 key=38 velocity: 125
@17280 Other message: class javax.sound.midi.MetaMessage
@18720 Other message: class javax.sound.midi.MetaMessage
@18736 Channel: 5 Note on, F2 key=41 velocity: 125
@19681 Channel: 5 Note off, F2 key=41 velocity: 125
@20160 Other message: class javax.sound.midi.MetaMessage
@21600 Other message: class javax.sound.midi.MetaMessage
@21606 Channel: 5 Note on, A#1 key=34 velocity: 119
@22858 Channel: 5 Note off, A#1 key=34 velocity: 119
@23040 Other message: class javax.sound.midi.MetaMessage
@25920 Other message: class javax.sound.midi.MetaMessage
@25925 Channel: 5 Note on, D2 key=38 velocity: 120
@26879 Channel: 5 Note off, D2 key=38 velocity: 120
@28810 Channel: 5 Note on, D2 key=38 velocity: 125
@29997 Channel: 5 Note off, D2 key=38 velocity: 125
@31696 Channel: 5 Note on, F2 key=41 velocity: 125
@32641 Channel: 5 Note off, F2 key=41 velocity: 125
@34566 Channel: 5 Note on, A#1 key=34 velocity: 119
@35818 Channel: 5 Note off, A#1 key=34 velocity: 119
@37445 Channel: 5 Note on, D2 key=38 velocity: 120
@38399 Channel: 5 Note off, D2 key=38 velocity: 120
@40330 Channel: 5 Note on, D2 key=38 velocity: 125
@41517 Channel: 5 Note off, D2 key=38 velocity: 125
@43216 Channel: 5 Note on, F2 key=41 velocity: 125
@44161 Channel: 5 Note off, F2 key=41 velocity: 125
@46086 Channel: 5 Note on, A#1 key=34 velocity: 119
@47338 Channel: 5 Note off, A#1 key=34 velocity: 119
@50405 Channel: 5 Note on, D2 key=38 velocity: 120
@51359 Channel: 5 Note off, D2 key=38 velocity: 120
@53290 Channel: 5 Note on, D2 key=38 velocity: 125
@54477 Channel: 5 Note off, D2 key=38 velocity: 125
@56176 Channel: 5 Note on, F2 key=41 velocity: 125
@57121 Channel: 5 Note off, F2 key=41 velocity: 125
@59046 Channel: 5 Note on, A#1 key=34 velocity: 119
@60298 Channel: 5 Note off, A#1 key=34 velocity: 119
@63360 Channel: 5 Command:192
@63360 Channel: 5 Command:176
@63734 Channel: 5 Note on, D2 key=38 velocity: 127
@63775 Channel: 5 Note off, D2 key=38 velocity: 127
@63856 Channel: 5 Note on, D2 key=38 velocity: 127
@64763 Channel: 5 Note off, D2 key=38 velocity: 127
@66592 Channel: 5 Note on, D2 key=38 velocity: 120
@66641 Channel: 5 Note off, D2 key=38 velocity: 120
@66711 Channel: 5 Note on, D2 key=38 velocity: 127
@67647 Channel: 5 Note off, D2 key=38 velocity: 127
@69484 Channel: 5 Note on, D2 key=38 velocity: 110
@69519 Channel: 5 Note off, D2 key=38 velocity: 110
@69595 Channel: 5 Note on, D2 key=38 velocity: 120
@70535 Channel: 5 Note off, D2 key=38 velocity: 120
@74880 Channel: 5 Command:176
@75734 Channel: 5 Note on, D2 key=38 velocity: 127
@75775 Channel: 5 Note off, D2 key=38 velocity: 127
@75856 Channel: 5 Note on, D2 key=38 velocity: 127
@76763 Channel: 5 Note off, D2 key=38 velocity: 127
@78592 Channel: 5 Note on, D2 key=38 velocity: 120
@78641 Channel: 5 Note off, D2 key=38 velocity: 120
@78711 Channel: 5 Note on, D2 key=38 velocity: 127
@79647 Channel: 5 Note off, D2 key=38 velocity: 127
@81484 Channel: 5 Note on, D2 key=38 velocity: 110
@81519 Channel: 5 Note off, D2 key=38 velocity: 110
@81595 Channel: 5 Note on, D2 key=38 velocity: 120
@82535 Channel: 5 Note off, D2 key=38 velocity: 120
@86400 Channel: 5 Command:192
@86400 Channel: 5 Command:176
@86405 Channel: 5 Note on, D2 key=38 velocity: 120
@87359 Channel: 5 Note off, D2 key=38 velocity: 120
@89290 Channel: 5 Note on, D2 key=38 velocity: 125
@90477 Channel: 5 Note off, D2 key=38 velocity: 125
@92176 Channel: 5 Note on, F2 key=41 velocity: 125
@93121 Channel: 5 Note off, F2 key=41 velocity: 125
@95046 Channel: 5 Note on, A#1 key=34 velocity: 119
@96298 Channel: 5 Note off, A#1 key=34 velocity: 119
@97925 Channel: 5 Note on, D2 key=38 velocity: 120
@98879 Channel: 5 Note off, D2 key=38 velocity: 120
@100810 Channel: 5 Note on, D2 key=38 velocity: 125
@101997 Channel: 5 Note off, D2 key=38 velocity: 125
@103696 Channel: 5 Note on, F2 key=41 velocity: 125
@104641 Channel: 5 Note off, F2 key=41 velocity: 125
@106566 Channel: 5 Note on, A#1 key=34 velocity: 119
@107818 Channel: 5 Note off, A#1 key=34 velocity: 119
@110880 Channel: 5 Command:176
@110880 Channel: 5 Command:192
@111254 Channel: 5 Note on, D2 key=38 velocity: 127
@111295 Channel: 5 Note off, D2 key=38 velocity: 127
@111376 Channel: 5 Note on, D2 key=38 velocity: 127
@112283 Channel: 5 Note off, D2 key=38 velocity: 127
@114112 Channel: 5 Note on, D2 key=38 velocity: 120
@114161 Channel: 5 Note off, D2 key=38 velocity: 120
@114231 Channel: 5 Note on, D2 key=38 velocity: 127
@115167 Channel: 5 Note off, D2 key=38 velocity: 127
@117004 Channel: 5 Note on, D2 key=38 velocity: 110
@117039 Channel: 5 Note off, D2 key=38 velocity: 110
@117115 Channel: 5 Note on, D2 key=38 velocity: 120
@118055 Channel: 5 Note off, D2 key=38 velocity: 120
@122400 Channel: 5 Command:176
@123254 Channel: 5 Note on, D2 key=38 velocity: 127
@123295 Channel: 5 Note off, D2 key=38 velocity: 127
@123376 Channel: 5 Note on, D2 key=38 velocity: 127
@124283 Channel: 5 Note off, D2 key=38 velocity: 127
@126112 Channel: 5 Note on, D2 key=38 velocity: 120
@126161 Channel: 5 Note off, D2 key=38 velocity: 120
@126231 Channel: 5 Note on, D2 key=38 velocity: 127
@127167 Channel: 5 Note off, D2 key=38 velocity: 127
@129004 Channel: 5 Note on, D2 key=38 velocity: 110
@129039 Channel: 5 Note off, D2 key=38 velocity: 110
@129115 Channel: 5 Note on, D2 key=38 velocity: 120
@130055 Channel: 5 Note off, D2 key=38 velocity: 120
@133920 Channel: 5 Command:192
@133920 Channel: 5 Command:176
@133925 Channel: 5 Note on, D2 key=38 velocity: 120
@134879 Channel: 5 Note off, D2 key=38 velocity: 120
@136810 Channel: 5 Note on, D2 key=38 velocity: 125
@137997 Channel: 5 Note off, D2 key=38 velocity: 125
@139696 Channel: 5 Note on, F2 key=41 velocity: 125
@140641 Channel: 5 Note off, F2 key=41 velocity: 125
@142566 Channel: 5 Note on, A#1 key=34 velocity: 119
@143818 Channel: 5 Note off, A#1 key=34 velocity: 119
@145445 Channel: 5 Note on, D2 key=38 velocity: 120
@146399 Channel: 5 Note off, D2 key=38 velocity: 120
@148330 Channel: 5 Note on, D2 key=38 velocity: 125
@149517 Channel: 5 Note off, D2 key=38 velocity: 125
@151216 Channel: 5 Note on, F2 key=41 velocity: 125
@152161 Channel: 5 Note off, F2 key=41 velocity: 125
@154086 Channel: 5 Note on, A#1 key=34 velocity: 119
@155338 Channel: 5 Note off, A#1 key=34 velocity: 119
@156966 Channel: 5 Note on, A#1 key=34 velocity: 119
@158218 Channel: 5 Note off, A#1 key=34 velocity: 119
@159846 Channel: 5 Note on, A#1 key=34 velocity: 119
@161098 Channel: 5 Note off, A#1 key=34 velocity: 119
@168480 Other message: class javax.sound.midi.Track$ImmutableEndOfTrack

Track 8: size = 1007

@0 Other message: class javax.sound.midi.MetaMessage
@0 Other message: class javax.sound.midi.MetaMessage
@0 Other message: class javax.sound.midi.MetaMessage
@0 Other message: class javax.sound.midi.MetaMessage
@490 Channel: 6 Command:176
@495 Channel: 6 Command:176
@500 Channel: 6 Command:192
@505 Channel: 6 Command:176
@510 Channel: 6 Command:176
@515 Channel: 6 Command:176
@520 Channel: 6 Command:176
@525 Channel: 6 Command:176
@525 Channel: 6 Command:176
@525 Channel: 6 Command:176
@530 Channel: 6 Command:176
@530 Channel: 6 Command:176
@530 Channel: 6 Command:176
@535 Channel: 6 Command:176
@535 Channel: 6 Command:176
@535 Channel: 6 Command:176
@540 Channel: 6 Command:176
@540 Channel: 6 Command:176
@540 Channel: 6 Command:176
@545 Channel: 6 Command:176
@545 Channel: 6 Command:176
@545 Channel: 6 Command:176
@550 Channel: 6 Command:176
@550 Channel: 6 Command:176
@550 Channel: 6 Command:176
@555 Channel: 6 Command:176
@555 Channel: 6 Command:176
@555 Channel: 6 Command:176
@560 Channel: 6 Command:176
@560 Channel: 6 Command:176
@560 Channel: 6 Command:176
@565 Channel: 6 Command:176
@565 Channel: 6 Command:176
@565 Channel: 6 Command:176
@24000 Channel: 6 Command:176
@24360 Channel: 6 Note on, E3 key=52 velocity: 108
@24463 Channel: 6 Note on, A3 key=57 velocity: 107
@24480 Channel: 6 Command:176
@24533 Channel: 6 Command:176
@24571 Channel: 6 Command:176
@24624 Channel: 6 Command:176
@24677 Channel: 6 Command:176
@24733 Channel: 6 Command:176
@24769 Channel: 6 Command:176
@24813 Channel: 6 Command:176
@24858 Channel: 6 Command:176
@24912 Channel: 6 Command:176
@24962 Channel: 6 Note on, A2 key=45 velocity: 103
@25009 Channel: 6 Command:176
@25885 Channel: 6 Note off, A3 key=57 velocity: 107
@25899 Channel: 6 Note off, E3 key=52 velocity: 108
@25915 Channel: 6 Note off, A2 key=45 velocity: 103
@27360 Other message: class javax.sound.midi.MetaMessage
@27360 Channel: 6 Command:176
@27721 Channel: 6 Note on, E3 key=52 velocity: 127
@27840 Channel: 6 Command:176
@27844 Channel: 6 Note on, A3 key=57 velocity: 125
@27850 Channel: 6 Note on, A2 key=45 velocity: 81
@27893 Channel: 6 Command:176
@27931 Channel: 6 Command:176
@27984 Channel: 6 Command:176
@28037 Channel: 6 Command:176
@28093 Channel: 6 Command:176
@28129 Channel: 6 Command:176
@28173 Channel: 6 Command:176
@28218 Channel: 6 Command:176
@28272 Channel: 6 Command:176
@28369 Channel: 6 Command:176
@29139 Channel: 6 Note off, E3 key=52 velocity: 127
@29154 Channel: 6 Note off, A2 key=45 velocity: 81
@29168 Channel: 6 Note off, A3 key=57 velocity: 125
@30240 Other message: class javax.sound.midi.MetaMessage
@30240 Channel: 6 Command:176
@30601 Channel: 6 Note on, G3 key=55 velocity: 109
@30720 Channel: 6 Command:176
@30720 Channel: 6 Note on, C4 key=60 velocity: 107
@30773 Channel: 6 Command:176
@30811 Channel: 6 Command:176
@30864 Channel: 6 Command:176
@30917 Channel: 6 Command:176
@30973 Channel: 6 Command:176
@31009 Channel: 6 Command:176
@31053 Channel: 6 Command:176
@31098 Channel: 6 Command:176
@31152 Channel: 6 Command:176
@31249 Channel: 6 Command:176
@32019 Channel: 6 Note off, G3 key=55 velocity: 109
@32044 Channel: 6 Note off, C4 key=60 velocity: 107
@33120 Other message: class javax.sound.midi.MetaMessage
@33120 Channel: 6 Command:176
@33481 Channel: 6 Note on, G3 key=55 velocity: 110
@33600 Channel: 6 Command:176
@33600 Channel: 6 Note on, C4 key=60 velocity: 108
@33653 Channel: 6 Command:176
@33691 Channel: 6 Command:176
@33744 Channel: 6 Command:176
@33797 Channel: 6 Command:176
@33853 Channel: 6 Command:176
@33889 Channel: 6 Command:176
@33933 Channel: 6 Command:176
@33978 Channel: 6 Command:176
@34032 Channel: 6 Command:176
@34129 Channel: 6 Command:176
@34560 Channel: 6 Note off, C4 key=60 velocity: 108
@34560 Channel: 6 Note off, G3 key=55 velocity: 110
@34560 Channel: 6 Command:176
@34917 Channel: 6 Note on, F3 key=53 velocity: 127
@35040 Channel: 6 Command:176
@35044 Channel: 6 Note on, A#3 key=58 velocity: 113
@35093 Channel: 6 Command:176
@35131 Channel: 6 Command:176
@35184 Channel: 6 Command:176
@35237 Channel: 6 Command:176
@35293 Channel: 6 Command:176
@35329 Channel: 6 Command:176
@35373 Channel: 6 Command:176
@35418 Channel: 6 Command:176
@35472 Channel: 6 Command:176
@35569 Channel: 6 Command:176
@36000 Channel: 6 Note off, A#3 key=58 velocity: 113
@36000 Channel: 6 Note off, F3 key=53 velocity: 127
@36000 Channel: 6 Command:176
@36357 Channel: 6 Note on, E3 key=52 velocity: 127
@36480 Channel: 6 Command:176
@36484 Channel: 6 Note on, A3 key=57 velocity: 112
@36533 Channel: 6 Command:176
@36571 Channel: 6 Command:176
@36624 Channel: 6 Command:176
@36677 Channel: 6 Command:176
@36733 Channel: 6 Command:176
@36769 Channel: 6 Command:176
@36813 Channel: 6 Command:176
@36858 Channel: 6 Command:176
@36912 Channel: 6 Command:176
@37009 Channel: 6 Command:176
@37440 Channel: 6 Note off, A3 key=57 velocity: 112
@37440 Channel: 6 Note off, E3 key=52 velocity: 127
@60489 Channel: 6 Command:176
@61237 Channel: 6 Command:176
@61371 Channel: 6 Command:176
@61406 Channel: 6 Command:176
@61433 Channel: 6 Command:176
@61438 Channel: 6 Note on, E4 key=64 velocity: 127
@61442 Channel: 6 Command:176
@61459 Channel: 6 Command:176
@61486 Channel: 6 Command:176
@61513 Channel: 6 Command:176
@61540 Channel: 6 Command:176
@61576 Channel: 6 Command:176
@61619 Channel: 6 Command:176
@61664 Channel: 6 Command:176
@61682 Channel: 6 Command:176
@61700 Channel: 6 Command:176
@61708 Channel: 6 Command:176
@61718 Channel: 6 Command:176
@61727 Channel: 6 Command:176
@61753 Channel: 6 Command:176
@61798 Channel: 6 Command:176
@61834 Channel: 6 Command:176
@61869 Channel: 6 Command:176
@61905 Channel: 6 Command:176
@61950 Channel: 6 Command:176
@62003 Channel: 6 Command:176
@62038 Channel: 6 Command:176
@62065 Channel: 6 Command:176
@62100 Channel: 6 Command:176
@62109 Channel: 6 Command:176
@62136 Channel: 6 Command:176
@62163 Channel: 6 Command:176
@62199 Channel: 6 Command:176
@62225 Channel: 6 Command:176
@62252 Channel: 6 Command:176
@62278 Channel: 6 Command:176
@62819 Channel: 6 Note on, A4 key=69 velocity: 102
@63340 Channel: 6 Note off, E4 key=64 velocity: 127
@63353 Channel: 6 Note off, A4 key=69 velocity: 102
@63376 Channel: 6 Note on, D4 key=62 velocity: 125
@63416 Channel: 6 Note off, D4 key=62 velocity: 125
@63496 Channel: 6 Note on, D4 key=62 velocity: 112
@63540 Channel: 6 Note off, D4 key=62 velocity: 112
@63617 Channel: 6 Note on, D4 key=62 velocity: 106
@63663 Channel: 6 Note off, D4 key=62 velocity: 106
@63739 Channel: 6 Note on, D4 key=62 velocity: 102
@63779 Channel: 6 Note off, D4 key=62 velocity: 102
@63854 Channel: 6 Note on, D4 key=62 velocity: 114
@63906 Channel: 6 Note off, D4 key=62 velocity: 114
@63968 Channel: 6 Note on, D4 key=62 velocity: 104
@64020 Channel: 6 Note off, D4 key=62 velocity: 104
@64084 Channel: 6 Note on, D4 key=62 velocity: 110
@64133 Channel: 6 Note off, D4 key=62 velocity: 110
@64204 Channel: 6 Note on, D4 key=62 velocity: 108
@64252 Channel: 6 Note off, D4 key=62 velocity: 108
@64320 Channel: 6 Note on, D4 key=62 velocity: 112
@64371 Channel: 6 Note off, D4 key=62 velocity: 112
@64438 Channel: 6 Note on, D4 key=62 velocity: 106
@64489 Channel: 6 Note off, D4 key=62 velocity: 106
@64561 Channel: 6 Note on, D4 key=62 velocity: 114
@64602 Channel: 6 Note off, D4 key=62 velocity: 114
@64676 Channel: 6 Note on, D4 key=62 velocity: 120
@64734 Channel: 6 Note off, D4 key=62 velocity: 120
@64803 Channel: 6 Note on, G4 key=67 velocity: 122
@64857 Channel: 6 Note off, G4 key=67 velocity: 122
@64927 Channel: 6 Note on, G4 key=67 velocity: 106
@64984 Channel: 6 Note off, G4 key=67 velocity: 106
@65044 Channel: 6 Note on, G4 key=67 velocity: 94
@65098 Channel: 6 Note off, G4 key=67 velocity: 94
@65162 Channel: 6 Note on, G4 key=67 velocity: 102
@65210 Channel: 6 Note off, G4 key=67 velocity: 102
@65282 Channel: 6 Note on, G4 key=67 velocity: 122
@65330 Channel: 6 Note off, G4 key=67 velocity: 122
@65400 Channel: 6 Note on, G4 key=67 velocity: 102
@65447 Channel: 6 Note off, G4 key=67 velocity: 102
@65525 Channel: 6 Note on, G4 key=67 velocity: 125
@65574 Channel: 6 Note off, G4 key=67 velocity: 125
@65644 Channel: 6 Note on, G4 key=67 velocity: 112
@65695 Channel: 6 Note off, G4 key=67 velocity: 112
@65763 Channel: 6 Note on, G4 key=67 velocity: 110
@65813 Channel: 6 Note off, G4 key=67 velocity: 110
@65884 Channel: 6 Note on, G4 key=67 velocity: 104
@65931 Channel: 6 Note off, G4 key=67 velocity: 104
@66004 Channel: 6 Note on, G4 key=67 velocity: 108
@66051 Channel: 6 Note off, G4 key=67 velocity: 108
@66120 Channel: 6 Note on, G4 key=67 velocity: 110
@66173 Channel: 6 Note off, G4 key=67 velocity: 110
@66240 Channel: 6 Note on, D4 key=62 velocity: 120
@66280 Channel: 6 Note off, D4 key=62 velocity: 120
@66356 Channel: 6 Note on, D4 key=62 velocity: 102
@66407 Channel: 6 Note off, D4 key=62 velocity: 102
@66479 Channel: 6 Note on, D4 key=62 velocity: 106
@66518 Channel: 6 Note off, D4 key=62 velocity: 106
@66596 Channel: 6 Note on, D4 key=62 velocity: 104
@66641 Channel: 6 Note off, D4 key=62 velocity: 104
@66715 Channel: 6 Note on, D4 key=62 velocity: 108
@66758 Channel: 6 Note off, D4 key=62 velocity: 108
@66833 Channel: 6 Note on, D4 key=62 velocity: 104
@66879 Channel: 6 Note off, D4 key=62 velocity: 104
@66955 Channel: 6 Note on, D4 key=62 velocity: 110
@66998 Channel: 6 Note off, D4 key=62 velocity: 110
@67076 Channel: 6 Note on, D4 key=62 velocity: 106
@67120 Channel: 6 Note off, D4 key=62 velocity: 106
@67198 Channel: 6 Note on, D4 key=62 velocity: 110
@67240 Channel: 6 Note off, D4 key=62 velocity: 110
@67316 Channel: 6 Note on, D4 key=62 velocity: 108
@67361 Channel: 6 Note off, D4 key=62 velocity: 108
@67438 Channel: 6 Note on, D4 key=62 velocity: 106
@67475 Channel: 6 Note off, D4 key=62 velocity: 106
@67553 Channel: 6 Note on, D4 key=62 velocity: 102
@67598 Channel: 6 Note off, D4 key=62 velocity: 102
@67673 Channel: 6 Note on, G4 key=67 velocity: 110
@67726 Channel: 6 Note off, G4 key=67 velocity: 110
@67790 Channel: 6 Note on, G4 key=67 velocity: 100
@67845 Channel: 6 Note off, G4 key=67 velocity: 100
@67913 Channel: 6 Note on, G4 key=67 velocity: 97
@67967 Channel: 6 Note off, G4 key=67 velocity: 97
@68034 Channel: 6 Note on, G4 key=67 velocity: 98
@68083 Channel: 6 Note off, G4 key=67 velocity: 98
@68160 Channel: 6 Note on, G4 key=67 velocity: 104
@68194 Channel: 6 Note off, G4 key=67 velocity: 104
@68274 Channel: 6 Note on, G4 key=67 velocity: 100
@68323 Channel: 6 Note off, G4 key=67 velocity: 100
@68397 Channel: 6 Note on, G4 key=67 velocity: 98
@68446 Channel: 6 Note off, G4 key=67 velocity: 98
@68516 Channel: 6 Note on, G4 key=67 velocity: 98
@68566 Channel: 6 Note off, G4 key=67 velocity: 98
@68638 Channel: 6 Note on, G4 key=67 velocity: 104
@68690 Channel: 6 Note off, G4 key=67 velocity: 104
@68759 Channel: 6 Note on, G4 key=67 velocity: 94
@68811 Channel: 6 Note off, G4 key=67 velocity: 94
@68883 Channel: 6 Note on, G4 key=67 velocity: 102
@68930 Channel: 6 Note off, G4 key=67 velocity: 102
@69001 Channel: 6 Note on, G4 key=67 velocity: 102
@69063 Channel: 6 Note off, G4 key=67 velocity: 102
@69117 Channel: 6 Note on, D4 key=62 velocity: 108
@69165 Channel: 6 Note off, D4 key=62 velocity: 108
@69240 Channel: 6 Note on, D4 key=62 velocity: 97
@69289 Channel: 6 Note off, D4 key=62 velocity: 97
@69362 Channel: 6 Note on, D4 key=62 velocity: 100
@69405 Channel: 6 Note off, D4 key=62 velocity: 100
@69485 Channel: 6 Note on, D4 key=62 velocity: 95
@69523 Channel: 6 Note off, D4 key=62 velocity: 95
@69603 Channel: 6 Note on, D4 key=62 velocity: 108
@69651 Channel: 6 Note off, D4 key=62 velocity: 108
@69718 Channel: 6 Note on, D4 key=62 velocity: 94
@69765 Channel: 6 Note off, D4 key=62 velocity: 94
@69834 Channel: 6 Note on, D4 key=62 velocity: 108
@69881 Channel: 6 Note off, D4 key=62 velocity: 108
@69954 Channel: 6 Note on, D4 key=62 velocity: 106
@69999 Channel: 6 Note off, D4 key=62 velocity: 106
@70073 Channel: 6 Note on, D4 key=62 velocity: 106
@70126 Channel: 6 Note off, D4 key=62 velocity: 106
@70194 Channel: 6 Note on, D4 key=62 velocity: 104
@70245 Channel: 6 Note off, D4 key=62 velocity: 104
@70321 Channel: 6 Note on, D4 key=62 velocity: 106
@70366 Channel: 6 Note off, D4 key=62 velocity: 106
@70436 Channel: 6 Note on, D4 key=62 velocity: 102
@70486 Channel: 6 Note off, D4 key=62 velocity: 102
@70552 Channel: 6 Note on, G4 key=67 velocity: 104
@70609 Channel: 6 Note off, G4 key=67 velocity: 104
@70678 Channel: 6 Note on, G4 key=67 velocity: 108
@70736 Channel: 6 Note off, G4 key=67 velocity: 108
@70800 Channel: 6 Note on, G4 key=67 velocity: 104
@70856 Channel: 6 Note off, G4 key=67 velocity: 104
@70924 Channel: 6 Note on, G4 key=67 velocity: 108
@70989 Channel: 6 Note off, G4 key=67 velocity: 108
@71043 Channel: 6 Note on, G3 key=55 velocity: 120
@71086 Channel: 6 Note off, G3 key=55 velocity: 120
@71162 Channel: 6 Note on, G3 key=55 velocity: 120
@71213 Channel: 6 Note off, G3 key=55 velocity: 120
@71282 Channel: 6 Note on, G3 key=55 velocity: 106
@71329 Channel: 6 Note off, G3 key=55 velocity: 106
@71402 Channel: 6 Note on, G3 key=55 velocity: 112
@71453 Channel: 6 Note off, G3 key=55 velocity: 112
@71520 Channel: 6 Note on, G3 key=55 velocity: 104
@71575 Channel: 6 Note off, G3 key=55 velocity: 104
@71647 Channel: 6 Note on, G3 key=55 velocity: 108
@71699 Channel: 6 Note off, G3 key=55 velocity: 108
@71772 Channel: 6 Note on, G3 key=55 velocity: 108
@71821 Channel: 6 Note off, G3 key=55 velocity: 108
@71890 Channel: 6 Note on, G3 key=55 velocity: 120
@71951 Channel: 6 Note off, G3 key=55 velocity: 120
@72006 Channel: 6 Note on, D4 key=62 velocity: 112
@72065 Channel: 6 Note off, D4 key=62 velocity: 112
@72130 Channel: 6 Note on, D4 key=62 velocity: 104
@72188 Channel: 6 Note off, D4 key=62 velocity: 104
@72251 Channel: 6 Note on, D4 key=62 velocity: 97
@72305 Channel: 6 Note off, D4 key=62 velocity: 97
@72370 Channel: 6 Note on, D4 key=62 velocity: 100
@72419 Channel: 6 Note off, D4 key=62 velocity: 100
@72491 Channel: 6 Note on, D4 key=62 velocity: 106
@72542 Channel: 6 Note off, D4 key=62 velocity: 106
@72611 Channel: 6 Note on, D4 key=62 velocity: 95
@72660 Channel: 6 Note off, D4 key=62 velocity: 95
@72728 Channel: 6 Note on, D4 key=62 velocity: 97
@72776 Channel: 6 Note off, D4 key=62 velocity: 97
@72848 Channel: 6 Note on, D4 key=62 velocity: 100
@72899 Channel: 6 Note off, D4 key=62 velocity: 100
@72967 Channel: 6 Note on, D4 key=62 velocity: 100
@73019 Channel: 6 Note off, D4 key=62 velocity: 100
@73090 Channel: 6 Note on, D4 key=62 velocity: 98
@73140 Channel: 6 Note off, D4 key=62 velocity: 98
@73208 Channel: 6 Note on, D4 key=62 velocity: 92
@73257 Channel: 6 Note off, D4 key=62 velocity: 92
@73318 Channel: 6 Note on, D4 key=62 velocity: 83
@73381 Channel: 6 Note off, D4 key=62 velocity: 83
@73442 Channel: 6 Note on, A3 key=57 velocity: 112
@73493 Channel: 6 Note off, A3 key=57 velocity: 112
@73563 Channel: 6 Note on, A3 key=57 velocity: 100
@73613 Channel: 6 Note off, A3 key=57 velocity: 100
@73681 Channel: 6 Note on, A3 key=57 velocity: 92
@73729 Channel: 6 Note off, A3 key=57 velocity: 92
@73800 Channel: 6 Note on, A3 key=57 velocity: 97
@73840 Channel: 6 Note off, A3 key=57 velocity: 97
@73923 Channel: 6 Note on, A3 key=57 velocity: 108
@73964 Channel: 6 Note off, A3 key=57 velocity: 108
@74044 Channel: 6 Note on, A3 key=57 velocity: 91
@74087 Channel: 6 Note off, A3 key=57 velocity: 91
@74162 Channel: 6 Note on, A3 key=57 velocity: 92
@74208 Channel: 6 Note off, A3 key=57 velocity: 92
@74282 Channel: 6 Note on, A3 key=57 velocity: 88
@74323 Channel: 6 Note off, A3 key=57 velocity: 88
@74403 Channel: 6 Note on, A3 key=57 velocity: 102
@74448 Channel: 6 Note off, A3 key=57 velocity: 102
@74523 Channel: 6 Note on, A3 key=57 velocity: 92
@74570 Channel: 6 Note off, A3 key=57 velocity: 92
@74642 Channel: 6 Note on, A3 key=57 velocity: 94
@74685 Channel: 6 Note off, A3 key=57 velocity: 94
@74756 Channel: 6 Note on, A3 key=57 velocity: 104
@74818 Channel: 6 Note off, A3 key=57 velocity: 104
@74878 Channel: 6 Note on, D4 key=62 velocity: 110
@74929 Channel: 6 Note off, D4 key=62 velocity: 110
@74996 Channel: 6 Note on, D4 key=62 velocity: 97
@75051 Channel: 6 Note off, D4 key=62 velocity: 97
@75116 Channel: 6 Note on, D4 key=62 velocity: 104
@75167 Channel: 6 Note off, D4 key=62 velocity: 104
@75235 Channel: 6 Note on, D4 key=62 velocity: 98
@75286 Channel: 6 Note off, D4 key=62 velocity: 98
@75352 Channel: 6 Note on, D4 key=62 velocity: 108
@75402 Channel: 6 Note off, D4 key=62 velocity: 108
@75466 Channel: 6 Note on, D4 key=62 velocity: 94
@75519 Channel: 6 Note off, D4 key=62 velocity: 94
@75588 Channel: 6 Note on, D4 key=62 velocity: 98
@75642 Channel: 6 Note off, D4 key=62 velocity: 98
@75713 Channel: 6 Note on, D4 key=62 velocity: 97
@75762 Channel: 6 Note off, D4 key=62 velocity: 97
@75834 Channel: 6 Note on, D4 key=62 velocity: 100
@75885 Channel: 6 Note off, D4 key=62 velocity: 100
@75952 Channel: 6 Note on, D4 key=62 velocity: 100
@76005 Channel: 6 Note off, D4 key=62 velocity: 100
@76079 Channel: 6 Note on, D4 key=62 velocity: 106
@76136 Channel: 6 Note off, D4 key=62 velocity: 106
@76203 Channel: 6 Note on, D4 key=62 velocity: 104
@76262 Channel: 6 Note off, D4 key=62 velocity: 104
@76324 Channel: 6 Note on, G3 key=55 velocity: 110
@76375 Channel: 6 Note off, G3 key=55 velocity: 110
@76446 Channel: 6 Note on, G3 key=55 velocity: 100
@76495 Channel: 6 Note off, G3 key=55 velocity: 100
@76567 Channel: 6 Note on, G3 key=55 velocity: 104
@76614 Channel: 6 Note off, G3 key=55 velocity: 104
@76685 Channel: 6 Note on, G3 key=55 velocity: 106
@76730 Channel: 6 Note off, G3 key=55 velocity: 106
@76802 Channel: 6 Note on, G3 key=55 velocity: 120
@76850 Channel: 6 Note off, G3 key=55 velocity: 120
@76924 Channel: 6 Note on, G3 key=55 velocity: 106
@76970 Channel: 6 Note off, G3 key=55 velocity: 106
@77043 Channel: 6 Note on, G3 key=55 velocity: 102
@77091 Channel: 6 Note off, G3 key=55 velocity: 102
@77163 Channel: 6 Note on, G3 key=55 velocity: 95
@77210 Channel: 6 Note off, G3 key=55 velocity: 95
@77290 Channel: 6 Note on, G3 key=55 velocity: 110
@77335 Channel: 6 Note off, G3 key=55 velocity: 110
@77410 Channel: 6 Note on, G3 key=55 velocity: 102
@77460 Channel: 6 Note off, G3 key=55 velocity: 102
@77528 Channel: 6 Note on, G3 key=55 velocity: 104
@77573 Channel: 6 Note off, G3 key=55 velocity: 104
@77642 Channel: 6 Note on, G3 key=55 velocity: 112
@77703 Channel: 6 Note off, G3 key=55 velocity: 112
@77764 Channel: 6 Note on, D4 key=62 velocity: 117
@77820 Channel: 6 Note off, D4 key=62 velocity: 117
@77882 Channel: 6 Note on, D4 key=62 velocity: 94
@77942 Channel: 6 Note off, D4 key=62 velocity: 94
@78004 Channel: 6 Note on, D4 key=62 velocity: 106
@78059 Channel: 6 Note off, D4 key=62 velocity: 106
@78121 Channel: 6 Note on, D4 key=62 velocity: 106
@78191 Channel: 6 Note off, D4 key=62 velocity: 106
@78242 Channel: 6 Note on, D3 key=50 velocity: 114
@78294 Channel: 6 Note off, D3 key=50 velocity: 114
@78365 Channel: 6 Note on, D3 key=50 velocity: 117
@78420 Channel: 6 Note off, D3 key=50 velocity: 117
@78487 Channel: 6 Note on, D3 key=50 velocity: 106
@78537 Channel: 6 Note off, D3 key=50 velocity: 106
@78607 Channel: 6 Note on, D3 key=50 velocity: 104
@78660 Channel: 6 Note off, D3 key=50 velocity: 104
@78728 Channel: 6 Note on, D3 key=50 velocity: 106
@78780 Channel: 6 Note off, D3 key=50 velocity: 106
@78845 Channel: 6 Note on, D3 key=50 velocity: 106
@78897 Channel: 6 Note off, D3 key=50 velocity: 106
@78962 Channel: 6 Note on, D3 key=50 velocity: 102
@79009 Channel: 6 Note off, D3 key=50 velocity: 102
@79080 Channel: 6 Note on, D3 key=50 velocity: 110
@79138 Channel: 6 Note off, D3 key=50 velocity: 110
@79209 Channel: 6 Note on, G3 key=55 velocity: 108
@79255 Channel: 6 Note off, G3 key=55 velocity: 108
@79329 Channel: 6 Note on, G3 key=55 velocity: 98
@79378 Channel: 6 Note off, G3 key=55 velocity: 98
@79446 Channel: 6 Note on, G3 key=55 velocity: 98
@79491 Channel: 6 Note off, G3 key=55 velocity: 98
@79558 Channel: 6 Note on, G3 key=55 velocity: 104
@79613 Channel: 6 Note off, G3 key=55 velocity: 104
@79680 Channel: 6 Note on, G3 key=55 velocity: 98
@79727 Channel: 6 Note off, G3 key=55 velocity: 98
@79801 Channel: 6 Note on, G3 key=55 velocity: 100
@79859 Channel: 6 Note off, G3 key=55 velocity: 100
@79924 Channel: 6 Note on, G3 key=55 velocity: 100
@79979 Channel: 6 Note off, G3 key=55 velocity: 100
@80050 Channel: 6 Note on, G3 key=55 velocity: 98
@80096 Channel: 6 Note off, G3 key=55 velocity: 98
@80169 Channel: 6 Note on, G3 key=55 velocity: 102
@80222 Channel: 6 Note off, G3 key=55 velocity: 102
@80292 Channel: 6 Note on, G3 key=55 velocity: 95
@80344 Channel: 6 Note off, G3 key=55 velocity: 95
@80413 Channel: 6 Note on, G3 key=55 velocity: 102
@80457 Channel: 6 Note off, G3 key=55 velocity: 102
@80529 Channel: 6 Note on, G3 key=55 velocity: 106
@80589 Channel: 6 Note off, G3 key=55 velocity: 106
@80647 Channel: 6 Note on, D4 key=62 velocity: 117
@80698 Channel: 6 Note off, D4 key=62 velocity: 117
@80771 Channel: 6 Note on, D4 key=62 velocity: 102
@80825 Channel: 6 Note off, D4 key=62 velocity: 102
@80893 Channel: 6 Note on, D4 key=62 velocity: 102
@80945 Channel: 6 Note off, D4 key=62 velocity: 102
@81009 Channel: 6 Note on, D4 key=62 velocity: 104
@81058 Channel: 6 Note off, D4 key=62 velocity: 104
@81126 Channel: 6 Note on, D4 key=62 velocity: 98
@81175 Channel: 6 Note off, D4 key=62 velocity: 98
@81239 Channel: 6 Note on, D4 key=62 velocity: 92
@81289 Channel: 6 Note off, D4 key=62 velocity: 92
@81357 Channel: 6 Note on, D4 key=62 velocity: 100
@81407 Channel: 6 Note off, D4 key=62 velocity: 100
@81474 Channel: 6 Note on, D4 key=62 velocity: 97
@81521 Channel: 6 Note off, D4 key=62 velocity: 97
@81591 Channel: 6 Note on, D4 key=62 velocity: 104
@81644 Channel: 6 Note off, D4 key=62 velocity: 104
@81711 Channel: 6 Note on, D4 key=62 velocity: 100
@81765 Channel: 6 Note off, D4 key=62 velocity: 100
@81834 Channel: 6 Note on, D4 key=62 velocity: 104
@81897 Channel: 6 Note off, D4 key=62 velocity: 104
@81965 Channel: 6 Note on, D4 key=62 velocity: 104
@82028 Channel: 6 Note off, D4 key=62 velocity: 104
@82084 Channel: 6 Note on, G3 key=55 velocity: 112
@82138 Channel: 6 Note off, G3 key=55 velocity: 112
@82206 Channel: 6 Note on, G3 key=55 velocity: 106
@82256 Channel: 6 Note off, G3 key=55 velocity: 106
@82326 Channel: 6 Note on, G3 key=55 velocity: 100
@82376 Channel: 6 Note off, G3 key=55 velocity: 100
@82446 Channel: 6 Note on, G3 key=55 velocity: 108
@82492 Channel: 6 Note off, G3 key=55 velocity: 108
@82564 Channel: 6 Note on, G3 key=55 velocity: 108
@82612 Channel: 6 Note off, G3 key=55 velocity: 108
@82683 Channel: 6 Note on, G3 key=55 velocity: 98
@82729 Channel: 6 Note off, G3 key=55 velocity: 98
@82802 Channel: 6 Note on, G3 key=55 velocity: 100
@82849 Channel: 6 Note off, G3 key=55 velocity: 100
@82921 Channel: 6 Note on, G3 key=55 velocity: 106
@82968 Channel: 6 Note off, G3 key=55 velocity: 106
@83040 Channel: 6 Note on, G3 key=55 velocity: 108
@83092 Channel: 6 Note off, G3 key=55 velocity: 108
@83163 Channel: 6 Note on, G3 key=55 velocity: 104
@83212 Channel: 6 Note off, G3 key=55 velocity: 104
@83286 Channel: 6 Note on, G3 key=55 velocity: 104
@83334 Channel: 6 Note off, G3 key=55 velocity: 104
@83406 Channel: 6 Note on, G3 key=55 velocity: 104
@83452 Channel: 6 Note off, G3 key=55 velocity: 104
@83522 Channel: 6 Note on, A3 key=57 velocity: 122
@83575 Channel: 6 Note off, A3 key=57 velocity: 122
@83642 Channel: 6 Note on, A3 key=57 velocity: 97
@83695 Channel: 6 Note off, A3 key=57 velocity: 97
@83764 Channel: 6 Note on, A3 key=57 velocity: 108
@83811 Channel: 6 Note off, A3 key=57 velocity: 108
@83884 Channel: 6 Note on, A3 key=57 velocity: 106
@83931 Channel: 6 Note off, A3 key=57 velocity: 106
@84004 Channel: 6 Note on, A3 key=57 velocity: 112
@84048 Channel: 6 Note off, A3 key=57 velocity: 112
@84123 Channel: 6 Note on, A3 key=57 velocity: 110
@84168 Channel: 6 Note off, A3 key=57 velocity: 110
@84243 Channel: 6 Note on, A3 key=57 velocity: 108
@84292 Channel: 6 Note off, A3 key=57 velocity: 108
@84367 Channel: 6 Note on, A3 key=57 velocity: 106
@84416 Channel: 6 Note off, A3 key=57 velocity: 106
@84486 Channel: 6 Note on, A3 key=57 velocity: 106
@84537 Channel: 6 Note off, A3 key=57 velocity: 106
@84606 Channel: 6 Note on, A3 key=57 velocity: 97
@84653 Channel: 6 Note off, A3 key=57 velocity: 97
@84731 Channel: 6 Note on, A3 key=57 velocity: 108
@84778 Channel: 6 Note off, A3 key=57 velocity: 108
@84850 Channel: 6 Note on, A3 key=57 velocity: 94
@84900 Channel: 6 Note off, A3 key=57 velocity: 94
@84968 Channel: 6 Note on, A3 key=57 velocity: 98
@85016 Channel: 6 Note off, A3 key=57 velocity: 98
@85088 Channel: 6 Note on, A3 key=57 velocity: 87
@85139 Channel: 6 Note off, A3 key=57 velocity: 87
@85208 Channel: 6 Note on, A3 key=57 velocity: 81
@85267 Channel: 6 Note off, A3 key=57 velocity: 81
@85329 Channel: 6 Note on, A3 key=57 velocity: 71
@85384 Channel: 6 Note off, A3 key=57 velocity: 71
@85450 Channel: 6 Note on, A3 key=57 velocity: 70
@85508 Channel: 6 Note off, A3 key=57 velocity: 70
@85568 Channel: 6 Note on, A3 key=57 velocity: 66
@85624 Channel: 6 Note off, A3 key=57 velocity: 66
@85690 Channel: 6 Note on, A3 key=57 velocity: 64
@85744 Channel: 6 Note off, A3 key=57 velocity: 64
@85810 Channel: 6 Note on, A3 key=57 velocity: 65
@85857 Channel: 6 Note off, A3 key=57 velocity: 65
@85927 Channel: 6 Note on, A3 key=57 velocity: 62
@85971 Channel: 6 Note off, A3 key=57 velocity: 62
@86042 Channel: 6 Note on, A3 key=57 velocity: 64
@86072 Channel: 6 Note off, A3 key=57 velocity: 64
@108000 Channel: 6 Command:176
@108008 Channel: 6 Note on, A3 key=57 velocity: 127
@108485 Channel: 6 Note on, E4 key=64 velocity: 126
@109447 Channel: 6 Note on, A4 key=69 velocity: 116
@110868 Channel: 6 Note off, E4 key=64 velocity: 126
@110869 Channel: 6 Note off, A4 key=69 velocity: 116
@110879 Channel: 6 Note off, A3 key=57 velocity: 127
@110896 Channel: 6 Note on, D4 key=62 velocity: 125
@110936 Channel: 6 Note off, D4 key=62 velocity: 125
@111016 Channel: 6 Note on, D4 key=62 velocity: 112
@111060 Channel: 6 Note off, D4 key=62 velocity: 112
@111137 Channel: 6 Note on, D4 key=62 velocity: 106
@111183 Channel: 6 Note off, D4 key=62 velocity: 106
@111259 Channel: 6 Note on, D4 key=62 velocity: 102
@111299 Channel: 6 Note off, D4 key=62 velocity: 102
@111374 Channel: 6 Note on, D4 key=62 velocity: 114
@111426 Channel: 6 Note off, D4 key=62 velocity: 114
@111488 Channel: 6 Note on, D4 key=62 velocity: 104
@111540 Channel: 6 Note off, D4 key=62 velocity: 104
@111604 Channel: 6 Note on, D4 key=62 velocity: 110
@111653 Channel: 6 Note off, D4 key=62 velocity: 110
@111724 Channel: 6 Note on, D4 key=62 velocity: 108
@111772 Channel: 6 Note off, D4 key=62 velocity: 108
@111840 Channel: 6 Note on, D4 key=62 velocity: 112
@111891 Channel: 6 Note off, D4 key=62 velocity: 112
@111958 Channel: 6 Note on, D4 key=62 velocity: 106
@112009 Channel: 6 Note off, D4 key=62 velocity: 106
@112081 Channel: 6 Note on, D4 key=62 velocity: 114
@112122 Channel: 6 Note off, D4 key=62 velocity: 114
@112196 Channel: 6 Note on, D4 key=62 velocity: 120
@112254 Channel: 6 Note off, D4 key=62 velocity: 120
@112323 Channel: 6 Note on, G4 key=67 velocity: 122
@112377 Channel: 6 Note off, G4 key=67 velocity: 122
@112447 Channel: 6 Note on, G4 key=67 velocity: 106
@112504 Channel: 6 Note off, G4 key=67 velocity: 106
@112564 Channel: 6 Note on, G4 key=67 velocity: 94
@112618 Channel: 6 Note off, G4 key=67 velocity: 94
@112682 Channel: 6 Note on, G4 key=67 velocity: 102
@112730 Channel: 6 Note off, G4 key=67 velocity: 102
@112802 Channel: 6 Note on, G4 key=67 velocity: 122
@112850 Channel: 6 Note off, G4 key=67 velocity: 122
@112920 Channel: 6 Note on, G4 key=67 velocity: 102
@112967 Channel: 6 Note off, G4 key=67 velocity: 102
@113045 Channel: 6 Note on, G4 key=67 velocity: 125
@113094 Channel: 6 Note off, G4 key=67 velocity: 125
@113164 Channel: 6 Note on, G4 key=67 velocity: 112
@113215 Channel: 6 Note off, G4 key=67 velocity: 112
@113283 Channel: 6 Note on, G4 key=67 velocity: 110
@113333 Channel: 6 Note off, G4 key=67 velocity: 110
@113404 Channel: 6 Note on, G4 key=67 velocity: 104
@113451 Channel: 6 Note off, G4 key=67 velocity: 104
@113524 Channel: 6 Note on, G4 key=67 velocity: 108
@113571 Channel: 6 Note off, G4 key=67 velocity: 108
@113640 Channel: 6 Note on, G4 key=67 velocity: 110
@113693 Channel: 6 Note off, G4 key=67 velocity: 110
@113760 Channel: 6 Note on, D4 key=62 velocity: 120
@113800 Channel: 6 Note off, D4 key=62 velocity: 120
@113876 Channel: 6 Note on, D4 key=62 velocity: 102
@113927 Channel: 6 Note off, D4 key=62 velocity: 102
@113999 Channel: 6 Note on, D4 key=62 velocity: 106
@114038 Channel: 6 Note off, D4 key=62 velocity: 106
@114116 Channel: 6 Note on, D4 key=62 velocity: 104
@114161 Channel: 6 Note off, D4 key=62 velocity: 104
@114235 Channel: 6 Note on, D4 key=62 velocity: 108
@114278 Channel: 6 Note off, D4 key=62 velocity: 108
@114353 Channel: 6 Note on, D4 key=62 velocity: 104
@114399 Channel: 6 Note off, D4 key=62 velocity: 104
@114475 Channel: 6 Note on, D4 key=62 velocity: 110
@114518 Channel: 6 Note off, D4 key=62 velocity: 110
@114596 Channel: 6 Note on, D4 key=62 velocity: 106
@114640 Channel: 6 Note off, D4 key=62 velocity: 106
@114718 Channel: 6 Note on, D4 key=62 velocity: 110
@114760 Channel: 6 Note off, D4 key=62 velocity: 110
@114836 Channel: 6 Note on, D4 key=62 velocity: 108
@114881 Channel: 6 Note off, D4 key=62 velocity: 108
@114958 Channel: 6 Note on, D4 key=62 velocity: 106
@114995 Channel: 6 Note off, D4 key=62 velocity: 106
@115073 Channel: 6 Note on, D4 key=62 velocity: 102
@115118 Channel: 6 Note off, D4 key=62 velocity: 102
@115193 Channel: 6 Note on, G4 key=67 velocity: 110
@115246 Channel: 6 Note off, G4 key=67 velocity: 110
@115310 Channel: 6 Note on, G4 key=67 velocity: 100
@115365 Channel: 6 Note off, G4 key=67 velocity: 100
@115433 Channel: 6 Note on, G4 key=67 velocity: 97
@115487 Channel: 6 Note off, G4 key=67 velocity: 97
@115554 Channel: 6 Note on, G4 key=67 velocity: 98
@115603 Channel: 6 Note off, G4 key=67 velocity: 98
@115680 Channel: 6 Note on, G4 key=67 velocity: 104
@115714 Channel: 6 Note off, G4 key=67 velocity: 104
@115794 Channel: 6 Note on, G4 key=67 velocity: 100
@115843 Channel: 6 Note off, G4 key=67 velocity: 100
@115917 Channel: 6 Note on, G4 key=67 velocity: 98
@115966 Channel: 6 Note off, G4 key=67 velocity: 98
@116036 Channel: 6 Note on, G4 key=67 velocity: 98
@116086 Channel: 6 Note off, G4 key=67 velocity: 98
@116158 Channel: 6 Note on, G4 key=67 velocity: 104
@116210 Channel: 6 Note off, G4 key=67 velocity: 104
@116279 Channel: 6 Note on, G4 key=67 velocity: 94
@116331 Channel: 6 Note off, G4 key=67 velocity: 94
@116403 Channel: 6 Note on, G4 key=67 velocity: 102
@116450 Channel: 6 Note off, G4 key=67 velocity: 102
@116521 Channel: 6 Note on, G4 key=67 velocity: 102
@116583 Channel: 6 Note off, G4 key=67 velocity: 102
@116637 Channel: 6 Note on, D4 key=62 velocity: 108
@116685 Channel: 6 Note off, D4 key=62 velocity: 108
@116760 Channel: 6 Note on, D4 key=62 velocity: 97
@116809 Channel: 6 Note off, D4 key=62 velocity: 97
@116882 Channel: 6 Note on, D4 key=62 velocity: 100
@116925 Channel: 6 Note off, D4 key=62 velocity: 100
@117005 Channel: 6 Note on, D4 key=62 velocity: 95
@117043 Channel: 6 Note off, D4 key=62 velocity: 95
@117123 Channel: 6 Note on, D4 key=62 velocity: 108
@117171 Channel: 6 Note off, D4 key=62 velocity: 108
@117238 Channel: 6 Note on, D4 key=62 velocity: 94
@117285 Channel: 6 Note off, D4 key=62 velocity: 94
@117354 Channel: 6 Note on, D4 key=62 velocity: 108
@117401 Channel: 6 Note off, D4 key=62 velocity: 108
@117474 Channel: 6 Note on, D4 key=62 velocity: 106
@117519 Channel: 6 Note off, D4 key=62 velocity: 106
@117593 Channel: 6 Note on, D4 key=62 velocity: 106
@117646 Channel: 6 Note off, D4 key=62 velocity: 106
@117714 Channel: 6 Note on, D4 key=62 velocity: 104
@117765 Channel: 6 Note off, D4 key=62 velocity: 104
@117841 Channel: 6 Note on, D4 key=62 velocity: 106
@117886 Channel: 6 Note off, D4 key=62 velocity: 106
@117956 Channel: 6 Note on, D4 key=62 velocity: 102
@118006 Channel: 6 Note off, D4 key=62 velocity: 102
@118072 Channel: 6 Note on, G4 key=67 velocity: 104
@118129 Channel: 6 Note off, G4 key=67 velocity: 104
@118198 Channel: 6 Note on, G4 key=67 velocity: 108
@118256 Channel: 6 Note off, G4 key=67 velocity: 108
@118320 Channel: 6 Note on, G4 key=67 velocity: 104
@118376 Channel: 6 Note off, G4 key=67 velocity: 104
@118444 Channel: 6 Note on, G4 key=67 velocity: 108
@118509 Channel: 6 Note off, G4 key=67 velocity: 108
@118563 Channel: 6 Note on, G3 key=55 velocity: 120
@118606 Channel: 6 Note off, G3 key=55 velocity: 120
@118682 Channel: 6 Note on, G3 key=55 velocity: 120
@118733 Channel: 6 Note off, G3 key=55 velocity: 120
@118802 Channel: 6 Note on, G3 key=55 velocity: 106
@118849 Channel: 6 Note off, G3 key=55 velocity: 106
@118922 Channel: 6 Note on, G3 key=55 velocity: 112
@118973 Channel: 6 Note off, G3 key=55 velocity: 112
@119040 Channel: 6 Note on, G3 key=55 velocity: 104
@119095 Channel: 6 Note off, G3 key=55 velocity: 104
@119167 Channel: 6 Note on, G3 key=55 velocity: 108
@119219 Channel: 6 Note off, G3 key=55 velocity: 108
@119292 Channel: 6 Note on, G3 key=55 velocity: 108
@119341 Channel: 6 Note off, G3 key=55 velocity: 108
@119410 Channel: 6 Note on, G3 key=55 velocity: 120
@119471 Channel: 6 Note off, G3 key=55 velocity: 120
@119526 Channel: 6 Note on, D4 key=62 velocity: 112
@119585 Channel: 6 Note off, D4 key=62 velocity: 112
@119650 Channel: 6 Note on, D4 key=62 velocity: 104
@119708 Channel: 6 Note off, D4 key=62 velocity: 104
@119771 Channel: 6 Note on, D4 key=62 velocity: 97
@119825 Channel: 6 Note off, D4 key=62 velocity: 97
@119890 Channel: 6 Note on, D4 key=62 velocity: 100
@119939 Channel: 6 Note off, D4 key=62 velocity: 100
@120011 Channel: 6 Note on, D4 key=62 velocity: 106
@120062 Channel: 6 Note off, D4 key=62 velocity: 106
@120131 Channel: 6 Note on, D4 key=62 velocity: 95
@120180 Channel: 6 Note off, D4 key=62 velocity: 95
@120248 Channel: 6 Note on, D4 key=62 velocity: 97
@120296 Channel: 6 Note off, D4 key=62 velocity: 97
@120368 Channel: 6 Note on, D4 key=62 velocity: 100
@120419 Channel: 6 Note off, D4 key=62 velocity: 100
@120487 Channel: 6 Note on, D4 key=62 velocity: 100
@120539 Channel: 6 Note off, D4 key=62 velocity: 100
@120610 Channel: 6 Note on, D4 key=62 velocity: 98
@120660 Channel: 6 Note off, D4 key=62 velocity: 98
@120728 Channel: 6 Note on, D4 key=62 velocity: 92
@120777 Channel: 6 Note off, D4 key=62 velocity: 92
@120838 Channel: 6 Note on, D4 key=62 velocity: 83
@120901 Channel: 6 Note off, D4 key=62 velocity: 83
@120962 Channel: 6 Note on, A3 key=57 velocity: 112
@121013 Channel: 6 Note off, A3 key=57 velocity: 112
@121083 Channel: 6 Note on, A3 key=57 velocity: 100
@121133 Channel: 6 Note off, A3 key=57 velocity: 100
@121201 Channel: 6 Note on, A3 key=57 velocity: 92
@121249 Channel: 6 Note off, A3 key=57 velocity: 92
@121320 Channel: 6 Note on, A3 key=57 velocity: 97
@121360 Channel: 6 Note off, A3 key=57 velocity: 97
@121443 Channel: 6 Note on, A3 key=57 velocity: 108
@121484 Channel: 6 Note off, A3 key=57 velocity: 108
@121564 Channel: 6 Note on, A3 key=57 velocity: 91
@121607 Channel: 6 Note off, A3 key=57 velocity: 91
@121682 Channel: 6 Note on, A3 key=57 velocity: 92
@121728 Channel: 6 Note off, A3 key=57 velocity: 92
@121802 Channel: 6 Note on, A3 key=57 velocity: 88
@121843 Channel: 6 Note off, A3 key=57 velocity: 88
@121923 Channel: 6 Note on, A3 key=57 velocity: 102
@121968 Channel: 6 Note off, A3 key=57 velocity: 102
@122043 Channel: 6 Note on, A3 key=57 velocity: 92
@122090 Channel: 6 Note off, A3 key=57 velocity: 92
@122162 Channel: 6 Note on, A3 key=57 velocity: 94
@122205 Channel: 6 Note off, A3 key=57 velocity: 94
@122276 Channel: 6 Note on, A3 key=57 velocity: 104
@122338 Channel: 6 Note off, A3 key=57 velocity: 104
@122398 Channel: 6 Note on, D4 key=62 velocity: 110
@122449 Channel: 6 Note off, D4 key=62 velocity: 110
@122516 Channel: 6 Note on, D4 key=62 velocity: 97
@122571 Channel: 6 Note off, D4 key=62 velocity: 97
@122636 Channel: 6 Note on, D4 key=62 velocity: 104
@122687 Channel: 6 Note off, D4 key=62 velocity: 104
@122755 Channel: 6 Note on, D4 key=62 velocity: 98
@122806 Channel: 6 Note off, D4 key=62 velocity: 98
@122872 Channel: 6 Note on, D4 key=62 velocity: 108
@122922 Channel: 6 Note off, D4 key=62 velocity: 108
@122986 Channel: 6 Note on, D4 key=62 velocity: 94
@123039 Channel: 6 Note off, D4 key=62 velocity: 94
@123108 Channel: 6 Note on, D4 key=62 velocity: 98
@123162 Channel: 6 Note off, D4 key=62 velocity: 98
@123233 Channel: 6 Note on, D4 key=62 velocity: 97
@123282 Channel: 6 Note off, D4 key=62 velocity: 97
@123354 Channel: 6 Note on, D4 key=62 velocity: 100
@123405 Channel: 6 Note off, D4 key=62 velocity: 100
@123472 Channel: 6 Note on, D4 key=62 velocity: 100
@123525 Channel: 6 Note off, D4 key=62 velocity: 100
@123599 Channel: 6 Note on, D4 key=62 velocity: 106
@123656 Channel: 6 Note off, D4 key=62 velocity: 106
@123723 Channel: 6 Note on, D4 key=62 velocity: 104
@123782 Channel: 6 Note off, D4 key=62 velocity: 104
@123844 Channel: 6 Note on, G3 key=55 velocity: 110
@123895 Channel: 6 Note off, G3 key=55 velocity: 110
@123966 Channel: 6 Note on, G3 key=55 velocity: 100
@124015 Channel: 6 Note off, G3 key=55 velocity: 100
@124087 Channel: 6 Note on, G3 key=55 velocity: 104
@124134 Channel: 6 Note off, G3 key=55 velocity: 104
@124205 Channel: 6 Note on, G3 key=55 velocity: 106
@124250 Channel: 6 Note off, G3 key=55 velocity: 106
@124322 Channel: 6 Note on, G3 key=55 velocity: 120
@124370 Channel: 6 Note off, G3 key=55 velocity: 120
@124444 Channel: 6 Note on, G3 key=55 velocity: 106
@124490 Channel: 6 Note off, G3 key=55 velocity: 106
@124563 Channel: 6 Note on, G3 key=55 velocity: 102
@124611 Channel: 6 Note off, G3 key=55 velocity: 102
@124683 Channel: 6 Note on, G3 key=55 velocity: 95
@124730 Channel: 6 Note off, G3 key=55 velocity: 95
@124810 Channel: 6 Note on, G3 key=55 velocity: 110
@124855 Channel: 6 Note off, G3 key=55 velocity: 110
@124930 Channel: 6 Note on, G3 key=55 velocity: 102
@124980 Channel: 6 Note off, G3 key=55 velocity: 102
@125048 Channel: 6 Note on, G3 key=55 velocity: 104
@125093 Channel: 6 Note off, G3 key=55 velocity: 104
@125162 Channel: 6 Note on, G3 key=55 velocity: 112
@125223 Channel: 6 Note off, G3 key=55 velocity: 112
@125284 Channel: 6 Note on, D4 key=62 velocity: 117
@125340 Channel: 6 Note off, D4 key=62 velocity: 117
@125402 Channel: 6 Note on, D4 key=62 velocity: 94
@125462 Channel: 6 Note off, D4 key=62 velocity: 94
@125524 Channel: 6 Note on, D4 key=62 velocity: 106
@125579 Channel: 6 Note off, D4 key=62 velocity: 106
@125641 Channel: 6 Note on, D4 key=62 velocity: 106
@125711 Channel: 6 Note off, D4 key=62 velocity: 106
@125762 Channel: 6 Note on, D3 key=50 velocity: 114
@125814 Channel: 6 Note off, D3 key=50 velocity: 114
@125885 Channel: 6 Note on, D3 key=50 velocity: 117
@125940 Channel: 6 Note off, D3 key=50 velocity: 117
@126007 Channel: 6 Note on, D3 key=50 velocity: 106
@126057 Channel: 6 Note off, D3 key=50 velocity: 106
@126127 Channel: 6 Note on, D3 key=50 velocity: 104
@126180 Channel: 6 Note off, D3 key=50 velocity: 104
@126248 Channel: 6 Note on, D3 key=50 velocity: 106
@126300 Channel: 6 Note off, D3 key=50 velocity: 106
@126365 Channel: 6 Note on, D3 key=50 velocity: 106
@126417 Channel: 6 Note off, D3 key=50 velocity: 106
@126482 Channel: 6 Note on, D3 key=50 velocity: 102
@126529 Channel: 6 Note off, D3 key=50 velocity: 102
@126600 Channel: 6 Note on, D3 key=50 velocity: 110
@126658 Channel: 6 Note off, D3 key=50 velocity: 110
@126729 Channel: 6 Note on, G3 key=55 velocity: 108
@126775 Channel: 6 Note off, G3 key=55 velocity: 108
@126849 Channel: 6 Note on, G3 key=55 velocity: 98
@126898 Channel: 6 Note off, G3 key=55 velocity: 98
@126966 Channel: 6 Note on, G3 key=55 velocity: 98
@127011 Channel: 6 Note off, G3 key=55 velocity: 98
@127078 Channel: 6 Note on, G3 key=55 velocity: 104
@127133 Channel: 6 Note off, G3 key=55 velocity: 104
@127200 Channel: 6 Note on, G3 key=55 velocity: 98
@127247 Channel: 6 Note off, G3 key=55 velocity: 98
@127321 Channel: 6 Note on, G3 key=55 velocity: 100
@127379 Channel: 6 Note off, G3 key=55 velocity: 100
@127444 Channel: 6 Note on, G3 key=55 velocity: 100
@127499 Channel: 6 Note off, G3 key=55 velocity: 100
@127570 Channel: 6 Note on, G3 key=55 velocity: 98
@127616 Channel: 6 Note off, G3 key=55 velocity: 98
@127689 Channel: 6 Note on, G3 key=55 velocity: 102
@127742 Channel: 6 Note off, G3 key=55 velocity: 102
@127812 Channel: 6 Note on, G3 key=55 velocity: 95
@127864 Channel: 6 Note off, G3 key=55 velocity: 95
@127933 Channel: 6 Note on, G3 key=55 velocity: 102
@127977 Channel: 6 Note off, G3 key=55 velocity: 102
@128049 Channel: 6 Note on, G3 key=55 velocity: 106
@128109 Channel: 6 Note off, G3 key=55 velocity: 106
@128167 Channel: 6 Note on, D4 key=62 velocity: 117
@128218 Channel: 6 Note off, D4 key=62 velocity: 117
@128291 Channel: 6 Note on, D4 key=62 velocity: 102
@128345 Channel: 6 Note off, D4 key=62 velocity: 102
@128413 Channel: 6 Note on, D4 key=62 velocity: 102
@128465 Channel: 6 Note off, D4 key=62 velocity: 102
@128529 Channel: 6 Note on, D4 key=62 velocity: 104
@128578 Channel: 6 Note off, D4 key=62 velocity: 104
@128646 Channel: 6 Note on, D4 key=62 velocity: 98
@128695 Channel: 6 Note off, D4 key=62 velocity: 98
@128759 Channel: 6 Note on, D4 key=62 velocity: 92
@128809 Channel: 6 Note off, D4 key=62 velocity: 92
@128877 Channel: 6 Note on, D4 key=62 velocity: 100
@128927 Channel: 6 Note off, D4 key=62 velocity: 100
@128994 Channel: 6 Note on, D4 key=62 velocity: 97
@129041 Channel: 6 Note off, D4 key=62 velocity: 97
@129111 Channel: 6 Note on, D4 key=62 velocity: 104
@129164 Channel: 6 Note off, D4 key=62 velocity: 104
@129231 Channel: 6 Note on, D4 key=62 velocity: 100
@129285 Channel: 6 Note off, D4 key=62 velocity: 100
@129354 Channel: 6 Note on, D4 key=62 velocity: 104
@129417 Channel: 6 Note off, D4 key=62 velocity: 104
@129485 Channel: 6 Note on, D4 key=62 velocity: 104
@129548 Channel: 6 Note off, D4 key=62 velocity: 104
@129604 Channel: 6 Note on, G3 key=55 velocity: 112
@129658 Channel: 6 Note off, G3 key=55 velocity: 112
@129726 Channel: 6 Note on, G3 key=55 velocity: 106
@129776 Channel: 6 Note off, G3 key=55 velocity: 106
@129846 Channel: 6 Note on, G3 key=55 velocity: 100
@129896 Channel: 6 Note off, G3 key=55 velocity: 100
@129966 Channel: 6 Note on, G3 key=55 velocity: 108
@130012 Channel: 6 Note off, G3 key=55 velocity: 108
@130084 Channel: 6 Note on, G3 key=55 velocity: 108
@130132 Channel: 6 Note off, G3 key=55 velocity: 108
@130203 Channel: 6 Note on, G3 key=55 velocity: 98
@130249 Channel: 6 Note off, G3 key=55 velocity: 98
@130322 Channel: 6 Note on, G3 key=55 velocity: 100
@130369 Channel: 6 Note off, G3 key=55 velocity: 100
@130441 Channel: 6 Note on, G3 key=55 velocity: 106
@130488 Channel: 6 Note off, G3 key=55 velocity: 106
@130560 Channel: 6 Note on, G3 key=55 velocity: 108
@130612 Channel: 6 Note off, G3 key=55 velocity: 108
@130683 Channel: 6 Note on, G3 key=55 velocity: 104
@130732 Channel: 6 Note off, G3 key=55 velocity: 104
@130806 Channel: 6 Note on, G3 key=55 velocity: 104
@130854 Channel: 6 Note off, G3 key=55 velocity: 104
@130926 Channel: 6 Note on, G3 key=55 velocity: 104
@130972 Channel: 6 Note off, G3 key=55 velocity: 104
@131042 Channel: 6 Note on, A3 key=57 velocity: 122
@131095 Channel: 6 Note off, A3 key=57 velocity: 122
@131162 Channel: 6 Note on, A3 key=57 velocity: 97
@131215 Channel: 6 Note off, A3 key=57 velocity: 97
@131284 Channel: 6 Note on, A3 key=57 velocity: 108
@131331 Channel: 6 Note off, A3 key=57 velocity: 108
@131404 Channel: 6 Note on, A3 key=57 velocity: 106
@131451 Channel: 6 Note off, A3 key=57 velocity: 106
@131524 Channel: 6 Note on, A3 key=57 velocity: 112
@131568 Channel: 6 Note off, A3 key=57 velocity: 112
@131643 Channel: 6 Note on, A3 key=57 velocity: 110
@131688 Channel: 6 Note off, A3 key=57 velocity: 110
@131763 Channel: 6 Note on, A3 key=57 velocity: 108
@131812 Channel: 6 Note off, A3 key=57 velocity: 108
@131887 Channel: 6 Note on, A3 key=57 velocity: 106
@131936 Channel: 6 Note off, A3 key=57 velocity: 106
@132006 Channel: 6 Note on, A3 key=57 velocity: 106
@132057 Channel: 6 Note off, A3 key=57 velocity: 106
@132126 Channel: 6 Note on, A3 key=57 velocity: 97
@132173 Channel: 6 Note off, A3 key=57 velocity: 97
@132251 Channel: 6 Note on, A3 key=57 velocity: 108
@132298 Channel: 6 Note off, A3 key=57 velocity: 108
@132370 Channel: 6 Note on, A3 key=57 velocity: 94
@132420 Channel: 6 Note off, A3 key=57 velocity: 94
@132488 Channel: 6 Note on, A3 key=57 velocity: 98
@132536 Channel: 6 Note off, A3 key=57 velocity: 98
@132608 Channel: 6 Note on, A3 key=57 velocity: 87
@132659 Channel: 6 Note off, A3 key=57 velocity: 87
@132728 Channel: 6 Note on, A3 key=57 velocity: 81
@132787 Channel: 6 Note off, A3 key=57 velocity: 81
@132849 Channel: 6 Note on, A3 key=57 velocity: 71
@132904 Channel: 6 Note off, A3 key=57 velocity: 71
@132970 Channel: 6 Note on, A3 key=57 velocity: 70
@133028 Channel: 6 Note off, A3 key=57 velocity: 70
@133088 Channel: 6 Note on, A3 key=57 velocity: 66
@133144 Channel: 6 Note off, A3 key=57 velocity: 66
@133210 Channel: 6 Note on, A3 key=57 velocity: 64
@133264 Channel: 6 Note off, A3 key=57 velocity: 64
@133330 Channel: 6 Note on, A3 key=57 velocity: 65
@133377 Channel: 6 Note off, A3 key=57 velocity: 65
@133447 Channel: 6 Note on, A3 key=57 velocity: 62
@133491 Channel: 6 Note off, A3 key=57 velocity: 62
@133562 Channel: 6 Note on, A3 key=57 velocity: 64
@133592 Channel: 6 Note off, A3 key=57 velocity: 64
@161424 Channel: 6 Command:176
@161477 Channel: 6 Command:176
@161523 Channel: 6 Note on, E3 key=52 velocity: 99
@161533 Channel: 6 Command:176
@161569 Channel: 6 Command:176
@161613 Channel: 6 Command:176
@161658 Channel: 6 Command:176
@161712 Channel: 6 Command:176
@161759 Channel: 6 Note on, A3 key=57 velocity: 108
@161809 Channel: 6 Command:176
@162718 Channel: 6 Note off, E3 key=52 velocity: 99
@164162 Channel: 6 Note on, F#3 key=54 velocity: 107
@164627 Channel: 6 Note off, A3 key=57 velocity: 108
@164639 Channel: 6 Note on, A3 key=57 velocity: 85
@165146 Channel: 6 Command:176
@165485 Channel: 6 Command:176
@165581 Channel: 6 Note on, F#4 key=66 velocity: 79
@166025 Channel: 6 Command:176
@166327 Channel: 6 Command:176
@166464 Channel: 6 Command:176
@166557 Channel: 6 Command:176
@166638 Channel: 6 Command:176
@166712 Channel: 6 Command:176
@166840 Channel: 6 Command:176
@166904 Channel: 6 Command:176
@166977 Channel: 6 Command:176
@167023 Channel: 6 Command:176
@167078 Channel: 6 Command:176
@167169 Channel: 6 Command:176
@167261 Channel: 6 Command:176
@167325 Channel: 6 Command:176
@167380 Channel: 6 Command:176
@167444 Channel: 6 Command:176
@167509 Channel: 6 Command:176
@167554 Channel: 6 Command:176
@167600 Channel: 6 Command:176
@167636 Channel: 6 Command:176
@167674 Channel: 6 Command:176
@167701 Channel: 6 Command:176
@167747 Channel: 6 Command:176
@167802 Channel: 6 Command:176
@167829 Channel: 6 Command:176
@167857 Channel: 6 Command:176
@167893 Channel: 6 Command:176
@167930 Channel: 6 Command:176
@167957 Channel: 6 Command:176
@167985 Channel: 6 Command:176
@168012 Channel: 6 Command:176
@168040 Channel: 6 Command:176
@168057 Channel: 6 Command:176
@168085 Channel: 6 Command:176
@168113 Channel: 6 Command:176
@168131 Channel: 6 Command:176
@168158 Channel: 6 Command:176
@168168 Channel: 6 Command:176
@168205 Channel: 6 Command:176
@168383 Channel: 6 Note off, A3 key=57 velocity: 85
@168391 Channel: 6 Note off, F#4 key=66 velocity: 79
@168393 Channel: 6 Note off, F#3 key=54 velocity: 107
@168480 Other message: class javax.sound.midi.Track$ImmutableEndOfTrack

Track 9: size = 418

@0 Other message: class javax.sound.midi.MetaMessage
@0 Other message: class javax.sound.midi.MetaMessage
@0 Other message: class javax.sound.midi.MetaMessage
@0 Other message: class javax.sound.midi.MetaMessage
@570 Channel: 7 Command:176
@575 Channel: 7 Command:176
@580 Channel: 7 Command:192
@585 Channel: 7 Command:176
@590 Channel: 7 Command:176
@595 Channel: 7 Command:176
@600 Channel: 7 Command:176
@605 Channel: 7 Command:176
@605 Channel: 7 Command:176
@605 Channel: 7 Command:176
@610 Channel: 7 Command:176
@610 Channel: 7 Command:176
@610 Channel: 7 Command:176
@615 Channel: 7 Command:176
@615 Channel: 7 Command:176
@615 Channel: 7 Command:176
@620 Channel: 7 Command:176
@620 Channel: 7 Command:176
@620 Channel: 7 Command:176
@625 Channel: 7 Command:176
@625 Channel: 7 Command:176
@625 Channel: 7 Command:176
@630 Channel: 7 Command:176
@630 Channel: 7 Command:176
@630 Channel: 7 Command:176
@635 Channel: 7 Command:176
@635 Channel: 7 Command:176
@635 Channel: 7 Command:176
@640 Channel: 7 Command:176
@640 Channel: 7 Command:176
@640 Channel: 7 Command:176
@645 Channel: 7 Command:176
@645 Channel: 7 Command:176
@645 Channel: 7 Command:176
@1440 Channel: 7 Note on, D2 key=38 velocity: 122
@1440 Channel: 7 Note on, D1 key=26 velocity: 122
@3849 Channel: 7 Note off, D2 key=38 velocity: 122
@3849 Channel: 7 Note off, D1 key=26 velocity: 122
@4332 Channel: 7 Note on, D2 key=38 velocity: 114
@4332 Channel: 7 Note on, D1 key=26 velocity: 114
@6768 Channel: 7 Note off, D2 key=38 velocity: 114
@6768 Channel: 7 Note off, D1 key=26 velocity: 114
@7205 Channel: 7 Note on, D2 key=38 velocity: 120
@7205 Channel: 7 Note on, D1 key=26 velocity: 120
@9778 Channel: 7 Note off, D2 key=38 velocity: 120
@9778 Channel: 7 Note off, D1 key=26 velocity: 120
@10089 Channel: 7 Note on, D2 key=38 velocity: 121
@10089 Channel: 7 Note on, D1 key=26 velocity: 121
@12931 Channel: 7 Note off, D2 key=38 velocity: 121
@12931 Channel: 7 Note off, D1 key=26 velocity: 121
@12969 Channel: 7 Note on, D2 key=38 velocity: 127
@12969 Channel: 7 Note on, D1 key=26 velocity: 127
@15801 Channel: 7 Note off, D2 key=38 velocity: 127
@15801 Channel: 7 Note off, D1 key=26 velocity: 127
@15847 Channel: 7 Note on, D2 key=38 velocity: 127
@15847 Channel: 7 Note on, D1 key=26 velocity: 127
@17274 Channel: 7 Note off, D2 key=38 velocity: 127
@17274 Channel: 7 Note off, D1 key=26 velocity: 127
@17287 Channel: 7 Note on, C2 key=36 velocity: 108
@17287 Channel: 7 Note on, C1 key=24 velocity: 108
@18712 Channel: 7 Note off, C2 key=36 velocity: 108
@18712 Channel: 7 Note off, C1 key=24 velocity: 108
@18728 Channel: 7 Note on, F2 key=41 velocity: 119
@18728 Channel: 7 Note on, F1 key=29 velocity: 119
@20149 Channel: 7 Note off, F2 key=41 velocity: 119
@20149 Channel: 7 Note off, F1 key=29 velocity: 119
@20171 Channel: 7 Note on, C2 key=36 velocity: 101
@20171 Channel: 7 Note on, C1 key=24 velocity: 101
@21591 Channel: 7 Note off, C2 key=36 velocity: 101
@21591 Channel: 7 Note off, C1 key=24 velocity: 101
@21608 Channel: 7 Note on, A#2 key=46 velocity: 95
@21608 Channel: 7 Note on, A#1 key=34 velocity: 95
@23040 Channel: 7 Note off, A#2 key=46 velocity: 95
@23040 Channel: 7 Note off, A#1 key=34 velocity: 95
@23043 Channel: 7 Note on, A2 key=45 velocity: 86
@23043 Channel: 7 Note on, A1 key=33 velocity: 86
@25905 Channel: 7 Note off, A2 key=45 velocity: 101
@25905 Channel: 7 Note off, A1 key=33 velocity: 101
@25929 Channel: 7 Note on, D2 key=38 velocity: 127
@25929 Channel: 7 Note on, D1 key=26 velocity: 127
@28761 Channel: 7 Note off, D2 key=38 velocity: 127
@28761 Channel: 7 Note off, D1 key=26 velocity: 127
@28807 Channel: 7 Note on, D2 key=38 velocity: 127
@28807 Channel: 7 Note on, D1 key=26 velocity: 127
@30234 Channel: 7 Note off, D2 key=38 velocity: 127
@30234 Channel: 7 Note off, D1 key=26 velocity: 127
@30247 Channel: 7 Note on, C2 key=36 velocity: 108
@30247 Channel: 7 Note on, C1 key=24 velocity: 108
@31672 Channel: 7 Note off, C2 key=36 velocity: 108
@31672 Channel: 7 Note off, C1 key=24 velocity: 108
@31688 Channel: 7 Note on, F2 key=41 velocity: 119
@31688 Channel: 7 Note on, F1 key=29 velocity: 119
@33109 Channel: 7 Note off, F2 key=41 velocity: 119
@33109 Channel: 7 Note off, F1 key=29 velocity: 119
@33131 Channel: 7 Note on, C2 key=36 velocity: 101
@33131 Channel: 7 Note on, C1 key=24 velocity: 101
@34551 Channel: 7 Note off, C2 key=36 velocity: 101
@34551 Channel: 7 Note off, C1 key=24 velocity: 101
@34568 Channel: 7 Note on, A#2 key=46 velocity: 113
@34568 Channel: 7 Note on, A#1 key=34 velocity: 113
@35998 Channel: 7 Note off, A#2 key=46 velocity: 113
@35998 Channel: 7 Note off, A#1 key=34 velocity: 113
@36003 Channel: 7 Note on, A2 key=45 velocity: 101
@36003 Channel: 7 Note on, A1 key=33 velocity: 101
@37440 Channel: 7 Note off, A2 key=45 velocity: 101
@37440 Channel: 7 Note off, A1 key=33 velocity: 101
@37449 Channel: 7 Note on, D2 key=38 velocity: 127
@37449 Channel: 7 Note on, D1 key=26 velocity: 127
@40281 Channel: 7 Note off, D2 key=38 velocity: 127
@40281 Channel: 7 Note off, D1 key=26 velocity: 127
@40327 Channel: 7 Note on, D2 key=38 velocity: 127
@40327 Channel: 7 Note on, D1 key=26 velocity: 127
@41754 Channel: 7 Note off, D2 key=38 velocity: 127
@41754 Channel: 7 Note off, D1 key=26 velocity: 127
@41767 Channel: 7 Note on, C2 key=36 velocity: 108
@41767 Channel: 7 Note on, C1 key=24 velocity: 108
@43192 Channel: 7 Note off, C2 key=36 velocity: 108
@43192 Channel: 7 Note off, C1 key=24 velocity: 108
@43208 Channel: 7 Note on, F2 key=41 velocity: 119
@43208 Channel: 7 Note on, F1 key=29 velocity: 119
@44629 Channel: 7 Note off, F2 key=41 velocity: 119
@44629 Channel: 7 Note off, F1 key=29 velocity: 119
@44651 Channel: 7 Note on, C2 key=36 velocity: 101
@44651 Channel: 7 Note on, C1 key=24 velocity: 101
@46071 Channel: 7 Note off, C2 key=36 velocity: 101
@46071 Channel: 7 Note off, C1 key=24 velocity: 101
@46088 Channel: 7 Note on, A#2 key=46 velocity: 113
@46088 Channel: 7 Note on, A#1 key=34 velocity: 113
@47518 Channel: 7 Note off, A#2 key=46 velocity: 113
@47518 Channel: 7 Note off, A#1 key=34 velocity: 113
@47523 Channel: 7 Note on, A2 key=45 velocity: 101
@47523 Channel: 7 Note on, A1 key=33 velocity: 101
@48960 Channel: 7 Note off, A2 key=45 velocity: 101
@48960 Channel: 7 Note off, A1 key=33 velocity: 101
@48960 Channel: 7 Note on, A1 key=33 velocity: 101
@48960 Channel: 7 Note on, A2 key=45 velocity: 101
@50385 Channel: 7 Note off, A1 key=33 velocity: 101
@50385 Channel: 7 Note off, A2 key=45 velocity: 101
@50409 Channel: 7 Note on, D2 key=38 velocity: 127
@50409 Channel: 7 Note on, D1 key=26 velocity: 127
@53241 Channel: 7 Note off, D2 key=38 velocity: 127
@53241 Channel: 7 Note off, D1 key=26 velocity: 127
@53287 Channel: 7 Note on, D2 key=38 velocity: 127
@53287 Channel: 7 Note on, D1 key=26 velocity: 127
@54714 Channel: 7 Note off, D2 key=38 velocity: 127
@54714 Channel: 7 Note off, D1 key=26 velocity: 127
@54727 Channel: 7 Note on, C2 key=36 velocity: 108
@54727 Channel: 7 Note on, C1 key=24 velocity: 108
@56152 Channel: 7 Note off, C2 key=36 velocity: 108
@56152 Channel: 7 Note off, C1 key=24 velocity: 108
@56168 Channel: 7 Note on, F2 key=41 velocity: 119
@56168 Channel: 7 Note on, F1 key=29 velocity: 119
@57589 Channel: 7 Note off, F2 key=41 velocity: 119
@57589 Channel: 7 Note off, F1 key=29 velocity: 119
@57611 Channel: 7 Note on, C2 key=36 velocity: 101
@57611 Channel: 7 Note on, C1 key=24 velocity: 101
@59031 Channel: 7 Note off, C2 key=36 velocity: 101
@59031 Channel: 7 Note off, C1 key=24 velocity: 101
@59048 Channel: 7 Note on, A#2 key=46 velocity: 113
@59048 Channel: 7 Note on, A#1 key=34 velocity: 113
@60478 Channel: 7 Note off, A#2 key=46 velocity: 113
@60478 Channel: 7 Note off, A#1 key=34 velocity: 113
@60483 Channel: 7 Note on, A2 key=45 velocity: 101
@60483 Channel: 7 Note on, A1 key=33 velocity: 101
@63345 Channel: 7 Note off, A2 key=45 velocity: 101
@63345 Channel: 7 Note off, A1 key=33 velocity: 101
@63372 Channel: 7 Note on, D2 key=38 velocity: 125
@64751 Channel: 7 Note off, D2 key=38 velocity: 125
@64814 Channel: 7 Note on, G1 key=31 velocity: 120
@66045 Channel: 7 Note off, G1 key=31 velocity: 120
@66246 Channel: 7 Note on, D2 key=38 velocity: 117
@67494 Channel: 7 Note off, D2 key=38 velocity: 117
@67692 Channel: 7 Note on, G1 key=31 velocity: 122
@68891 Channel: 7 Note off, G1 key=31 velocity: 122
@69153 Channel: 7 Note on, D2 key=38 velocity: 127
@70370 Channel: 7 Note off, D2 key=38 velocity: 127
@70568 Channel: 7 Note on, G1 key=31 velocity: 114
@71721 Channel: 7 Note off, G1 key=31 velocity: 114
@72000 Channel: 7 Note on, D2 key=38 velocity: 114
@73022 Channel: 7 Note off, D2 key=38 velocity: 114
@73454 Channel: 7 Note on, A1 key=33 velocity: 125
@74310 Channel: 7 Note off, A1 key=33 velocity: 125
@74892 Channel: 7 Note on, D2 key=38 velocity: 125
@76271 Channel: 7 Note off, D2 key=38 velocity: 125
@76334 Channel: 7 Note on, G1 key=31 velocity: 120
@77565 Channel: 7 Note off, G1 key=31 velocity: 120
@77766 Channel: 7 Note on, D2 key=38 velocity: 117
@79014 Channel: 7 Note off, D2 key=38 velocity: 117
@79212 Channel: 7 Note on, G1 key=31 velocity: 122
@80411 Channel: 7 Note off, G1 key=31 velocity: 122
@80673 Channel: 7 Note on, D2 key=38 velocity: 127
@81890 Channel: 7 Note off, D2 key=38 velocity: 127
@82088 Channel: 7 Note on, G1 key=31 velocity: 114
@83241 Channel: 7 Note off, G1 key=31 velocity: 114
@83520 Channel: 7 Note on, D2 key=38 velocity: 114
@84542 Channel: 7 Note off, D2 key=38 velocity: 114
@84974 Channel: 7 Note on, A1 key=33 velocity: 125
@85830 Channel: 7 Note off, A1 key=33 velocity: 125
@86400 Channel: 7 Command:176
@86409 Channel: 7 Note on, D2 key=38 velocity: 127
@86409 Channel: 7 Note on, D1 key=26 velocity: 127
@89241 Channel: 7 Note off, D2 key=38 velocity: 127
@89241 Channel: 7 Note off, D1 key=26 velocity: 127
@89287 Channel: 7 Note on, D2 key=38 velocity: 127
@89287 Channel: 7 Note on, D1 key=26 velocity: 127
@90714 Channel: 7 Note off, D2 key=38 velocity: 127
@90714 Channel: 7 Note off, D1 key=26 velocity: 127
@90727 Channel: 7 Note on, C2 key=36 velocity: 108
@90727 Channel: 7 Note on, C1 key=24 velocity: 108
@92152 Channel: 7 Note off, C2 key=36 velocity: 108
@92152 Channel: 7 Note off, C1 key=24 velocity: 108
@92168 Channel: 7 Note on, F2 key=41 velocity: 119
@92168 Channel: 7 Note on, F1 key=29 velocity: 119
@93589 Channel: 7 Note off, F2 key=41 velocity: 119
@93589 Channel: 7 Note off, F1 key=29 velocity: 119
@93611 Channel: 7 Note on, C2 key=36 velocity: 101
@93611 Channel: 7 Note on, C1 key=24 velocity: 101
@95031 Channel: 7 Note off, C2 key=36 velocity: 101
@95031 Channel: 7 Note off, C1 key=24 velocity: 101
@95048 Channel: 7 Note on, A#2 key=46 velocity: 113
@95048 Channel: 7 Note on, A#1 key=34 velocity: 113
@96478 Channel: 7 Note off, A#2 key=46 velocity: 113
@96478 Channel: 7 Note off, A#1 key=34 velocity: 113
@96480 Channel: 7 Note on, A1 key=33 velocity: 101
@96480 Channel: 7 Note on, A2 key=45 velocity: 101
@97905 Channel: 7 Note off, A1 key=33 velocity: 101
@97905 Channel: 7 Note off, A2 key=45 velocity: 101
@97929 Channel: 7 Note on, D2 key=38 velocity: 127
@97929 Channel: 7 Note on, D1 key=26 velocity: 127
@100761 Channel: 7 Note off, D2 key=38 velocity: 127
@100761 Channel: 7 Note off, D1 key=26 velocity: 127
@100807 Channel: 7 Note on, D2 key=38 velocity: 127
@100807 Channel: 7 Note on, D1 key=26 velocity: 127
@102234 Channel: 7 Note off, D2 key=38 velocity: 127
@102234 Channel: 7 Note off, D1 key=26 velocity: 127
@102247 Channel: 7 Note on, C2 key=36 velocity: 108
@102247 Channel: 7 Note on, C1 key=24 velocity: 108
@103672 Channel: 7 Note off, C2 key=36 velocity: 108
@103672 Channel: 7 Note off, C1 key=24 velocity: 108
@103688 Channel: 7 Note on, F2 key=41 velocity: 119
@103688 Channel: 7 Note on, F1 key=29 velocity: 119
@105109 Channel: 7 Note off, F2 key=41 velocity: 119
@105109 Channel: 7 Note off, F1 key=29 velocity: 119
@105131 Channel: 7 Note on, C2 key=36 velocity: 101
@105131 Channel: 7 Note on, C1 key=24 velocity: 101
@106551 Channel: 7 Note off, C2 key=36 velocity: 101
@106551 Channel: 7 Note off, C1 key=24 velocity: 101
@106568 Channel: 7 Note on, A#2 key=46 velocity: 113
@106568 Channel: 7 Note on, A#1 key=34 velocity: 113
@107998 Channel: 7 Note off, A#2 key=46 velocity: 113
@107998 Channel: 7 Note off, A#1 key=34 velocity: 113
@108003 Channel: 7 Note on, A2 key=45 velocity: 101
@108003 Channel: 7 Note on, A1 key=33 velocity: 101
@110865 Channel: 7 Note off, A2 key=45 velocity: 101
@110865 Channel: 7 Note off, A1 key=33 velocity: 101
@110892 Channel: 7 Note on, D2 key=38 velocity: 125
@112271 Channel: 7 Note off, D2 key=38 velocity: 125
@112334 Channel: 7 Note on, G1 key=31 velocity: 120
@113565 Channel: 7 Note off, G1 key=31 velocity: 120
@113766 Channel: 7 Note on, D2 key=38 velocity: 117
@115014 Channel: 7 Note off, D2 key=38 velocity: 117
@115212 Channel: 7 Note on, G1 key=31 velocity: 122
@116411 Channel: 7 Note off, G1 key=31 velocity: 122
@116673 Channel: 7 Note on, D2 key=38 velocity: 127
@117890 Channel: 7 Note off, D2 key=38 velocity: 127
@118088 Channel: 7 Note on, G1 key=31 velocity: 114
@119241 Channel: 7 Note off, G1 key=31 velocity: 114
@119520 Channel: 7 Note on, D2 key=38 velocity: 114
@120542 Channel: 7 Note off, D2 key=38 velocity: 114
@120974 Channel: 7 Note on, A1 key=33 velocity: 125
@121830 Channel: 7 Note off, A1 key=33 velocity: 125
@122412 Channel: 7 Note on, D2 key=38 velocity: 125
@123791 Channel: 7 Note off, D2 key=38 velocity: 125
@123854 Channel: 7 Note on, G1 key=31 velocity: 120
@125085 Channel: 7 Note off, G1 key=31 velocity: 120
@125286 Channel: 7 Note on, D2 key=38 velocity: 117
@126534 Channel: 7 Note off, D2 key=38 velocity: 117
@126732 Channel: 7 Note on, G1 key=31 velocity: 122
@127931 Channel: 7 Note off, G1 key=31 velocity: 122
@128193 Channel: 7 Note on, D2 key=38 velocity: 127
@129410 Channel: 7 Note off, D2 key=38 velocity: 127
@129608 Channel: 7 Note on, G1 key=31 velocity: 114
@130761 Channel: 7 Note off, G1 key=31 velocity: 114
@131040 Channel: 7 Note on, D2 key=38 velocity: 114
@132062 Channel: 7 Note off, D2 key=38 velocity: 114
@132494 Channel: 7 Note on, A1 key=33 velocity: 125
@133350 Channel: 7 Note off, A1 key=33 velocity: 125
@133920 Channel: 7 Command:176
@133929 Channel: 7 Note on, D2 key=38 velocity: 127
@133929 Channel: 7 Note on, D1 key=26 velocity: 127
@136761 Channel: 7 Note off, D2 key=38 velocity: 127
@136761 Channel: 7 Note off, D1 key=26 velocity: 127
@136807 Channel: 7 Note on, D2 key=38 velocity: 127
@136807 Channel: 7 Note on, D1 key=26 velocity: 127
@138234 Channel: 7 Note off, D2 key=38 velocity: 127
@138234 Channel: 7 Note off, D1 key=26 velocity: 127
@138247 Channel: 7 Note on, C2 key=36 velocity: 108
@138247 Channel: 7 Note on, C1 key=24 velocity: 108
@139672 Channel: 7 Note off, C2 key=36 velocity: 108
@139672 Channel: 7 Note off, C1 key=24 velocity: 108
@139688 Channel: 7 Note on, F2 key=41 velocity: 119
@139688 Channel: 7 Note on, F1 key=29 velocity: 119
@141109 Channel: 7 Note off, F2 key=41 velocity: 119
@141109 Channel: 7 Note off, F1 key=29 velocity: 119
@141131 Channel: 7 Note on, C2 key=36 velocity: 101
@141131 Channel: 7 Note on, C1 key=24 velocity: 101
@142551 Channel: 7 Note off, C2 key=36 velocity: 101
@142551 Channel: 7 Note off, C1 key=24 velocity: 101
@142568 Channel: 7 Note on, A#2 key=46 velocity: 113
@142568 Channel: 7 Note on, A#1 key=34 velocity: 113
@143998 Channel: 7 Note off, A#2 key=46 velocity: 113
@143998 Channel: 7 Note off, A#1 key=34 velocity: 113
@144000 Channel: 7 Note on, A1 key=33 velocity: 101
@144000 Channel: 7 Note on, A2 key=45 velocity: 101
@145425 Channel: 7 Note off, A1 key=33 velocity: 101
@145425 Channel: 7 Note off, A2 key=45 velocity: 101
@145449 Channel: 7 Note on, D2 key=38 velocity: 127
@145449 Channel: 7 Note on, D1 key=26 velocity: 127
@148281 Channel: 7 Note off, D2 key=38 velocity: 127
@148281 Channel: 7 Note off, D1 key=26 velocity: 127
@148327 Channel: 7 Note on, D2 key=38 velocity: 127
@148327 Channel: 7 Note on, D1 key=26 velocity: 127
@149754 Channel: 7 Note off, D2 key=38 velocity: 127
@149754 Channel: 7 Note off, D1 key=26 velocity: 127
@149767 Channel: 7 Note on, C2 key=36 velocity: 108
@149767 Channel: 7 Note on, C1 key=24 velocity: 108
@151192 Channel: 7 Note off, C2 key=36 velocity: 108
@151192 Channel: 7 Note off, C1 key=24 velocity: 108
@151208 Channel: 7 Note on, F2 key=41 velocity: 119
@151208 Channel: 7 Note on, F1 key=29 velocity: 119
@152629 Channel: 7 Note off, F2 key=41 velocity: 119
@152629 Channel: 7 Note off, F1 key=29 velocity: 119
@152651 Channel: 7 Note on, C2 key=36 velocity: 101
@152651 Channel: 7 Note on, C1 key=24 velocity: 101
@154071 Channel: 7 Note off, C2 key=36 velocity: 101
@154071 Channel: 7 Note off, C1 key=24 velocity: 101
@154088 Channel: 7 Note on, A#2 key=46 velocity: 113
@154088 Channel: 7 Note on, A#1 key=34 velocity: 113
@155518 Channel: 7 Note off, A#2 key=46 velocity: 113
@155518 Channel: 7 Note off, A#1 key=34 velocity: 113
@155523 Channel: 7 Note on, A2 key=45 velocity: 101
@155523 Channel: 7 Note on, A1 key=33 velocity: 101
@156960 Channel: 7 Note off, A2 key=45 velocity: 101
@156960 Channel: 7 Note off, A1 key=33 velocity: 101
@156968 Channel: 7 Note on, A#2 key=46 velocity: 113
@156968 Channel: 7 Note on, A#1 key=34 velocity: 113
@158398 Channel: 7 Note off, A#2 key=46 velocity: 113
@158398 Channel: 7 Note off, A#1 key=34 velocity: 113
@158403 Channel: 7 Note on, A2 key=45 velocity: 101
@158403 Channel: 7 Note on, A1 key=33 velocity: 101
@159840 Channel: 7 Note off, A2 key=45 velocity: 101
@159840 Channel: 7 Note off, A1 key=33 velocity: 101
@159848 Channel: 7 Note on, A#2 key=46 velocity: 113
@159848 Channel: 7 Note on, A#1 key=34 velocity: 113
@161278 Channel: 7 Note off, A#2 key=46 velocity: 113
@161278 Channel: 7 Note off, A#1 key=34 velocity: 113
@161283 Channel: 7 Note on, A2 key=45 velocity: 101
@161283 Channel: 7 Note on, A1 key=33 velocity: 101
@162720 Channel: 7 Note off, A2 key=45 velocity: 101
@162720 Channel: 7 Note off, A1 key=33 velocity: 101
@162732 Channel: 7 Note on, D1 key=26 velocity: 104
@162737 Channel: 7 Note on, D2 key=38 velocity: 94
@165182 Channel: 7 Command:176
@165375 Channel: 7 Command:176
@165381 Channel: 7 Note off, D1 key=26 velocity: 104
@165530 Channel: 7 Command:176
@165600 Channel: 7 Note off, D2 key=38 velocity: 94
@165600 Channel: 7 Note on, D2 key=38 velocity: 92
@165600 Channel: 7 Note on, D1 key=26 velocity: 94
@165824 Channel: 7 Command:176
@165906 Channel: 7 Command:176
@166025 Channel: 7 Command:176
@166089 Channel: 7 Command:176
@166181 Channel: 7 Command:176
@166254 Channel: 7 Command:176
@166309 Channel: 7 Command:176
@166382 Channel: 7 Command:176
@166437 Channel: 7 Command:176
@166501 Channel: 7 Command:176
@166556 Channel: 7 Command:176
@166611 Channel: 7 Command:176
@166666 Channel: 7 Command:176
@166740 Channel: 7 Command:176
@166794 Channel: 7 Command:176
@166867 Channel: 7 Command:176
@166950 Channel: 7 Command:176
@167004 Channel: 7 Command:176
@167051 Channel: 7 Command:176
@167124 Channel: 7 Command:176
@167179 Channel: 7 Command:176
@167253 Channel: 7 Command:176
@167344 Channel: 7 Command:176
@167408 Channel: 7 Command:176
@167453 Channel: 7 Command:176
@167499 Channel: 7 Command:176
@167536 Channel: 7 Command:176
@167573 Channel: 7 Command:176
@167609 Channel: 7 Command:176
@167646 Channel: 7 Command:176
@167710 Channel: 7 Command:176
@167747 Channel: 7 Command:176
@167783 Channel: 7 Command:176
@167847 Channel: 7 Command:176
@167884 Channel: 7 Command:176
@167912 Channel: 7 Command:176
@167939 Channel: 7 Command:176
@167966 Channel: 7 Command:176
@167994 Channel: 7 Command:176
@168030 Channel: 7 Command:176
@168086 Channel: 7 Command:176
@168232 Channel: 7 Command:176
@168423 Channel: 7 Note off, D1 key=26 velocity: 94
@168454 Channel: 7 Note off, D2 key=38 velocity: 92
@168480 Other message: class javax.sound.midi.Track$ImmutableEndOfTrack

Track 10: size = 1999

@0 Other message: class javax.sound.midi.MetaMessage
@0 Other message: class javax.sound.midi.MetaMessage
@0 Other message: class javax.sound.midi.MetaMessage
@0 Other message: class javax.sound.midi.MetaMessage
@650 Channel: 8 Command:176
@655 Channel: 8 Command:176
@660 Channel: 8 Command:192
@665 Channel: 8 Command:176
@670 Channel: 8 Command:176
@675 Channel: 8 Command:176
@680 Channel: 8 Command:176
@685 Channel: 8 Command:176
@685 Channel: 8 Command:176
@685 Channel: 8 Command:176
@690 Channel: 8 Command:176
@690 Channel: 8 Command:176
@690 Channel: 8 Command:176
@695 Channel: 8 Command:176
@695 Channel: 8 Command:176
@695 Channel: 8 Command:176
@700 Channel: 8 Command:176
@700 Channel: 8 Command:176
@700 Channel: 8 Command:176
@705 Channel: 8 Command:176
@705 Channel: 8 Command:176
@705 Channel: 8 Command:176
@710 Channel: 8 Command:176
@710 Channel: 8 Command:176
@710 Channel: 8 Command:176
@715 Channel: 8 Command:176
@715 Channel: 8 Command:176
@715 Channel: 8 Command:176
@720 Channel: 8 Command:176
@720 Channel: 8 Command:176
@720 Channel: 8 Command:176
@725 Channel: 8 Command:176
@725 Channel: 8 Command:176
@725 Channel: 8 Command:176
@60480 Channel: 8 Command:176
@61009 Channel: 8 Command:176
@61133 Channel: 8 Command:176
@61169 Channel: 8 Command:176
@61201 Channel: 8 Note on, A4 key=69 velocity: 127
@61242 Channel: 8 Note off, A4 key=69 velocity: 127
@61250 Channel: 8 Command:176
@61262 Channel: 8 Note on, A4 key=69 velocity: 94
@61304 Channel: 8 Note off, A4 key=69 velocity: 94
@61323 Channel: 8 Note on, A4 key=69 velocity: 107
@61365 Channel: 8 Note off, A4 key=69 velocity: 107
@61382 Channel: 8 Command:176
@61383 Channel: 8 Note on, A4 key=69 velocity: 98
@61422 Channel: 8 Note off, A4 key=69 velocity: 98
@61444 Channel: 8 Note on, A4 key=69 velocity: 127
@61485 Channel: 8 Note off, A4 key=69 velocity: 127
@61503 Channel: 8 Note on, A4 key=69 velocity: 93
@61543 Channel: 8 Note off, A4 key=69 velocity: 93
@61551 Channel: 8 Command:176
@61562 Channel: 8 Note on, A4 key=69 velocity: 107
@61604 Channel: 8 Note off, A4 key=69 velocity: 107
@61622 Channel: 8 Note on, A4 key=69 velocity: 110
@61623 Channel: 8 Command:176
@61663 Channel: 8 Note off, A4 key=69 velocity: 110
@61683 Channel: 8 Note on, A4 key=69 velocity: 127
@61721 Channel: 8 Command:176
@61725 Channel: 8 Note off, A4 key=69 velocity: 127
@61742 Channel: 8 Note on, A4 key=69 velocity: 110
@61765 Channel: 8 Command:176
@61783 Channel: 8 Note off, A4 key=69 velocity: 110
@61801 Channel: 8 Note on, A4 key=69 velocity: 110
@61837 Channel: 8 Command:176
@61842 Channel: 8 Note off, A4 key=69 velocity: 110
@61861 Channel: 8 Note on, A4 key=69 velocity: 112
@61881 Channel: 8 Command:176
@61904 Channel: 8 Note off, A4 key=69 velocity: 112
@61908 Channel: 8 Command:176
@61921 Channel: 8 Note on, A4 key=69 velocity: 127
@61943 Channel: 8 Command:176
@61959 Channel: 8 Note off, A4 key=69 velocity: 127
@61981 Channel: 8 Note on, A4 key=69 velocity: 105
@62021 Channel: 8 Note off, A4 key=69 velocity: 105
@62041 Channel: 8 Note on, A4 key=69 velocity: 107
@62059 Channel: 8 Command:176
@62080 Channel: 8 Note off, A4 key=69 velocity: 107
@62101 Channel: 8 Note on, A4 key=69 velocity: 102
@62103 Channel: 8 Command:176
@62140 Channel: 8 Note off, A4 key=69 velocity: 102
@62148 Channel: 8 Command:176
@62160 Channel: 8 Note on, A4 key=69 velocity: 127
@62200 Channel: 8 Note off, A4 key=69 velocity: 127
@62220 Channel: 8 Note on, A4 key=69 velocity: 105
@62228 Channel: 8 Command:176
@62260 Channel: 8 Note off, A4 key=69 velocity: 105
@62279 Channel: 8 Note on, A4 key=69 velocity: 107
@62281 Channel: 8 Command:176
@62320 Channel: 8 Note off, A4 key=69 velocity: 107
@62340 Channel: 8 Note on, A4 key=69 velocity: 102
@62344 Channel: 8 Command:176
@62379 Channel: 8 Command:176
@62380 Channel: 8 Note off, A4 key=69 velocity: 102
@62399 Channel: 8 Note on, A4 key=69 velocity: 127
@62406 Channel: 8 Command:176
@62433 Channel: 8 Command:176
@62440 Channel: 8 Note off, A4 key=69 velocity: 127
@62461 Channel: 8 Note on, A4 key=69 velocity: 105
@62472 Channel: 8 Command:176
@62501 Channel: 8 Note off, A4 key=69 velocity: 105
@62521 Channel: 8 Note on, A4 key=69 velocity: 110
@62531 Channel: 8 Command:176
@62561 Channel: 8 Note off, A4 key=69 velocity: 110
@62582 Channel: 8 Note on, A4 key=69 velocity: 105
@62622 Channel: 8 Note off, A4 key=69 velocity: 105
@62643 Channel: 8 Note on, A4 key=69 velocity: 127
@62683 Channel: 8 Note off, A4 key=69 velocity: 127
@62703 Channel: 8 Note on, A4 key=69 velocity: 108
@62743 Channel: 8 Note off, A4 key=69 velocity: 108
@62763 Channel: 8 Note on, A4 key=69 velocity: 110
@62802 Channel: 8 Note off, A4 key=69 velocity: 110
@62823 Channel: 8 Note on, A4 key=69 velocity: 107
@62862 Channel: 8 Note off, A4 key=69 velocity: 107
@62883 Channel: 8 Note on, A4 key=69 velocity: 127
@62924 Channel: 8 Note off, A4 key=69 velocity: 127
@62943 Channel: 8 Note on, A4 key=69 velocity: 107
@62983 Channel: 8 Note off, A4 key=69 velocity: 107
@63002 Channel: 8 Note on, A4 key=69 velocity: 110
@63042 Channel: 8 Note off, A4 key=69 velocity: 110
@63062 Channel: 8 Note on, A4 key=69 velocity: 108
@63101 Channel: 8 Note off, A4 key=69 velocity: 108
@63121 Channel: 8 Note on, A4 key=69 velocity: 127
@63162 Channel: 8 Note off, A4 key=69 velocity: 127
@63182 Channel: 8 Note on, A4 key=69 velocity: 112
@63222 Channel: 8 Note off, A4 key=69 velocity: 112
@63242 Channel: 8 Note on, A4 key=69 velocity: 110
@63282 Channel: 8 Note off, A4 key=69 velocity: 110
@63301 Channel: 8 Note on, A4 key=69 velocity: 110
@63342 Channel: 8 Note off, A4 key=69 velocity: 110
@63360 Channel: 8 Command:176
@63361 Channel: 8 Note on, A4 key=69 velocity: 127
@63399 Channel: 8 Note off, A4 key=69 velocity: 127
@63421 Channel: 8 Note on, A4 key=69 velocity: 105
@63461 Channel: 8 Note off, A4 key=69 velocity: 105
@63481 Channel: 8 Note on, A4 key=69 velocity: 107
@63520 Channel: 8 Note off, A4 key=69 velocity: 107
@63541 Channel: 8 Note on, A4 key=69 velocity: 102
@63580 Channel: 8 Note off, A4 key=69 velocity: 102
@63600 Channel: 8 Note on, A4 key=69 velocity: 127
@63640 Channel: 8 Note off, A4 key=69 velocity: 127
@63660 Channel: 8 Note on, A4 key=69 velocity: 105
@63700 Channel: 8 Note off, A4 key=69 velocity: 105
@63719 Channel: 8 Note on, A4 key=69 velocity: 107
@63760 Channel: 8 Note off, A4 key=69 velocity: 107
@63780 Channel: 8 Note on, A4 key=69 velocity: 102
@63820 Channel: 8 Note off, A4 key=69 velocity: 102
@63839 Channel: 8 Note on, A4 key=69 velocity: 127
@63880 Channel: 8 Note off, A4 key=69 velocity: 127
@63901 Channel: 8 Note on, A4 key=69 velocity: 105
@63941 Channel: 8 Note off, A4 key=69 velocity: 105
@63961 Channel: 8 Note on, A4 key=69 velocity: 110
@64001 Channel: 8 Note off, A4 key=69 velocity: 110
@64022 Channel: 8 Note on, A4 key=69 velocity: 105
@64062 Channel: 8 Note off, A4 key=69 velocity: 105
@64083 Channel: 8 Note on, A4 key=69 velocity: 127
@64123 Channel: 8 Note off, A4 key=69 velocity: 127
@64143 Channel: 8 Note on, A4 key=69 velocity: 108
@64183 Channel: 8 Note off, A4 key=69 velocity: 108
@64203 Channel: 8 Note on, A4 key=69 velocity: 110
@64242 Channel: 8 Note off, A4 key=69 velocity: 110
@64263 Channel: 8 Note on, A4 key=69 velocity: 107
@64302 Channel: 8 Note off, A4 key=69 velocity: 107
@64323 Channel: 8 Note on, A4 key=69 velocity: 127
@64364 Channel: 8 Note off, A4 key=69 velocity: 127
@64383 Channel: 8 Note on, A4 key=69 velocity: 107
@64423 Channel: 8 Note off, A4 key=69 velocity: 107
@64442 Channel: 8 Note on, A4 key=69 velocity: 110
@64482 Channel: 8 Note off, A4 key=69 velocity: 110
@64502 Channel: 8 Note on, A4 key=69 velocity: 108
@64541 Channel: 8 Note off, A4 key=69 velocity: 108
@64561 Channel: 8 Note on, A4 key=69 velocity: 127
@64602 Channel: 8 Note off, A4 key=69 velocity: 127
@64622 Channel: 8 Note on, A4 key=69 velocity: 112
@64662 Channel: 8 Note off, A4 key=69 velocity: 112
@64682 Channel: 8 Note on, A4 key=69 velocity: 110
@64722 Channel: 8 Note off, A4 key=69 velocity: 110
@64741 Channel: 8 Note on, A4 key=69 velocity: 110
@64782 Channel: 8 Note off, A4 key=69 velocity: 110
@64801 Channel: 8 Note on, A4 key=69 velocity: 127
@64839 Channel: 8 Note off, A4 key=69 velocity: 127
@64861 Channel: 8 Note on, A4 key=69 velocity: 105
@64901 Channel: 8 Note off, A4 key=69 velocity: 105
@64921 Channel: 8 Note on, A4 key=69 velocity: 107
@64960 Channel: 8 Note off, A4 key=69 velocity: 107
@64981 Channel: 8 Note on, A4 key=69 velocity: 102
@65020 Channel: 8 Note off, A4 key=69 velocity: 102
@65040 Channel: 8 Note on, A4 key=69 velocity: 127
@65080 Channel: 8 Note off, A4 key=69 velocity: 127
@65100 Channel: 8 Note on, A4 key=69 velocity: 105
@65140 Channel: 8 Note off, A4 key=69 velocity: 105
@65159 Channel: 8 Note on, A4 key=69 velocity: 107
@65200 Channel: 8 Note off, A4 key=69 velocity: 107
@65220 Channel: 8 Note on, A4 key=69 velocity: 102
@65260 Channel: 8 Note off, A4 key=69 velocity: 102
@65279 Channel: 8 Note on, A4 key=69 velocity: 127
@65320 Channel: 8 Note off, A4 key=69 velocity: 127
@65341 Channel: 8 Note on, A4 key=69 velocity: 105
@65381 Channel: 8 Note off, A4 key=69 velocity: 105
@65401 Channel: 8 Note on, A4 key=69 velocity: 110
@65441 Channel: 8 Note off, A4 key=69 velocity: 110
@65462 Channel: 8 Note on, A4 key=69 velocity: 105
@65502 Channel: 8 Note off, A4 key=69 velocity: 105
@65523 Channel: 8 Note on, A4 key=69 velocity: 127
@65563 Channel: 8 Note off, A4 key=69 velocity: 127
@65583 Channel: 8 Note on, A4 key=69 velocity: 108
@65623 Channel: 8 Note off, A4 key=69 velocity: 108
@65643 Channel: 8 Note on, A4 key=69 velocity: 110
@65682 Channel: 8 Note off, A4 key=69 velocity: 110
@65703 Channel: 8 Note on, A4 key=69 velocity: 107
@65742 Channel: 8 Note off, A4 key=69 velocity: 107
@65763 Channel: 8 Note on, A4 key=69 velocity: 127
@65804 Channel: 8 Note off, A4 key=69 velocity: 127
@65823 Channel: 8 Note on, A4 key=69 velocity: 107
@65863 Channel: 8 Note off, A4 key=69 velocity: 107
@65882 Channel: 8 Note on, A4 key=69 velocity: 110
@65922 Channel: 8 Note off, A4 key=69 velocity: 110
@65942 Channel: 8 Note on, A4 key=69 velocity: 108
@65981 Channel: 8 Note off, A4 key=69 velocity: 108
@66001 Channel: 8 Note on, A4 key=69 velocity: 127
@66042 Channel: 8 Note off, A4 key=69 velocity: 127
@66062 Channel: 8 Note on, A4 key=69 velocity: 112
@66102 Channel: 8 Note off, A4 key=69 velocity: 112
@66122 Channel: 8 Note on, A4 key=69 velocity: 110
@66162 Channel: 8 Note off, A4 key=69 velocity: 110
@66181 Channel: 8 Note on, A4 key=69 velocity: 110
@66222 Channel: 8 Note off, A4 key=69 velocity: 110
@66241 Channel: 8 Note on, A4 key=69 velocity: 127
@66279 Channel: 8 Note off, A4 key=69 velocity: 127
@66301 Channel: 8 Note on, A4 key=69 velocity: 105
@66341 Channel: 8 Note off, A4 key=69 velocity: 105
@66361 Channel: 8 Note on, A4 key=69 velocity: 107
@66400 Channel: 8 Note off, A4 key=69 velocity: 107
@66421 Channel: 8 Note on, A4 key=69 velocity: 102
@66460 Channel: 8 Note off, A4 key=69 velocity: 102
@66480 Channel: 8 Note on, A4 key=69 velocity: 127
@66520 Channel: 8 Note off, A4 key=69 velocity: 127
@66540 Channel: 8 Note on, A4 key=69 velocity: 105
@66580 Channel: 8 Note off, A4 key=69 velocity: 105
@66599 Channel: 8 Note on, A4 key=69 velocity: 107
@66640 Channel: 8 Note off, A4 key=69 velocity: 107
@66660 Channel: 8 Note on, A4 key=69 velocity: 102
@66700 Channel: 8 Note off, A4 key=69 velocity: 102
@66719 Channel: 8 Note on, A4 key=69 velocity: 127
@66760 Channel: 8 Note off, A4 key=69 velocity: 127
@66781 Channel: 8 Note on, A4 key=69 velocity: 105
@66821 Channel: 8 Note off, A4 key=69 velocity: 105
@66841 Channel: 8 Note on, A4 key=69 velocity: 110
@66881 Channel: 8 Note off, A4 key=69 velocity: 110
@66902 Channel: 8 Note on, A4 key=69 velocity: 105
@66942 Channel: 8 Note off, A4 key=69 velocity: 105
@66963 Channel: 8 Note on, A4 key=69 velocity: 127
@67003 Channel: 8 Note off, A4 key=69 velocity: 127
@67023 Channel: 8 Note on, A4 key=69 velocity: 108
@67063 Channel: 8 Note off, A4 key=69 velocity: 108
@67083 Channel: 8 Note on, A4 key=69 velocity: 110
@67122 Channel: 8 Note off, A4 key=69 velocity: 110
@67143 Channel: 8 Note on, A4 key=69 velocity: 107
@67182 Channel: 8 Note off, A4 key=69 velocity: 107
@67203 Channel: 8 Note on, A4 key=69 velocity: 127
@67244 Channel: 8 Note off, A4 key=69 velocity: 127
@67263 Channel: 8 Note on, A4 key=69 velocity: 107
@67303 Channel: 8 Note off, A4 key=69 velocity: 107
@67322 Channel: 8 Note on, A4 key=69 velocity: 110
@67362 Channel: 8 Note off, A4 key=69 velocity: 110
@67382 Channel: 8 Note on, A4 key=69 velocity: 108
@67421 Channel: 8 Note off, A4 key=69 velocity: 108
@67441 Channel: 8 Note on, A4 key=69 velocity: 127
@67482 Channel: 8 Note off, A4 key=69 velocity: 127
@67502 Channel: 8 Note on, A4 key=69 velocity: 112
@67542 Channel: 8 Note off, A4 key=69 velocity: 112
@67562 Channel: 8 Note on, A4 key=69 velocity: 110
@67602 Channel: 8 Note off, A4 key=69 velocity: 110
@67621 Channel: 8 Note on, A4 key=69 velocity: 110
@67662 Channel: 8 Note off, A4 key=69 velocity: 110
@67681 Channel: 8 Note on, A4 key=69 velocity: 127
@67719 Channel: 8 Note off, A4 key=69 velocity: 127
@67741 Channel: 8 Note on, A4 key=69 velocity: 105
@67781 Channel: 8 Note off, A4 key=69 velocity: 105
@67801 Channel: 8 Note on, A4 key=69 velocity: 107
@67840 Channel: 8 Note off, A4 key=69 velocity: 107
@67861 Channel: 8 Note on, A4 key=69 velocity: 102
@67900 Channel: 8 Note off, A4 key=69 velocity: 102
@67920 Channel: 8 Note on, A4 key=69 velocity: 127
@67960 Channel: 8 Note off, A4 key=69 velocity: 127
@67980 Channel: 8 Note on, A4 key=69 velocity: 105
@68020 Channel: 8 Note off, A4 key=69 velocity: 105
@68039 Channel: 8 Note on, A4 key=69 velocity: 107
@68080 Channel: 8 Note off, A4 key=69 velocity: 107
@68100 Channel: 8 Note on, A4 key=69 velocity: 102
@68140 Channel: 8 Note off, A4 key=69 velocity: 102
@68159 Channel: 8 Note on, A4 key=69 velocity: 127
@68200 Channel: 8 Note off, A4 key=69 velocity: 127
@68221 Channel: 8 Note on, A4 key=69 velocity: 105
@68261 Channel: 8 Note off, A4 key=69 velocity: 105
@68281 Channel: 8 Note on, A4 key=69 velocity: 110
@68321 Channel: 8 Note off, A4 key=69 velocity: 110
@68342 Channel: 8 Note on, A4 key=69 velocity: 105
@68382 Channel: 8 Note off, A4 key=69 velocity: 105
@68403 Channel: 8 Note on, A4 key=69 velocity: 127
@68443 Channel: 8 Note off, A4 key=69 velocity: 127
@68463 Channel: 8 Note on, A4 key=69 velocity: 108
@68503 Channel: 8 Note off, A4 key=69 velocity: 108
@68523 Channel: 8 Note on, A4 key=69 velocity: 110
@68562 Channel: 8 Note off, A4 key=69 velocity: 110
@68583 Channel: 8 Note on, A4 key=69 velocity: 107
@68622 Channel: 8 Note off, A4 key=69 velocity: 107
@68643 Channel: 8 Note on, A4 key=69 velocity: 127
@68684 Channel: 8 Note off, A4 key=69 velocity: 127
@68703 Channel: 8 Note on, A4 key=69 velocity: 107
@68743 Channel: 8 Note off, A4 key=69 velocity: 107
@68762 Channel: 8 Note on, A4 key=69 velocity: 110
@68802 Channel: 8 Note off, A4 key=69 velocity: 110
@68822 Channel: 8 Note on, A4 key=69 velocity: 108
@68861 Channel: 8 Note off, A4 key=69 velocity: 108
@68881 Channel: 8 Note on, A4 key=69 velocity: 127
@68922 Channel: 8 Note off, A4 key=69 velocity: 127
@68942 Channel: 8 Note on, A4 key=69 velocity: 112
@68982 Channel: 8 Note off, A4 key=69 velocity: 112
@69002 Channel: 8 Note on, A4 key=69 velocity: 110
@69042 Channel: 8 Note off, A4 key=69 velocity: 110
@69061 Channel: 8 Note on, A4 key=69 velocity: 110
@69102 Channel: 8 Note off, A4 key=69 velocity: 110
@69121 Channel: 8 Note on, A4 key=69 velocity: 127
@69159 Channel: 8 Note off, A4 key=69 velocity: 127
@69181 Channel: 8 Note on, A4 key=69 velocity: 105
@69221 Channel: 8 Note off, A4 key=69 velocity: 105
@69241 Channel: 8 Note on, A4 key=69 velocity: 107
@69280 Channel: 8 Note off, A4 key=69 velocity: 107
@69301 Channel: 8 Note on, A4 key=69 velocity: 102
@69340 Channel: 8 Note off, A4 key=69 velocity: 102
@69360 Channel: 8 Note on, A4 key=69 velocity: 127
@69400 Channel: 8 Note off, A4 key=69 velocity: 127
@69420 Channel: 8 Note on, A4 key=69 velocity: 105
@69460 Channel: 8 Note off, A4 key=69 velocity: 105
@69479 Channel: 8 Note on, A4 key=69 velocity: 107
@69520 Channel: 8 Note off, A4 key=69 velocity: 107
@69540 Channel: 8 Note on, A4 key=69 velocity: 102
@69580 Channel: 8 Note off, A4 key=69 velocity: 102
@69599 Channel: 8 Note on, A4 key=69 velocity: 127
@69640 Channel: 8 Note off, A4 key=69 velocity: 127
@69661 Channel: 8 Note on, A4 key=69 velocity: 105
@69701 Channel: 8 Note off, A4 key=69 velocity: 105
@69721 Channel: 8 Note on, A4 key=69 velocity: 110
@69761 Channel: 8 Note off, A4 key=69 velocity: 110
@69782 Channel: 8 Note on, A4 key=69 velocity: 105
@69822 Channel: 8 Note off, A4 key=69 velocity: 105
@69843 Channel: 8 Note on, A4 key=69 velocity: 127
@69883 Channel: 8 Note off, A4 key=69 velocity: 127
@69903 Channel: 8 Note on, A4 key=69 velocity: 108
@69943 Channel: 8 Note off, A4 key=69 velocity: 108
@69963 Channel: 8 Note on, A4 key=69 velocity: 110
@70002 Channel: 8 Note off, A4 key=69 velocity: 110
@70023 Channel: 8 Note on, A4 key=69 velocity: 107
@70062 Channel: 8 Note off, A4 key=69 velocity: 107
@70083 Channel: 8 Note on, A4 key=69 velocity: 127
@70124 Channel: 8 Note off, A4 key=69 velocity: 127
@70143 Channel: 8 Note on, A4 key=69 velocity: 107
@70183 Channel: 8 Note off, A4 key=69 velocity: 107
@70202 Channel: 8 Note on, A4 key=69 velocity: 110
@70242 Channel: 8 Note off, A4 key=69 velocity: 110
@70262 Channel: 8 Note on, A4 key=69 velocity: 108
@70301 Channel: 8 Note off, A4 key=69 velocity: 108
@70321 Channel: 8 Note on, A4 key=69 velocity: 127
@70362 Channel: 8 Note off, A4 key=69 velocity: 127
@70382 Channel: 8 Note on, A4 key=69 velocity: 112
@70422 Channel: 8 Note off, A4 key=69 velocity: 112
@70442 Channel: 8 Note on, A4 key=69 velocity: 110
@70482 Channel: 8 Note off, A4 key=69 velocity: 110
@70501 Channel: 8 Note on, A4 key=69 velocity: 110
@70542 Channel: 8 Note off, A4 key=69 velocity: 110
@70561 Channel: 8 Note on, A4 key=69 velocity: 127
@70599 Channel: 8 Note off, A4 key=69 velocity: 127
@70621 Channel: 8 Note on, A4 key=69 velocity: 105
@70661 Channel: 8 Note off, A4 key=69 velocity: 105
@70681 Channel: 8 Note on, A4 key=69 velocity: 107
@70720 Channel: 8 Note off, A4 key=69 velocity: 107
@70741 Channel: 8 Note on, A4 key=69 velocity: 102
@70780 Channel: 8 Note off, A4 key=69 velocity: 102
@70800 Channel: 8 Note on, A4 key=69 velocity: 127
@70840 Channel: 8 Note off, A4 key=69 velocity: 127
@70860 Channel: 8 Note on, A4 key=69 velocity: 105
@70900 Channel: 8 Note off, A4 key=69 velocity: 105
@70919 Channel: 8 Note on, A4 key=69 velocity: 107
@70960 Channel: 8 Note off, A4 key=69 velocity: 107
@70980 Channel: 8 Note on, A4 key=69 velocity: 102
@71020 Channel: 8 Note off, A4 key=69 velocity: 102
@71039 Channel: 8 Note on, A4 key=69 velocity: 127
@71080 Channel: 8 Note off, A4 key=69 velocity: 127
@71101 Channel: 8 Note on, A4 key=69 velocity: 105
@71141 Channel: 8 Note off, A4 key=69 velocity: 105
@71161 Channel: 8 Note on, A4 key=69 velocity: 110
@71201 Channel: 8 Note off, A4 key=69 velocity: 110
@71222 Channel: 8 Note on, A4 key=69 velocity: 105
@71262 Channel: 8 Note off, A4 key=69 velocity: 105
@71283 Channel: 8 Note on, A4 key=69 velocity: 127
@71323 Channel: 8 Note off, A4 key=69 velocity: 127
@71343 Channel: 8 Note on, A4 key=69 velocity: 108
@71383 Channel: 8 Note off, A4 key=69 velocity: 108
@71403 Channel: 8 Note on, A4 key=69 velocity: 110
@71442 Channel: 8 Note off, A4 key=69 velocity: 110
@71463 Channel: 8 Note on, A4 key=69 velocity: 107
@71502 Channel: 8 Note off, A4 key=69 velocity: 107
@71523 Channel: 8 Note on, A4 key=69 velocity: 127
@71564 Channel: 8 Note off, A4 key=69 velocity: 127
@71583 Channel: 8 Note on, A4 key=69 velocity: 107
@71623 Channel: 8 Note off, A4 key=69 velocity: 107
@71642 Channel: 8 Note on, A4 key=69 velocity: 110
@71682 Channel: 8 Note off, A4 key=69 velocity: 110
@71702 Channel: 8 Note on, A4 key=69 velocity: 108
@71741 Channel: 8 Note off, A4 key=69 velocity: 108
@71761 Channel: 8 Note on, A4 key=69 velocity: 127
@71802 Channel: 8 Note off, A4 key=69 velocity: 127
@71822 Channel: 8 Note on, A4 key=69 velocity: 112
@71862 Channel: 8 Note off, A4 key=69 velocity: 112
@71882 Channel: 8 Note on, A4 key=69 velocity: 110
@71922 Channel: 8 Note off, A4 key=69 velocity: 110
@71941 Channel: 8 Note on, A4 key=69 velocity: 110
@71982 Channel: 8 Note off, A4 key=69 velocity: 110
@72001 Channel: 8 Note on, A4 key=69 velocity: 127
@72039 Channel: 8 Note off, A4 key=69 velocity: 127
@72061 Channel: 8 Note on, A4 key=69 velocity: 105
@72101 Channel: 8 Note off, A4 key=69 velocity: 105
@72121 Channel: 8 Note on, A4 key=69 velocity: 107
@72160 Channel: 8 Note off, A4 key=69 velocity: 107
@72181 Channel: 8 Note on, A4 key=69 velocity: 102
@72220 Channel: 8 Note off, A4 key=69 velocity: 102
@72240 Channel: 8 Note on, A4 key=69 velocity: 127
@72280 Channel: 8 Note off, A4 key=69 velocity: 127
@72300 Channel: 8 Note on, A4 key=69 velocity: 105
@72340 Channel: 8 Note off, A4 key=69 velocity: 105
@72359 Channel: 8 Note on, A4 key=69 velocity: 107
@72400 Channel: 8 Note off, A4 key=69 velocity: 107
@72420 Channel: 8 Note on, A4 key=69 velocity: 102
@72460 Channel: 8 Note off, A4 key=69 velocity: 102
@72479 Channel: 8 Note on, A4 key=69 velocity: 127
@72520 Channel: 8 Note off, A4 key=69 velocity: 127
@72541 Channel: 8 Note on, A4 key=69 velocity: 105
@72581 Channel: 8 Note off, A4 key=69 velocity: 105
@72601 Channel: 8 Note on, A4 key=69 velocity: 110
@72641 Channel: 8 Note off, A4 key=69 velocity: 110
@72662 Channel: 8 Note on, A4 key=69 velocity: 105
@72702 Channel: 8 Note off, A4 key=69 velocity: 105
@72723 Channel: 8 Note on, A4 key=69 velocity: 127
@72763 Channel: 8 Note off, A4 key=69 velocity: 127
@72783 Channel: 8 Note on, A4 key=69 velocity: 108
@72823 Channel: 8 Note off, A4 key=69 velocity: 108
@72843 Channel: 8 Note on, A4 key=69 velocity: 110
@72882 Channel: 8 Note off, A4 key=69 velocity: 110
@72903 Channel: 8 Note on, A4 key=69 velocity: 107
@72942 Channel: 8 Note off, A4 key=69 velocity: 107
@72963 Channel: 8 Note on, A4 key=69 velocity: 127
@73004 Channel: 8 Note off, A4 key=69 velocity: 127
@73023 Channel: 8 Note on, A4 key=69 velocity: 107
@73063 Channel: 8 Note off, A4 key=69 velocity: 107
@73082 Channel: 8 Note on, A4 key=69 velocity: 110
@73122 Channel: 8 Note off, A4 key=69 velocity: 110
@73142 Channel: 8 Note on, A4 key=69 velocity: 108
@73181 Channel: 8 Note off, A4 key=69 velocity: 108
@73201 Channel: 8 Note on, A4 key=69 velocity: 127
@73242 Channel: 8 Note off, A4 key=69 velocity: 127
@73262 Channel: 8 Note on, A4 key=69 velocity: 112
@73302 Channel: 8 Note off, A4 key=69 velocity: 112
@73322 Channel: 8 Note on, A4 key=69 velocity: 110
@73362 Channel: 8 Note off, A4 key=69 velocity: 110
@73381 Channel: 8 Note on, A4 key=69 velocity: 110
@73422 Channel: 8 Note off, A4 key=69 velocity: 110
@73441 Channel: 8 Note on, A4 key=69 velocity: 127
@73479 Channel: 8 Note off, A4 key=69 velocity: 127
@73501 Channel: 8 Note on, A4 key=69 velocity: 105
@73541 Channel: 8 Note off, A4 key=69 velocity: 105
@73561 Channel: 8 Note on, A4 key=69 velocity: 107
@73600 Channel: 8 Note off, A4 key=69 velocity: 107
@73621 Channel: 8 Note on, A4 key=69 velocity: 102
@73660 Channel: 8 Note off, A4 key=69 velocity: 102
@73680 Channel: 8 Note on, A4 key=69 velocity: 127
@73720 Channel: 8 Note off, A4 key=69 velocity: 127
@73740 Channel: 8 Note on, A4 key=69 velocity: 105
@73780 Channel: 8 Note off, A4 key=69 velocity: 105
@73799 Channel: 8 Note on, A4 key=69 velocity: 107
@73840 Channel: 8 Note off, A4 key=69 velocity: 107
@73860 Channel: 8 Note on, A4 key=69 velocity: 102
@73900 Channel: 8 Note off, A4 key=69 velocity: 102
@73919 Channel: 8 Note on, A4 key=69 velocity: 127
@73960 Channel: 8 Note off, A4 key=69 velocity: 127
@73981 Channel: 8 Note on, A4 key=69 velocity: 105
@74021 Channel: 8 Note off, A4 key=69 velocity: 105
@74041 Channel: 8 Note on, A4 key=69 velocity: 110
@74081 Channel: 8 Note off, A4 key=69 velocity: 110
@74102 Channel: 8 Note on, A4 key=69 velocity: 105
@74142 Channel: 8 Note off, A4 key=69 velocity: 105
@74163 Channel: 8 Note on, A4 key=69 velocity: 127
@74203 Channel: 8 Note off, A4 key=69 velocity: 127
@74223 Channel: 8 Note on, A4 key=69 velocity: 108
@74263 Channel: 8 Note off, A4 key=69 velocity: 108
@74283 Channel: 8 Note on, A4 key=69 velocity: 110
@74322 Channel: 8 Note off, A4 key=69 velocity: 110
@74343 Channel: 8 Note on, A4 key=69 velocity: 107
@74382 Channel: 8 Note off, A4 key=69 velocity: 107
@74403 Channel: 8 Note on, A4 key=69 velocity: 127
@74444 Channel: 8 Note off, A4 key=69 velocity: 127
@74463 Channel: 8 Note on, A4 key=69 velocity: 107
@74503 Channel: 8 Note off, A4 key=69 velocity: 107
@74522 Channel: 8 Note on, A4 key=69 velocity: 110
@74562 Channel: 8 Note off, A4 key=69 velocity: 110
@74582 Channel: 8 Note on, A4 key=69 velocity: 108
@74621 Channel: 8 Note off, A4 key=69 velocity: 108
@74641 Channel: 8 Note on, A4 key=69 velocity: 127
@74682 Channel: 8 Note off, A4 key=69 velocity: 127
@74702 Channel: 8 Note on, A4 key=69 velocity: 112
@74742 Channel: 8 Note off, A4 key=69 velocity: 112
@74762 Channel: 8 Note on, A4 key=69 velocity: 110
@74802 Channel: 8 Note off, A4 key=69 velocity: 110
@74821 Channel: 8 Note on, A4 key=69 velocity: 110
@74862 Channel: 8 Note off, A4 key=69 velocity: 110
@74880 Channel: 8 Command:176
@74881 Channel: 8 Note on, A4 key=69 velocity: 127
@74919 Channel: 8 Note off, A4 key=69 velocity: 127
@74941 Channel: 8 Note on, A4 key=69 velocity: 105
@74981 Channel: 8 Note off, A4 key=69 velocity: 105
@75001 Channel: 8 Note on, A4 key=69 velocity: 107
@75040 Channel: 8 Note off, A4 key=69 velocity: 107
@75061 Channel: 8 Note on, A4 key=69 velocity: 102
@75100 Channel: 8 Note off, A4 key=69 velocity: 102
@75120 Channel: 8 Note on, A4 key=69 velocity: 127
@75160 Channel: 8 Note off, A4 key=69 velocity: 127
@75180 Channel: 8 Note on, A4 key=69 velocity: 105
@75220 Channel: 8 Note off, A4 key=69 velocity: 105
@75239 Channel: 8 Note on, A4 key=69 velocity: 107
@75280 Channel: 8 Note off, A4 key=69 velocity: 107
@75300 Channel: 8 Note on, A4 key=69 velocity: 102
@75340 Channel: 8 Note off, A4 key=69 velocity: 102
@75359 Channel: 8 Note on, A4 key=69 velocity: 127
@75400 Channel: 8 Note off, A4 key=69 velocity: 127
@75421 Channel: 8 Note on, A4 key=69 velocity: 105
@75461 Channel: 8 Note off, A4 key=69 velocity: 105
@75481 Channel: 8 Note on, A4 key=69 velocity: 110
@75521 Channel: 8 Note off, A4 key=69 velocity: 110
@75542 Channel: 8 Note on, A4 key=69 velocity: 105
@75582 Channel: 8 Note off, A4 key=69 velocity: 105
@75603 Channel: 8 Note on, A4 key=69 velocity: 127
@75643 Channel: 8 Note off, A4 key=69 velocity: 127
@75663 Channel: 8 Note on, A4 key=69 velocity: 108
@75703 Channel: 8 Note off, A4 key=69 velocity: 108
@75723 Channel: 8 Note on, A4 key=69 velocity: 110
@75762 Channel: 8 Note off, A4 key=69 velocity: 110
@75783 Channel: 8 Note on, A4 key=69 velocity: 107
@75822 Channel: 8 Note off, A4 key=69 velocity: 107
@75843 Channel: 8 Note on, A4 key=69 velocity: 127
@75884 Channel: 8 Note off, A4 key=69 velocity: 127
@75903 Channel: 8 Note on, A4 key=69 velocity: 107
@75943 Channel: 8 Note off, A4 key=69 velocity: 107
@75962 Channel: 8 Note on, A4 key=69 velocity: 110
@76002 Channel: 8 Note off, A4 key=69 velocity: 110
@76022 Channel: 8 Note on, A4 key=69 velocity: 108
@76061 Channel: 8 Note off, A4 key=69 velocity: 108
@76081 Channel: 8 Note on, A4 key=69 velocity: 127
@76122 Channel: 8 Note off, A4 key=69 velocity: 127
@76142 Channel: 8 Note on, A4 key=69 velocity: 112
@76182 Channel: 8 Note off, A4 key=69 velocity: 112
@76202 Channel: 8 Note on, A4 key=69 velocity: 110
@76242 Channel: 8 Note off, A4 key=69 velocity: 110
@76261 Channel: 8 Note on, A4 key=69 velocity: 110
@76302 Channel: 8 Note off, A4 key=69 velocity: 110
@76321 Channel: 8 Note on, A4 key=69 velocity: 127
@76359 Channel: 8 Note off, A4 key=69 velocity: 127
@76381 Channel: 8 Note on, A4 key=69 velocity: 105
@76421 Channel: 8 Note off, A4 key=69 velocity: 105
@76441 Channel: 8 Note on, A4 key=69 velocity: 107
@76480 Channel: 8 Note off, A4 key=69 velocity: 107
@76501 Channel: 8 Note on, A4 key=69 velocity: 102
@76540 Channel: 8 Note off, A4 key=69 velocity: 102
@76560 Channel: 8 Note on, A4 key=69 velocity: 127
@76600 Channel: 8 Note off, A4 key=69 velocity: 127
@76620 Channel: 8 Note on, A4 key=69 velocity: 105
@76660 Channel: 8 Note off, A4 key=69 velocity: 105
@76679 Channel: 8 Note on, A4 key=69 velocity: 107
@76720 Channel: 8 Note off, A4 key=69 velocity: 107
@76740 Channel: 8 Note on, A4 key=69 velocity: 102
@76780 Channel: 8 Note off, A4 key=69 velocity: 102
@76799 Channel: 8 Note on, A4 key=69 velocity: 127
@76840 Channel: 8 Note off, A4 key=69 velocity: 127
@76861 Channel: 8 Note on, A4 key=69 velocity: 105
@76901 Channel: 8 Note off, A4 key=69 velocity: 105
@76921 Channel: 8 Note on, A4 key=69 velocity: 110
@76961 Channel: 8 Note off, A4 key=69 velocity: 110
@76982 Channel: 8 Note on, A4 key=69 velocity: 105
@77022 Channel: 8 Note off, A4 key=69 velocity: 105
@77043 Channel: 8 Note on, A4 key=69 velocity: 127
@77083 Channel: 8 Note off, A4 key=69 velocity: 127
@77103 Channel: 8 Note on, A4 key=69 velocity: 108
@77143 Channel: 8 Note off, A4 key=69 velocity: 108
@77163 Channel: 8 Note on, A4 key=69 velocity: 110
@77202 Channel: 8 Note off, A4 key=69 velocity: 110
@77223 Channel: 8 Note on, A4 key=69 velocity: 107
@77262 Channel: 8 Note off, A4 key=69 velocity: 107
@77283 Channel: 8 Note on, A4 key=69 velocity: 127
@77324 Channel: 8 Note off, A4 key=69 velocity: 127
@77343 Channel: 8 Note on, A4 key=69 velocity: 107
@77383 Channel: 8 Note off, A4 key=69 velocity: 107
@77402 Channel: 8 Note on, A4 key=69 velocity: 110
@77442 Channel: 8 Note off, A4 key=69 velocity: 110
@77462 Channel: 8 Note on, A4 key=69 velocity: 108
@77501 Channel: 8 Note off, A4 key=69 velocity: 108
@77521 Channel: 8 Note on, A4 key=69 velocity: 127
@77562 Channel: 8 Note off, A4 key=69 velocity: 127
@77582 Channel: 8 Note on, A4 key=69 velocity: 112
@77622 Channel: 8 Note off, A4 key=69 velocity: 112
@77642 Channel: 8 Note on, A4 key=69 velocity: 110
@77682 Channel: 8 Note off, A4 key=69 velocity: 110
@77701 Channel: 8 Note on, A4 key=69 velocity: 110
@77742 Channel: 8 Note off, A4 key=69 velocity: 110
@77761 Channel: 8 Note on, A4 key=69 velocity: 127
@77799 Channel: 8 Note off, A4 key=69 velocity: 127
@77821 Channel: 8 Note on, A4 key=69 velocity: 105
@77861 Channel: 8 Note off, A4 key=69 velocity: 105
@77881 Channel: 8 Note on, A4 key=69 velocity: 107
@77920 Channel: 8 Note off, A4 key=69 velocity: 107
@77941 Channel: 8 Note on, A4 key=69 velocity: 102
@77980 Channel: 8 Note off, A4 key=69 velocity: 102
@78000 Channel: 8 Note on, A4 key=69 velocity: 127
@78040 Channel: 8 Note off, A4 key=69 velocity: 127
@78060 Channel: 8 Note on, A4 key=69 velocity: 105
@78100 Channel: 8 Note off, A4 key=69 velocity: 105
@78119 Channel: 8 Note on, A4 key=69 velocity: 107
@78160 Channel: 8 Note off, A4 key=69 velocity: 107
@78180 Channel: 8 Note on, A4 key=69 velocity: 102
@78220 Channel: 8 Note off, A4 key=69 velocity: 102
@78239 Channel: 8 Note on, A4 key=69 velocity: 127
@78280 Channel: 8 Note off, A4 key=69 velocity: 127
@78301 Channel: 8 Note on, A4 key=69 velocity: 105
@78341 Channel: 8 Note off, A4 key=69 velocity: 105
@78361 Channel: 8 Note on, A4 key=69 velocity: 110
@78401 Channel: 8 Note off, A4 key=69 velocity: 110
@78422 Channel: 8 Note on, A4 key=69 velocity: 105
@78462 Channel: 8 Note off, A4 key=69 velocity: 105
@78483 Channel: 8 Note on, A4 key=69 velocity: 127
@78523 Channel: 8 Note off, A4 key=69 velocity: 127
@78543 Channel: 8 Note on, A4 key=69 velocity: 108
@78583 Channel: 8 Note off, A4 key=69 velocity: 108
@78603 Channel: 8 Note on, A4 key=69 velocity: 110
@78642 Channel: 8 Note off, A4 key=69 velocity: 110
@78663 Channel: 8 Note on, A4 key=69 velocity: 107
@78702 Channel: 8 Note off, A4 key=69 velocity: 107
@78723 Channel: 8 Note on, A4 key=69 velocity: 127
@78764 Channel: 8 Note off, A4 key=69 velocity: 127
@78783 Channel: 8 Note on, A4 key=69 velocity: 107
@78823 Channel: 8 Note off, A4 key=69 velocity: 107
@78842 Channel: 8 Note on, A4 key=69 velocity: 110
@78882 Channel: 8 Note off, A4 key=69 velocity: 110
@78902 Channel: 8 Note on, A4 key=69 velocity: 108
@78941 Channel: 8 Note off, A4 key=69 velocity: 108
@78961 Channel: 8 Note on, A4 key=69 velocity: 127
@79002 Channel: 8 Note off, A4 key=69 velocity: 127
@79022 Channel: 8 Note on, A4 key=69 velocity: 112
@79062 Channel: 8 Note off, A4 key=69 velocity: 112
@79082 Channel: 8 Note on, A4 key=69 velocity: 110
@79122 Channel: 8 Note off, A4 key=69 velocity: 110
@79141 Channel: 8 Note on, A4 key=69 velocity: 110
@79182 Channel: 8 Note off, A4 key=69 velocity: 110
@79201 Channel: 8 Note on, A4 key=69 velocity: 127
@79239 Channel: 8 Note off, A4 key=69 velocity: 127
@79261 Channel: 8 Note on, A4 key=69 velocity: 105
@79301 Channel: 8 Note off, A4 key=69 velocity: 105
@79321 Channel: 8 Note on, A4 key=69 velocity: 107
@79360 Channel: 8 Note off, A4 key=69 velocity: 107
@79381 Channel: 8 Note on, A4 key=69 velocity: 102
@79420 Channel: 8 Note off, A4 key=69 velocity: 102
@79440 Channel: 8 Note on, A4 key=69 velocity: 127
@79480 Channel: 8 Note off, A4 key=69 velocity: 127
@79500 Channel: 8 Note on, A4 key=69 velocity: 105
@79540 Channel: 8 Note off, A4 key=69 velocity: 105
@79559 Channel: 8 Note on, A4 key=69 velocity: 107
@79600 Channel: 8 Note off, A4 key=69 velocity: 107
@79620 Channel: 8 Note on, A4 key=69 velocity: 102
@79660 Channel: 8 Note off, A4 key=69 velocity: 102
@79679 Channel: 8 Note on, A4 key=69 velocity: 127
@79720 Channel: 8 Note off, A4 key=69 velocity: 127
@79741 Channel: 8 Note on, A4 key=69 velocity: 105
@79781 Channel: 8 Note off, A4 key=69 velocity: 105
@79801 Channel: 8 Note on, A4 key=69 velocity: 110
@79841 Channel: 8 Note off, A4 key=69 velocity: 110
@79862 Channel: 8 Note on, A4 key=69 velocity: 105
@79902 Channel: 8 Note off, A4 key=69 velocity: 105
@79923 Channel: 8 Note on, A4 key=69 velocity: 127
@79963 Channel: 8 Note off, A4 key=69 velocity: 127
@79983 Channel: 8 Note on, A4 key=69 velocity: 108
@80023 Channel: 8 Note off, A4 key=69 velocity: 108
@80043 Channel: 8 Note on, A4 key=69 velocity: 110
@80082 Channel: 8 Note off, A4 key=69 velocity: 110
@80103 Channel: 8 Note on, A4 key=69 velocity: 107
@80142 Channel: 8 Note off, A4 key=69 velocity: 107
@80163 Channel: 8 Note on, A4 key=69 velocity: 127
@80204 Channel: 8 Note off, A4 key=69 velocity: 127
@80223 Channel: 8 Note on, A4 key=69 velocity: 107
@80263 Channel: 8 Note off, A4 key=69 velocity: 107
@80282 Channel: 8 Note on, A4 key=69 velocity: 110
@80322 Channel: 8 Note off, A4 key=69 velocity: 110
@80342 Channel: 8 Note on, A4 key=69 velocity: 108
@80381 Channel: 8 Note off, A4 key=69 velocity: 108
@80401 Channel: 8 Note on, A4 key=69 velocity: 127
@80442 Channel: 8 Note off, A4 key=69 velocity: 127
@80462 Channel: 8 Note on, A4 key=69 velocity: 112
@80502 Channel: 8 Note off, A4 key=69 velocity: 112
@80522 Channel: 8 Note on, A4 key=69 velocity: 110
@80562 Channel: 8 Note off, A4 key=69 velocity: 110
@80581 Channel: 8 Note on, A4 key=69 velocity: 110
@80622 Channel: 8 Note off, A4 key=69 velocity: 110
@80641 Channel: 8 Note on, A4 key=69 velocity: 127
@80679 Channel: 8 Note off, A4 key=69 velocity: 127
@80701 Channel: 8 Note on, A4 key=69 velocity: 105
@80741 Channel: 8 Note off, A4 key=69 velocity: 105
@80761 Channel: 8 Note on, A4 key=69 velocity: 107
@80800 Channel: 8 Note off, A4 key=69 velocity: 107
@80821 Channel: 8 Note on, A4 key=69 velocity: 102
@80860 Channel: 8 Note off, A4 key=69 velocity: 102
@80880 Channel: 8 Note on, A4 key=69 velocity: 127
@80920 Channel: 8 Note off, A4 key=69 velocity: 127
@80940 Channel: 8 Note on, A4 key=69 velocity: 105
@80980 Channel: 8 Note off, A4 key=69 velocity: 105
@80999 Channel: 8 Note on, A4 key=69 velocity: 107
@81040 Channel: 8 Note off, A4 key=69 velocity: 107
@81060 Channel: 8 Note on, A4 key=69 velocity: 102
@81100 Channel: 8 Note off, A4 key=69 velocity: 102
@81119 Channel: 8 Note on, A4 key=69 velocity: 127
@81160 Channel: 8 Note off, A4 key=69 velocity: 127
@81181 Channel: 8 Note on, A4 key=69 velocity: 105
@81221 Channel: 8 Note off, A4 key=69 velocity: 105
@81241 Channel: 8 Note on, A4 key=69 velocity: 110
@81281 Channel: 8 Note off, A4 key=69 velocity: 110
@81302 Channel: 8 Note on, A4 key=69 velocity: 105
@81342 Channel: 8 Note off, A4 key=69 velocity: 105
@81363 Channel: 8 Note on, A4 key=69 velocity: 127
@81403 Channel: 8 Note off, A4 key=69 velocity: 127
@81423 Channel: 8 Note on, A4 key=69 velocity: 108
@81463 Channel: 8 Note off, A4 key=69 velocity: 108
@81483 Channel: 8 Note on, A4 key=69 velocity: 110
@81522 Channel: 8 Note off, A4 key=69 velocity: 110
@81543 Channel: 8 Note on, A4 key=69 velocity: 107
@81582 Channel: 8 Note off, A4 key=69 velocity: 107
@81603 Channel: 8 Note on, A4 key=69 velocity: 127
@81644 Channel: 8 Note off, A4 key=69 velocity: 127
@81663 Channel: 8 Note on, A4 key=69 velocity: 107
@81703 Channel: 8 Note off, A4 key=69 velocity: 107
@81722 Channel: 8 Note on, A4 key=69 velocity: 110
@81762 Channel: 8 Note off, A4 key=69 velocity: 110
@81782 Channel: 8 Note on, A4 key=69 velocity: 108
@81821 Channel: 8 Note off, A4 key=69 velocity: 108
@81841 Channel: 8 Note on, A4 key=69 velocity: 127
@81882 Channel: 8 Note off, A4 key=69 velocity: 127
@81902 Channel: 8 Note on, A4 key=69 velocity: 112
@81942 Channel: 8 Note off, A4 key=69 velocity: 112
@81962 Channel: 8 Note on, A4 key=69 velocity: 110
@82002 Channel: 8 Note off, A4 key=69 velocity: 110
@82021 Channel: 8 Note on, A4 key=69 velocity: 110
@82062 Channel: 8 Note off, A4 key=69 velocity: 110
@82081 Channel: 8 Note on, A4 key=69 velocity: 127
@82119 Channel: 8 Note off, A4 key=69 velocity: 127
@82141 Channel: 8 Note on, A4 key=69 velocity: 105
@82181 Channel: 8 Note off, A4 key=69 velocity: 105
@82201 Channel: 8 Note on, A4 key=69 velocity: 107
@82240 Channel: 8 Note off, A4 key=69 velocity: 107
@82261 Channel: 8 Note on, A4 key=69 velocity: 102
@82300 Channel: 8 Note off, A4 key=69 velocity: 102
@82320 Channel: 8 Note on, A4 key=69 velocity: 127
@82360 Channel: 8 Note off, A4 key=69 velocity: 127
@82380 Channel: 8 Note on, A4 key=69 velocity: 105
@82420 Channel: 8 Note off, A4 key=69 velocity: 105
@82439 Channel: 8 Note on, A4 key=69 velocity: 107
@82480 Channel: 8 Note off, A4 key=69 velocity: 107
@82500 Channel: 8 Note on, A4 key=69 velocity: 102
@82540 Channel: 8 Note off, A4 key=69 velocity: 102
@82559 Channel: 8 Note on, A4 key=69 velocity: 127
@82600 Channel: 8 Note off, A4 key=69 velocity: 127
@82621 Channel: 8 Note on, A4 key=69 velocity: 105
@82661 Channel: 8 Note off, A4 key=69 velocity: 105
@82681 Channel: 8 Note on, A4 key=69 velocity: 110
@82721 Channel: 8 Note off, A4 key=69 velocity: 110
@82742 Channel: 8 Note on, A4 key=69 velocity: 105
@82782 Channel: 8 Note off, A4 key=69 velocity: 105
@82803 Channel: 8 Note on, A4 key=69 velocity: 127
@82843 Channel: 8 Note off, A4 key=69 velocity: 127
@82863 Channel: 8 Note on, A4 key=69 velocity: 108
@82903 Channel: 8 Note off, A4 key=69 velocity: 108
@82923 Channel: 8 Note on, A4 key=69 velocity: 110
@82962 Channel: 8 Note off, A4 key=69 velocity: 110
@82983 Channel: 8 Note on, A4 key=69 velocity: 107
@83022 Channel: 8 Note off, A4 key=69 velocity: 107
@83043 Channel: 8 Note on, A4 key=69 velocity: 127
@83084 Channel: 8 Note off, A4 key=69 velocity: 127
@83103 Channel: 8 Note on, A4 key=69 velocity: 107
@83143 Channel: 8 Note off, A4 key=69 velocity: 107
@83162 Channel: 8 Note on, A4 key=69 velocity: 110
@83202 Channel: 8 Note off, A4 key=69 velocity: 110
@83222 Channel: 8 Note on, A4 key=69 velocity: 108
@83261 Channel: 8 Note off, A4 key=69 velocity: 108
@83281 Channel: 8 Note on, A4 key=69 velocity: 127
@83322 Channel: 8 Note off, A4 key=69 velocity: 127
@83342 Channel: 8 Note on, A4 key=69 velocity: 112
@83382 Channel: 8 Note off, A4 key=69 velocity: 112
@83402 Channel: 8 Note on, A4 key=69 velocity: 110
@83442 Channel: 8 Note off, A4 key=69 velocity: 110
@83461 Channel: 8 Note on, A4 key=69 velocity: 110
@83502 Channel: 8 Note off, A4 key=69 velocity: 110
@83521 Channel: 8 Note on, A4 key=69 velocity: 127
@83559 Channel: 8 Note off, A4 key=69 velocity: 127
@83581 Channel: 8 Note on, A4 key=69 velocity: 105
@83621 Channel: 8 Note off, A4 key=69 velocity: 105
@83641 Channel: 8 Note on, A4 key=69 velocity: 107
@83680 Channel: 8 Note off, A4 key=69 velocity: 107
@83701 Channel: 8 Note on, A4 key=69 velocity: 102
@83740 Channel: 8 Note off, A4 key=69 velocity: 102
@83760 Channel: 8 Note on, A4 key=69 velocity: 127
@83800 Channel: 8 Note off, A4 key=69 velocity: 127
@83820 Channel: 8 Note on, A4 key=69 velocity: 105
@83860 Channel: 8 Note off, A4 key=69 velocity: 105
@83879 Channel: 8 Note on, A4 key=69 velocity: 107
@83920 Channel: 8 Note off, A4 key=69 velocity: 107
@83940 Channel: 8 Note on, A4 key=69 velocity: 102
@83980 Channel: 8 Note off, A4 key=69 velocity: 102
@83999 Channel: 8 Note on, A4 key=69 velocity: 127
@84040 Channel: 8 Note off, A4 key=69 velocity: 127
@84061 Channel: 8 Note on, A4 key=69 velocity: 105
@84101 Channel: 8 Note off, A4 key=69 velocity: 105
@84121 Channel: 8 Note on, A4 key=69 velocity: 110
@84161 Channel: 8 Note off, A4 key=69 velocity: 110
@84182 Channel: 8 Note on, A4 key=69 velocity: 105
@84222 Channel: 8 Note off, A4 key=69 velocity: 105
@84243 Channel: 8 Note on, A4 key=69 velocity: 127
@84283 Channel: 8 Note off, A4 key=69 velocity: 127
@84303 Channel: 8 Note on, A4 key=69 velocity: 108
@84343 Channel: 8 Note off, A4 key=69 velocity: 108
@84363 Channel: 8 Note on, A4 key=69 velocity: 110
@84402 Channel: 8 Note off, A4 key=69 velocity: 110
@84423 Channel: 8 Note on, A4 key=69 velocity: 107
@84462 Channel: 8 Note off, A4 key=69 velocity: 107
@84483 Channel: 8 Note on, A4 key=69 velocity: 127
@84524 Channel: 8 Note off, A4 key=69 velocity: 127
@84543 Channel: 8 Note on, A4 key=69 velocity: 107
@84583 Channel: 8 Note off, A4 key=69 velocity: 107
@84602 Channel: 8 Note on, A4 key=69 velocity: 110
@84642 Channel: 8 Note off, A4 key=69 velocity: 110
@84662 Channel: 8 Note on, A4 key=69 velocity: 108
@84701 Channel: 8 Note off, A4 key=69 velocity: 108
@84721 Channel: 8 Note on, A4 key=69 velocity: 127
@84762 Channel: 8 Note off, A4 key=69 velocity: 127
@84782 Channel: 8 Note on, A4 key=69 velocity: 112
@84822 Channel: 8 Note off, A4 key=69 velocity: 112
@84842 Channel: 8 Note on, A4 key=69 velocity: 110
@84882 Channel: 8 Note off, A4 key=69 velocity: 110
@84901 Channel: 8 Note on, A4 key=69 velocity: 110
@84942 Channel: 8 Note off, A4 key=69 velocity: 110
@84961 Channel: 8 Note on, A4 key=69 velocity: 127
@84999 Channel: 8 Note off, A4 key=69 velocity: 127
@85021 Channel: 8 Note on, A4 key=69 velocity: 105
@85061 Channel: 8 Note off, A4 key=69 velocity: 105
@85081 Channel: 8 Note on, A4 key=69 velocity: 107
@85120 Channel: 8 Note off, A4 key=69 velocity: 107
@85141 Channel: 8 Note on, A4 key=69 velocity: 102
@85180 Channel: 8 Note off, A4 key=69 velocity: 102
@85200 Channel: 8 Note on, A4 key=69 velocity: 127
@85240 Channel: 8 Note off, A4 key=69 velocity: 127
@85260 Channel: 8 Note on, A4 key=69 velocity: 105
@85300 Channel: 8 Note off, A4 key=69 velocity: 105
@85319 Channel: 8 Note on, A4 key=69 velocity: 107
@85360 Channel: 8 Note off, A4 key=69 velocity: 107
@85380 Channel: 8 Note on, A4 key=69 velocity: 102
@85420 Channel: 8 Note off, A4 key=69 velocity: 102
@85439 Channel: 8 Note on, A4 key=69 velocity: 127
@85480 Channel: 8 Note off, A4 key=69 velocity: 127
@85501 Channel: 8 Note on, A4 key=69 velocity: 105
@85541 Channel: 8 Note off, A4 key=69 velocity: 105
@85561 Channel: 8 Note on, A4 key=69 velocity: 110
@85601 Channel: 8 Note off, A4 key=69 velocity: 110
@85622 Channel: 8 Note on, A4 key=69 velocity: 105
@85662 Channel: 8 Note off, A4 key=69 velocity: 105
@85683 Channel: 8 Note on, A4 key=69 velocity: 127
@85723 Channel: 8 Note off, A4 key=69 velocity: 127
@85743 Channel: 8 Note on, A4 key=69 velocity: 108
@85783 Channel: 8 Note off, A4 key=69 velocity: 108
@85803 Channel: 8 Note on, A4 key=69 velocity: 110
@85842 Channel: 8 Note off, A4 key=69 velocity: 110
@85863 Channel: 8 Note on, A4 key=69 velocity: 107
@85902 Channel: 8 Note off, A4 key=69 velocity: 107
@85923 Channel: 8 Note on, A4 key=69 velocity: 127
@85964 Channel: 8 Note off, A4 key=69 velocity: 127
@85983 Channel: 8 Note on, A4 key=69 velocity: 107
@86023 Channel: 8 Note off, A4 key=69 velocity: 107
@86042 Channel: 8 Note on, A4 key=69 velocity: 110
@86082 Channel: 8 Note off, A4 key=69 velocity: 110
@86102 Channel: 8 Note on, A4 key=69 velocity: 108
@86141 Channel: 8 Note off, A4 key=69 velocity: 108
@86161 Channel: 8 Note on, A4 key=69 velocity: 127
@86202 Channel: 8 Note off, A4 key=69 velocity: 127
@86222 Channel: 8 Note on, A4 key=69 velocity: 112
@86262 Channel: 8 Note off, A4 key=69 velocity: 112
@86282 Channel: 8 Note on, A4 key=69 velocity: 110
@86322 Channel: 8 Note off, A4 key=69 velocity: 110
@86341 Channel: 8 Note on, A4 key=69 velocity: 110
@86382 Channel: 8 Note off, A4 key=69 velocity: 110
@108000 Channel: 8 Command:176
@108529 Channel: 8 Command:176
@108653 Channel: 8 Command:176
@108689 Channel: 8 Command:176
@108721 Channel: 8 Note on, A4 key=69 velocity: 127
@108762 Channel: 8 Note off, A4 key=69 velocity: 127
@108770 Channel: 8 Command:176
@108782 Channel: 8 Note on, A4 key=69 velocity: 94
@108824 Channel: 8 Note off, A4 key=69 velocity: 94
@108843 Channel: 8 Note on, A4 key=69 velocity: 107
@108885 Channel: 8 Note off, A4 key=69 velocity: 107
@108902 Channel: 8 Command:176
@108903 Channel: 8 Note on, A4 key=69 velocity: 98
@108942 Channel: 8 Note off, A4 key=69 velocity: 98
@108964 Channel: 8 Note on, A4 key=69 velocity: 127
@109005 Channel: 8 Note off, A4 key=69 velocity: 127
@109023 Channel: 8 Note on, A4 key=69 velocity: 93
@109063 Channel: 8 Note off, A4 key=69 velocity: 93
@109071 Channel: 8 Command:176
@109082 Channel: 8 Note on, A4 key=69 velocity: 107
@109124 Channel: 8 Note off, A4 key=69 velocity: 107
@109142 Channel: 8 Note on, A4 key=69 velocity: 110
@109143 Channel: 8 Command:176
@109183 Channel: 8 Note off, A4 key=69 velocity: 110
@109203 Channel: 8 Note on, A4 key=69 velocity: 127
@109241 Channel: 8 Command:176
@109245 Channel: 8 Note off, A4 key=69 velocity: 127
@109262 Channel: 8 Note on, A4 key=69 velocity: 110
@109285 Channel: 8 Command:176
@109303 Channel: 8 Note off, A4 key=69 velocity: 110
@109321 Channel: 8 Note on, A4 key=69 velocity: 110
@109357 Channel: 8 Command:176
@109362 Channel: 8 Note off, A4 key=69 velocity: 110
@109381 Channel: 8 Note on, A4 key=69 velocity: 112
@109401 Channel: 8 Command:176
@109424 Channel: 8 Note off, A4 key=69 velocity: 112
@109428 Channel: 8 Command:176
@109441 Channel: 8 Note on, A4 key=69 velocity: 127
@109463 Channel: 8 Command:176
@109479 Channel: 8 Note off, A4 key=69 velocity: 127
@109501 Channel: 8 Note on, A4 key=69 velocity: 105
@109541 Channel: 8 Note off, A4 key=69 velocity: 105
@109561 Channel: 8 Note on, A4 key=69 velocity: 107
@109579 Channel: 8 Command:176
@109600 Channel: 8 Note off, A4 key=69 velocity: 107
@109621 Channel: 8 Note on, A4 key=69 velocity: 102
@109623 Channel: 8 Command:176
@109660 Channel: 8 Note off, A4 key=69 velocity: 102
@109668 Channel: 8 Command:176
@109680 Channel: 8 Note on, A4 key=69 velocity: 127
@109720 Channel: 8 Note off, A4 key=69 velocity: 127
@109740 Channel: 8 Note on, A4 key=69 velocity: 105
@109748 Channel: 8 Command:176
@109780 Channel: 8 Note off, A4 key=69 velocity: 105
@109799 Channel: 8 Note on, A4 key=69 velocity: 107
@109801 Channel: 8 Command:176
@109840 Channel: 8 Note off, A4 key=69 velocity: 107
@109860 Channel: 8 Note on, A4 key=69 velocity: 102
@109864 Channel: 8 Command:176
@109899 Channel: 8 Command:176
@109900 Channel: 8 Note off, A4 key=69 velocity: 102
@109919 Channel: 8 Note on, A4 key=69 velocity: 127
@109926 Channel: 8 Command:176
@109953 Channel: 8 Command:176
@109960 Channel: 8 Note off, A4 key=69 velocity: 127
@109981 Channel: 8 Note on, A4 key=69 velocity: 105
@109992 Channel: 8 Command:176
@110021 Channel: 8 Note off, A4 key=69 velocity: 105
@110041 Channel: 8 Note on, A4 key=69 velocity: 110
@110051 Channel: 8 Command:176
@110081 Channel: 8 Note off, A4 key=69 velocity: 110
@110102 Channel: 8 Note on, A4 key=69 velocity: 105
@110142 Channel: 8 Note off, A4 key=69 velocity: 105
@110163 Channel: 8 Note on, A4 key=69 velocity: 127
@110203 Channel: 8 Note off, A4 key=69 velocity: 127
@110223 Channel: 8 Note on, A4 key=69 velocity: 108
@110263 Channel: 8 Note off, A4 key=69 velocity: 108
@110283 Channel: 8 Note on, A4 key=69 velocity: 110
@110322 Channel: 8 Note off, A4 key=69 velocity: 110
@110343 Channel: 8 Note on, A4 key=69 velocity: 107
@110382 Channel: 8 Note off, A4 key=69 velocity: 107
@110403 Channel: 8 Note on, A4 key=69 velocity: 127
@110444 Channel: 8 Note off, A4 key=69 velocity: 127
@110463 Channel: 8 Note on, A4 key=69 velocity: 107
@110503 Channel: 8 Note off, A4 key=69 velocity: 107
@110522 Channel: 8 Note on, A4 key=69 velocity: 110
@110562 Channel: 8 Note off, A4 key=69 velocity: 110
@110582 Channel: 8 Note on, A4 key=69 velocity: 108
@110621 Channel: 8 Note off, A4 key=69 velocity: 108
@110641 Channel: 8 Note on, A4 key=69 velocity: 127
@110682 Channel: 8 Note off, A4 key=69 velocity: 127
@110702 Channel: 8 Note on, A4 key=69 velocity: 112
@110742 Channel: 8 Note off, A4 key=69 velocity: 112
@110762 Channel: 8 Note on, A4 key=69 velocity: 110
@110802 Channel: 8 Note off, A4 key=69 velocity: 110
@110821 Channel: 8 Note on, A4 key=69 velocity: 110
@110862 Channel: 8 Note off, A4 key=69 velocity: 110
@110880 Channel: 8 Command:176
@110881 Channel: 8 Note on, A4 key=69 velocity: 127
@110919 Channel: 8 Note off, A4 key=69 velocity: 127
@110941 Channel: 8 Note on, A4 key=69 velocity: 105
@110981 Channel: 8 Note off, A4 key=69 velocity: 105
@111001 Channel: 8 Note on, A4 key=69 velocity: 107
@111040 Channel: 8 Note off, A4 key=69 velocity: 107
@111061 Channel: 8 Note on, A4 key=69 velocity: 102
@111100 Channel: 8 Note off, A4 key=69 velocity: 102
@111120 Channel: 8 Note on, A4 key=69 velocity: 127
@111160 Channel: 8 Note off, A4 key=69 velocity: 127
@111180 Channel: 8 Note on, A4 key=69 velocity: 105
@111220 Channel: 8 Note off, A4 key=69 velocity: 105
@111239 Channel: 8 Note on, A4 key=69 velocity: 107
@111280 Channel: 8 Note off, A4 key=69 velocity: 107
@111300 Channel: 8 Note on, A4 key=69 velocity: 102
@111340 Channel: 8 Note off, A4 key=69 velocity: 102
@111359 Channel: 8 Note on, A4 key=69 velocity: 127
@111400 Channel: 8 Note off, A4 key=69 velocity: 127
@111421 Channel: 8 Note on, A4 key=69 velocity: 105
@111461 Channel: 8 Note off, A4 key=69 velocity: 105
@111481 Channel: 8 Note on, A4 key=69 velocity: 110
@111521 Channel: 8 Note off, A4 key=69 velocity: 110
@111542 Channel: 8 Note on, A4 key=69 velocity: 105
@111582 Channel: 8 Note off, A4 key=69 velocity: 105
@111603 Channel: 8 Note on, A4 key=69 velocity: 127
@111643 Channel: 8 Note off, A4 key=69 velocity: 127
@111663 Channel: 8 Note on, A4 key=69 velocity: 108
@111703 Channel: 8 Note off, A4 key=69 velocity: 108
@111723 Channel: 8 Note on, A4 key=69 velocity: 110
@111762 Channel: 8 Note off, A4 key=69 velocity: 110
@111783 Channel: 8 Note on, A4 key=69 velocity: 107
@111822 Channel: 8 Note off, A4 key=69 velocity: 107
@111843 Channel: 8 Note on, A4 key=69 velocity: 127
@111884 Channel: 8 Note off, A4 key=69 velocity: 127
@111903 Channel: 8 Note on, A4 key=69 velocity: 107
@111943 Channel: 8 Note off, A4 key=69 velocity: 107
@111962 Channel: 8 Note on, A4 key=69 velocity: 110
@112002 Channel: 8 Note off, A4 key=69 velocity: 110
@112022 Channel: 8 Note on, A4 key=69 velocity: 108
@112061 Channel: 8 Note off, A4 key=69 velocity: 108
@112081 Channel: 8 Note on, A4 key=69 velocity: 127
@112122 Channel: 8 Note off, A4 key=69 velocity: 127
@112142 Channel: 8 Note on, A4 key=69 velocity: 112
@112182 Channel: 8 Note off, A4 key=69 velocity: 112
@112202 Channel: 8 Note on, A4 key=69 velocity: 110
@112242 Channel: 8 Note off, A4 key=69 velocity: 110
@112261 Channel: 8 Note on, A4 key=69 velocity: 110
@112302 Channel: 8 Note off, A4 key=69 velocity: 110
@112321 Channel: 8 Note on, A4 key=69 velocity: 127
@112359 Channel: 8 Note off, A4 key=69 velocity: 127
@112381 Channel: 8 Note on, A4 key=69 velocity: 105
@112421 Channel: 8 Note off, A4 key=69 velocity: 105
@112441 Channel: 8 Note on, A4 key=69 velocity: 107
@112480 Channel: 8 Note off, A4 key=69 velocity: 107
@112501 Channel: 8 Note on, A4 key=69 velocity: 102
@112540 Channel: 8 Note off, A4 key=69 velocity: 102
@112560 Channel: 8 Note on, A4 key=69 velocity: 127
@112600 Channel: 8 Note off, A4 key=69 velocity: 127
@112620 Channel: 8 Note on, A4 key=69 velocity: 105
@112660 Channel: 8 Note off, A4 key=69 velocity: 105
@112679 Channel: 8 Note on, A4 key=69 velocity: 107
@112720 Channel: 8 Note off, A4 key=69 velocity: 107
@112740 Channel: 8 Note on, A4 key=69 velocity: 102
@112780 Channel: 8 Note off, A4 key=69 velocity: 102
@112799 Channel: 8 Note on, A4 key=69 velocity: 127
@112840 Channel: 8 Note off, A4 key=69 velocity: 127
@112861 Channel: 8 Note on, A4 key=69 velocity: 105
@112901 Channel: 8 Note off, A4 key=69 velocity: 105
@112921 Channel: 8 Note on, A4 key=69 velocity: 110
@112961 Channel: 8 Note off, A4 key=69 velocity: 110
@112982 Channel: 8 Note on, A4 key=69 velocity: 105
@113022 Channel: 8 Note off, A4 key=69 velocity: 105
@113043 Channel: 8 Note on, A4 key=69 velocity: 127
@113083 Channel: 8 Note off, A4 key=69 velocity: 127
@113103 Channel: 8 Note on, A4 key=69 velocity: 108
@113143 Channel: 8 Note off, A4 key=69 velocity: 108
@113163 Channel: 8 Note on, A4 key=69 velocity: 110
@113202 Channel: 8 Note off, A4 key=69 velocity: 110
@113223 Channel: 8 Note on, A4 key=69 velocity: 107
@113262 Channel: 8 Note off, A4 key=69 velocity: 107
@113283 Channel: 8 Note on, A4 key=69 velocity: 127
@113324 Channel: 8 Note off, A4 key=69 velocity: 127
@113343 Channel: 8 Note on, A4 key=69 velocity: 107
@113383 Channel: 8 Note off, A4 key=69 velocity: 107
@113402 Channel: 8 Note on, A4 key=69 velocity: 110
@113442 Channel: 8 Note off, A4 key=69 velocity: 110
@113462 Channel: 8 Note on, A4 key=69 velocity: 108
@113501 Channel: 8 Note off, A4 key=69 velocity: 108
@113521 Channel: 8 Note on, A4 key=69 velocity: 127
@113562 Channel: 8 Note off, A4 key=69 velocity: 127
@113582 Channel: 8 Note on, A4 key=69 velocity: 112
@113622 Channel: 8 Note off, A4 key=69 velocity: 112
@113642 Channel: 8 Note on, A4 key=69 velocity: 110
@113682 Channel: 8 Note off, A4 key=69 velocity: 110
@113701 Channel: 8 Note on, A4 key=69 velocity: 110
@113742 Channel: 8 Note off, A4 key=69 velocity: 110
@113761 Channel: 8 Note on, A4 key=69 velocity: 127
@113799 Channel: 8 Note off, A4 key=69 velocity: 127
@113821 Channel: 8 Note on, A4 key=69 velocity: 105
@113861 Channel: 8 Note off, A4 key=69 velocity: 105
@113881 Channel: 8 Note on, A4 key=69 velocity: 107
@113920 Channel: 8 Note off, A4 key=69 velocity: 107
@113941 Channel: 8 Note on, A4 key=69 velocity: 102
@113980 Channel: 8 Note off, A4 key=69 velocity: 102
@114000 Channel: 8 Note on, A4 key=69 velocity: 127
@114040 Channel: 8 Note off, A4 key=69 velocity: 127
@114060 Channel: 8 Note on, A4 key=69 velocity: 105
@114100 Channel: 8 Note off, A4 key=69 velocity: 105
@114119 Channel: 8 Note on, A4 key=69 velocity: 107
@114160 Channel: 8 Note off, A4 key=69 velocity: 107
@114180 Channel: 8 Note on, A4 key=69 velocity: 102
@114220 Channel: 8 Note off, A4 key=69 velocity: 102
@114239 Channel: 8 Note on, A4 key=69 velocity: 127
@114280 Channel: 8 Note off, A4 key=69 velocity: 127
@114301 Channel: 8 Note on, A4 key=69 velocity: 105
@114341 Channel: 8 Note off, A4 key=69 velocity: 105
@114361 Channel: 8 Note on, A4 key=69 velocity: 110
@114401 Channel: 8 Note off, A4 key=69 velocity: 110
@114422 Channel: 8 Note on, A4 key=69 velocity: 105
@114462 Channel: 8 Note off, A4 key=69 velocity: 105
@114483 Channel: 8 Note on, A4 key=69 velocity: 127
@114523 Channel: 8 Note off, A4 key=69 velocity: 127
@114543 Channel: 8 Note on, A4 key=69 velocity: 108
@114583 Channel: 8 Note off, A4 key=69 velocity: 108
@114603 Channel: 8 Note on, A4 key=69 velocity: 110
@114642 Channel: 8 Note off, A4 key=69 velocity: 110
@114663 Channel: 8 Note on, A4 key=69 velocity: 107
@114702 Channel: 8 Note off, A4 key=69 velocity: 107
@114723 Channel: 8 Note on, A4 key=69 velocity: 127
@114764 Channel: 8 Note off, A4 key=69 velocity: 127
@114783 Channel: 8 Note on, A4 key=69 velocity: 107
@114823 Channel: 8 Note off, A4 key=69 velocity: 107
@114842 Channel: 8 Note on, A4 key=69 velocity: 110
@114882 Channel: 8 Note off, A4 key=69 velocity: 110
@114902 Channel: 8 Note on, A4 key=69 velocity: 108
@114941 Channel: 8 Note off, A4 key=69 velocity: 108
@114961 Channel: 8 Note on, A4 key=69 velocity: 127
@115002 Channel: 8 Note off, A4 key=69 velocity: 127
@115022 Channel: 8 Note on, A4 key=69 velocity: 112
@115062 Channel: 8 Note off, A4 key=69 velocity: 112
@115082 Channel: 8 Note on, A4 key=69 velocity: 110
@115122 Channel: 8 Note off, A4 key=69 velocity: 110
@115141 Channel: 8 Note on, A4 key=69 velocity: 110
@115182 Channel: 8 Note off, A4 key=69 velocity: 110
@115201 Channel: 8 Note on, A4 key=69 velocity: 127
@115239 Channel: 8 Note off, A4 key=69 velocity: 127
@115261 Channel: 8 Note on, A4 key=69 velocity: 105
@115301 Channel: 8 Note off, A4 key=69 velocity: 105
@115321 Channel: 8 Note on, A4 key=69 velocity: 107
@115360 Channel: 8 Note off, A4 key=69 velocity: 107
@115381 Channel: 8 Note on, A4 key=69 velocity: 102
@115420 Channel: 8 Note off, A4 key=69 velocity: 102
@115440 Channel: 8 Note on, A4 key=69 velocity: 127
@115480 Channel: 8 Note off, A4 key=69 velocity: 127
@115500 Channel: 8 Note on, A4 key=69 velocity: 105
@115540 Channel: 8 Note off, A4 key=69 velocity: 105
@115559 Channel: 8 Note on, A4 key=69 velocity: 107
@115600 Channel: 8 Note off, A4 key=69 velocity: 107
@115620 Channel: 8 Note on, A4 key=69 velocity: 102
@115660 Channel: 8 Note off, A4 key=69 velocity: 102
@115679 Channel: 8 Note on, A4 key=69 velocity: 127
@115720 Channel: 8 Note off, A4 key=69 velocity: 127
@115741 Channel: 8 Note on, A4 key=69 velocity: 105
@115781 Channel: 8 Note off, A4 key=69 velocity: 105
@115801 Channel: 8 Note on, A4 key=69 velocity: 110
@115841 Channel: 8 Note off, A4 key=69 velocity: 110
@115862 Channel: 8 Note on, A4 key=69 velocity: 105
@115902 Channel: 8 Note off, A4 key=69 velocity: 105
@115923 Channel: 8 Note on, A4 key=69 velocity: 127
@115963 Channel: 8 Note off, A4 key=69 velocity: 127
@115983 Channel: 8 Note on, A4 key=69 velocity: 108
@116023 Channel: 8 Note off, A4 key=69 velocity: 108
@116043 Channel: 8 Note on, A4 key=69 velocity: 110
@116082 Channel: 8 Note off, A4 key=69 velocity: 110
@116103 Channel: 8 Note on, A4 key=69 velocity: 107
@116142 Channel: 8 Note off, A4 key=69 velocity: 107
@116163 Channel: 8 Note on, A4 key=69 velocity: 127
@116204 Channel: 8 Note off, A4 key=69 velocity: 127
@116223 Channel: 8 Note on, A4 key=69 velocity: 107
@116263 Channel: 8 Note off, A4 key=69 velocity: 107
@116282 Channel: 8 Note on, A4 key=69 velocity: 110
@116322 Channel: 8 Note off, A4 key=69 velocity: 110
@116342 Channel: 8 Note on, A4 key=69 velocity: 108
@116381 Channel: 8 Note off, A4 key=69 velocity: 108
@116401 Channel: 8 Note on, A4 key=69 velocity: 127
@116442 Channel: 8 Note off, A4 key=69 velocity: 127
@116462 Channel: 8 Note on, A4 key=69 velocity: 112
@116502 Channel: 8 Note off, A4 key=69 velocity: 112
@116522 Channel: 8 Note on, A4 key=69 velocity: 110
@116562 Channel: 8 Note off, A4 key=69 velocity: 110
@116581 Channel: 8 Note on, A4 key=69 velocity: 110
@116622 Channel: 8 Note off, A4 key=69 velocity: 110
@116641 Channel: 8 Note on, A4 key=69 velocity: 127
@116679 Channel: 8 Note off, A4 key=69 velocity: 127
@116701 Channel: 8 Note on, A4 key=69 velocity: 105
@116741 Channel: 8 Note off, A4 key=69 velocity: 105
@116761 Channel: 8 Note on, A4 key=69 velocity: 107
@116800 Channel: 8 Note off, A4 key=69 velocity: 107
@116821 Channel: 8 Note on, A4 key=69 velocity: 102
@116860 Channel: 8 Note off, A4 key=69 velocity: 102
@116880 Channel: 8 Note on, A4 key=69 velocity: 127
@116920 Channel: 8 Note off, A4 key=69 velocity: 127
@116940 Channel: 8 Note on, A4 key=69 velocity: 105
@116980 Channel: 8 Note off, A4 key=69 velocity: 105
@116999 Channel: 8 Note on, A4 key=69 velocity: 107
@117040 Channel: 8 Note off, A4 key=69 velocity: 107
@117060 Channel: 8 Note on, A4 key=69 velocity: 102
@117100 Channel: 8 Note off, A4 key=69 velocity: 102
@117119 Channel: 8 Note on, A4 key=69 velocity: 127
@117160 Channel: 8 Note off, A4 key=69 velocity: 127
@117181 Channel: 8 Note on, A4 key=69 velocity: 105
@117221 Channel: 8 Note off, A4 key=69 velocity: 105
@117241 Channel: 8 Note on, A4 key=69 velocity: 110
@117281 Channel: 8 Note off, A4 key=69 velocity: 110
@117302 Channel: 8 Note on, A4 key=69 velocity: 105
@117342 Channel: 8 Note off, A4 key=69 velocity: 105
@117363 Channel: 8 Note on, A4 key=69 velocity: 127
@117403 Channel: 8 Note off, A4 key=69 velocity: 127
@117423 Channel: 8 Note on, A4 key=69 velocity: 108
@117463 Channel: 8 Note off, A4 key=69 velocity: 108
@117483 Channel: 8 Note on, A4 key=69 velocity: 110
@117522 Channel: 8 Note off, A4 key=69 velocity: 110
@117543 Channel: 8 Note on, A4 key=69 velocity: 107
@117582 Channel: 8 Note off, A4 key=69 velocity: 107
@117603 Channel: 8 Note on, A4 key=69 velocity: 127
@117644 Channel: 8 Note off, A4 key=69 velocity: 127
@117663 Channel: 8 Note on, A4 key=69 velocity: 107
@117703 Channel: 8 Note off, A4 key=69 velocity: 107
@117722 Channel: 8 Note on, A4 key=69 velocity: 110
@117762 Channel: 8 Note off, A4 key=69 velocity: 110
@117782 Channel: 8 Note on, A4 key=69 velocity: 108
@117821 Channel: 8 Note off, A4 key=69 velocity: 108
@117841 Channel: 8 Note on, A4 key=69 velocity: 127
@117882 Channel: 8 Note off, A4 key=69 velocity: 127
@117902 Channel: 8 Note on, A4 key=69 velocity: 112
@117942 Channel: 8 Note off, A4 key=69 velocity: 112
@117962 Channel: 8 Note on, A4 key=69 velocity: 110
@118002 Channel: 8 Note off, A4 key=69 velocity: 110
@118021 Channel: 8 Note on, A4 key=69 velocity: 110
@118062 Channel: 8 Note off, A4 key=69 velocity: 110
@118081 Channel: 8 Note on, A4 key=69 velocity: 127
@118119 Channel: 8 Note off, A4 key=69 velocity: 127
@118141 Channel: 8 Note on, A4 key=69 velocity: 105
@118181 Channel: 8 Note off, A4 key=69 velocity: 105
@118201 Channel: 8 Note on, A4 key=69 velocity: 107
@118240 Channel: 8 Note off, A4 key=69 velocity: 107
@118261 Channel: 8 Note on, A4 key=69 velocity: 102
@118300 Channel: 8 Note off, A4 key=69 velocity: 102
@118320 Channel: 8 Note on, A4 key=69 velocity: 127
@118360 Channel: 8 Note off, A4 key=69 velocity: 127
@118380 Channel: 8 Note on, A4 key=69 velocity: 105
@118420 Channel: 8 Note off, A4 key=69 velocity: 105
@118439 Channel: 8 Note on, A4 key=69 velocity: 107
@118480 Channel: 8 Note off, A4 key=69 velocity: 107
@118500 Channel: 8 Note on, A4 key=69 velocity: 102
@118540 Channel: 8 Note off, A4 key=69 velocity: 102
@118559 Channel: 8 Note on, A4 key=69 velocity: 127
@118600 Channel: 8 Note off, A4 key=69 velocity: 127
@118621 Channel: 8 Note on, A4 key=69 velocity: 105
@118661 Channel: 8 Note off, A4 key=69 velocity: 105
@118681 Channel: 8 Note on, A4 key=69 velocity: 110
@118721 Channel: 8 Note off, A4 key=69 velocity: 110
@118742 Channel: 8 Note on, A4 key=69 velocity: 105
@118782 Channel: 8 Note off, A4 key=69 velocity: 105
@118803 Channel: 8 Note on, A4 key=69 velocity: 127
@118843 Channel: 8 Note off, A4 key=69 velocity: 127
@118863 Channel: 8 Note on, A4 key=69 velocity: 108
@118903 Channel: 8 Note off, A4 key=69 velocity: 108
@118923 Channel: 8 Note on, A4 key=69 velocity: 110
@118962 Channel: 8 Note off, A4 key=69 velocity: 110
@118983 Channel: 8 Note on, A4 key=69 velocity: 107
@119022 Channel: 8 Note off, A4 key=69 velocity: 107
@119043 Channel: 8 Note on, A4 key=69 velocity: 127
@119084 Channel: 8 Note off, A4 key=69 velocity: 127
@119103 Channel: 8 Note on, A4 key=69 velocity: 107
@119143 Channel: 8 Note off, A4 key=69 velocity: 107
@119162 Channel: 8 Note on, A4 key=69 velocity: 110
@119202 Channel: 8 Note off, A4 key=69 velocity: 110
@119222 Channel: 8 Note on, A4 key=69 velocity: 108
@119261 Channel: 8 Note off, A4 key=69 velocity: 108
@119281 Channel: 8 Note on, A4 key=69 velocity: 127
@119322 Channel: 8 Note off, A4 key=69 velocity: 127
@119342 Channel: 8 Note on, A4 key=69 velocity: 112
@119382 Channel: 8 Note off, A4 key=69 velocity: 112
@119402 Channel: 8 Note on, A4 key=69 velocity: 110
@119442 Channel: 8 Note off, A4 key=69 velocity: 110
@119461 Channel: 8 Note on, A4 key=69 velocity: 110
@119502 Channel: 8 Note off, A4 key=69 velocity: 110
@119521 Channel: 8 Note on, A4 key=69 velocity: 127
@119559 Channel: 8 Note off, A4 key=69 velocity: 127
@119581 Channel: 8 Note on, A4 key=69 velocity: 105
@119621 Channel: 8 Note off, A4 key=69 velocity: 105
@119641 Channel: 8 Note on, A4 key=69 velocity: 107
@119680 Channel: 8 Note off, A4 key=69 velocity: 107
@119701 Channel: 8 Note on, A4 key=69 velocity: 102
@119740 Channel: 8 Note off, A4 key=69 velocity: 102
@119760 Channel: 8 Note on, A4 key=69 velocity: 127
@119800 Channel: 8 Note off, A4 key=69 velocity: 127
@119820 Channel: 8 Note on, A4 key=69 velocity: 105
@119860 Channel: 8 Note off, A4 key=69 velocity: 105
@119879 Channel: 8 Note on, A4 key=69 velocity: 107
@119920 Channel: 8 Note off, A4 key=69 velocity: 107
@119940 Channel: 8 Note on, A4 key=69 velocity: 102
@119980 Channel: 8 Note off, A4 key=69 velocity: 102
@119999 Channel: 8 Note on, A4 key=69 velocity: 127
@120040 Channel: 8 Note off, A4 key=69 velocity: 127
@120061 Channel: 8 Note on, A4 key=69 velocity: 105
@120101 Channel: 8 Note off, A4 key=69 velocity: 105
@120121 Channel: 8 Note on, A4 key=69 velocity: 110
@120161 Channel: 8 Note off, A4 key=69 velocity: 110
@120182 Channel: 8 Note on, A4 key=69 velocity: 105
@120222 Channel: 8 Note off, A4 key=69 velocity: 105
@120243 Channel: 8 Note on, A4 key=69 velocity: 127
@120283 Channel: 8 Note off, A4 key=69 velocity: 127
@120303 Channel: 8 Note on, A4 key=69 velocity: 108
@120343 Channel: 8 Note off, A4 key=69 velocity: 108
@120363 Channel: 8 Note on, A4 key=69 velocity: 110
@120402 Channel: 8 Note off, A4 key=69 velocity: 110
@120423 Channel: 8 Note on, A4 key=69 velocity: 107
@120462 Channel: 8 Note off, A4 key=69 velocity: 107
@120483 Channel: 8 Note on, A4 key=69 velocity: 127
@120524 Channel: 8 Note off, A4 key=69 velocity: 127
@120543 Channel: 8 Note on, A4 key=69 velocity: 107
@120583 Channel: 8 Note off, A4 key=69 velocity: 107
@120602 Channel: 8 Note on, A4 key=69 velocity: 110
@120642 Channel: 8 Note off, A4 key=69 velocity: 110
@120662 Channel: 8 Note on, A4 key=69 velocity: 108
@120701 Channel: 8 Note off, A4 key=69 velocity: 108
@120721 Channel: 8 Note on, A4 key=69 velocity: 127
@120762 Channel: 8 Note off, A4 key=69 velocity: 127
@120782 Channel: 8 Note on, A4 key=69 velocity: 112
@120822 Channel: 8 Note off, A4 key=69 velocity: 112
@120842 Channel: 8 Note on, A4 key=69 velocity: 110
@120882 Channel: 8 Note off, A4 key=69 velocity: 110
@120901 Channel: 8 Note on, A4 key=69 velocity: 110
@120942 Channel: 8 Note off, A4 key=69 velocity: 110
@120961 Channel: 8 Note on, A4 key=69 velocity: 127
@120999 Channel: 8 Note off, A4 key=69 velocity: 127
@121021 Channel: 8 Note on, A4 key=69 velocity: 105
@121061 Channel: 8 Note off, A4 key=69 velocity: 105
@121081 Channel: 8 Note on, A4 key=69 velocity: 107
@121120 Channel: 8 Note off, A4 key=69 velocity: 107
@121141 Channel: 8 Note on, A4 key=69 velocity: 102
@121180 Channel: 8 Note off, A4 key=69 velocity: 102
@121200 Channel: 8 Note on, A4 key=69 velocity: 127
@121240 Channel: 8 Note off, A4 key=69 velocity: 127
@121260 Channel: 8 Note on, A4 key=69 velocity: 105
@121300 Channel: 8 Note off, A4 key=69 velocity: 105
@121319 Channel: 8 Note on, A4 key=69 velocity: 107
@121360 Channel: 8 Note off, A4 key=69 velocity: 107
@121380 Channel: 8 Note on, A4 key=69 velocity: 102
@121420 Channel: 8 Note off, A4 key=69 velocity: 102
@121439 Channel: 8 Note on, A4 key=69 velocity: 127
@121480 Channel: 8 Note off, A4 key=69 velocity: 127
@121501 Channel: 8 Note on, A4 key=69 velocity: 105
@121541 Channel: 8 Note off, A4 key=69 velocity: 105
@121561 Channel: 8 Note on, A4 key=69 velocity: 110
@121601 Channel: 8 Note off, A4 key=69 velocity: 110
@121622 Channel: 8 Note on, A4 key=69 velocity: 105
@121662 Channel: 8 Note off, A4 key=69 velocity: 105
@121683 Channel: 8 Note on, A4 key=69 velocity: 127
@121723 Channel: 8 Note off, A4 key=69 velocity: 127
@121743 Channel: 8 Note on, A4 key=69 velocity: 108
@121783 Channel: 8 Note off, A4 key=69 velocity: 108
@121803 Channel: 8 Note on, A4 key=69 velocity: 110
@121842 Channel: 8 Note off, A4 key=69 velocity: 110
@121863 Channel: 8 Note on, A4 key=69 velocity: 107
@121902 Channel: 8 Note off, A4 key=69 velocity: 107
@121923 Channel: 8 Note on, A4 key=69 velocity: 127
@121964 Channel: 8 Note off, A4 key=69 velocity: 127
@121983 Channel: 8 Note on, A4 key=69 velocity: 107
@122023 Channel: 8 Note off, A4 key=69 velocity: 107
@122042 Channel: 8 Note on, A4 key=69 velocity: 110
@122082 Channel: 8 Note off, A4 key=69 velocity: 110
@122102 Channel: 8 Note on, A4 key=69 velocity: 108
@122141 Channel: 8 Note off, A4 key=69 velocity: 108
@122161 Channel: 8 Note on, A4 key=69 velocity: 127
@122202 Channel: 8 Note off, A4 key=69 velocity: 127
@122222 Channel: 8 Note on, A4 key=69 velocity: 112
@122262 Channel: 8 Note off, A4 key=69 velocity: 112
@122282 Channel: 8 Note on, A4 key=69 velocity: 110
@122322 Channel: 8 Note off, A4 key=69 velocity: 110
@122341 Channel: 8 Note on, A4 key=69 velocity: 110
@122382 Channel: 8 Note off, A4 key=69 velocity: 110
@122400 Channel: 8 Command:176
@122401 Channel: 8 Note on, A4 key=69 velocity: 127
@122439 Channel: 8 Note off, A4 key=69 velocity: 127
@122461 Channel: 8 Note on, A4 key=69 velocity: 105
@122501 Channel: 8 Note off, A4 key=69 velocity: 105
@122521 Channel: 8 Note on, A4 key=69 velocity: 107
@122560 Channel: 8 Note off, A4 key=69 velocity: 107
@122581 Channel: 8 Note on, A4 key=69 velocity: 102
@122620 Channel: 8 Note off, A4 key=69 velocity: 102
@122640 Channel: 8 Note on, A4 key=69 velocity: 127
@122680 Channel: 8 Note off, A4 key=69 velocity: 127
@122700 Channel: 8 Note on, A4 key=69 velocity: 105
@122740 Channel: 8 Note off, A4 key=69 velocity: 105
@122759 Channel: 8 Note on, A4 key=69 velocity: 107
@122800 Channel: 8 Note off, A4 key=69 velocity: 107
@122820 Channel: 8 Note on, A4 key=69 velocity: 102
@122860 Channel: 8 Note off, A4 key=69 velocity: 102
@122879 Channel: 8 Note on, A4 key=69 velocity: 127
@122920 Channel: 8 Note off, A4 key=69 velocity: 127
@122941 Channel: 8 Note on, A4 key=69 velocity: 105
@122981 Channel: 8 Note off, A4 key=69 velocity: 105
@123001 Channel: 8 Note on, A4 key=69 velocity: 110
@123041 Channel: 8 Note off, A4 key=69 velocity: 110
@123062 Channel: 8 Note on, A4 key=69 velocity: 105
@123102 Channel: 8 Note off, A4 key=69 velocity: 105
@123123 Channel: 8 Note on, A4 key=69 velocity: 127
@123163 Channel: 8 Note off, A4 key=69 velocity: 127
@123183 Channel: 8 Note on, A4 key=69 velocity: 108
@123223 Channel: 8 Note off, A4 key=69 velocity: 108
@123243 Channel: 8 Note on, A4 key=69 velocity: 110
@123282 Channel: 8 Note off, A4 key=69 velocity: 110
@123303 Channel: 8 Note on, A4 key=69 velocity: 107
@123342 Channel: 8 Note off, A4 key=69 velocity: 107
@123363 Channel: 8 Note on, A4 key=69 velocity: 127
@123404 Channel: 8 Note off, A4 key=69 velocity: 127
@123423 Channel: 8 Note on, A4 key=69 velocity: 107
@123463 Channel: 8 Note off, A4 key=69 velocity: 107
@123482 Channel: 8 Note on, A4 key=69 velocity: 110
@123522 Channel: 8 Note off, A4 key=69 velocity: 110
@123542 Channel: 8 Note on, A4 key=69 velocity: 108
@123581 Channel: 8 Note off, A4 key=69 velocity: 108
@123601 Channel: 8 Note on, A4 key=69 velocity: 127
@123642 Channel: 8 Note off, A4 key=69 velocity: 127
@123662 Channel: 8 Note on, A4 key=69 velocity: 112
@123702 Channel: 8 Note off, A4 key=69 velocity: 112
@123722 Channel: 8 Note on, A4 key=69 velocity: 110
@123762 Channel: 8 Note off, A4 key=69 velocity: 110
@123781 Channel: 8 Note on, A4 key=69 velocity: 110
@123822 Channel: 8 Note off, A4 key=69 velocity: 110
@123841 Channel: 8 Note on, A4 key=69 velocity: 127
@123879 Channel: 8 Note off, A4 key=69 velocity: 127
@123901 Channel: 8 Note on, A4 key=69 velocity: 105
@123941 Channel: 8 Note off, A4 key=69 velocity: 105
@123961 Channel: 8 Note on, A4 key=69 velocity: 107
@124000 Channel: 8 Note off, A4 key=69 velocity: 107
@124021 Channel: 8 Note on, A4 key=69 velocity: 102
@124060 Channel: 8 Note off, A4 key=69 velocity: 102
@124080 Channel: 8 Note on, A4 key=69 velocity: 127
@124120 Channel: 8 Note off, A4 key=69 velocity: 127
@124140 Channel: 8 Note on, A4 key=69 velocity: 105
@124180 Channel: 8 Note off, A4 key=69 velocity: 105
@124199 Channel: 8 Note on, A4 key=69 velocity: 107
@124240 Channel: 8 Note off, A4 key=69 velocity: 107
@124260 Channel: 8 Note on, A4 key=69 velocity: 102
@124300 Channel: 8 Note off, A4 key=69 velocity: 102
@124319 Channel: 8 Note on, A4 key=69 velocity: 127
@124360 Channel: 8 Note off, A4 key=69 velocity: 127
@124381 Channel: 8 Note on, A4 key=69 velocity: 105
@124421 Channel: 8 Note off, A4 key=69 velocity: 105
@124441 Channel: 8 Note on, A4 key=69 velocity: 110
@124481 Channel: 8 Note off, A4 key=69 velocity: 110
@124502 Channel: 8 Note on, A4 key=69 velocity: 105
@124542 Channel: 8 Note off, A4 key=69 velocity: 105
@124563 Channel: 8 Note on, A4 key=69 velocity: 127
@124603 Channel: 8 Note off, A4 key=69 velocity: 127
@124623 Channel: 8 Note on, A4 key=69 velocity: 108
@124663 Channel: 8 Note off, A4 key=69 velocity: 108
@124683 Channel: 8 Note on, A4 key=69 velocity: 110
@124722 Channel: 8 Note off, A4 key=69 velocity: 110
@124743 Channel: 8 Note on, A4 key=69 velocity: 107
@124782 Channel: 8 Note off, A4 key=69 velocity: 107
@124803 Channel: 8 Note on, A4 key=69 velocity: 127
@124844 Channel: 8 Note off, A4 key=69 velocity: 127
@124863 Channel: 8 Note on, A4 key=69 velocity: 107
@124903 Channel: 8 Note off, A4 key=69 velocity: 107
@124922 Channel: 8 Note on, A4 key=69 velocity: 110
@124962 Channel: 8 Note off, A4 key=69 velocity: 110
@124982 Channel: 8 Note on, A4 key=69 velocity: 108
@125021 Channel: 8 Note off, A4 key=69 velocity: 108
@125041 Channel: 8 Note on, A4 key=69 velocity: 127
@125082 Channel: 8 Note off, A4 key=69 velocity: 127
@125102 Channel: 8 Note on, A4 key=69 velocity: 112
@125142 Channel: 8 Note off, A4 key=69 velocity: 112
@125162 Channel: 8 Note on, A4 key=69 velocity: 110
@125202 Channel: 8 Note off, A4 key=69 velocity: 110
@125221 Channel: 8 Note on, A4 key=69 velocity: 110
@125262 Channel: 8 Note off, A4 key=69 velocity: 110
@125281 Channel: 8 Note on, A4 key=69 velocity: 127
@125319 Channel: 8 Note off, A4 key=69 velocity: 127
@125341 Channel: 8 Note on, A4 key=69 velocity: 105
@125381 Channel: 8 Note off, A4 key=69 velocity: 105
@125401 Channel: 8 Note on, A4 key=69 velocity: 107
@125440 Channel: 8 Note off, A4 key=69 velocity: 107
@125461 Channel: 8 Note on, A4 key=69 velocity: 102
@125500 Channel: 8 Note off, A4 key=69 velocity: 102
@125520 Channel: 8 Note on, A4 key=69 velocity: 127
@125560 Channel: 8 Note off, A4 key=69 velocity: 127
@125580 Channel: 8 Note on, A4 key=69 velocity: 105
@125620 Channel: 8 Note off, A4 key=69 velocity: 105
@125639 Channel: 8 Note on, A4 key=69 velocity: 107
@125680 Channel: 8 Note off, A4 key=69 velocity: 107
@125700 Channel: 8 Note on, A4 key=69 velocity: 102
@125740 Channel: 8 Note off, A4 key=69 velocity: 102
@125759 Channel: 8 Note on, A4 key=69 velocity: 127
@125800 Channel: 8 Note off, A4 key=69 velocity: 127
@125821 Channel: 8 Note on, A4 key=69 velocity: 105
@125861 Channel: 8 Note off, A4 key=69 velocity: 105
@125881 Channel: 8 Note on, A4 key=69 velocity: 110
@125921 Channel: 8 Note off, A4 key=69 velocity: 110
@125942 Channel: 8 Note on, A4 key=69 velocity: 105
@125982 Channel: 8 Note off, A4 key=69 velocity: 105
@126003 Channel: 8 Note on, A4 key=69 velocity: 127
@126043 Channel: 8 Note off, A4 key=69 velocity: 127
@126063 Channel: 8 Note on, A4 key=69 velocity: 108
@126103 Channel: 8 Note off, A4 key=69 velocity: 108
@126123 Channel: 8 Note on, A4 key=69 velocity: 110
@126162 Channel: 8 Note off, A4 key=69 velocity: 110
@126183 Channel: 8 Note on, A4 key=69 velocity: 107
@126222 Channel: 8 Note off, A4 key=69 velocity: 107
@126243 Channel: 8 Note on, A4 key=69 velocity: 127
@126284 Channel: 8 Note off, A4 key=69 velocity: 127
@126303 Channel: 8 Note on, A4 key=69 velocity: 107
@126343 Channel: 8 Note off, A4 key=69 velocity: 107
@126362 Channel: 8 Note on, A4 key=69 velocity: 110
@126402 Channel: 8 Note off, A4 key=69 velocity: 110
@126422 Channel: 8 Note on, A4 key=69 velocity: 108
@126461 Channel: 8 Note off, A4 key=69 velocity: 108
@126481 Channel: 8 Note on, A4 key=69 velocity: 127
@126522 Channel: 8 Note off, A4 key=69 velocity: 127
@126542 Channel: 8 Note on, A4 key=69 velocity: 112
@126582 Channel: 8 Note off, A4 key=69 velocity: 112
@126602 Channel: 8 Note on, A4 key=69 velocity: 110
@126642 Channel: 8 Note off, A4 key=69 velocity: 110
@126661 Channel: 8 Note on, A4 key=69 velocity: 110
@126702 Channel: 8 Note off, A4 key=69 velocity: 110
@126721 Channel: 8 Note on, A4 key=69 velocity: 127
@126759 Channel: 8 Note off, A4 key=69 velocity: 127
@126781 Channel: 8 Note on, A4 key=69 velocity: 105
@126821 Channel: 8 Note off, A4 key=69 velocity: 105
@126841 Channel: 8 Note on, A4 key=69 velocity: 107
@126880 Channel: 8 Note off, A4 key=69 velocity: 107
@126901 Channel: 8 Note on, A4 key=69 velocity: 102
@126940 Channel: 8 Note off, A4 key=69 velocity: 102
@126960 Channel: 8 Note on, A4 key=69 velocity: 127
@127000 Channel: 8 Note off, A4 key=69 velocity: 127
@127020 Channel: 8 Note on, A4 key=69 velocity: 105
@127060 Channel: 8 Note off, A4 key=69 velocity: 105
@127079 Channel: 8 Note on, A4 key=69 velocity: 107
@127120 Channel: 8 Note off, A4 key=69 velocity: 107
@127140 Channel: 8 Note on, A4 key=69 velocity: 102
@127180 Channel: 8 Note off, A4 key=69 velocity: 102
@127199 Channel: 8 Note on, A4 key=69 velocity: 127
@127240 Channel: 8 Note off, A4 key=69 velocity: 127
@127261 Channel: 8 Note on, A4 key=69 velocity: 105
@127301 Channel: 8 Note off, A4 key=69 velocity: 105
@127321 Channel: 8 Note on, A4 key=69 velocity: 110
@127361 Channel: 8 Note off, A4 key=69 velocity: 110
@127382 Channel: 8 Note on, A4 key=69 velocity: 105
@127422 Channel: 8 Note off, A4 key=69 velocity: 105
@127443 Channel: 8 Note on, A4 key=69 velocity: 127
@127483 Channel: 8 Note off, A4 key=69 velocity: 127
@127503 Channel: 8 Note on, A4 key=69 velocity: 108
@127543 Channel: 8 Note off, A4 key=69 velocity: 108
@127563 Channel: 8 Note on, A4 key=69 velocity: 110
@127602 Channel: 8 Note off, A4 key=69 velocity: 110
@127623 Channel: 8 Note on, A4 key=69 velocity: 107
@127662 Channel: 8 Note off, A4 key=69 velocity: 107
@127683 Channel: 8 Note on, A4 key=69 velocity: 127
@127724 Channel: 8 Note off, A4 key=69 velocity: 127
@127743 Channel: 8 Note on, A4 key=69 velocity: 107
@127783 Channel: 8 Note off, A4 key=69 velocity: 107
@127802 Channel: 8 Note on, A4 key=69 velocity: 110
@127842 Channel: 8 Note off, A4 key=69 velocity: 110
@127862 Channel: 8 Note on, A4 key=69 velocity: 108
@127901 Channel: 8 Note off, A4 key=69 velocity: 108
@127921 Channel: 8 Note on, A4 key=69 velocity: 127
@127962 Channel: 8 Note off, A4 key=69 velocity: 127
@127982 Channel: 8 Note on, A4 key=69 velocity: 112
@128022 Channel: 8 Note off, A4 key=69 velocity: 112
@128042 Channel: 8 Note on, A4 key=69 velocity: 110
@128082 Channel: 8 Note off, A4 key=69 velocity: 110
@128101 Channel: 8 Note on, A4 key=69 velocity: 110
@128142 Channel: 8 Note off, A4 key=69 velocity: 110
@128161 Channel: 8 Note on, A4 key=69 velocity: 127
@128199 Channel: 8 Note off, A4 key=69 velocity: 127
@128221 Channel: 8 Note on, A4 key=69 velocity: 105
@128261 Channel: 8 Note off, A4 key=69 velocity: 105
@128281 Channel: 8 Note on, A4 key=69 velocity: 107
@128320 Channel: 8 Note off, A4 key=69 velocity: 107
@128341 Channel: 8 Note on, A4 key=69 velocity: 102
@128380 Channel: 8 Note off, A4 key=69 velocity: 102
@128400 Channel: 8 Note on, A4 key=69 velocity: 127
@128440 Channel: 8 Note off, A4 key=69 velocity: 127
@128460 Channel: 8 Note on, A4 key=69 velocity: 105
@128500 Channel: 8 Note off, A4 key=69 velocity: 105
@128519 Channel: 8 Note on, A4 key=69 velocity: 107
@128560 Channel: 8 Note off, A4 key=69 velocity: 107
@128580 Channel: 8 Note on, A4 key=69 velocity: 102
@128620 Channel: 8 Note off, A4 key=69 velocity: 102
@128639 Channel: 8 Note on, A4 key=69 velocity: 127
@128680 Channel: 8 Note off, A4 key=69 velocity: 127
@128701 Channel: 8 Note on, A4 key=69 velocity: 105
@128741 Channel: 8 Note off, A4 key=69 velocity: 105
@128761 Channel: 8 Note on, A4 key=69 velocity: 110
@128801 Channel: 8 Note off, A4 key=69 velocity: 110
@128822 Channel: 8 Note on, A4 key=69 velocity: 105
@128862 Channel: 8 Note off, A4 key=69 velocity: 105
@128883 Channel: 8 Note on, A4 key=69 velocity: 127
@128923 Channel: 8 Note off, A4 key=69 velocity: 127
@128943 Channel: 8 Note on, A4 key=69 velocity: 108
@128983 Channel: 8 Note off, A4 key=69 velocity: 108
@129003 Channel: 8 Note on, A4 key=69 velocity: 110
@129042 Channel: 8 Note off, A4 key=69 velocity: 110
@129063 Channel: 8 Note on, A4 key=69 velocity: 107
@129102 Channel: 8 Note off, A4 key=69 velocity: 107
@129123 Channel: 8 Note on, A4 key=69 velocity: 127
@129164 Channel: 8 Note off, A4 key=69 velocity: 127
@129183 Channel: 8 Note on, A4 key=69 velocity: 107
@129223 Channel: 8 Note off, A4 key=69 velocity: 107
@129242 Channel: 8 Note on, A4 key=69 velocity: 110
@129282 Channel: 8 Note off, A4 key=69 velocity: 110
@129302 Channel: 8 Note on, A4 key=69 velocity: 108
@129341 Channel: 8 Note off, A4 key=69 velocity: 108
@129361 Channel: 8 Note on, A4 key=69 velocity: 127
@129402 Channel: 8 Note off, A4 key=69 velocity: 127
@129422 Channel: 8 Note on, A4 key=69 velocity: 112
@129462 Channel: 8 Note off, A4 key=69 velocity: 112
@129482 Channel: 8 Note on, A4 key=69 velocity: 110
@129522 Channel: 8 Note off, A4 key=69 velocity: 110
@129541 Channel: 8 Note on, A4 key=69 velocity: 110
@129582 Channel: 8 Note off, A4 key=69 velocity: 110
@129601 Channel: 8 Note on, A4 key=69 velocity: 127
@129639 Channel: 8 Note off, A4 key=69 velocity: 127
@129661 Channel: 8 Note on, A4 key=69 velocity: 105
@129701 Channel: 8 Note off, A4 key=69 velocity: 105
@129721 Channel: 8 Note on, A4 key=69 velocity: 107
@129760 Channel: 8 Note off, A4 key=69 velocity: 107
@129781 Channel: 8 Note on, A4 key=69 velocity: 102
@129820 Channel: 8 Note off, A4 key=69 velocity: 102
@129840 Channel: 8 Note on, A4 key=69 velocity: 127
@129880 Channel: 8 Note off, A4 key=69 velocity: 127
@129900 Channel: 8 Note on, A4 key=69 velocity: 105
@129940 Channel: 8 Note off, A4 key=69 velocity: 105
@129959 Channel: 8 Note on, A4 key=69 velocity: 107
@130000 Channel: 8 Note off, A4 key=69 velocity: 107
@130020 Channel: 8 Note on, A4 key=69 velocity: 102
@130060 Channel: 8 Note off, A4 key=69 velocity: 102
@130079 Channel: 8 Note on, A4 key=69 velocity: 127
@130120 Channel: 8 Note off, A4 key=69 velocity: 127
@130141 Channel: 8 Note on, A4 key=69 velocity: 105
@130181 Channel: 8 Note off, A4 key=69 velocity: 105
@130201 Channel: 8 Note on, A4 key=69 velocity: 110
@130241 Channel: 8 Note off, A4 key=69 velocity: 110
@130262 Channel: 8 Note on, A4 key=69 velocity: 105
@130302 Channel: 8 Note off, A4 key=69 velocity: 105
@130323 Channel: 8 Note on, A4 key=69 velocity: 127
@130363 Channel: 8 Note off, A4 key=69 velocity: 127
@130383 Channel: 8 Note on, A4 key=69 velocity: 108
@130423 Channel: 8 Note off, A4 key=69 velocity: 108
@130443 Channel: 8 Note on, A4 key=69 velocity: 110
@130482 Channel: 8 Note off, A4 key=69 velocity: 110
@130503 Channel: 8 Note on, A4 key=69 velocity: 107
@130542 Channel: 8 Note off, A4 key=69 velocity: 107
@130563 Channel: 8 Note on, A4 key=69 velocity: 127
@130604 Channel: 8 Note off, A4 key=69 velocity: 127
@130623 Channel: 8 Note on, A4 key=69 velocity: 107
@130663 Channel: 8 Note off, A4 key=69 velocity: 107
@130682 Channel: 8 Note on, A4 key=69 velocity: 110
@130722 Channel: 8 Note off, A4 key=69 velocity: 110
@130742 Channel: 8 Note on, A4 key=69 velocity: 108
@130781 Channel: 8 Note off, A4 key=69 velocity: 108
@130801 Channel: 8 Note on, A4 key=69 velocity: 127
@130842 Channel: 8 Note off, A4 key=69 velocity: 127
@130862 Channel: 8 Note on, A4 key=69 velocity: 112
@130902 Channel: 8 Note off, A4 key=69 velocity: 112
@130922 Channel: 8 Note on, A4 key=69 velocity: 110
@130962 Channel: 8 Note off, A4 key=69 velocity: 110
@130981 Channel: 8 Note on, A4 key=69 velocity: 110
@131022 Channel: 8 Note off, A4 key=69 velocity: 110
@131041 Channel: 8 Note on, A4 key=69 velocity: 127
@131079 Channel: 8 Note off, A4 key=69 velocity: 127
@131101 Channel: 8 Note on, A4 key=69 velocity: 105
@131141 Channel: 8 Note off, A4 key=69 velocity: 105
@131161 Channel: 8 Note on, A4 key=69 velocity: 107
@131200 Channel: 8 Note off, A4 key=69 velocity: 107
@131221 Channel: 8 Note on, A4 key=69 velocity: 102
@131260 Channel: 8 Note off, A4 key=69 velocity: 102
@131280 Channel: 8 Note on, A4 key=69 velocity: 127
@131320 Channel: 8 Note off, A4 key=69 velocity: 127
@131340 Channel: 8 Note on, A4 key=69 velocity: 105
@131380 Channel: 8 Note off, A4 key=69 velocity: 105
@131399 Channel: 8 Note on, A4 key=69 velocity: 107
@131440 Channel: 8 Note off, A4 key=69 velocity: 107
@131460 Channel: 8 Note on, A4 key=69 velocity: 102
@131500 Channel: 8 Note off, A4 key=69 velocity: 102
@131519 Channel: 8 Note on, A4 key=69 velocity: 127
@131560 Channel: 8 Note off, A4 key=69 velocity: 127
@131581 Channel: 8 Note on, A4 key=69 velocity: 105
@131621 Channel: 8 Note off, A4 key=69 velocity: 105
@131641 Channel: 8 Note on, A4 key=69 velocity: 110
@131681 Channel: 8 Note off, A4 key=69 velocity: 110
@131702 Channel: 8 Note on, A4 key=69 velocity: 105
@131742 Channel: 8 Note off, A4 key=69 velocity: 105
@131763 Channel: 8 Note on, A4 key=69 velocity: 127
@131803 Channel: 8 Note off, A4 key=69 velocity: 127
@131823 Channel: 8 Note on, A4 key=69 velocity: 108
@131863 Channel: 8 Note off, A4 key=69 velocity: 108
@131883 Channel: 8 Note on, A4 key=69 velocity: 110
@131922 Channel: 8 Note off, A4 key=69 velocity: 110
@131943 Channel: 8 Note on, A4 key=69 velocity: 107
@131982 Channel: 8 Note off, A4 key=69 velocity: 107
@132003 Channel: 8 Note on, A4 key=69 velocity: 127
@132044 Channel: 8 Note off, A4 key=69 velocity: 127
@132063 Channel: 8 Note on, A4 key=69 velocity: 107
@132103 Channel: 8 Note off, A4 key=69 velocity: 107
@132122 Channel: 8 Note on, A4 key=69 velocity: 110
@132162 Channel: 8 Note off, A4 key=69 velocity: 110
@132182 Channel: 8 Note on, A4 key=69 velocity: 108
@132221 Channel: 8 Note off, A4 key=69 velocity: 108
@132241 Channel: 8 Note on, A4 key=69 velocity: 127
@132282 Channel: 8 Note off, A4 key=69 velocity: 127
@132302 Channel: 8 Note on, A4 key=69 velocity: 112
@132342 Channel: 8 Note off, A4 key=69 velocity: 112
@132362 Channel: 8 Note on, A4 key=69 velocity: 110
@132402 Channel: 8 Note off, A4 key=69 velocity: 110
@132421 Channel: 8 Note on, A4 key=69 velocity: 110
@132462 Channel: 8 Note off, A4 key=69 velocity: 110
@132481 Channel: 8 Note on, A4 key=69 velocity: 127
@132519 Channel: 8 Note off, A4 key=69 velocity: 127
@132541 Channel: 8 Note on, A4 key=69 velocity: 105
@132581 Channel: 8 Note off, A4 key=69 velocity: 105
@132601 Channel: 8 Note on, A4 key=69 velocity: 107
@132640 Channel: 8 Note off, A4 key=69 velocity: 107
@132661 Channel: 8 Note on, A4 key=69 velocity: 102
@132700 Channel: 8 Note off, A4 key=69 velocity: 102
@132720 Channel: 8 Note on, A4 key=69 velocity: 127
@132760 Channel: 8 Note off, A4 key=69 velocity: 127
@132780 Channel: 8 Note on, A4 key=69 velocity: 105
@132820 Channel: 8 Note off, A4 key=69 velocity: 105
@132839 Channel: 8 Note on, A4 key=69 velocity: 107
@132880 Channel: 8 Note off, A4 key=69 velocity: 107
@132900 Channel: 8 Note on, A4 key=69 velocity: 102
@132940 Channel: 8 Note off, A4 key=69 velocity: 102
@132959 Channel: 8 Note on, A4 key=69 velocity: 127
@133000 Channel: 8 Note off, A4 key=69 velocity: 127
@133021 Channel: 8 Note on, A4 key=69 velocity: 105
@133061 Channel: 8 Note off, A4 key=69 velocity: 105
@133081 Channel: 8 Note on, A4 key=69 velocity: 110
@133121 Channel: 8 Note off, A4 key=69 velocity: 110
@133142 Channel: 8 Note on, A4 key=69 velocity: 105
@133182 Channel: 8 Note off, A4 key=69 velocity: 105
@133203 Channel: 8 Note on, A4 key=69 velocity: 127
@133243 Channel: 8 Note off, A4 key=69 velocity: 127
@133263 Channel: 8 Note on, A4 key=69 velocity: 108
@133303 Channel: 8 Note off, A4 key=69 velocity: 108
@133323 Channel: 8 Note on, A4 key=69 velocity: 110
@133362 Channel: 8 Note off, A4 key=69 velocity: 110
@133383 Channel: 8 Note on, A4 key=69 velocity: 107
@133422 Channel: 8 Note off, A4 key=69 velocity: 107
@133443 Channel: 8 Note on, A4 key=69 velocity: 127
@133484 Channel: 8 Note off, A4 key=69 velocity: 127
@133503 Channel: 8 Note on, A4 key=69 velocity: 107
@133543 Channel: 8 Note off, A4 key=69 velocity: 107
@133562 Channel: 8 Note on, A4 key=69 velocity: 110
@133602 Channel: 8 Note off, A4 key=69 velocity: 110
@133622 Channel: 8 Note on, A4 key=69 velocity: 108
@133661 Channel: 8 Note off, A4 key=69 velocity: 108
@133681 Channel: 8 Note on, A4 key=69 velocity: 127
@133722 Channel: 8 Note off, A4 key=69 velocity: 127
@133742 Channel: 8 Note on, A4 key=69 velocity: 112
@133782 Channel: 8 Note off, A4 key=69 velocity: 112
@133802 Channel: 8 Note on, A4 key=69 velocity: 110
@133842 Channel: 8 Note off, A4 key=69 velocity: 110
@133861 Channel: 8 Note on, A4 key=69 velocity: 110
@133902 Channel: 8 Note off, A4 key=69 velocity: 110
@164102 Channel: 8 Command:176
@164160 Other message: class javax.sound.midi.MetaMessage
@164160 Channel: 8 Command:176
@164161 Channel: 8 Note on, D4 key=62 velocity: 127
@164199 Channel: 8 Note off, D4 key=62 velocity: 127
@164221 Channel: 8 Note on, D4 key=62 velocity: 105
@164261 Channel: 8 Note off, D4 key=62 velocity: 105
@164281 Channel: 8 Note on, D4 key=62 velocity: 107
@164320 Channel: 8 Note off, D4 key=62 velocity: 107
@164322 Channel: 8 Command:176
@164341 Channel: 8 Note on, D4 key=62 velocity: 102
@164380 Channel: 8 Note off, D4 key=62 velocity: 102
@164385 Channel: 8 Command:176
@164400 Channel: 8 Note on, D4 key=62 velocity: 127
@164423 Channel: 8 Command:176
@164440 Channel: 8 Note off, D4 key=62 velocity: 127
@164460 Channel: 8 Note on, D4 key=62 velocity: 105
@164495 Channel: 8 Command:176
@164500 Channel: 8 Note off, D4 key=62 velocity: 105
@164519 Channel: 8 Note on, D4 key=62 velocity: 107
@164560 Channel: 8 Note off, D4 key=62 velocity: 107
@164569 Channel: 8 Command:176
@164580 Channel: 8 Note on, D4 key=62 velocity: 102
@164606 Channel: 8 Command:176
@164620 Channel: 8 Note off, D4 key=62 velocity: 102
@164634 Channel: 8 Command:176
@164639 Channel: 8 Note on, D4 key=62 velocity: 127
@164661 Channel: 8 Command:176
@164680 Channel: 8 Note off, D4 key=62 velocity: 127
@164688 Channel: 8 Command:176
@164701 Channel: 8 Note on, D4 key=62 velocity: 105
@164715 Channel: 8 Command:176
@164741 Channel: 8 Note off, D4 key=62 velocity: 105
@164743 Channel: 8 Command:176
@164761 Channel: 8 Note on, D4 key=62 velocity: 110
@164779 Channel: 8 Command:176
@164801 Channel: 8 Note off, D4 key=62 velocity: 110
@164822 Channel: 8 Note on, D4 key=62 velocity: 105
@164826 Channel: 8 Command:176
@164862 Channel: 8 Command:176
@164862 Channel: 8 Note off, D4 key=62 velocity: 105
@164883 Channel: 8 Note on, D4 key=62 velocity: 127
@164899 Channel: 8 Command:176
@164923 Channel: 8 Note off, D4 key=62 velocity: 127
@164943 Channel: 8 Note on, D4 key=62 velocity: 108
@164944 Channel: 8 Command:176
@164983 Channel: 8 Note off, D4 key=62 velocity: 108
@164989 Channel: 8 Command:176
@165003 Channel: 8 Note on, D4 key=62 velocity: 110
@165017 Channel: 8 Command:176
@165042 Channel: 8 Note off, D4 key=62 velocity: 110
@165045 Channel: 8 Command:176
@165063 Channel: 8 Note on, D4 key=62 velocity: 107
@165073 Channel: 8 Command:176
@165100 Channel: 8 Command:176
@165102 Channel: 8 Note off, D4 key=62 velocity: 107
@165123 Channel: 8 Note on, D4 key=62 velocity: 127
@165128 Channel: 8 Command:176
@165164 Channel: 8 Command:176
@165164 Channel: 8 Note off, D4 key=62 velocity: 127
@165183 Channel: 8 Note on, D4 key=62 velocity: 107
@165192 Channel: 8 Command:176
@165223 Channel: 8 Note off, D4 key=62 velocity: 107
@165228 Channel: 8 Command:176
@165242 Channel: 8 Note on, D4 key=62 velocity: 110
@165265 Channel: 8 Command:176
@165282 Channel: 8 Note off, D4 key=62 velocity: 110
@165302 Channel: 8 Command:176
@165302 Channel: 8 Note on, D4 key=62 velocity: 108
@165329 Channel: 8 Command:176
@165341 Channel: 8 Note off, D4 key=62 velocity: 108
@165361 Channel: 8 Note on, D4 key=62 velocity: 127
@165366 Channel: 8 Command:176
@165394 Channel: 8 Command:176
@165402 Channel: 8 Note off, D4 key=62 velocity: 127
@165421 Channel: 8 Command:176
@165422 Channel: 8 Note on, D4 key=62 velocity: 112
@165457 Channel: 8 Command:176
@165462 Channel: 8 Note off, D4 key=62 velocity: 112
@165482 Channel: 8 Note on, D4 key=62 velocity: 110
@165512 Channel: 8 Command:176
@165522 Channel: 8 Note off, D4 key=62 velocity: 110
@165541 Channel: 8 Note on, D4 key=62 velocity: 110
@165582 Channel: 8 Note off, D4 key=62 velocity: 110
@165601 Channel: 8 Note on, D4 key=62 velocity: 127
@165613 Channel: 8 Command:176
@165639 Channel: 8 Note off, D4 key=62 velocity: 127
@165661 Channel: 8 Note on, D4 key=62 velocity: 105
@165677 Channel: 8 Command:176
@165701 Channel: 8 Note off, D4 key=62 velocity: 105
@165721 Channel: 8 Note on, D4 key=62 velocity: 107
@165723 Channel: 8 Command:176
@165760 Channel: 8 Note off, D4 key=62 velocity: 107
@165769 Channel: 8 Command:176
@165781 Channel: 8 Note on, D4 key=62 velocity: 102
@165820 Channel: 8 Note off, D4 key=62 velocity: 102
@165833 Channel: 8 Command:176
@165840 Channel: 8 Note on, D4 key=62 velocity: 127
@165880 Channel: 8 Note off, D4 key=62 velocity: 127
@165900 Channel: 8 Note on, D4 key=62 velocity: 105
@165940 Channel: 8 Note off, D4 key=62 velocity: 105
@165959 Channel: 8 Note on, D4 key=62 velocity: 107
@166000 Channel: 8 Note off, D4 key=62 velocity: 107
@166020 Channel: 8 Note on, D4 key=62 velocity: 102
@166060 Channel: 8 Note off, D4 key=62 velocity: 102
@166079 Channel: 8 Note on, D4 key=62 velocity: 127
@166120 Channel: 8 Note off, D4 key=62 velocity: 127
@166141 Channel: 8 Note on, D4 key=62 velocity: 105
@166181 Channel: 8 Note off, D4 key=62 velocity: 105
@166201 Channel: 8 Note on, D4 key=62 velocity: 110
@166241 Channel: 8 Note off, D4 key=62 velocity: 110
@166262 Channel: 8 Note on, D4 key=62 velocity: 105
@166302 Channel: 8 Note off, D4 key=62 velocity: 105
@166323 Channel: 8 Note on, D4 key=62 velocity: 127
@166363 Channel: 8 Note off, D4 key=62 velocity: 127
@166383 Channel: 8 Note on, D4 key=62 velocity: 108
@166423 Channel: 8 Note off, D4 key=62 velocity: 108
@166443 Channel: 8 Note on, D4 key=62 velocity: 110
@166474 Channel: 8 Command:176
@166482 Channel: 8 Note off, D4 key=62 velocity: 110
@166503 Channel: 8 Note on, D4 key=62 velocity: 107
@166510 Channel: 8 Command:176
@166538 Channel: 8 Command:176
@166542 Channel: 8 Note off, D4 key=62 velocity: 107
@166563 Channel: 8 Note on, D4 key=62 velocity: 127
@166566 Channel: 8 Command:176
@166602 Channel: 8 Command:176
@166604 Channel: 8 Note off, D4 key=62 velocity: 127
@166623 Channel: 8 Note on, D4 key=62 velocity: 107
@166638 Channel: 8 Command:176
@166663 Channel: 8 Note off, D4 key=62 velocity: 107
@166682 Channel: 8 Note on, D4 key=62 velocity: 110
@166685 Channel: 8 Command:176
@166722 Channel: 8 Note off, D4 key=62 velocity: 110
@166739 Channel: 8 Command:176
@166742 Channel: 8 Note on, D4 key=62 velocity: 108
@166781 Channel: 8 Note off, D4 key=62 velocity: 108
@166801 Channel: 8 Note on, D4 key=62 velocity: 127
@166842 Channel: 8 Note off, D4 key=62 velocity: 127
@166849 Channel: 8 Command:176
@166862 Channel: 8 Note on, D4 key=62 velocity: 112
@166902 Channel: 8 Note off, D4 key=62 velocity: 112
@166922 Channel: 8 Note on, D4 key=62 velocity: 110
@166923 Channel: 8 Command:176
@166962 Channel: 8 Note off, D4 key=62 velocity: 110
@166981 Channel: 8 Note on, D4 key=62 velocity: 110
@166987 Channel: 8 Command:176
@167022 Channel: 8 Note off, D4 key=62 velocity: 110
@167041 Channel: 8 Note on, D4 key=62 velocity: 127
@167042 Channel: 8 Command:176
@167079 Channel: 8 Note off, D4 key=62 velocity: 127
@167101 Channel: 8 Note on, D4 key=62 velocity: 105
@167106 Channel: 8 Command:176
@167141 Channel: 8 Note off, D4 key=62 velocity: 105
@167142 Channel: 8 Command:176
@167161 Channel: 8 Note on, D4 key=62 velocity: 107
@167179 Channel: 8 Command:176
@167200 Channel: 8 Note off, D4 key=62 velocity: 107
@167206 Channel: 8 Command:176
@167221 Channel: 8 Note on, D4 key=62 velocity: 102
@167245 Channel: 8 Command:176
@167260 Channel: 8 Note off, D4 key=62 velocity: 102
@167280 Channel: 8 Note on, D4 key=62 velocity: 127
@167320 Channel: 8 Note off, D4 key=62 velocity: 127
@167334 Channel: 8 Command:176
@167340 Channel: 8 Note on, D4 key=62 velocity: 105
@167380 Channel: 8 Note off, D4 key=62 velocity: 105
@167389 Channel: 8 Command:176
@167399 Channel: 8 Note on, D4 key=62 velocity: 107
@167440 Channel: 8 Note off, D4 key=62 velocity: 107
@167460 Channel: 8 Note on, D4 key=62 velocity: 102
@167471 Channel: 8 Command:176
@167500 Channel: 8 Note off, D4 key=62 velocity: 102
@167519 Channel: 8 Note on, D4 key=62 velocity: 127
@167560 Channel: 8 Note off, D4 key=62 velocity: 127
@167581 Channel: 8 Note on, D4 key=62 velocity: 105
@167582 Channel: 8 Command:176
@167621 Channel: 8 Note off, D4 key=62 velocity: 105
@167628 Channel: 8 Command:176
@167641 Channel: 8 Note on, D4 key=62 velocity: 110
@167681 Channel: 8 Note off, D4 key=62 velocity: 110
@167682 Channel: 8 Command:176
@167702 Channel: 8 Note on, D4 key=62 velocity: 105
@167719 Channel: 8 Command:176
@167742 Channel: 8 Note off, D4 key=62 velocity: 105
@167756 Channel: 8 Command:176
@167763 Channel: 8 Note on, D4 key=62 velocity: 127
@167802 Channel: 8 Command:176
@167803 Channel: 8 Note off, D4 key=62 velocity: 127
@167823 Channel: 8 Note on, D4 key=62 velocity: 108
@167838 Channel: 8 Command:176
@167863 Channel: 8 Note off, D4 key=62 velocity: 108
@167866 Channel: 8 Command:176
@167883 Channel: 8 Note on, D4 key=62 velocity: 110
@167893 Channel: 8 Command:176
@167921 Channel: 8 Command:176
@167922 Channel: 8 Note off, D4 key=62 velocity: 110
@167943 Channel: 8 Note on, D4 key=62 velocity: 107
@167948 Channel: 8 Command:176
@167957 Channel: 8 Command:176
@167967 Channel: 8 Command:176
@167975 Channel: 8 Command:176
@167982 Channel: 8 Note off, D4 key=62 velocity: 107
@167985 Channel: 8 Command:176
@167994 Channel: 8 Command:176
@168003 Channel: 8 Command:176
@168003 Channel: 8 Note on, D4 key=62 velocity: 127
@168013 Channel: 8 Command:176
@168021 Channel: 8 Command:176
@168031 Channel: 8 Command:176
@168044 Channel: 8 Note off, D4 key=62 velocity: 127
@168063 Channel: 8 Note on, D4 key=62 velocity: 107
@168067 Channel: 8 Command:176
@168103 Channel: 8 Note off, D4 key=62 velocity: 107
@168122 Channel: 8 Note on, D4 key=62 velocity: 110
@168162 Channel: 8 Note off, D4 key=62 velocity: 110
@168182 Channel: 8 Note on, D4 key=62 velocity: 108
@168221 Channel: 8 Note off, D4 key=62 velocity: 108
@168241 Channel: 8 Note on, D4 key=62 velocity: 127
@168282 Channel: 8 Note off, D4 key=62 velocity: 127
@168302 Channel: 8 Note on, D4 key=62 velocity: 112
@168342 Channel: 8 Note off, D4 key=62 velocity: 112
@168362 Channel: 8 Note on, D4 key=62 velocity: 110
@168402 Channel: 8 Note off, D4 key=62 velocity: 110
@168421 Channel: 8 Note on, D4 key=62 velocity: 110
@168462 Channel: 8 Note off, D4 key=62 velocity: 110
@168480 Other message: class javax.sound.midi.Track$ImmutableEndOfTrack

Track 11: size = 2342

@0 Other message: class javax.sound.midi.MetaMessage
@0 Other message: class javax.sound.midi.MetaMessage
@0 Other message: class javax.sound.midi.MetaMessage
@0 Other message: class javax.sound.midi.MetaMessage
@730 Channel: 9 Command:192
@735 Channel: 9 Command:176
@740 Channel: 9 Command:176
@745 Channel: 9 Command:176
@750 Channel: 9 Command:176
@755 Channel: 9 Command:176
@755 Channel: 9 Command:176
@755 Channel: 9 Command:176
@760 Channel: 9 Command:176
@760 Channel: 9 Command:176
@760 Channel: 9 Command:176
@765 Channel: 9 Command:176
@765 Channel: 9 Command:176
@765 Channel: 9 Command:176
@770 Channel: 9 Command:176
@770 Channel: 9 Command:176
@770 Channel: 9 Command:176
@775 Channel: 9 Command:176
@775 Channel: 9 Command:176
@775 Channel: 9 Command:176
@780 Channel: 9 Command:176
@780 Channel: 9 Command:176
@780 Channel: 9 Command:176
@785 Channel: 9 Command:176
@785 Channel: 9 Command:176
@785 Channel: 9 Command:176
@790 Channel: 9 Command:176
@790 Channel: 9 Command:176
@790 Channel: 9 Command:176
@795 Channel: 9 Command:176
@795 Channel: 9 Command:176
@795 Channel: 9 Command:176
@1440 Channel: 9 Note on, C2 key=36 velocity: 127
@1440 Channel: 9 Note on, D2 key=38 velocity: 87
@1643 Channel: 9 Note off, D2 key=38 velocity: 87
@1678 Channel: 9 Note on, E2 key=40 velocity: 63
@1773 Channel: 9 Note off, E2 key=40 velocity: 63
@1797 Channel: 9 Note on, D2 key=38 velocity: 65
@1904 Channel: 9 Note off, D2 key=38 velocity: 65
@1916 Channel: 9 Note off, C2 key=36 velocity: 127
@1917 Channel: 9 Note on, E2 key=40 velocity: 83
@2086 Channel: 9 Note off, E2 key=40 velocity: 83
@2157 Channel: 9 Note on, D2 key=38 velocity: 64
@2277 Channel: 9 Note on, E2 key=40 velocity: 65
@2285 Channel: 9 Note off, D2 key=38 velocity: 64
@2373 Channel: 9 Note off, E2 key=40 velocity: 65
@2397 Channel: 9 Note on, D2 key=38 velocity: 65
@2637 Channel: 9 Note off, D2 key=38 velocity: 65
@2638 Channel: 9 Note on, E2 key=40 velocity: 66
@2880 Channel: 9 Note off, E2 key=40 velocity: 66
@2880 Channel: 9 Note on, C2 key=36 velocity: 127
@2880 Channel: 9 Note on, D2 key=38 velocity: 87
@3108 Channel: 9 Note off, D2 key=38 velocity: 87
@3119 Channel: 9 Note on, E2 key=40 velocity: 66
@3225 Channel: 9 Note off, E2 key=40 velocity: 66
@3239 Channel: 9 Note on, D2 key=38 velocity: 66
@3351 Channel: 9 Note off, D2 key=38 velocity: 66
@3359 Channel: 9 Note on, E2 key=40 velocity: 84
@3363 Channel: 9 Note off, C2 key=36 velocity: 127
@3587 Channel: 9 Note off, E2 key=40 velocity: 84
@3598 Channel: 9 Note on, D2 key=38 velocity: 64
@3702 Channel: 9 Note off, D2 key=38 velocity: 64
@3718 Channel: 9 Note on, E2 key=40 velocity: 65
@3838 Channel: 9 Note on, D2 key=38 velocity: 65
@3845 Channel: 9 Note off, E2 key=40 velocity: 65
@4079 Channel: 9 Note on, E2 key=40 velocity: 63
@4095 Channel: 9 Note off, D2 key=38 velocity: 65
@4320 Channel: 9 Note off, E2 key=40 velocity: 63
@4320 Channel: 9 Note on, C2 key=36 velocity: 127
@4320 Channel: 9 Note on, D2 key=38 velocity: 84
@4549 Channel: 9 Note off, D2 key=38 velocity: 84
@4560 Channel: 9 Note on, E2 key=40 velocity: 64
@4661 Channel: 9 Note off, E2 key=40 velocity: 64
@4680 Channel: 9 Note on, D2 key=38 velocity: 63
@4798 Channel: 9 Note off, D2 key=38 velocity: 63
@4799 Channel: 9 Note off, C2 key=36 velocity: 127
@4800 Channel: 9 Note on, E2 key=40 velocity: 85
@5034 Channel: 9 Note off, E2 key=40 velocity: 85
@5040 Channel: 9 Note on, D2 key=38 velocity: 63
@5136 Channel: 9 Note off, D2 key=38 velocity: 63
@5159 Channel: 9 Note on, E2 key=40 velocity: 64
@5270 Channel: 9 Note off, E2 key=40 velocity: 64
@5280 Channel: 9 Note on, D2 key=38 velocity: 65
@5481 Channel: 9 Note off, D2 key=38 velocity: 65
@5519 Channel: 9 Note on, E2 key=40 velocity: 65
@5625 Channel: 9 Note off, E2 key=40 velocity: 65
@5638 Channel: 9 Note on, D2 key=38 velocity: 66
@5742 Channel: 9 Note off, D2 key=38 velocity: 66
@5760 Channel: 9 Note on, C2 key=36 velocity: 127
@5760 Channel: 9 Note on, D2 key=38 velocity: 87
@5988 Channel: 9 Note off, D2 key=38 velocity: 87
@5999 Channel: 9 Note on, E2 key=40 velocity: 66
@6105 Channel: 9 Note off, E2 key=40 velocity: 66
@6119 Channel: 9 Note on, D2 key=38 velocity: 66
@6231 Channel: 9 Note off, D2 key=38 velocity: 66
@6239 Channel: 9 Note off, C2 key=36 velocity: 127
@6239 Channel: 9 Note on, E2 key=40 velocity: 84
@6467 Channel: 9 Note off, E2 key=40 velocity: 84
@6478 Channel: 9 Note on, D2 key=38 velocity: 64
@6582 Channel: 9 Note off, D2 key=38 velocity: 64
@6598 Channel: 9 Note on, E2 key=40 velocity: 65
@6718 Channel: 9 Note on, D2 key=38 velocity: 65
@6725 Channel: 9 Note off, E2 key=40 velocity: 65
@6959 Channel: 9 Note on, E2 key=40 velocity: 63
@6975 Channel: 9 Note off, D2 key=38 velocity: 65
@7200 Channel: 9 Note off, E2 key=40 velocity: 63
@7200 Channel: 9 Note on, C2 key=36 velocity: 127
@7200 Channel: 9 Note on, D2 key=38 velocity: 87
@7403 Channel: 9 Note off, D2 key=38 velocity: 87
@7438 Channel: 9 Note on, E2 key=40 velocity: 63
@7533 Channel: 9 Note off, E2 key=40 velocity: 63
@7557 Channel: 9 Note on, D2 key=38 velocity: 65
@7664 Channel: 9 Note off, D2 key=38 velocity: 65
@7676 Channel: 9 Note off, C2 key=36 velocity: 127
@7677 Channel: 9 Note on, E2 key=40 velocity: 83
@7846 Channel: 9 Note off, E2 key=40 velocity: 83
@7917 Channel: 9 Note on, D2 key=38 velocity: 64
@8037 Channel: 9 Note on, E2 key=40 velocity: 65
@8045 Channel: 9 Note off, D2 key=38 velocity: 64
@8133 Channel: 9 Note off, E2 key=40 velocity: 65
@8157 Channel: 9 Note on, D2 key=38 velocity: 65
@8397 Channel: 9 Note off, D2 key=38 velocity: 65
@8398 Channel: 9 Note on, E2 key=40 velocity: 66
@8640 Channel: 9 Note off, E2 key=40 velocity: 66
@8640 Channel: 9 Note on, C2 key=36 velocity: 127
@8640 Channel: 9 Note on, D2 key=38 velocity: 87
@8868 Channel: 9 Note off, D2 key=38 velocity: 87
@8879 Channel: 9 Note on, E2 key=40 velocity: 66
@8985 Channel: 9 Note off, E2 key=40 velocity: 66
@8999 Channel: 9 Note on, D2 key=38 velocity: 66
@9111 Channel: 9 Note off, D2 key=38 velocity: 66
@9119 Channel: 9 Note on, E2 key=40 velocity: 84
@9123 Channel: 9 Note off, C2 key=36 velocity: 127
@9347 Channel: 9 Note off, E2 key=40 velocity: 84
@9358 Channel: 9 Note on, D2 key=38 velocity: 64
@9462 Channel: 9 Note off, D2 key=38 velocity: 64
@9478 Channel: 9 Note on, E2 key=40 velocity: 65
@9598 Channel: 9 Note on, D2 key=38 velocity: 65
@9605 Channel: 9 Note off, E2 key=40 velocity: 65
@9839 Channel: 9 Note on, E2 key=40 velocity: 63
@9855 Channel: 9 Note off, D2 key=38 velocity: 65
@10080 Channel: 9 Note off, E2 key=40 velocity: 63
@10080 Channel: 9 Note on, C2 key=36 velocity: 127
@10080 Channel: 9 Note on, D2 key=38 velocity: 84
@10309 Channel: 9 Note off, D2 key=38 velocity: 84
@10320 Channel: 9 Note on, E2 key=40 velocity: 64
@10421 Channel: 9 Note off, E2 key=40 velocity: 64
@10440 Channel: 9 Note on, D2 key=38 velocity: 63
@10558 Channel: 9 Note off, D2 key=38 velocity: 63
@10559 Channel: 9 Note off, C2 key=36 velocity: 127
@10560 Channel: 9 Note on, E2 key=40 velocity: 85
@10794 Channel: 9 Note off, E2 key=40 velocity: 85
@10800 Channel: 9 Note on, D2 key=38 velocity: 63
@10896 Channel: 9 Note off, D2 key=38 velocity: 63
@10919 Channel: 9 Note on, E2 key=40 velocity: 64
@11030 Channel: 9 Note off, E2 key=40 velocity: 64
@11040 Channel: 9 Note on, D2 key=38 velocity: 65
@11241 Channel: 9 Note off, D2 key=38 velocity: 65
@11279 Channel: 9 Note on, E2 key=40 velocity: 65
@11385 Channel: 9 Note off, E2 key=40 velocity: 65
@11398 Channel: 9 Note on, D2 key=38 velocity: 66
@11502 Channel: 9 Note off, D2 key=38 velocity: 66
@11520 Channel: 9 Note on, C2 key=36 velocity: 127
@11520 Channel: 9 Note on, D2 key=38 velocity: 87
@11748 Channel: 9 Note off, D2 key=38 velocity: 87
@11759 Channel: 9 Note on, E2 key=40 velocity: 66
@11865 Channel: 9 Note off, E2 key=40 velocity: 66
@11879 Channel: 9 Note on, D2 key=38 velocity: 66
@11991 Channel: 9 Note off, D2 key=38 velocity: 66
@11999 Channel: 9 Note off, C2 key=36 velocity: 127
@11999 Channel: 9 Note on, E2 key=40 velocity: 84
@12227 Channel: 9 Note off, E2 key=40 velocity: 84
@12238 Channel: 9 Note on, D2 key=38 velocity: 64
@12342 Channel: 9 Note off, D2 key=38 velocity: 64
@12358 Channel: 9 Note on, E2 key=40 velocity: 65
@12478 Channel: 9 Note on, D2 key=38 velocity: 65
@12485 Channel: 9 Note off, E2 key=40 velocity: 65
@12719 Channel: 9 Note on, E2 key=40 velocity: 63
@12735 Channel: 9 Note off, D2 key=38 velocity: 65
@12960 Channel: 9 Note off, E2 key=40 velocity: 63
@12960 Channel: 9 Note on, C2 key=36 velocity: 127
@12960 Channel: 9 Note on, D2 key=38 velocity: 87
@13163 Channel: 9 Note off, D2 key=38 velocity: 87
@13198 Channel: 9 Note on, E2 key=40 velocity: 63
@13293 Channel: 9 Note off, E2 key=40 velocity: 63
@13317 Channel: 9 Note on, D2 key=38 velocity: 65
@13424 Channel: 9 Note off, D2 key=38 velocity: 65
@13436 Channel: 9 Note off, C2 key=36 velocity: 127
@13437 Channel: 9 Note on, E2 key=40 velocity: 83
@13606 Channel: 9 Note off, E2 key=40 velocity: 83
@13677 Channel: 9 Note on, D2 key=38 velocity: 64
@13797 Channel: 9 Note on, E2 key=40 velocity: 65
@13805 Channel: 9 Note off, D2 key=38 velocity: 64
@13893 Channel: 9 Note off, E2 key=40 velocity: 65
@13917 Channel: 9 Note on, D2 key=38 velocity: 65
@14157 Channel: 9 Note off, D2 key=38 velocity: 65
@14158 Channel: 9 Note on, E2 key=40 velocity: 66
@14400 Channel: 9 Note off, E2 key=40 velocity: 66
@14400 Channel: 9 Note on, C2 key=36 velocity: 127
@14400 Channel: 9 Note on, D2 key=38 velocity: 87
@14628 Channel: 9 Note off, D2 key=38 velocity: 87
@14639 Channel: 9 Note on, E2 key=40 velocity: 66
@14745 Channel: 9 Note off, E2 key=40 velocity: 66
@14759 Channel: 9 Note on, D2 key=38 velocity: 66
@14871 Channel: 9 Note off, D2 key=38 velocity: 66
@14879 Channel: 9 Note on, E2 key=40 velocity: 84
@14883 Channel: 9 Note off, C2 key=36 velocity: 127
@15107 Channel: 9 Note off, E2 key=40 velocity: 84
@15118 Channel: 9 Note on, D2 key=38 velocity: 64
@15222 Channel: 9 Note off, D2 key=38 velocity: 64
@15238 Channel: 9 Note on, E2 key=40 velocity: 65
@15358 Channel: 9 Note on, D2 key=38 velocity: 65
@15365 Channel: 9 Note off, E2 key=40 velocity: 65
@15599 Channel: 9 Note on, E2 key=40 velocity: 63
@15615 Channel: 9 Note off, D2 key=38 velocity: 65
@15840 Channel: 9 Note off, E2 key=40 velocity: 63
@15840 Channel: 9 Note on, C2 key=36 velocity: 127
@15840 Channel: 9 Note on, D2 key=38 velocity: 84
@16069 Channel: 9 Note off, D2 key=38 velocity: 84
@16080 Channel: 9 Note on, E2 key=40 velocity: 64
@16181 Channel: 9 Note off, E2 key=40 velocity: 64
@16200 Channel: 9 Note on, D2 key=38 velocity: 63
@16318 Channel: 9 Note off, D2 key=38 velocity: 63
@16319 Channel: 9 Note off, C2 key=36 velocity: 127
@16320 Channel: 9 Note on, E2 key=40 velocity: 85
@16554 Channel: 9 Note off, E2 key=40 velocity: 85
@16560 Channel: 9 Note on, D2 key=38 velocity: 63
@16656 Channel: 9 Note off, D2 key=38 velocity: 63
@16679 Channel: 9 Note on, E2 key=40 velocity: 64
@16790 Channel: 9 Note off, E2 key=40 velocity: 64
@16800 Channel: 9 Note on, D2 key=38 velocity: 65
@17001 Channel: 9 Note off, D2 key=38 velocity: 65
@17039 Channel: 9 Note on, E2 key=40 velocity: 65
@17145 Channel: 9 Note off, E2 key=40 velocity: 65
@17158 Channel: 9 Note on, D2 key=38 velocity: 66
@17262 Channel: 9 Note off, D2 key=38 velocity: 66
@17280 Channel: 9 Note on, C2 key=36 velocity: 127
@17280 Channel: 9 Note on, D2 key=38 velocity: 87
@17508 Channel: 9 Note off, D2 key=38 velocity: 87
@17519 Channel: 9 Note on, E2 key=40 velocity: 66
@17625 Channel: 9 Note off, E2 key=40 velocity: 66
@17639 Channel: 9 Note on, D2 key=38 velocity: 66
@17751 Channel: 9 Note off, D2 key=38 velocity: 66
@17759 Channel: 9 Note off, C2 key=36 velocity: 127
@17759 Channel: 9 Note on, E2 key=40 velocity: 84
@17987 Channel: 9 Note off, E2 key=40 velocity: 84
@17998 Channel: 9 Note on, D2 key=38 velocity: 64
@18102 Channel: 9 Note off, D2 key=38 velocity: 64
@18118 Channel: 9 Note on, E2 key=40 velocity: 65
@18238 Channel: 9 Note on, D2 key=38 velocity: 65
@18245 Channel: 9 Note off, E2 key=40 velocity: 65
@18479 Channel: 9 Note on, E2 key=40 velocity: 63
@18495 Channel: 9 Note off, D2 key=38 velocity: 65
@18720 Channel: 9 Note off, E2 key=40 velocity: 63
@18720 Channel: 9 Note on, C2 key=36 velocity: 127
@18720 Channel: 9 Note on, D2 key=38 velocity: 87
@18923 Channel: 9 Note off, D2 key=38 velocity: 87
@18958 Channel: 9 Note on, E2 key=40 velocity: 63
@19053 Channel: 9 Note off, E2 key=40 velocity: 63
@19077 Channel: 9 Note on, D2 key=38 velocity: 65
@19184 Channel: 9 Note off, D2 key=38 velocity: 65
@19196 Channel: 9 Note off, C2 key=36 velocity: 127
@19197 Channel: 9 Note on, E2 key=40 velocity: 83
@19366 Channel: 9 Note off, E2 key=40 velocity: 83
@19437 Channel: 9 Note on, D2 key=38 velocity: 64
@19557 Channel: 9 Note on, E2 key=40 velocity: 65
@19565 Channel: 9 Note off, D2 key=38 velocity: 64
@19653 Channel: 9 Note off, E2 key=40 velocity: 65
@19677 Channel: 9 Note on, D2 key=38 velocity: 65
@19917 Channel: 9 Note off, D2 key=38 velocity: 65
@19918 Channel: 9 Note on, E2 key=40 velocity: 66
@20160 Channel: 9 Note off, E2 key=40 velocity: 66
@20160 Channel: 9 Note on, C2 key=36 velocity: 127
@20160 Channel: 9 Note on, D2 key=38 velocity: 87
@20388 Channel: 9 Note off, D2 key=38 velocity: 87
@20399 Channel: 9 Note on, E2 key=40 velocity: 66
@20505 Channel: 9 Note off, E2 key=40 velocity: 66
@20519 Channel: 9 Note on, D2 key=38 velocity: 66
@20631 Channel: 9 Note off, D2 key=38 velocity: 66
@20639 Channel: 9 Note on, E2 key=40 velocity: 84
@20643 Channel: 9 Note off, C2 key=36 velocity: 127
@20867 Channel: 9 Note off, E2 key=40 velocity: 84
@20878 Channel: 9 Note on, D2 key=38 velocity: 64
@20982 Channel: 9 Note off, D2 key=38 velocity: 64
@20998 Channel: 9 Note on, E2 key=40 velocity: 65
@21118 Channel: 9 Note on, D2 key=38 velocity: 65
@21125 Channel: 9 Note off, E2 key=40 velocity: 65
@21359 Channel: 9 Note on, E2 key=40 velocity: 63
@21375 Channel: 9 Note off, D2 key=38 velocity: 65
@21600 Channel: 9 Note off, E2 key=40 velocity: 63
@21600 Channel: 9 Note on, C2 key=36 velocity: 127
@21600 Channel: 9 Note on, D2 key=38 velocity: 84
@21829 Channel: 9 Note off, D2 key=38 velocity: 84
@21840 Channel: 9 Note on, E2 key=40 velocity: 64
@21941 Channel: 9 Note off, E2 key=40 velocity: 64
@21960 Channel: 9 Note on, D2 key=38 velocity: 63
@22078 Channel: 9 Note off, D2 key=38 velocity: 63
@22079 Channel: 9 Note off, C2 key=36 velocity: 127
@22080 Channel: 9 Note on, E2 key=40 velocity: 85
@22314 Channel: 9 Note off, E2 key=40 velocity: 85
@22320 Channel: 9 Note on, D2 key=38 velocity: 63
@22416 Channel: 9 Note off, D2 key=38 velocity: 63
@22439 Channel: 9 Note on, E2 key=40 velocity: 64
@22550 Channel: 9 Note off, E2 key=40 velocity: 64
@22560 Channel: 9 Note on, D2 key=38 velocity: 65
@22761 Channel: 9 Note off, D2 key=38 velocity: 65
@22799 Channel: 9 Note on, E2 key=40 velocity: 65
@22905 Channel: 9 Note off, E2 key=40 velocity: 65
@22918 Channel: 9 Note on, D2 key=38 velocity: 66
@23022 Channel: 9 Note off, D2 key=38 velocity: 66
@23040 Channel: 9 Note on, C2 key=36 velocity: 127
@23040 Channel: 9 Note on, D2 key=38 velocity: 87
@23268 Channel: 9 Note off, D2 key=38 velocity: 87
@23279 Channel: 9 Note on, E2 key=40 velocity: 66
@23385 Channel: 9 Note off, E2 key=40 velocity: 66
@23399 Channel: 9 Note on, D2 key=38 velocity: 66
@23511 Channel: 9 Note off, D2 key=38 velocity: 66
@23519 Channel: 9 Note off, C2 key=36 velocity: 127
@23519 Channel: 9 Note on, E2 key=40 velocity: 84
@23747 Channel: 9 Note off, E2 key=40 velocity: 84
@23758 Channel: 9 Note on, D2 key=38 velocity: 64
@23862 Channel: 9 Note off, D2 key=38 velocity: 64
@23878 Channel: 9 Note on, E2 key=40 velocity: 65
@23998 Channel: 9 Note on, D2 key=38 velocity: 65
@24005 Channel: 9 Note off, E2 key=40 velocity: 65
@24239 Channel: 9 Note on, E2 key=40 velocity: 63
@24255 Channel: 9 Note off, D2 key=38 velocity: 65
@24480 Channel: 9 Note off, E2 key=40 velocity: 63
@24480 Channel: 9 Note on, C2 key=36 velocity: 127
@24480 Channel: 9 Note on, D2 key=38 velocity: 87
@24708 Channel: 9 Note off, D2 key=38 velocity: 87
@24719 Channel: 9 Note on, E2 key=40 velocity: 66
@24825 Channel: 9 Note off, E2 key=40 velocity: 66
@24839 Channel: 9 Note on, D2 key=38 velocity: 66
@24951 Channel: 9 Note off, D2 key=38 velocity: 66
@24959 Channel: 9 Note off, C2 key=36 velocity: 127
@24959 Channel: 9 Note on, E2 key=40 velocity: 84
@25187 Channel: 9 Note off, E2 key=40 velocity: 84
@25198 Channel: 9 Note on, D2 key=38 velocity: 64
@25302 Channel: 9 Note off, D2 key=38 velocity: 64
@25318 Channel: 9 Note on, E2 key=40 velocity: 65
@25438 Channel: 9 Note on, D2 key=38 velocity: 65
@25445 Channel: 9 Note off, E2 key=40 velocity: 65
@25679 Channel: 9 Note on, E2 key=40 velocity: 63
@25695 Channel: 9 Note off, D2 key=38 velocity: 65
@25920 Channel: 9 Note off, E2 key=40 velocity: 63
@25920 Channel: 9 Note on, C2 key=36 velocity: 127
@25920 Channel: 9 Note on, D2 key=38 velocity: 87
@26123 Channel: 9 Note off, D2 key=38 velocity: 87
@26158 Channel: 9 Note on, E2 key=40 velocity: 63
@26253 Channel: 9 Note off, E2 key=40 velocity: 63
@26277 Channel: 9 Note on, D2 key=38 velocity: 65
@26384 Channel: 9 Note off, D2 key=38 velocity: 65
@26396 Channel: 9 Note off, C2 key=36 velocity: 127
@26397 Channel: 9 Note on, E2 key=40 velocity: 83
@26566 Channel: 9 Note off, E2 key=40 velocity: 83
@26637 Channel: 9 Note on, D2 key=38 velocity: 64
@26757 Channel: 9 Note on, E2 key=40 velocity: 65
@26765 Channel: 9 Note off, D2 key=38 velocity: 64
@26853 Channel: 9 Note off, E2 key=40 velocity: 65
@26877 Channel: 9 Note on, D2 key=38 velocity: 65
@27117 Channel: 9 Note off, D2 key=38 velocity: 65
@27118 Channel: 9 Note on, E2 key=40 velocity: 66
@27360 Channel: 9 Note off, E2 key=40 velocity: 66
@27360 Channel: 9 Note on, C2 key=36 velocity: 127
@27360 Channel: 9 Note on, D2 key=38 velocity: 87
@27588 Channel: 9 Note off, D2 key=38 velocity: 87
@27599 Channel: 9 Note on, E2 key=40 velocity: 66
@27705 Channel: 9 Note off, E2 key=40 velocity: 66
@27719 Channel: 9 Note on, D2 key=38 velocity: 66
@27831 Channel: 9 Note off, D2 key=38 velocity: 66
@27839 Channel: 9 Note on, E2 key=40 velocity: 84
@27843 Channel: 9 Note off, C2 key=36 velocity: 127
@28067 Channel: 9 Note off, E2 key=40 velocity: 84
@28078 Channel: 9 Note on, D2 key=38 velocity: 64
@28182 Channel: 9 Note off, D2 key=38 velocity: 64
@28198 Channel: 9 Note on, E2 key=40 velocity: 65
@28318 Channel: 9 Note on, D2 key=38 velocity: 65
@28325 Channel: 9 Note off, E2 key=40 velocity: 65
@28559 Channel: 9 Note on, E2 key=40 velocity: 63
@28575 Channel: 9 Note off, D2 key=38 velocity: 65
@28800 Channel: 9 Note off, E2 key=40 velocity: 63
@28800 Channel: 9 Note on, C2 key=36 velocity: 127
@28800 Channel: 9 Note on, D2 key=38 velocity: 84
@29029 Channel: 9 Note off, D2 key=38 velocity: 84
@29040 Channel: 9 Note on, E2 key=40 velocity: 64
@29141 Channel: 9 Note off, E2 key=40 velocity: 64
@29160 Channel: 9 Note on, D2 key=38 velocity: 63
@29278 Channel: 9 Note off, D2 key=38 velocity: 63
@29279 Channel: 9 Note off, C2 key=36 velocity: 127
@29280 Channel: 9 Note on, E2 key=40 velocity: 85
@29514 Channel: 9 Note off, E2 key=40 velocity: 85
@29520 Channel: 9 Note on, D2 key=38 velocity: 63
@29616 Channel: 9 Note off, D2 key=38 velocity: 63
@29639 Channel: 9 Note on, E2 key=40 velocity: 64
@29750 Channel: 9 Note off, E2 key=40 velocity: 64
@29760 Channel: 9 Note on, D2 key=38 velocity: 65
@29961 Channel: 9 Note off, D2 key=38 velocity: 65
@29999 Channel: 9 Note on, E2 key=40 velocity: 65
@30105 Channel: 9 Note off, E2 key=40 velocity: 65
@30118 Channel: 9 Note on, D2 key=38 velocity: 66
@30222 Channel: 9 Note off, D2 key=38 velocity: 66
@30240 Channel: 9 Note on, C2 key=36 velocity: 127
@30240 Channel: 9 Note on, D2 key=38 velocity: 87
@30468 Channel: 9 Note off, D2 key=38 velocity: 87
@30479 Channel: 9 Note on, E2 key=40 velocity: 66
@30585 Channel: 9 Note off, E2 key=40 velocity: 66
@30599 Channel: 9 Note on, D2 key=38 velocity: 66
@30711 Channel: 9 Note off, D2 key=38 velocity: 66
@30719 Channel: 9 Note off, C2 key=36 velocity: 127
@30719 Channel: 9 Note on, E2 key=40 velocity: 84
@30947 Channel: 9 Note off, E2 key=40 velocity: 84
@30958 Channel: 9 Note on, D2 key=38 velocity: 64
@31062 Channel: 9 Note off, D2 key=38 velocity: 64
@31078 Channel: 9 Note on, E2 key=40 velocity: 65
@31198 Channel: 9 Note on, D2 key=38 velocity: 65
@31205 Channel: 9 Note off, E2 key=40 velocity: 65
@31439 Channel: 9 Note on, E2 key=40 velocity: 63
@31455 Channel: 9 Note off, D2 key=38 velocity: 65
@31680 Channel: 9 Note off, E2 key=40 velocity: 63
@31680 Channel: 9 Note on, C2 key=36 velocity: 127
@31680 Channel: 9 Note on, D2 key=38 velocity: 87
@31883 Channel: 9 Note off, D2 key=38 velocity: 87
@31918 Channel: 9 Note on, E2 key=40 velocity: 63
@32013 Channel: 9 Note off, E2 key=40 velocity: 63
@32037 Channel: 9 Note on, D2 key=38 velocity: 65
@32144 Channel: 9 Note off, D2 key=38 velocity: 65
@32156 Channel: 9 Note off, C2 key=36 velocity: 127
@32157 Channel: 9 Note on, E2 key=40 velocity: 83
@32326 Channel: 9 Note off, E2 key=40 velocity: 83
@32397 Channel: 9 Note on, D2 key=38 velocity: 64
@32517 Channel: 9 Note on, E2 key=40 velocity: 65
@32525 Channel: 9 Note off, D2 key=38 velocity: 64
@32613 Channel: 9 Note off, E2 key=40 velocity: 65
@32637 Channel: 9 Note on, D2 key=38 velocity: 65
@32877 Channel: 9 Note off, D2 key=38 velocity: 65
@32878 Channel: 9 Note on, E2 key=40 velocity: 66
@33120 Channel: 9 Note off, E2 key=40 velocity: 66
@33120 Channel: 9 Note on, C2 key=36 velocity: 127
@33120 Channel: 9 Note on, D2 key=38 velocity: 87
@33348 Channel: 9 Note off, D2 key=38 velocity: 87
@33359 Channel: 9 Note on, E2 key=40 velocity: 66
@33465 Channel: 9 Note off, E2 key=40 velocity: 66
@33479 Channel: 9 Note on, D2 key=38 velocity: 66
@33591 Channel: 9 Note off, D2 key=38 velocity: 66
@33599 Channel: 9 Note on, E2 key=40 velocity: 84
@33603 Channel: 9 Note off, C2 key=36 velocity: 127
@33827 Channel: 9 Note off, E2 key=40 velocity: 84
@33838 Channel: 9 Note on, D2 key=38 velocity: 64
@33942 Channel: 9 Note off, D2 key=38 velocity: 64
@33958 Channel: 9 Note on, E2 key=40 velocity: 65
@34078 Channel: 9 Note on, D2 key=38 velocity: 65
@34085 Channel: 9 Note off, E2 key=40 velocity: 65
@34319 Channel: 9 Note on, E2 key=40 velocity: 63
@34335 Channel: 9 Note off, D2 key=38 velocity: 65
@34560 Channel: 9 Note off, E2 key=40 velocity: 63
@34560 Channel: 9 Note on, C2 key=36 velocity: 127
@34560 Channel: 9 Note on, D2 key=38 velocity: 84
@34789 Channel: 9 Note off, D2 key=38 velocity: 84
@34800 Channel: 9 Note on, E2 key=40 velocity: 64
@34901 Channel: 9 Note off, E2 key=40 velocity: 64
@34920 Channel: 9 Note on, D2 key=38 velocity: 63
@35038 Channel: 9 Note off, D2 key=38 velocity: 63
@35039 Channel: 9 Note off, C2 key=36 velocity: 127
@35040 Channel: 9 Note on, E2 key=40 velocity: 85
@35274 Channel: 9 Note off, E2 key=40 velocity: 85
@35280 Channel: 9 Note on, D2 key=38 velocity: 63
@35376 Channel: 9 Note off, D2 key=38 velocity: 63
@35399 Channel: 9 Note on, E2 key=40 velocity: 64
@35510 Channel: 9 Note off, E2 key=40 velocity: 64
@35520 Channel: 9 Note on, D2 key=38 velocity: 65
@35721 Channel: 9 Note off, D2 key=38 velocity: 65
@35759 Channel: 9 Note on, E2 key=40 velocity: 65
@35865 Channel: 9 Note off, E2 key=40 velocity: 65
@35878 Channel: 9 Note on, D2 key=38 velocity: 66
@35982 Channel: 9 Note off, D2 key=38 velocity: 66
@36000 Channel: 9 Note on, C2 key=36 velocity: 127
@36000 Channel: 9 Note on, D2 key=38 velocity: 87
@36228 Channel: 9 Note off, D2 key=38 velocity: 87
@36239 Channel: 9 Note on, E2 key=40 velocity: 66
@36345 Channel: 9 Note off, E2 key=40 velocity: 66
@36359 Channel: 9 Note on, D2 key=38 velocity: 66
@36471 Channel: 9 Note off, D2 key=38 velocity: 66
@36479 Channel: 9 Note off, C2 key=36 velocity: 127
@36479 Channel: 9 Note on, E2 key=40 velocity: 84
@36707 Channel: 9 Note off, E2 key=40 velocity: 84
@36718 Channel: 9 Note on, D2 key=38 velocity: 64
@36822 Channel: 9 Note off, D2 key=38 velocity: 64
@36838 Channel: 9 Note on, E2 key=40 velocity: 65
@36958 Channel: 9 Note on, D2 key=38 velocity: 65
@36965 Channel: 9 Note off, E2 key=40 velocity: 65
@37199 Channel: 9 Note on, E2 key=40 velocity: 63
@37215 Channel: 9 Note off, D2 key=38 velocity: 65
@37440 Channel: 9 Note off, E2 key=40 velocity: 63
@37440 Channel: 9 Note on, C2 key=36 velocity: 127
@37440 Channel: 9 Note on, D2 key=38 velocity: 87
@37643 Channel: 9 Note off, D2 key=38 velocity: 87
@37678 Channel: 9 Note on, E2 key=40 velocity: 63
@37773 Channel: 9 Note off, E2 key=40 velocity: 63
@37797 Channel: 9 Note on, D2 key=38 velocity: 65
@37904 Channel: 9 Note off, D2 key=38 velocity: 65
@37916 Channel: 9 Note off, C2 key=36 velocity: 127
@37917 Channel: 9 Note on, E2 key=40 velocity: 83
@38086 Channel: 9 Note off, E2 key=40 velocity: 83
@38157 Channel: 9 Note on, D2 key=38 velocity: 64
@38277 Channel: 9 Note on, E2 key=40 velocity: 65
@38285 Channel: 9 Note off, D2 key=38 velocity: 64
@38373 Channel: 9 Note off, E2 key=40 velocity: 65
@38397 Channel: 9 Note on, D2 key=38 velocity: 65
@38637 Channel: 9 Note off, D2 key=38 velocity: 65
@38638 Channel: 9 Note on, E2 key=40 velocity: 66
@38880 Channel: 9 Note off, E2 key=40 velocity: 66
@38880 Channel: 9 Note on, C2 key=36 velocity: 127
@38880 Channel: 9 Note on, D2 key=38 velocity: 87
@39108 Channel: 9 Note off, D2 key=38 velocity: 87
@39119 Channel: 9 Note on, E2 key=40 velocity: 66
@39225 Channel: 9 Note off, E2 key=40 velocity: 66
@39239 Channel: 9 Note on, D2 key=38 velocity: 66
@39351 Channel: 9 Note off, D2 key=38 velocity: 66
@39359 Channel: 9 Note on, E2 key=40 velocity: 84
@39363 Channel: 9 Note off, C2 key=36 velocity: 127
@39587 Channel: 9 Note off, E2 key=40 velocity: 84
@39598 Channel: 9 Note on, D2 key=38 velocity: 64
@39702 Channel: 9 Note off, D2 key=38 velocity: 64
@39718 Channel: 9 Note on, E2 key=40 velocity: 65
@39838 Channel: 9 Note on, D2 key=38 velocity: 65
@39845 Channel: 9 Note off, E2 key=40 velocity: 65
@40079 Channel: 9 Note on, E2 key=40 velocity: 63
@40095 Channel: 9 Note off, D2 key=38 velocity: 65
@40320 Channel: 9 Note off, E2 key=40 velocity: 63
@40320 Channel: 9 Note on, C2 key=36 velocity: 127
@40320 Channel: 9 Note on, D2 key=38 velocity: 84
@40549 Channel: 9 Note off, D2 key=38 velocity: 84
@40560 Channel: 9 Note on, E2 key=40 velocity: 64
@40661 Channel: 9 Note off, E2 key=40 velocity: 64
@40680 Channel: 9 Note on, D2 key=38 velocity: 63
@40798 Channel: 9 Note off, D2 key=38 velocity: 63
@40799 Channel: 9 Note off, C2 key=36 velocity: 127
@40800 Channel: 9 Note on, E2 key=40 velocity: 85
@41034 Channel: 9 Note off, E2 key=40 velocity: 85
@41040 Channel: 9 Note on, D2 key=38 velocity: 63
@41136 Channel: 9 Note off, D2 key=38 velocity: 63
@41159 Channel: 9 Note on, E2 key=40 velocity: 64
@41270 Channel: 9 Note off, E2 key=40 velocity: 64
@41280 Channel: 9 Note on, D2 key=38 velocity: 65
@41481 Channel: 9 Note off, D2 key=38 velocity: 65
@41519 Channel: 9 Note on, E2 key=40 velocity: 65
@41625 Channel: 9 Note off, E2 key=40 velocity: 65
@41638 Channel: 9 Note on, D2 key=38 velocity: 66
@41742 Channel: 9 Note off, D2 key=38 velocity: 66
@41760 Channel: 9 Note on, C2 key=36 velocity: 127
@41760 Channel: 9 Note on, D2 key=38 velocity: 87
@41988 Channel: 9 Note off, D2 key=38 velocity: 87
@41999 Channel: 9 Note on, E2 key=40 velocity: 66
@42105 Channel: 9 Note off, E2 key=40 velocity: 66
@42119 Channel: 9 Note on, D2 key=38 velocity: 66
@42231 Channel: 9 Note off, D2 key=38 velocity: 66
@42239 Channel: 9 Note off, C2 key=36 velocity: 127
@42239 Channel: 9 Note on, E2 key=40 velocity: 84
@42467 Channel: 9 Note off, E2 key=40 velocity: 84
@42478 Channel: 9 Note on, D2 key=38 velocity: 64
@42582 Channel: 9 Note off, D2 key=38 velocity: 64
@42598 Channel: 9 Note on, E2 key=40 velocity: 65
@42718 Channel: 9 Note on, D2 key=38 velocity: 65
@42725 Channel: 9 Note off, E2 key=40 velocity: 65
@42959 Channel: 9 Note on, E2 key=40 velocity: 63
@42975 Channel: 9 Note off, D2 key=38 velocity: 65
@43200 Channel: 9 Note off, E2 key=40 velocity: 63
@43200 Channel: 9 Note on, C2 key=36 velocity: 127
@43200 Channel: 9 Note on, D2 key=38 velocity: 87
@43403 Channel: 9 Note off, D2 key=38 velocity: 87
@43438 Channel: 9 Note on, E2 key=40 velocity: 63
@43533 Channel: 9 Note off, E2 key=40 velocity: 63
@43557 Channel: 9 Note on, D2 key=38 velocity: 65
@43664 Channel: 9 Note off, D2 key=38 velocity: 65
@43676 Channel: 9 Note off, C2 key=36 velocity: 127
@43677 Channel: 9 Note on, E2 key=40 velocity: 83
@43846 Channel: 9 Note off, E2 key=40 velocity: 83
@43917 Channel: 9 Note on, D2 key=38 velocity: 64
@44037 Channel: 9 Note on, E2 key=40 velocity: 65
@44045 Channel: 9 Note off, D2 key=38 velocity: 64
@44133 Channel: 9 Note off, E2 key=40 velocity: 65
@44157 Channel: 9 Note on, D2 key=38 velocity: 65
@44397 Channel: 9 Note off, D2 key=38 velocity: 65
@44398 Channel: 9 Note on, E2 key=40 velocity: 66
@44640 Channel: 9 Note off, E2 key=40 velocity: 66
@44640 Channel: 9 Note on, C2 key=36 velocity: 127
@44640 Channel: 9 Note on, D2 key=38 velocity: 87
@44868 Channel: 9 Note off, D2 key=38 velocity: 87
@44879 Channel: 9 Note on, E2 key=40 velocity: 66
@44985 Channel: 9 Note off, E2 key=40 velocity: 66
@44999 Channel: 9 Note on, D2 key=38 velocity: 66
@45111 Channel: 9 Note off, D2 key=38 velocity: 66
@45119 Channel: 9 Note on, E2 key=40 velocity: 84
@45123 Channel: 9 Note off, C2 key=36 velocity: 127
@45347 Channel: 9 Note off, E2 key=40 velocity: 84
@45358 Channel: 9 Note on, D2 key=38 velocity: 64
@45462 Channel: 9 Note off, D2 key=38 velocity: 64
@45478 Channel: 9 Note on, E2 key=40 velocity: 65
@45598 Channel: 9 Note on, D2 key=38 velocity: 65
@45605 Channel: 9 Note off, E2 key=40 velocity: 65
@45839 Channel: 9 Note on, E2 key=40 velocity: 63
@45855 Channel: 9 Note off, D2 key=38 velocity: 65
@46080 Channel: 9 Note off, E2 key=40 velocity: 63
@46080 Channel: 9 Note on, C2 key=36 velocity: 127
@46080 Channel: 9 Note on, D2 key=38 velocity: 84
@46309 Channel: 9 Note off, D2 key=38 velocity: 84
@46320 Channel: 9 Note on, E2 key=40 velocity: 64
@46421 Channel: 9 Note off, E2 key=40 velocity: 64
@46440 Channel: 9 Note on, D2 key=38 velocity: 63
@46558 Channel: 9 Note off, D2 key=38 velocity: 63
@46559 Channel: 9 Note off, C2 key=36 velocity: 127
@46560 Channel: 9 Note on, E2 key=40 velocity: 85
@46794 Channel: 9 Note off, E2 key=40 velocity: 85
@46800 Channel: 9 Note on, D2 key=38 velocity: 63
@46896 Channel: 9 Note off, D2 key=38 velocity: 63
@46919 Channel: 9 Note on, E2 key=40 velocity: 64
@47030 Channel: 9 Note off, E2 key=40 velocity: 64
@47040 Channel: 9 Note on, D2 key=38 velocity: 65
@47241 Channel: 9 Note off, D2 key=38 velocity: 65
@47279 Channel: 9 Note on, E2 key=40 velocity: 65
@47385 Channel: 9 Note off, E2 key=40 velocity: 65
@47398 Channel: 9 Note on, D2 key=38 velocity: 66
@47502 Channel: 9 Note off, D2 key=38 velocity: 66
@47520 Channel: 9 Note on, C2 key=36 velocity: 127
@47520 Channel: 9 Note on, D2 key=38 velocity: 87
@47748 Channel: 9 Note off, D2 key=38 velocity: 87
@47759 Channel: 9 Note on, E2 key=40 velocity: 66
@47865 Channel: 9 Note off, E2 key=40 velocity: 66
@47879 Channel: 9 Note on, D2 key=38 velocity: 66
@47991 Channel: 9 Note off, D2 key=38 velocity: 66
@47999 Channel: 9 Note off, C2 key=36 velocity: 127
@47999 Channel: 9 Note on, E2 key=40 velocity: 84
@48227 Channel: 9 Note off, E2 key=40 velocity: 84
@48238 Channel: 9 Note on, D2 key=38 velocity: 64
@48342 Channel: 9 Note off, D2 key=38 velocity: 64
@48358 Channel: 9 Note on, E2 key=40 velocity: 65
@48478 Channel: 9 Note on, D2 key=38 velocity: 65
@48485 Channel: 9 Note off, E2 key=40 velocity: 65
@48719 Channel: 9 Note on, E2 key=40 velocity: 63
@48735 Channel: 9 Note off, D2 key=38 velocity: 65
@48960 Channel: 9 Note off, E2 key=40 velocity: 63
@48960 Channel: 9 Note on, C2 key=36 velocity: 127
@48960 Channel: 9 Note on, D2 key=38 velocity: 87
@49188 Channel: 9 Note off, D2 key=38 velocity: 87
@49199 Channel: 9 Note on, E2 key=40 velocity: 66
@49305 Channel: 9 Note off, E2 key=40 velocity: 66
@49319 Channel: 9 Note on, D2 key=38 velocity: 66
@49431 Channel: 9 Note off, D2 key=38 velocity: 66
@49439 Channel: 9 Note off, C2 key=36 velocity: 127
@49439 Channel: 9 Note on, E2 key=40 velocity: 84
@49667 Channel: 9 Note off, E2 key=40 velocity: 84
@49678 Channel: 9 Note on, D2 key=38 velocity: 64
@49782 Channel: 9 Note off, D2 key=38 velocity: 64
@49798 Channel: 9 Note on, E2 key=40 velocity: 65
@49918 Channel: 9 Note on, D2 key=38 velocity: 65
@49925 Channel: 9 Note off, E2 key=40 velocity: 65
@50159 Channel: 9 Note on, E2 key=40 velocity: 63
@50175 Channel: 9 Note off, D2 key=38 velocity: 65
@50400 Channel: 9 Note off, E2 key=40 velocity: 63
@50400 Channel: 9 Note on, C2 key=36 velocity: 127
@50400 Channel: 9 Note on, D2 key=38 velocity: 87
@50603 Channel: 9 Note off, D2 key=38 velocity: 87
@50638 Channel: 9 Note on, E2 key=40 velocity: 63
@50733 Channel: 9 Note off, E2 key=40 velocity: 63
@50757 Channel: 9 Note on, D2 key=38 velocity: 65
@50864 Channel: 9 Note off, D2 key=38 velocity: 65
@50876 Channel: 9 Note off, C2 key=36 velocity: 127
@50877 Channel: 9 Note on, E2 key=40 velocity: 83
@51046 Channel: 9 Note off, E2 key=40 velocity: 83
@51117 Channel: 9 Note on, D2 key=38 velocity: 64
@51237 Channel: 9 Note on, E2 key=40 velocity: 65
@51245 Channel: 9 Note off, D2 key=38 velocity: 64
@51333 Channel: 9 Note off, E2 key=40 velocity: 65
@51357 Channel: 9 Note on, D2 key=38 velocity: 65
@51597 Channel: 9 Note off, D2 key=38 velocity: 65
@51598 Channel: 9 Note on, E2 key=40 velocity: 66
@51840 Channel: 9 Note off, E2 key=40 velocity: 66
@51840 Channel: 9 Note on, C2 key=36 velocity: 127
@51840 Channel: 9 Note on, D2 key=38 velocity: 87
@52068 Channel: 9 Note off, D2 key=38 velocity: 87
@52079 Channel: 9 Note on, E2 key=40 velocity: 66
@52185 Channel: 9 Note off, E2 key=40 velocity: 66
@52199 Channel: 9 Note on, D2 key=38 velocity: 66
@52311 Channel: 9 Note off, D2 key=38 velocity: 66
@52319 Channel: 9 Note on, E2 key=40 velocity: 84
@52323 Channel: 9 Note off, C2 key=36 velocity: 127
@52547 Channel: 9 Note off, E2 key=40 velocity: 84
@52558 Channel: 9 Note on, D2 key=38 velocity: 64
@52662 Channel: 9 Note off, D2 key=38 velocity: 64
@52678 Channel: 9 Note on, E2 key=40 velocity: 65
@52798 Channel: 9 Note on, D2 key=38 velocity: 65
@52805 Channel: 9 Note off, E2 key=40 velocity: 65
@53039 Channel: 9 Note on, E2 key=40 velocity: 63
@53055 Channel: 9 Note off, D2 key=38 velocity: 65
@53280 Channel: 9 Note off, E2 key=40 velocity: 63
@53280 Channel: 9 Note on, C2 key=36 velocity: 127
@53280 Channel: 9 Note on, D2 key=38 velocity: 84
@53509 Channel: 9 Note off, D2 key=38 velocity: 84
@53520 Channel: 9 Note on, E2 key=40 velocity: 64
@53621 Channel: 9 Note off, E2 key=40 velocity: 64
@53640 Channel: 9 Note on, D2 key=38 velocity: 63
@53758 Channel: 9 Note off, D2 key=38 velocity: 63
@53759 Channel: 9 Note off, C2 key=36 velocity: 127
@53760 Channel: 9 Note on, E2 key=40 velocity: 85
@53994 Channel: 9 Note off, E2 key=40 velocity: 85
@54000 Channel: 9 Note on, D2 key=38 velocity: 63
@54096 Channel: 9 Note off, D2 key=38 velocity: 63
@54119 Channel: 9 Note on, E2 key=40 velocity: 64
@54230 Channel: 9 Note off, E2 key=40 velocity: 64
@54240 Channel: 9 Note on, D2 key=38 velocity: 65
@54441 Channel: 9 Note off, D2 key=38 velocity: 65
@54479 Channel: 9 Note on, E2 key=40 velocity: 65
@54585 Channel: 9 Note off, E2 key=40 velocity: 65
@54598 Channel: 9 Note on, D2 key=38 velocity: 66
@54702 Channel: 9 Note off, D2 key=38 velocity: 66
@54720 Channel: 9 Note on, C2 key=36 velocity: 127
@54720 Channel: 9 Note on, D2 key=38 velocity: 87
@54948 Channel: 9 Note off, D2 key=38 velocity: 87
@54959 Channel: 9 Note on, E2 key=40 velocity: 66
@55065 Channel: 9 Note off, E2 key=40 velocity: 66
@55079 Channel: 9 Note on, D2 key=38 velocity: 66
@55191 Channel: 9 Note off, D2 key=38 velocity: 66
@55199 Channel: 9 Note off, C2 key=36 velocity: 127
@55199 Channel: 9 Note on, E2 key=40 velocity: 84
@55427 Channel: 9 Note off, E2 key=40 velocity: 84
@55438 Channel: 9 Note on, D2 key=38 velocity: 64
@55542 Channel: 9 Note off, D2 key=38 velocity: 64
@55558 Channel: 9 Note on, E2 key=40 velocity: 65
@55678 Channel: 9 Note on, D2 key=38 velocity: 65
@55685 Channel: 9 Note off, E2 key=40 velocity: 65
@55919 Channel: 9 Note on, E2 key=40 velocity: 63
@55935 Channel: 9 Note off, D2 key=38 velocity: 65
@56160 Channel: 9 Note off, E2 key=40 velocity: 63
@56160 Channel: 9 Note on, C2 key=36 velocity: 127
@56160 Channel: 9 Note on, D2 key=38 velocity: 87
@56363 Channel: 9 Note off, D2 key=38 velocity: 87
@56398 Channel: 9 Note on, E2 key=40 velocity: 63
@56493 Channel: 9 Note off, E2 key=40 velocity: 63
@56517 Channel: 9 Note on, D2 key=38 velocity: 65
@56624 Channel: 9 Note off, D2 key=38 velocity: 65
@56636 Channel: 9 Note off, C2 key=36 velocity: 127
@56637 Channel: 9 Note on, E2 key=40 velocity: 83
@56806 Channel: 9 Note off, E2 key=40 velocity: 83
@56877 Channel: 9 Note on, D2 key=38 velocity: 64
@56997 Channel: 9 Note on, E2 key=40 velocity: 65
@57005 Channel: 9 Note off, D2 key=38 velocity: 64
@57093 Channel: 9 Note off, E2 key=40 velocity: 65
@57117 Channel: 9 Note on, D2 key=38 velocity: 65
@57357 Channel: 9 Note off, D2 key=38 velocity: 65
@57358 Channel: 9 Note on, E2 key=40 velocity: 66
@57600 Channel: 9 Note off, E2 key=40 velocity: 66
@57600 Channel: 9 Note on, C2 key=36 velocity: 127
@57600 Channel: 9 Note on, D2 key=38 velocity: 87
@57828 Channel: 9 Note off, D2 key=38 velocity: 87
@57839 Channel: 9 Note on, E2 key=40 velocity: 66
@57945 Channel: 9 Note off, E2 key=40 velocity: 66
@57959 Channel: 9 Note on, D2 key=38 velocity: 66
@58071 Channel: 9 Note off, D2 key=38 velocity: 66
@58079 Channel: 9 Note on, E2 key=40 velocity: 84
@58083 Channel: 9 Note off, C2 key=36 velocity: 127
@58307 Channel: 9 Note off, E2 key=40 velocity: 84
@58318 Channel: 9 Note on, D2 key=38 velocity: 64
@58422 Channel: 9 Note off, D2 key=38 velocity: 64
@58438 Channel: 9 Note on, E2 key=40 velocity: 65
@58558 Channel: 9 Note on, D2 key=38 velocity: 65
@58565 Channel: 9 Note off, E2 key=40 velocity: 65
@58799 Channel: 9 Note on, E2 key=40 velocity: 63
@58815 Channel: 9 Note off, D2 key=38 velocity: 65
@59040 Channel: 9 Note off, E2 key=40 velocity: 63
@59040 Channel: 9 Note on, C2 key=36 velocity: 127
@59040 Channel: 9 Note on, D2 key=38 velocity: 84
@59269 Channel: 9 Note off, D2 key=38 velocity: 84
@59280 Channel: 9 Note on, E2 key=40 velocity: 64
@59381 Channel: 9 Note off, E2 key=40 velocity: 64
@59400 Channel: 9 Note on, D2 key=38 velocity: 63
@59518 Channel: 9 Note off, D2 key=38 velocity: 63
@59519 Channel: 9 Note off, C2 key=36 velocity: 127
@59520 Channel: 9 Note on, E2 key=40 velocity: 85
@59754 Channel: 9 Note off, E2 key=40 velocity: 85
@59760 Channel: 9 Note on, D2 key=38 velocity: 63
@59856 Channel: 9 Note off, D2 key=38 velocity: 63
@59879 Channel: 9 Note on, E2 key=40 velocity: 64
@59990 Channel: 9 Note off, E2 key=40 velocity: 64
@60000 Channel: 9 Note on, D2 key=38 velocity: 65
@60201 Channel: 9 Note off, D2 key=38 velocity: 65
@60239 Channel: 9 Note on, E2 key=40 velocity: 65
@60345 Channel: 9 Note off, E2 key=40 velocity: 65
@60358 Channel: 9 Note on, D2 key=38 velocity: 66
@60462 Channel: 9 Note off, D2 key=38 velocity: 66
@60480 Channel: 9 Note on, C2 key=36 velocity: 127
@60480 Channel: 9 Note on, D2 key=38 velocity: 87
@60708 Channel: 9 Note off, D2 key=38 velocity: 87
@60719 Channel: 9 Note on, E2 key=40 velocity: 66
@60825 Channel: 9 Note off, E2 key=40 velocity: 66
@60839 Channel: 9 Note on, D2 key=38 velocity: 66
@60951 Channel: 9 Note off, D2 key=38 velocity: 66
@60959 Channel: 9 Note off, C2 key=36 velocity: 127
@60959 Channel: 9 Note on, E2 key=40 velocity: 84
@61187 Channel: 9 Note off, E2 key=40 velocity: 84
@61198 Channel: 9 Note on, D2 key=38 velocity: 64
@61302 Channel: 9 Note off, D2 key=38 velocity: 64
@61318 Channel: 9 Note on, E2 key=40 velocity: 65
@61438 Channel: 9 Note on, D2 key=38 velocity: 65
@61445 Channel: 9 Note off, E2 key=40 velocity: 65
@61679 Channel: 9 Note on, E2 key=40 velocity: 63
@61695 Channel: 9 Note off, D2 key=38 velocity: 65
@61920 Channel: 9 Note off, E2 key=40 velocity: 63
@61920 Channel: 9 Note on, C2 key=36 velocity: 127
@61920 Channel: 9 Note on, D2 key=38 velocity: 87
@62148 Channel: 9 Note off, D2 key=38 velocity: 87
@62159 Channel: 9 Note on, E2 key=40 velocity: 66
@62265 Channel: 9 Note off, E2 key=40 velocity: 66
@62279 Channel: 9 Note on, D2 key=38 velocity: 66
@62391 Channel: 9 Note off, D2 key=38 velocity: 66
@62399 Channel: 9 Note off, C2 key=36 velocity: 127
@62399 Channel: 9 Note on, E2 key=40 velocity: 84
@62627 Channel: 9 Note off, E2 key=40 velocity: 84
@62638 Channel: 9 Note on, D2 key=38 velocity: 64
@62742 Channel: 9 Note off, D2 key=38 velocity: 64
@62758 Channel: 9 Note on, E2 key=40 velocity: 65
@62878 Channel: 9 Note on, D2 key=38 velocity: 65
@62885 Channel: 9 Note off, E2 key=40 velocity: 65
@63119 Channel: 9 Note on, E2 key=40 velocity: 63
@63135 Channel: 9 Note off, D2 key=38 velocity: 65
@63360 Channel: 9 Note off, E2 key=40 velocity: 63
@63360 Channel: 9 Command:176
@63360 Channel: 9 Command:176
@63360 Channel: 9 Note on, D2 key=38 velocity: 87
@63360 Channel: 9 Note on, C2 key=36 velocity: 127
@63360 Channel: 9 Note on, B3 key=59 velocity: 126
@63563 Channel: 9 Note off, D2 key=38 velocity: 87
@63580 Channel: 9 Note off, C2 key=36 velocity: 127
@63598 Channel: 9 Note on, E2 key=40 velocity: 63
@63599 Channel: 9 Note off, B3 key=59 velocity: 126
@63693 Channel: 9 Note off, E2 key=40 velocity: 63
@63717 Channel: 9 Note on, D2 key=38 velocity: 65
@63725 Channel: 9 Note on, C2 key=36 velocity: 127
@63824 Channel: 9 Note off, D2 key=38 velocity: 65
@63834 Channel: 9 Note off, C2 key=36 velocity: 127
@63837 Channel: 9 Note on, E2 key=40 velocity: 83
@63844 Channel: 9 Note on, C2 key=36 velocity: 127
@64006 Channel: 9 Note off, E2 key=40 velocity: 83
@64077 Channel: 9 Note on, D2 key=38 velocity: 64
@64197 Channel: 9 Note on, E2 key=40 velocity: 65
@64205 Channel: 9 Note off, D2 key=38 velocity: 64
@64293 Channel: 9 Note off, E2 key=40 velocity: 65
@64317 Channel: 9 Note on, D2 key=38 velocity: 65
@64363 Channel: 9 Note off, C2 key=36 velocity: 127
@64557 Channel: 9 Note off, D2 key=38 velocity: 65
@64558 Channel: 9 Note on, E2 key=40 velocity: 66
@64800 Channel: 9 Note off, E2 key=40 velocity: 66
@64800 Channel: 9 Note on, C2 key=36 velocity: 127
@64800 Channel: 9 Note on, D2 key=38 velocity: 87
@65028 Channel: 9 Note off, D2 key=38 velocity: 87
@65039 Channel: 9 Note on, E2 key=40 velocity: 66
@65145 Channel: 9 Note off, E2 key=40 velocity: 66
@65159 Channel: 9 Note on, D2 key=38 velocity: 66
@65271 Channel: 9 Note off, D2 key=38 velocity: 66
@65279 Channel: 9 Note on, E2 key=40 velocity: 84
@65283 Channel: 9 Note off, C2 key=36 velocity: 127
@65507 Channel: 9 Note off, E2 key=40 velocity: 84
@65518 Channel: 9 Note on, D2 key=38 velocity: 64
@65622 Channel: 9 Note off, D2 key=38 velocity: 64
@65638 Channel: 9 Note on, E2 key=40 velocity: 65
@65758 Channel: 9 Note on, D2 key=38 velocity: 65
@65765 Channel: 9 Note off, E2 key=40 velocity: 65
@65999 Channel: 9 Note on, E2 key=40 velocity: 63
@66015 Channel: 9 Note off, D2 key=38 velocity: 65
@66240 Channel: 9 Note off, E2 key=40 velocity: 63
@66240 Channel: 9 Command:176
@66240 Channel: 9 Command:176
@66240 Channel: 9 Note on, D2 key=38 velocity: 84
@66240 Channel: 9 Note on, C2 key=36 velocity: 127
@66240 Channel: 9 Note on, B3 key=59 velocity: 126
@66460 Channel: 9 Note off, C2 key=36 velocity: 127
@66469 Channel: 9 Note off, D2 key=38 velocity: 84
@66479 Channel: 9 Note off, B3 key=59 velocity: 126
@66480 Channel: 9 Note on, E2 key=40 velocity: 64
@66581 Channel: 9 Note off, E2 key=40 velocity: 64
@66600 Channel: 9 Note on, D2 key=38 velocity: 63
@66605 Channel: 9 Note on, C2 key=36 velocity: 127
@66714 Channel: 9 Note off, C2 key=36 velocity: 127
@66718 Channel: 9 Note off, D2 key=38 velocity: 63
@66720 Channel: 9 Note on, E2 key=40 velocity: 85
@66724 Channel: 9 Note on, C2 key=36 velocity: 127
@66954 Channel: 9 Note off, E2 key=40 velocity: 85
@66960 Channel: 9 Note on, D2 key=38 velocity: 63
@67056 Channel: 9 Note off, D2 key=38 velocity: 63
@67079 Channel: 9 Note on, E2 key=40 velocity: 64
@67190 Channel: 9 Note off, E2 key=40 velocity: 64
@67200 Channel: 9 Note on, D2 key=38 velocity: 65
@67243 Channel: 9 Note off, C2 key=36 velocity: 127
@67401 Channel: 9 Note off, D2 key=38 velocity: 65
@67439 Channel: 9 Note on, E2 key=40 velocity: 65
@67545 Channel: 9 Note off, E2 key=40 velocity: 65
@67558 Channel: 9 Note on, D2 key=38 velocity: 66
@67662 Channel: 9 Note off, D2 key=38 velocity: 66
@67680 Channel: 9 Note on, C2 key=36 velocity: 127
@67680 Channel: 9 Note on, D2 key=38 velocity: 87
@67908 Channel: 9 Note off, D2 key=38 velocity: 87
@67919 Channel: 9 Note on, E2 key=40 velocity: 66
@68025 Channel: 9 Note off, E2 key=40 velocity: 66
@68039 Channel: 9 Note on, D2 key=38 velocity: 66
@68151 Channel: 9 Note off, D2 key=38 velocity: 66
@68159 Channel: 9 Note off, C2 key=36 velocity: 127
@68159 Channel: 9 Note on, E2 key=40 velocity: 84
@68387 Channel: 9 Note off, E2 key=40 velocity: 84
@68398 Channel: 9 Note on, D2 key=38 velocity: 64
@68502 Channel: 9 Note off, D2 key=38 velocity: 64
@68518 Channel: 9 Note on, E2 key=40 velocity: 65
@68638 Channel: 9 Note on, D2 key=38 velocity: 65
@68645 Channel: 9 Note off, E2 key=40 velocity: 65
@68879 Channel: 9 Note on, E2 key=40 velocity: 63
@68895 Channel: 9 Note off, D2 key=38 velocity: 65
@69120 Channel: 9 Note off, E2 key=40 velocity: 63
@69120 Channel: 9 Command:176
@69120 Channel: 9 Command:176
@69120 Channel: 9 Note on, D2 key=38 velocity: 87
@69120 Channel: 9 Note on, C2 key=36 velocity: 127
@69120 Channel: 9 Note on, B3 key=59 velocity: 126
@69323 Channel: 9 Note off, D2 key=38 velocity: 87
@69340 Channel: 9 Note off, C2 key=36 velocity: 127
@69358 Channel: 9 Note on, E2 key=40 velocity: 63
@69359 Channel: 9 Note off, B3 key=59 velocity: 126
@69453 Channel: 9 Note off, E2 key=40 velocity: 63
@69477 Channel: 9 Note on, D2 key=38 velocity: 65
@69485 Channel: 9 Note on, C2 key=36 velocity: 127
@69584 Channel: 9 Note off, D2 key=38 velocity: 65
@69594 Channel: 9 Note off, C2 key=36 velocity: 127
@69597 Channel: 9 Note on, E2 key=40 velocity: 83
@69604 Channel: 9 Note on, C2 key=36 velocity: 127
@69766 Channel: 9 Note off, E2 key=40 velocity: 83
@69837 Channel: 9 Note on, D2 key=38 velocity: 64
@69957 Channel: 9 Note on, E2 key=40 velocity: 65
@69965 Channel: 9 Note off, D2 key=38 velocity: 64
@70053 Channel: 9 Note off, E2 key=40 velocity: 65
@70077 Channel: 9 Note on, D2 key=38 velocity: 65
@70123 Channel: 9 Note off, C2 key=36 velocity: 127
@70317 Channel: 9 Note off, D2 key=38 velocity: 65
@70318 Channel: 9 Note on, E2 key=40 velocity: 66
@70560 Channel: 9 Note off, E2 key=40 velocity: 66
@70560 Channel: 9 Note on, C2 key=36 velocity: 127
@70560 Channel: 9 Note on, D2 key=38 velocity: 87
@70788 Channel: 9 Note off, D2 key=38 velocity: 87
@70799 Channel: 9 Note on, E2 key=40 velocity: 66
@70905 Channel: 9 Note off, E2 key=40 velocity: 66
@70919 Channel: 9 Note on, D2 key=38 velocity: 66
@71031 Channel: 9 Note off, D2 key=38 velocity: 66
@71039 Channel: 9 Note on, E2 key=40 velocity: 84
@71043 Channel: 9 Note off, C2 key=36 velocity: 127
@71267 Channel: 9 Note off, E2 key=40 velocity: 84
@71278 Channel: 9 Note on, D2 key=38 velocity: 64
@71382 Channel: 9 Note off, D2 key=38 velocity: 64
@71398 Channel: 9 Note on, E2 key=40 velocity: 65
@71518 Channel: 9 Note on, D2 key=38 velocity: 65
@71525 Channel: 9 Note off, E2 key=40 velocity: 65
@71759 Channel: 9 Note on, E2 key=40 velocity: 63
@71775 Channel: 9 Note off, D2 key=38 velocity: 65
@71998 Channel: 9 Note on, C2 key=36 velocity: 127
@72000 Channel: 9 Note off, E2 key=40 velocity: 63
@72000 Channel: 9 Command:176
@72000 Channel: 9 Note on, C2 key=36 velocity: 127
@72000 Channel: 9 Note on, D2 key=38 velocity: 84
@72000 Channel: 9 Note on, B3 key=59 velocity: 74
@72229 Channel: 9 Note off, D2 key=38 velocity: 84
@72239 Channel: 9 Note off, B3 key=59 velocity: 74
@72240 Channel: 9 Note on, E2 key=40 velocity: 64
@72341 Channel: 9 Note off, E2 key=40 velocity: 64
@72360 Channel: 9 Note on, D2 key=38 velocity: 63
@72474 Channel: 9 Note off, C2 key=36 velocity: 127
@72478 Channel: 9 Note off, D2 key=38 velocity: 63
@72479 Channel: 9 Note off, C2 key=36 velocity: 127
@72480 Channel: 9 Note on, E2 key=40 velocity: 85
@72714 Channel: 9 Note off, E2 key=40 velocity: 85
@72720 Channel: 9 Note on, D2 key=38 velocity: 63
@72816 Channel: 9 Note off, D2 key=38 velocity: 63
@72839 Channel: 9 Note on, E2 key=40 velocity: 64
@72950 Channel: 9 Note off, E2 key=40 velocity: 64
@72960 Channel: 9 Note on, D2 key=38 velocity: 65
@73161 Channel: 9 Note off, D2 key=38 velocity: 65
@73199 Channel: 9 Note on, E2 key=40 velocity: 65
@73305 Channel: 9 Note off, E2 key=40 velocity: 65
@73318 Channel: 9 Note on, D2 key=38 velocity: 66
@73422 Channel: 9 Note off, D2 key=38 velocity: 66
@73440 Channel: 9 Note on, C2 key=36 velocity: 127
@73440 Channel: 9 Note on, D2 key=38 velocity: 87
@73668 Channel: 9 Note off, D2 key=38 velocity: 87
@73679 Channel: 9 Note on, E2 key=40 velocity: 66
@73785 Channel: 9 Note off, E2 key=40 velocity: 66
@73799 Channel: 9 Note on, D2 key=38 velocity: 66
@73911 Channel: 9 Note off, D2 key=38 velocity: 66
@73919 Channel: 9 Note off, C2 key=36 velocity: 127
@73919 Channel: 9 Note on, E2 key=40 velocity: 84
@74147 Channel: 9 Note off, E2 key=40 velocity: 84
@74158 Channel: 9 Note on, D2 key=38 velocity: 64
@74262 Channel: 9 Note off, D2 key=38 velocity: 64
@74278 Channel: 9 Note on, E2 key=40 velocity: 65
@74398 Channel: 9 Note on, D2 key=38 velocity: 65
@74405 Channel: 9 Note off, E2 key=40 velocity: 65
@74639 Channel: 9 Note on, E2 key=40 velocity: 63
@74655 Channel: 9 Note off, D2 key=38 velocity: 65
@74880 Channel: 9 Note off, E2 key=40 velocity: 63
@74880 Channel: 9 Command:176
@74880 Channel: 9 Command:176
@74880 Channel: 9 Note on, D2 key=38 velocity: 87
@74880 Channel: 9 Note on, C2 key=36 velocity: 127
@74880 Channel: 9 Note on, B3 key=59 velocity: 126
@75083 Channel: 9 Note off, D2 key=38 velocity: 87
@75100 Channel: 9 Note off, C2 key=36 velocity: 127
@75118 Channel: 9 Note on, E2 key=40 velocity: 63
@75119 Channel: 9 Note off, B3 key=59 velocity: 126
@75213 Channel: 9 Note off, E2 key=40 velocity: 63
@75237 Channel: 9 Note on, D2 key=38 velocity: 65
@75245 Channel: 9 Note on, C2 key=36 velocity: 127
@75344 Channel: 9 Note off, D2 key=38 velocity: 65
@75354 Channel: 9 Note off, C2 key=36 velocity: 127
@75357 Channel: 9 Note on, E2 key=40 velocity: 83
@75364 Channel: 9 Note on, C2 key=36 velocity: 127
@75526 Channel: 9 Note off, E2 key=40 velocity: 83
@75597 Channel: 9 Note on, D2 key=38 velocity: 64
@75717 Channel: 9 Note on, E2 key=40 velocity: 65
@75725 Channel: 9 Note off, D2 key=38 velocity: 64
@75813 Channel: 9 Note off, E2 key=40 velocity: 65
@75837 Channel: 9 Note on, D2 key=38 velocity: 65
@75883 Channel: 9 Note off, C2 key=36 velocity: 127
@76077 Channel: 9 Note off, D2 key=38 velocity: 65
@76078 Channel: 9 Note on, E2 key=40 velocity: 66
@76320 Channel: 9 Note off, E2 key=40 velocity: 66
@76320 Channel: 9 Note on, C2 key=36 velocity: 127
@76320 Channel: 9 Note on, D2 key=38 velocity: 87
@76548 Channel: 9 Note off, D2 key=38 velocity: 87
@76559 Channel: 9 Note on, E2 key=40 velocity: 66
@76665 Channel: 9 Note off, E2 key=40 velocity: 66
@76679 Channel: 9 Note on, D2 key=38 velocity: 66
@76791 Channel: 9 Note off, D2 key=38 velocity: 66
@76799 Channel: 9 Note on, E2 key=40 velocity: 84
@76803 Channel: 9 Note off, C2 key=36 velocity: 127
@77027 Channel: 9 Note off, E2 key=40 velocity: 84
@77038 Channel: 9 Note on, D2 key=38 velocity: 64
@77142 Channel: 9 Note off, D2 key=38 velocity: 64
@77158 Channel: 9 Note on, E2 key=40 velocity: 65
@77278 Channel: 9 Note on, D2 key=38 velocity: 65
@77285 Channel: 9 Note off, E2 key=40 velocity: 65
@77519 Channel: 9 Note on, E2 key=40 velocity: 63
@77535 Channel: 9 Note off, D2 key=38 velocity: 65
@77760 Channel: 9 Note off, E2 key=40 velocity: 63
@77760 Channel: 9 Command:176
@77760 Channel: 9 Command:176
@77760 Channel: 9 Note on, D2 key=38 velocity: 84
@77760 Channel: 9 Note on, C2 key=36 velocity: 127
@77760 Channel: 9 Note on, B3 key=59 velocity: 126
@77980 Channel: 9 Note off, C2 key=36 velocity: 127
@77989 Channel: 9 Note off, D2 key=38 velocity: 84
@77999 Channel: 9 Note off, B3 key=59 velocity: 126
@78000 Channel: 9 Note on, E2 key=40 velocity: 64
@78101 Channel: 9 Note off, E2 key=40 velocity: 64
@78120 Channel: 9 Note on, D2 key=38 velocity: 63
@78125 Channel: 9 Note on, C2 key=36 velocity: 127
@78234 Channel: 9 Note off, C2 key=36 velocity: 127
@78238 Channel: 9 Note off, D2 key=38 velocity: 63
@78240 Channel: 9 Note on, E2 key=40 velocity: 85
@78244 Channel: 9 Note on, C2 key=36 velocity: 127
@78474 Channel: 9 Note off, E2 key=40 velocity: 85
@78480 Channel: 9 Note on, D2 key=38 velocity: 63
@78576 Channel: 9 Note off, D2 key=38 velocity: 63
@78599 Channel: 9 Note on, E2 key=40 velocity: 64
@78710 Channel: 9 Note off, E2 key=40 velocity: 64
@78720 Channel: 9 Note on, D2 key=38 velocity: 65
@78763 Channel: 9 Note off, C2 key=36 velocity: 127
@78921 Channel: 9 Note off, D2 key=38 velocity: 65
@78959 Channel: 9 Note on, E2 key=40 velocity: 65
@79065 Channel: 9 Note off, E2 key=40 velocity: 65
@79078 Channel: 9 Note on, D2 key=38 velocity: 66
@79182 Channel: 9 Note off, D2 key=38 velocity: 66
@79200 Channel: 9 Note on, C2 key=36 velocity: 127
@79200 Channel: 9 Note on, D2 key=38 velocity: 87
@79428 Channel: 9 Note off, D2 key=38 velocity: 87
@79439 Channel: 9 Note on, E2 key=40 velocity: 66
@79545 Channel: 9 Note off, E2 key=40 velocity: 66
@79559 Channel: 9 Note on, D2 key=38 velocity: 66
@79671 Channel: 9 Note off, D2 key=38 velocity: 66
@79679 Channel: 9 Note off, C2 key=36 velocity: 127
@79679 Channel: 9 Note on, E2 key=40 velocity: 84
@79907 Channel: 9 Note off, E2 key=40 velocity: 84
@79918 Channel: 9 Note on, D2 key=38 velocity: 64
@80022 Channel: 9 Note off, D2 key=38 velocity: 64
@80038 Channel: 9 Note on, E2 key=40 velocity: 65
@80158 Channel: 9 Note on, D2 key=38 velocity: 65
@80165 Channel: 9 Note off, E2 key=40 velocity: 65
@80399 Channel: 9 Note on, E2 key=40 velocity: 63
@80415 Channel: 9 Note off, D2 key=38 velocity: 65
@80640 Channel: 9 Note off, E2 key=40 velocity: 63
@80640 Channel: 9 Command:176
@80640 Channel: 9 Command:176
@80640 Channel: 9 Note on, D2 key=38 velocity: 87
@80640 Channel: 9 Note on, C2 key=36 velocity: 127
@80640 Channel: 9 Note on, B3 key=59 velocity: 126
@80843 Channel: 9 Note off, D2 key=38 velocity: 87
@80860 Channel: 9 Note off, C2 key=36 velocity: 127
@80878 Channel: 9 Note on, E2 key=40 velocity: 63
@80879 Channel: 9 Note off, B3 key=59 velocity: 126
@80973 Channel: 9 Note off, E2 key=40 velocity: 63
@80997 Channel: 9 Note on, D2 key=38 velocity: 65
@81005 Channel: 9 Note on, C2 key=36 velocity: 127
@81104 Channel: 9 Note off, D2 key=38 velocity: 65
@81114 Channel: 9 Note off, C2 key=36 velocity: 127
@81117 Channel: 9 Note on, E2 key=40 velocity: 83
@81124 Channel: 9 Note on, C2 key=36 velocity: 127
@81286 Channel: 9 Note off, E2 key=40 velocity: 83
@81357 Channel: 9 Note on, D2 key=38 velocity: 64
@81477 Channel: 9 Note on, E2 key=40 velocity: 65
@81485 Channel: 9 Note off, D2 key=38 velocity: 64
@81573 Channel: 9 Note off, E2 key=40 velocity: 65
@81597 Channel: 9 Note on, D2 key=38 velocity: 65
@81643 Channel: 9 Note off, C2 key=36 velocity: 127
@81837 Channel: 9 Note off, D2 key=38 velocity: 65
@81838 Channel: 9 Note on, E2 key=40 velocity: 66
@82080 Channel: 9 Note off, E2 key=40 velocity: 66
@82080 Channel: 9 Note on, C2 key=36 velocity: 127
@82080 Channel: 9 Note on, D2 key=38 velocity: 87
@82308 Channel: 9 Note off, D2 key=38 velocity: 87
@82319 Channel: 9 Note on, E2 key=40 velocity: 66
@82425 Channel: 9 Note off, E2 key=40 velocity: 66
@82439 Channel: 9 Note on, D2 key=38 velocity: 66
@82551 Channel: 9 Note off, D2 key=38 velocity: 66
@82559 Channel: 9 Note on, E2 key=40 velocity: 84
@82563 Channel: 9 Note off, C2 key=36 velocity: 127
@82787 Channel: 9 Note off, E2 key=40 velocity: 84
@82798 Channel: 9 Note on, D2 key=38 velocity: 64
@82902 Channel: 9 Note off, D2 key=38 velocity: 64
@82918 Channel: 9 Note on, E2 key=40 velocity: 65
@83038 Channel: 9 Note on, D2 key=38 velocity: 65
@83045 Channel: 9 Note off, E2 key=40 velocity: 65
@83279 Channel: 9 Note on, E2 key=40 velocity: 63
@83295 Channel: 9 Note off, D2 key=38 velocity: 65
@83518 Channel: 9 Note on, C2 key=36 velocity: 127
@83520 Channel: 9 Note off, E2 key=40 velocity: 63
@83520 Channel: 9 Command:176
@83520 Channel: 9 Note on, C2 key=36 velocity: 127
@83520 Channel: 9 Note on, D2 key=38 velocity: 84
@83520 Channel: 9 Note on, B3 key=59 velocity: 126
@83749 Channel: 9 Note off, D2 key=38 velocity: 84
@83759 Channel: 9 Note off, B3 key=59 velocity: 126
@83760 Channel: 9 Note on, E2 key=40 velocity: 64
@83861 Channel: 9 Note off, E2 key=40 velocity: 64
@83880 Channel: 9 Note on, D2 key=38 velocity: 63
@83994 Channel: 9 Note off, C2 key=36 velocity: 127
@83998 Channel: 9 Note off, D2 key=38 velocity: 63
@83999 Channel: 9 Note off, C2 key=36 velocity: 127
@84000 Channel: 9 Note on, E2 key=40 velocity: 85
@84234 Channel: 9 Note off, E2 key=40 velocity: 85
@84240 Channel: 9 Note on, D2 key=38 velocity: 63
@84336 Channel: 9 Note off, D2 key=38 velocity: 63
@84359 Channel: 9 Note on, E2 key=40 velocity: 64
@84470 Channel: 9 Note off, E2 key=40 velocity: 64
@84480 Channel: 9 Note on, D2 key=38 velocity: 65
@84681 Channel: 9 Note off, D2 key=38 velocity: 65
@84719 Channel: 9 Note on, E2 key=40 velocity: 65
@84825 Channel: 9 Note off, E2 key=40 velocity: 65
@84838 Channel: 9 Note on, D2 key=38 velocity: 66
@84942 Channel: 9 Note off, D2 key=38 velocity: 66
@84960 Channel: 9 Note on, C2 key=36 velocity: 127
@84960 Channel: 9 Note on, D2 key=38 velocity: 87
@85188 Channel: 9 Note off, D2 key=38 velocity: 87
@85199 Channel: 9 Note on, E2 key=40 velocity: 66
@85305 Channel: 9 Note off, E2 key=40 velocity: 66
@85319 Channel: 9 Note on, D2 key=38 velocity: 66
@85431 Channel: 9 Note off, D2 key=38 velocity: 66
@85439 Channel: 9 Note off, C2 key=36 velocity: 127
@85439 Channel: 9 Note on, E2 key=40 velocity: 84
@85667 Channel: 9 Note off, E2 key=40 velocity: 84
@85678 Channel: 9 Note on, D2 key=38 velocity: 64
@85782 Channel: 9 Note off, D2 key=38 velocity: 64
@85798 Channel: 9 Note on, E2 key=40 velocity: 65
@85918 Channel: 9 Note on, D2 key=38 velocity: 65
@85925 Channel: 9 Note off, E2 key=40 velocity: 65
@86159 Channel: 9 Note on, E2 key=40 velocity: 63
@86175 Channel: 9 Note off, D2 key=38 velocity: 65
@86400 Channel: 9 Note off, E2 key=40 velocity: 63
@86400 Channel: 9 Command:176
@86400 Channel: 9 Command:176
@86400 Channel: 9 Note on, C2 key=36 velocity: 127
@86400 Channel: 9 Note on, D2 key=38 velocity: 87
@86603 Channel: 9 Note off, D2 key=38 velocity: 87
@86638 Channel: 9 Note on, E2 key=40 velocity: 63
@86733 Channel: 9 Note off, E2 key=40 velocity: 63
@86757 Channel: 9 Note on, D2 key=38 velocity: 65
@86864 Channel: 9 Note off, D2 key=38 velocity: 65
@86876 Channel: 9 Note off, C2 key=36 velocity: 127
@86877 Channel: 9 Note on, E2 key=40 velocity: 83
@87046 Channel: 9 Note off, E2 key=40 velocity: 83
@87117 Channel: 9 Note on, D2 key=38 velocity: 64
@87237 Channel: 9 Note on, E2 key=40 velocity: 65
@87245 Channel: 9 Note off, D2 key=38 velocity: 64
@87333 Channel: 9 Note off, E2 key=40 velocity: 65
@87357 Channel: 9 Note on, D2 key=38 velocity: 65
@87597 Channel: 9 Note off, D2 key=38 velocity: 65
@87598 Channel: 9 Note on, E2 key=40 velocity: 66
@87840 Channel: 9 Note off, E2 key=40 velocity: 66
@87840 Channel: 9 Note on, C2 key=36 velocity: 127
@87840 Channel: 9 Note on, D2 key=38 velocity: 87
@88068 Channel: 9 Note off, D2 key=38 velocity: 87
@88079 Channel: 9 Note on, E2 key=40 velocity: 66
@88185 Channel: 9 Note off, E2 key=40 velocity: 66
@88199 Channel: 9 Note on, D2 key=38 velocity: 66
@88311 Channel: 9 Note off, D2 key=38 velocity: 66
@88319 Channel: 9 Note on, E2 key=40 velocity: 84
@88323 Channel: 9 Note off, C2 key=36 velocity: 127
@88547 Channel: 9 Note off, E2 key=40 velocity: 84
@88558 Channel: 9 Note on, D2 key=38 velocity: 64
@88662 Channel: 9 Note off, D2 key=38 velocity: 64
@88678 Channel: 9 Note on, E2 key=40 velocity: 65
@88798 Channel: 9 Note on, D2 key=38 velocity: 65
@88805 Channel: 9 Note off, E2 key=40 velocity: 65
@89039 Channel: 9 Note on, E2 key=40 velocity: 63
@89055 Channel: 9 Note off, D2 key=38 velocity: 65
@89280 Channel: 9 Note off, E2 key=40 velocity: 63
@89280 Channel: 9 Note on, C2 key=36 velocity: 127
@89280 Channel: 9 Note on, D2 key=38 velocity: 84
@89509 Channel: 9 Note off, D2 key=38 velocity: 84
@89520 Channel: 9 Note on, E2 key=40 velocity: 64
@89621 Channel: 9 Note off, E2 key=40 velocity: 64
@89640 Channel: 9 Note on, D2 key=38 velocity: 63
@89758 Channel: 9 Note off, D2 key=38 velocity: 63
@89759 Channel: 9 Note off, C2 key=36 velocity: 127
@89760 Channel: 9 Note on, E2 key=40 velocity: 85
@89994 Channel: 9 Note off, E2 key=40 velocity: 85
@90000 Channel: 9 Note on, D2 key=38 velocity: 63
@90096 Channel: 9 Note off, D2 key=38 velocity: 63
@90119 Channel: 9 Note on, E2 key=40 velocity: 64
@90230 Channel: 9 Note off, E2 key=40 velocity: 64
@90240 Channel: 9 Note on, D2 key=38 velocity: 65
@90441 Channel: 9 Note off, D2 key=38 velocity: 65
@90479 Channel: 9 Note on, E2 key=40 velocity: 65
@90585 Channel: 9 Note off, E2 key=40 velocity: 65
@90598 Channel: 9 Note on, D2 key=38 velocity: 66
@90702 Channel: 9 Note off, D2 key=38 velocity: 66
@90720 Channel: 9 Note on, C2 key=36 velocity: 127
@90720 Channel: 9 Note on, D2 key=38 velocity: 87
@90948 Channel: 9 Note off, D2 key=38 velocity: 87
@90959 Channel: 9 Note on, E2 key=40 velocity: 66
@91065 Channel: 9 Note off, E2 key=40 velocity: 66
@91079 Channel: 9 Note on, D2 key=38 velocity: 66
@91191 Channel: 9 Note off, D2 key=38 velocity: 66
@91199 Channel: 9 Note off, C2 key=36 velocity: 127
@91199 Channel: 9 Note on, E2 key=40 velocity: 84
@91427 Channel: 9 Note off, E2 key=40 velocity: 84
@91438 Channel: 9 Note on, D2 key=38 velocity: 64
@91542 Channel: 9 Note off, D2 key=38 velocity: 64
@91558 Channel: 9 Note on, E2 key=40 velocity: 65
@91678 Channel: 9 Note on, D2 key=38 velocity: 65
@91685 Channel: 9 Note off, E2 key=40 velocity: 65
@91919 Channel: 9 Note on, E2 key=40 velocity: 63
@91935 Channel: 9 Note off, D2 key=38 velocity: 65
@92160 Channel: 9 Note off, E2 key=40 velocity: 63
@92160 Channel: 9 Note on, C2 key=36 velocity: 127
@92160 Channel: 9 Note on, D2 key=38 velocity: 87
@92363 Channel: 9 Note off, D2 key=38 velocity: 87
@92398 Channel: 9 Note on, E2 key=40 velocity: 63
@92493 Channel: 9 Note off, E2 key=40 velocity: 63
@92517 Channel: 9 Note on, D2 key=38 velocity: 65
@92624 Channel: 9 Note off, D2 key=38 velocity: 65
@92636 Channel: 9 Note off, C2 key=36 velocity: 127
@92637 Channel: 9 Note on, E2 key=40 velocity: 83
@92806 Channel: 9 Note off, E2 key=40 velocity: 83
@92877 Channel: 9 Note on, D2 key=38 velocity: 64
@92997 Channel: 9 Note on, E2 key=40 velocity: 65
@93005 Channel: 9 Note off, D2 key=38 velocity: 64
@93093 Channel: 9 Note off, E2 key=40 velocity: 65
@93117 Channel: 9 Note on, D2 key=38 velocity: 65
@93357 Channel: 9 Note off, D2 key=38 velocity: 65
@93358 Channel: 9 Note on, E2 key=40 velocity: 66
@93600 Channel: 9 Note off, E2 key=40 velocity: 66
@93600 Channel: 9 Note on, C2 key=36 velocity: 127
@93600 Channel: 9 Note on, D2 key=38 velocity: 87
@93828 Channel: 9 Note off, D2 key=38 velocity: 87
@93839 Channel: 9 Note on, E2 key=40 velocity: 66
@93945 Channel: 9 Note off, E2 key=40 velocity: 66
@93959 Channel: 9 Note on, D2 key=38 velocity: 66
@94071 Channel: 9 Note off, D2 key=38 velocity: 66
@94079 Channel: 9 Note on, E2 key=40 velocity: 84
@94083 Channel: 9 Note off, C2 key=36 velocity: 127
@94307 Channel: 9 Note off, E2 key=40 velocity: 84
@94318 Channel: 9 Note on, D2 key=38 velocity: 64
@94422 Channel: 9 Note off, D2 key=38 velocity: 64
@94438 Channel: 9 Note on, E2 key=40 velocity: 65
@94558 Channel: 9 Note on, D2 key=38 velocity: 65
@94565 Channel: 9 Note off, E2 key=40 velocity: 65
@94799 Channel: 9 Note on, E2 key=40 velocity: 63
@94815 Channel: 9 Note off, D2 key=38 velocity: 65
@95040 Channel: 9 Note off, E2 key=40 velocity: 63
@95040 Channel: 9 Note on, C2 key=36 velocity: 127
@95040 Channel: 9 Note on, D2 key=38 velocity: 84
@95269 Channel: 9 Note off, D2 key=38 velocity: 84
@95280 Channel: 9 Note on, E2 key=40 velocity: 64
@95381 Channel: 9 Note off, E2 key=40 velocity: 64
@95400 Channel: 9 Note on, D2 key=38 velocity: 63
@95518 Channel: 9 Note off, D2 key=38 velocity: 63
@95519 Channel: 9 Note off, C2 key=36 velocity: 127
@95520 Channel: 9 Note on, E2 key=40 velocity: 85
@95754 Channel: 9 Note off, E2 key=40 velocity: 85
@95760 Channel: 9 Note on, D2 key=38 velocity: 63
@95856 Channel: 9 Note off, D2 key=38 velocity: 63
@95879 Channel: 9 Note on, E2 key=40 velocity: 64
@95990 Channel: 9 Note off, E2 key=40 velocity: 64
@96000 Channel: 9 Note on, D2 key=38 velocity: 65
@96201 Channel: 9 Note off, D2 key=38 velocity: 65
@96239 Channel: 9 Note on, E2 key=40 velocity: 65
@96345 Channel: 9 Note off, E2 key=40 velocity: 65
@96358 Channel: 9 Note on, D2 key=38 velocity: 66
@96462 Channel: 9 Note off, D2 key=38 velocity: 66
@96480 Channel: 9 Note on, C2 key=36 velocity: 127
@96480 Channel: 9 Note on, D2 key=38 velocity: 87
@96708 Channel: 9 Note off, D2 key=38 velocity: 87
@96719 Channel: 9 Note on, E2 key=40 velocity: 66
@96825 Channel: 9 Note off, E2 key=40 velocity: 66
@96839 Channel: 9 Note on, D2 key=38 velocity: 66
@96951 Channel: 9 Note off, D2 key=38 velocity: 66
@96959 Channel: 9 Note off, C2 key=36 velocity: 127
@96959 Channel: 9 Note on, E2 key=40 velocity: 84
@97187 Channel: 9 Note off, E2 key=40 velocity: 84
@97198 Channel: 9 Note on, D2 key=38 velocity: 64
@97302 Channel: 9 Note off, D2 key=38 velocity: 64
@97318 Channel: 9 Note on, E2 key=40 velocity: 65
@97438 Channel: 9 Note on, D2 key=38 velocity: 65
@97445 Channel: 9 Note off, E2 key=40 velocity: 65
@97679 Channel: 9 Note on, E2 key=40 velocity: 63
@97695 Channel: 9 Note off, D2 key=38 velocity: 65
@97920 Channel: 9 Note off, E2 key=40 velocity: 63
@97920 Channel: 9 Note on, C2 key=36 velocity: 127
@97920 Channel: 9 Note on, D2 key=38 velocity: 87
@98123 Channel: 9 Note off, D2 key=38 velocity: 87
@98158 Channel: 9 Note on, E2 key=40 velocity: 63
@98253 Channel: 9 Note off, E2 key=40 velocity: 63
@98277 Channel: 9 Note on, D2 key=38 velocity: 65
@98384 Channel: 9 Note off, D2 key=38 velocity: 65
@98396 Channel: 9 Note off, C2 key=36 velocity: 127
@98397 Channel: 9 Note on, E2 key=40 velocity: 83
@98566 Channel: 9 Note off, E2 key=40 velocity: 83
@98637 Channel: 9 Note on, D2 key=38 velocity: 64
@98757 Channel: 9 Note on, E2 key=40 velocity: 65
@98765 Channel: 9 Note off, D2 key=38 velocity: 64
@98853 Channel: 9 Note off, E2 key=40 velocity: 65
@98877 Channel: 9 Note on, D2 key=38 velocity: 65
@99117 Channel: 9 Note off, D2 key=38 velocity: 65
@99118 Channel: 9 Note on, E2 key=40 velocity: 66
@99360 Channel: 9 Note off, E2 key=40 velocity: 66
@99360 Channel: 9 Note on, C2 key=36 velocity: 127
@99360 Channel: 9 Note on, D2 key=38 velocity: 87
@99588 Channel: 9 Note off, D2 key=38 velocity: 87
@99599 Channel: 9 Note on, E2 key=40 velocity: 66
@99705 Channel: 9 Note off, E2 key=40 velocity: 66
@99719 Channel: 9 Note on, D2 key=38 velocity: 66
@99831 Channel: 9 Note off, D2 key=38 velocity: 66
@99839 Channel: 9 Note on, E2 key=40 velocity: 84
@99843 Channel: 9 Note off, C2 key=36 velocity: 127
@100067 Channel: 9 Note off, E2 key=40 velocity: 84
@100078 Channel: 9 Note on, D2 key=38 velocity: 64
@100182 Channel: 9 Note off, D2 key=38 velocity: 64
@100198 Channel: 9 Note on, E2 key=40 velocity: 65
@100318 Channel: 9 Note on, D2 key=38 velocity: 65
@100325 Channel: 9 Note off, E2 key=40 velocity: 65
@100559 Channel: 9 Note on, E2 key=40 velocity: 63
@100575 Channel: 9 Note off, D2 key=38 velocity: 65
@100800 Channel: 9 Note off, E2 key=40 velocity: 63
@100800 Channel: 9 Note on, C2 key=36 velocity: 127
@100800 Channel: 9 Note on, D2 key=38 velocity: 84
@101029 Channel: 9 Note off, D2 key=38 velocity: 84
@101040 Channel: 9 Note on, E2 key=40 velocity: 64
@101141 Channel: 9 Note off, E2 key=40 velocity: 64
@101160 Channel: 9 Note on, D2 key=38 velocity: 63
@101278 Channel: 9 Note off, D2 key=38 velocity: 63
@101279 Channel: 9 Note off, C2 key=36 velocity: 127
@101280 Channel: 9 Note on, E2 key=40 velocity: 85
@101514 Channel: 9 Note off, E2 key=40 velocity: 85
@101520 Channel: 9 Note on, D2 key=38 velocity: 63
@101616 Channel: 9 Note off, D2 key=38 velocity: 63
@101639 Channel: 9 Note on, E2 key=40 velocity: 64
@101750 Channel: 9 Note off, E2 key=40 velocity: 64
@101760 Channel: 9 Note on, D2 key=38 velocity: 65
@101961 Channel: 9 Note off, D2 key=38 velocity: 65
@101999 Channel: 9 Note on, E2 key=40 velocity: 65
@102105 Channel: 9 Note off, E2 key=40 velocity: 65
@102118 Channel: 9 Note on, D2 key=38 velocity: 66
@102222 Channel: 9 Note off, D2 key=38 velocity: 66
@102240 Channel: 9 Note on, C2 key=36 velocity: 127
@102240 Channel: 9 Note on, D2 key=38 velocity: 87
@102468 Channel: 9 Note off, D2 key=38 velocity: 87
@102479 Channel: 9 Note on, E2 key=40 velocity: 66
@102585 Channel: 9 Note off, E2 key=40 velocity: 66
@102599 Channel: 9 Note on, D2 key=38 velocity: 66
@102711 Channel: 9 Note off, D2 key=38 velocity: 66
@102719 Channel: 9 Note off, C2 key=36 velocity: 127
@102719 Channel: 9 Note on, E2 key=40 velocity: 84
@102947 Channel: 9 Note off, E2 key=40 velocity: 84
@102958 Channel: 9 Note on, D2 key=38 velocity: 64
@103062 Channel: 9 Note off, D2 key=38 velocity: 64
@103078 Channel: 9 Note on, E2 key=40 velocity: 65
@103198 Channel: 9 Note on, D2 key=38 velocity: 65
@103205 Channel: 9 Note off, E2 key=40 velocity: 65
@103439 Channel: 9 Note on, E2 key=40 velocity: 63
@103455 Channel: 9 Note off, D2 key=38 velocity: 65
@103680 Channel: 9 Note off, E2 key=40 velocity: 63
@103680 Channel: 9 Note on, C2 key=36 velocity: 127
@103680 Channel: 9 Note on, D2 key=38 velocity: 87
@103883 Channel: 9 Note off, D2 key=38 velocity: 87
@103918 Channel: 9 Note on, E2 key=40 velocity: 63
@104013 Channel: 9 Note off, E2 key=40 velocity: 63
@104037 Channel: 9 Note on, D2 key=38 velocity: 65
@104144 Channel: 9 Note off, D2 key=38 velocity: 65
@104156 Channel: 9 Note off, C2 key=36 velocity: 127
@104157 Channel: 9 Note on, E2 key=40 velocity: 83
@104326 Channel: 9 Note off, E2 key=40 velocity: 83
@104397 Channel: 9 Note on, D2 key=38 velocity: 64
@104517 Channel: 9 Note on, E2 key=40 velocity: 65
@104525 Channel: 9 Note off, D2 key=38 velocity: 64
@104613 Channel: 9 Note off, E2 key=40 velocity: 65
@104637 Channel: 9 Note on, D2 key=38 velocity: 65
@104877 Channel: 9 Note off, D2 key=38 velocity: 65
@104878 Channel: 9 Note on, E2 key=40 velocity: 66
@105120 Channel: 9 Note off, E2 key=40 velocity: 66
@105120 Channel: 9 Note on, C2 key=36 velocity: 127
@105120 Channel: 9 Note on, D2 key=38 velocity: 87
@105348 Channel: 9 Note off, D2 key=38 velocity: 87
@105359 Channel: 9 Note on, E2 key=40 velocity: 66
@105465 Channel: 9 Note off, E2 key=40 velocity: 66
@105479 Channel: 9 Note on, D2 key=38 velocity: 66
@105591 Channel: 9 Note off, D2 key=38 velocity: 66
@105599 Channel: 9 Note on, E2 key=40 velocity: 84
@105603 Channel: 9 Note off, C2 key=36 velocity: 127
@105827 Channel: 9 Note off, E2 key=40 velocity: 84
@105838 Channel: 9 Note on, D2 key=38 velocity: 64
@105942 Channel: 9 Note off, D2 key=38 velocity: 64
@105958 Channel: 9 Note on, E2 key=40 velocity: 65
@106078 Channel: 9 Note on, D2 key=38 velocity: 65
@106085 Channel: 9 Note off, E2 key=40 velocity: 65
@106319 Channel: 9 Note on, E2 key=40 velocity: 63
@106335 Channel: 9 Note off, D2 key=38 velocity: 65
@106560 Channel: 9 Note off, E2 key=40 velocity: 63
@106560 Channel: 9 Note on, C2 key=36 velocity: 127
@106560 Channel: 9 Note on, D2 key=38 velocity: 84
@106789 Channel: 9 Note off, D2 key=38 velocity: 84
@106800 Channel: 9 Note on, E2 key=40 velocity: 64
@106901 Channel: 9 Note off, E2 key=40 velocity: 64
@106920 Channel: 9 Note on, D2 key=38 velocity: 63
@107038 Channel: 9 Note off, D2 key=38 velocity: 63
@107039 Channel: 9 Note off, C2 key=36 velocity: 127
@107040 Channel: 9 Note on, E2 key=40 velocity: 85
@107274 Channel: 9 Note off, E2 key=40 velocity: 85
@107280 Channel: 9 Note on, D2 key=38 velocity: 63
@107376 Channel: 9 Note off, D2 key=38 velocity: 63
@107399 Channel: 9 Note on, E2 key=40 velocity: 64
@107510 Channel: 9 Note off, E2 key=40 velocity: 64
@107520 Channel: 9 Note on, D2 key=38 velocity: 65
@107721 Channel: 9 Note off, D2 key=38 velocity: 65
@107759 Channel: 9 Note on, E2 key=40 velocity: 65
@107865 Channel: 9 Note off, E2 key=40 velocity: 65
@107878 Channel: 9 Note on, D2 key=38 velocity: 66
@107982 Channel: 9 Note off, D2 key=38 velocity: 66
@108000 Channel: 9 Note on, C2 key=36 velocity: 127
@108000 Channel: 9 Note on, D2 key=38 velocity: 87
@108228 Channel: 9 Note off, D2 key=38 velocity: 87
@108239 Channel: 9 Note on, E2 key=40 velocity: 66
@108345 Channel: 9 Note off, E2 key=40 velocity: 66
@108359 Channel: 9 Note on, D2 key=38 velocity: 66
@108471 Channel: 9 Note off, D2 key=38 velocity: 66
@108479 Channel: 9 Note off, C2 key=36 velocity: 127
@108479 Channel: 9 Note on, E2 key=40 velocity: 84
@108707 Channel: 9 Note off, E2 key=40 velocity: 84
@108718 Channel: 9 Note on, D2 key=38 velocity: 64
@108822 Channel: 9 Note off, D2 key=38 velocity: 64
@108838 Channel: 9 Note on, E2 key=40 velocity: 65
@108958 Channel: 9 Note on, D2 key=38 velocity: 65
@108965 Channel: 9 Note off, E2 key=40 velocity: 65
@109199 Channel: 9 Note on, E2 key=40 velocity: 63
@109215 Channel: 9 Note off, D2 key=38 velocity: 65
@109440 Channel: 9 Note off, E2 key=40 velocity: 63
@109440 Channel: 9 Note on, C2 key=36 velocity: 127
@109440 Channel: 9 Note on, D2 key=38 velocity: 87
@109668 Channel: 9 Note off, D2 key=38 velocity: 87
@109679 Channel: 9 Note on, E2 key=40 velocity: 66
@109785 Channel: 9 Note off, E2 key=40 velocity: 66
@109799 Channel: 9 Note on, D2 key=38 velocity: 66
@109911 Channel: 9 Note off, D2 key=38 velocity: 66
@109919 Channel: 9 Note off, C2 key=36 velocity: 127
@109919 Channel: 9 Note on, E2 key=40 velocity: 84
@110147 Channel: 9 Note off, E2 key=40 velocity: 84
@110158 Channel: 9 Note on, D2 key=38 velocity: 64
@110262 Channel: 9 Note off, D2 key=38 velocity: 64
@110278 Channel: 9 Note on, E2 key=40 velocity: 65
@110398 Channel: 9 Note on, D2 key=38 velocity: 65
@110405 Channel: 9 Note off, E2 key=40 velocity: 65
@110639 Channel: 9 Note on, E2 key=40 velocity: 63
@110655 Channel: 9 Note off, D2 key=38 velocity: 65
@110880 Channel: 9 Note off, E2 key=40 velocity: 63
@110880 Channel: 9 Command:176
@110880 Channel: 9 Command:176
@110880 Channel: 9 Note on, D2 key=38 velocity: 87
@110880 Channel: 9 Note on, C2 key=36 velocity: 127
@110880 Channel: 9 Note on, B3 key=59 velocity: 126
@111083 Channel: 9 Note off, D2 key=38 velocity: 87
@111100 Channel: 9 Note off, C2 key=36 velocity: 127
@111118 Channel: 9 Note on, E2 key=40 velocity: 63
@111119 Channel: 9 Note off, B3 key=59 velocity: 126
@111213 Channel: 9 Note off, E2 key=40 velocity: 63
@111237 Channel: 9 Note on, D2 key=38 velocity: 65
@111245 Channel: 9 Note on, C2 key=36 velocity: 127
@111344 Channel: 9 Note off, D2 key=38 velocity: 65
@111354 Channel: 9 Note off, C2 key=36 velocity: 127
@111357 Channel: 9 Note on, E2 key=40 velocity: 83
@111364 Channel: 9 Note on, C2 key=36 velocity: 127
@111526 Channel: 9 Note off, E2 key=40 velocity: 83
@111597 Channel: 9 Note on, D2 key=38 velocity: 64
@111717 Channel: 9 Note on, E2 key=40 velocity: 65
@111725 Channel: 9 Note off, D2 key=38 velocity: 64
@111813 Channel: 9 Note off, E2 key=40 velocity: 65
@111837 Channel: 9 Note on, D2 key=38 velocity: 65
@111883 Channel: 9 Note off, C2 key=36 velocity: 127
@112077 Channel: 9 Note off, D2 key=38 velocity: 65
@112078 Channel: 9 Note on, E2 key=40 velocity: 66
@112320 Channel: 9 Note off, E2 key=40 velocity: 66
@112320 Channel: 9 Note on, C2 key=36 velocity: 127
@112320 Channel: 9 Note on, D2 key=38 velocity: 87
@112548 Channel: 9 Note off, D2 key=38 velocity: 87
@112559 Channel: 9 Note on, E2 key=40 velocity: 66
@112665 Channel: 9 Note off, E2 key=40 velocity: 66
@112679 Channel: 9 Note on, D2 key=38 velocity: 66
@112791 Channel: 9 Note off, D2 key=38 velocity: 66
@112799 Channel: 9 Note on, E2 key=40 velocity: 84
@112803 Channel: 9 Note off, C2 key=36 velocity: 127
@113027 Channel: 9 Note off, E2 key=40 velocity: 84
@113038 Channel: 9 Note on, D2 key=38 velocity: 64
@113142 Channel: 9 Note off, D2 key=38 velocity: 64
@113158 Channel: 9 Note on, E2 key=40 velocity: 65
@113278 Channel: 9 Note on, D2 key=38 velocity: 65
@113285 Channel: 9 Note off, E2 key=40 velocity: 65
@113519 Channel: 9 Note on, E2 key=40 velocity: 63
@113535 Channel: 9 Note off, D2 key=38 velocity: 65
@113760 Channel: 9 Note off, E2 key=40 velocity: 63
@113760 Channel: 9 Command:176
@113760 Channel: 9 Command:176
@113760 Channel: 9 Note on, D2 key=38 velocity: 84
@113760 Channel: 9 Note on, C2 key=36 velocity: 127
@113760 Channel: 9 Note on, B3 key=59 velocity: 126
@113980 Channel: 9 Note off, C2 key=36 velocity: 127
@113989 Channel: 9 Note off, D2 key=38 velocity: 84
@113999 Channel: 9 Note off, B3 key=59 velocity: 126
@114000 Channel: 9 Note on, E2 key=40 velocity: 64
@114101 Channel: 9 Note off, E2 key=40 velocity: 64
@114120 Channel: 9 Note on, D2 key=38 velocity: 63
@114125 Channel: 9 Note on, C2 key=36 velocity: 127
@114234 Channel: 9 Note off, C2 key=36 velocity: 127
@114238 Channel: 9 Note off, D2 key=38 velocity: 63
@114240 Channel: 9 Note on, E2 key=40 velocity: 85
@114244 Channel: 9 Note on, C2 key=36 velocity: 127
@114474 Channel: 9 Note off, E2 key=40 velocity: 85
@114480 Channel: 9 Note on, D2 key=38 velocity: 63
@114576 Channel: 9 Note off, D2 key=38 velocity: 63
@114599 Channel: 9 Note on, E2 key=40 velocity: 64
@114710 Channel: 9 Note off, E2 key=40 velocity: 64
@114720 Channel: 9 Note on, D2 key=38 velocity: 65
@114763 Channel: 9 Note off, C2 key=36 velocity: 127
@114921 Channel: 9 Note off, D2 key=38 velocity: 65
@114959 Channel: 9 Note on, E2 key=40 velocity: 65
@115065 Channel: 9 Note off, E2 key=40 velocity: 65
@115078 Channel: 9 Note on, D2 key=38 velocity: 66
@115182 Channel: 9 Note off, D2 key=38 velocity: 66
@115200 Channel: 9 Note on, C2 key=36 velocity: 127
@115200 Channel: 9 Note on, D2 key=38 velocity: 87
@115428 Channel: 9 Note off, D2 key=38 velocity: 87
@115439 Channel: 9 Note on, E2 key=40 velocity: 66
@115545 Channel: 9 Note off, E2 key=40 velocity: 66
@115559 Channel: 9 Note on, D2 key=38 velocity: 66
@115671 Channel: 9 Note off, D2 key=38 velocity: 66
@115679 Channel: 9 Note off, C2 key=36 velocity: 127
@115679 Channel: 9 Note on, E2 key=40 velocity: 84
@115907 Channel: 9 Note off, E2 key=40 velocity: 84
@115918 Channel: 9 Note on, D2 key=38 velocity: 64
@116022 Channel: 9 Note off, D2 key=38 velocity: 64
@116038 Channel: 9 Note on, E2 key=40 velocity: 65
@116158 Channel: 9 Note on, D2 key=38 velocity: 65
@116165 Channel: 9 Note off, E2 key=40 velocity: 65
@116399 Channel: 9 Note on, E2 key=40 velocity: 63
@116415 Channel: 9 Note off, D2 key=38 velocity: 65
@116640 Channel: 9 Note off, E2 key=40 velocity: 63
@116640 Channel: 9 Command:176
@116640 Channel: 9 Command:176
@116640 Channel: 9 Note on, D2 key=38 velocity: 87
@116640 Channel: 9 Note on, C2 key=36 velocity: 127
@116640 Channel: 9 Note on, B3 key=59 velocity: 126
@116843 Channel: 9 Note off, D2 key=38 velocity: 87
@116860 Channel: 9 Note off, C2 key=36 velocity: 127
@116878 Channel: 9 Note on, E2 key=40 velocity: 63
@116879 Channel: 9 Note off, B3 key=59 velocity: 126
@116973 Channel: 9 Note off, E2 key=40 velocity: 63
@116997 Channel: 9 Note on, D2 key=38 velocity: 65
@117005 Channel: 9 Note on, C2 key=36 velocity: 127
@117104 Channel: 9 Note off, D2 key=38 velocity: 65
@117114 Channel: 9 Note off, C2 key=36 velocity: 127
@117117 Channel: 9 Note on, E2 key=40 velocity: 83
@117124 Channel: 9 Note on, C2 key=36 velocity: 127
@117286 Channel: 9 Note off, E2 key=40 velocity: 83
@117357 Channel: 9 Note on, D2 key=38 velocity: 64
@117477 Channel: 9 Note on, E2 key=40 velocity: 65
@117485 Channel: 9 Note off, D2 key=38 velocity: 64
@117573 Channel: 9 Note off, E2 key=40 velocity: 65
@117597 Channel: 9 Note on, D2 key=38 velocity: 65
@117643 Channel: 9 Note off, C2 key=36 velocity: 127
@117837 Channel: 9 Note off, D2 key=38 velocity: 65
@117838 Channel: 9 Note on, E2 key=40 velocity: 66
@118080 Channel: 9 Note off, E2 key=40 velocity: 66
@118080 Channel: 9 Note on, C2 key=36 velocity: 127
@118080 Channel: 9 Note on, D2 key=38 velocity: 87
@118308 Channel: 9 Note off, D2 key=38 velocity: 87
@118319 Channel: 9 Note on, E2 key=40 velocity: 66
@118425 Channel: 9 Note off, E2 key=40 velocity: 66
@118439 Channel: 9 Note on, D2 key=38 velocity: 66
@118551 Channel: 9 Note off, D2 key=38 velocity: 66
@118559 Channel: 9 Note on, E2 key=40 velocity: 84
@118563 Channel: 9 Note off, C2 key=36 velocity: 127
@118787 Channel: 9 Note off, E2 key=40 velocity: 84
@118798 Channel: 9 Note on, D2 key=38 velocity: 64
@118902 Channel: 9 Note off, D2 key=38 velocity: 64
@118918 Channel: 9 Note on, E2 key=40 velocity: 65
@119038 Channel: 9 Note on, D2 key=38 velocity: 65
@119045 Channel: 9 Note off, E2 key=40 velocity: 65
@119279 Channel: 9 Note on, E2 key=40 velocity: 63
@119295 Channel: 9 Note off, D2 key=38 velocity: 65
@119518 Channel: 9 Note on, C2 key=36 velocity: 127
@119520 Channel: 9 Note off, E2 key=40 velocity: 63
@119520 Channel: 9 Command:176
@119520 Channel: 9 Note on, C2 key=36 velocity: 127
@119520 Channel: 9 Note on, D2 key=38 velocity: 84
@119520 Channel: 9 Note on, B3 key=59 velocity: 74
@119749 Channel: 9 Note off, D2 key=38 velocity: 84
@119759 Channel: 9 Note off, B3 key=59 velocity: 74
@119760 Channel: 9 Note on, E2 key=40 velocity: 64
@119861 Channel: 9 Note off, E2 key=40 velocity: 64
@119880 Channel: 9 Note on, D2 key=38 velocity: 63
@119994 Channel: 9 Note off, C2 key=36 velocity: 127
@119998 Channel: 9 Note off, D2 key=38 velocity: 63
@119999 Channel: 9 Note off, C2 key=36 velocity: 127
@120000 Channel: 9 Note on, E2 key=40 velocity: 85
@120234 Channel: 9 Note off, E2 key=40 velocity: 85
@120240 Channel: 9 Note on, D2 key=38 velocity: 63
@120336 Channel: 9 Note off, D2 key=38 velocity: 63
@120359 Channel: 9 Note on, E2 key=40 velocity: 64
@120470 Channel: 9 Note off, E2 key=40 velocity: 64
@120480 Channel: 9 Note on, D2 key=38 velocity: 65
@120681 Channel: 9 Note off, D2 key=38 velocity: 65
@120719 Channel: 9 Note on, E2 key=40 velocity: 65
@120825 Channel: 9 Note off, E2 key=40 velocity: 65
@120838 Channel: 9 Note on, D2 key=38 velocity: 66
@120942 Channel: 9 Note off, D2 key=38 velocity: 66
@120960 Channel: 9 Note on, C2 key=36 velocity: 127
@120960 Channel: 9 Note on, D2 key=38 velocity: 87
@121188 Channel: 9 Note off, D2 key=38 velocity: 87
@121199 Channel: 9 Note on, E2 key=40 velocity: 66
@121305 Channel: 9 Note off, E2 key=40 velocity: 66
@121319 Channel: 9 Note on, D2 key=38 velocity: 66
@121431 Channel: 9 Note off, D2 key=38 velocity: 66
@121439 Channel: 9 Note off, C2 key=36 velocity: 127
@121439 Channel: 9 Note on, E2 key=40 velocity: 84
@121667 Channel: 9 Note off, E2 key=40 velocity: 84
@121678 Channel: 9 Note on, D2 key=38 velocity: 64
@121782 Channel: 9 Note off, D2 key=38 velocity: 64
@121798 Channel: 9 Note on, E2 key=40 velocity: 65
@121918 Channel: 9 Note on, D2 key=38 velocity: 65
@121925 Channel: 9 Note off, E2 key=40 velocity: 65
@122159 Channel: 9 Note on, E2 key=40 velocity: 63
@122175 Channel: 9 Note off, D2 key=38 velocity: 65
@122400 Channel: 9 Note off, E2 key=40 velocity: 63
@122400 Channel: 9 Command:176
@122400 Channel: 9 Command:176
@122400 Channel: 9 Note on, D2 key=38 velocity: 87
@122400 Channel: 9 Note on, C2 key=36 velocity: 127
@122400 Channel: 9 Note on, B3 key=59 velocity: 126
@122603 Channel: 9 Note off, D2 key=38 velocity: 87
@122620 Channel: 9 Note off, C2 key=36 velocity: 127
@122638 Channel: 9 Note on, E2 key=40 velocity: 63
@122639 Channel: 9 Note off, B3 key=59 velocity: 126
@122733 Channel: 9 Note off, E2 key=40 velocity: 63
@122757 Channel: 9 Note on, D2 key=38 velocity: 65
@122765 Channel: 9 Note on, C2 key=36 velocity: 127
@122864 Channel: 9 Note off, D2 key=38 velocity: 65
@122874 Channel: 9 Note off, C2 key=36 velocity: 127
@122877 Channel: 9 Note on, E2 key=40 velocity: 83
@122884 Channel: 9 Note on, C2 key=36 velocity: 127
@123046 Channel: 9 Note off, E2 key=40 velocity: 83
@123117 Channel: 9 Note on, D2 key=38 velocity: 64
@123237 Channel: 9 Note on, E2 key=40 velocity: 65
@123245 Channel: 9 Note off, D2 key=38 velocity: 64
@123333 Channel: 9 Note off, E2 key=40 velocity: 65
@123357 Channel: 9 Note on, D2 key=38 velocity: 65
@123403 Channel: 9 Note off, C2 key=36 velocity: 127
@123597 Channel: 9 Note off, D2 key=38 velocity: 65
@123598 Channel: 9 Note on, E2 key=40 velocity: 66
@123840 Channel: 9 Note off, E2 key=40 velocity: 66
@123840 Channel: 9 Note on, C2 key=36 velocity: 127
@123840 Channel: 9 Note on, D2 key=38 velocity: 87
@124068 Channel: 9 Note off, D2 key=38 velocity: 87
@124079 Channel: 9 Note on, E2 key=40 velocity: 66
@124185 Channel: 9 Note off, E2 key=40 velocity: 66
@124199 Channel: 9 Note on, D2 key=38 velocity: 66
@124311 Channel: 9 Note off, D2 key=38 velocity: 66
@124319 Channel: 9 Note on, E2 key=40 velocity: 84
@124323 Channel: 9 Note off, C2 key=36 velocity: 127
@124547 Channel: 9 Note off, E2 key=40 velocity: 84
@124558 Channel: 9 Note on, D2 key=38 velocity: 64
@124662 Channel: 9 Note off, D2 key=38 velocity: 64
@124678 Channel: 9 Note on, E2 key=40 velocity: 65
@124798 Channel: 9 Note on, D2 key=38 velocity: 65
@124805 Channel: 9 Note off, E2 key=40 velocity: 65
@125039 Channel: 9 Note on, E2 key=40 velocity: 63
@125055 Channel: 9 Note off, D2 key=38 velocity: 65
@125280 Channel: 9 Note off, E2 key=40 velocity: 63
@125280 Channel: 9 Command:176
@125280 Channel: 9 Command:176
@125280 Channel: 9 Note on, D2 key=38 velocity: 84
@125280 Channel: 9 Note on, C2 key=36 velocity: 127
@125280 Channel: 9 Note on, B3 key=59 velocity: 126
@125500 Channel: 9 Note off, C2 key=36 velocity: 127
@125509 Channel: 9 Note off, D2 key=38 velocity: 84
@125519 Channel: 9 Note off, B3 key=59 velocity: 126
@125520 Channel: 9 Note on, E2 key=40 velocity: 64
@125621 Channel: 9 Note off, E2 key=40 velocity: 64
@125640 Channel: 9 Note on, D2 key=38 velocity: 63
@125645 Channel: 9 Note on, C2 key=36 velocity: 127
@125754 Channel: 9 Note off, C2 key=36 velocity: 127
@125758 Channel: 9 Note off, D2 key=38 velocity: 63
@125760 Channel: 9 Note on, E2 key=40 velocity: 85
@125764 Channel: 9 Note on, C2 key=36 velocity: 127
@125994 Channel: 9 Note off, E2 key=40 velocity: 85
@126000 Channel: 9 Note on, D2 key=38 velocity: 63
@126096 Channel: 9 Note off, D2 key=38 velocity: 63
@126119 Channel: 9 Note on, E2 key=40 velocity: 64
@126230 Channel: 9 Note off, E2 key=40 velocity: 64
@126240 Channel: 9 Note on, D2 key=38 velocity: 65
@126283 Channel: 9 Note off, C2 key=36 velocity: 127
@126441 Channel: 9 Note off, D2 key=38 velocity: 65
@126479 Channel: 9 Note on, E2 key=40 velocity: 65
@126585 Channel: 9 Note off, E2 key=40 velocity: 65
@126598 Channel: 9 Note on, D2 key=38 velocity: 66
@126702 Channel: 9 Note off, D2 key=38 velocity: 66
@126720 Channel: 9 Note on, C2 key=36 velocity: 127
@126720 Channel: 9 Note on, D2 key=38 velocity: 87
@126948 Channel: 9 Note off, D2 key=38 velocity: 87
@126959 Channel: 9 Note on, E2 key=40 velocity: 66
@127065 Channel: 9 Note off, E2 key=40 velocity: 66
@127079 Channel: 9 Note on, D2 key=38 velocity: 66
@127191 Channel: 9 Note off, D2 key=38 velocity: 66
@127199 Channel: 9 Note off, C2 key=36 velocity: 127
@127199 Channel: 9 Note on, E2 key=40 velocity: 84
@127427 Channel: 9 Note off, E2 key=40 velocity: 84
@127438 Channel: 9 Note on, D2 key=38 velocity: 64
@127542 Channel: 9 Note off, D2 key=38 velocity: 64
@127558 Channel: 9 Note on, E2 key=40 velocity: 65
@127678 Channel: 9 Note on, D2 key=38 velocity: 65
@127685 Channel: 9 Note off, E2 key=40 velocity: 65
@127919 Channel: 9 Note on, E2 key=40 velocity: 63
@127935 Channel: 9 Note off, D2 key=38 velocity: 65
@128160 Channel: 9 Note off, E2 key=40 velocity: 63
@128160 Channel: 9 Command:176
@128160 Channel: 9 Command:176
@128160 Channel: 9 Note on, D2 key=38 velocity: 87
@128160 Channel: 9 Note on, C2 key=36 velocity: 127
@128160 Channel: 9 Note on, B3 key=59 velocity: 126
@128363 Channel: 9 Note off, D2 key=38 velocity: 87
@128380 Channel: 9 Note off, C2 key=36 velocity: 127
@128398 Channel: 9 Note on, E2 key=40 velocity: 63
@128399 Channel: 9 Note off, B3 key=59 velocity: 126
@128493 Channel: 9 Note off, E2 key=40 velocity: 63
@128517 Channel: 9 Note on, D2 key=38 velocity: 65
@128525 Channel: 9 Note on, C2 key=36 velocity: 127
@128624 Channel: 9 Note off, D2 key=38 velocity: 65
@128634 Channel: 9 Note off, C2 key=36 velocity: 127
@128637 Channel: 9 Note on, E2 key=40 velocity: 83
@128644 Channel: 9 Note on, C2 key=36 velocity: 127
@128806 Channel: 9 Note off, E2 key=40 velocity: 83
@128877 Channel: 9 Note on, D2 key=38 velocity: 64
@128997 Channel: 9 Note on, E2 key=40 velocity: 65
@129005 Channel: 9 Note off, D2 key=38 velocity: 64
@129093 Channel: 9 Note off, E2 key=40 velocity: 65
@129117 Channel: 9 Note on, D2 key=38 velocity: 65
@129163 Channel: 9 Note off, C2 key=36 velocity: 127
@129357 Channel: 9 Note off, D2 key=38 velocity: 65
@129358 Channel: 9 Note on, E2 key=40 velocity: 66
@129600 Channel: 9 Note off, E2 key=40 velocity: 66
@129600 Channel: 9 Note on, C2 key=36 velocity: 127
@129600 Channel: 9 Note on, D2 key=38 velocity: 87
@129828 Channel: 9 Note off, D2 key=38 velocity: 87
@129839 Channel: 9 Note on, E2 key=40 velocity: 66
@129945 Channel: 9 Note off, E2 key=40 velocity: 66
@129959 Channel: 9 Note on, D2 key=38 velocity: 66
@130071 Channel: 9 Note off, D2 key=38 velocity: 66
@130079 Channel: 9 Note on, E2 key=40 velocity: 84
@130083 Channel: 9 Note off, C2 key=36 velocity: 127
@130307 Channel: 9 Note off, E2 key=40 velocity: 84
@130318 Channel: 9 Note on, D2 key=38 velocity: 64
@130422 Channel: 9 Note off, D2 key=38 velocity: 64
@130438 Channel: 9 Note on, E2 key=40 velocity: 65
@130558 Channel: 9 Note on, D2 key=38 velocity: 65
@130565 Channel: 9 Note off, E2 key=40 velocity: 65
@130799 Channel: 9 Note on, E2 key=40 velocity: 63
@130815 Channel: 9 Note off, D2 key=38 velocity: 65
@131038 Channel: 9 Note on, C2 key=36 velocity: 127
@131040 Channel: 9 Note off, E2 key=40 velocity: 63
@131040 Channel: 9 Command:176
@131040 Channel: 9 Note on, C2 key=36 velocity: 127
@131040 Channel: 9 Note on, D2 key=38 velocity: 84
@131040 Channel: 9 Note on, B3 key=59 velocity: 126
@131269 Channel: 9 Note off, D2 key=38 velocity: 84
@131279 Channel: 9 Note off, B3 key=59 velocity: 126
@131280 Channel: 9 Note on, E2 key=40 velocity: 64
@131381 Channel: 9 Note off, E2 key=40 velocity: 64
@131400 Channel: 9 Note on, D2 key=38 velocity: 63
@131514 Channel: 9 Note off, C2 key=36 velocity: 127
@131518 Channel: 9 Note off, D2 key=38 velocity: 63
@131519 Channel: 9 Note off, C2 key=36 velocity: 127
@131520 Channel: 9 Note on, E2 key=40 velocity: 85
@131754 Channel: 9 Note off, E2 key=40 velocity: 85
@131760 Channel: 9 Note on, D2 key=38 velocity: 63
@131856 Channel: 9 Note off, D2 key=38 velocity: 63
@131879 Channel: 9 Note on, E2 key=40 velocity: 64
@131990 Channel: 9 Note off, E2 key=40 velocity: 64
@132000 Channel: 9 Note on, D2 key=38 velocity: 65
@132201 Channel: 9 Note off, D2 key=38 velocity: 65
@132239 Channel: 9 Note on, E2 key=40 velocity: 65
@132345 Channel: 9 Note off, E2 key=40 velocity: 65
@132358 Channel: 9 Note on, D2 key=38 velocity: 66
@132462 Channel: 9 Note off, D2 key=38 velocity: 66
@132480 Channel: 9 Note on, C2 key=36 velocity: 127
@132480 Channel: 9 Note on, D2 key=38 velocity: 87
@132708 Channel: 9 Note off, D2 key=38 velocity: 87
@132719 Channel: 9 Note on, E2 key=40 velocity: 66
@132825 Channel: 9 Note off, E2 key=40 velocity: 66
@132839 Channel: 9 Note on, D2 key=38 velocity: 66
@132951 Channel: 9 Note off, D2 key=38 velocity: 66
@132959 Channel: 9 Note off, C2 key=36 velocity: 127
@132959 Channel: 9 Note on, E2 key=40 velocity: 84
@133187 Channel: 9 Note off, E2 key=40 velocity: 84
@133198 Channel: 9 Note on, D2 key=38 velocity: 64
@133302 Channel: 9 Note off, D2 key=38 velocity: 64
@133318 Channel: 9 Note on, E2 key=40 velocity: 65
@133438 Channel: 9 Note on, D2 key=38 velocity: 65
@133445 Channel: 9 Note off, E2 key=40 velocity: 65
@133679 Channel: 9 Note on, E2 key=40 velocity: 63
@133695 Channel: 9 Note off, D2 key=38 velocity: 65
@133920 Channel: 9 Note off, E2 key=40 velocity: 63
@133920 Channel: 9 Command:176
@133920 Channel: 9 Command:176
@133920 Channel: 9 Note on, C2 key=36 velocity: 127
@133920 Channel: 9 Note on, D2 key=38 velocity: 87
@134123 Channel: 9 Note off, D2 key=38 velocity: 87
@134158 Channel: 9 Note on, E2 key=40 velocity: 63
@134253 Channel: 9 Note off, E2 key=40 velocity: 63
@134277 Channel: 9 Note on, D2 key=38 velocity: 65
@134384 Channel: 9 Note off, D2 key=38 velocity: 65
@134396 Channel: 9 Note off, C2 key=36 velocity: 127
@134397 Channel: 9 Note on, E2 key=40 velocity: 83
@134566 Channel: 9 Note off, E2 key=40 velocity: 83
@134637 Channel: 9 Note on, D2 key=38 velocity: 64
@134757 Channel: 9 Note on, E2 key=40 velocity: 65
@134765 Channel: 9 Note off, D2 key=38 velocity: 64
@134853 Channel: 9 Note off, E2 key=40 velocity: 65
@134877 Channel: 9 Note on, D2 key=38 velocity: 65
@135117 Channel: 9 Note off, D2 key=38 velocity: 65
@135118 Channel: 9 Note on, E2 key=40 velocity: 66
@135360 Channel: 9 Note off, E2 key=40 velocity: 66
@135360 Channel: 9 Note on, C2 key=36 velocity: 127
@135360 Channel: 9 Note on, D2 key=38 velocity: 87
@135588 Channel: 9 Note off, D2 key=38 velocity: 87
@135599 Channel: 9 Note on, E2 key=40 velocity: 66
@135705 Channel: 9 Note off, E2 key=40 velocity: 66
@135719 Channel: 9 Note on, D2 key=38 velocity: 66
@135831 Channel: 9 Note off, D2 key=38 velocity: 66
@135839 Channel: 9 Note on, E2 key=40 velocity: 84
@135843 Channel: 9 Note off, C2 key=36 velocity: 127
@136067 Channel: 9 Note off, E2 key=40 velocity: 84
@136078 Channel: 9 Note on, D2 key=38 velocity: 64
@136182 Channel: 9 Note off, D2 key=38 velocity: 64
@136198 Channel: 9 Note on, E2 key=40 velocity: 65
@136318 Channel: 9 Note on, D2 key=38 velocity: 65
@136325 Channel: 9 Note off, E2 key=40 velocity: 65
@136559 Channel: 9 Note on, E2 key=40 velocity: 63
@136575 Channel: 9 Note off, D2 key=38 velocity: 65
@136800 Channel: 9 Note off, E2 key=40 velocity: 63
@136800 Channel: 9 Note on, C2 key=36 velocity: 127
@136800 Channel: 9 Note on, D2 key=38 velocity: 84
@137029 Channel: 9 Note off, D2 key=38 velocity: 84
@137040 Channel: 9 Note on, E2 key=40 velocity: 64
@137141 Channel: 9 Note off, E2 key=40 velocity: 64
@137160 Channel: 9 Note on, D2 key=38 velocity: 63
@137278 Channel: 9 Note off, D2 key=38 velocity: 63
@137279 Channel: 9 Note off, C2 key=36 velocity: 127
@137280 Channel: 9 Note on, E2 key=40 velocity: 85
@137514 Channel: 9 Note off, E2 key=40 velocity: 85
@137520 Channel: 9 Note on, D2 key=38 velocity: 63
@137616 Channel: 9 Note off, D2 key=38 velocity: 63
@137639 Channel: 9 Note on, E2 key=40 velocity: 64
@137750 Channel: 9 Note off, E2 key=40 velocity: 64
@137760 Channel: 9 Note on, D2 key=38 velocity: 65
@137961 Channel: 9 Note off, D2 key=38 velocity: 65
@137999 Channel: 9 Note on, E2 key=40 velocity: 65
@138105 Channel: 9 Note off, E2 key=40 velocity: 65
@138118 Channel: 9 Note on, D2 key=38 velocity: 66
@138222 Channel: 9 Note off, D2 key=38 velocity: 66
@138240 Channel: 9 Note on, C2 key=36 velocity: 127
@138240 Channel: 9 Note on, D2 key=38 velocity: 87
@138468 Channel: 9 Note off, D2 key=38 velocity: 87
@138479 Channel: 9 Note on, E2 key=40 velocity: 66
@138585 Channel: 9 Note off, E2 key=40 velocity: 66
@138599 Channel: 9 Note on, D2 key=38 velocity: 66
@138711 Channel: 9 Note off, D2 key=38 velocity: 66
@138719 Channel: 9 Note off, C2 key=36 velocity: 127
@138719 Channel: 9 Note on, E2 key=40 velocity: 84
@138947 Channel: 9 Note off, E2 key=40 velocity: 84
@138958 Channel: 9 Note on, D2 key=38 velocity: 64
@139062 Channel: 9 Note off, D2 key=38 velocity: 64
@139078 Channel: 9 Note on, E2 key=40 velocity: 65
@139198 Channel: 9 Note on, D2 key=38 velocity: 65
@139205 Channel: 9 Note off, E2 key=40 velocity: 65
@139439 Channel: 9 Note on, E2 key=40 velocity: 63
@139455 Channel: 9 Note off, D2 key=38 velocity: 65
@139680 Channel: 9 Note off, E2 key=40 velocity: 63
@139680 Channel: 9 Note on, C2 key=36 velocity: 127
@139680 Channel: 9 Note on, D2 key=38 velocity: 87
@139883 Channel: 9 Note off, D2 key=38 velocity: 87
@139918 Channel: 9 Note on, E2 key=40 velocity: 63
@140013 Channel: 9 Note off, E2 key=40 velocity: 63
@140037 Channel: 9 Note on, D2 key=38 velocity: 65
@140144 Channel: 9 Note off, D2 key=38 velocity: 65
@140156 Channel: 9 Note off, C2 key=36 velocity: 127
@140157 Channel: 9 Note on, E2 key=40 velocity: 83
@140326 Channel: 9 Note off, E2 key=40 velocity: 83
@140397 Channel: 9 Note on, D2 key=38 velocity: 64
@140517 Channel: 9 Note on, E2 key=40 velocity: 65
@140525 Channel: 9 Note off, D2 key=38 velocity: 64
@140613 Channel: 9 Note off, E2 key=40 velocity: 65
@140637 Channel: 9 Note on, D2 key=38 velocity: 65
@140877 Channel: 9 Note off, D2 key=38 velocity: 65
@140878 Channel: 9 Note on, E2 key=40 velocity: 66
@141120 Channel: 9 Note off, E2 key=40 velocity: 66
@141120 Channel: 9 Note on, C2 key=36 velocity: 127
@141120 Channel: 9 Note on, D2 key=38 velocity: 87
@141348 Channel: 9 Note off, D2 key=38 velocity: 87
@141359 Channel: 9 Note on, E2 key=40 velocity: 66
@141465 Channel: 9 Note off, E2 key=40 velocity: 66
@141479 Channel: 9 Note on, D2 key=38 velocity: 66
@141591 Channel: 9 Note off, D2 key=38 velocity: 66
@141599 Channel: 9 Note on, E2 key=40 velocity: 84
@141603 Channel: 9 Note off, C2 key=36 velocity: 127
@141827 Channel: 9 Note off, E2 key=40 velocity: 84
@141838 Channel: 9 Note on, D2 key=38 velocity: 64
@141942 Channel: 9 Note off, D2 key=38 velocity: 64
@141958 Channel: 9 Note on, E2 key=40 velocity: 65
@142078 Channel: 9 Note on, D2 key=38 velocity: 65
@142085 Channel: 9 Note off, E2 key=40 velocity: 65
@142319 Channel: 9 Note on, E2 key=40 velocity: 63
@142335 Channel: 9 Note off, D2 key=38 velocity: 65
@142560 Channel: 9 Note off, E2 key=40 velocity: 63
@142560 Channel: 9 Note on, C2 key=36 velocity: 127
@142560 Channel: 9 Note on, D2 key=38 velocity: 84
@142789 Channel: 9 Note off, D2 key=38 velocity: 84
@142800 Channel: 9 Note on, E2 key=40 velocity: 64
@142901 Channel: 9 Note off, E2 key=40 velocity: 64
@142920 Channel: 9 Note on, D2 key=38 velocity: 63
@143038 Channel: 9 Note off, D2 key=38 velocity: 63
@143039 Channel: 9 Note off, C2 key=36 velocity: 127
@143040 Channel: 9 Note on, E2 key=40 velocity: 85
@143274 Channel: 9 Note off, E2 key=40 velocity: 85
@143280 Channel: 9 Note on, D2 key=38 velocity: 63
@143376 Channel: 9 Note off, D2 key=38 velocity: 63
@143399 Channel: 9 Note on, E2 key=40 velocity: 64
@143510 Channel: 9 Note off, E2 key=40 velocity: 64
@143520 Channel: 9 Note on, D2 key=38 velocity: 65
@143721 Channel: 9 Note off, D2 key=38 velocity: 65
@143759 Channel: 9 Note on, E2 key=40 velocity: 65
@143865 Channel: 9 Note off, E2 key=40 velocity: 65
@143878 Channel: 9 Note on, D2 key=38 velocity: 66
@143982 Channel: 9 Note off, D2 key=38 velocity: 66
@144000 Channel: 9 Note on, C2 key=36 velocity: 127
@144000 Channel: 9 Note on, D2 key=38 velocity: 87
@144228 Channel: 9 Note off, D2 key=38 velocity: 87
@144239 Channel: 9 Note on, E2 key=40 velocity: 66
@144345 Channel: 9 Note off, E2 key=40 velocity: 66
@144359 Channel: 9 Note on, D2 key=38 velocity: 66
@144471 Channel: 9 Note off, D2 key=38 velocity: 66
@144479 Channel: 9 Note off, C2 key=36 velocity: 127
@144479 Channel: 9 Note on, E2 key=40 velocity: 84
@144707 Channel: 9 Note off, E2 key=40 velocity: 84
@144718 Channel: 9 Note on, D2 key=38 velocity: 64
@144822 Channel: 9 Note off, D2 key=38 velocity: 64
@144838 Channel: 9 Note on, E2 key=40 velocity: 65
@144958 Channel: 9 Note on, D2 key=38 velocity: 65
@144965 Channel: 9 Note off, E2 key=40 velocity: 65
@145199 Channel: 9 Note on, E2 key=40 velocity: 63
@145215 Channel: 9 Note off, D2 key=38 velocity: 65
@145440 Channel: 9 Note off, E2 key=40 velocity: 63
@145440 Channel: 9 Command:176
@145440 Channel: 9 Note on, C2 key=36 velocity: 127
@145440 Channel: 9 Note on, D2 key=38 velocity: 87
@145643 Channel: 9 Note off, D2 key=38 velocity: 87
@145678 Channel: 9 Note on, E2 key=40 velocity: 63
@145773 Channel: 9 Note off, E2 key=40 velocity: 63
@145797 Channel: 9 Note on, D2 key=38 velocity: 65
@145904 Channel: 9 Note off, D2 key=38 velocity: 65
@145916 Channel: 9 Note off, C2 key=36 velocity: 127
@145917 Channel: 9 Note on, E2 key=40 velocity: 83
@146086 Channel: 9 Note off, E2 key=40 velocity: 83
@146157 Channel: 9 Note on, D2 key=38 velocity: 64
@146277 Channel: 9 Note on, E2 key=40 velocity: 65
@146285 Channel: 9 Note off, D2 key=38 velocity: 64
@146373 Channel: 9 Note off, E2 key=40 velocity: 65
@146397 Channel: 9 Note on, D2 key=38 velocity: 65
@146637 Channel: 9 Note off, D2 key=38 velocity: 65
@146638 Channel: 9 Note on, E2 key=40 velocity: 66
@146880 Channel: 9 Note off, E2 key=40 velocity: 66
@146880 Channel: 9 Note on, C2 key=36 velocity: 127
@146880 Channel: 9 Note on, D2 key=38 velocity: 87
@147108 Channel: 9 Note off, D2 key=38 velocity: 87
@147119 Channel: 9 Note on, E2 key=40 velocity: 66
@147225 Channel: 9 Note off, E2 key=40 velocity: 66
@147239 Channel: 9 Note on, D2 key=38 velocity: 66
@147351 Channel: 9 Note off, D2 key=38 velocity: 66
@147359 Channel: 9 Note on, E2 key=40 velocity: 84
@147363 Channel: 9 Note off, C2 key=36 velocity: 127
@147587 Channel: 9 Note off, E2 key=40 velocity: 84
@147598 Channel: 9 Note on, D2 key=38 velocity: 64
@147702 Channel: 9 Note off, D2 key=38 velocity: 64
@147718 Channel: 9 Note on, E2 key=40 velocity: 65
@147838 Channel: 9 Note on, D2 key=38 velocity: 65
@147845 Channel: 9 Note off, E2 key=40 velocity: 65
@148079 Channel: 9 Note on, E2 key=40 velocity: 63
@148095 Channel: 9 Note off, D2 key=38 velocity: 65
@148320 Channel: 9 Note off, E2 key=40 velocity: 63
@148320 Channel: 9 Note on, C2 key=36 velocity: 127
@148320 Channel: 9 Note on, D2 key=38 velocity: 84
@148549 Channel: 9 Note off, D2 key=38 velocity: 84
@148560 Channel: 9 Note on, E2 key=40 velocity: 64
@148661 Channel: 9 Note off, E2 key=40 velocity: 64
@148680 Channel: 9 Note on, D2 key=38 velocity: 63
@148798 Channel: 9 Note off, D2 key=38 velocity: 63
@148799 Channel: 9 Note off, C2 key=36 velocity: 127
@148800 Channel: 9 Note on, E2 key=40 velocity: 85
@149034 Channel: 9 Note off, E2 key=40 velocity: 85
@149040 Channel: 9 Note on, D2 key=38 velocity: 63
@149136 Channel: 9 Note off, D2 key=38 velocity: 63
@149159 Channel: 9 Note on, E2 key=40 velocity: 64
@149270 Channel: 9 Note off, E2 key=40 velocity: 64
@149280 Channel: 9 Note on, D2 key=38 velocity: 65
@149481 Channel: 9 Note off, D2 key=38 velocity: 65
@149519 Channel: 9 Note on, E2 key=40 velocity: 65
@149625 Channel: 9 Note off, E2 key=40 velocity: 65
@149638 Channel: 9 Note on, D2 key=38 velocity: 66
@149742 Channel: 9 Note off, D2 key=38 velocity: 66
@149760 Channel: 9 Note on, C2 key=36 velocity: 127
@149760 Channel: 9 Note on, D2 key=38 velocity: 87
@149988 Channel: 9 Note off, D2 key=38 velocity: 87
@149999 Channel: 9 Note on, E2 key=40 velocity: 66
@150105 Channel: 9 Note off, E2 key=40 velocity: 66
@150119 Channel: 9 Note on, D2 key=38 velocity: 66
@150231 Channel: 9 Note off, D2 key=38 velocity: 66
@150239 Channel: 9 Note off, C2 key=36 velocity: 127
@150239 Channel: 9 Note on, E2 key=40 velocity: 84
@150467 Channel: 9 Note off, E2 key=40 velocity: 84
@150478 Channel: 9 Note on, D2 key=38 velocity: 64
@150582 Channel: 9 Note off, D2 key=38 velocity: 64
@150598 Channel: 9 Note on, E2 key=40 velocity: 65
@150718 Channel: 9 Note on, D2 key=38 velocity: 65
@150725 Channel: 9 Note off, E2 key=40 velocity: 65
@150959 Channel: 9 Note on, E2 key=40 velocity: 63
@150975 Channel: 9 Note off, D2 key=38 velocity: 65
@151200 Channel: 9 Note off, E2 key=40 velocity: 63
@151200 Channel: 9 Note on, C2 key=36 velocity: 127
@151200 Channel: 9 Note on, D2 key=38 velocity: 87
@151403 Channel: 9 Note off, D2 key=38 velocity: 87
@151438 Channel: 9 Note on, E2 key=40 velocity: 63
@151533 Channel: 9 Note off, E2 key=40 velocity: 63
@151557 Channel: 9 Note on, D2 key=38 velocity: 65
@151664 Channel: 9 Note off, D2 key=38 velocity: 65
@151676 Channel: 9 Note off, C2 key=36 velocity: 127
@151677 Channel: 9 Note on, E2 key=40 velocity: 83
@151846 Channel: 9 Note off, E2 key=40 velocity: 83
@151917 Channel: 9 Note on, D2 key=38 velocity: 64
@152037 Channel: 9 Note on, E2 key=40 velocity: 65
@152045 Channel: 9 Note off, D2 key=38 velocity: 64
@152133 Channel: 9 Note off, E2 key=40 velocity: 65
@152157 Channel: 9 Note on, D2 key=38 velocity: 65
@152397 Channel: 9 Note off, D2 key=38 velocity: 65
@152398 Channel: 9 Note on, E2 key=40 velocity: 66
@152640 Channel: 9 Note off, E2 key=40 velocity: 66
@152640 Channel: 9 Note on, C2 key=36 velocity: 127
@152640 Channel: 9 Note on, D2 key=38 velocity: 87
@152868 Channel: 9 Note off, D2 key=38 velocity: 87
@152879 Channel: 9 Note on, E2 key=40 velocity: 66
@152985 Channel: 9 Note off, E2 key=40 velocity: 66
@152999 Channel: 9 Note on, D2 key=38 velocity: 66
@153111 Channel: 9 Note off, D2 key=38 velocity: 66
@153119 Channel: 9 Note on, E2 key=40 velocity: 84
@153123 Channel: 9 Note off, C2 key=36 velocity: 127
@153347 Channel: 9 Note off, E2 key=40 velocity: 84
@153358 Channel: 9 Note on, D2 key=38 velocity: 64
@153462 Channel: 9 Note off, D2 key=38 velocity: 64
@153478 Channel: 9 Note on, E2 key=40 velocity: 65
@153598 Channel: 9 Note on, D2 key=38 velocity: 65
@153605 Channel: 9 Note off, E2 key=40 velocity: 65
@153839 Channel: 9 Note on, E2 key=40 velocity: 63
@153855 Channel: 9 Note off, D2 key=38 velocity: 65
@154080 Channel: 9 Note off, E2 key=40 velocity: 63
@154080 Channel: 9 Note on, C2 key=36 velocity: 127
@154080 Channel: 9 Note on, D2 key=38 velocity: 84
@154309 Channel: 9 Note off, D2 key=38 velocity: 84
@154320 Channel: 9 Note on, E2 key=40 velocity: 64
@154421 Channel: 9 Note off, E2 key=40 velocity: 64
@154440 Channel: 9 Note on, D2 key=38 velocity: 63
@154558 Channel: 9 Note off, D2 key=38 velocity: 63
@154559 Channel: 9 Note off, C2 key=36 velocity: 127
@154560 Channel: 9 Note on, E2 key=40 velocity: 85
@154794 Channel: 9 Note off, E2 key=40 velocity: 85
@154800 Channel: 9 Note on, D2 key=38 velocity: 63
@154896 Channel: 9 Note off, D2 key=38 velocity: 63
@154919 Channel: 9 Note on, E2 key=40 velocity: 64
@155030 Channel: 9 Note off, E2 key=40 velocity: 64
@155040 Channel: 9 Note on, D2 key=38 velocity: 65
@155241 Channel: 9 Note off, D2 key=38 velocity: 65
@155279 Channel: 9 Note on, E2 key=40 velocity: 65
@155385 Channel: 9 Note off, E2 key=40 velocity: 65
@155398 Channel: 9 Note on, D2 key=38 velocity: 66
@155502 Channel: 9 Note off, D2 key=38 velocity: 66
@155520 Channel: 9 Note on, C2 key=36 velocity: 127
@155520 Channel: 9 Note on, D2 key=38 velocity: 87
@155748 Channel: 9 Note off, D2 key=38 velocity: 87
@155759 Channel: 9 Note on, E2 key=40 velocity: 66
@155865 Channel: 9 Note off, E2 key=40 velocity: 66
@155879 Channel: 9 Note on, D2 key=38 velocity: 66
@155991 Channel: 9 Note off, D2 key=38 velocity: 66
@155999 Channel: 9 Note off, C2 key=36 velocity: 127
@155999 Channel: 9 Note on, E2 key=40 velocity: 84
@156227 Channel: 9 Note off, E2 key=40 velocity: 84
@156238 Channel: 9 Note on, D2 key=38 velocity: 64
@156342 Channel: 9 Note off, D2 key=38 velocity: 64
@156358 Channel: 9 Note on, E2 key=40 velocity: 65
@156478 Channel: 9 Note on, D2 key=38 velocity: 65
@156485 Channel: 9 Note off, E2 key=40 velocity: 65
@156719 Channel: 9 Note on, E2 key=40 velocity: 63
@156735 Channel: 9 Note off, D2 key=38 velocity: 65
@156960 Channel: 9 Note off, E2 key=40 velocity: 63
@156960 Channel: 9 Note on, C2 key=36 velocity: 127
@156960 Channel: 9 Note on, D2 key=38 velocity: 84
@157189 Channel: 9 Note off, D2 key=38 velocity: 84
@157200 Channel: 9 Note on, E2 key=40 velocity: 64
@157301 Channel: 9 Note off, E2 key=40 velocity: 64
@157320 Channel: 9 Note on, D2 key=38 velocity: 63
@157438 Channel: 9 Note off, D2 key=38 velocity: 63
@157439 Channel: 9 Note off, C2 key=36 velocity: 127
@157440 Channel: 9 Note on, E2 key=40 velocity: 85
@157674 Channel: 9 Note off, E2 key=40 velocity: 85
@157680 Channel: 9 Note on, D2 key=38 velocity: 63
@157776 Channel: 9 Note off, D2 key=38 velocity: 63
@157799 Channel: 9 Note on, E2 key=40 velocity: 64
@157910 Channel: 9 Note off, E2 key=40 velocity: 64
@157920 Channel: 9 Note on, D2 key=38 velocity: 65
@158121 Channel: 9 Note off, D2 key=38 velocity: 65
@158159 Channel: 9 Note on, E2 key=40 velocity: 65
@158265 Channel: 9 Note off, E2 key=40 velocity: 65
@158278 Channel: 9 Note on, D2 key=38 velocity: 66
@158382 Channel: 9 Note off, D2 key=38 velocity: 66
@158400 Channel: 9 Note on, C2 key=36 velocity: 127
@158400 Channel: 9 Note on, D2 key=38 velocity: 87
@158628 Channel: 9 Note off, D2 key=38 velocity: 87
@158639 Channel: 9 Note on, E2 key=40 velocity: 66
@158745 Channel: 9 Note off, E2 key=40 velocity: 66
@158759 Channel: 9 Note on, D2 key=38 velocity: 66
@158871 Channel: 9 Note off, D2 key=38 velocity: 66
@158879 Channel: 9 Note off, C2 key=36 velocity: 127
@158879 Channel: 9 Note on, E2 key=40 velocity: 84
@159107 Channel: 9 Note off, E2 key=40 velocity: 84
@159118 Channel: 9 Note on, D2 key=38 velocity: 64
@159222 Channel: 9 Note off, D2 key=38 velocity: 64
@159238 Channel: 9 Note on, E2 key=40 velocity: 65
@159358 Channel: 9 Note on, D2 key=38 velocity: 65
@159365 Channel: 9 Note off, E2 key=40 velocity: 65
@159599 Channel: 9 Note on, E2 key=40 velocity: 63
@159615 Channel: 9 Note off, D2 key=38 velocity: 65
@159840 Channel: 9 Note off, E2 key=40 velocity: 63
@159840 Channel: 9 Note on, C2 key=36 velocity: 127
@159840 Channel: 9 Note on, D2 key=38 velocity: 84
@160069 Channel: 9 Note off, D2 key=38 velocity: 84
@160080 Channel: 9 Note on, E2 key=40 velocity: 64
@160181 Channel: 9 Note off, E2 key=40 velocity: 64
@160200 Channel: 9 Note on, D2 key=38 velocity: 63
@160318 Channel: 9 Note off, D2 key=38 velocity: 63
@160319 Channel: 9 Note off, C2 key=36 velocity: 127
@160320 Channel: 9 Note on, E2 key=40 velocity: 85
@160554 Channel: 9 Note off, E2 key=40 velocity: 85
@160560 Channel: 9 Note on, D2 key=38 velocity: 63
@160656 Channel: 9 Note off, D2 key=38 velocity: 63
@160679 Channel: 9 Note on, E2 key=40 velocity: 64
@160790 Channel: 9 Note off, E2 key=40 velocity: 64
@160800 Channel: 9 Note on, D2 key=38 velocity: 65
@161001 Channel: 9 Note off, D2 key=38 velocity: 65
@161039 Channel: 9 Note on, E2 key=40 velocity: 65
@161145 Channel: 9 Note off, E2 key=40 velocity: 65
@161158 Channel: 9 Note on, D2 key=38 velocity: 66
@161262 Channel: 9 Note off, D2 key=38 velocity: 66
@161280 Channel: 9 Note on, C2 key=36 velocity: 127
@161280 Channel: 9 Note on, D2 key=38 velocity: 87
@161508 Channel: 9 Note off, D2 key=38 velocity: 87
@161519 Channel: 9 Note on, E2 key=40 velocity: 66
@161625 Channel: 9 Note off, E2 key=40 velocity: 66
@161639 Channel: 9 Note on, D2 key=38 velocity: 66
@161751 Channel: 9 Note off, D2 key=38 velocity: 66
@161759 Channel: 9 Note off, C2 key=36 velocity: 127
@161759 Channel: 9 Note on, E2 key=40 velocity: 84
@161987 Channel: 9 Note off, E2 key=40 velocity: 84
@161998 Channel: 9 Note on, D2 key=38 velocity: 64
@162102 Channel: 9 Note off, D2 key=38 velocity: 64
@162118 Channel: 9 Note on, E2 key=40 velocity: 65
@162238 Channel: 9 Note on, D2 key=38 velocity: 65
@162245 Channel: 9 Note off, E2 key=40 velocity: 65
@162479 Channel: 9 Note on, E2 key=40 velocity: 63
@162495 Channel: 9 Note off, D2 key=38 velocity: 65
@162720 Channel: 9 Note off, E2 key=40 velocity: 63
@162720 Channel: 9 Note on, C2 key=36 velocity: 127
@162720 Channel: 9 Note on, D2 key=38 velocity: 84
@162949 Channel: 9 Note off, D2 key=38 velocity: 84
@162960 Channel: 9 Note on, E2 key=40 velocity: 64
@163061 Channel: 9 Note off, E2 key=40 velocity: 64
@163080 Channel: 9 Note on, D2 key=38 velocity: 63
@163198 Channel: 9 Note off, D2 key=38 velocity: 63
@163199 Channel: 9 Note off, C2 key=36 velocity: 127
@163200 Channel: 9 Note on, E2 key=40 velocity: 85
@163434 Channel: 9 Note off, E2 key=40 velocity: 85
@163440 Channel: 9 Note on, D2 key=38 velocity: 63
@163536 Channel: 9 Note off, D2 key=38 velocity: 63
@163559 Channel: 9 Note on, E2 key=40 velocity: 64
@163670 Channel: 9 Note off, E2 key=40 velocity: 64
@163680 Channel: 9 Note on, D2 key=38 velocity: 65
@163881 Channel: 9 Note off, D2 key=38 velocity: 65
@163919 Channel: 9 Note on, E2 key=40 velocity: 65
@164025 Channel: 9 Note off, E2 key=40 velocity: 65
@164038 Channel: 9 Note on, D2 key=38 velocity: 66
@164142 Channel: 9 Note off, D2 key=38 velocity: 66
@164160 Channel: 9 Note on, C2 key=36 velocity: 127
@164160 Channel: 9 Note on, D2 key=38 velocity: 87
@164388 Channel: 9 Note off, D2 key=38 velocity: 87
@164399 Channel: 9 Note on, E2 key=40 velocity: 66
@164505 Channel: 9 Note off, E2 key=40 velocity: 66
@164519 Channel: 9 Note on, D2 key=38 velocity: 66
@164631 Channel: 9 Note off, D2 key=38 velocity: 66
@164639 Channel: 9 Note off, C2 key=36 velocity: 127
@164639 Channel: 9 Note on, E2 key=40 velocity: 84
@164867 Channel: 9 Note off, E2 key=40 velocity: 84
@164878 Channel: 9 Note on, D2 key=38 velocity: 64
@164982 Channel: 9 Note off, D2 key=38 velocity: 64
@164998 Channel: 9 Note on, E2 key=40 velocity: 65
@165118 Channel: 9 Note on, D2 key=38 velocity: 65
@165125 Channel: 9 Note off, E2 key=40 velocity: 65
@165331 Channel: 9 Command:176
@165359 Channel: 9 Note on, E2 key=40 velocity: 63
@165375 Channel: 9 Note off, D2 key=38 velocity: 65
@165497 Channel: 9 Command:176
@165600 Channel: 9 Note off, E2 key=40 velocity: 63
@165600 Channel: 9 Note on, C2 key=36 velocity: 127
@165600 Channel: 9 Note on, D2 key=38 velocity: 84
@165615 Channel: 9 Command:176
@165707 Channel: 9 Command:176
@165771 Channel: 9 Command:176
@165829 Channel: 9 Note off, D2 key=38 velocity: 84
@165835 Channel: 9 Command:176
@165840 Channel: 9 Note on, E2 key=40 velocity: 64
@165899 Channel: 9 Command:176
@165941 Channel: 9 Note off, E2 key=40 velocity: 64
@165960 Channel: 9 Note on, D2 key=38 velocity: 63
@166000 Channel: 9 Command:176
@166073 Channel: 9 Command:176
@166078 Channel: 9 Note off, D2 key=38 velocity: 63
@166079 Channel: 9 Note off, C2 key=36 velocity: 127
@166080 Channel: 9 Note on, E2 key=40 velocity: 85
@166155 Channel: 9 Command:176
@166219 Channel: 9 Command:176
@166314 Channel: 9 Note off, E2 key=40 velocity: 85
@166320 Channel: 9 Command:176
@166320 Channel: 9 Note on, D2 key=38 velocity: 63
@166416 Channel: 9 Note off, D2 key=38 velocity: 63
@166430 Channel: 9 Command:176
@166439 Channel: 9 Note on, E2 key=40 velocity: 64
@166494 Channel: 9 Command:176
@166549 Channel: 9 Command:176
@166550 Channel: 9 Note off, E2 key=40 velocity: 64
@166560 Channel: 9 Note on, D2 key=38 velocity: 65
@166622 Channel: 9 Command:176
@166668 Channel: 9 Command:176
@166760 Channel: 9 Command:176
@166761 Channel: 9 Note off, D2 key=38 velocity: 65
@166799 Channel: 9 Note on, E2 key=40 velocity: 65
@166806 Channel: 9 Command:176
@166851 Channel: 9 Command:176
@166905 Channel: 9 Note off, E2 key=40 velocity: 65
@166916 Channel: 9 Command:176
@166918 Channel: 9 Note on, D2 key=38 velocity: 66
@166989 Channel: 9 Command:176
@167022 Channel: 9 Note off, D2 key=38 velocity: 66
@167040 Channel: 9 Note on, C2 key=36 velocity: 127
@167040 Channel: 9 Note on, D2 key=38 velocity: 87
@167090 Channel: 9 Command:176
@167200 Channel: 9 Command:176
@167268 Channel: 9 Note off, D2 key=38 velocity: 87
@167273 Channel: 9 Command:176
@167279 Channel: 9 Note on, E2 key=40 velocity: 66
@167364 Channel: 9 Command:176
@167385 Channel: 9 Note off, E2 key=40 velocity: 66
@167399 Channel: 9 Note on, D2 key=38 velocity: 66
@167446 Channel: 9 Command:176
@167502 Channel: 9 Command:176
@167511 Channel: 9 Note off, D2 key=38 velocity: 66
@167519 Channel: 9 Note off, C2 key=36 velocity: 127
@167519 Channel: 9 Note on, E2 key=40 velocity: 84
@167538 Channel: 9 Command:176
@167566 Channel: 9 Command:176
@167575 Channel: 9 Command:176
@167593 Channel: 9 Command:176
@167611 Channel: 9 Command:176
@167639 Channel: 9 Command:176
@167666 Channel: 9 Command:176
@167747 Channel: 9 Note off, E2 key=40 velocity: 84
@167758 Channel: 9 Command:176
@167758 Channel: 9 Note on, D2 key=38 velocity: 64
@167862 Channel: 9 Note off, D2 key=38 velocity: 64
@167878 Channel: 9 Note on, E2 key=40 velocity: 65
@167998 Channel: 9 Note on, D2 key=38 velocity: 65
@168005 Channel: 9 Note off, E2 key=40 velocity: 65
@168239 Channel: 9 Note on, E2 key=40 velocity: 63
@168255 Channel: 9 Note off, D2 key=38 velocity: 65
@168480 Channel: 9 Note off, E2 key=40 velocity: 63
@168480 Other message: class javax.sound.midi.Track$ImmutableEndOfTrack

Track 12: size = 82

@0 Other message: class javax.sound.midi.MetaMessage
@0 Other message: class javax.sound.midi.MetaMessage
@0 Other message: class javax.sound.midi.MetaMessage
@0 Other message: class javax.sound.midi.MetaMessage
@800 Channel: 10 Command:176
@805 Channel: 10 Command:176
@810 Channel: 10 Command:192
@815 Channel: 10 Command:176
@820 Channel: 10 Command:176
@825 Channel: 10 Command:176
@830 Channel: 10 Command:176
@835 Channel: 10 Command:176
@835 Channel: 10 Command:176
@835 Channel: 10 Command:176
@840 Channel: 10 Command:176
@840 Channel: 10 Command:176
@840 Channel: 10 Command:176
@845 Channel: 10 Command:176
@845 Channel: 10 Command:176
@845 Channel: 10 Command:176
@850 Channel: 10 Command:176
@850 Channel: 10 Command:176
@850 Channel: 10 Command:176
@855 Channel: 10 Command:176
@855 Channel: 10 Command:176
@855 Channel: 10 Command:176
@860 Channel: 10 Command:176
@860 Channel: 10 Command:176
@860 Channel: 10 Command:176
@865 Channel: 10 Command:176
@865 Channel: 10 Command:176
@865 Channel: 10 Command:176
@870 Channel: 10 Command:176
@870 Channel: 10 Command:176
@870 Channel: 10 Command:176
@875 Channel: 10 Command:176
@875 Channel: 10 Command:176
@875 Channel: 10 Command:176
@1444 Channel: 10 Note on, C4 key=60 velocity: 76
@2656 Channel: 10 Command:176
@2665 Channel: 10 Command:176
@2674 Channel: 10 Command:176
@2683 Channel: 10 Command:176
@2692 Channel: 10 Command:176
@2701 Channel: 10 Command:176
@2709 Channel: 10 Command:176
@2737 Channel: 10 Command:176
@2808 Channel: 10 Command:176
@2834 Channel: 10 Command:176
@2861 Channel: 10 Command:176
@2906 Channel: 10 Command:176
@2950 Channel: 10 Command:176
@2977 Channel: 10 Command:176
@3004 Channel: 10 Command:176
@3030 Channel: 10 Command:176
@3057 Channel: 10 Command:176
@3084 Channel: 10 Command:176
@3111 Channel: 10 Command:176
@3137 Channel: 10 Command:176
@3164 Channel: 10 Command:176
@3199 Channel: 10 Command:176
@3235 Channel: 10 Command:176
@3307 Channel: 10 Command:176
@3360 Channel: 10 Command:176
@3449 Channel: 10 Command:176
@3493 Channel: 10 Command:176
@3547 Channel: 10 Command:176
@3618 Channel: 10 Command:176
@3663 Channel: 10 Command:176
@3698 Channel: 10 Command:176
@3725 Channel: 10 Command:176
@3761 Channel: 10 Command:176
@3787 Channel: 10 Command:176
@3832 Channel: 10 Command:176
@3885 Channel: 10 Command:176
@3921 Channel: 10 Command:176
@3965 Channel: 10 Command:176
@4019 Channel: 10 Command:176
@4072 Channel: 10 Command:176
@4197 Channel: 10 Command:176
@4320 Channel: 10 Note off, C4 key=60 velocity: 76
@168480 Other message: class javax.sound.midi.Track$ImmutableEndOfTrack

Track 13: size = 59

@0 Other message: class javax.sound.midi.MetaMessage
@0 Other message: class javax.sound.midi.MetaMessage
@0 Other message: class javax.sound.midi.MetaMessage
@0 Other message: class javax.sound.midi.MetaMessage
@880 Channel: 11 Command:176
@885 Channel: 11 Command:176
@890 Channel: 11 Command:192
@895 Channel: 11 Command:176
@900 Channel: 11 Command:176
@905 Channel: 11 Command:176
@910 Channel: 11 Command:176
@915 Channel: 11 Command:176
@915 Channel: 11 Command:176
@915 Channel: 11 Command:176
@920 Channel: 11 Command:176
@920 Channel: 11 Command:176
@920 Channel: 11 Command:176
@925 Channel: 11 Command:176
@925 Channel: 11 Command:176
@925 Channel: 11 Command:176
@930 Channel: 11 Command:176
@930 Channel: 11 Command:176
@930 Channel: 11 Command:176
@935 Channel: 11 Command:176
@935 Channel: 11 Command:176
@935 Channel: 11 Command:176
@940 Channel: 11 Command:176
@940 Channel: 11 Command:176
@940 Channel: 11 Command:176
@945 Channel: 11 Command:176
@945 Channel: 11 Command:176
@945 Channel: 11 Command:176
@950 Channel: 11 Command:176
@950 Channel: 11 Command:176
@950 Channel: 11 Command:176
@955 Channel: 11 Command:176
@955 Channel: 11 Command:176
@955 Channel: 11 Command:176
@64799 Channel: 11 Note on, A5 key=81 velocity: 127
@65202 Channel: 11 Note off, A5 key=81 velocity: 127
@70559 Channel: 11 Note on, A5 key=81 velocity: 127
@70962 Channel: 11 Note off, A5 key=81 velocity: 127
@76319 Channel: 11 Note on, A5 key=81 velocity: 127
@76722 Channel: 11 Note off, A5 key=81 velocity: 127
@82079 Channel: 11 Note on, A5 key=81 velocity: 127
@82482 Channel: 11 Note off, A5 key=81 velocity: 127
@84959 Channel: 11 Note on, A5 key=81 velocity: 127
@85362 Channel: 11 Note off, A5 key=81 velocity: 127
@112319 Channel: 11 Note on, A5 key=81 velocity: 127
@112722 Channel: 11 Note off, A5 key=81 velocity: 127
@118079 Channel: 11 Note on, A5 key=81 velocity: 127
@118482 Channel: 11 Note off, A5 key=81 velocity: 127
@123839 Channel: 11 Note on, A5 key=81 velocity: 127
@124242 Channel: 11 Note off, A5 key=81 velocity: 127
@129599 Channel: 11 Note on, A5 key=81 velocity: 127
@130002 Channel: 11 Note off, A5 key=81 velocity: 127
@132479 Channel: 11 Note on, A5 key=81 velocity: 127
@132882 Channel: 11 Note off, A5 key=81 velocity: 127
@168480 Other message: class javax.sound.midi.Track$ImmutableEndOfTrack

